<svg width="34" height="34" viewBox="0 0 34 34" fill="none" xmlns="http://www.w3.org/2000/svg">
<path d="M29.7504 6.80005L26.8837 8.95005C26.5375 9.20969 26.1165 9.35005 25.6837 9.35005H19.0865C18.3289 9.35005 17.6364 9.77805 17.2976 10.4556L16.8654 11.3201C16.4473 12.1562 16.6642 13.1705 17.3877 13.7624L22.9764 18.3349C24.5503 19.6227 25.3648 21.6201 25.1403 23.6413L24.744 27.2077C24.6818 27.7677 24.5606 28.3196 24.3824 28.8541L23.8004 30.6" stroke="#6561C0" stroke-width="2"/>
<path d="M0.849609 14.45L8.28771 13.2103C9.64135 12.9847 10.8149 14.1583 10.5893 15.5119L9.83529 20.0359C9.54661 21.768 10.4214 23.4859 11.992 24.2712L13.9972 25.2738C15.2548 25.9026 15.907 27.3205 15.5659 28.6847L14.4496 33.15" stroke="#6561C0" stroke-width="2"/>
<circle cx="17" cy="17" r="16" stroke="#6561C0" stroke-width="2"/>
</svg>
