<svg width="23" height="23" viewBox="0 0 30 30" fill="none" xmlns="http://www.w3.org/2000/svg">
<path d="M14.4999 17.8H10.6588C9.1299 17.8 8.36544 17.8 8.0762 17.303C7.78696 16.8059 8.16461 16.1413 8.9199 14.812L14.0652 5.75621C14.4402 5.09624 14.6277 4.76626 14.8138 4.81544C14.9999 4.86463 14.9999 5.24416 14.9999 6.00321V11.7C14.9999 11.9357 14.9999 12.0535 15.0732 12.1267C15.1464 12.2 15.2642 12.2 15.4999 12.2H19.3411C20.87 12.2 21.6344 12.2 21.9237 12.697C22.2129 13.194 21.8353 13.8587 21.08 15.188L15.9347 24.2437C15.5597 24.9037 15.3722 25.2337 15.1861 25.1845C14.9999 25.1353 14.9999 24.7558 14.9999 23.9967V18.3C14.9999 18.0643 14.9999 17.9464 14.9267 17.8732C14.8535 17.8 14.7356 17.8 14.4999 17.8Z" fill="#6A6A6A"/>
<circle cx="15" cy="15" r="14" stroke="#6A6A6A" stroke-width="2"/>
</svg>
