<svg width="42" height="30" viewBox="0 0 42 30" fill="none" xmlns="http://www.w3.org/2000/svg">
<path d="M0 10.9455V24.6274C0.00135795 25.8365 0.482282 26.9958 1.33726 27.8508C2.19225 28.7058 3.35147 29.1867 4.5606 29.1881H37.3972C38.6063 29.1867 39.7655 28.7058 40.6205 27.8508C41.4755 26.9958 41.9564 25.8366 41.9578 24.6275V10.9456L0 10.9455ZM11.8577 16.4183H5.47276C5.23238 16.4159 5.00264 16.3188 4.83349 16.148C4.66433 15.9772 4.56944 15.7465 4.56944 15.5061C4.56944 15.2658 4.66433 15.0351 4.83349 14.8643C5.00264 14.6935 5.23238 14.5964 5.47276 14.594H11.8577C12.0981 14.5964 12.3278 14.6935 12.4969 14.8643C12.6661 15.0351 12.761 15.2658 12.761 15.5061C12.761 15.7465 12.6661 15.9772 12.4969 16.148C12.3278 16.3188 12.0981 16.4159 11.8577 16.4183ZM37.3972 23.2592C37.3972 23.6221 37.2531 23.9701 36.9965 24.2267C36.7399 24.4832 36.3919 24.6274 36.0291 24.6274H30.5562C30.1933 24.6274 29.8453 24.4832 29.5888 24.2267C29.3322 23.9701 29.188 23.6221 29.188 23.2592V20.5228C29.188 20.16 29.3322 19.812 29.5888 19.5554C29.8453 19.2988 30.1933 19.1546 30.5562 19.1546H36.029C36.3918 19.1546 36.7398 19.2988 36.9964 19.5554C37.253 19.812 37.3972 20.16 37.3972 20.5228L37.3972 23.2592Z" fill="white"/>
<path d="M41.9578 6.84095V4.56069C41.9564 3.35155 41.4755 2.19232 40.6205 1.33733C39.7655 0.482327 38.6063 0.00138062 37.3972 0H4.5606C3.35148 0.00138058 2.19228 0.482314 1.33729 1.33729C0.482315 2.19227 0.00138058 3.35148 0 4.5606V6.84095H41.9578Z" fill="white"/>
</svg>
