<svg width="32" height="32" viewBox="0 0 31 31" fill="none" xmlns="http://www.w3.org/2000/svg">
<path d="M17.7879 8.68491C19.9092 7.33184 20.4833 4.66351 19.4152 2.45624C19.1878 1.9862 18.4877 2.39727 18.7144 2.86586C19.6078 4.71206 19.0706 6.98083 17.2638 8.0528C15.7026 8.979 13.6282 8.71487 12.3877 7.36946C11.1831 6.06303 10.9934 4.0653 11.9607 2.5666C13.1342 0.748445 15.4847 0.32854 17.3174 1.36778C17.7724 1.62574 18.1818 0.924867 17.727 0.666993C15.5901 -0.544691 12.8767 -0.0963518 11.4107 1.93747C10.1004 3.75537 10.2818 6.31482 11.8138 7.94335C13.3436 9.56951 15.9064 9.885 17.7879 8.68491Z" fill="#3C3C3C"/>
<path d="M18.3903 2.11461C18.5999 2.11461 18.7699 1.94467 18.7699 1.73504C18.7699 1.52541 18.5999 1.35547 18.3903 1.35547C18.1807 1.35547 18.0107 1.52541 18.0107 1.73504C18.0107 1.94467 18.1807 2.11461 18.3903 2.11461Z" fill="#3C3C3C"/>
<path d="M15.2503 3.35769C15.5578 3.35769 15.8177 3.57659 15.8177 3.83565C15.8177 4.05529 15.9963 4.2339 16.2159 4.2339C16.4354 4.2339 16.614 4.05529 16.614 3.83565C16.614 3.30782 16.2585 2.82842 15.7289 2.64251L15.6524 2.61561L15.647 2.53468C15.6332 2.32624 15.4588 2.16302 15.2503 2.16302C15.0418 2.16302 14.8674 2.32624 14.8535 2.53468L14.8481 2.61561L14.7717 2.64251C14.2423 2.82842 13.8867 3.30795 13.8867 3.83565C13.8867 4.5384 14.4983 5.11019 15.2503 5.11019C15.5578 5.11019 15.8177 5.32909 15.8177 5.58814C15.8177 5.8472 15.5578 6.0661 15.2503 6.0661C14.9429 6.0661 14.6832 5.8472 14.6832 5.58814C14.6832 5.3685 14.5046 5.18981 14.285 5.18981C14.0654 5.18981 13.8868 5.3685 13.8868 5.58814C13.8868 6.11715 14.2436 6.59716 14.7748 6.7825L14.8461 6.80744L14.8563 6.88224C14.8825 7.07888 15.0521 7.22708 15.2503 7.22708C15.4485 7.22708 15.618 7.07874 15.6445 6.88211L15.6546 6.80731L15.7259 6.78246C16.2571 6.59712 16.614 6.11711 16.614 5.5881C16.614 4.88534 16.0024 4.31356 15.2505 4.31356C14.9431 4.31356 14.6832 4.0947 14.6832 3.8356C14.6832 3.57659 14.9429 3.35769 15.2503 3.35769Z" fill="#3C3C3C"/>
<path d="M1.0514 23.3588H3.43111C4.01086 23.3588 4.48247 22.8873 4.48247 22.3075V21.7328C4.48868 21.7329 4.49446 21.7347 4.50071 21.7347H6.80461C5.86563 23.2822 5.67351 24.2736 6.19818 24.8007C6.40623 25.0153 6.67907 25.1235 7.02264 25.1235C7.46931 25.1235 8.03655 24.9389 8.73371 24.5688C8.24237 25.6033 8.21105 26.3019 8.62802 26.7205C8.83349 26.9326 9.10812 27.0278 9.43625 27.0278C10.0204 27.0278 10.7742 26.7249 11.6075 26.2394C11.6176 26.4991 11.6942 26.7556 11.8972 26.9595C12.1046 27.1735 12.3821 27.2805 12.727 27.2805C12.8703 27.2805 13.0261 27.2608 13.1925 27.2239C13.2412 28.3911 14.3802 29.8087 14.5484 30.0117L14.5739 30.0398C14.7957 30.2616 15.0941 30.3688 15.4222 30.3688C15.9225 30.3688 16.4918 30.1197 16.9623 29.6489C17.3435 29.2678 17.5782 28.8223 17.6542 28.4009C17.7116 28.408 17.7687 28.4159 17.8288 28.4159C17.9417 28.4159 18.0588 28.4032 18.1783 28.3774C18.5974 28.2871 19.0198 28.0457 19.3676 27.6978C19.7155 27.3501 19.9568 26.9276 20.047 26.5086C20.0513 26.4885 20.0531 26.469 20.0567 26.4491C20.13 26.461 20.2053 26.4685 20.2832 26.4685C20.3961 26.4685 20.5132 26.4558 20.6327 26.4301C21.0518 26.3397 21.4742 26.0984 21.8219 25.7505C22.1699 25.4027 22.4112 24.9803 22.5014 24.5612C22.5379 24.3918 22.5469 24.2278 22.532 24.0733C22.6063 24.0674 22.6814 24.0582 22.7582 24.0417C23.1775 23.9515 23.5999 23.7102 23.9477 23.3623C24.4461 22.8638 24.6946 22.2553 24.6634 21.7347H25.9989C26.0052 21.7347 26.011 21.733 26.0173 21.7328V22.3075C26.0173 22.8872 26.4888 23.3588 27.0684 23.3588H29.4481C30.0279 23.3588 30.4995 22.8873 30.4995 22.3075V10.6159C30.4995 10.0361 30.0279 9.5645 29.4481 9.5645H27.0684C26.4888 9.5645 26.0173 10.0361 26.0173 10.6159V10.7324C26.011 10.7323 26.0052 10.7306 25.9989 10.7306H15.1444H4.50067C4.49441 10.7306 4.48864 10.7323 4.48243 10.7324V10.6158C4.48243 10.0361 4.01086 9.56445 3.43107 9.56445H1.05136C0.471611 9.56445 0 10.036 0 10.6158V22.3074C4.37447e-05 22.8872 0.471611 23.3588 1.0514 23.3588ZM12.4762 26.3908C12.4031 26.3173 12.3838 26.0813 12.5285 25.6537C13.7135 24.8431 14.985 23.7776 16.1238 22.7494L15.5797 22.147C14.1363 23.4504 12.8907 24.4253 11.8858 25.0994L11.8724 25.0938C11.8699 25.0998 11.8667 25.1075 11.864 25.114C10.4083 26.0876 9.46696 26.4197 9.20698 26.1519C9.19115 26.1358 8.83419 25.7372 10.1864 23.6635C10.3879 23.5228 10.5969 23.3718 10.8135 23.2104C12.4576 21.9861 13.9648 20.5822 13.9898 20.5585C14.1606 20.3879 14.3152 20.2012 14.4495 20.0041L13.7786 19.5472C13.6728 19.7025 13.551 19.8497 13.4259 19.9749C13.4112 19.9886 11.937 21.3617 10.3287 22.5595C7.95715 24.3257 6.98309 24.4442 6.77718 24.232C6.75636 24.211 6.29136 23.6842 8.48279 20.7001C9.66928 19.0845 11.023 17.5933 11.0234 17.5921C11.2515 17.3642 11.4653 17.1106 11.6721 16.8653C12.1703 16.2744 12.5397 15.8679 12.8433 15.8539C12.9842 15.8618 13.0952 15.9613 13.2046 16.0741L13.2478 16.1179C14.1133 16.9261 17.9345 20.3685 20.2227 20.3682C20.2353 20.3682 20.2474 20.3671 20.26 20.3668C20.0496 20.9327 20.2671 21.6469 20.5813 22.2738C19.8291 21.9195 18.9788 21.7493 18.4039 22.333C17.8983 22.8398 18.0027 23.5965 18.2916 24.3021C17.5018 23.8957 16.5668 23.6536 15.9496 24.2804C15.4505 24.7806 15.5455 25.5244 15.8258 26.2221C15.0493 25.8348 14.1462 25.6205 13.5443 26.2313C13.5213 26.2543 13.5016 26.2786 13.4811 26.3026L13.4741 26.2854C12.979 26.4854 12.6077 26.5264 12.4762 26.3908ZM16.3885 29.0751C15.9371 29.5265 15.3649 29.6584 15.1584 29.4759C14.4778 28.6479 13.6846 27.2397 14.1208 26.8028C14.6207 26.2944 16.1262 27.2775 16.7703 27.8282C16.7833 27.8453 16.7962 27.8622 16.8081 27.8778C16.9559 28.1047 16.8202 28.6432 16.3885 29.0751ZM19.2536 26.3375C19.1968 26.6018 19.0291 26.8886 18.7938 27.124C18.5584 27.3593 18.2717 27.5272 18.0073 27.5841C17.8137 27.6261 17.6534 27.6041 17.5639 27.5252C17.5398 27.4958 17.5154 27.4642 17.491 27.4334C17.4606 27.3869 17.4266 27.3426 17.3886 27.3006C16.758 26.4622 16.1283 25.2503 16.526 24.8517C17.0301 24.3391 18.5576 25.3437 19.1923 25.8914C19.2735 25.9803 19.2959 26.142 19.2536 26.3375ZM21.708 24.3902C21.6512 24.6545 21.4835 24.9412 21.2481 25.1766C21.0127 25.412 20.726 25.5799 20.4617 25.6367C20.2679 25.6787 20.1078 25.6569 20.0183 25.5779C19.3384 24.7488 18.5456 23.34 18.9804 22.9043C19.4847 22.392 21.0119 23.3963 21.6466 23.944C21.7278 24.0329 21.7502 24.1946 21.708 24.3902ZM23.3738 22.7884C23.1384 23.0238 22.8517 23.1914 22.5872 23.2483C22.3948 23.2903 22.2335 23.2686 22.1438 23.1894C21.4633 22.3612 20.67 20.953 21.1059 20.5161C21.6102 20.0035 23.1376 21.0077 23.7723 21.5555C23.9578 21.7594 23.8272 22.3348 23.3738 22.7884ZM26.8289 10.6159C26.8289 10.4837 26.9363 10.3761 27.0684 10.3761H29.4481C29.5803 10.3761 29.6879 10.4837 29.6879 10.6159V22.3075C29.6879 22.4396 29.5803 22.5473 29.4481 22.5473H27.0684C26.9363 22.5473 26.8289 22.4397 26.8289 22.3075V20.9046V11.5604V10.6159ZM26.0173 11.5604V20.9046C26.0173 20.9137 26.008 20.9231 25.9989 20.9231H24.2816C23.9918 20.6757 22.713 19.6362 21.6034 19.5659C22.5286 17.5277 18.4287 12.733 17.547 11.7375L17.5302 11.7197C17.4676 11.6571 17.3993 11.5986 17.3282 11.5421H25.9989C26.0082 11.5421 26.0173 11.5513 26.0173 11.5604ZM4.50067 11.5421H13.8715C15.4332 11.5421 16.4398 11.7853 16.948 12.2854C19.0145 14.6211 21.6544 18.4786 20.77 19.366C20.7357 19.4011 20.6967 19.43 20.6552 19.4557C20.6535 19.4525 20.6523 19.449 20.6505 19.4457L20.5067 19.5227C19.2725 19.9252 15.953 17.5333 13.812 15.5345L13.7872 15.5094C13.6982 15.4175 13.5296 15.2464 13.2835 15.1379L13.2887 15.125C12.3863 14.7579 11.6776 15.5996 11.0517 16.3422C10.8557 16.5744 10.6532 16.8146 10.4362 17.0319C10.4226 17.0472 9.04347 18.566 7.83183 20.2153C7.6505 20.4621 7.48576 20.6962 7.33042 20.9231H4.50063C4.49153 20.9231 4.48238 20.9138 4.48238 20.9047V11.5604C4.48243 11.5513 4.49157 11.5421 4.50067 11.5421ZM0.811638 10.6159C0.811638 10.4837 0.919206 10.3761 1.0514 10.3761H3.43111C3.56327 10.3761 3.67088 10.4837 3.67088 10.6159V11.5604V20.9046V22.3075C3.67088 22.4396 3.56327 22.5473 3.43111 22.5473H1.0514C0.91925 22.5473 0.811638 22.4397 0.811638 22.3075V10.6159Z" fill="#3C3C3C"/>
<path d="M28.6853 8.17271C30.4773 6.91667 30.9227 4.60564 29.993 2.68447C29.7656 2.21443 29.0655 2.6255 29.2922 3.09409C30.9851 6.59244 26.4205 9.90872 23.74 7.02962C21.0533 4.14383 24.7045 -0.126915 28.0683 1.78044C28.5233 2.0384 28.9328 1.33752 28.4779 1.07965C26.6247 0.0288154 24.2853 0.361975 22.9338 2.06167C21.6381 3.69116 21.7454 6.08487 23.1661 7.60355C24.5836 9.11891 26.9886 9.36191 28.6853 8.17271Z" fill="#3C3C3C"/>
<path d="M28.707 2.06717C28.707 2.25326 28.8579 2.40414 29.044 2.40414C29.2301 2.40414 29.381 2.25326 29.381 2.06717C29.381 1.88104 29.2301 1.73016 29.044 1.73016C28.8579 1.73021 28.707 1.88108 28.707 2.06717Z" fill="#3C3C3C"/>
<path d="M26.2564 3.50781C26.5295 3.50781 26.7602 3.70213 26.7602 3.93213C26.7602 4.1271 26.9187 4.28568 27.1137 4.28568C27.3085 4.28568 27.4671 4.1271 27.4671 3.93213C27.4671 3.46354 27.1514 3.03791 26.6813 2.8729L26.6134 2.84902L26.6086 2.77719C26.5963 2.59215 26.4415 2.44727 26.2564 2.44727C26.0713 2.44727 25.9165 2.59215 25.9042 2.77719L25.8994 2.84902L25.8316 2.8729C25.3616 3.03795 25.0459 3.46363 25.0459 3.93213C25.0459 4.55602 25.5888 5.06363 26.2564 5.06363C26.5295 5.06363 26.7602 5.25795 26.7602 5.48796C26.7602 5.71797 26.5295 5.91228 26.2564 5.91228C25.9836 5.91228 25.753 5.71797 25.753 5.48796C25.753 5.29299 25.5945 5.13433 25.3995 5.13433C25.2045 5.13433 25.0459 5.29299 25.0459 5.48796C25.0459 5.9576 25.3627 6.38372 25.8344 6.54828L25.8977 6.57042L25.9067 6.63682C25.93 6.81136 26.0805 6.94299 26.2565 6.94299C26.4324 6.94299 26.583 6.81132 26.6064 6.63674L26.6155 6.57033L26.6788 6.54828C27.1504 6.38372 27.4672 5.9576 27.4672 5.48796C27.4672 4.86407 26.9243 4.35646 26.2567 4.35646C25.9838 4.35646 25.7531 4.16214 25.7531 3.93213C25.753 3.70213 25.9835 3.50781 26.2564 3.50781Z" fill="#3C3C3C"/>
<path d="M6.51338 7.98876C8.18154 6.75818 8.57458 4.57681 7.69361 2.75624C7.46618 2.28621 6.76609 2.69728 6.99282 3.16587C8.57104 6.4273 4.39845 9.64017 1.77211 7.01387C-0.945524 4.29623 2.53664 0.0745655 5.82335 1.91022C6.27987 2.16517 6.68954 1.46442 6.23297 1.20943C4.39172 0.181084 2.07933 0.534847 0.797219 2.27265C-0.385767 3.87602 -0.211008 6.17856 1.19823 7.58775C2.60755 8.99708 4.90996 9.17157 6.51338 7.98876Z" fill="#3C3C3C"/>
<path d="M6.44434 2.17166C6.44434 2.35036 6.58922 2.49524 6.76792 2.49524C6.94666 2.49524 7.09149 2.35036 7.09149 2.17166C7.09149 1.99297 6.94661 1.84808 6.76792 1.84808C6.58922 1.84808 6.44434 1.99297 6.44434 2.17166Z" fill="#3C3C3C"/>
<path d="M4.09114 3.55502C4.35334 3.55502 4.57487 3.74164 4.57487 3.96246C4.57487 4.14969 4.72714 4.30196 4.91437 4.30196C5.10146 4.30196 5.2537 4.14969 5.2537 3.96246C5.2537 3.5125 4.95055 3.1038 4.4991 2.94531L4.43392 2.92239L4.42933 2.8534C4.41752 2.67571 4.26887 2.53656 4.09109 2.53656C3.91332 2.53656 3.76467 2.67567 3.75286 2.8534L3.74831 2.92239L3.68313 2.94531C3.23182 3.1038 2.92871 3.51259 2.92871 3.96246C2.92871 4.56154 3.45006 5.04899 4.09114 5.04899C4.35334 5.04899 4.57487 5.23561 4.57487 5.45643C4.57487 5.67725 4.3533 5.86387 4.09114 5.86387C3.82911 5.86387 3.60772 5.67725 3.60772 5.45643C3.60772 5.2692 3.45544 5.11684 3.26821 5.11684C3.08099 5.11684 2.92871 5.2692 2.92871 5.45643C2.92871 5.90739 3.23291 6.31658 3.6858 6.47459L3.74656 6.49585L3.75522 6.55963C3.77758 6.72725 3.92215 6.85359 4.09109 6.85359C4.26004 6.85359 4.40461 6.72717 4.42714 6.55954L4.4358 6.49576L4.49656 6.47459C4.94945 6.31658 5.25365 5.90739 5.25365 5.45643C5.25365 4.85735 4.73226 4.3699 4.09123 4.3699C3.82924 4.3699 3.60767 4.18333 3.60767 3.96246C3.60772 3.74164 3.82911 3.55502 4.09114 3.55502Z" fill="#3C3C3C"/>
<path d="M26.8291 10.6159C26.8291 10.4837 26.9365 10.3761 27.0686 10.3761H29.4484C29.5805 10.3761 29.6881 10.4837 29.6881 10.6159V22.3075C29.6881 22.4397 29.5805 22.5473 29.4484 22.5473H27.0686C26.9365 22.5473 26.8291 22.4397 26.8291 22.3075V20.9047V11.5604V10.6159Z" fill="#F16235"/>
<path d="M0.811523 10.6159C0.811523 10.4837 0.919091 10.3761 1.05129 10.3761H3.431C3.56315 10.3761 3.67076 10.4837 3.67076 10.6159V11.5604V20.9047V22.3075C3.67076 22.4397 3.56315 22.5473 3.431 22.5473H1.05129C0.919135 22.5473 0.811523 22.4397 0.811523 22.3075V10.6159Z" fill="#6561C0"/>
</svg>
