<svg width="33" height="33" viewBox="0 0 33 33" fill="none" xmlns="http://www.w3.org/2000/svg">
<path fill-rule="evenodd" clip-rule="evenodd" d="M28.8721 16.3476C28.8721 15.5109 28.7819 14.7 28.6275 13.9019C28.473 13.1425 28.2542 12.4088 27.971 11.7008C27.6621 10.9285 27.2759 10.2076 26.8383 9.5254C26.362 8.79169 25.8085 8.12234 25.2035 7.50448C24.6242 6.92524 23.9806 6.41035 23.2984 5.94695C22.6677 5.52217 21.9855 5.16175 21.2775 4.85282C20.5309 4.53102 19.7457 4.28645 18.9348 4.10624C18.111 3.9389 17.2485 3.83593 16.3603 3.83593C16.1372 3.84451 15.9141 3.85309 15.691 3.86167C15.5194 3.87025 15.352 3.88312 15.189 3.90029C15.1289 3.90887 15.0688 3.91316 15.0088 3.91316C14.88 3.93032 14.7513 3.94748 14.6226 3.96465C14.5625 3.97323 14.5068 3.98181 14.4553 3.99039C14.2751 4.01613 14.0948 4.04617 13.9146 4.08049C13.1552 4.23496 12.4086 4.45379 11.7135 4.73697C10.9412 5.04591 10.2075 5.43207 9.52524 5.88259C8.8044 6.35886 8.13505 6.89949 7.51719 7.50448C6.93794 8.08373 6.42306 8.72733 5.95966 9.40956C5.53488 10.0403 5.16159 10.7225 4.86553 11.4305C4.54373 12.1771 4.28629 12.9623 4.11895 13.7732C3.93874 14.6099 3.84863 15.4723 3.84863 16.3476C3.84863 17.1843 3.93874 18.0081 4.0932 18.7933C4.24767 19.5657 4.4665 20.2994 4.74968 21.0073C5.05861 21.7668 5.44478 22.5005 5.88243 23.1827C6.3587 23.9036 6.9122 24.5858 7.51719 25.1908C8.09644 25.77 8.74004 26.2978 9.42226 26.7483C10.053 27.1731 10.7224 27.5464 11.4432 27.8553C12.1898 28.1771 12.975 28.4217 13.7859 28.589C13.9661 28.6319 14.1549 28.6663 14.3523 28.692C14.4038 28.7092 14.4596 28.7178 14.5196 28.7178C14.6569 28.7435 14.7942 28.7649 14.9315 28.7821C15.0002 28.7907 15.0645 28.795 15.1246 28.795C15.2962 28.8121 15.4722 28.8293 15.6524 28.8465H15.7039C15.927 28.8551 16.1458 28.8593 16.3603 28.8593C16.5663 28.8593 16.7723 28.8551 16.9782 28.8465H17.0297C17.0812 28.8379 17.1327 28.8336 17.1842 28.8336C17.2957 28.825 17.4073 28.8164 17.5188 28.8079C17.4845 28.8079 17.4502 28.8121 17.4159 28.8207C17.4502 28.8121 17.4888 28.8079 17.5317 28.8079C17.5918 28.7993 17.6518 28.7907 17.7119 28.7821C17.8406 28.7735 17.9694 28.7607 18.0981 28.7435C18.1582 28.7349 18.2139 28.7263 18.2654 28.7178C18.4456 28.6834 18.6258 28.6491 18.806 28.6148C19.5655 28.4732 20.2992 28.2415 21.0072 27.9583C21.7795 27.6494 22.5003 27.2761 23.1954 26.8255C23.9163 26.3493 24.5856 25.8086 25.2035 25.1908C25.7827 24.6115 26.2976 23.9808 26.761 23.2986C27.1858 22.655 27.5591 21.9856 27.8552 21.2777C28.177 20.5311 28.4344 19.7459 28.6017 18.9349C28.7819 18.0982 28.8721 17.2358 28.8721 16.3476ZM17.4159 28.8207C17.3386 28.8207 17.2614 28.825 17.1842 28.8336C17.1327 28.8336 17.0855 28.8379 17.0426 28.8465C17.1627 28.8379 17.2871 28.8293 17.4159 28.8207Z" fill="#FFAB3D"/>
<path d="M4.20888 11.1473C3.87421 11.9454 3.60389 12.7692 3.42368 13.6317C3.35503 13.9835 3.29496 14.3439 3.24347 14.7129L0.128418 14.3139C0.188488 13.8677 0.265721 13.4214 0.360116 12.9752C0.578942 11.9197 0.900746 10.8899 1.32553 9.91162C1.40276 9.73141 1.48428 9.55549 1.5701 9.38386L4.40196 10.7226C4.34189 10.8599 4.27753 11.0015 4.20888 11.1473Z" fill="#F5F8F5"/>
<path d="M30.0434 7.38866L27.4046 9.11353C26.9154 8.35407 26.3362 7.6461 25.7055 7.01537C25.3622 6.67211 24.9975 6.34602 24.6113 6.03709L26.5808 3.57851C27.0442 3.96467 27.4947 4.36371 27.9195 4.78849C28.7175 5.57369 29.4255 6.449 30.0434 7.38866Z" fill="#F5F8F5"/>
<path d="M11.4426 4.08052C10.8419 4.32939 10.2626 4.61257 9.70485 4.93008L8.12158 2.21407C8.8081 1.81932 9.52464 1.47177 10.2712 1.17142C11.1208 0.823874 12.009 0.553561 12.9229 0.360479L13.5794 3.43692C12.8457 3.59138 12.1248 3.81021 11.4426 4.08052Z" fill="#F5F8F5"/>
<path d="M28.5111 21.548C28.8458 20.7628 29.1161 19.9389 29.2835 19.0765C29.3607 18.7247 29.4208 18.3642 29.4637 17.9952L32.5916 18.3814C32.5315 18.8362 32.4543 19.2825 32.3599 19.7201C32.1411 20.7885 31.8193 21.8054 31.3945 22.7837C31.3173 22.9639 31.2357 23.1441 31.1499 23.3243L28.3052 21.9856C28.3738 21.8397 28.4425 21.6938 28.5111 21.548Z" fill="#F5F8F5"/>
<path d="M21.2774 28.6148C21.8781 28.3745 22.4573 28.0914 23.0151 27.7653L24.5984 30.4813C23.9119 30.8846 23.1953 31.2365 22.4488 31.5368C21.5992 31.8715 20.711 32.1418 19.7971 32.3477L19.1406 29.2713C19.8743 29.104 20.5952 28.898 21.2774 28.6148Z" fill="#F5F8F5"/>
<path fill-rule="evenodd" clip-rule="evenodd" d="M32.721 16.3476C32.721 15.2535 32.6051 14.1851 32.3992 13.1553C32.2061 12.1513 31.91 11.1859 31.5496 10.2719C31.1377 9.26792 30.6485 8.31538 30.0564 7.41433L30.0436 7.38859L27.4048 9.11345C26.9156 8.354 26.3364 7.64603 25.7056 7.0153C25.3624 6.67204 24.9977 6.34595 24.6115 6.03701L26.5809 3.57844C26.2119 3.28667 25.8301 3.01206 25.4353 2.75462C24.6115 2.18824 23.7233 1.71198 22.7965 1.31294C21.8183 0.901033 20.7885 0.566357 19.733 0.34753C18.6388 0.115833 17.519 -1.90735e-05 16.3605 -1.90735e-05C15.2663 -1.90735e-05 14.198 0.102959 13.1682 0.308914C13.0824 0.326077 13.0008 0.343243 12.9236 0.360405L13.5801 3.43684C12.8464 3.59131 12.1255 3.81013 11.4433 4.08045C10.8426 4.32931 10.2634 4.6125 9.70559 4.93001L8.12231 2.21399C7.89062 2.35987 7.65892 2.50576 7.42722 2.65164C6.47468 3.2695 5.59938 3.99035 4.8013 4.78842C4.04185 5.54787 3.35963 6.37169 2.75464 7.27274C2.3084 7.94209 1.91366 8.64577 1.5704 9.38377L4.40227 10.7225C4.3422 10.8598 4.27784 11.0014 4.20919 11.1472C3.87451 11.9453 3.6042 12.7691 3.42399 13.6316C3.35533 13.9834 3.29527 14.3438 3.24378 14.7128H3.25665L0.128721 14.3138C0.0514885 14.9831 0.00858142 15.6611 0 16.3476C0 17.4417 0.115849 18.5101 0.321803 19.5528C0.514885 20.5439 0.810944 21.5093 1.17136 22.4361C1.58327 23.4401 2.07241 24.3927 2.66453 25.2808L2.6774 25.3195L5.31619 23.5946C5.80533 24.3541 6.38458 25.062 7.01531 25.6928C7.35857 26.036 7.72328 26.3621 8.10944 26.671L6.14001 29.1167C6.50901 29.4171 6.88659 29.696 7.27275 29.9534C8.10944 30.5069 8.99762 30.9961 9.92441 31.3951C10.9027 31.807 11.9196 32.1288 12.988 32.3605C14.0821 32.5793 15.202 32.7081 16.3605 32.7081C17.4546 32.7081 18.523 32.5922 19.5528 32.3991C19.6386 32.382 19.7201 32.3648 19.7973 32.3476L19.1409 29.2712C19.8746 29.1039 20.5954 28.8979 21.2776 28.6147C21.8783 28.3745 22.4576 28.0913 23.0154 27.7652L24.5986 30.4812C24.8303 30.3439 25.062 30.2023 25.2937 30.0564C26.2463 29.4257 27.1216 28.7177 27.9196 27.9196C28.6791 27.1602 29.3613 26.3235 29.9663 25.4353C30.4125 24.766 30.8073 24.0623 31.1506 23.3243L28.3058 21.9856C28.3745 21.8397 28.4431 21.6938 28.5118 21.5479C28.8464 20.7627 29.1168 19.9389 29.2841 19.0765C29.3613 18.7161 29.4214 18.3556 29.4643 17.9952L32.5922 18.3814C32.6695 17.7206 32.7124 17.0427 32.721 16.3476ZM5.29045 23.5689L5.31619 23.5946C5.30761 23.586 5.29903 23.5774 5.29045 23.5689ZM27.0186 12.0869C27.276 12.7305 27.482 13.3999 27.6236 14.1078C27.7652 14.8287 27.8424 15.5881 27.8424 16.3476C27.8424 17.1585 27.7652 17.9566 27.5978 18.7161C27.4434 19.4626 27.2117 20.1835 26.9156 20.8657C26.6324 21.5222 26.2978 22.14 25.9116 22.7322C25.4868 23.35 25.0105 23.9421 24.4828 24.4699C23.9164 25.0363 23.2986 25.5383 22.6292 25.9631C21.9985 26.375 21.3291 26.7225 20.634 27.0057C19.9775 27.276 19.3082 27.482 18.6002 27.6107C17.8794 27.7652 17.1328 27.8424 16.3605 27.8424C15.5495 27.8424 14.7515 27.7523 13.992 27.5978C13.2454 27.4305 12.5246 27.1988 11.8424 26.9156C11.1859 26.6324 10.568 26.2977 9.98877 25.8987C9.35804 25.4868 8.77879 24.9977 8.23816 24.4699C7.68466 23.9035 7.18265 23.2857 6.745 22.6163C6.33309 21.9985 5.98554 21.3291 5.70235 20.6211C5.44491 19.9775 5.23896 19.2953 5.09736 18.6002C4.95577 17.8665 4.87854 17.1199 4.87854 16.3476C4.87854 15.5366 4.95577 14.7514 5.12311 13.9791C5.27757 13.2325 5.50927 12.5246 5.80533 11.8295C6.07994 11.1773 6.41461 10.5594 6.80936 9.97588C7.23414 9.34515 7.71041 8.7659 8.23816 8.23815C8.80454 7.67177 9.4224 7.16976 10.0918 6.73211C10.7225 6.3202 11.3918 5.97265 12.0869 5.68947C12.7434 5.43202 13.4128 5.22607 14.1207 5.08447C14.8416 4.94288 15.5882 4.86565 16.3605 4.86565C17.1714 4.86565 17.9566 4.95576 18.7289 5.11022C19.4755 5.26469 20.1964 5.49638 20.8786 5.79244C21.5351 6.07563 22.1529 6.41031 22.7322 6.79647C23.3629 7.22125 23.9422 7.69752 24.4828 8.23815C25.0363 8.79165 25.5383 9.40951 25.976 10.0789C26.3879 10.7096 26.7354 11.3789 27.0186 12.0869Z" fill="#FFAB3D"/>
<path d="M7.01515 25.6928C7.35841 26.0361 7.72312 26.3622 8.10928 26.6711L6.13985 29.1168C5.67645 28.7435 5.22593 28.3445 4.80115 27.9197C4.00308 27.1216 3.29511 26.2592 2.67725 25.3195L5.31603 23.5947C5.80517 24.3541 6.38442 25.0621 7.01515 25.6928Z" fill="#F5F8F5"/>
<path d="M26.6962 18.523C26.5417 19.2181 26.3357 19.8746 26.0654 20.5053C25.808 21.1103 25.4991 21.6767 25.1386 22.2173C24.7525 22.7837 24.3148 23.3243 23.8257 23.8135C23.3108 24.3284 22.7315 24.7917 22.1265 25.1908C21.5473 25.5641 20.9294 25.8859 20.2858 26.1562C19.6937 26.3879 19.063 26.581 18.4194 26.7097C17.75 26.8384 17.0678 26.9156 16.3598 26.9156C15.6133 26.9156 14.8795 26.8255 14.1844 26.684C13.5022 26.5424 12.8329 26.3235 12.2021 26.0532C11.61 25.7958 11.0308 25.4868 10.503 25.1264C9.92377 24.7403 9.38314 24.3026 8.894 23.8135C8.37911 23.2986 7.91572 22.7322 7.51668 22.1143C7.14339 21.5351 6.82159 20.9301 6.56414 20.2736C6.31957 19.6815 6.13936 19.0636 6.01064 18.42C5.86905 17.7507 5.80469 17.0556 5.80469 16.3476C5.80469 15.601 5.88192 14.8802 6.02351 14.1722C6.17798 13.49 6.38393 12.8335 6.65425 12.2028C6.91169 11.6021 7.22062 11.0314 7.58104 10.4908C7.96721 9.91156 8.40486 9.38381 8.894 8.89467C9.40888 8.37978 9.98813 7.91638 10.5931 7.51735C11.1724 7.13118 11.7902 6.80938 12.4338 6.55194C13.026 6.32024 13.6567 6.12716 14.3003 5.99844C14.798 5.89546 15.3129 5.8311 15.845 5.80536C15.3215 5.8311 14.8109 5.89546 14.3132 5.99844C13.6824 6.12716 13.0646 6.30737 12.4853 6.53907C11.8417 6.79651 11.2367 7.11831 10.6575 7.4916C10.0525 7.89064 9.49899 8.34116 8.9841 8.85605C8.50784 9.33232 8.07018 9.87295 7.68402 10.4393C7.33647 10.9671 7.02754 11.5335 6.7701 12.1256C6.49978 12.7434 6.29383 13.3999 6.15224 14.0821C6.01064 14.7772 5.92054 15.4852 5.92054 16.2318C5.92054 16.9269 5.99777 17.6091 6.12649 18.2656C6.25521 18.8963 6.43542 19.5142 6.67999 20.1063C6.93744 20.7499 7.24637 21.3549 7.61966 21.9213C8.01869 22.5263 8.48209 23.0926 8.9841 23.5946C9.47325 24.0838 10.001 24.5214 10.5674 24.8947C11.0951 25.2551 11.6615 25.5641 12.2536 25.8215C12.8715 26.079 13.528 26.2978 14.2102 26.4394C14.9053 26.581 15.6261 26.6582 16.3598 26.6582C17.0549 26.6582 17.7372 26.5938 18.3936 26.4523C19.0372 26.3364 19.6551 26.1433 20.2343 25.9116C20.878 25.6542 21.4829 25.3324 22.0493 24.9591C22.6543 24.56 23.2207 24.1095 23.7356 23.5946C24.2118 23.1184 24.6495 22.5906 25.0357 22.0114C25.3875 21.4879 25.6921 20.9258 25.9496 20.3251C26.2199 19.7073 26.4258 19.0508 26.5674 18.3814C26.709 17.6863 26.7863 16.9655 26.7863 16.2318C26.7863 15.5238 26.7219 14.8416 26.5932 14.1851C26.4645 13.5544 26.2843 12.9365 26.0397 12.3444C25.7822 11.7137 25.4604 11.0958 25.1 10.5294C24.701 9.92444 24.2376 9.35806 23.7356 8.85605C23.2464 8.36691 22.7187 7.92926 22.1523 7.55597C21.6202 7.19555 21.0582 6.8909 20.466 6.64204C19.8353 6.37173 19.1917 6.16577 18.5095 6.02418C17.8144 5.86971 17.0935 5.79248 16.3598 5.79248C17.1064 5.79248 17.8273 5.86971 18.5352 6.02418C19.2174 6.16577 19.8868 6.37173 20.5175 6.64204C21.1182 6.89948 21.6846 7.20842 22.2167 7.56884C22.7959 7.955 23.3365 8.40553 23.8257 8.89467C24.3406 9.40955 24.804 9.97592 25.203 10.5938C25.5763 11.1602 25.8981 11.778 26.1555 12.4216C26.4001 13.0266 26.5803 13.6445 26.709 14.2881C26.8506 14.9574 26.915 15.6397 26.915 16.3476C26.915 17.0942 26.8377 17.8279 26.6962 18.523Z" fill="#73EA8A"/>
<path fill-rule="evenodd" clip-rule="evenodd" d="M8.09635 24.6116C8.64985 25.1651 9.24197 25.6542 9.8727 26.079C10.4777 26.478 11.1084 26.8127 11.7649 27.0959C12.4729 27.3919 13.2066 27.6236 13.9532 27.7781C14.7512 27.9454 15.5493 28.0356 16.3603 28.0356C17.1197 28.0356 17.892 27.9583 18.6386 27.8167C19.3466 27.6751 20.0417 27.4692 20.711 27.1989C21.4061 26.9157 22.0884 26.5681 22.7448 26.1434C23.4142 25.7057 24.0449 25.2037 24.6242 24.6116C25.1777 24.0581 25.6668 23.4659 26.0787 22.8352C26.4906 22.2431 26.8253 21.5995 27.1085 20.9559C27.4045 20.235 27.6362 19.5013 27.7907 18.7547C27.958 17.9695 28.0482 17.1586 28.0482 16.3477C28.0482 15.5882 27.9709 14.8159 27.8165 14.0693C27.6749 13.3613 27.4818 12.6791 27.2115 12.0098C26.9283 11.3018 26.5807 10.6196 26.1559 9.96308C25.7183 9.3066 25.2034 8.67587 24.6242 8.08375C24.0707 7.53025 23.4785 7.05398 22.8478 6.6292C22.2428 6.23016 21.6121 5.88262 20.9556 5.6123C20.2476 5.30337 19.5139 5.07167 18.7673 4.91721C17.9693 4.74987 17.1712 4.67263 16.3603 4.67263C15.6008 4.67263 14.8285 4.74987 14.069 4.89146C13.3739 5.03305 12.6788 5.23901 12.0095 5.50932C11.3144 5.77964 10.6193 6.14006 9.97568 6.56484C9.30633 6.98962 8.6756 7.5045 8.09635 8.08375C7.54285 8.63725 7.05371 9.24224 6.6418 9.8601C6.22989 10.4651 5.89522 11.0958 5.61203 11.7523C5.31597 12.4603 5.08427 13.194 4.92981 13.9406C4.76247 14.7386 4.67236 15.5496 4.67236 16.3477C4.67236 17.12 4.7496 17.8794 4.90406 18.6389C5.04565 19.334 5.23874 20.0291 5.50905 20.6984C5.79224 21.4064 6.13979 22.0886 6.56457 22.7322C7.00222 23.4016 7.50423 24.0323 8.09635 24.6116ZM10.4005 25.2938C9.82122 24.9076 9.26771 24.4571 8.7657 23.9551C8.22507 23.4145 7.76167 22.8352 7.36264 22.2174C6.97647 21.6252 6.6418 20.9945 6.38436 20.3509C6.13979 19.733 5.95958 19.1023 5.83086 18.4458C5.68926 17.7636 5.6249 17.0556 5.6249 16.3477C5.6249 15.6139 5.70213 14.8674 5.8566 14.1337C5.99819 13.4514 6.20415 12.7821 6.48733 12.1256C6.74478 11.5206 7.05371 10.9414 7.427 10.3879C7.81316 9.80862 8.25082 9.26798 8.7657 8.7531C9.29346 8.21247 9.88558 7.74907 10.4906 7.35004C11.0827 6.96387 11.7134 6.64207 12.3699 6.38463C12.9749 6.14006 13.6185 5.94698 14.2621 5.81826C14.9572 5.67666 15.6523 5.6123 16.3603 5.6123C17.1068 5.6123 17.8406 5.68953 18.5743 5.844C19.2565 5.98559 19.9387 6.20442 20.5823 6.47473C21.1873 6.73218 21.7666 7.04111 22.3201 7.4144C22.8993 7.80056 23.4528 8.25109 23.9548 8.7531C24.4954 9.29373 24.9588 9.87298 25.3579 10.478C25.744 11.083 26.0787 11.7137 26.3362 12.3573C26.5807 12.9752 26.7609 13.6059 26.8897 14.2495C27.0313 14.9446 27.0956 15.6526 27.0956 16.3477C27.0956 17.0942 27.0184 17.8408 26.8639 18.5617C26.7223 19.2568 26.5164 19.9261 26.2332 20.5826C25.9757 21.1747 25.6668 21.7668 25.2935 22.3203C24.9074 22.8867 24.4697 23.4402 23.9548 23.9551C23.4142 24.4828 22.8349 24.9462 22.2299 25.3453C21.625 25.7443 21.0071 26.0661 20.3506 26.3236C19.7328 26.5724 19.102 26.7612 18.4584 26.8899C17.7633 27.0187 17.0682 27.0959 16.3603 27.0959C15.6137 27.0959 14.88 27.0058 14.1463 26.8642C13.464 26.7097 12.7818 26.5038 12.1382 26.2206C11.5332 25.976 10.954 25.6542 10.4005 25.2938Z" fill="#FFAB3D"/>
<path d="M25.1386 22.2174L25.911 22.7323C25.4862 23.3501 25.0099 23.9422 24.4822 24.47L23.8257 23.8135C24.3148 23.3244 24.7525 22.7838 25.1386 22.2174Z" fill="#FFAB3D"/>
<path d="M26.066 20.5054L26.9155 20.8658C26.6323 21.5223 26.2977 22.1402 25.9115 22.7323L25.1392 22.2174C25.4996 21.6768 25.8085 21.1104 26.066 20.5054Z" fill="#DDE3DF"/>
<path d="M26.6967 18.5231L27.5977 18.7161C27.4432 19.4627 27.2115 20.1836 26.9155 20.8658L26.0659 20.5054C26.3362 19.8746 26.5422 19.2182 26.6967 18.5231Z" fill="#FFAB3D"/>
<path d="M23.8257 8.89466L24.4822 8.23818C25.0357 8.79168 25.5377 9.40954 25.9753 10.0789L25.203 10.5938C24.804 9.97592 24.3406 9.40954 23.8257 8.89466Z" fill="#DDE3DF"/>
<path d="M6.56459 20.2737L5.70216 20.6212C5.44472 19.9776 5.23876 19.2954 5.09717 18.6003L6.01109 18.4201C6.13981 19.0637 6.32002 19.6816 6.56459 20.2737Z" fill="#DDE3DF"/>
<path d="M6.02361 14.1723L5.12256 13.9793C5.27702 13.2327 5.50872 12.5247 5.80478 11.8296L6.65434 12.2029C6.38403 12.8336 6.17807 13.4901 6.02361 14.1723Z" fill="#FFAB3D"/>
<path d="M6.01068 18.42L5.09676 18.6003C4.95516 17.8665 4.87793 17.12 4.87793 16.3476H5.80472C5.80472 17.0556 5.86908 17.7507 6.01068 18.42Z" fill="#FFAB3D"/>
<path d="M5.80472 16.3476H4.87793C4.87793 15.5367 4.95516 14.7515 5.1225 13.9792L6.02355 14.1722C5.88196 14.8802 5.80472 15.601 5.80472 16.3476Z" fill="#DDE3DF"/>
<path d="M6.65425 12.2029L5.80469 11.8296C6.07929 11.1774 6.41397 10.5595 6.80871 9.976L7.58104 10.4909C7.22062 11.0315 6.91169 11.6022 6.65425 12.2029Z" fill="#DDE3DF"/>
<path d="M8.89378 8.89465L8.2373 8.23817C8.80368 7.6718 9.42154 7.16979 10.0909 6.73214L10.5929 7.51734C9.98791 7.91637 9.40867 8.37977 8.89378 8.89465Z" fill="#DDE3DF"/>
<path d="M7.58092 10.4908L6.80859 9.97587C7.23337 9.34513 7.70964 8.76589 8.2374 8.23813L8.89388 8.89461C8.40474 9.38375 7.96709 9.91151 7.58092 10.4908Z" fill="#FFAB3D"/>
<path d="M10.5938 7.51736L10.0918 6.73216C10.7225 6.32026 11.3919 5.97271 12.087 5.68952L12.4345 6.55195C11.7909 6.8094 11.1731 7.1312 10.5938 7.51736Z" fill="#FFAB3D"/>
<path d="M7.51712 22.1144L6.74479 22.6164C6.33288 21.9986 5.98534 21.3292 5.70215 20.6212L6.56458 20.2737C6.82202 20.9302 7.14383 21.5352 7.51712 22.1144Z" fill="#FFAB3D"/>
<path d="M16.3602 26.9157V27.8425C15.5492 27.8425 14.7512 27.7524 13.9917 27.5979L14.1848 26.684C14.8799 26.8256 15.6136 26.9157 16.3602 26.9157Z" fill="#DDE3DF"/>
<path d="M12.2018 26.0532L11.8414 26.9156C11.1849 26.6325 10.567 26.2978 9.98779 25.8988L10.5027 25.1264C11.0304 25.4868 11.6097 25.7958 12.2018 26.0532Z" fill="#DDE3DF"/>
<path d="M14.1845 26.684L13.9914 27.5979C13.2449 27.4306 12.524 27.1989 11.8418 26.9157L12.2022 26.0533C12.833 26.3236 13.5023 26.5424 14.1845 26.684Z" fill="#FFAB3D"/>
<path d="M8.89379 23.8135L8.23731 24.47C7.68381 23.9036 7.18179 23.2858 6.74414 22.6164L7.51647 22.1144C7.9155 22.7323 8.3789 23.2986 8.89379 23.8135Z" fill="#DDE3DF"/>
<path d="M10.5028 25.1265L9.98791 25.8988C9.35718 25.4869 8.77793 24.9978 8.2373 24.47L8.89378 23.8135C9.38292 24.3027 9.92355 24.7403 10.5028 25.1265Z" fill="#FFAB3D"/>
<path d="M26.6963 18.523C26.8379 17.8279 26.9151 17.0942 26.9151 16.3476H27.8419C27.8419 17.1586 27.7647 17.9566 27.5973 18.7161L26.6963 18.523Z" fill="#DDE3DF"/>
<path d="M26.7095 14.2881L27.6234 14.1079C27.765 14.8287 27.8422 15.5882 27.8422 16.3476H26.9154C26.9154 15.6397 26.8511 14.9574 26.7095 14.2881Z" fill="#FFAB3D"/>
<path d="M23.8261 23.8135L24.4826 24.47C23.9162 25.0363 23.2983 25.5384 22.629 25.9631L22.127 25.1908C22.7319 24.7918 23.3112 24.3284 23.8261 23.8135Z" fill="#DDE3DF"/>
<path d="M26.1562 12.4216L27.0187 12.087C27.2761 12.7306 27.4821 13.3999 27.6237 14.1079L26.7098 14.2881C26.581 13.6445 26.4008 13.0266 26.1562 12.4216Z" fill="#DDE3DF"/>
<path d="M12.434 6.55194L12.0864 5.68951C12.7429 5.43207 13.4123 5.22611 14.1202 5.08452L14.3004 5.99844C13.6568 6.12716 13.0261 6.32024 12.434 6.55194Z" fill="#DDE3DF"/>
<path d="M22.1268 25.1908L22.6289 25.9632C21.9981 26.3751 21.3288 26.7226 20.6337 27.0058L20.2861 26.1562C20.9297 25.8859 21.5476 25.5641 22.1268 25.1908Z" fill="#FFAB3D"/>
<path d="M20.2864 26.1562L20.6339 27.0058C19.9774 27.2761 19.3081 27.4821 18.6001 27.6108L18.4199 26.7097C19.0635 26.581 19.6943 26.3879 20.2864 26.1562Z" fill="#DDE3DF"/>
<path d="M25.2031 10.5938L25.9755 10.0789C26.3874 10.7096 26.7349 11.379 27.0181 12.087L26.1557 12.4216C25.8982 11.778 25.5764 11.1602 25.2031 10.5938Z" fill="#FFAB3D"/>
<path d="M16.3604 5.79256V4.86577C17.1713 4.86577 17.9565 4.95588 18.7288 5.11034L18.5357 6.02426C17.8278 5.8698 17.1069 5.79256 16.3604 5.79256Z" fill="#DDE3DF"/>
<path d="M18.4199 26.7097L18.6001 27.6108C17.8793 27.7652 17.1327 27.8425 16.3604 27.8425V26.9157C17.0683 26.9157 17.7505 26.8384 18.4199 26.7097Z" fill="#FFAB3D"/>
<path d="M14.3008 5.99844L14.1206 5.08452C14.8414 4.94293 15.588 4.8657 16.3604 4.8657V5.79249C15.6524 5.79249 14.9573 5.86972 14.3008 5.99844Z" fill="#FFAB3D"/>
<path d="M18.5356 6.02417L18.7287 5.11025C19.4753 5.26471 20.1961 5.49641 20.8784 5.79247L20.518 6.64203C19.8872 6.37171 19.2179 6.16576 18.5356 6.02417Z" fill="#FFAB3D"/>
<path d="M20.5176 6.64205L20.878 5.79249C21.5345 6.07568 22.1523 6.41036 22.7316 6.79652L22.2167 7.56885C21.6847 7.20843 21.1183 6.8995 20.5176 6.64205Z" fill="#DDE3DF"/>
<path d="M22.2168 7.56882L22.7317 6.7965C23.3624 7.22128 23.9417 7.69754 24.4823 8.23817L23.8258 8.89465C23.3367 8.40551 22.796 7.95499 22.2168 7.56882Z" fill="#FFAB3D"/>
<path d="M1.77605 9.48672C1.69882 9.65835 1.62158 9.83427 1.54435 10.0145C1.13244 10.967 0.810641 11.9839 0.591814 13.0266C0.497419 13.4642 0.424477 13.9062 0.372989 14.3524L0.128418 14.3138C0.188488 13.8675 0.265721 13.4213 0.360116 12.9751C0.578942 11.9196 0.900746 10.8898 1.32553 9.9115C1.40276 9.73129 1.48428 9.55537 1.5701 9.38374L1.77605 9.48672Z" fill="#FFAB3D"/>
<path d="M27.7521 4.95581C27.3316 4.53532 26.8897 4.14057 26.4263 3.77157L26.5807 3.57849C27.0441 3.96466 27.4947 4.36369 27.9194 4.78847C28.7175 5.57367 29.4255 6.44898 30.0433 7.38864L29.8374 7.51736C29.2324 6.59057 28.5373 5.72814 27.7521 4.95581Z" fill="#FFAB3D"/>
<path d="M10.3613 1.39027C9.63191 1.68204 8.92824 2.0253 8.2503 2.42004L8.12158 2.21409C8.8081 1.81934 9.52464 1.4718 10.2712 1.17145C11.1208 0.823898 12.009 0.553585 12.9229 0.360503L12.9744 0.5922C12.0733 0.785282 11.198 1.0556 10.3613 1.39027Z" fill="#FFAB3D"/>
<path d="M31.176 22.6936C31.5879 21.7282 31.9097 20.7241 32.1286 19.6686C32.223 19.2396 32.2959 18.8019 32.3474 18.3557L32.592 18.3814C32.5319 18.8362 32.4547 19.2825 32.3603 19.7201C32.1414 20.7885 31.8196 21.8054 31.3949 22.7837C31.3176 22.9639 31.2361 23.1441 31.1503 23.3243L30.9443 23.2213C31.0216 23.0497 31.0988 22.8738 31.176 22.6936Z" fill="#FFAB3D"/>
<path d="M22.3582 31.318C23.0876 31.0176 23.7913 30.6701 24.4692 30.2753L24.5979 30.4813C23.9114 30.8846 23.1948 31.2365 22.4483 31.5368C21.5987 31.8715 20.7105 32.1418 19.7966 32.3477L19.7451 32.1032C20.6462 31.923 21.5215 31.6527 22.3582 31.318Z" fill="#FFAB3D"/>
<path d="M0.373292 14.3525C0.287478 15.0047 0.244571 15.6697 0.244571 16.3477C0.244571 17.4289 0.347547 18.4844 0.553501 19.5013C0.746583 20.4925 1.02977 21.4322 1.39019 22.3461C1.78923 23.3372 2.27837 24.2769 2.85761 25.1522L2.88336 25.1908L2.6774 25.3195L2.66453 25.2809C2.07241 24.3928 1.58327 23.4402 1.17136 22.4362C0.810944 21.5094 0.514885 20.544 0.321803 19.5528C0.115849 18.5102 0 17.4418 0 16.3477C0.00858142 15.6612 0.0514885 14.9832 0.128721 14.3139L0.373292 14.3525Z" fill="#FFAB3D"/>
<path d="M8.25095 2.41996C8.01067 2.55726 7.77897 2.69885 7.55585 2.84473C6.61619 3.4626 5.75375 4.17056 4.96855 4.95576C4.22197 5.70235 3.53975 6.52616 2.9605 7.40147C2.50998 8.05795 2.12381 8.75304 1.77627 9.48676L1.57031 9.38378C1.91357 8.64578 2.30831 7.9421 2.75455 7.27275C3.35954 6.3717 4.04176 5.54788 4.80122 4.78843C5.59929 3.99035 6.47459 3.26951 7.42713 2.65165C7.65883 2.50577 7.89053 2.35988 8.12223 2.214L8.25095 2.41996Z" fill="#FFAB3D"/>
<path d="M26.4262 3.77158C26.0658 3.47981 25.6925 3.2052 25.3063 2.94776C24.4954 2.39426 23.6201 1.91799 22.7062 1.53182C21.7407 1.11992 20.7239 0.798114 19.6812 0.579287C18.6128 0.360461 17.4929 0.231742 16.3602 0.231742C15.2789 0.231742 14.2234 0.347591 13.2065 0.540673C13.1293 0.557835 13.0521 0.574997 12.9748 0.59216L12.9233 0.360464C13.0006 0.343301 13.0821 0.326135 13.1679 0.308972C14.1977 0.103018 15.2661 4.14848e-05 16.3602 4.14848e-05C17.5187 4.14848e-05 18.6386 0.115892 19.7327 0.347591C20.7882 0.566417 21.818 0.901092 22.7963 1.313C23.7231 1.71204 24.6112 2.1883 25.4351 2.75468C25.8298 3.01212 26.2117 3.28673 26.5807 3.57849L26.4262 3.77158Z" fill="#FFAB3D"/>
<path d="M32.592 18.3814L32.3475 18.3557C32.4333 17.7035 32.4762 17.0342 32.4762 16.3476C32.4762 15.2793 32.3732 14.2237 32.1673 13.2068C31.9742 12.2157 31.691 11.2632 31.3177 10.3621C30.9315 9.37095 30.4295 8.43128 29.8631 7.54311L29.8374 7.51736L30.0434 7.38864L30.0562 7.41438C30.6483 8.31543 31.1375 9.26797 31.5494 10.272C31.9098 11.1859 32.2059 12.1513 32.399 13.1554C32.6049 14.1851 32.7208 15.2535 32.7208 16.3476C32.7122 17.0427 32.6693 17.7207 32.592 18.3814Z" fill="#FFAB3D"/>
<path d="M24.4692 30.2753C24.7095 30.138 24.9412 29.9964 25.1643 29.8505C26.104 29.2455 26.9664 28.5375 27.7516 27.7523C28.4982 27.0058 29.1804 26.1819 29.7597 25.3066C30.2102 24.6373 30.5964 23.9422 30.9439 23.2214L31.1499 23.3243C30.8066 24.0623 30.4119 24.766 29.9656 25.4354C29.3606 26.3235 28.6784 27.1602 27.919 27.9197C27.1209 28.7177 26.2456 29.4257 25.2931 30.0565C25.0614 30.2023 24.8297 30.3439 24.598 30.4812L24.4692 30.2753Z" fill="#FFAB3D"/>
<path d="M6.29411 28.9365C6.65453 29.2283 7.02783 29.5029 7.41399 29.7604C8.22493 30.301 9.10024 30.7772 10.0142 31.1763C10.9796 31.5882 11.9836 31.91 13.0391 32.1288C14.1075 32.3476 15.2145 32.4635 16.3601 32.4635C17.4414 32.4635 18.4969 32.3605 19.5138 32.1546C19.591 32.146 19.6683 32.1288 19.7455 32.1031L19.797 32.3476C19.7197 32.3648 19.6382 32.382 19.5524 32.3991C18.5226 32.5922 17.4543 32.7081 16.3601 32.7081C15.2016 32.7081 14.0818 32.5793 12.9876 32.3605C11.9192 32.1288 10.9023 31.807 9.92406 31.3951C8.99726 30.9961 8.10908 30.5069 7.2724 29.9534C6.88623 29.696 6.50865 29.4171 6.13965 29.1167L6.29411 28.9365Z" fill="#FFAB3D"/>
<path d="M4.96849 27.7524C5.38898 28.1729 5.83092 28.5676 6.29432 28.9366L6.13985 29.1168C5.67645 28.7435 5.22593 28.3445 4.80115 27.9197C4.00308 27.1216 3.29511 26.2592 2.67725 25.3195L2.8832 25.1908C3.48819 26.1176 4.18329 26.9672 4.96849 27.7524Z" fill="#FFAB3D"/>
<path d="M19.1665 2.57448C19.1665 2.9349 19.4626 3.23096 19.8359 3.23096C20.2091 3.23096 20.5052 2.9349 20.5052 2.57448C20.5052 2.20119 20.2091 1.90513 19.8359 1.90513C19.4626 1.90513 19.1665 2.20119 19.1665 2.57448Z" fill="#F7F8F7"/>
<path d="M12.4087 30.1337C12.4087 30.5069 12.7048 30.803 13.078 30.803C13.4385 30.803 13.7474 30.5069 13.7474 30.1337C13.7474 29.7732 13.4385 29.4643 13.078 29.4643C12.7048 29.4643 12.4087 29.7732 12.4087 30.1337Z" fill="#F7F8F7"/>
<path d="M1.73779 18.8577C1.73779 19.2181 2.04672 19.5141 2.40714 19.5141C2.78044 19.5141 3.07649 19.2181 3.07649 18.8577C3.07649 18.4844 2.78044 18.1883 2.40714 18.1883C2.04672 18.1883 1.73779 18.4844 1.73779 18.8577Z" fill="#F7F8F7"/>
<path d="M5.45801 6.52623C5.45801 6.88665 5.75407 7.18271 6.12736 7.18271C6.48778 7.18271 6.78384 6.88665 6.78384 6.52623C6.78384 6.15294 6.48778 5.85688 6.12736 5.85688C5.75407 5.85688 5.45801 6.15294 5.45801 6.52623Z" fill="#F7F8F7"/>
<path d="M29.4507 13.0909C29.4507 13.4642 29.7467 13.7603 30.12 13.7603C30.4933 13.7603 30.7894 13.4642 30.7894 13.0909C30.7894 12.7176 30.4933 12.4216 30.12 12.4216C29.7467 12.4216 29.4507 12.7176 29.4507 13.0909Z" fill="#F7F8F7"/>
<path d="M26.1689 25.8086C26.1689 26.1691 26.465 26.4651 26.8383 26.4651C27.1987 26.4651 27.5076 26.1691 27.5076 25.8086C27.5076 25.4353 27.1987 25.1393 26.8383 25.1393C26.465 25.1393 26.1689 25.4353 26.1689 25.8086Z" fill="#F7F8F7"/>
<path fill-rule="evenodd" clip-rule="evenodd" d="M23.8257 8.88173C23.3237 8.39259 22.783 7.95493 22.2167 7.56877C21.676 7.20835 21.0968 6.89942 20.5175 6.64198C19.8739 6.37166 19.2046 6.1657 18.5352 6.02411C17.8144 5.88252 17.0935 5.80529 16.3598 5.80529C15.6647 5.80529 14.9825 5.86965 14.3003 5.99837C13.6567 6.12709 13.0388 6.3073 12.4338 6.55187C11.7902 6.80931 11.1852 7.13111 10.5931 7.50441C9.98813 7.90344 9.42176 8.35397 8.894 8.88173C8.7567 9.01903 8.62797 9.15633 8.50784 9.29364C8.41344 9.4052 8.31904 9.51246 8.22465 9.61544C8.1989 9.65835 8.16887 9.69696 8.13454 9.73129C8.06589 9.82568 7.99724 9.91579 7.92859 10.0016C7.90284 10.0359 7.87281 10.0745 7.83848 10.1175C7.75267 10.2376 7.66686 10.362 7.58104 10.4907C7.20775 11.0314 6.91169 11.6106 6.65425 12.2027C6.38393 12.8463 6.17798 13.5028 6.03639 14.1722C5.88192 14.893 5.80469 15.6267 5.80469 16.3476C5.80469 17.0427 5.86905 17.7378 6.01064 18.42C6.13078 19.055 6.31528 19.6729 6.56414 20.2736C6.80871 20.9172 7.13052 21.535 7.51668 22.1143C7.90285 22.7193 8.36624 23.2856 8.894 23.8134C9.39601 24.3154 9.93664 24.7531 10.503 25.1392C11.0436 25.4996 11.61 25.8086 12.2021 26.0531C12.8457 26.3235 13.5151 26.5423 14.1844 26.6839C14.9053 26.8255 15.6261 26.9027 16.3598 26.9027C17.0549 26.9027 17.7372 26.8383 18.4194 26.6968C19.0501 26.5809 19.6808 26.3878 20.2858 26.1561C20.9166 25.8987 21.5344 25.5769 22.1265 25.1907C22.2639 25.1049 22.3969 25.0148 22.5256 24.9204C22.5685 24.8947 22.6071 24.8646 22.6414 24.8303C22.7358 24.7616 22.8302 24.6887 22.9246 24.6115C22.9675 24.5857 23.0104 24.5557 23.0533 24.5214C23.1649 24.427 23.2765 24.3283 23.388 24.2253L23.4266 24.1996C23.5639 24.0794 23.6969 23.9507 23.8257 23.8134C23.9458 23.6933 24.0659 23.5688 24.1861 23.4401L24.2118 23.4015C24.3062 23.2985 24.4006 23.1912 24.495 23.0797C24.5208 23.0454 24.5508 23.0067 24.5851 22.9638C24.6538 22.878 24.7224 22.7922 24.7911 22.7064C24.8168 22.6635 24.8469 22.6249 24.8812 22.5905C24.967 22.4618 25.0528 22.3374 25.1386 22.2173C25.4991 21.6638 25.808 21.0974 26.0654 20.5053C26.3357 19.8617 26.5417 19.2052 26.6833 18.523C26.8378 17.815 26.915 17.0813 26.915 16.3476C26.915 15.6653 26.8377 14.9702 26.709 14.288C26.5803 13.6573 26.4001 13.0266 26.1555 12.4216C25.911 11.7908 25.5892 11.173 25.203 10.5808C24.8168 9.98873 24.3534 9.40948 23.8257 8.88173Z" fill="#FFAB3D"/>
<path fill-rule="evenodd" clip-rule="evenodd" d="M26.6966 16.3476C26.6966 15.6654 26.6193 14.9832 26.4906 14.3267C26.3619 13.696 26.1817 13.091 25.95 12.5117C25.6925 11.881 25.3836 11.276 25.0103 10.7096C24.6113 10.1175 24.1608 9.55116 23.6587 9.04914C23.1825 8.57287 22.6547 8.13522 22.0883 7.76193C21.5735 7.41438 21.0071 7.10545 20.4278 6.86088C19.81 6.59056 19.1664 6.38461 18.4841 6.24302C17.8019 6.10142 17.094 6.02419 16.3602 6.02419C16.1715 6.02419 15.987 6.02848 15.8067 6.03707C15.7896 6.03707 15.7724 6.03707 15.7553 6.03707C15.6523 6.04565 15.5493 6.05423 15.4463 6.06281C15.4292 6.06281 15.412 6.06281 15.3948 6.06281C15.3433 6.07139 15.2919 6.07997 15.2404 6.08855C15.1374 6.09713 15.0301 6.11001 14.9186 6.12717C14.8757 6.12717 14.8285 6.13146 14.777 6.14004C14.6311 6.16579 14.4852 6.19153 14.3393 6.21727C13.7086 6.34599 13.1036 6.52621 12.5244 6.7579C11.8807 7.01534 11.2886 7.33715 10.7223 7.69757C10.1173 8.09661 9.56376 8.54713 9.06175 9.04914C8.58548 9.52541 8.14783 10.0532 7.77454 10.6195C7.41412 11.1473 7.11806 11.7008 6.86061 12.2929C6.60317 12.8979 6.39722 13.5544 6.25562 14.2237C6.10116 14.906 6.02393 15.6268 6.02393 16.3476C6.02393 17.0427 6.10116 17.7121 6.22988 18.3686C6.3586 18.9993 6.53881 19.6043 6.77051 20.1964C7.02795 20.8271 7.33688 21.4321 7.71017 21.9856C8.09634 22.5906 8.54686 23.1441 9.06175 23.659C9.53802 24.1353 10.0658 24.5601 10.6321 24.9462C11.147 25.2938 11.7134 25.6027 12.2927 25.8473C12.9105 26.1176 13.5541 26.3235 14.2363 26.4651C14.3822 26.4909 14.5367 26.5166 14.6997 26.5424C14.7426 26.5509 14.7898 26.5595 14.8413 26.5681C14.9529 26.5853 15.0687 26.6024 15.1889 26.6196C15.2404 26.6196 15.2919 26.6239 15.3433 26.6325C15.4892 26.6496 15.6351 26.6625 15.781 26.6711H15.8196C15.9998 26.6797 16.18 26.684 16.3602 26.684C16.5319 26.684 16.7035 26.6797 16.8751 26.6711H16.9137C16.9567 26.6625 16.9996 26.6582 17.0425 26.6582C17.1369 26.6496 17.227 26.6411 17.3128 26.6325C17.2785 26.6411 17.2398 26.6453 17.1969 26.6453C17.2398 26.6453 17.2828 26.6411 17.3257 26.6325C17.3771 26.6325 17.4286 26.6282 17.4801 26.6196C17.5831 26.611 17.6904 26.5981 17.8019 26.581C17.8448 26.5724 17.8877 26.5638 17.9306 26.5552C18.0851 26.5381 18.2353 26.5123 18.3812 26.478C19.0119 26.3622 19.6169 26.1691 20.1961 25.9374C20.8397 25.6799 21.4319 25.371 21.9982 24.9977C22.6032 24.6115 23.1567 24.161 23.6587 23.659C24.135 23.1699 24.5727 22.655 24.946 22.0886C25.2978 21.5651 25.6024 21.0074 25.8599 20.4152C26.1173 19.7974 26.3233 19.1538 26.4649 18.4844C26.6193 17.7893 26.6966 17.0814 26.6966 16.3476ZM17.1969 26.6453C17.1454 26.6539 17.094 26.6582 17.0425 26.6582C17.0081 26.6582 16.9695 26.6625 16.9266 26.6711C17.0124 26.6625 17.1025 26.6539 17.1969 26.6453ZM15.4077 6.06281C15.4249 6.06281 15.442 6.06281 15.4592 6.06281C15.4506 6.06281 15.4463 6.06281 15.4463 6.06281C15.4292 6.06281 15.4163 6.06281 15.4077 6.06281ZM15.7939 6.03707C15.7853 6.03707 15.7724 6.03707 15.7553 6.03707C15.7209 6.03707 15.6866 6.04136 15.6523 6.04994C15.7038 6.04136 15.751 6.03707 15.7939 6.03707Z" fill="#FFAB3D"/>
</svg>
