<svg width="41" height="41" viewBox="0 0 41 41" fill="none" xmlns="http://www.w3.org/2000/svg">
<path d="M20.44 0C26.0843 0 31.1943 2.28786 34.8934 5.98695C38.5925 9.68571 40.8803 14.796 40.8803 20.44C40.8803 26.0846 38.5925 31.1943 34.8934 34.8931C31.1943 38.5921 26.0843 40.88 20.44 40.88C14.7957 40.88 9.68571 38.5921 5.98695 34.8931C2.28786 31.1943 0 26.0843 0 20.4397C0 14.7957 2.28786 9.68538 5.98695 5.98662C9.68571 2.28786 14.7957 0 20.44 0ZM26.6678 12.432C27.1006 11.9989 27.8029 11.9989 28.2357 12.432C28.6686 12.8648 28.6686 13.5668 28.2357 13.9999L21.7947 20.4413L28.2357 26.8827C28.6686 27.3155 28.6686 28.0175 28.2357 28.4507C27.8029 28.8835 27.1006 28.8835 26.6678 28.4507L20.2264 22.0093L13.785 28.451C13.3522 28.8838 12.6499 28.8838 12.2171 28.451C11.7843 28.0178 11.7843 27.3159 12.2171 26.8831L18.6588 20.4417L12.2171 13.9999C11.7843 13.5668 11.7843 12.8648 12.2171 12.432C12.6499 11.9989 13.3522 11.9989 13.785 12.432L20.2267 18.8734L26.6678 12.432ZM33.3254 7.55455C30.0279 4.257 25.4722 2.21766 20.44 2.21766C15.4078 2.21766 10.8524 4.257 7.55488 7.55455C4.25734 10.8521 2.21766 15.4078 2.21766 20.4397C2.21766 25.4718 4.25734 30.0276 7.55455 33.3251C10.8521 36.6223 15.4075 38.662 20.4397 38.662C25.4718 38.662 30.0276 36.6223 33.3251 33.3251C36.6227 30.0276 38.6623 25.4718 38.6623 20.4397C38.6627 15.4078 36.623 10.8521 33.3254 7.55455Z" fill="white"/>
</svg>
