<svg width="32" height="32" viewBox="0 0 32 32" fill="none" xmlns="http://www.w3.org/2000/svg">
<path fill-rule="evenodd" clip-rule="evenodd" d="M28.0174 15.8559C28.0174 15.0703 27.9328 14.2969 27.7877 13.5597C27.6427 12.8346 27.4373 12.1457 27.1714 11.481C26.8813 10.768 26.5188 10.0791 26.1079 9.43857C25.6607 8.76179 25.141 8.12127 24.573 7.55326C24.0292 7.00942 23.4249 6.51391 22.7844 6.09093C22.1922 5.69211 21.5517 5.34164 20.887 5.05159C20.186 4.74945 19.4488 4.51983 18.6875 4.36272C17.914 4.19353 17.1043 4.10893 16.2704 4.10893C16.0609 4.10893 15.8514 4.11296 15.642 4.12102C15.5614 4.12907 15.4848 4.13311 15.4123 4.13311C15.4848 4.13311 15.5574 4.12907 15.6299 4.12102C15.4848 4.12907 15.3358 4.14116 15.1827 4.15727C15.2149 4.15727 15.2512 4.15324 15.2915 4.14519C15.2512 4.15324 15.2109 4.15727 15.1706 4.15727C15.1142 4.16533 15.0578 4.17339 15.0014 4.18144C14.8806 4.1895 14.7597 4.20158 14.6389 4.2177C14.5825 4.22575 14.5301 4.23381 14.4818 4.24187C14.3126 4.26604 14.1434 4.29827 13.9742 4.33855C13.2611 4.47149 12.5602 4.68903 11.9076 4.95491C11.1825 5.24496 10.4936 5.59543 9.85308 6.01842C9.1763 6.46557 8.54786 6.97316 7.96776 7.55326C7.42392 8.0971 6.94051 8.68928 6.50543 9.3298C6.10662 9.93407 5.75614 10.5625 5.47818 11.2272C5.17605 11.9281 4.93434 12.6654 4.77723 13.4267C4.60803 14.2123 4.52344 15.022 4.52344 15.8559C4.52344 16.6414 4.60804 17.4028 4.75306 18.1521C4.89808 18.8651 5.10353 19.554 5.36941 20.2187C5.65946 20.9438 6.02202 21.6206 6.43292 22.2611C6.88008 22.95 7.39975 23.5784 7.96776 24.1585C8.5116 24.7024 9.11587 25.1858 9.75639 25.6208C10.3486 26.0197 10.977 26.3581 11.6538 26.6481C12.3547 26.9502 13.0919 27.1799 13.8533 27.3491C14.0225 27.3813 14.1998 27.4135 14.3851 27.4457C14.4334 27.4538 14.4858 27.4618 14.5422 27.4699C14.6711 27.486 14.8 27.5021 14.9289 27.5182C14.9934 27.5263 15.0538 27.5344 15.1102 27.5424C15.2713 27.5585 15.4365 27.5706 15.6057 27.5787H15.654C15.8635 27.5867 16.069 27.5908 16.2704 27.5908C16.4638 27.5908 16.6571 27.5867 16.8505 27.5787H16.8988C17.06 27.5706 17.2171 27.5585 17.3702 27.5424C17.4266 27.5344 17.483 27.5303 17.5394 27.5303C17.6602 27.5142 17.7811 27.4981 17.9019 27.482C17.9583 27.4739 18.0107 27.4659 18.059 27.4578C18.2282 27.4336 18.3974 27.4055 18.5666 27.3732C19.2796 27.2282 19.9685 27.0227 20.6332 26.7569C21.3583 26.4668 22.0351 26.1043 22.6756 25.6813C23.3645 25.2341 23.9929 24.7265 24.573 24.1585C25.1169 23.6147 25.6003 23.0104 26.0354 22.3699C26.4342 21.7777 26.7846 21.1372 27.0626 20.4725C27.3647 19.7715 27.6065 19.0343 27.7636 18.273C27.9328 17.4874 28.0174 16.6777 28.0174 15.8559Z" fill="#EBEBEB"/>
<path d="M4.86182 10.9735C4.5476 11.7107 4.29381 12.4841 4.12461 13.2939C4.06016 13.6242 4.00376 13.9626 3.95542 14.309L1.03076 13.9465C1.08716 13.5194 1.15564 13.1005 1.23621 12.6896C1.45375 11.6865 1.75588 10.7318 2.1547 9.81327C2.22721 9.64408 2.30375 9.47488 2.38432 9.30569L5.0431 10.5626C4.9867 10.6995 4.92627 10.8365 4.86182 10.9735Z" fill="#FBF5F9"/>
<path d="M29.1176 7.43245L26.6401 9.05188C26.1809 8.33884 25.637 7.67415 25.0448 7.08197C24.7226 6.75969 24.3801 6.45353 24.0176 6.16349L25.8666 3.86727C26.3017 4.21775 26.7247 4.59239 27.1235 4.99121C27.8728 5.7405 28.5375 6.55022 29.1176 7.43245Z" fill="#FBF5F9"/>
<path d="M11.6542 4.33853C11.0902 4.56413 10.5463 4.83001 10.0226 5.13617L8.53613 2.58616C9.18068 2.20748 9.85344 1.87716 10.5544 1.59516C11.352 1.28095 12.1859 1.02715 13.044 0.833781L13.6603 3.72218C12.9674 3.87526 12.2987 4.08071 11.6542 4.33853Z" fill="#FBF5F9"/>
<path d="M27.6792 20.7383C27.9934 19.989 28.2472 19.2155 28.4043 18.4058C28.4768 18.0755 28.5332 17.7371 28.5735 17.3906L31.5103 17.7653C31.4539 18.1843 31.3814 18.6032 31.2927 19.0222C31.0873 20.0132 30.7851 20.98 30.3863 21.8985C30.3138 22.0677 30.2373 22.2328 30.1567 22.394L27.4858 21.1371C27.5503 21.0082 27.6148 20.8753 27.6792 20.7383Z" fill="#FBF5F9"/>
<path d="M20.8875 27.3733C21.4515 27.1397 21.9953 26.8738 22.519 26.5757L24.0055 29.1257C23.361 29.4963 22.6882 29.8226 21.9873 30.1046C21.1896 30.4309 20.3558 30.6847 19.4977 30.866L18.8813 27.9776C19.5742 27.8325 20.243 27.6311 20.8875 27.3733Z" fill="#FBF5F9"/>
<path fill-rule="evenodd" clip-rule="evenodd" d="M31.619 15.8558C31.619 14.8286 31.5223 13.8255 31.329 12.8466C31.1477 11.916 30.8697 11.0096 30.5313 10.1395C30.1446 9.1968 29.6854 8.30249 29.1294 7.4686L29.1174 7.43235L26.6399 9.05178C26.1806 8.33874 25.6368 7.67405 25.0446 7.08187C24.7223 6.75959 24.3799 6.45343 24.0173 6.16339L25.8664 3.86717C25.52 3.59324 25.1614 3.33139 24.7908 3.08162C24.0173 2.56195 23.1835 2.10271 22.3133 1.72806C21.3948 1.34133 20.428 1.02711 19.437 0.821661C18.4097 0.604124 17.3583 0.495354 16.2706 0.495354C15.2434 0.495354 14.2403 0.604126 13.2614 0.785406C13.1889 0.801519 13.1164 0.817629 13.0438 0.833742L13.6602 3.72214C12.9673 3.87523 12.2986 4.08067 11.654 4.33849C11.09 4.56409 10.5462 4.82997 10.0225 5.13613L8.53601 2.58612C8.31847 2.71503 8.10094 2.84797 7.8834 2.98494C6.98909 3.57712 6.16728 4.24181 5.41799 4.99111C4.70496 5.70414 4.06443 6.48969 3.49642 7.32358C3.07343 7.95201 2.71087 8.61671 2.38457 9.30558L5.04334 10.5624C4.98695 10.6994 4.92652 10.8364 4.86206 10.9734C4.54785 11.7106 4.29405 12.484 4.12486 13.2937C4.0604 13.6321 4.00401 13.9705 3.95566 14.3089L1.03101 13.9463C0.958498 14.5667 0.918213 15.2032 0.910156 15.8558C0.910156 16.8831 1.01892 17.8862 1.21229 18.853C1.39357 19.7957 1.67153 20.7021 2.00992 21.5601C2.39665 22.5028 2.8559 23.3971 3.41182 24.2431L3.42391 24.2672L5.90141 22.6478C6.36065 23.3608 6.90449 24.0255 7.49667 24.6177C7.81895 24.94 8.16137 25.2461 8.52393 25.5362L6.67487 27.8324C7.02534 28.1104 7.37582 28.3763 7.73838 28.618C8.52393 29.1497 9.35781 29.5969 10.228 29.9715C11.1464 30.3583 12.1012 30.6725 13.1043 30.8779C14.1315 31.0955 15.183 31.2042 16.2706 31.2042C17.2979 31.2042 18.301 31.1075 19.2678 30.9142C19.3484 30.8981 19.4249 30.8819 19.4974 30.8658L18.8811 27.9774C19.574 27.8324 20.2427 27.631 20.8872 27.3732C21.4512 27.1395 21.9951 26.8736 22.5188 26.5755L24.0053 29.1255C24.2228 28.9886 24.4403 28.8516 24.6579 28.7146C25.5522 28.1345 26.374 27.4578 27.1233 26.7085C27.8363 25.9954 28.4768 25.222 29.0448 24.376C29.4638 23.7476 29.8344 23.0869 30.1567 22.394L27.4858 21.1371C27.5503 21.0082 27.6147 20.8753 27.6792 20.7383C27.9934 19.989 28.2472 19.2156 28.4043 18.4058C28.4768 18.0755 28.5332 17.7371 28.5735 17.3907L31.5103 17.7653C31.5828 17.1369 31.619 16.5004 31.619 15.8558ZM5.87723 22.6236L5.90141 22.6478C5.89335 22.6397 5.88529 22.6317 5.87723 22.6236ZM13.8415 3.68589C13.7851 3.702 13.7247 3.71409 13.6602 3.72214C13.7247 3.70603 13.7851 3.69395 13.8415 3.68589ZM26.2773 11.8435C26.519 12.4478 26.7124 13.0883 26.8453 13.7409C26.9783 14.4298 27.0508 15.1307 27.0508 15.8558C27.0508 16.6172 26.9783 17.3544 26.8211 18.0795C26.6761 18.7684 26.4586 19.4452 26.1806 20.0978C25.9147 20.7021 25.6005 21.2942 25.238 21.8381C24.8391 22.4303 24.392 22.9741 23.8965 23.4696C23.3647 24.0014 22.7846 24.4727 22.1562 24.8836C21.564 25.2703 20.9356 25.5966 20.283 25.8625C19.6666 26.1042 19.0382 26.2976 18.3735 26.4305C17.6967 26.5635 16.9958 26.636 16.2706 26.636C15.5093 26.636 14.76 26.5514 14.0469 26.4063C13.346 26.2613 12.6692 26.0438 12.0287 25.7658C11.4123 25.4999 10.8322 25.1857 10.2884 24.8111C9.6962 24.4243 9.15236 23.9772 8.64478 23.4696C8.12511 22.9499 7.65378 22.3698 7.24288 21.7414C6.85615 21.1492 6.52984 20.5208 6.26397 19.8561C6.02226 19.2518 5.82889 18.6113 5.69595 17.9587C5.56301 17.2819 5.4905 16.5689 5.4905 15.8558C5.4905 15.0945 5.56302 14.3452 5.72013 13.6321C5.86515 12.9312 6.08268 12.2544 6.36065 11.6139C6.61444 10.9975 6.94074 10.4174 7.30331 9.8615C7.70212 9.2814 8.14928 8.72548 8.64478 8.22998C9.17653 7.69822 9.75663 7.2269 10.3851 6.82808C10.9773 6.44135 11.6057 6.10295 12.2583 5.84916C12.8747 5.59537 13.5031 5.40201 14.1557 5.28116C14.8446 5.13613 15.5455 5.06361 16.2706 5.06361C17.032 5.06361 17.7692 5.14821 18.4943 5.29324C19.1953 5.45035 19.8721 5.6558 20.5126 5.93376C21.1289 6.19964 21.709 6.51386 22.2529 6.88851C22.8451 7.27524 23.3889 7.73448 23.8965 8.22998C24.4162 8.76173 24.8875 9.34183 25.2984 9.97027C25.6851 10.5504 26.0114 11.1788 26.2773 11.8435Z" fill="#00B9ED"/>
<path d="M7.49659 24.6178C7.81887 24.94 8.16128 25.2462 8.52384 25.5362L6.67479 27.8325C6.23166 27.486 5.8127 27.1114 5.41791 26.7085C4.66862 25.9713 4.00392 25.1495 3.42383 24.2673L5.90132 22.6478C6.36057 23.3609 6.90441 24.0256 7.49659 24.6178Z" fill="#FBF5F9"/>
<path d="M25.9754 17.8983C25.8303 18.5388 25.637 19.1552 25.3832 19.7474C25.1415 20.3154 24.8514 20.8471 24.513 21.3547C24.1505 21.8986 23.7396 22.3941 23.2803 22.8533C22.7969 23.3367 22.2531 23.7718 21.6851 24.1464C21.1412 24.509 20.5611 24.8111 19.9569 25.0528C19.4009 25.2704 18.8087 25.4516 18.2045 25.5725C17.576 25.6934 16.9355 25.7659 16.2708 25.7659C15.5699 25.7659 14.881 25.6934 14.2284 25.5483C13.5879 25.4154 12.9594 25.222 12.3673 24.9682C11.8113 24.7265 11.2675 24.4244 10.772 24.0981C10.2282 23.7355 9.72057 23.3125 9.26132 22.8533C8.77791 22.3699 8.34284 21.8381 7.96819 21.258C7.61772 20.7263 7.31558 20.1462 7.07388 19.5419C6.84425 18.9739 6.67506 18.3938 6.55421 17.7895C6.42127 17.1611 6.36084 16.5085 6.36084 15.8559C6.36084 15.1549 6.43335 14.4661 6.56629 13.8135C6.71132 13.1609 6.90468 12.5445 7.15847 11.9523C7.40018 11.3843 7.69023 10.8525 8.02862 10.345C8.39118 9.81321 8.80208 9.30563 9.26132 8.84639C9.74474 8.36297 10.2886 7.9279 10.8566 7.55325C11.4004 7.20278 11.9805 6.90064 12.5848 6.64685C13.1407 6.42932 13.7329 6.24804 14.3372 6.12718C14.8045 6.03856 15.2879 5.97813 15.7874 5.9459C15.2959 5.97813 14.8166 6.03856 14.3493 6.12718C13.7571 6.24804 13.177 6.41723 12.6331 6.64685C12.0289 6.88856 11.4609 7.17861 10.917 7.52908C10.349 7.90373 9.82933 8.33879 9.34592 8.81012C8.89876 9.26937 8.48786 9.76487 8.1253 10.2966C7.79497 10.7962 7.50895 11.3239 7.26724 11.8798C7.01345 12.4599 6.82008 13.0763 6.68714 13.7168C6.55421 14.3694 6.46961 15.0462 6.46961 15.735C6.46961 16.3876 6.54212 17.0282 6.66297 17.6445C6.78383 18.2488 6.95302 18.8289 7.18264 19.3727C7.42435 19.977 7.7144 20.545 8.06487 21.0768C8.43952 21.6448 8.87459 22.1765 9.34592 22.6599C9.80516 23.1071 10.3007 23.518 10.8324 23.8806C11.3319 24.2109 11.8597 24.4969 12.4156 24.7386C12.9957 24.9924 13.612 25.1858 14.2526 25.3187C14.9052 25.4517 15.582 25.5242 16.2708 25.5242C16.9234 25.5242 17.564 25.4637 18.1803 25.3429C18.7846 25.222 19.3647 25.0528 19.9085 24.8232C20.5128 24.5815 21.0808 24.2794 21.6125 23.9289C22.1806 23.5663 22.7123 23.1313 23.1957 22.6599C23.6429 22.2007 24.0538 21.7052 24.4163 21.1734C24.7467 20.6739 25.0327 20.1462 25.2744 19.5903C25.5282 18.9981 25.7216 18.3938 25.8545 17.7533C25.9874 17.1007 26.06 16.4239 26.06 15.735C26.06 15.0824 25.9995 14.4419 25.8787 13.8135C25.7578 13.2213 25.5886 12.6412 25.359 12.0973C25.1173 11.4931 24.8152 10.9251 24.4768 10.3812C24.1021 9.81321 23.6671 9.29354 23.1957 8.81012C22.7365 8.36297 22.241 7.95207 21.7092 7.58951C21.2097 7.25917 20.682 6.97316 20.126 6.73145C19.5339 6.47766 18.9296 6.28429 18.2891 6.15135C17.6365 6.00632 16.9597 5.93381 16.2708 5.93381C16.9718 5.93381 17.6486 6.01841 18.3132 6.15135C18.9538 6.28429 19.5822 6.48974 20.1744 6.74353C20.7303 6.98524 21.2621 7.27529 21.7697 7.61368C22.3135 7.97624 22.8211 8.38714 23.2803 8.84639C23.7637 9.3298 24.1867 9.86155 24.5735 10.4416C24.9239 10.9855 25.2261 11.5535 25.4678 12.1699C25.6974 12.7258 25.8666 13.3059 25.9874 13.9101C26.1204 14.5386 26.1808 15.1912 26.1808 15.8559C26.1808 16.5568 26.1083 17.2336 25.9754 17.8983Z" fill="#FF79AE"/>
<path fill-rule="evenodd" clip-rule="evenodd" d="M8.51207 23.6146C9.03174 24.1343 9.58766 24.5815 10.1798 24.9803C10.7479 25.3549 11.34 25.6812 11.9564 25.935C12.6211 26.2251 13.3099 26.4426 14.0109 26.5876C14.7602 26.7447 15.5095 26.8173 16.2709 26.8173C16.9839 26.8173 17.709 26.7447 18.41 26.6118C19.0747 26.4789 19.7273 26.2855 20.3557 26.0317C21.0083 25.7779 21.6488 25.4395 22.2652 25.0407C22.8936 24.6419 23.4858 24.1585 24.0297 23.6146C24.5493 23.095 25.0086 22.539 25.3953 21.9469C25.782 21.3789 26.0962 20.7867 26.3621 20.1703C26.6401 19.5056 26.8576 18.8168 27.0026 18.1158C27.1598 17.3665 27.2444 16.6051 27.2444 15.8558C27.2444 15.1307 27.1718 14.4177 27.0268 13.7047C26.8939 13.0521 26.7126 12.3994 26.4588 11.771C26.1929 11.1063 25.8666 10.4658 25.4678 9.86152C25.0569 9.23308 24.5735 8.6409 24.0297 8.09706C23.51 7.57739 22.9541 7.11814 22.3619 6.71933C21.7939 6.34468 21.2017 6.03047 20.5853 5.76459C19.9206 5.48663 19.2318 5.26908 18.5308 5.12406C17.7815 4.96695 17.0322 4.88235 16.2709 4.88235C15.5457 4.88235 14.8327 4.95487 14.1197 5.0878C13.4671 5.22074 12.8144 5.41411 12.186 5.6679C11.5334 5.93378 10.8808 6.26008 10.2765 6.6589C9.64809 7.0698 9.05591 7.54113 8.51207 8.09706C7.9924 8.61673 7.53315 9.17265 7.14642 9.76484C6.75969 10.3208 6.44547 10.925 6.17959 11.5293C5.90163 12.2061 5.68409 12.8949 5.53907 13.5959C5.38196 14.3331 5.29736 15.0945 5.29736 15.8558C5.29736 16.5689 5.36987 17.294 5.5149 17.995C5.64784 18.6597 5.82912 19.3002 6.08291 19.9286C6.34879 20.5933 6.67509 21.2338 7.07391 21.8502C7.48481 22.4665 7.95614 23.0587 8.51207 23.6146ZM10.6753 24.2431C10.1315 23.8805 9.61183 23.4575 9.1405 22.9862C8.63292 22.4786 8.19785 21.9348 7.8232 21.3668C7.46064 20.7988 7.14642 20.2066 6.90471 19.6023C6.67509 19.0222 6.5059 18.43 6.38504 17.8258C6.25211 17.1732 6.19168 16.5085 6.19168 15.8558C6.19168 15.1549 6.26419 14.454 6.40921 13.7772C6.54215 13.1246 6.73552 12.4961 7.0014 11.8798C7.2431 11.3238 7.53315 10.7679 7.88363 10.2482C8.24619 9.70441 8.65709 9.19682 9.1405 8.71341C9.636 8.21791 10.1919 7.77076 10.7599 7.39611C11.3159 7.03355 11.908 6.73142 12.5244 6.48971C13.0924 6.26009 13.6967 6.0788 14.3009 5.95795C14.9536 5.8371 15.6062 5.76459 16.2709 5.76459C16.9718 5.76459 17.6607 5.8371 18.3495 5.98212C18.9901 6.11506 19.6306 6.32051 20.2349 6.58639C20.8029 6.81601 21.3467 7.11815 21.8664 7.45654C22.4102 7.8191 22.9299 8.24208 23.4012 8.71341C23.9088 9.22099 24.3439 9.76483 24.7185 10.3449C25.0811 10.9009 25.3953 11.493 25.637 12.0973C25.8626 12.6774 26.0358 13.2736 26.1567 13.8859C26.2896 14.5265 26.35 15.1912 26.35 15.8558C26.35 16.5447 26.2775 17.2457 26.1325 17.9345C25.9996 18.5751 25.8062 19.2035 25.5403 19.8198C25.2986 20.3879 25.0086 20.9317 24.6581 21.4514C24.2955 21.9952 23.8846 22.5028 23.4012 22.9862C22.8936 23.4938 22.3498 23.9289 21.7818 24.3035C21.2138 24.6661 20.6337 24.9682 20.0173 25.2099C19.4372 25.4395 18.845 25.6208 18.2408 25.7417C17.5882 25.8625 16.9356 25.935 16.2709 25.935C15.5699 25.935 14.881 25.8625 14.1922 25.7175C13.5517 25.5846 12.9111 25.3791 12.3069 25.1253C11.7389 24.8836 11.195 24.5936 10.6753 24.2431Z" fill="url(#paint0_linear_44_4773)"/>
<path d="M24.513 21.3547L25.2381 21.8381C24.8393 22.4303 24.3921 22.9742 23.8966 23.4697L23.2803 22.8533C23.7395 22.3941 24.1504 21.8986 24.513 21.3547Z" fill="#EBEBEB"/>
<path d="M25.3828 19.7474L26.1805 20.0978C25.9146 20.7021 25.6004 21.2943 25.2378 21.8381L24.5127 21.3547C24.8511 20.8471 25.1411 20.3154 25.3828 19.7474Z" fill="#EBDFE2"/>
<path d="M25.975 17.8982L26.821 18.0795C26.6759 18.7684 26.4584 19.4452 26.1804 20.0978L25.3828 19.7473C25.6366 19.1551 25.83 18.5388 25.975 17.8982Z" fill="#EBEBEB"/>
<path d="M23.2803 8.84645L23.8966 8.23009C24.4163 8.76185 24.8876 9.34195 25.2985 9.97039L24.5734 10.4417C24.1867 9.86161 23.7637 9.32987 23.2803 8.84645Z" fill="#EBDFE2"/>
<path d="M7.07353 19.5419L6.26381 19.8561C6.02211 19.2518 5.82874 18.6113 5.6958 17.9587L6.55386 17.7895C6.67471 18.3938 6.84391 18.9738 7.07353 19.5419Z" fill="#EBDFE2"/>
<path d="M6.56619 13.8134L5.72021 13.6321C5.86524 12.9312 6.08277 12.2544 6.36074 11.6139L7.15837 11.9523C6.90458 12.5445 6.71121 13.1608 6.56619 13.8134Z" fill="#EBEBEB"/>
<path d="M6.55423 17.7896L5.69617 17.9588C5.56323 17.282 5.49072 16.569 5.49072 15.856H6.36087C6.36087 16.5086 6.42129 17.1612 6.55423 17.7896Z" fill="#EBEBEB"/>
<path d="M6.36087 15.856H5.49072C5.49072 15.0946 5.56323 14.3453 5.72034 13.6323L6.56632 13.8135C6.43338 14.4661 6.36087 15.155 6.36087 15.856Z" fill="#EBDFE2"/>
<path d="M7.15847 11.9523L6.36084 11.6139C6.61463 10.9976 6.94094 10.4175 7.3035 9.86157L8.02862 10.345C7.69023 10.8526 7.40018 11.3843 7.15847 11.9523Z" fill="#EBDFE2"/>
<path d="M9.26137 8.84637L8.64502 8.23002C9.17677 7.69826 9.75687 7.22694 10.3853 6.82812L10.8566 7.55324C10.2886 7.92789 9.74479 8.36296 9.26137 8.84637Z" fill="#EBDFE2"/>
<path d="M8.02883 10.345L7.30371 9.86162C7.70253 9.28152 8.14969 8.7256 8.64518 8.2301L9.26154 8.84645C8.80229 9.3057 8.39139 9.81328 8.02883 10.345Z" fill="#EBEBEB"/>
<path d="M10.8566 7.55322L10.3853 6.8281C10.9774 6.44137 11.6059 6.10298 12.2585 5.84918L12.5848 6.64682C11.9805 6.90061 11.4004 7.20275 10.8566 7.55322Z" fill="#EBEBEB"/>
<path d="M7.96819 21.258L7.24307 21.7414C6.85634 21.1492 6.53004 20.5208 6.26416 19.8561L7.07388 19.5419C7.31559 20.1461 7.61772 20.7262 7.96819 21.258Z" fill="#EBEBEB"/>
<path d="M16.2706 25.766V26.6361C15.5092 26.6361 14.7599 26.5515 14.0469 26.4065L14.2282 25.5484C14.8808 25.6935 15.5696 25.766 16.2706 25.766Z" fill="#EBDFE2"/>
<path d="M12.3673 24.9682L12.0289 25.7659C11.4125 25.5 10.8324 25.1858 10.2886 24.8111L10.772 24.0981C11.2675 24.4244 11.8113 24.7265 12.3673 24.9682Z" fill="#EBDFE2"/>
<path d="M14.2283 25.5484L14.0471 26.4064C13.3461 26.2614 12.6693 26.0439 12.0288 25.7659L12.3672 24.9683C12.9594 25.2221 13.5878 25.4154 14.2283 25.5484Z" fill="#EBEBEB"/>
<path d="M9.26142 22.8534L8.64506 23.4697C8.12539 22.9501 7.65407 22.37 7.24316 21.7415L7.96828 21.2581C8.34293 21.8382 8.778 22.37 9.26142 22.8534Z" fill="#EBDFE2"/>
<path d="M10.772 24.0981L10.2886 24.8111C9.69644 24.4244 9.1526 23.9772 8.64502 23.4696L9.26137 22.8533C9.72062 23.3125 10.2282 23.7355 10.772 24.0981Z" fill="#EBEBEB"/>
<path d="M25.9751 17.8984C26.108 17.2337 26.1806 16.5569 26.1806 15.8559H27.0507C27.0507 16.6173 26.9782 17.3545 26.8211 18.0797L25.9751 17.8984Z" fill="#EBDFE2"/>
<path d="M25.9873 13.9102L26.8454 13.741C26.9783 14.4299 27.0508 15.1308 27.0508 15.856H26.1807C26.1807 15.1913 26.1202 14.5387 25.9873 13.9102Z" fill="#EBEBEB"/>
<path d="M23.2803 22.8533L23.8967 23.4696C23.3649 24.0014 22.7848 24.4727 22.1564 24.8836L21.6851 24.1464C22.2531 23.7718 22.7969 23.3367 23.2803 22.8533Z" fill="#EBDFE2"/>
<path d="M25.4678 12.1699L26.2775 11.8436C26.5192 12.4479 26.7126 13.0884 26.8455 13.741L25.9874 13.9102C25.8666 13.3059 25.6974 12.7259 25.4678 12.1699Z" fill="#EBDFE2"/>
<path d="M12.5846 6.64685L12.2583 5.84921C12.8747 5.59542 13.5031 5.40206 14.1557 5.28121L14.337 6.12718C13.7327 6.24804 13.1405 6.42931 12.5846 6.64685Z" fill="#EBDFE2"/>
<path d="M21.6847 24.1464L22.1561 24.8836C21.5639 25.2704 20.9355 25.5967 20.2828 25.8625L19.9565 25.0528C20.5608 24.8111 21.1409 24.509 21.6847 24.1464Z" fill="#EBEBEB"/>
<path d="M19.9565 25.0529L20.2828 25.8626C19.6664 26.1043 19.038 26.2977 18.3733 26.4306L18.2041 25.5725C18.8084 25.4517 19.4006 25.2704 19.9565 25.0529Z" fill="#EBDFE2"/>
<path d="M24.5732 10.4417L25.2984 9.97039C25.6851 10.5505 26.0114 11.1789 26.2773 11.8436L25.4676 12.1699C25.2259 11.5536 24.9237 10.9856 24.5732 10.4417Z" fill="#EBEBEB"/>
<path d="M16.2705 5.93383V5.06369C17.0319 5.06369 17.7691 5.14829 18.4942 5.29331L18.3129 6.15137C17.6482 6.01843 16.9715 5.93383 16.2705 5.93383Z" fill="#EBDFE2"/>
<path d="M18.2042 25.5726L18.3734 26.4307C17.6966 26.5636 16.9956 26.6361 16.2705 26.6361V25.766C16.9352 25.766 17.5757 25.6934 18.2042 25.5726Z" fill="#EBEBEB"/>
<path d="M14.337 6.1272L14.1558 5.28122C14.8446 5.1362 15.5456 5.06368 16.2707 5.06368V5.93383C15.606 5.93383 14.9534 6.00634 14.337 6.1272Z" fill="#EBEBEB"/>
<path d="M18.313 6.15128L18.4943 5.29323C19.1952 5.45034 19.872 5.65579 20.5125 5.93375L20.1741 6.74347C19.5819 6.48968 18.9535 6.28422 18.313 6.15128Z" fill="#EBEBEB"/>
<path d="M20.1743 6.74356L20.5127 5.93384C21.1291 6.19972 21.7092 6.51394 22.253 6.88859L21.7696 7.61371C21.262 7.27532 20.7302 6.98527 20.1743 6.74356Z" fill="#EBDFE2"/>
<path d="M21.7695 7.61367L22.2529 6.88855C22.8451 7.27528 23.389 7.73452 23.8966 8.23002L23.2802 8.84637C22.821 8.38713 22.3134 7.97623 21.7695 7.61367Z" fill="#EBEBEB"/>
<path d="M2.57769 9.40232C2.50517 9.56346 2.43266 9.72862 2.36015 9.89782C1.97342 10.8042 1.67128 11.7469 1.46583 12.7379C1.37721 13.1407 1.30872 13.5516 1.26038 13.9706L1.03076 13.9464C1.08716 13.5194 1.15967 13.1004 1.2483 12.6895C1.45375 11.6865 1.75588 10.7317 2.1547 9.81323C2.22721 9.64403 2.30375 9.47483 2.38432 9.30564L2.57769 9.40232Z" fill="url(#paint1_linear_44_4773)"/>
<path d="M26.966 5.14824C26.5712 4.75345 26.1563 4.38283 25.7212 4.03638L25.8662 3.86719C26.3013 4.21767 26.7243 4.59231 27.1231 4.99113C27.8724 5.74042 28.5371 6.55014 29.1172 7.43237L28.9238 7.55322C28.3558 6.68308 27.7032 5.88544 26.966 5.14824Z" fill="url(#paint2_linear_44_4773)"/>
<path d="M10.639 1.80056C9.95415 2.08255 9.29348 2.40886 8.65699 2.77948L8.53613 2.58611C9.18068 2.20744 9.85344 1.87711 10.5544 1.59512C11.352 1.2809 12.1859 1.0271 13.044 0.833735L13.0923 1.05128C12.2463 1.23256 11.4245 1.48634 10.639 1.80056Z" fill="url(#paint3_linear_44_4773)"/>
<path d="M30.1809 21.8018C30.5676 20.9075 30.8698 19.9527 31.0752 18.9738C31.1639 18.5629 31.2323 18.148 31.2807 17.729L31.5103 17.7653C31.4539 18.1843 31.3814 18.6032 31.2928 19.0222C31.0873 20.0132 30.7852 20.98 30.3864 21.8985C30.3139 22.0677 30.2373 22.2328 30.1567 22.394L29.9634 22.2973C30.0359 22.1362 30.1084 21.971 30.1809 21.8018Z" fill="url(#paint4_linear_44_4773)"/>
<path d="M21.9025 29.8991C22.5874 29.6252 23.248 29.3029 23.8845 28.9323L24.0054 29.1257C23.3608 29.4963 22.6881 29.8226 21.9871 30.1046C21.1895 30.4309 20.3556 30.6847 19.4976 30.866L19.4492 30.6484C20.2952 30.4671 21.117 30.2134 21.9025 29.8991Z" fill="url(#paint5_linear_44_4773)"/>
<path d="M1.26063 13.9705C1.18006 14.5828 1.13978 15.2113 1.13978 15.8558C1.13978 16.8589 1.23646 17.8499 1.42983 18.8046C1.61111 19.7352 1.87698 20.6295 2.21537 21.4755C2.59002 22.4061 3.04926 23.2883 3.5931 24.1222L3.61727 24.1464L3.42391 24.2672L3.41182 24.243C2.8559 23.3971 2.39665 22.5028 2.00992 21.5601C1.67153 20.702 1.39357 19.7956 1.21229 18.853C1.01892 17.8861 0.910156 16.8831 0.910156 15.8558C0.918213 15.2032 0.958498 14.5667 1.03101 13.9463L1.26063 13.9705Z" fill="url(#paint6_linear_44_4773)"/>
<path d="M8.65706 2.77951C8.43147 2.90842 8.21393 3.04136 8.00445 3.17833C7.12222 3.74634 6.3125 4.41103 5.5753 5.14824C4.87435 5.84919 4.23382 6.62265 3.68998 7.44445C3.267 8.07289 2.90444 8.7255 2.57813 9.40228L2.38477 9.3056C2.71107 8.61674 3.07363 7.95204 3.49662 7.3236C4.06463 6.48971 4.70515 5.70417 5.41819 4.99113C6.16748 4.24184 6.98928 3.57715 7.8836 2.98497C8.10113 2.848 8.31867 2.71505 8.53621 2.58614L8.65706 2.77951Z" fill="url(#paint7_linear_44_4773)"/>
<path d="M25.7215 4.0365C25.3831 3.76256 25.0326 3.50475 24.6701 3.26304C23.8966 2.75546 23.0869 2.3083 22.2288 1.93365C21.3224 1.54692 20.3677 1.24479 19.3888 1.03933C18.3857 0.833884 17.3342 0.725119 16.2707 0.725119C15.2556 0.725119 14.2646 0.821797 13.3098 1.01516C13.2373 1.02322 13.1648 1.03531 13.0923 1.05142L13.0439 0.833882C13.1165 0.817769 13.189 0.801659 13.2615 0.785545C14.2404 0.604265 15.2435 0.495494 16.2707 0.495494C17.3584 0.495494 18.4098 0.604264 19.4371 0.8218C20.4281 1.02725 21.3949 1.34147 22.3134 1.7282C23.1836 2.10285 24.0174 2.56209 24.7909 3.08176C25.1615 3.33152 25.5201 3.59337 25.8665 3.86731L25.7215 4.0365Z" fill="url(#paint8_linear_44_4773)"/>
<path d="M31.5106 17.7654L31.281 17.7291C31.3615 17.1168 31.4018 16.4924 31.4018 15.8559C31.4018 14.8407 31.3051 13.8497 31.1118 12.895C30.9305 11.9644 30.6646 11.0822 30.3141 10.2241C29.9516 9.29355 29.4802 8.41132 28.9485 7.58952L28.9243 7.55326L29.1177 7.43241L29.1298 7.46866C29.6857 8.30255 30.1449 9.19687 30.5317 10.1395C30.8701 11.0097 31.148 11.9161 31.3293 12.8466C31.5227 13.8256 31.6194 14.8286 31.6194 15.8559C31.6194 16.5004 31.5831 17.1369 31.5106 17.7654Z" fill="url(#paint9_linear_44_4773)"/>
<path d="M23.8848 28.9322C24.1104 28.8033 24.3279 28.6664 24.5374 28.5213C25.4196 27.9533 26.2293 27.2886 26.9665 26.5514C27.6675 25.8505 28.308 25.077 28.8518 24.2552C29.2748 23.6389 29.6374 22.9863 29.9637 22.2974L30.1571 22.3941C29.8348 23.087 29.4642 23.7476 29.0452 24.3761C28.4772 25.222 27.8367 25.9955 27.1236 26.7085C26.3743 27.4578 25.5525 28.1346 24.6582 28.7147C24.4407 28.8517 24.2232 28.9886 24.0056 29.1256L23.8848 28.9322Z" fill="url(#paint10_linear_44_4773)"/>
<path d="M6.81983 27.6633C7.15822 27.9292 7.50869 28.195 7.87125 28.4367C8.63263 28.9564 9.45444 29.3915 10.3125 29.7661C11.2189 30.1529 12.1616 30.455 13.1526 30.6604C14.1556 30.8659 15.195 30.9867 16.2706 30.9867C17.2857 30.9867 18.2767 30.878 19.2315 30.6967C19.304 30.6806 19.3765 30.6645 19.449 30.6484L19.4974 30.8659C19.4248 30.882 19.3483 30.8981 19.2677 30.9142C18.3009 31.1076 17.2978 31.2043 16.2706 31.2043C15.1829 31.2043 14.1315 31.0955 13.1042 30.878C12.1011 30.6725 11.1464 30.3583 10.2279 29.9716C9.35775 29.5969 8.52386 29.1498 7.73832 28.618C7.37576 28.3763 7.02528 28.1104 6.6748 27.8325L6.81983 27.6633Z" fill="url(#paint11_linear_44_4773)"/>
<path d="M5.57502 26.5514C5.96981 26.9462 6.38474 27.3168 6.81981 27.6633L6.67479 27.8325C6.23166 27.486 5.8127 27.1114 5.41791 26.7085C4.66862 25.9713 4.00392 25.1495 3.42383 24.2673L3.61719 24.1464C4.18521 25.0166 4.83781 25.8142 5.57502 26.5514Z" fill="url(#paint12_linear_44_4773)"/>
<path d="M18.9053 2.91239C18.9053 3.25078 19.1832 3.54083 19.5337 3.54083C19.8842 3.54083 20.1622 3.25078 20.1622 2.91239C20.1622 2.56192 19.8842 2.28395 19.5337 2.28395C19.1832 2.28395 18.9053 2.56192 18.9053 2.91239Z" fill="#FAF8F9"/>
<path d="M12.5605 28.7872C12.5605 29.1377 12.8385 29.4156 13.189 29.4156C13.5274 29.4156 13.8174 29.1377 13.8174 28.7872C13.8174 28.4488 13.5274 28.1709 13.189 28.1709C12.8385 28.1709 12.5605 28.4488 12.5605 28.7872Z" fill="#FAF8F9"/>
<path d="M2.54199 18.2004C2.54199 18.5387 2.83204 18.8288 3.17043 18.8288C3.52091 18.8288 3.79887 18.5387 3.79887 18.2004C3.79887 17.8499 3.52091 17.5719 3.17043 17.5719C2.83204 17.5719 2.54199 17.8499 2.54199 18.2004Z" fill="#FAF8F9"/>
<path d="M6.03467 6.62266C6.03467 6.96105 6.31263 7.2511 6.66311 7.2511C7.0015 7.2511 7.27946 6.96105 7.27946 6.62266C7.27946 6.27218 7.0015 5.99422 6.66311 5.99422C6.31263 5.99422 6.03467 6.27218 6.03467 6.62266Z" fill="#FAF8F9"/>
<path d="M28.5615 12.7862C28.5615 13.1366 28.8395 13.4146 29.19 13.4146C29.5404 13.4146 29.8184 13.1366 29.8184 12.7862C29.8184 12.4478 29.5404 12.1577 29.19 12.1577C28.8395 12.1577 28.5615 12.4478 28.5615 12.7862Z" fill="#FAF8F9"/>
<path d="M25.48 24.7265C25.48 25.0649 25.7579 25.3549 26.1084 25.3549C26.4468 25.3549 26.7248 25.0649 26.7248 24.7265C26.7248 24.376 26.4468 24.098 26.1084 24.098C25.7579 24.098 25.48 24.376 25.48 24.7265Z" fill="#FAF8F9"/>
<path fill-rule="evenodd" clip-rule="evenodd" d="M23.2803 8.84639C22.809 8.37506 22.3014 7.96415 21.7697 7.60159C21.2621 7.2632 20.7182 6.97316 20.1744 6.74353C19.5701 6.48974 18.9417 6.28429 18.3132 6.15135C17.6365 6.01841 16.9597 5.9459 16.2708 5.9459C15.6182 5.9459 14.9777 6.00633 14.3372 6.13927C13.741 6.25206 13.1568 6.42126 12.5848 6.64685C11.9805 6.88856 11.4125 7.19069 10.8566 7.55325C10.2886 7.91581 9.75682 8.35089 9.26132 8.84639C9.13241 8.96724 9.01156 9.09615 8.89876 9.23311C8.81014 9.3298 8.72151 9.43051 8.63289 9.53525C8.60871 9.56747 8.58052 9.60373 8.54829 9.64402C8.48383 9.72459 8.41938 9.80515 8.35492 9.88572C8.33075 9.92601 8.30255 9.96227 8.27033 9.9945C8.18976 10.1073 8.10919 10.2241 8.02862 10.345C7.67814 10.8646 7.40018 11.3964 7.15847 11.9523C6.90468 12.5566 6.71132 13.1729 6.57838 13.8135C6.43335 14.4782 6.36084 15.167 6.36084 15.8559C6.36084 16.4964 6.42127 17.149 6.55421 17.7895C6.667 18.3858 6.84023 18.9699 7.07388 19.5419C7.3035 20.1341 7.60563 20.7142 7.96819 21.2701C8.33075 21.826 8.76582 22.3699 9.26132 22.8654C9.73265 23.3246 10.2402 23.7355 10.772 24.0981C11.2796 24.4365 11.8113 24.7265 12.3673 24.9562C12.9715 25.222 13.6 25.4154 14.2284 25.5483C14.9052 25.6813 15.582 25.7538 16.2708 25.7538C16.9234 25.7538 17.564 25.6934 18.2045 25.5725C18.7967 25.4517 19.3888 25.2825 19.9569 25.0528C20.549 24.8111 21.1291 24.509 21.6851 24.1585C21.814 24.0699 21.9389 23.9813 22.0597 23.8926C22.1 23.8685 22.1362 23.8403 22.1685 23.808C22.2571 23.7436 22.3457 23.6791 22.4344 23.6147C22.4746 23.5825 22.5149 23.5502 22.5552 23.518C22.6599 23.4294 22.7647 23.3367 22.8694 23.24L22.9057 23.2159C23.0346 23.1031 23.1595 22.9862 23.2803 22.8654C23.3931 22.7445 23.5059 22.6237 23.6187 22.5028L23.6429 22.4666C23.7315 22.3699 23.8201 22.2732 23.9088 22.1765C23.9329 22.1362 23.9611 22.1 23.9934 22.0678C24.0578 21.9791 24.1223 21.8945 24.1867 21.814C24.2109 21.7817 24.2391 21.7455 24.2713 21.7052C24.3519 21.5924 24.4325 21.4756 24.513 21.3547C24.8514 20.8471 25.1415 20.3033 25.3832 19.7474C25.637 19.1431 25.8303 18.5267 25.9633 17.8983C26.1083 17.2215 26.1808 16.5327 26.1808 15.8559C26.1808 15.2033 26.1083 14.5507 25.9874 13.9101C25.8666 13.318 25.6974 12.7379 25.4678 12.1699C25.2382 11.5656 24.936 10.9855 24.5735 10.4416C24.2109 9.87364 23.7758 9.34189 23.2803 8.84639Z" fill="url(#paint13_linear_44_4773)"/>
<path fill-rule="evenodd" clip-rule="evenodd" d="M25.975 15.8559C25.975 15.2033 25.9025 14.5628 25.7816 13.9585C25.6608 13.3663 25.4916 12.7983 25.274 12.2424C25.0323 11.6502 24.7423 11.0822 24.3918 10.5504C24.0172 9.9945 23.5942 9.47482 23.1228 8.99141C22.6757 8.54425 22.1802 8.14544 21.6484 7.78288C21.165 7.45657 20.6333 7.16652 20.0894 6.9369C19.5093 6.68311 18.9051 6.48975 18.2645 6.35681C17.624 6.22387 16.9593 6.15135 16.2705 6.15135C16.0932 6.15135 15.92 6.15539 15.7508 6.16344C15.7186 6.16344 15.6904 6.16747 15.6662 6.17553C15.5695 6.17553 15.4728 6.18358 15.3761 6.1997C15.4567 6.19164 15.5413 6.18358 15.6299 6.17553C15.5413 6.18358 15.4527 6.19164 15.3641 6.1997C15.3157 6.1997 15.2674 6.20372 15.219 6.21178C15.1223 6.21984 15.0216 6.23193 14.9169 6.24804C14.8766 6.2561 14.8323 6.26415 14.784 6.27221C14.647 6.28832 14.51 6.3125 14.3731 6.34472C13.7809 6.45349 13.2129 6.63477 12.669 6.85231C12.0648 7.09402 11.5088 7.38406 10.9771 7.73454C10.4091 8.0971 9.88939 8.52008 9.41806 8.99141C8.95882 9.45065 8.56 9.93407 8.20953 10.4658C7.87919 10.9573 7.59317 11.481 7.35147 12.0369C7.10976 12.617 6.91639 13.2213 6.78345 13.8497C6.63843 14.5023 6.56592 15.167 6.56592 15.8559C6.56592 16.4964 6.63843 17.1369 6.75928 17.7533C6.88014 18.3334 7.04933 18.9135 7.26687 19.4573C7.50857 20.0495 7.79862 20.6175 8.1491 21.1493C8.51166 21.7052 8.93465 22.237 9.41806 22.7083C9.86522 23.1554 10.3607 23.5663 10.8804 23.9168C11.3759 24.2431 11.9076 24.5332 12.4515 24.7628C13.0316 25.0166 13.6358 25.2099 14.2764 25.3429C14.4133 25.3751 14.5584 25.4033 14.7114 25.4275C14.7517 25.4355 14.796 25.4396 14.8444 25.4396C14.9491 25.4557 15.0579 25.4718 15.1707 25.4879C15.219 25.496 15.2674 25.5 15.3157 25.5C15.4527 25.5161 15.5896 25.5282 15.7266 25.5363H15.7629C15.9321 25.5443 16.1013 25.5483 16.2705 25.5483C16.4316 25.5483 16.5927 25.5443 16.7539 25.5363H16.7901C16.8062 25.5363 16.8223 25.5363 16.8385 25.5363C16.9351 25.5282 17.0359 25.5201 17.1406 25.5121C17.1487 25.5121 17.1607 25.5121 17.1769 25.5121C17.2252 25.504 17.2735 25.496 17.3219 25.4879C17.4186 25.4799 17.5193 25.4678 17.624 25.4517C17.6643 25.4517 17.7046 25.4476 17.7449 25.4396C17.8899 25.4154 18.0309 25.3912 18.1679 25.3671C18.76 25.2462 19.328 25.077 19.8719 24.8595C20.4762 24.6178 21.0321 24.3156 21.5638 23.9772C22.1318 23.6026 22.6515 23.1796 23.1228 22.7083C23.57 22.2611 23.9809 21.7656 24.3314 21.2339C24.6698 20.7384 24.9477 20.2187 25.1894 19.6628C25.4311 19.0827 25.6245 18.4784 25.7575 17.85C25.9025 17.2094 25.975 16.5327 25.975 15.8559ZM17.1406 25.5121C17.1325 25.5121 17.1285 25.5121 17.1285 25.5121C17.1366 25.5121 17.1487 25.5121 17.1648 25.5121C17.1567 25.5121 17.1487 25.5121 17.1406 25.5121ZM16.9351 25.5242C16.9029 25.5322 16.8707 25.5363 16.8385 25.5363C16.8223 25.5363 16.8103 25.5363 16.8022 25.5363C16.8425 25.5363 16.8868 25.5322 16.9351 25.5242ZM15.7387 6.16344C15.7145 6.16344 15.6904 6.16747 15.6662 6.17553C15.6501 6.17553 15.638 6.17553 15.6299 6.17553C15.6702 6.17553 15.7065 6.1715 15.7387 6.16344Z" fill="#00B9ED"/>
<defs>
<linearGradient id="paint0_linear_44_4773" x1="5.26908" y1="26.8205" x2="27.207" y2="26.8205" gradientUnits="userSpaceOnUse">
<stop stop-color="#00E7EB"/>
<stop offset="1" stop-color="#0099C3"/>
</linearGradient>
<linearGradient id="paint1_linear_44_4773" x1="1.76712" y1="9.12376" x2="2.67157" y2="9.39174" gradientUnits="userSpaceOnUse">
<stop stop-color="#9FA3A5"/>
<stop offset="1" stop-color="white"/>
</linearGradient>
<linearGradient id="paint2_linear_44_4773" x1="30.0074" y1="6.53721" x2="28.7047" y2="7.83989" gradientUnits="userSpaceOnUse">
<stop stop-color="#9FA3A5"/>
<stop offset="1" stop-color="white"/>
</linearGradient>
<linearGradient id="paint3_linear_44_4773" x1="12.8389" y1="0.315635" x2="13.1846" y2="1.21093" gradientUnits="userSpaceOnUse">
<stop stop-color="#9FA3A5"/>
<stop offset="1" stop-color="white"/>
</linearGradient>
<linearGradient id="paint4_linear_44_4773" x1="31.2547" y1="22.6502" x2="29.6206" y2="22.273" gradientUnits="userSpaceOnUse">
<stop stop-color="#9FA3A5"/>
<stop offset="1" stop-color="white"/>
</linearGradient>
<linearGradient id="paint5_linear_44_4773" x1="20.0099" y1="32.1004" x2="19.3739" y2="30.5607" gradientUnits="userSpaceOnUse">
<stop stop-color="#9FA3A5"/>
<stop offset="1" stop-color="white"/>
</linearGradient>
<linearGradient id="paint6_linear_44_4773" x1="2.7284" y1="24.5123" x2="1.18281" y2="25.0477" gradientUnits="userSpaceOnUse">
<stop stop-color="#00EAE6"/>
<stop offset="1" stop-color="#0099C3"/>
</linearGradient>
<linearGradient id="paint7_linear_44_4773" x1="2.39746" y1="9.32143" x2="1.22516" y2="8.20597" gradientUnits="userSpaceOnUse">
<stop stop-color="#00DDE2"/>
<stop offset="1" stop-color="#0099C3"/>
</linearGradient>
<linearGradient id="paint8_linear_44_4773" x1="12.8764" y1="1.48734" x2="13.6361" y2="-1.50631" gradientUnits="userSpaceOnUse">
<stop stop-color="#00A6BE"/>
<stop offset="1" stop-color="#008AAF"/>
</linearGradient>
<linearGradient id="paint9_linear_44_4773" x1="25.0071" y1="13.54" x2="27.4652" y2="9.78562" gradientUnits="userSpaceOnUse">
<stop stop-color="#00E5FD"/>
<stop offset="1" stop-color="#0099C3"/>
</linearGradient>
<linearGradient id="paint10_linear_44_4773" x1="28.5045" y1="21.4457" x2="30.2928" y2="22.4739" gradientUnits="userSpaceOnUse">
<stop stop-color="#00EAE6"/>
<stop offset="1" stop-color="#0099C3"/>
</linearGradient>
<linearGradient id="paint11_linear_44_4773" x1="18.9361" y1="32.8613" x2="18.6337" y2="33.9339" gradientUnits="userSpaceOnUse">
<stop stop-color="#00EAE6"/>
<stop offset="1" stop-color="#0099C3"/>
</linearGradient>
<linearGradient id="paint12_linear_44_4773" x1="2.21445" y1="25.3942" x2="3.71773" y2="24.0018" gradientUnits="userSpaceOnUse">
<stop stop-color="#9FA3A5"/>
<stop offset="1" stop-color="white"/>
</linearGradient>
<linearGradient id="paint13_linear_44_4773" x1="6.32374" y1="25.7593" x2="26.1394" y2="25.7593" gradientUnits="userSpaceOnUse">
<stop stop-color="#00E7EB"/>
<stop offset="1" stop-color="#0099C3"/>
</linearGradient>
</defs>
</svg>
