<svg width="37" height="37" viewBox="0 0 37 37" fill="none" xmlns="http://www.w3.org/2000/svg">
<path fill-rule="evenodd" clip-rule="evenodd" d="M31.8518 18.0429C31.8518 18.9663 31.7666 19.8756 31.5819 20.7422C31.4256 21.5946 31.1699 22.4044 30.8573 23.1858C30.5164 24.024 30.1044 24.8338 29.6071 25.5868C29.0815 26.3824 28.4848 27.1353 27.8028 27.8031C27.1635 28.4424 26.4674 29.0249 25.7144 29.5221C25.004 29.9909 24.2653 30.403 23.4839 30.7439C22.6599 31.0991 21.7933 31.369 20.884 31.5537C19.9748 31.7526 19.0229 31.8521 18.0426 31.8521C17.7964 31.8521 17.5501 31.8473 17.3038 31.8379C17.1144 31.8284 16.9297 31.8142 16.7498 31.7952C16.6835 31.7858 16.6172 31.7763 16.5509 31.7668C16.4088 31.7574 16.2667 31.7384 16.1247 31.71C16.0584 31.71 15.9968 31.7053 15.94 31.6958C15.7411 31.6579 15.5422 31.62 15.3433 31.5821C14.5051 31.4259 13.6953 31.1701 12.9139 30.8576C12.0615 30.5166 11.2659 30.1046 10.5129 29.6074C9.7031 29.0817 8.96433 28.485 8.2824 27.8031C7.64308 27.1638 7.0748 26.4676 6.56335 25.7146C6.09452 25.0043 5.69672 24.2655 5.35576 23.4841C5.00058 22.6601 4.73065 21.7935 4.53175 20.8985C4.34706 19.975 4.2334 19.0231 4.2334 18.0429C4.2334 17.1194 4.33285 16.2244 4.50334 15.3435C4.67382 14.5053 4.91533 13.6955 5.22789 12.9141C5.56886 12.0617 5.99507 11.2661 6.49232 10.5131C7.00377 9.70334 7.61467 8.96458 8.2824 8.28264C8.92171 7.64332 9.63206 7.07504 10.385 6.56359C11.0812 6.09476 11.8341 5.69696 12.6155 5.356C13.4395 5.00082 14.3062 4.73089 15.2012 4.53199C15.4096 4.4941 15.618 4.45622 15.8263 4.41833C15.8926 4.40886 15.9589 4.39939 16.0252 4.38992C16.1768 4.37098 16.3283 4.35203 16.4798 4.33309C16.5461 4.32362 16.6124 4.31415 16.6787 4.30468C16.8776 4.28573 17.0765 4.27153 17.2754 4.26206H17.3323C17.569 4.24311 17.8058 4.23364 18.0426 4.23364C18.2699 4.23364 18.4972 4.24311 18.7245 4.26206H18.7956C18.8429 4.26206 18.895 4.26679 18.9519 4.27626C19.075 4.28573 19.1981 4.29521 19.3212 4.30468C19.2739 4.29521 19.2265 4.29047 19.1792 4.29047C19.236 4.29047 19.2881 4.29521 19.3354 4.30468C19.4017 4.31415 19.468 4.31888 19.5343 4.31888C19.6764 4.33783 19.8232 4.35677 19.9748 4.37571C20.0316 4.38518 20.0932 4.39466 20.1595 4.40413C20.3584 4.43254 20.5525 4.46569 20.7419 4.50358C21.5802 4.67406 22.4042 4.91558 23.1855 5.22813C24.0238 5.5691 24.8336 5.99531 25.5865 6.49256C26.3821 7.01822 27.1351 7.61491 27.8028 8.28264C28.4421 8.92195 29.0246 9.63231 29.5219 10.3853C29.9907 11.0814 30.4027 11.8344 30.7437 12.6158C31.0989 13.4398 31.3688 14.3064 31.5535 15.2015C31.7524 16.1249 31.8518 17.0768 31.8518 18.0429ZM19.1792 4.29047C19.1034 4.281 19.0276 4.27626 18.9519 4.27626C18.9045 4.26679 18.8571 4.26206 18.8098 4.26206C18.9329 4.27153 19.056 4.281 19.1792 4.29047Z" fill="#093679"/>
<path d="M4.6315 23.7826C4.26212 22.916 3.97798 22.0067 3.77908 21.0548C3.69384 20.657 3.62754 20.2592 3.58019 19.8615L0.14209 20.2877C0.198918 20.7896 0.279426 21.2822 0.383611 21.7652C0.62513 22.9444 0.980305 24.0667 1.44914 25.1465C1.53438 25.3454 1.62435 25.5443 1.71906 25.7432L4.85882 24.2656C4.78305 24.1046 4.70727 23.9436 4.6315 23.7826Z" fill="#F8F5F6"/>
<path d="M33.1448 27.9452L30.2465 26.0414C29.6925 26.8797 29.0674 27.661 28.357 28.3572C27.9782 28.736 27.5756 29.0959 27.1494 29.4369L29.3231 32.1362C29.844 31.7195 30.3413 31.2791 30.8148 30.815C31.6815 29.9342 32.4628 28.9823 33.1448 27.9452Z" fill="#F8F5F6"/>
<path d="M12.616 31.5821C11.9531 31.3169 11.3137 31.0044 10.6981 30.6445L8.96484 33.6421C9.72255 34.0873 10.5134 34.4756 11.3374 34.8071C12.2751 35.1765 13.2412 35.4749 14.2499 35.7022L14.9744 32.3067C14.1599 32.1267 13.3738 31.8852 12.616 31.5821Z" fill="#F8F5F6"/>
<path d="M31.4543 12.3032C31.8237 13.1841 32.122 14.0933 32.3209 15.0452C32.3967 15.4335 32.463 15.8313 32.5198 16.2386L35.9579 15.7982C35.8916 15.3056 35.8111 14.8131 35.7164 14.3206C35.4607 13.1557 35.1055 12.0191 34.6509 10.9394C34.5562 10.7405 34.4662 10.5463 34.381 10.3569L31.2412 11.8344C31.317 11.9859 31.388 12.1422 31.4543 12.3032Z" fill="#F8F5F6"/>
<path d="M23.4702 4.50359C24.1332 4.77826 24.7725 5.09081 25.3881 5.44125L27.1356 2.44358C26.3779 2.00789 25.587 1.6243 24.763 1.29281C23.8254 0.909218 22.8451 0.610871 21.8364 0.397766L21.1118 3.79324C21.9216 3.96373 22.7172 4.20524 23.4702 4.50359Z" fill="#F8F5F6"/>
<path fill-rule="evenodd" clip-rule="evenodd" d="M36.1 18.0429C36.1 19.2505 35.9721 20.4297 35.7448 21.5804C35.5317 22.6744 35.2192 23.7399 34.8072 24.7628C34.3667 25.871 33.8127 26.9223 33.1734 27.9026L33.1449 27.9452L30.2467 26.0414C29.6926 26.8797 29.0675 27.661 28.3572 28.3572C27.9783 28.736 27.5758 29.096 27.1496 29.4369L29.3233 32.1363C28.916 32.4583 28.4993 32.7661 28.073 33.0597C27.1496 33.6706 26.1693 34.2105 25.1464 34.6509C24.0667 35.1055 22.9443 35.4607 21.7651 35.7164C20.5717 35.9579 19.3215 36.1 18.0429 36.1C16.8353 36.1 15.6561 35.9721 14.5196 35.7448C14.4248 35.7354 14.3349 35.7212 14.2496 35.7022L14.9742 32.3067C14.1644 32.1363 13.383 31.8947 12.6158 31.5822C11.9528 31.317 11.3135 31.0044 10.6979 30.6445L8.96462 33.6422C8.69942 33.4907 8.43896 33.3344 8.18323 33.1734C7.13191 32.4772 6.16584 31.6958 5.28501 30.815C4.44679 29.9768 3.69382 29.0533 3.02609 28.073C2.53358 27.3343 2.0979 26.5576 1.71904 25.7431L4.8588 24.2656C4.78303 24.1046 4.70725 23.9435 4.63148 23.7825C4.2621 22.9159 3.97796 22.0067 3.77906 21.0548C3.69382 20.657 3.62752 20.2592 3.58017 19.8614L0.14207 20.2876C0.0473567 19.5583 0 18.8101 0 18.0429C0 16.8353 0.11366 15.6561 0.340972 14.5196C0.554077 13.4114 0.880831 12.3459 1.29283 11.3372C1.73325 10.229 2.28732 9.17773 2.92664 8.18324L2.95506 8.15482L5.85329 10.0586C6.39315 9.22035 7.03247 8.43896 7.72862 7.74282C8.11694 7.35449 8.51947 6.99458 8.93621 6.66309L6.77674 3.94955C7.17454 3.62752 7.59128 3.32444 8.02696 3.0403C8.93621 2.41519 9.91649 1.88953 10.9394 1.44911C12.0191 0.980284 13.1557 0.625108 14.3207 0.383589C15.5283 0.127863 16.7643 0 18.0429 0C19.2505 0 20.4297 0.113656 21.5804 0.340968C21.6657 0.359911 21.7509 0.378853 21.8362 0.397796L21.1116 3.79327C21.9214 3.96376 22.717 4.20527 23.47 4.50362C24.133 4.77829 24.7723 5.09084 25.3879 5.44128L27.1354 2.44361C27.4006 2.60462 27.6563 2.76563 27.9026 2.92664C28.9539 3.60858 29.9342 4.40417 30.815 5.28501C31.639 6.12322 32.4062 7.03247 33.0597 8.02696C33.5522 8.76572 33.9926 9.54237 34.381 10.3569L31.2412 11.8344C31.317 11.986 31.388 12.1423 31.4543 12.3033C31.8237 13.1841 32.122 14.0934 32.3209 15.0452C32.3967 15.4335 32.463 15.8313 32.5198 16.2386L35.9579 15.7982C36.0526 16.537 36.1 17.2852 36.1 18.0429ZM5.82487 10.087L5.85329 10.0586C5.84382 10.068 5.83434 10.0775 5.82487 10.087ZM15.2015 32.3494C15.1257 32.3304 15.05 32.3162 14.9742 32.3067C15.05 32.3257 15.1257 32.3399 15.2015 32.3494ZM29.8063 22.7596C30.1046 22.0493 30.3178 21.2963 30.474 20.5291C30.6445 19.7193 30.7298 18.8953 30.7298 18.0429C30.7298 17.1479 30.6303 16.2812 30.4456 15.4288C30.2751 14.6048 30.0194 13.8234 29.7068 13.0562C29.3943 12.3459 29.0107 11.6497 28.5845 11.0104C28.1157 10.3143 27.59 9.67497 27.0075 9.09248C26.3824 8.46738 25.7005 7.9133 24.9617 7.43027C24.2798 6.97564 23.541 6.59205 22.7596 6.2795C22.0493 5.99536 21.2963 5.76804 20.5291 5.61177C19.7193 5.45549 18.8953 5.37025 18.0429 5.37025C17.1479 5.37025 16.2812 5.4697 15.4288 5.64018C14.6048 5.81067 13.8092 6.06639 13.0562 6.39315C12.3459 6.70571 11.6497 7.07509 11.0104 7.5013C10.3143 7.97013 9.67497 8.49579 9.09248 9.09248C8.46738 9.70339 7.9133 10.3853 7.43026 11.1241C6.97564 11.8202 6.59205 12.559 6.2795 13.3404C5.99536 14.0507 5.76804 14.7895 5.61177 15.5709C5.45549 16.3665 5.37025 17.2047 5.37025 18.0429C5.37025 18.9379 5.4697 19.8188 5.64018 20.657C5.81067 21.481 6.06639 22.2766 6.39315 23.0296C6.70571 23.7494 7.07509 24.4361 7.5013 25.0896C7.97013 25.7715 8.49579 26.425 9.09248 27.0075C9.70339 27.6326 10.3853 28.1725 11.1241 28.6555C11.8202 29.1102 12.559 29.4938 13.3262 29.8063C14.0507 30.1047 14.7895 30.332 15.5709 30.474C16.3665 30.6445 17.2047 30.7298 18.0429 30.7298C18.9379 30.7298 19.8188 30.6303 20.657 30.4456C21.481 30.2751 22.2766 30.0194 23.0296 29.7069C23.7541 29.3943 24.4361 29.0249 25.0754 28.5845C25.7715 28.1299 26.425 27.59 27.0075 27.0075C27.6184 26.3824 28.1725 25.7005 28.6555 24.9617C29.1102 24.2798 29.4937 23.541 29.8063 22.7596Z" fill="#00C738"/>
<path d="M7.72864 7.74279C8.11696 7.35447 8.51949 6.99456 8.93623 6.66306L6.77677 3.94952C6.25584 4.36626 5.7586 4.81142 5.28503 5.28498C4.4042 6.15161 3.62281 7.11769 2.95508 8.1548L5.85331 10.0585C6.39318 9.22032 7.03249 8.43894 7.72864 7.74279Z" fill="#F8F5F6"/>
<path d="M29.451 15.642C29.2948 14.889 29.0532 14.1644 28.7549 13.4683C28.4708 12.8005 28.1298 12.1754 27.732 11.5787C27.3058 10.9394 26.8227 10.3569 26.2829 9.81708C25.7146 9.2488 25.0895 8.73735 24.4076 8.29693C23.7682 7.87072 23.0863 7.51554 22.376 7.2314C21.7224 6.96147 21.0405 6.76257 20.3301 6.6205C19.5914 6.47843 18.8242 6.39319 18.0428 6.39319C17.2188 6.39319 16.4232 6.47843 15.6418 6.64892C14.8889 6.80519 14.1501 7.0325 13.4682 7.33085C12.8004 7.61499 12.1753 7.95596 11.5786 8.35376C10.9393 8.77997 10.3426 9.27721 9.80275 9.81708C9.23447 10.3854 8.73723 11.0105 8.29681 11.6924C7.8706 12.3175 7.51542 12.9994 7.23128 13.7098C6.96135 14.3775 6.76245 15.0595 6.62038 15.7698C6.4783 16.5086 6.39307 17.2615 6.39307 18.0429C6.39307 18.8669 6.47831 19.6767 6.64879 20.4439C6.80507 21.2111 7.03238 21.9357 7.33073 22.6318C7.61487 23.2948 7.95584 23.9199 8.35363 24.5071C8.77984 25.1464 9.27709 25.7431 9.81695 26.283C10.3852 26.8513 11.0103 27.3627 11.6781 27.8031C12.3174 28.2152 12.9993 28.5703 13.7097 28.8545C14.3774 29.1244 15.0593 29.3375 15.7697 29.4796C16.3285 29.5838 16.8968 29.6501 17.4745 29.6785C16.8968 29.6501 16.338 29.5838 15.7981 29.4796C15.0878 29.3375 14.42 29.1386 13.7665 28.8687C13.0562 28.5845 12.3884 28.2294 11.7633 27.8316C11.0956 27.3911 10.4705 26.8797 9.9022 26.3256C9.37654 25.7858 8.8935 25.2033 8.46729 24.5782C8.0837 23.9957 7.74273 23.3706 7.45859 22.717C7.16024 22.0209 6.93293 21.3105 6.77666 20.5576C6.62038 19.7904 6.53514 18.9948 6.53514 18.185C6.53514 17.4178 6.60617 16.6649 6.74824 15.9403C6.89031 15.2299 7.10342 14.548 7.35914 13.9087C7.64328 13.1983 7.99846 12.5306 8.41046 11.9055C8.83667 11.2236 9.34813 10.6127 9.9022 10.0444C10.4421 9.51873 11.0246 9.03569 11.6497 8.60948C12.2464 8.22589 12.8573 7.88492 13.5108 7.60078C14.2069 7.30244 14.9315 7.07513 15.6702 6.91885C16.4374 6.76257 17.233 6.66312 18.0428 6.66312C18.81 6.66312 19.563 6.74836 20.3017 6.89043C20.9979 7.0325 21.6798 7.2314 22.3333 7.50134C23.0295 7.78548 23.6972 8.12644 24.3365 8.53845C25.0042 8.97886 25.6151 9.49032 26.1834 10.0444C26.7233 10.5843 27.1921 11.1667 27.6183 11.7919C28.0161 12.3791 28.3524 12.9994 28.627 13.653C28.9254 14.3491 29.1527 15.0595 29.309 15.8124C29.4795 16.5796 29.5647 17.3752 29.5647 18.185C29.5647 18.9522 29.4795 19.7052 29.3374 20.4297C29.1953 21.1401 28.9964 21.822 28.7265 22.4613C28.4423 23.1717 28.1014 23.8394 27.6894 24.4645C27.249 25.1322 26.7517 25.7573 26.1834 26.3256C25.6436 26.8513 25.0611 27.3343 24.436 27.7605C23.8487 28.1489 23.2284 28.4851 22.5749 28.7692C21.8929 29.0676 21.1684 29.2949 20.4154 29.4512C19.6482 29.6074 18.8526 29.6927 18.0428 29.6927C18.8668 29.6927 19.6766 29.6074 20.4438 29.4512C21.211 29.2949 21.9355 29.0534 22.6317 28.755C23.2947 28.4709 23.9198 28.1299 24.507 27.7321C25.1463 27.3059 25.743 26.8229 26.2829 26.283C26.8512 25.7147 27.3626 25.0896 27.803 24.4077C28.215 23.7684 28.5702 23.0864 28.8543 22.3761C29.1243 21.7226 29.3374 21.0406 29.4795 20.3303C29.6215 19.5915 29.6926 18.8243 29.6926 18.0429C29.6926 17.2189 29.6073 16.4233 29.451 15.642Z" fill="#EA7374"/>
<path fill-rule="evenodd" clip-rule="evenodd" d="M8.92208 8.92196C9.53298 8.31106 10.1865 7.7854 10.8826 7.31657C11.5504 6.87615 12.2465 6.49256 12.9711 6.19422C13.7525 5.85325 14.5623 5.59752 15.3863 5.42704C16.2671 5.24235 17.1479 5.1571 18.043 5.1571C18.8954 5.1571 19.7336 5.24235 20.5718 5.39862C21.339 5.5549 22.1062 5.78221 22.845 6.06635C23.6263 6.37891 24.3793 6.7767 25.0897 7.24553C25.8284 7.71437 26.5246 8.28265 27.1639 8.92196C27.7748 9.53286 28.3146 10.1864 28.7693 10.8825C29.2239 11.5503 29.5933 12.2464 29.9058 12.971C30.2326 13.7523 30.4883 14.5621 30.6588 15.3861C30.8435 16.267 30.9429 17.162 30.9429 18.0429C30.9429 18.8953 30.8577 19.7335 30.6872 20.5717C30.5451 21.3389 30.3178 22.1061 30.0195 22.8448C29.7069 23.6262 29.3233 24.3792 28.8545 25.0895C28.3715 25.8283 27.8174 26.5244 27.1639 27.1638C26.553 27.7747 25.8995 28.3145 25.2033 28.7691C24.5356 29.2238 23.8394 29.5932 23.1149 29.9057C22.3335 30.2325 21.5237 30.4882 20.6997 30.6587C19.8331 30.8434 18.938 30.9428 18.043 30.9428C17.2048 30.9428 16.3523 30.8576 15.5283 30.6871C14.747 30.545 13.994 30.3177 13.2552 30.0194C12.4738 29.7068 11.7209 29.3232 10.9963 28.8544C10.2718 28.3714 9.5614 27.8173 8.92208 27.1638C8.31118 26.5529 7.78552 25.8993 7.31669 25.2032C6.87628 24.5355 6.49268 23.8393 6.19434 23.1148C5.85337 22.3334 5.59765 21.5236 5.42716 20.6996C5.24247 19.8329 5.15723 18.9379 5.15723 18.0429C5.15723 17.2046 5.22826 16.3522 5.39875 15.5282C5.55502 14.7468 5.78234 13.9939 6.06648 13.2551C6.37903 12.4737 6.77683 11.7207 7.24566 10.9962C7.71449 10.2716 8.28277 9.57548 8.92208 8.92196ZM11.4651 8.1832C10.8258 8.60941 10.2291 9.10665 9.66085 9.66073C9.06416 10.2574 8.5527 10.8967 8.11228 11.5645C7.68607 12.2322 7.3309 12.9283 7.03255 13.6387C6.76262 14.3206 6.56372 15.0168 6.42165 15.7271C6.26538 16.4943 6.19434 17.2757 6.19434 18.0429C6.19434 18.8669 6.27959 19.6909 6.45007 20.4865C6.60635 21.2394 6.83365 21.9924 7.14621 22.717C7.43035 23.3705 7.77131 24.024 8.18332 24.6349C8.60953 25.26 9.10678 25.8709 9.66085 26.425C10.2575 27.0217 10.8969 27.5331 11.5646 27.9736C12.2323 28.414 12.9285 28.7691 13.6388 29.0533C14.3207 29.3232 15.0169 29.5363 15.7272 29.6784C16.4944 29.8205 17.2758 29.9057 18.043 29.9057C18.867 29.9057 19.6768 29.8063 20.4866 29.65C21.2396 29.4795 21.9925 29.2522 22.7171 28.9396C23.3706 28.6555 24.0099 28.3145 24.635 27.9025C25.2601 27.4905 25.871 26.9933 26.4251 26.425C27.0218 25.8425 27.5333 25.2032 27.9737 24.5213C28.4141 23.8677 28.7693 23.1716 29.0534 22.4612C29.3233 21.7793 29.5365 21.069 29.6643 20.3586C29.8206 19.6056 29.8916 18.8242 29.8916 18.0429C29.8916 17.2331 29.8064 16.4091 29.6501 15.5993C29.4796 14.8463 29.2523 14.1075 28.9398 13.383C28.6556 12.7152 28.3147 12.0759 27.9026 11.465C27.4764 10.8257 26.9934 10.229 26.4251 9.66073C25.8426 9.06403 25.2033 8.55258 24.5214 8.11216C23.8679 7.68595 23.1717 7.33078 22.4614 7.04664C21.7794 6.7625 21.0691 6.5636 20.3587 6.42153C19.6058 6.26525 18.8244 6.19422 18.043 6.19422C17.2332 6.19422 16.4092 6.27946 15.5994 6.44994C14.8464 6.60622 14.1076 6.84774 13.3831 7.14609C12.7154 7.43023 12.076 7.77119 11.4651 8.1832Z" fill="url(#paint0_linear_233_2796)"/>
<path d="M27.7318 11.5788L28.5843 11.0105C28.1154 10.3143 27.5898 9.67502 27.0073 9.09253L26.2827 9.81709C26.8226 10.357 27.3056 10.9394 27.7318 11.5788Z" fill="#00C738"/>
<path d="M28.7548 13.4682L29.6925 13.0562C29.3942 12.3459 29.0106 11.6498 28.5844 11.0104L27.7319 11.5787C28.1297 12.1754 28.4707 12.8005 28.7548 13.4682Z" fill="#E3DEDD"/>
<path d="M29.451 15.642L30.4455 15.4288C30.275 14.6048 30.0193 13.8235 29.6925 13.0563L28.7549 13.4683C29.0532 14.1644 29.2947 14.889 29.451 15.642Z" fill="#00C738"/>
<path d="M26.2827 26.2829L27.0073 27.0075C27.6182 26.3824 28.1722 25.7004 28.6553 24.9617L27.8029 24.4076C27.3624 25.0895 26.851 25.7146 26.2827 26.2829Z" fill="#E3DEDD"/>
<path d="M7.23142 13.7097L6.27955 13.3403C5.99541 14.0507 5.76809 14.7894 5.61182 15.5708L6.62051 15.7697C6.76258 15.0594 6.96149 14.3774 7.23142 13.7097Z" fill="#E3DEDD"/>
<path d="M6.64932 20.4438L5.64062 20.657C5.81111 21.481 6.06683 22.2766 6.39359 23.0295L7.33125 22.6317C7.03291 21.9356 6.8056 21.211 6.64932 20.4438Z" fill="#00C738"/>
<path d="M6.62033 15.7698L5.61164 15.5709C5.45536 16.3665 5.37012 17.2047 5.37012 18.0429H6.39302C6.39302 17.2616 6.47826 16.5086 6.62033 15.7698Z" fill="#00C738"/>
<path d="M6.39302 18.0428H5.37012C5.37012 18.9379 5.46957 19.8187 5.64005 20.6569L6.64875 20.4438C6.47826 19.6767 6.39302 18.8669 6.39302 18.0428Z" fill="#E3DEDD"/>
<path d="M7.33073 22.6318L6.39307 23.0296C6.70562 23.7494 7.075 24.4361 7.50121 25.0896L8.35363 24.5213C7.95584 23.9246 7.61487 23.2948 7.33073 22.6318Z" fill="#E3DEDD"/>
<path d="M9.81684 26.283L9.09229 27.0075C9.70319 27.6326 10.3851 28.1725 11.1239 28.6555L11.678 27.8031C11.0102 27.3627 10.3851 26.8512 9.81684 26.283Z" fill="#E3DEDD"/>
<path d="M8.35389 24.5213L7.50146 25.0896C7.9703 25.7715 8.49596 26.425 9.09265 27.0075L9.81721 26.283C9.27734 25.7431 8.7801 25.1464 8.35389 24.5071V24.5213Z" fill="#00C738"/>
<path d="M11.6781 27.8031L11.124 28.6555C11.8202 29.1101 12.5589 29.4937 13.3261 29.8063L13.7097 28.8544C12.9994 28.5703 12.3174 28.2151 11.6781 27.8031Z" fill="#00C738"/>
<path d="M8.29718 11.6924L7.43055 11.1241C6.97593 11.8202 6.59234 12.559 6.27979 13.3404L7.23166 13.7098C7.5158 12.9994 7.87097 12.3175 8.29718 11.6924Z" fill="#00C738"/>
<path d="M18.0428 6.3932V5.3703C17.1478 5.3703 16.2811 5.46975 15.4287 5.64023L15.6418 6.64893C16.4232 6.47845 17.2188 6.3932 18.0428 6.3932Z" fill="#E3DEDD"/>
<path d="M13.4681 7.33085L13.0561 6.39319C12.3457 6.70574 11.6496 7.07513 11.0103 7.50134L11.5785 8.35376C12.1752 7.97017 12.8003 7.61499 13.4681 7.33085Z" fill="#E3DEDD"/>
<path d="M15.6418 6.64883L15.4287 5.64014C14.6047 5.81062 13.8091 6.06635 13.0562 6.39311L13.4682 7.33077C14.1501 7.03242 14.8888 6.80511 15.6418 6.64883Z" fill="#00C738"/>
<path d="M9.80275 9.81709L9.0924 9.09253C8.46729 9.70343 7.91321 10.3854 7.43018 11.1241L8.29681 11.6924C8.73723 11.0105 9.23447 10.3854 9.80275 9.81709Z" fill="#E3DEDD"/>
<path d="M11.5785 8.35376L11.0102 7.50134C10.3141 7.97017 9.67477 8.49583 9.09229 9.09253L9.80264 9.81709C10.3425 9.27722 10.9392 8.77997 11.5785 8.35376Z" fill="#00C738"/>
<path d="M29.4512 15.6419C29.6074 16.4233 29.6927 17.2189 29.6927 18.0429H30.7298C30.7298 17.1479 30.6304 16.2813 30.4457 15.4288L29.4512 15.6419Z" fill="#E3DEDD"/>
<path d="M29.4795 20.3302L30.474 20.5291C30.6445 19.7193 30.7297 18.8953 30.7297 18.0428H29.6926C29.6926 18.8242 29.6216 19.5914 29.4795 20.3302Z" fill="#00C738"/>
<path d="M26.283 9.81701L27.0076 9.09246C26.3825 8.46735 25.7006 7.91328 24.9618 7.43024L24.4077 8.29686C25.0897 8.73728 25.7148 9.24873 26.283 9.81701Z" fill="#E3DEDD"/>
<path d="M28.8545 22.3761L29.8064 22.7597C30.1047 22.0493 30.3178 21.2963 30.4741 20.5292L29.4796 20.3303C29.3375 21.0406 29.1244 21.7225 28.8545 22.3761Z" fill="#E3DEDD"/>
<path d="M13.7098 28.8544L13.3262 29.8063C14.0507 30.1046 14.7895 30.332 15.5709 30.474L15.7698 29.4795C15.0594 29.3375 14.3775 29.1244 13.7098 28.8544Z" fill="#E3DEDD"/>
<path d="M24.4076 8.29694L24.9617 7.43031C24.2797 6.97568 23.541 6.5921 22.7596 6.27954L22.376 7.23141C23.0863 7.51555 23.7683 7.87073 24.4076 8.29694Z" fill="#00C738"/>
<path d="M22.3764 7.23129L22.76 6.27942C22.0496 5.99528 21.2966 5.76797 20.5295 5.61169L20.3306 6.62039C21.0409 6.76246 21.7229 6.97557 22.3764 7.23129Z" fill="#E3DEDD"/>
<path d="M27.8032 24.4076L28.6556 24.9617C29.1103 24.2797 29.4939 23.541 29.8064 22.7596L28.8545 22.376C28.5704 23.0863 28.2152 23.7683 27.8032 24.4076Z" fill="#00C738"/>
<path d="M18.043 29.7068V30.7297C18.938 30.7297 19.8188 30.6303 20.6571 30.4456L20.444 29.4511C19.6768 29.6074 18.867 29.6926 18.043 29.6926V29.7068Z" fill="#E3DEDD"/>
<path d="M20.3303 6.62052L20.5292 5.61182C19.7194 5.45554 18.8954 5.3703 18.043 5.3703V6.3932C18.8244 6.3932 19.5915 6.47845 20.3303 6.62052Z" fill="#00C738"/>
<path d="M15.7697 29.4796L15.5708 30.474C16.3664 30.6445 17.1904 30.7298 18.0428 30.7298V29.7069C17.2614 29.7069 16.5085 29.6216 15.7697 29.4796Z" fill="#00C738"/>
<path d="M20.4438 29.4511L20.657 30.4456C21.481 30.2751 22.2765 30.0194 23.0295 29.7068L22.6317 28.7549C21.9356 29.0533 21.211 29.2948 20.4438 29.4511Z" fill="#00C738"/>
<path d="M22.6318 28.755L23.0296 29.7069C23.7542 29.3943 24.4361 29.025 25.0754 28.5845L24.5072 27.7321C23.9199 28.1299 23.2948 28.4709 22.6318 28.755Z" fill="#E3DEDD"/>
<path d="M24.5073 27.7321L25.0756 28.5845C25.7717 28.1299 26.4253 27.59 27.0078 27.0075L26.2832 26.283C25.7433 26.8228 25.1466 27.3059 24.5073 27.7321Z" fill="#00C738"/>
<path d="M1.96059 25.6295C1.86587 25.44 1.7759 25.2459 1.69066 25.047C1.23603 23.9815 0.880854 22.8733 0.639335 21.7083C0.53515 21.2348 0.454642 20.7517 0.397814 20.2592L0.14209 20.2876C0.198918 20.7896 0.279426 21.2821 0.383611 21.7652C0.62513 22.9443 0.980305 24.0667 1.44914 25.1464C1.53438 25.3453 1.62435 25.5442 1.71906 25.7431L1.96059 25.6295Z" fill="url(#paint1_linear_233_2796)"/>
<path d="M30.6304 30.6303C30.1568 31.0849 29.6643 31.5206 29.1528 31.9373L29.3233 32.1362C29.8442 31.7195 30.3415 31.2791 30.8151 30.815C31.6817 29.9342 32.4631 28.9823 33.145 27.9452L32.9177 27.8031C32.25 28.8118 31.4828 29.7637 30.6304 30.6303Z" fill="url(#paint2_linear_233_2796)"/>
<path d="M11.4369 34.5656C10.6223 34.2341 9.84095 33.8505 9.09271 33.4149L8.96484 33.6422C9.72255 34.0873 10.5134 34.4756 11.3374 34.8071C12.2751 35.1765 13.2412 35.4749 14.2499 35.7022L14.3067 35.4323C13.3122 35.2334 12.3461 34.935 11.4369 34.5656Z" fill="url(#paint3_linear_233_2796)"/>
<path d="M34.4096 11.053C34.8642 12.1043 35.2194 13.2267 35.4609 14.3775C35.5556 14.8605 35.6361 15.3483 35.7024 15.8408L35.9581 15.7982C35.8918 15.3056 35.8113 14.8131 35.7166 14.3206C35.4609 13.1557 35.1057 12.0191 34.6511 10.9394C34.5564 10.7405 34.4664 10.5463 34.3812 10.3569L34.1396 10.4705C34.2344 10.66 34.3243 10.8541 34.4096 11.053Z" fill="url(#paint4_linear_233_2796)"/>
<path d="M24.6633 1.53433C25.4778 1.85635 26.2592 2.23521 27.0074 2.67089L27.1353 2.44358C26.3776 2.00789 25.5867 1.6243 24.7627 1.29281C23.8251 0.909218 22.8448 0.610871 21.8361 0.397766L21.7935 0.653492C22.7737 0.866597 23.7398 1.16494 24.6633 1.53433Z" fill="url(#paint5_linear_233_2796)"/>
<path d="M0.397795 20.2592C0.303081 19.5299 0.255724 18.7911 0.255724 18.0429C0.255724 16.8495 0.369384 15.6987 0.596696 14.5621C0.809801 13.4824 1.12235 12.4311 1.53436 11.4366C1.97477 10.3427 2.51464 9.30555 3.13975 8.32527L3.16816 8.29686L2.95506 8.15479L2.92664 8.1832C2.28732 9.17769 1.73325 10.229 1.29283 11.3372C0.880831 12.3459 0.554077 13.4114 0.340972 14.5195C0.11366 15.6561 0 16.8353 0 18.0429C0 18.81 0.0473567 19.5583 0.14207 20.2876L0.397795 20.2592Z" fill="url(#paint6_linear_233_2796)"/>
<path d="M9.09268 33.4148C8.83695 33.2633 8.58122 33.107 8.3255 32.946C7.30259 32.2783 6.33652 31.4969 5.46989 30.6303C4.64589 29.8063 3.90712 28.897 3.2536 27.9167C2.77056 27.1922 2.33014 26.425 1.96076 25.6294L1.71924 25.743C2.09809 26.5576 2.53378 27.3342 3.02628 28.073C3.69401 29.0533 4.44699 29.9767 5.2852 30.815C6.16604 31.6958 7.13211 32.4772 8.18343 33.1733C8.43915 33.3343 8.69961 33.4906 8.96481 33.6421L9.09268 33.4148Z" fill="url(#paint7_linear_233_2796)"/>
<path d="M29.1527 31.9374C28.7549 32.2499 28.3429 32.553 27.9167 32.8466C27.0216 33.4433 26.0555 33.969 25.0468 34.4094C23.9813 34.864 22.8732 35.2192 21.7082 35.4607C20.529 35.7022 19.3072 35.8301 18.0428 35.8301C16.8494 35.8301 15.6986 35.7164 14.5621 35.4891C14.4768 35.4702 14.3916 35.4512 14.3063 35.4323L14.2495 35.7022C14.3348 35.7212 14.4247 35.7354 14.5194 35.7449C15.656 35.9722 16.8352 36.1 18.0428 36.1C19.3214 36.1 20.5716 35.958 21.765 35.7164C22.9442 35.4607 24.0666 35.1055 25.1463 34.6509C26.1692 34.2105 27.1495 33.6706 28.0729 33.0597C28.4991 32.7661 28.9159 32.4583 29.3232 32.1363L29.1527 31.9374Z" fill="url(#paint8_linear_233_2796)"/>
<path d="M35.9578 15.7982L35.7021 15.8408C35.7873 16.5607 35.8299 17.2947 35.8299 18.0429C35.8299 19.2363 35.7163 20.4013 35.4889 21.5236C35.2758 22.6034 34.9633 23.6547 34.5655 24.6634C34.1251 25.7573 33.5852 26.7944 32.9459 27.7605L32.9175 27.8031L33.1448 27.9452L33.1732 27.9026C33.8125 26.9223 34.3666 25.871 34.807 24.7628C35.219 23.7399 35.5316 22.6744 35.7447 21.5805C35.972 20.4297 36.0998 19.2505 36.0998 18.0429C36.0998 17.2852 36.0525 16.537 35.9578 15.7982Z" fill="url(#paint9_linear_233_2796)"/>
<path d="M27.0078 2.67085C27.2635 2.8224 27.5145 2.97867 27.7608 3.13969C28.7979 3.82162 29.7498 4.60301 30.6306 5.46963C31.4546 6.29364 32.1934 7.20289 32.8469 8.16897C33.3299 8.89352 33.7561 9.6607 34.1397 10.4705L34.3813 10.3568C33.9929 9.54231 33.5525 8.76566 33.06 8.0269C32.4065 7.03241 31.6393 6.12316 30.8153 5.28494C29.9345 4.40411 28.9542 3.60852 27.9029 2.92658C27.6566 2.76557 27.4009 2.60456 27.1357 2.44354L27.0078 2.67085Z" fill="url(#paint10_linear_233_2796)"/>
<path d="M6.93313 4.16265C7.33093 3.84063 7.74293 3.53754 8.16914 3.2534C9.07839 2.6425 10.0303 2.11684 11.039 1.69063C12.1045 1.23601 13.2268 0.880834 14.3776 0.639315C15.5568 0.383589 16.7928 0.255726 18.043 0.255726C19.2364 0.255726 20.4014 0.383589 21.5237 0.596694C21.609 0.615637 21.699 0.634579 21.7937 0.653522L21.8363 0.397796C21.751 0.378853 21.6658 0.359911 21.5806 0.340968C20.4298 0.113656 19.2506 0 18.043 0C16.7644 0 15.5284 0.127863 14.3208 0.383589C13.1558 0.625108 12.0192 0.980284 10.9395 1.44911C9.9166 1.88953 8.93632 2.41519 8.02707 3.0403C7.59139 3.32444 7.17465 3.62752 6.77686 3.94955L6.93313 4.16265Z" fill="url(#paint11_linear_233_2796)"/>
<path d="M5.46972 5.46967C5.93382 5.00558 6.42159 4.5699 6.93304 4.16263L6.77677 3.94952C6.25584 4.36626 5.7586 4.81142 5.28503 5.28498C4.4042 6.15161 3.62281 7.11769 2.95508 8.1548L3.16818 8.29687C3.83591 7.27396 4.60309 6.32209 5.46972 5.46967Z" fill="url(#paint12_linear_233_2796)"/>
<path d="M21.1396 33.2586C21.1396 32.8466 21.4806 32.5198 21.8784 32.5198C22.2904 32.5198 22.6172 32.8466 22.6172 33.2586C22.6172 33.6706 22.2904 33.9974 21.8784 33.9974C21.4806 33.9974 21.1396 33.6706 21.1396 33.2586Z" fill="#F8F7F7"/>
<path d="M13.6812 2.82722C13.6812 2.42942 14.0079 2.10266 14.4199 2.10266C14.8319 2.10266 15.1587 2.42942 15.1587 2.82722C15.1587 3.23922 14.8319 3.56598 14.4199 3.56598C14.0079 3.56598 13.6812 3.23922 13.6812 2.82722Z" fill="#F8F7F7"/>
<path d="M1.91797 15.2867C1.91797 14.8747 2.24473 14.548 2.64252 14.548C3.05453 14.548 3.38129 14.8747 3.38129 15.2867C3.38129 15.6987 3.05453 16.0255 2.64252 16.0255C2.24473 16.0255 1.91797 15.6987 1.91797 15.2867Z" fill="#F8F7F7"/>
<path d="M6.00977 28.897C6.00977 28.4992 6.33653 28.1583 6.74853 28.1583C7.16053 28.1583 7.4873 28.4992 7.4873 28.897C7.4873 29.309 7.16053 29.6358 6.74853 29.6358C6.33653 29.6358 6.00977 29.309 6.00977 28.897Z" fill="#F8F7F7"/>
<path d="M32.4912 21.6514C32.4912 21.2394 32.8322 20.9127 33.23 20.9127C33.642 20.9127 33.9687 21.2394 33.9687 21.6514C33.9687 22.0492 33.642 22.376 33.23 22.376C32.8322 22.376 32.4912 22.0492 32.4912 21.6514Z" fill="#F8F7F7"/>
<path d="M28.8687 7.61499C28.8687 7.20298 29.1954 6.87622 29.6074 6.87622C30.0194 6.87622 30.3462 7.20298 30.3462 7.61499C30.3462 8.02699 30.0194 8.35375 29.6074 8.35375C29.1954 8.35375 28.8687 8.02699 28.8687 7.61499Z" fill="#F8F7F7"/>
<path fill-rule="evenodd" clip-rule="evenodd" d="M26.2829 26.283C25.7288 26.8371 25.1463 27.3201 24.5212 27.7321C23.9103 28.1441 23.2852 28.4851 22.6317 28.755C21.9213 29.0534 21.1968 29.2949 20.4438 29.437C19.6624 29.6074 18.8526 29.6927 18.0428 29.6927C17.2756 29.6927 16.5227 29.6216 15.7697 29.4654C15.0688 29.3328 14.3821 29.1339 13.7097 28.8687C13.0135 28.5845 12.3316 28.2294 11.6781 27.8031C11.0103 27.3769 10.3852 26.8655 9.80275 26.283C9.66068 26.1409 9.51861 25.9894 9.37654 25.8284C9.27235 25.7147 9.17291 25.5963 9.07819 25.4732C9.04031 25.4353 9.00242 25.3927 8.96453 25.3453C8.88876 25.2506 8.81299 25.1559 8.73722 25.0612C8.70881 25.0138 8.6804 24.9712 8.65198 24.9333C8.5478 24.7913 8.44835 24.6539 8.35363 24.5213C7.95584 23.9104 7.61487 23.2853 7.33073 22.6318C7.03238 21.9214 6.80507 21.1969 6.64879 20.4439C6.47831 19.6625 6.39307 18.8527 6.39307 18.0429C6.39307 17.29 6.4783 16.5228 6.62038 15.7698C6.76245 15.0689 6.96609 14.3823 7.23128 13.7098C7.51542 13.0137 7.85639 12.3317 8.2826 11.6782C8.72301 11.0247 9.22026 10.3854 9.80275 9.80287C10.3568 9.263 10.9535 8.77997 11.5786 8.35376C12.1753 7.95596 12.8146 7.61499 13.4682 7.33085C14.1643 7.0325 14.9031 6.80519 15.6418 6.64892C16.4374 6.47843 17.2472 6.39319 18.0428 6.39319C18.81 6.39319 19.5772 6.47843 20.3159 6.6205C21.0263 6.76257 21.7082 6.96147 22.376 7.2314C23.0863 7.51554 23.7682 7.85651 24.4076 8.28272C24.5591 8.38691 24.7059 8.49109 24.848 8.59527C24.8953 8.62369 24.9427 8.65684 24.99 8.69472C25.0942 8.7705 25.1937 8.84627 25.2884 8.92204C25.3357 8.95992 25.3831 8.99781 25.4305 9.03569C25.5536 9.13988 25.6814 9.2488 25.814 9.36245L25.8425 9.39087C25.994 9.52347 26.1408 9.6608 26.2829 9.80287C26.4249 9.94494 26.5575 10.087 26.6807 10.2291L26.7233 10.2575C26.7233 10.267 26.728 10.2764 26.7375 10.2859C26.8322 10.3996 26.9269 10.5085 27.0216 10.6127C27.0595 10.66 27.0927 10.7026 27.1211 10.7405C27.1969 10.8447 27.2726 10.9442 27.3484 11.0389C27.3863 11.0768 27.4194 11.1194 27.4479 11.1667C27.5426 11.2993 27.6373 11.4367 27.732 11.5787C28.144 12.1754 28.485 12.8148 28.7549 13.4683C29.0532 14.1644 29.2806 14.9032 29.4368 15.642C29.6073 16.4375 29.6926 17.2473 29.6926 18.0429C29.6926 18.8101 29.6215 19.5773 29.4653 20.3303C29.3374 21.0264 29.1243 21.7083 28.8686 22.3761C28.5844 23.0864 28.2292 23.7684 27.803 24.4077C27.3768 25.0754 26.8654 25.7005 26.2829 26.283Z" fill="url(#paint13_linear_233_2796)"/>
<path fill-rule="evenodd" clip-rule="evenodd" d="M29.4512 18.0429C29.4512 18.8101 29.3659 19.5488 29.2239 20.2734C29.096 20.9695 28.8829 21.6373 28.6272 22.2908C28.343 22.9869 28.0021 23.6547 27.5901 24.2656C27.1638 24.9333 26.6666 25.5442 26.1125 26.1125C25.5727 26.6381 24.9902 27.107 24.3793 27.5332C23.7968 27.9168 23.1859 28.2577 22.5324 28.5277C21.8504 28.826 21.1401 29.0533 20.4013 29.2096C19.6341 29.3659 18.8527 29.4511 18.0429 29.4511C17.8346 29.4511 17.6309 29.4464 17.432 29.4369C17.4131 29.4369 17.3942 29.4322 17.3752 29.4227C17.271 29.4227 17.1621 29.418 17.0485 29.4085C17.0295 29.4085 17.0058 29.4038 16.9774 29.3943C16.9206 29.3943 16.8685 29.3895 16.8211 29.3801C16.698 29.3706 16.5749 29.3564 16.4518 29.3375C16.4044 29.328 16.357 29.3185 16.3097 29.309C16.1392 29.2901 15.9735 29.2617 15.8124 29.2238C15.1163 29.0959 14.4486 28.8828 13.8093 28.6271C13.1131 28.343 12.4454 28.002 11.8203 27.59C11.1526 27.1638 10.5416 26.6665 9.98757 26.1125C9.46191 25.5726 8.97888 25.0043 8.56687 24.3792C8.18328 23.7967 7.84232 23.1858 7.55818 22.5323C7.27404 21.8504 7.04672 21.14 6.89045 20.4012C6.73417 19.6341 6.64893 18.8527 6.64893 18.0429C6.64893 17.2899 6.71996 16.5369 6.86203 15.8124C7.0041 15.1162 7.203 14.4485 7.45873 13.8092C7.74287 13.1131 8.09804 12.4453 8.49584 11.8202C8.93625 11.1667 9.4335 10.5416 9.98757 9.98751C10.5132 9.46185 11.0957 8.97881 11.7208 8.56681C12.2986 8.17849 12.9095 7.84225 13.5535 7.55811C14.2355 7.27397 14.96 7.04666 15.6988 6.89038C15.8693 6.8525 16.0398 6.81935 16.2102 6.79093C16.2671 6.78146 16.3192 6.77673 16.3665 6.77673C16.4991 6.75779 16.627 6.73884 16.7501 6.7199C16.8069 6.71043 16.8638 6.70569 16.9206 6.70569C17.0816 6.68675 17.2426 6.67254 17.4036 6.66307H17.4463C17.6452 6.6536 17.8441 6.64886 18.0429 6.64886C18.2324 6.64886 18.4218 6.6536 18.6112 6.66307H18.6538C18.7107 6.66307 18.7628 6.66781 18.8101 6.67728C18.9048 6.67728 18.9996 6.68201 19.0943 6.69149C19.0564 6.69149 19.0185 6.68675 18.9806 6.67728C19.028 6.68675 19.0706 6.69149 19.1085 6.69149C19.1653 6.70096 19.2221 6.70569 19.279 6.70569C19.3926 6.72464 19.511 6.74358 19.6341 6.76252C19.6815 6.76252 19.7336 6.76726 19.7904 6.77673C19.9514 6.80514 20.1124 6.83356 20.2735 6.86197C20.9696 7.00404 21.6373 7.20294 22.2908 7.45866C22.987 7.7428 23.6547 8.09798 24.2656 8.49578C24.9333 8.93619 25.5442 9.43344 26.1125 9.98751C26.6382 10.5132 27.107 11.0957 27.5332 11.7208C27.9216 12.2985 28.2531 12.9142 28.5277 13.5677C28.8261 14.2354 29.0534 14.96 29.2097 15.6987C29.3659 16.4517 29.4512 17.2473 29.4512 18.0429ZM18.9806 6.67728C18.9238 6.67728 18.867 6.67728 18.8101 6.67728C18.7628 6.66781 18.7154 6.66307 18.6681 6.66307C18.7722 6.67254 18.8764 6.67728 18.9806 6.67728ZM16.9916 29.3943C17.02 29.4038 17.0485 29.4085 17.0769 29.4085C17.0674 29.4085 17.0579 29.4085 17.0485 29.4085C17.0295 29.4085 17.0106 29.4038 16.9916 29.3943ZM17.432 29.4369C17.4131 29.4369 17.3942 29.4322 17.3752 29.4227C17.3373 29.4227 17.3042 29.4227 17.2758 29.4227C17.3231 29.4227 17.3752 29.4274 17.432 29.4369Z" fill="#00C738"/>
<defs>
<linearGradient id="paint0_linear_233_2796" x1="5.11361" y1="5.15213" x2="30.9029" y2="5.15213" gradientUnits="userSpaceOnUse">
<stop stop-color="#006BB3"/>
<stop offset="1" stop-color="#093679"/>
</linearGradient>
<linearGradient id="paint1_linear_233_2796" x1="0.997067" y1="25.9559" x2="2.06047" y2="25.6409" gradientUnits="userSpaceOnUse">
<stop stop-color="#8D8E90"/>
<stop offset="1" stop-color="white"/>
</linearGradient>
<linearGradient id="paint2_linear_233_2796" x1="34.195" y1="28.9962" x2="32.6642" y2="27.4654" gradientUnits="userSpaceOnUse">
<stop stop-color="#8D8E90"/>
<stop offset="1" stop-color="white"/>
</linearGradient>
<linearGradient id="paint3_linear_233_2796" x1="14.0127" y1="36.3102" x2="14.4192" y2="35.2576" gradientUnits="userSpaceOnUse">
<stop stop-color="#8D8E90"/>
<stop offset="1" stop-color="white"/>
</linearGradient>
<linearGradient id="paint4_linear_233_2796" x1="35.6609" y1="10.0545" x2="33.7409" y2="10.4977" gradientUnits="userSpaceOnUse">
<stop stop-color="#8D8E90"/>
<stop offset="1" stop-color="white"/>
</linearGradient>
<linearGradient id="paint5_linear_233_2796" x1="22.442" y1="-1.05447" x2="21.6945" y2="0.755241" gradientUnits="userSpaceOnUse">
<stop stop-color="#8D8E90"/>
<stop offset="1" stop-color="white"/>
</linearGradient>
<linearGradient id="paint6_linear_233_2796" x1="2.12707" y1="7.86553" x2="0.310275" y2="7.23618" gradientUnits="userSpaceOnUse">
<stop stop-color="#0071B2"/>
<stop offset="1" stop-color="#093679"/>
</linearGradient>
<linearGradient id="paint7_linear_233_2796" x1="1.73799" y1="25.7233" x2="0.360043" y2="27.0345" gradientUnits="userSpaceOnUse">
<stop stop-color="#0064A8"/>
<stop offset="1" stop-color="#093679"/>
</linearGradient>
<linearGradient id="paint8_linear_233_2796" x1="14.0563" y1="34.9329" x2="14.9492" y2="38.452" gradientUnits="userSpaceOnUse">
<stop stop-color="#003D7C"/>
<stop offset="1" stop-color="#052C65"/>
</linearGradient>
<linearGradient id="paint9_linear_233_2796" x1="28.316" y1="20.7646" x2="31.2057" y2="25.178" gradientUnits="userSpaceOnUse">
<stop stop-color="#1D67AB"/>
<stop offset="1" stop-color="#093679"/>
</linearGradient>
<linearGradient id="paint10_linear_233_2796" x1="32.4282" y1="11.4705" x2="34.5306" y2="10.2618" gradientUnits="userSpaceOnUse">
<stop stop-color="#0071B2"/>
<stop offset="1" stop-color="#093679"/>
</linearGradient>
<linearGradient id="paint11_linear_233_2796" x1="21.1802" y1="-1.94906" x2="20.8246" y2="-3.20994" gradientUnits="userSpaceOnUse">
<stop stop-color="#0071B2"/>
<stop offset="1" stop-color="#093679"/>
</linearGradient>
<linearGradient id="paint12_linear_233_2796" x1="1.52273" y1="6.82857" x2="3.29036" y2="8.46593" gradientUnits="userSpaceOnUse">
<stop stop-color="#8D8E90"/>
<stop offset="1" stop-color="white"/>
</linearGradient>
<linearGradient id="paint13_linear_233_2796" x1="6.35329" y1="6.39972" x2="29.6475" y2="6.39972" gradientUnits="userSpaceOnUse">
<stop stop-color="#006BB3"/>
<stop offset="1" stop-color="#093679"/>
</linearGradient>
</defs>
</svg>
