<svg width="31" height="32" viewBox="0 0 31 32" fill="none" xmlns="http://www.w3.org/2000/svg">
<path fill-rule="evenodd" clip-rule="evenodd" d="M27.1072 16.0855C27.1072 15.3 27.0226 14.5386 26.8776 13.7893C26.7325 13.0762 26.5271 12.3874 26.2612 11.7227C25.9712 10.9976 25.6086 10.3208 25.1977 9.68027C24.7506 8.9914 24.2309 8.36296 23.6629 7.78287C23.119 7.23903 22.5148 6.75561 21.8742 6.32054C21.2821 5.92172 20.6415 5.58333 19.9768 5.29329C19.2759 4.99115 18.5387 4.76153 17.7773 4.59234C17.0038 4.43523 16.1941 4.33854 15.3602 4.33854C15.1508 4.3466 14.9413 4.35466 14.7318 4.36271C14.5707 4.37077 14.4136 4.38286 14.2605 4.39897C14.2041 4.40703 14.1477 4.41106 14.0913 4.41106C13.9704 4.42717 13.8496 4.44328 13.7287 4.4594C13.6723 4.46745 13.6199 4.47551 13.5716 4.48357C13.4024 4.50774 13.2332 4.53594 13.064 4.56816C12.351 4.71319 11.65 4.91864 10.9974 5.18452C10.2723 5.47457 9.58344 5.83713 8.94292 6.26011C8.26614 6.70727 7.6377 7.21486 7.05761 7.78287C6.51376 8.32671 6.03035 8.93097 5.59528 9.5715C5.19646 10.1637 4.84599 10.8042 4.56802 11.4689C4.26589 12.1698 4.02418 12.9071 3.86707 13.6684C3.69788 14.454 3.61328 15.2637 3.61328 16.0855C3.61328 16.871 3.69788 17.6445 3.8429 18.3817C3.98793 19.1068 4.19338 19.7957 4.45926 20.4604C4.7493 21.1734 5.11186 21.8623 5.52277 22.5028C5.96992 23.1796 6.48959 23.8201 7.05761 24.3881C7.60145 24.932 8.20571 25.4275 8.84624 25.8505C9.43842 26.2493 10.0669 26.5998 10.7436 26.8898C11.4446 27.1919 12.1818 27.4216 12.9432 27.5787C13.1124 27.619 13.2896 27.6512 13.4749 27.6753C13.5233 27.6915 13.5756 27.6995 13.632 27.6995C13.7609 27.7237 13.8899 27.7438 14.0188 27.7599C14.0832 27.768 14.1436 27.772 14.2 27.772C14.3612 27.7881 14.5264 27.8043 14.6955 27.8204H14.7439C14.9534 27.8284 15.1588 27.8325 15.3602 27.8325C15.5536 27.8325 15.747 27.8284 15.9403 27.8204H15.9887C16.037 27.8123 16.0854 27.8083 16.1337 27.8083C16.2384 27.8002 16.3432 27.7922 16.4479 27.7841C16.4157 27.7841 16.3835 27.7881 16.3512 27.7962C16.3835 27.7881 16.4197 27.7841 16.46 27.7841C16.5164 27.7761 16.5728 27.768 16.6292 27.7599C16.7501 27.7519 16.8709 27.7398 16.9918 27.7237C17.0482 27.7156 17.1005 27.7076 17.1489 27.6995C17.3181 27.6673 17.4873 27.6351 17.6565 27.6028C18.3695 27.4699 19.0584 27.2524 19.723 26.9865C20.4482 26.6964 21.1249 26.346 21.7776 25.923C22.4543 25.4758 23.0828 24.9682 23.6629 24.3881C24.2067 23.8443 24.6901 23.2521 25.1252 22.6116C25.524 22.0073 25.8745 21.3789 26.1525 20.7142C26.4546 20.0132 26.6963 19.276 26.8534 18.5147C27.0226 17.7291 27.1072 16.9194 27.1072 16.0855ZM16.3512 27.7962C16.2787 27.7962 16.2062 27.8002 16.1337 27.8083C16.0854 27.8083 16.041 27.8123 16.0008 27.8204C16.1136 27.8123 16.2304 27.8043 16.3512 27.7962Z" fill="#790920"/>
<path d="M3.95166 11.2031C3.63744 11.9524 3.38365 12.7258 3.21445 13.5356C3.15 13.8659 3.0936 14.2043 3.04526 14.5507L0.120605 14.1761C0.177004 13.7571 0.249516 13.3382 0.338142 12.9192C0.543593 11.9282 0.845726 10.9614 1.24454 10.0429C1.31705 9.87369 1.3936 9.70853 1.47416 9.54739L4.13294 10.8043C4.07654 10.9332 4.01612 11.0661 3.95166 11.2031Z" fill="#F5F8F5"/>
<path d="M28.2069 7.67414L25.7295 9.29358C25.2702 8.58054 24.7264 7.91585 24.1342 7.32367C23.8119 7.00139 23.4695 6.69523 23.1069 6.40518L24.956 4.09688C25.3911 4.45944 25.8141 4.83409 26.2129 5.2329C26.9622 5.97011 27.6269 6.79191 28.2069 7.67414Z" fill="#F5F8F5"/>
<path d="M10.7435 4.56821C10.1795 4.80186 9.63568 5.06774 9.11199 5.36584L7.62549 2.81584C8.27004 2.44522 8.94279 2.11892 9.64374 1.83692C10.4414 1.51062 11.2753 1.25683 12.1333 1.07555L12.7497 3.96395C12.0608 4.10897 11.384 4.31442 10.7435 4.56821Z" fill="#F5F8F5"/>
<path d="M26.7686 20.968C27.0828 20.2308 27.3366 19.4573 27.4937 18.6476C27.5662 18.3172 27.6226 17.9789 27.6629 17.6324L30.5996 17.995C30.5432 18.422 30.4707 18.8409 30.3821 19.2518C30.1766 20.2549 29.8745 21.2097 29.4757 22.1282C29.4032 22.2974 29.3266 22.4665 29.2461 22.6357L26.5752 21.3789C26.6397 21.2419 26.7041 21.1049 26.7686 20.968Z" fill="#F5F8F5"/>
<path d="M19.9769 27.6029C20.5409 27.3773 21.0847 27.1114 21.6084 26.8053L23.0949 29.3553C22.4503 29.734 21.7776 30.0643 21.0766 30.3463C20.279 30.6605 19.4451 30.9143 18.5871 31.1077L17.9707 28.2193C18.6596 28.0622 19.3363 27.8688 19.9769 27.6029Z" fill="#F5F8F5"/>
<path fill-rule="evenodd" clip-rule="evenodd" d="M30.721 16.0854C30.721 15.0582 30.6122 14.0551 30.4188 13.0883C30.2375 12.1456 29.9596 11.2392 29.6212 10.3812C29.2345 9.43851 28.7752 8.54419 28.2193 7.69822L28.2072 7.67404L25.7297 9.29348C25.2705 8.58044 24.7266 7.91575 24.1344 7.32357C23.8122 7.00129 23.4697 6.69513 23.1072 6.40508L24.9562 4.09678C24.6098 3.82285 24.2513 3.56503 23.8806 3.32332C23.1072 2.79156 22.2733 2.34441 21.4032 1.96976C20.4847 1.58303 19.5178 1.26881 18.5268 1.06336C17.4996 0.845823 16.4482 0.737053 15.3605 0.737053C14.3332 0.737053 13.3301 0.833736 12.3633 1.0271C12.2827 1.04321 12.2062 1.05933 12.1337 1.07545L12.75 3.96384C12.0612 4.10887 11.3844 4.31432 10.7439 4.56811C10.1799 4.80176 9.63605 5.06764 9.11235 5.36574L7.62585 2.81573C7.40832 2.9527 7.19078 3.08967 6.97324 3.22664C6.07893 3.80673 5.25713 4.48351 4.50783 5.23281C3.7948 5.94584 3.15428 6.7193 2.58626 7.56528C2.16731 8.19371 1.79669 8.85438 1.47441 9.54727L4.13319 10.8041C4.07679 10.9331 4.01636 11.066 3.95191 11.203C3.63769 11.9523 3.3839 12.7257 3.2147 13.5354C3.15025 13.8658 3.09385 14.2042 3.04551 14.5506H3.05759L0.120853 14.176C0.0483414 14.8044 0.0080569 15.4409 0 16.0854C0 17.1127 0.108768 18.1158 0.302134 19.0947C0.483414 20.0253 0.761377 20.9317 1.09977 21.8018C1.4865 22.7445 1.94574 23.6388 2.50167 24.4727L2.51375 24.5089L4.99125 22.8895C5.45049 23.6025 5.99433 24.2672 6.58651 24.8594C6.90879 25.1817 7.25121 25.4878 7.61377 25.7779L5.76471 28.0741C6.11116 28.3561 6.46566 28.618 6.82822 28.8597C7.61377 29.3793 8.44766 29.8386 9.3178 30.2132C10.2363 30.5999 11.191 30.9021 12.1941 31.1196C13.2214 31.3251 14.2728 31.4459 15.3605 31.4459C16.3877 31.4459 17.3908 31.3372 18.3576 31.1559C18.4382 31.1398 18.5148 31.1236 18.5873 31.1075L17.9709 28.2191C18.6598 28.062 19.3366 27.8687 19.9771 27.6028C20.5411 27.3772 21.0849 27.1113 21.6086 26.8051L23.0951 29.3552C23.3126 29.2262 23.5302 29.0933 23.7477 28.9563C24.642 28.3642 25.4638 27.6995 26.2131 26.9502C26.9262 26.2371 27.5667 25.4516 28.1347 24.6177C28.5536 23.9893 28.9243 23.3286 29.2465 22.6357L26.5757 21.3788C26.6401 21.2419 26.7046 21.1049 26.769 20.9679C27.0833 20.2307 27.3371 19.4573 27.4942 18.6475C27.5667 18.3092 27.6231 17.9708 27.6634 17.6324L30.6001 17.9949C30.6726 17.3745 30.7129 16.7381 30.721 16.0854ZM4.96708 22.8653L4.99125 22.8895C4.98319 22.8814 4.97513 22.8734 4.96708 22.8653ZM25.3671 12.0852C25.6088 12.6895 25.8022 13.3179 25.9352 13.9826C26.0681 14.6594 26.1406 15.3724 26.1406 16.0854C26.1406 16.8468 26.0681 17.5961 25.911 18.3092C25.766 19.0101 25.5484 19.6869 25.2705 20.3274C25.0046 20.9438 24.6904 21.5239 24.3278 22.0798C23.929 22.6599 23.4818 23.2158 22.9863 23.7113C22.4546 24.2431 21.8745 24.7144 21.246 25.1132C20.6539 25.4999 20.0254 25.8262 19.3728 26.0921C18.7565 26.3459 18.128 26.5393 17.4633 26.6601C16.7865 26.8051 16.0856 26.8777 15.3605 26.8777C14.5991 26.8777 13.8498 26.7931 13.1368 26.648C12.4358 26.4909 11.759 26.2734 11.1185 26.0075C10.5022 25.7416 9.92207 25.4274 9.37823 25.0528C8.78605 24.666 8.24221 24.2068 7.73462 23.7113C7.21495 23.1795 6.74362 22.5994 6.33272 21.971C5.94599 21.3909 5.61969 20.7625 5.35381 20.0978C5.1121 19.4935 4.91874 18.853 4.7858 18.2004C4.65286 17.5115 4.58035 16.8106 4.58035 16.0854C4.58035 15.3241 4.65286 14.5869 4.80997 13.8617C4.95499 13.1608 5.17253 12.4961 5.45049 11.8435C5.70831 11.2312 6.02253 10.6511 6.39315 10.1032C6.79197 9.51102 7.23912 8.96718 7.73462 8.47168C8.26638 7.93992 8.84647 7.46859 9.47491 7.05769C10.0671 6.67096 10.6955 6.34466 11.3481 6.07878C11.9645 5.83707 12.5929 5.64371 13.2576 5.51077C13.9344 5.37783 14.6354 5.30532 15.3605 5.30532C16.1219 5.30532 16.8591 5.38991 17.5842 5.53494C18.2851 5.67996 18.9619 5.8975 19.6024 6.17546C20.2188 6.44134 20.7989 6.75556 21.3427 7.11812C21.9349 7.51693 22.4787 7.96409 22.9863 8.47168C23.506 8.99135 23.9773 9.57144 24.3882 10.1999C24.775 10.7921 25.1013 11.4205 25.3671 12.0852Z" fill="#971E36"/>
<path d="M6.58643 24.8595C6.90871 25.1818 7.25113 25.488 7.61369 25.778L5.76463 28.0742C5.32956 27.7237 4.90657 27.3491 4.50775 26.9503C3.75846 26.201 3.09377 25.3913 2.51367 24.509L4.99117 22.8896C5.45041 23.6026 5.99425 24.2673 6.58643 24.8595Z" fill="#F5F8F5"/>
<path d="M25.0647 18.1279C24.9197 18.7805 24.7263 19.3969 24.4725 19.9891C24.2308 20.5571 23.9408 21.0888 23.6024 21.5964C23.2398 22.1282 22.8289 22.6358 22.3697 23.095C21.8863 23.5784 21.3424 24.0135 20.7744 24.3881C20.2306 24.7386 19.6505 25.0407 19.0462 25.2945C18.4903 25.5121 17.8981 25.6933 17.2938 25.8142C16.6654 25.9351 16.0249 26.0076 15.3602 26.0076C14.6592 26.0076 13.9704 25.923 13.3178 25.79C12.6772 25.6571 12.0488 25.4516 11.4566 25.1979C10.9007 24.9561 10.3568 24.6661 9.86135 24.3277C9.31751 23.9651 8.80992 23.5542 8.35068 23.095C7.86726 22.6116 7.43219 22.0798 7.05755 21.4997C6.70707 20.9559 6.40494 20.3879 6.16323 19.7715C5.93361 19.2156 5.76441 18.6355 5.64356 18.0312C5.51062 17.4028 5.4502 16.7502 5.4502 16.0855C5.4502 15.3845 5.52271 14.7078 5.65565 14.0431C5.80067 13.4026 5.99404 12.7862 6.24783 12.194C6.48953 11.63 6.77958 11.0942 7.11797 10.5867C7.48053 10.0428 7.89144 9.54733 8.35068 9.08808C8.83409 8.60467 9.37793 8.1696 9.94594 7.79495C10.4898 7.43239 11.0699 7.13026 11.6741 6.88855C12.2301 6.67101 12.8223 6.48973 13.4265 6.36888C13.8938 6.2722 14.3772 6.21177 14.8768 6.1876C14.3853 6.21177 13.9059 6.2722 13.4386 6.36888C12.8464 6.48973 12.2663 6.65893 11.7225 6.87646C11.1182 7.11817 10.5502 7.42031 10.0064 7.77078C9.43836 8.14543 8.91869 8.56841 8.43528 9.05182C7.98812 9.49898 7.57722 10.0066 7.21466 10.5383C6.88835 11.0338 6.5983 11.5656 6.3566 12.1215C6.1028 12.7016 5.90944 13.318 5.7765 13.9585C5.64356 14.6111 5.55896 15.2758 5.55896 15.9767C5.55896 16.6293 5.63148 17.2699 5.75233 17.8862C5.87318 18.4784 6.04238 19.0585 6.272 19.6144C6.51371 20.2187 6.80375 20.7867 7.15423 21.3185C7.52887 21.8865 7.96395 22.4182 8.43528 22.8895C8.89452 23.3488 9.39002 23.7597 9.92177 24.1102C10.4173 24.4486 10.949 24.7386 11.505 24.9803C12.0851 25.222 12.7014 25.4275 13.3419 25.5604C13.9945 25.6933 14.6713 25.7659 15.3602 25.7659C16.0128 25.7659 16.6533 25.7054 17.2697 25.5725C17.8739 25.4637 18.454 25.2824 18.9979 25.0649C19.6021 24.8232 20.1701 24.5211 20.7019 24.1706C21.2699 23.796 21.8017 23.373 22.2851 22.8895C22.7322 22.4424 23.1431 21.9469 23.5057 21.4031C23.836 20.9116 24.1221 20.3839 24.3638 19.8199C24.6176 19.2398 24.8109 18.6234 24.9439 17.995C25.0768 17.3424 25.1493 16.6656 25.1493 15.9767C25.1493 15.312 25.0889 14.6715 24.968 14.0552C24.8472 13.463 24.678 12.8829 24.4484 12.327C24.2067 11.7348 23.9045 11.1547 23.5661 10.6229C23.1915 10.0549 22.7564 9.52315 22.2851 9.05182C21.8258 8.59258 21.3303 8.18168 20.7986 7.83121C20.2991 7.49282 19.7713 7.2068 19.2154 6.97315C18.6232 6.71935 18.019 6.52599 17.3784 6.39305C16.7258 6.24802 16.049 6.17551 15.3602 6.17551C16.0611 6.17551 16.7379 6.24802 17.4026 6.39305C18.0431 6.52599 18.6716 6.71935 19.2637 6.97315C19.8277 7.21485 20.3595 7.5049 20.859 7.84329C21.4029 8.20585 21.9104 8.62884 22.3697 9.08808C22.8531 9.5715 23.2882 10.1033 23.6628 10.6833C24.0133 11.2151 24.3154 11.7952 24.5571 12.3995C24.7868 12.9675 24.9559 13.5476 25.0768 14.1518C25.2097 14.7803 25.2702 15.4208 25.2702 16.0855C25.2702 16.7864 25.1977 17.4753 25.0647 18.1279Z" fill="#73EA8A"/>
<path fill-rule="evenodd" clip-rule="evenodd" d="M7.60142 23.8443C8.12109 24.364 8.67702 24.8232 9.2692 25.222C9.83721 25.5967 10.4294 25.9109 11.0457 26.1768C11.7104 26.4548 12.3993 26.6723 13.1003 26.8173C13.8495 26.9744 14.5988 27.059 15.3602 27.059C16.0732 27.059 16.7984 26.9865 17.4993 26.8536C18.164 26.7206 18.8166 26.5273 19.4451 26.2735C20.0977 26.0076 20.7382 25.6813 21.3545 25.2825C21.983 24.8716 22.5752 24.4002 23.119 23.8443C23.6387 23.3246 24.0979 22.7687 24.4847 22.1765C24.8714 21.6206 25.1856 21.0163 25.4515 20.4121C25.7294 19.7353 25.947 19.0464 26.092 18.3455C26.2491 17.6083 26.3337 16.8469 26.3337 16.0855C26.3337 15.3725 26.2612 14.6474 26.1162 13.9464C25.9832 13.2817 25.802 12.6412 25.5482 12.0128C25.2823 11.3481 24.956 10.7075 24.5572 10.0912C24.1463 9.47484 23.6628 8.88266 23.119 8.32673C22.5993 7.80706 22.0434 7.3599 21.4512 6.96109C20.8832 6.58644 20.291 6.26014 19.6747 6.00635C19.01 5.7163 18.3211 5.49876 17.6202 5.35374C16.8709 5.19663 16.1216 5.12411 15.3602 5.12411C14.6472 5.12411 13.9221 5.19663 13.209 5.32957C12.5564 5.46251 11.9038 5.65587 11.2754 5.90966C10.6228 6.16345 9.97015 6.50184 9.36588 6.90066C8.73744 7.29948 8.14526 7.78289 7.60142 8.32673C7.08175 8.8464 6.62251 9.41441 6.23578 9.99451C5.84905 10.5625 5.53483 11.1547 5.26895 11.7711C4.99099 12.4358 4.77345 13.1246 4.62843 13.8256C4.47132 14.5749 4.38672 15.3362 4.38672 16.0855C4.38672 16.8106 4.45923 17.5237 4.60425 18.2367C4.73719 18.8893 4.91847 19.5419 5.17227 20.1704C5.43814 20.8351 5.76445 21.4756 6.16326 22.0799C6.57417 22.7083 7.04549 23.3005 7.60142 23.8443ZM9.7647 24.4848C9.22086 24.1223 8.70119 23.6993 8.22986 23.228C7.72227 22.7204 7.2872 22.1765 6.91256 21.5964C6.55 21.0405 6.23578 20.4483 5.99407 19.8441C5.76445 19.264 5.59525 18.6718 5.4744 18.0554C5.34146 17.4149 5.28103 16.7502 5.28103 16.0855C5.28103 15.3967 5.35355 14.6957 5.49857 14.0068C5.63151 13.3663 5.82487 12.7379 6.09075 12.1215C6.33246 11.5535 6.62251 11.0097 6.97298 10.49C7.33554 9.94617 7.74644 9.43858 8.22986 8.95517C8.72536 8.44759 9.28128 8.01251 9.8493 7.63787C10.4052 7.27531 10.9974 6.97317 11.6138 6.73147C12.1818 6.50184 12.786 6.32057 13.3903 6.19971C14.0429 6.06677 14.6955 6.00635 15.3602 6.00635C16.0612 6.00635 16.75 6.07886 17.4389 6.22388C18.0794 6.35682 18.7199 6.56227 19.3242 6.81606C19.8922 7.05777 20.4361 7.34782 20.9557 7.69829C21.4996 8.06085 22.0192 8.48384 22.4906 8.95517C22.9982 9.46276 23.4332 10.0066 23.8079 10.5746C24.1704 11.1426 24.4847 11.7348 24.7264 12.3391C24.956 12.9192 25.1252 13.5113 25.246 14.1156C25.379 14.7682 25.4394 15.4329 25.4394 16.0855C25.4394 16.7865 25.3669 17.4874 25.2219 18.1642C25.0889 18.8168 24.8956 19.4453 24.6297 20.0616C24.388 20.6175 24.0979 21.1735 23.7474 21.6931C23.3849 22.2249 22.974 22.7446 22.4906 23.228C21.983 23.7235 21.4391 24.1585 20.8711 24.5332C20.3031 24.9078 19.723 25.21 19.1067 25.4517C18.5266 25.6853 17.9344 25.8626 17.3301 25.9834C16.6775 26.1043 16.0249 26.1768 15.3602 26.1768C14.6593 26.1768 13.9704 26.0922 13.2815 25.9593C12.641 25.8142 12.0005 25.6209 11.3962 25.355C10.8282 25.1254 10.2844 24.8232 9.7647 24.4848Z" fill="url(#paint0_linear_44_4915)"/>
<path d="M23.6023 21.5965L24.3275 22.0799C23.9286 22.66 23.4815 23.2159 22.986 23.7114L22.3696 23.0951C22.8289 22.6358 23.2398 22.1282 23.6023 21.5965Z" fill="#790920"/>
<path d="M24.4727 19.9891L25.2703 20.3275C25.0044 20.9439 24.6902 21.524 24.3277 22.0799L23.6025 21.5965C23.9409 21.0889 24.231 20.5571 24.4727 19.9891Z" fill="#DDE3DF"/>
<path d="M25.0648 18.128L25.9108 18.3093C25.7658 19.0102 25.5483 19.687 25.2703 20.3275L24.4727 19.9891C24.7264 19.3969 24.9198 18.7806 25.0648 18.128Z" fill="#790920"/>
<path d="M22.3696 9.08808L22.986 8.47173C23.5057 8.9914 23.977 9.5715 24.3879 10.1999L23.6628 10.6833C23.2881 10.1033 22.853 9.5715 22.3696 9.08808Z" fill="#DDE3DF"/>
<path d="M6.16337 19.7716L5.35366 20.0979C5.11195 19.4936 4.91858 18.8531 4.78564 18.2005L5.6437 18.0313C5.76456 18.6356 5.93375 19.2157 6.16337 19.7716Z" fill="#DDE3DF"/>
<path d="M5.65554 14.0432L4.80957 13.8619C4.95459 13.1609 5.17213 12.4962 5.45009 11.8436L6.24773 12.1941C5.99393 12.7863 5.80057 13.4026 5.65554 14.0432Z" fill="#790920"/>
<path d="M5.6431 18.0312L4.78504 18.2004C4.6521 17.5116 4.57959 16.8106 4.57959 16.0855H5.44973C5.44973 16.7502 5.51016 17.4028 5.6431 18.0312Z" fill="#790920"/>
<path d="M5.44973 16.0855H4.57959C4.57959 15.3241 4.6521 14.5869 4.80921 13.8618L5.65519 14.0431C5.52225 14.7078 5.44973 15.3846 5.44973 16.0855Z" fill="#DDE3DF"/>
<path d="M6.24783 12.1941L5.4502 11.8436C5.70802 11.2313 6.02224 10.6512 6.39285 10.1033L7.11797 10.5867C6.77958 11.0943 6.48953 11.6301 6.24783 12.1941Z" fill="#DDE3DF"/>
<path d="M8.35024 9.08807L7.73389 8.47172C8.26564 7.93997 8.84574 7.46864 9.47418 7.05774L9.94551 7.79494C9.37749 8.16959 8.83365 8.60466 8.35024 9.08807Z" fill="#DDE3DF"/>
<path d="M7.1177 10.5866L6.39258 10.1032C6.79139 9.51101 7.23855 8.96717 7.73405 8.47167L8.3504 9.08803C7.89116 9.54727 7.48026 10.0428 7.1177 10.5866Z" fill="#790920"/>
<path d="M9.94594 7.79498L9.47461 7.05778C10.0668 6.67104 10.6952 6.34474 11.3478 6.07886L11.6741 6.88858C11.0699 7.13029 10.4898 7.43242 9.94594 7.79498Z" fill="#790920"/>
<path d="M7.05755 21.4998L6.33243 21.9711C5.9457 21.391 5.61939 20.7626 5.35352 20.0979L6.16323 19.7716C6.40494 20.388 6.70707 20.956 7.05755 21.4998Z" fill="#790920"/>
<path d="M15.3599 26.0076V26.8777C14.5986 26.8777 13.8493 26.7931 13.1362 26.6481L13.3175 25.7901C13.9701 25.923 14.659 26.0076 15.3599 26.0076Z" fill="#DDE3DF"/>
<path d="M11.4561 25.1979L11.1177 26.0076C10.5014 25.7417 9.92128 25.4275 9.37744 25.0528L9.86086 24.3277C10.3564 24.6661 10.9002 24.9561 11.4561 25.1979Z" fill="#DDE3DF"/>
<path d="M13.3177 25.7901L13.1364 26.6481C12.4355 26.491 11.7587 26.2735 11.1182 26.0076L11.4566 25.1979C12.0487 25.4517 12.6772 25.6571 13.3177 25.7901Z" fill="#790920"/>
<path d="M8.35028 23.0951L7.73393 23.7114C7.21426 23.1797 6.74293 22.5996 6.33203 21.9711L7.05715 21.4998C7.4318 22.0799 7.86687 22.6117 8.35028 23.0951Z" fill="#DDE3DF"/>
<path d="M9.86091 24.3277L9.37749 25.0529C8.78531 24.6661 8.24147 24.2069 7.73389 23.7114L8.35024 23.095C8.80948 23.5543 9.31707 23.9652 9.86091 24.3277Z" fill="#790920"/>
<path d="M25.0645 18.1279C25.1974 17.4753 25.2699 16.7864 25.2699 16.0855H26.1401C26.1401 16.8469 26.0675 17.5962 25.9104 18.3092L25.0645 18.1279Z" fill="#DDE3DF"/>
<path d="M25.0767 14.1519L25.9347 13.9827C26.0677 14.6594 26.1402 15.3725 26.1402 16.0855H25.27C25.27 15.4208 25.2096 14.7803 25.0767 14.1519Z" fill="#790920"/>
<path d="M22.3697 23.095L22.986 23.7114C22.4543 24.2431 21.8742 24.7145 21.2457 25.1133L20.7744 24.3882C21.3424 24.0135 21.8863 23.5784 22.3697 23.095Z" fill="#DDE3DF"/>
<path d="M24.5571 12.3995L25.3668 12.0853C25.6086 12.6895 25.8019 13.318 25.9349 13.9827L25.0768 14.1519C24.9559 13.5476 24.7868 12.9675 24.5571 12.3995Z" fill="#DDE3DF"/>
<path d="M11.674 6.88855L11.3477 6.07883C11.964 5.83712 12.5924 5.64376 13.2571 5.51082L13.4263 6.36888C12.8221 6.48973 12.2299 6.67101 11.674 6.88855Z" fill="#DDE3DF"/>
<path d="M20.7746 24.3882L21.2459 25.1133C20.6537 25.5 20.0253 25.8263 19.3727 26.0922L19.0464 25.2946C19.6507 25.0408 20.2307 24.7387 20.7746 24.3882Z" fill="#790920"/>
<path d="M19.0463 25.2946L19.3726 26.0922C18.7563 26.346 18.1278 26.5394 17.4631 26.6602L17.2939 25.8142C17.8982 25.6934 18.4904 25.5121 19.0463 25.2946Z" fill="#DDE3DF"/>
<path d="M23.6626 10.6834L24.3877 10.1999C24.7744 10.7921 25.1008 11.4206 25.3666 12.0853L24.5569 12.3995C24.3152 11.7952 24.0131 11.2151 23.6626 10.6834Z" fill="#790920"/>
<path d="M15.3604 6.17559V5.30545C16.1217 5.30545 16.8589 5.39004 17.5841 5.53507L17.4028 6.39313C16.7381 6.2481 16.0613 6.17559 15.3604 6.17559Z" fill="#DDE3DF"/>
<path d="M17.294 25.8142L17.4632 26.6602C16.7864 26.8052 16.0855 26.8777 15.3604 26.8777V26.0076C16.025 26.0076 16.6656 25.9351 17.294 25.8142Z" fill="#790920"/>
<path d="M13.4265 6.3689L13.2573 5.51084C13.9341 5.3779 14.6351 5.30539 15.3602 5.30539V6.17553C14.6955 6.17553 14.0429 6.24804 13.4265 6.3689Z" fill="#790920"/>
<path d="M17.4028 6.39305L17.5841 5.53499C18.2851 5.68001 18.9618 5.89755 19.6024 6.17551L19.264 6.97314C18.6718 6.71935 18.0434 6.52599 17.4028 6.39305Z" fill="#790920"/>
<path d="M19.2637 6.97318L19.6021 6.17554C20.2184 6.44142 20.7985 6.75564 21.3424 7.1182L20.8589 7.84332C20.3594 7.50493 19.8277 7.21489 19.2637 6.97318Z" fill="#DDE3DF"/>
<path d="M20.8589 7.84328L21.3423 7.11816C21.9345 7.51698 22.4783 7.96414 22.9859 8.47172L22.3696 9.08807C21.9103 8.62883 21.4027 8.20584 20.8589 7.84328Z" fill="#790920"/>
<path d="M1.66753 9.64396C1.59502 9.8051 1.52251 9.97026 1.44999 10.1395C1.06326 11.0338 0.761129 11.9885 0.555678 12.9674C0.467052 13.3783 0.398569 13.7933 0.350227 14.2122L0.120605 14.176C0.177004 13.757 0.249516 13.338 0.338142 12.9191C0.543592 11.9281 0.845726 10.9613 1.24454 10.0428C1.31705 9.87358 1.3936 9.70841 1.47416 9.54728L1.66753 9.64396Z" fill="url(#paint1_linear_44_4915)"/>
<path d="M26.0558 5.39C25.661 4.99521 25.2461 4.62459 24.811 4.27815L24.9561 4.09687C25.3911 4.45943 25.8141 4.83407 26.2129 5.23289C26.9622 5.9701 27.6269 6.7919 28.207 7.67413L28.0137 7.79498C27.4456 6.92484 26.793 6.11512 26.0558 5.39Z" fill="url(#paint2_linear_44_4915)"/>
<path d="M9.72834 2.04239C9.0435 2.31632 8.38284 2.6386 7.74634 3.00922L7.62549 2.81585C8.27004 2.44523 8.94279 2.11893 9.64374 1.83694C10.4414 1.51063 11.2753 1.25684 12.1333 1.07556L12.1817 1.2931C11.3357 1.47438 10.5139 1.72817 9.72834 2.04239Z" fill="url(#paint3_linear_44_4915)"/>
<path d="M29.2703 22.0436C29.657 21.1372 29.9591 20.1945 30.1646 19.2035C30.2532 18.8007 30.3217 18.3898 30.37 17.9708L30.5997 17.995C30.5433 18.422 30.4707 18.8409 30.3821 19.2518C30.1767 20.2549 29.8745 21.2097 29.4757 22.1282C29.4032 22.2974 29.3267 22.4665 29.2461 22.6357L29.0527 22.5391C29.1252 22.3779 29.1978 22.2128 29.2703 22.0436Z" fill="url(#paint4_linear_44_4915)"/>
<path d="M20.9914 30.1408C21.6762 29.8588 22.3369 29.5325 22.9734 29.1619L23.0943 29.3553C22.4497 29.734 21.777 30.0643 21.076 30.3463C20.2784 30.6605 19.4445 30.9143 18.5864 31.1077L18.5381 30.878C19.3841 30.7088 20.2059 30.4551 20.9914 30.1408Z" fill="url(#paint5_linear_44_4915)"/>
<path d="M0.350475 14.2123C0.269906 14.8246 0.229622 15.4491 0.229622 16.0855C0.229622 17.1007 0.326304 18.0917 0.51967 19.0465C0.70095 19.977 0.966828 20.8593 1.30522 21.7173C1.67986 22.6479 2.13911 23.5301 2.68295 24.3519L2.70712 24.3882L2.51375 24.509L2.50167 24.4728C1.94574 23.6389 1.4865 22.7446 1.09977 21.8019C0.761377 20.9318 0.483414 20.0254 0.302134 19.0948C0.108768 18.1159 0 17.1128 0 16.0855C0.0080569 15.441 0.0483414 14.8045 0.120853 14.1761L0.350475 14.2123Z" fill="url(#paint6_linear_44_4915)"/>
<path d="M7.74642 3.00913C7.52082 3.13804 7.30329 3.27097 7.09381 3.40794C6.21158 3.98804 5.40186 4.65273 4.66465 5.38994C3.9637 6.09089 3.32318 6.86435 2.77934 7.68615C2.35635 8.30251 1.99379 8.95512 1.66749 9.64398L1.47412 9.5473C1.7964 8.85441 2.16701 8.19374 2.58597 7.5653C3.15398 6.71933 3.79451 5.94587 4.50754 5.23283C5.25684 4.48354 6.07864 3.80676 6.97295 3.22666C7.19049 3.08969 7.40803 2.95273 7.62556 2.81576L7.74642 3.00913Z" fill="url(#paint7_linear_44_4915)"/>
<path d="M24.8108 4.27814C24.4724 4.0042 24.122 3.74638 23.7594 3.50467C22.998 2.985 22.1762 2.53785 21.3182 2.17529C20.4118 1.78855 19.457 1.48642 18.4781 1.28097C17.475 1.07552 16.4236 0.954669 15.3601 0.954669C14.3449 0.954669 13.3539 1.06344 12.3992 1.24472C12.3267 1.26083 12.2542 1.27694 12.1816 1.29306L12.1333 1.07552C12.2058 1.05941 12.2824 1.04329 12.3629 1.02718C13.3298 0.833812 14.3328 0.73713 15.3601 0.73713C16.4478 0.73713 17.4992 0.8459 18.5265 1.06344C19.5174 1.26889 20.4843 1.58311 21.4028 1.96984C22.2729 2.34448 23.1068 2.79164 23.8803 3.32339C24.2509 3.5651 24.6094 3.82292 24.9559 4.09686L24.8108 4.27814Z" fill="url(#paint8_linear_44_4915)"/>
<path d="M30.5999 17.995L30.3703 17.9708C30.4509 17.3585 30.4912 16.7301 30.4912 16.0855C30.4912 15.0824 30.3945 14.0914 30.2011 13.1367C30.0198 12.2061 29.754 11.3118 29.4035 10.4658C29.0409 9.53525 28.5696 8.65302 28.0378 7.81913L28.0137 7.79496L28.207 7.67411L28.2191 7.69828C28.7751 8.54425 29.2343 9.43857 29.621 10.3812C29.9594 11.2393 30.2374 12.1457 30.4187 13.0883C30.612 14.0552 30.7208 15.0583 30.7208 16.0855C30.7127 16.7381 30.6725 17.3746 30.5999 17.995Z" fill="url(#paint9_linear_44_4915)"/>
<path d="M22.9736 29.1619C23.1992 29.0329 23.4168 28.9 23.6262 28.763C24.5085 28.195 25.3182 27.5303 26.0554 26.7931C26.7563 26.0922 27.3969 25.3187 27.9407 24.4969C28.3637 23.8685 28.7263 23.2159 29.0526 22.5391L29.2459 22.6358C28.9237 23.3287 28.553 23.9893 28.1341 24.6178C27.5661 25.4517 26.9255 26.2372 26.2125 26.9502C25.4632 27.6995 24.6414 28.3642 23.7471 28.9564C23.5296 29.0934 23.312 29.2263 23.0945 29.3552L22.9736 29.1619Z" fill="url(#paint10_linear_44_4915)"/>
<path d="M5.90918 27.905C6.24757 28.1789 6.59805 28.4367 6.96061 28.6784C7.72199 29.186 8.54379 29.6332 9.40185 30.0078C10.3083 30.3946 11.2509 30.6967 12.2419 30.9021C13.245 31.1076 14.2843 31.2164 15.3599 31.2164C16.3751 31.2164 17.3661 31.1197 18.3208 30.9263C18.3933 30.9183 18.4659 30.9021 18.5384 30.878L18.5867 31.1076C18.5142 31.1237 18.4377 31.1398 18.3571 31.1559C17.3903 31.3372 16.3872 31.446 15.3599 31.446C14.2722 31.446 13.2208 31.3251 12.1936 31.1197C11.1905 30.9021 10.2357 30.6 9.31725 30.2133C8.44711 29.8386 7.61322 29.3794 6.82767 28.8597C6.46511 28.618 6.11061 28.3562 5.76416 28.0742L5.90918 27.905Z" fill="url(#paint11_linear_44_4915)"/>
<path d="M4.66486 26.7932C5.05965 27.188 5.47458 27.5586 5.90966 27.905L5.76463 28.0742C5.32956 27.7237 4.90657 27.3491 4.50775 26.9503C3.75846 26.201 3.09377 25.3913 2.51367 24.509L2.70704 24.3882C3.27505 25.2583 3.92766 26.056 4.66486 26.7932Z" fill="url(#paint12_linear_44_4915)"/>
<path d="M17.9946 3.15422C17.9946 3.49261 18.2726 3.77057 18.6231 3.77057C18.9735 3.77057 19.2515 3.49261 19.2515 3.15422C19.2515 2.80374 18.9735 2.52578 18.6231 2.52578C18.2726 2.52578 17.9946 2.80374 17.9946 3.15422Z" fill="#F7F8F7"/>
<path d="M11.6499 29.0289C11.6499 29.3794 11.9279 29.6573 12.2783 29.6573C12.6167 29.6573 12.9068 29.3794 12.9068 29.0289C12.9068 28.6905 12.6167 28.4005 12.2783 28.4005C11.9279 28.4005 11.6499 28.6905 11.6499 29.0289Z" fill="#F7F8F7"/>
<path d="M1.63135 18.4421C1.63135 18.7805 1.9214 19.0585 2.25979 19.0585C2.61026 19.0585 2.88822 18.7805 2.88822 18.4421C2.88822 18.0916 2.61026 17.8137 2.25979 17.8137C1.9214 17.8137 1.63135 18.0916 1.63135 18.4421Z" fill="#F7F8F7"/>
<path d="M5.12402 6.86442C5.12402 7.20281 5.40199 7.48077 5.75246 7.48077C6.09085 7.48077 6.36881 7.20281 6.36881 6.86442C6.36881 6.51395 6.09085 6.23598 5.75246 6.23598C5.40199 6.23598 5.12402 6.51395 5.12402 6.86442Z" fill="#F7F8F7"/>
<path d="M27.6509 13.0279C27.6509 13.3783 27.9288 13.6563 28.2793 13.6563C28.6298 13.6563 28.9078 13.3783 28.9078 13.0279C28.9078 12.6774 28.6298 12.3994 28.2793 12.3994C27.9288 12.3994 27.6509 12.6774 27.6509 13.0279Z" fill="#F7F8F7"/>
<path d="M24.5693 24.9682C24.5693 25.3066 24.8473 25.5846 25.1978 25.5846C25.5362 25.5846 25.8262 25.3066 25.8262 24.9682C25.8262 24.6178 25.5362 24.3398 25.1978 24.3398C24.8473 24.3398 24.5693 24.6178 24.5693 24.9682Z" fill="#F7F8F7"/>
<path fill-rule="evenodd" clip-rule="evenodd" d="M22.3697 9.07594C21.8984 8.61669 21.3908 8.20579 20.859 7.84323C20.3514 7.50484 19.8076 7.21479 19.2637 6.97309C18.6595 6.7193 18.031 6.52593 17.4026 6.39299C16.7258 6.26005 16.049 6.18754 15.3602 6.18754C14.7076 6.18754 14.067 6.24797 13.4265 6.36882C12.8223 6.48967 12.2422 6.65887 11.6741 6.88849C11.0699 7.1302 10.5019 7.43233 9.94594 7.7828C9.37793 8.15745 8.84618 8.58044 8.35068 9.07594C8.22177 9.20485 8.10091 9.33376 7.98812 9.46267C7.89949 9.56741 7.81087 9.66812 7.72224 9.7648C7.69807 9.80509 7.66987 9.84134 7.63764 9.87357C7.57319 9.9622 7.50873 10.0468 7.44428 10.1274C7.42011 10.1596 7.39191 10.1958 7.35968 10.2361C7.27911 10.3489 7.19854 10.4658 7.11797 10.5866C6.7675 11.0942 6.48953 11.638 6.24783 12.194C5.99404 12.7982 5.80067 13.4146 5.66773 14.043C5.52271 14.7198 5.4502 15.4087 5.4502 16.0854C5.4502 16.738 5.51062 17.3907 5.64356 18.0312C5.75636 18.6274 5.92958 19.2075 6.16323 19.7715C6.39285 20.3757 6.69499 20.9558 7.05755 21.4997C7.42011 22.0677 7.85518 22.5994 8.35068 23.0949C8.82201 23.5663 9.32959 23.9772 9.86135 24.3397C10.3689 24.6781 10.9007 24.9682 11.4566 25.1978C12.0609 25.4516 12.6893 25.657 13.3178 25.79C13.9945 25.9229 14.6713 25.9954 15.3602 25.9954C16.0128 25.9954 16.6533 25.935 17.2938 25.8021C17.886 25.6933 18.4782 25.512 19.0462 25.2945C19.6384 25.0528 20.2185 24.7506 20.7744 24.3881C20.9033 24.3075 21.0282 24.2229 21.1491 24.1343C21.1893 24.1101 21.2256 24.0819 21.2578 24.0497C21.3465 23.9852 21.4351 23.9167 21.5237 23.8442C21.564 23.8201 21.6043 23.7919 21.6446 23.7596C21.7493 23.671 21.854 23.5784 21.9588 23.4817L21.995 23.4575C22.1239 23.3447 22.2488 23.2238 22.3697 23.0949C22.4825 22.9821 22.5953 22.8653 22.7081 22.7445L22.7322 22.7082C22.8209 22.6115 22.9095 22.5108 22.9981 22.4061C23.0223 22.3738 23.0505 22.3376 23.0827 22.2973C23.1472 22.2167 23.2116 22.1362 23.2761 22.0556C23.3003 22.0153 23.3285 21.9791 23.3607 21.9468C23.4412 21.826 23.5218 21.7092 23.6024 21.5964C23.9408 21.0767 24.2308 20.5449 24.4725 19.989C24.7263 19.3847 24.9197 18.7684 25.0526 18.1279C25.1977 17.4632 25.2702 16.7743 25.2702 16.0854C25.2702 15.4449 25.1977 14.7923 25.0768 14.1518C24.9559 13.5596 24.7868 12.9674 24.5571 12.3994C24.3275 11.8072 24.0254 11.2271 23.6628 10.6712C23.3003 10.1153 22.8652 9.57144 22.3697 9.07594Z" fill="url(#paint13_linear_44_4915)"/>
<path fill-rule="evenodd" clip-rule="evenodd" d="M25.0648 16.0855C25.0648 15.445 24.9923 14.8045 24.8715 14.1881C24.7506 13.5959 24.5814 13.0279 24.3639 12.4841C24.1222 11.8919 23.8321 11.3239 23.4816 10.7921C23.107 10.2362 22.684 9.70444 22.2127 9.23311C21.7655 8.78596 21.27 8.37505 20.7383 8.02458C20.2549 7.69827 19.7231 7.40823 19.1793 7.1786C18.5992 6.92481 17.9949 6.73145 17.3544 6.59851C16.7139 6.46557 16.0492 6.39306 15.3603 6.39306C15.183 6.39306 15.0098 6.39709 14.8406 6.40514C14.8245 6.40514 14.8084 6.40514 14.7923 6.40514C14.6956 6.4132 14.5989 6.42126 14.5022 6.42931C14.4861 6.42931 14.47 6.42931 14.4539 6.42931C14.4056 6.43737 14.3572 6.44543 14.3089 6.45348C14.2122 6.46154 14.1115 6.47363 14.0067 6.48974C13.9665 6.48974 13.9221 6.49377 13.8738 6.50183C13.7368 6.526 13.5999 6.55017 13.4629 6.57434C12.8707 6.69519 12.3027 6.86439 11.7589 7.08192C11.1546 7.32363 10.5987 7.62576 10.0669 7.96415C9.4989 8.3388 8.97923 8.76179 8.5079 9.23311C8.06075 9.68027 7.64984 10.1758 7.29937 10.7075C6.96098 11.203 6.68302 11.7227 6.44131 12.2786C6.1996 12.8466 6.00624 13.463 5.8733 14.0914C5.72827 14.7319 5.65576 15.4087 5.65576 16.0855C5.65576 16.7381 5.72827 17.3666 5.84913 17.9829C5.96998 18.5751 6.13918 19.1431 6.35671 19.699C6.59842 20.2912 6.88847 20.8592 7.23894 21.3789C7.6015 21.9469 8.02449 22.4666 8.5079 22.95C8.95506 23.3971 9.45056 23.796 9.98232 24.1585C10.4657 24.4848 10.9975 24.7749 11.5413 25.0045C12.1214 25.2583 12.7257 25.4516 13.3662 25.5846C13.5032 25.6088 13.6482 25.6329 13.8013 25.6571C13.8416 25.6652 13.8859 25.6732 13.9342 25.6813C14.039 25.6974 14.1477 25.7135 14.2605 25.7296C14.3089 25.7296 14.3572 25.7336 14.4056 25.7417C14.5425 25.7578 14.6795 25.7699 14.8165 25.778H14.8527C15.0219 25.786 15.1911 25.79 15.3603 25.79C15.5214 25.79 15.6826 25.786 15.8437 25.778H15.88C15.9202 25.7699 15.9605 25.7659 16.0008 25.7659C16.0894 25.7578 16.174 25.7498 16.2546 25.7417C16.2224 25.7498 16.1861 25.7538 16.1458 25.7538C16.1861 25.7538 16.2264 25.7498 16.2667 25.7417C16.315 25.7417 16.3634 25.7377 16.4117 25.7296C16.5084 25.7216 16.6091 25.7095 16.7139 25.6934C16.7541 25.6853 16.7944 25.6772 16.8347 25.6692C16.9797 25.6531 17.1207 25.6289 17.2577 25.5967C17.8499 25.4879 18.4179 25.3066 18.9617 25.0891C19.566 24.8474 20.1219 24.5573 20.6537 24.2069C21.2217 23.8443 21.7414 23.4213 22.2127 22.95C22.6598 22.4907 23.0707 22.0073 23.4212 21.4756C23.7516 20.9841 24.0376 20.4604 24.2793 19.9045C24.521 19.3244 24.7144 18.7201 24.8473 18.0917C24.9923 17.4391 25.0648 16.7744 25.0648 16.0855ZM16.1458 25.7538C16.0975 25.7618 16.0492 25.7659 16.0008 25.7659C15.9686 25.7659 15.9323 25.7699 15.8921 25.778C15.9726 25.7699 16.0572 25.7618 16.1458 25.7538ZM14.466 6.42931C14.4821 6.42931 14.4982 6.42931 14.5143 6.42931C14.5063 6.42931 14.5022 6.42931 14.5022 6.42931C14.4861 6.42931 14.474 6.42931 14.466 6.42931ZM14.8285 6.40514C14.8205 6.40514 14.8084 6.40514 14.7923 6.40514C14.7601 6.40514 14.7278 6.40917 14.6956 6.41723C14.7439 6.40917 14.7883 6.40514 14.8285 6.40514Z" fill="#971E36"/>
<defs>
<linearGradient id="paint0_linear_44_4915" x1="4.35868" y1="27.0587" x2="26.2964" y2="27.0587" gradientUnits="userSpaceOnUse">
<stop stop-color="#B30047"/>
<stop offset="1" stop-color="#790920"/>
</linearGradient>
<linearGradient id="paint1_linear_44_4915" x1="0.857086" y1="9.36177" x2="1.76143" y2="9.62972" gradientUnits="userSpaceOnUse">
<stop stop-color="#908D8D"/>
<stop offset="1" stop-color="white"/>
</linearGradient>
<linearGradient id="paint2_linear_44_4915" x1="29.097" y1="6.77583" x2="27.7951" y2="8.07766" gradientUnits="userSpaceOnUse">
<stop stop-color="#908D8D"/>
<stop offset="1" stop-color="white"/>
</linearGradient>
<linearGradient id="paint3_linear_44_4915" x1="11.9286" y1="0.553595" x2="12.2744" y2="1.44925" gradientUnits="userSpaceOnUse">
<stop stop-color="#908D8D"/>
<stop offset="1" stop-color="white"/>
</linearGradient>
<linearGradient id="paint4_linear_44_4915" x1="30.3442" y1="22.8884" x2="28.7101" y2="22.5113" gradientUnits="userSpaceOnUse">
<stop stop-color="#908D8D"/>
<stop offset="1" stop-color="white"/>
</linearGradient>
<linearGradient id="paint5_linear_44_4915" x1="19.0988" y1="32.3383" x2="18.4629" y2="30.7988" gradientUnits="userSpaceOnUse">
<stop stop-color="#908D8D"/>
<stop offset="1" stop-color="white"/>
</linearGradient>
<linearGradient id="paint6_linear_44_4915" x1="1.81848" y1="24.7505" x2="0.273111" y2="25.2858" gradientUnits="userSpaceOnUse">
<stop stop-color="#B2004D"/>
<stop offset="1" stop-color="#790920"/>
</linearGradient>
<linearGradient id="paint7_linear_44_4915" x1="1.48705" y1="9.55951" x2="0.314755" y2="8.44405" gradientUnits="userSpaceOnUse">
<stop stop-color="#A80042"/>
<stop offset="1" stop-color="#790920"/>
</linearGradient>
<linearGradient id="paint8_linear_44_4915" x1="11.9659" y1="1.72547" x2="12.7255" y2="-1.26806" gradientUnits="userSpaceOnUse">
<stop stop-color="#7C0024"/>
<stop offset="1" stop-color="#650519"/>
</linearGradient>
<linearGradient id="paint9_linear_44_4915" x1="24.0963" y1="13.7779" x2="26.5545" y2="10.0236" gradientUnits="userSpaceOnUse">
<stop stop-color="#AB1D4B"/>
<stop offset="1" stop-color="#790920"/>
</linearGradient>
<linearGradient id="paint10_linear_44_4915" x1="27.5935" y1="21.6839" x2="29.3817" y2="22.7121" gradientUnits="userSpaceOnUse">
<stop stop-color="#B2004D"/>
<stop offset="1" stop-color="#790920"/>
</linearGradient>
<linearGradient id="paint11_linear_44_4915" x1="18.0256" y1="33.0994" x2="17.7231" y2="34.172" gradientUnits="userSpaceOnUse">
<stop stop-color="#B2004D"/>
<stop offset="1" stop-color="#790920"/>
</linearGradient>
<linearGradient id="paint12_linear_44_4915" x1="1.30429" y1="25.6326" x2="2.80795" y2="24.2398" gradientUnits="userSpaceOnUse">
<stop stop-color="#908D8D"/>
<stop offset="1" stop-color="white"/>
</linearGradient>
<linearGradient id="paint13_linear_44_4915" x1="5.41334" y1="25.9974" x2="25.2288" y2="25.9974" gradientUnits="userSpaceOnUse">
<stop stop-color="#B30047"/>
<stop offset="1" stop-color="#790920"/>
</linearGradient>
</defs>
</svg>
