<svg width="37" height="37" viewBox="0 0 37 37" fill="none" xmlns="http://www.w3.org/2000/svg">
<rect x="0.70459" y="0.973572" width="35.5347" height="35.5347" rx="17.7674" fill="#FF5353"/>
<mask id="mask0_341_4316" style="mask-type:alpha" maskUnits="userSpaceOnUse" x="0" y="0" width="37" height="37">
<rect x="0.70459" y="0.973572" width="35.5347" height="35.5347" rx="17.7674" fill="url(#paint0_linear_341_4316)"/>
</mask>
<g mask="url(#mask0_341_4316)">
<ellipse cx="18.4719" cy="1.21697" rx="6.08471" ry="4.62438" fill="white"/>
</g>
<mask id="mask1_341_4316" style="mask-type:alpha" maskUnits="userSpaceOnUse" x="0" y="0" width="37" height="37">
<rect x="36.2393" y="0.973572" width="35.5347" height="35.5347" rx="17.7674" transform="rotate(90 36.2393 0.973572)" fill="url(#paint1_linear_341_4316)"/>
</mask>
<g mask="url(#mask1_341_4316)">
<ellipse cx="35.9957" cy="18.7409" rx="6.08471" ry="4.62438" transform="rotate(90 35.9957 18.7409)" fill="white"/>
</g>
<mask id="mask2_341_4316" style="mask-type:alpha" maskUnits="userSpaceOnUse" x="0" y="0" width="37" height="37">
<rect x="36.2393" y="36.5083" width="35.5347" height="35.5347" rx="17.7674" transform="rotate(180 36.2393 36.5083)" fill="url(#paint2_linear_341_4316)"/>
</mask>
<g mask="url(#mask2_341_4316)">
<ellipse cx="18.4714" cy="36.2648" rx="6.08471" ry="4.62438" transform="rotate(180 18.4714 36.2648)" fill="white"/>
</g>
<mask id="mask3_341_4316" style="mask-type:alpha" maskUnits="userSpaceOnUse" x="0" y="0" width="37" height="37">
<rect x="0.70459" y="36.5083" width="35.5347" height="35.5347" rx="17.7674" transform="rotate(-90 0.70459 36.5083)" fill="url(#paint3_linear_341_4316)"/>
</mask>
<g mask="url(#mask3_341_4316)">
<ellipse cx="0.947623" cy="18.7409" rx="6.08471" ry="4.62438" transform="rotate(-90 0.947623 18.7409)" fill="white"/>
</g>
<defs>
<linearGradient id="paint0_linear_341_4316" x1="4.59881" y1="0.973571" x2="39.4034" y2="43.0798" gradientUnits="userSpaceOnUse">
<stop stop-color="#8F8BF4"/>
<stop offset="1" stop-color="#FF4141"/>
</linearGradient>
<linearGradient id="paint1_linear_341_4316" x1="40.1335" y1="0.973571" x2="74.938" y2="43.0798" gradientUnits="userSpaceOnUse">
<stop stop-color="#8F8BF4"/>
<stop offset="1" stop-color="#FF4141"/>
</linearGradient>
<linearGradient id="paint2_linear_341_4316" x1="40.1335" y1="36.5083" x2="74.938" y2="78.6145" gradientUnits="userSpaceOnUse">
<stop stop-color="#8F8BF4"/>
<stop offset="1" stop-color="#FF4141"/>
</linearGradient>
<linearGradient id="paint3_linear_341_4316" x1="4.59881" y1="36.5083" x2="39.4034" y2="78.6145" gradientUnits="userSpaceOnUse">
<stop stop-color="#8F8BF4"/>
<stop offset="1" stop-color="#FF4141"/>
</linearGradient>
</defs>
</svg>
