<svg width="36" height="37" viewBox="0 0 36 37" fill="none" xmlns="http://www.w3.org/2000/svg">
<rect y="0.973572" width="35.5347" height="35.5347" rx="17.7674" fill="#00C738"/>
<mask id="mask0_341_4302" style="mask-type:alpha" maskUnits="userSpaceOnUse" x="0" y="0" width="36" height="37">
<rect y="0.973572" width="35.5347" height="35.5347" rx="17.7674" fill="url(#paint0_linear_341_4302)"/>
</mask>
<g mask="url(#mask0_341_4302)">
<ellipse cx="17.7668" cy="1.21697" rx="6.08471" ry="4.62438" fill="white"/>
</g>
<mask id="mask1_341_4302" style="mask-type:alpha" maskUnits="userSpaceOnUse" x="0" y="0" width="36" height="37">
<rect x="35.5347" y="0.973572" width="35.5347" height="35.5347" rx="17.7674" transform="rotate(90 35.5347 0.973572)" fill="url(#paint1_linear_341_4302)"/>
</mask>
<g mask="url(#mask1_341_4302)">
<ellipse cx="35.2916" cy="18.7409" rx="6.08471" ry="4.62438" transform="rotate(90 35.2916 18.7409)" fill="white"/>
</g>
<mask id="mask2_341_4302" style="mask-type:alpha" maskUnits="userSpaceOnUse" x="0" y="0" width="36" height="37">
<rect x="35.5347" y="36.5083" width="35.5347" height="35.5347" rx="17.7674" transform="rotate(180 35.5347 36.5083)" fill="url(#paint2_linear_341_4302)"/>
</mask>
<g mask="url(#mask2_341_4302)">
<ellipse cx="17.7673" cy="36.2648" rx="6.08471" ry="4.62438" transform="rotate(180 17.7673 36.2648)" fill="white"/>
</g>
<mask id="mask3_341_4302" style="mask-type:alpha" maskUnits="userSpaceOnUse" x="0" y="0" width="36" height="37">
<rect y="36.5083" width="35.5347" height="35.5347" rx="17.7674" transform="rotate(-90 0 36.5083)" fill="url(#paint3_linear_341_4302)"/>
</mask>
<g mask="url(#mask3_341_4302)">
<ellipse cx="0.243521" cy="18.7409" rx="6.08471" ry="4.62438" transform="rotate(-90 0.243521 18.7409)" fill="white"/>
</g>
<defs>
<linearGradient id="paint0_linear_341_4302" x1="3.89422" y1="0.973571" x2="38.6988" y2="43.0798" gradientUnits="userSpaceOnUse">
<stop stop-color="#8F8BF4"/>
<stop offset="1" stop-color="#FF4141"/>
</linearGradient>
<linearGradient id="paint1_linear_341_4302" x1="39.4289" y1="0.973571" x2="74.2334" y2="43.0798" gradientUnits="userSpaceOnUse">
<stop stop-color="#8F8BF4"/>
<stop offset="1" stop-color="#FF4141"/>
</linearGradient>
<linearGradient id="paint2_linear_341_4302" x1="39.4289" y1="36.5083" x2="74.2334" y2="78.6145" gradientUnits="userSpaceOnUse">
<stop stop-color="#8F8BF4"/>
<stop offset="1" stop-color="#FF4141"/>
</linearGradient>
<linearGradient id="paint3_linear_341_4302" x1="3.89422" y1="36.5083" x2="38.6988" y2="78.6145" gradientUnits="userSpaceOnUse">
<stop stop-color="#8F8BF4"/>
<stop offset="1" stop-color="#FF4141"/>
</linearGradient>
</defs>
</svg>
