<svg width="39" height="39" viewBox="0 0 39 39" fill="none" xmlns="http://www.w3.org/2000/svg">
<path fill-rule="evenodd" clip-rule="evenodd" d="M33.6165 19.0427C33.6165 20.0173 33.5265 20.9769 33.3316 21.8916C33.1666 22.7912 32.8967 23.6459 32.5669 24.4706C32.207 25.3552 31.7722 26.2099 31.2474 27.0046C30.6926 27.8442 30.0628 28.6389 29.3431 29.3437C28.6684 30.0184 27.9337 30.6332 27.139 31.158C26.3893 31.6528 25.6096 32.0876 24.7849 32.4475C23.9152 32.8223 23.0006 33.1072 22.0409 33.3021C21.0813 33.512 20.0767 33.617 19.0421 33.617C18.7822 33.617 18.5223 33.612 18.2624 33.602C18.0625 33.592 17.8676 33.577 17.6776 33.557C17.6077 33.547 17.5377 33.537 17.4677 33.527C17.3178 33.517 17.1678 33.497 17.0179 33.4671C16.9479 33.4671 16.883 33.4621 16.823 33.4521C16.6131 33.4121 16.4031 33.3721 16.1932 33.3321C15.3086 33.1672 14.4539 32.8973 13.6292 32.5674C12.7296 32.2075 11.8899 31.7727 11.0952 31.2479C10.2405 30.6931 9.46083 30.0634 8.74111 29.3437C8.06638 28.6689 7.46661 27.9342 6.92682 27.1395C6.43201 26.3898 6.01218 25.6101 5.65232 24.7854C5.27746 23.9158 4.99258 23.0011 4.78266 22.0565C4.58773 21.0819 4.46777 20.0773 4.46777 19.0427C4.46777 18.068 4.57274 17.1234 4.75267 16.1938C4.9326 15.3091 5.18749 14.4544 5.51737 13.6298C5.87723 12.7301 6.32705 11.8904 6.85185 11.0957C7.39164 10.2411 8.03639 9.46138 8.74111 8.74166C9.41585 8.06692 10.1656 7.46716 10.9602 6.92737C11.695 6.43256 12.4897 6.01272 13.3143 5.65286C14.184 5.27801 15.0986 4.99312 16.0433 4.7832C16.2632 4.74322 16.4831 4.70323 16.703 4.66325C16.773 4.65325 16.843 4.64325 16.9129 4.63326C17.0729 4.61327 17.2328 4.59327 17.3928 4.57328C17.4627 4.56329 17.5327 4.55329 17.6027 4.54329C17.8126 4.5233 18.0225 4.50831 18.2324 4.49831H18.2924C18.5423 4.47832 18.7922 4.46832 19.0421 4.46832C19.282 4.46832 19.5219 4.47832 19.7618 4.49831H19.8368C19.8868 4.49831 19.9418 4.50331 20.0017 4.51331C20.1317 4.5233 20.2616 4.5333 20.3916 4.54329C20.3416 4.5333 20.2916 4.5283 20.2416 4.5283C20.3016 4.5283 20.3566 4.5333 20.4066 4.54329C20.4766 4.55329 20.5465 4.55829 20.6165 4.55829C20.7664 4.57828 20.9214 4.59827 21.0813 4.61826C21.1413 4.62826 21.2063 4.63826 21.2762 4.64825C21.4862 4.67824 21.6911 4.71323 21.891 4.75321C22.7757 4.93314 23.6453 5.18804 24.47 5.51792C25.3547 5.87778 26.2093 6.3276 27.004 6.8524C27.8437 7.40718 28.6384 8.03694 29.3431 8.74166C30.0179 9.4164 30.6326 10.1661 31.1574 10.9608C31.6522 11.6955 32.0871 12.4902 32.4469 13.3149C32.8218 14.1845 33.1066 15.0992 33.3016 16.0438C33.5115 17.0184 33.6165 18.0231 33.6165 19.0427ZM20.2416 4.5283C20.1617 4.5183 20.0817 4.51331 20.0017 4.51331C19.9518 4.50331 19.9018 4.49831 19.8518 4.49831C19.9818 4.50831 20.1117 4.5183 20.2416 4.5283Z" fill="#093679"/>
<path d="M4.88757 25.1004C4.49772 24.1857 4.19784 23.2261 3.98792 22.2215C3.89795 21.8016 3.82799 21.3818 3.77801 20.962L0.149414 21.4118C0.209391 21.9416 0.29436 22.4614 0.404317 22.9712C0.659218 24.2157 1.03407 25.4003 1.52888 26.5398C1.61885 26.7497 1.7138 26.9596 1.81376 27.1696L5.12748 25.6102C5.04751 25.4402 4.96754 25.2703 4.88757 25.1004Z" fill="#F8F5F6"/>
<path d="M34.9809 29.4935L31.9221 27.4843C31.3373 28.369 30.6775 29.1937 29.9278 29.9284C29.528 30.3282 29.1031 30.7081 28.6533 31.0679L30.9474 33.9168C31.4972 33.477 32.022 33.0122 32.5218 32.5224C33.4365 31.5927 34.2611 30.5881 34.9809 29.4935Z" fill="#F8F5F6"/>
<path d="M13.3149 33.332C12.6152 33.0521 11.9405 32.7223 11.2907 32.3424L9.46143 35.5062C10.2611 35.976 11.0958 36.3858 11.9655 36.7357C12.9551 37.1256 13.9747 37.4404 15.0393 37.6803L15.804 34.0967C14.9443 33.9068 14.1146 33.6519 13.3149 33.332Z" fill="#F8F5F6"/>
<path d="M33.1971 12.985C33.5869 13.9146 33.9018 14.8743 34.1117 15.8789C34.1917 16.2887 34.2617 16.7085 34.3216 17.1384L37.9502 16.6736C37.8803 16.1538 37.7953 15.634 37.6953 15.1142C37.4254 13.8846 37.0506 12.6851 36.5708 11.5455C36.4708 11.3356 36.3758 11.1307 36.2859 10.9308L32.9722 12.4902C33.0521 12.6501 33.1271 12.8151 33.1971 12.985Z" fill="#F8F5F6"/>
<path d="M24.7708 4.7533C25.4705 5.04319 26.1452 5.37306 26.795 5.74292L28.6393 2.57914C27.8396 2.11932 27.0049 1.71448 26.1352 1.36462C25.1456 0.959773 24.111 0.644896 23.0464 0.419983L22.2817 4.00359C23.1364 4.18352 23.9761 4.43842 24.7708 4.7533Z" fill="#F8F5F6"/>
<path fill-rule="evenodd" clip-rule="evenodd" d="M38.1002 19.0426C38.1002 20.3171 37.9652 21.5616 37.7253 22.7762C37.5004 23.9307 37.1706 25.0553 36.7357 26.1348C36.2709 27.3044 35.6861 28.414 35.0114 29.4486L34.9814 29.4935L31.9226 27.4843C31.3378 28.369 30.6781 29.1937 29.9284 29.9284C29.5285 30.3282 29.1037 30.7081 28.6539 31.0679L30.948 33.9168C30.5181 34.2567 30.0783 34.5816 29.6285 34.8914C28.6539 35.5362 27.6193 36.106 26.5397 36.5708C25.4001 37.0506 24.2156 37.4255 22.9711 37.6954C21.7116 37.9503 20.3921 38.1002 19.0426 38.1002C17.7681 38.1002 16.5236 37.9653 15.324 37.7253C15.2241 37.7153 15.1291 37.7004 15.0392 37.6804L15.8039 34.0968C14.9492 33.9168 14.1245 33.6619 13.3148 33.3321C12.6151 33.0522 11.9404 32.7223 11.2906 32.3424L9.46132 35.5062C9.18143 35.3463 8.90654 35.1813 8.63664 35.0114C7.52707 34.2767 6.50747 33.452 5.57784 32.5224C4.69318 31.6377 3.89848 30.6631 3.19376 29.6285C2.67396 28.8488 2.21414 28.0291 1.81429 27.1694L5.12801 25.6101C5.04804 25.4401 4.96807 25.2702 4.8881 25.1003C4.49825 24.1856 4.19837 23.226 3.98845 22.2214C3.89848 21.8015 3.82851 21.3817 3.77853 20.9619L0.149942 21.4117C0.0499806 20.642 0 19.8523 0 19.0426C0 17.7681 0.119957 16.5236 0.359864 15.324C0.584777 14.1545 0.929635 13.0299 1.36447 11.9654C1.82929 10.7958 2.41406 9.68624 3.0888 8.63665L3.11879 8.60666L6.1776 10.6159C6.74738 9.73122 7.42212 8.90654 8.15684 8.17183C8.56668 7.76198 8.99151 7.38213 9.43134 7.03227L7.15222 4.16838C7.57206 3.82851 8.01189 3.50864 8.47171 3.20875C9.43134 2.54901 10.4659 1.99423 11.5455 1.52941C12.6851 1.0346 13.8846 0.659744 15.1141 0.404843C16.3886 0.134947 17.6931 0 19.0426 0C20.3171 0 21.5616 0.119953 22.7762 0.35986C22.8661 0.379852 22.9561 0.399845 23.046 0.419837L22.2813 4.00345C23.136 4.18338 23.9757 4.43828 24.7704 4.75315C25.4701 5.04304 26.1448 5.37291 26.7946 5.74277L28.6389 2.579C28.9188 2.74893 29.1887 2.91887 29.4486 3.0888C30.5581 3.80852 31.5927 4.64819 32.5224 5.57783C33.392 6.46249 34.2017 7.42212 34.8914 8.47171C35.4112 9.25141 35.8761 10.0711 36.2859 10.9308L32.9722 12.4901C33.0522 12.6501 33.1271 12.815 33.1971 12.985C33.587 13.9146 33.9018 14.8742 34.1117 15.8788C34.1917 16.2887 34.2617 16.7085 34.3217 17.1383L37.9503 16.6735C38.0502 17.4532 38.1002 18.2429 38.1002 19.0426ZM6.14761 10.6459L6.1776 10.6159C6.16761 10.6259 6.15761 10.6359 6.14761 10.6459ZM16.0438 34.1417C15.9638 34.1217 15.8838 34.1068 15.8039 34.0968C15.8838 34.1167 15.9638 34.1317 16.0438 34.1417ZM31.4578 24.0207C31.7727 23.271 31.9976 22.4763 32.1625 21.6666C32.3424 20.8119 32.4324 19.9423 32.4324 19.0426C32.4324 18.098 32.3274 17.1833 32.1325 16.2837C31.9526 15.414 31.6827 14.5893 31.3528 13.7796C31.0229 13.0299 30.6181 12.2952 30.1683 11.6205C29.6735 10.8858 29.1187 10.211 28.5039 9.59627C27.8442 8.93653 27.1245 8.35176 26.3448 7.84195C25.625 7.36214 24.8454 6.9573 24.0207 6.62743C23.271 6.32754 22.4763 6.08763 21.6666 5.9227C20.8119 5.75776 19.9423 5.6678 19.0426 5.6678C18.098 5.6678 17.1833 5.77276 16.2837 5.95269C15.414 6.13262 14.5743 6.40251 13.7797 6.74738C13.0299 7.07725 12.2952 7.4671 11.6205 7.91692C10.8858 8.41173 10.211 8.96652 9.59627 9.59627C8.93653 10.241 8.35175 10.9607 7.84195 11.7404C7.36214 12.4752 6.9573 13.2549 6.62743 14.0795C6.32754 14.8292 6.08764 15.6089 5.9227 16.4336C5.75776 17.2733 5.6678 18.1579 5.6678 19.0426C5.6678 19.9872 5.77276 20.9169 5.95269 21.8015C6.13262 22.6712 6.40251 23.5109 6.74738 24.3056C7.07725 25.0653 7.4671 25.79 7.91692 26.4797C8.41173 27.1994 8.96652 27.8892 9.59627 28.5039C10.241 29.1637 10.9607 29.7335 11.7404 30.2433C12.4752 30.7231 13.2548 31.1279 14.0645 31.4578C14.8292 31.7727 15.6089 32.0126 16.4336 32.1625C17.2733 32.3424 18.1579 32.4324 19.0426 32.4324C19.9872 32.4324 20.9169 32.3274 21.8015 32.1325C22.6712 31.9526 23.5109 31.6827 24.3056 31.3528C25.0703 31.023 25.79 30.6331 26.4647 30.1683C27.1994 29.6885 27.8892 29.1187 28.5039 28.5039C29.1487 27.8442 29.7335 27.1245 30.2433 26.3448C30.7231 25.625 31.1279 24.8453 31.4578 24.0207Z" fill="#FF4141"/>
<path d="M8.1567 8.17196C8.56654 7.76212 8.99138 7.38227 9.43121 7.03241L7.15209 4.16852C6.6023 4.60835 6.07751 5.07816 5.5777 5.57797C4.64806 6.49262 3.82338 7.51222 3.11865 8.60679L6.17747 10.616C6.74725 9.73136 7.42199 8.90668 8.1567 8.17196Z" fill="#F8F5F6"/>
<path d="M31.0826 16.5087C30.9177 15.714 30.6628 14.9493 30.3479 14.2146C30.048 13.5099 29.6882 12.8501 29.2683 12.2204C28.8185 11.5456 28.3087 10.9309 27.7389 10.3611C27.1392 9.76133 26.4794 9.22154 25.7597 8.75672C25.0849 8.30689 24.3652 7.93204 23.6155 7.63215C22.9258 7.34726 22.2061 7.13735 21.4564 6.98741C20.6767 6.83746 19.867 6.7475 19.0423 6.7475C18.1726 6.7475 17.333 6.83746 16.5083 7.01739C15.7136 7.18233 14.9339 7.42224 14.2142 7.73711C13.5094 8.037 12.8497 8.39686 12.2199 8.81669C11.5452 9.26652 10.9155 9.79132 10.3457 10.3611C9.74591 10.9609 9.22111 11.6206 8.75629 12.3403C8.30647 13.0001 7.93161 13.7198 7.63173 14.4695C7.34684 15.1742 7.13692 15.8939 6.98697 16.6437C6.83703 17.4234 6.74707 18.218 6.74707 19.0427C6.74707 19.9124 6.83703 20.7671 7.01696 21.5767C7.1819 22.3864 7.4218 23.1511 7.73668 23.8858C8.03657 24.5856 8.39643 25.2453 8.81626 25.8651C9.26609 26.5398 9.79088 27.1696 10.3607 27.7393C10.9604 28.3391 11.6202 28.8789 12.3249 29.3437C12.9996 29.7786 13.7194 30.1534 14.4691 30.4533C15.1738 30.7382 15.8935 30.9631 16.6432 31.113C17.233 31.223 17.8328 31.293 18.4425 31.323C17.8328 31.293 17.243 31.223 16.6732 31.113C15.9235 30.9631 15.2188 30.7532 14.5291 30.4683C13.7793 30.1684 13.0746 29.7935 12.4149 29.3737C11.7101 28.9089 11.0504 28.3691 10.4506 27.7843C9.89585 27.2145 9.38604 26.5998 8.93622 25.94C8.53137 25.3253 8.17152 24.6655 7.87163 23.9758C7.55676 23.2411 7.31685 22.4914 7.15191 21.6967C6.98698 20.887 6.89701 20.0473 6.89701 19.1927C6.89701 18.383 6.97198 17.5883 7.12192 16.8236C7.27187 16.0739 7.49678 15.3542 7.76667 14.6794C8.06656 13.9297 8.44141 13.225 8.87625 12.5652C9.32607 11.8455 9.86586 11.2008 10.4506 10.601C11.0204 10.0462 11.6352 9.53642 12.2949 9.08659C12.9247 8.68175 13.5694 8.32189 14.2591 8.022C14.9939 7.70712 15.7586 7.46722 16.5383 7.30228C17.348 7.13735 18.1876 7.03239 19.0423 7.03239C19.852 7.03239 20.6467 7.12235 21.4264 7.27229C22.1611 7.42224 22.8808 7.63215 23.5705 7.91704C24.3053 8.21693 25.01 8.57679 25.6847 9.01162C26.3894 9.47644 27.0342 10.0162 27.634 10.601C28.2037 11.1708 28.6985 11.7855 29.1484 12.4453C29.5682 13.065 29.9231 13.7198 30.213 14.4095C30.5278 15.1442 30.7677 15.8939 30.9327 16.6886C31.1126 17.4983 31.2026 18.338 31.2026 19.1927C31.2026 20.0024 31.1126 20.797 30.9627 21.5617C30.8127 22.3115 30.6028 23.0312 30.3179 23.7059C30.018 24.4556 29.6582 25.1603 29.2233 25.8201C28.7585 26.5248 28.2337 27.1846 27.634 27.7843C27.0642 28.3391 26.4494 28.8489 25.7897 29.2987C25.1699 29.7086 24.5152 30.0634 23.8254 30.3633C23.1057 30.6782 22.341 30.9181 21.5463 31.083C20.7366 31.248 19.897 31.3379 19.0423 31.3379C19.912 31.3379 20.7666 31.248 21.5763 31.083C22.386 30.9181 23.1507 30.6632 23.8854 30.3483C24.5851 30.0485 25.2449 29.6886 25.8646 29.2688C26.5394 28.8189 27.1691 28.3091 27.7389 27.7393C28.3387 27.1396 28.8785 26.4798 29.3433 25.7601C29.7781 25.0854 30.153 24.3657 30.4529 23.6159C30.7378 22.9262 30.9627 22.2065 31.1126 21.4568C31.2626 20.6771 31.3375 19.8674 31.3375 19.0427C31.3375 18.1731 31.2476 17.3334 31.0826 16.5087Z" fill="#EA7374"/>
<path fill-rule="evenodd" clip-rule="evenodd" d="M9.41584 9.41633C10.0606 8.77158 10.7503 8.21679 11.485 7.72199C12.1898 7.25717 12.9245 6.85232 13.6892 6.53745C14.5139 6.17759 15.3685 5.90769 16.2382 5.72776C17.1678 5.53284 18.0975 5.44287 19.0421 5.44287C19.9418 5.44287 20.8264 5.53284 21.7111 5.69777C22.5207 5.86271 23.3304 6.10262 24.1101 6.4025C24.9348 6.73237 25.7295 7.15221 26.4792 7.64701C27.2589 8.14182 27.9936 8.74159 28.6684 9.41633C29.3131 10.0611 29.8829 10.7508 30.3627 11.4855C30.8425 12.1903 31.2324 12.925 31.5622 13.6897C31.9071 14.5143 32.177 15.369 32.3569 16.2387C32.5519 17.1683 32.6568 18.1129 32.6568 19.0426C32.6568 19.9422 32.5668 20.8269 32.3869 21.7116C32.237 22.5212 31.9971 23.3309 31.6822 24.1106C31.3523 24.9353 30.9475 25.73 30.4527 26.4797C29.9429 27.2594 29.3581 27.9941 28.6684 28.6688C28.0236 29.3136 27.3339 29.8834 26.5992 30.3632C25.8944 30.843 25.1597 31.2329 24.395 31.5627C23.5703 31.9076 22.7157 32.1775 21.846 32.3574C20.9314 32.5523 19.9867 32.6573 19.0421 32.6573C18.1574 32.6573 17.2578 32.5673 16.3881 32.3874C15.5635 32.2375 14.7688 31.9976 13.9891 31.6827C13.1644 31.3528 12.3697 30.948 11.605 30.4532C10.8403 29.9434 10.0906 29.3586 9.41584 28.6688C8.77109 28.0241 8.21631 27.3344 7.7215 26.5997C7.25668 25.8949 6.85183 25.1602 6.53696 24.3955C6.1771 23.5708 5.90721 22.7162 5.72728 21.8465C5.53235 20.9319 5.44238 19.9872 5.44238 19.0426C5.44238 18.1579 5.51736 17.2583 5.69729 16.3886C5.86222 15.5639 6.10213 14.7692 6.40201 13.9896C6.73189 13.1649 7.15172 12.3702 7.64653 11.6055C8.14134 10.8408 8.7411 10.1061 9.41584 9.41633ZM12.0998 8.63663C11.4251 9.08646 10.7953 9.61125 10.1955 10.196C9.56578 10.8258 9.02599 11.5005 8.56117 12.2052C8.11134 12.91 7.73649 13.6447 7.42162 14.3944C7.13673 15.1141 6.92681 15.8488 6.77687 16.5985C6.61193 17.4082 6.53696 18.2329 6.53696 19.0426C6.53696 19.9123 6.62693 20.7819 6.80686 21.6216C6.97179 22.4163 7.2117 23.211 7.54157 23.9757C7.84145 24.6654 8.20131 25.3551 8.63614 25.9999C9.08597 26.6596 9.61077 27.3044 10.1955 27.8892C10.8253 28.5189 11.5 29.0587 12.2048 29.5235C12.9095 29.9883 13.6442 30.3632 14.3939 30.6631C15.1136 30.948 15.8483 31.1729 16.5981 31.3228C17.4077 31.4728 18.2324 31.5627 19.0421 31.5627C19.9118 31.5627 20.7664 31.4578 21.6211 31.2928C22.4158 31.1129 23.2105 30.873 23.9752 30.5431C24.6649 30.2432 25.3397 29.8834 25.9994 29.4485C26.6591 29.0137 27.3039 28.4889 27.8887 27.8892C28.5184 27.2744 29.0582 26.5997 29.523 25.8799C29.9879 25.1902 30.3627 24.4555 30.6626 23.7058C30.9475 22.9861 31.1724 22.2363 31.3073 21.4866C31.4723 20.6919 31.5472 19.8673 31.5472 19.0426C31.5472 18.1879 31.4573 17.3183 31.2923 16.4636C31.1124 15.6689 30.8725 14.8892 30.5426 14.1245C30.2428 13.4198 29.8829 12.745 29.4481 12.1003C28.9982 11.4255 28.4884 10.7958 27.8887 10.196C27.2739 9.56627 26.5992 9.02648 25.8794 8.56166C25.1897 8.11183 24.455 7.73698 23.7053 7.4371C22.9856 7.13721 22.2359 6.92729 21.4862 6.77735C20.6915 6.61242 19.8668 6.53745 19.0421 6.53745C18.1874 6.53745 17.3178 6.62741 16.4631 6.80734C15.6684 6.97228 14.8887 7.22718 14.124 7.54206C13.4193 7.84194 12.7446 8.2018 12.0998 8.63663Z" fill="url(#paint0_linear_233_2868)"/>
<path d="M29.2687 12.2204L30.1683 11.6206C29.6735 10.8859 29.1187 10.2112 28.504 9.59644L27.7393 10.3611C28.309 10.9309 28.8188 11.5457 29.2687 12.2204Z" fill="#FF4141"/>
<path d="M30.3481 14.2145L31.3377 13.7796C31.0229 13.0299 30.618 12.2952 30.1682 11.6205L29.2686 12.2203C29.6884 12.85 30.0483 13.5098 30.3481 14.2145Z" fill="#E3DEDD"/>
<path d="M31.0829 16.5087L32.1324 16.2838C31.9525 15.4141 31.6826 14.5894 31.3378 13.7797L30.3481 14.2146C30.663 14.9493 30.9179 15.714 31.0829 16.5087Z" fill="#FF4141"/>
<path d="M27.7393 27.7392L28.504 28.5039C29.1487 27.8441 29.7335 27.1244 30.2433 26.3447L29.3436 25.7599C28.8788 26.4797 28.339 27.1394 27.7393 27.7392Z" fill="#E3DEDD"/>
<path d="M7.63219 14.4694L6.62758 14.0796C6.3277 14.8293 6.08779 15.609 5.92285 16.4337L6.98743 16.6436C7.13738 15.8939 7.3473 15.1742 7.63219 14.4694Z" fill="#E3DEDD"/>
<path d="M7.01722 21.5767L5.95264 21.8016C6.13257 22.6713 6.40246 23.511 6.74733 24.3057L7.73694 23.8858C7.42206 23.1511 7.18216 22.3864 7.01722 21.5767Z" fill="#FF4141"/>
<path d="M6.98697 16.6436L5.92238 16.4337C5.75745 17.2733 5.66748 18.158 5.66748 19.0426H6.74706C6.74706 18.218 6.83702 17.4233 6.98697 16.6436Z" fill="#FF4141"/>
<path d="M6.74706 19.0426H5.66748C5.66748 19.9872 5.77244 20.9169 5.95237 21.8015L7.01696 21.5766C6.83703 20.7669 6.74706 19.9123 6.74706 19.0426Z" fill="#E3DEDD"/>
<path d="M7.73668 23.8858L6.74707 24.3056C7.07694 25.0653 7.46679 25.7901 7.91661 26.4798L8.81627 25.88C8.39643 25.2503 8.03657 24.5855 7.73668 23.8858Z" fill="#E3DEDD"/>
<path d="M10.3609 27.7393L9.59619 28.504C10.2409 29.1637 10.9607 29.7335 11.7404 30.2433L12.3251 29.3436C11.6204 28.8788 10.9607 28.339 10.3609 27.7393Z" fill="#E3DEDD"/>
<path d="M8.81664 25.88L7.91699 26.4798C8.4118 27.1995 8.96659 27.8893 9.59634 28.504L10.361 27.7393C9.79126 27.1695 9.26647 26.5398 8.81664 25.8651V25.88Z" fill="#FF4141"/>
<path d="M12.325 29.3437L11.7402 30.2433C12.4749 30.7232 13.2546 31.128 14.0643 31.4579L14.4692 30.4533C13.7195 30.1534 12.9997 29.7785 12.325 29.3437Z" fill="#FF4141"/>
<path d="M8.75613 12.3402L7.84148 11.7405C7.36166 12.4752 6.95683 13.2549 6.62695 14.0796L7.63156 14.4694C7.93145 13.7197 8.3063 13 8.75613 12.3402Z" fill="#FF4141"/>
<path d="M19.0421 6.74749V5.66791C18.0975 5.66791 17.1829 5.77287 16.2832 5.9528L16.5081 7.01738C17.3328 6.83745 18.1725 6.74749 19.0421 6.74749Z" fill="#E3DEDD"/>
<path d="M14.2141 7.73711L13.7793 6.7475C13.0296 7.07737 12.2949 7.46722 11.6201 7.91704L12.2199 8.81669C12.8496 8.41185 13.5094 8.037 14.2141 7.73711Z" fill="#E3DEDD"/>
<path d="M16.5077 7.01735L16.2828 5.95276C15.4132 6.13269 14.5735 6.40258 13.7788 6.74745L14.2136 7.73707C14.9334 7.42219 15.713 7.18228 16.5077 7.01735Z" fill="#FF4141"/>
<path d="M10.3453 10.3611L9.59563 9.59644C8.93589 10.2412 8.35111 10.9609 7.84131 11.7406L8.75596 12.3404C9.22078 11.6206 9.74557 10.9609 10.3453 10.3611Z" fill="#E3DEDD"/>
<path d="M12.2202 8.8167L11.6204 7.91705C10.8857 8.41186 10.211 8.96665 9.59619 9.5964L10.3459 10.3611C10.9157 9.79133 11.5454 9.26653 12.2202 8.8167Z" fill="#FF4141"/>
<path d="M31.083 16.5087C31.2479 17.3334 31.3379 18.1731 31.3379 19.0427H32.4325C32.4325 18.0981 32.3275 17.1835 32.1326 16.2838L31.083 16.5087Z" fill="#E3DEDD"/>
<path d="M31.1133 21.4567L32.1629 21.6666C32.3428 20.8119 32.4328 19.9423 32.4328 19.0426H31.3382C31.3382 19.8673 31.2632 20.677 31.1133 21.4567Z" fill="#FF4141"/>
<path d="M27.7385 10.3609L28.5032 9.59624C27.8435 8.93649 27.1238 8.35172 26.3441 7.84192L25.7593 8.75656C26.479 9.22138 27.1387 9.76117 27.7385 10.3609Z" fill="#E3DEDD"/>
<path d="M30.4531 23.6159L31.4577 24.0208C31.7726 23.2711 31.9975 22.4764 32.1625 21.6667L31.1129 21.4568C30.9629 22.2065 30.738 22.9262 30.4531 23.6159Z" fill="#E3DEDD"/>
<path d="M14.4688 30.4533L14.064 31.4579C14.8287 31.7728 15.6084 32.0127 16.433 32.1626L16.643 31.1131C15.8933 30.9631 15.1735 30.7382 14.4688 30.4533Z" fill="#E3DEDD"/>
<path d="M25.7599 8.75655L26.3447 7.84191C25.6249 7.36209 24.8452 6.95725 24.0206 6.62738L23.6157 7.63199C24.3654 7.93187 25.0852 8.30673 25.7599 8.75655Z" fill="#FF4141"/>
<path d="M23.6157 7.63194L24.0206 6.62733C23.2708 6.32745 22.4762 6.08754 21.6665 5.92261L21.4565 6.98719C22.2063 7.13714 22.926 7.36205 23.6157 7.63194Z" fill="#E3DEDD"/>
<path d="M29.3438 25.76L30.2434 26.3448C30.7232 25.6251 31.1281 24.8454 31.4579 24.0207L30.4533 23.6158C30.1534 24.3656 29.7786 25.0853 29.3438 25.76Z" fill="#FF4141"/>
<path d="M19.0425 31.3529V32.4325C19.9871 32.4325 20.9168 32.3275 21.8014 32.1326L21.5765 31.083C20.7668 31.2479 19.9121 31.3379 19.0425 31.3379V31.3529Z" fill="#E3DEDD"/>
<path d="M21.4565 6.9874L21.6665 5.92281C20.8118 5.75787 19.9421 5.66791 19.0425 5.66791V6.74749C19.8672 6.74749 20.6768 6.83745 21.4565 6.9874Z" fill="#FF4141"/>
<path d="M16.6435 31.113L16.4336 32.1626C17.2733 32.3426 18.1429 32.4325 19.0426 32.4325V31.3529C18.2179 31.3529 17.4232 31.263 16.6435 31.113Z" fill="#FF4141"/>
<path d="M21.5762 31.0829L21.8011 32.1325C22.6707 31.9526 23.5104 31.6827 24.3051 31.3528L23.8853 30.3482C23.1506 30.6631 22.3859 30.918 21.5762 31.0829Z" fill="#FF4141"/>
<path d="M23.8857 30.3484L24.3056 31.353C25.0703 31.0231 25.79 30.6333 26.4647 30.1684L25.865 29.2688C25.2452 29.6886 24.5855 30.0485 23.8857 30.3484Z" fill="#E3DEDD"/>
<path d="M25.8652 29.2687L26.465 30.1683C27.1997 29.6885 27.8894 29.1187 28.5042 28.504L27.7395 27.7393C27.1697 28.309 26.54 28.8188 25.8652 29.2687Z" fill="#FF4141"/>
<path d="M2.06867 27.0495C1.96871 26.8496 1.87375 26.6447 1.78378 26.4348C1.30397 25.3102 0.929111 24.1406 0.67421 22.9111C0.564253 22.4113 0.479284 21.9015 0.419307 21.3817L0.149414 21.4117C0.209391 21.9415 0.29436 22.4613 0.404317 22.9711C0.659218 24.2156 1.03407 25.4002 1.52888 26.5397C1.61885 26.7496 1.7138 26.9595 1.81376 27.1695L2.06867 27.0495Z" fill="url(#paint1_linear_233_2868)"/>
<path d="M32.3275 32.3275C31.8276 32.8073 31.3079 33.2672 30.7681 33.707L30.948 33.9169C31.4978 33.4771 32.0226 33.0123 32.5224 32.5225C33.437 31.5928 34.2617 30.5882 34.9814 29.4936L34.7415 29.3437C34.0368 30.4083 33.2271 31.4129 32.3275 32.3275Z" fill="url(#paint2_linear_233_2868)"/>
<path d="M12.0704 36.4808C11.2108 36.131 10.3861 35.7261 9.59638 35.2663L9.46143 35.5062C10.2611 35.976 11.0958 36.3859 11.9655 36.7357C12.9551 37.1256 13.9747 37.4405 15.0393 37.6804L15.0992 37.3955C14.0496 37.1856 13.03 36.8707 12.0704 36.4808Z" fill="url(#paint3_linear_233_2868)"/>
<path d="M36.3161 11.6655C36.796 12.7751 37.1708 13.9596 37.4257 15.1741C37.5257 15.6839 37.6106 16.1987 37.6806 16.7185L37.9505 16.6736C37.8805 16.1538 37.7956 15.634 37.6956 15.1142C37.4257 13.8846 37.0509 12.6851 36.571 11.5455C36.4711 11.3356 36.3761 11.1307 36.2862 10.9308L36.0312 11.0507C36.1312 11.2507 36.2262 11.4556 36.3161 11.6655Z" fill="url(#paint4_linear_233_2868)"/>
<path d="M26.0298 1.61952C26.8895 1.95938 27.7141 2.35923 28.5038 2.81905L28.6388 2.57914C27.8391 2.11932 27.0044 1.71448 26.1348 1.36462C25.1451 0.959773 24.1105 0.644896 23.046 0.419983L23.001 0.689878C24.0356 0.914791 25.0552 1.22967 26.0298 1.61952Z" fill="url(#paint5_linear_233_2868)"/>
<path d="M0.419835 21.3817C0.319874 20.612 0.269893 19.8323 0.269893 19.0426C0.269893 17.7831 0.38985 16.5686 0.629757 15.3691C0.85467 14.2295 1.18454 13.1199 1.61937 12.0703C2.08419 10.9158 2.65397 9.82122 3.31371 8.78662L3.3437 8.75663L3.11879 8.60669L3.0888 8.63668C2.41406 9.68627 1.82929 10.7958 1.36447 11.9654C0.929635 13.03 0.584777 14.1545 0.359864 15.3241C0.119957 16.5236 0 17.7681 0 19.0426C0 19.8523 0.0499806 20.642 0.149942 21.4117L0.419835 21.3817Z" fill="url(#paint6_linear_233_2868)"/>
<path d="M9.59643 35.2662C9.32654 35.1062 9.05664 34.9413 8.78674 34.7714C7.70716 34.0667 6.68756 33.242 5.77292 32.3273C4.90326 31.4577 4.12356 30.498 3.43383 29.4634C2.92403 28.6987 2.4592 27.8891 2.06936 27.0494L1.81445 27.1693C2.2143 28.029 2.67412 28.8487 3.19392 29.6284C3.89865 30.663 4.69334 31.6376 5.578 32.5223C6.50764 33.4519 7.52723 34.2766 8.6368 35.0113C8.9067 35.1812 9.18159 35.3462 9.46148 35.5061L9.59643 35.2662Z" fill="url(#paint7_linear_233_2868)"/>
<path d="M30.7675 33.707C30.3476 34.0368 29.9128 34.3567 29.463 34.6666C28.5183 35.2964 27.4987 35.8511 26.4341 36.316C25.3096 36.7958 24.14 37.1706 22.9105 37.4255C21.666 37.6804 20.3765 37.8154 19.042 37.8154C17.7825 37.8154 16.568 37.6954 15.3684 37.4555C15.2785 37.4355 15.1885 37.4155 15.0986 37.3955L15.0386 37.6804C15.1285 37.7004 15.2235 37.7154 15.3235 37.7254C16.523 37.9653 17.7675 38.1003 19.042 38.1003C20.3915 38.1003 21.711 37.9503 22.9705 37.6954C24.215 37.4255 25.3996 37.0507 26.5391 36.5709C27.6187 36.106 28.6533 35.5363 29.6279 34.8915C30.0777 34.5816 30.5176 34.2568 30.9474 33.9169L30.7675 33.707Z" fill="url(#paint8_linear_233_2868)"/>
<path d="M37.95 16.6736L37.6801 16.7186C37.77 17.4783 37.815 18.253 37.815 19.0427C37.815 20.3022 37.6951 21.5317 37.4552 22.7162C37.2302 23.8558 36.9004 24.9654 36.4805 26.03C36.0157 27.1845 35.4459 28.2791 34.7712 29.2987L34.7412 29.3437L34.9811 29.4936L35.0111 29.4486C35.6858 28.414 36.2706 27.3045 36.7354 26.1349C37.1703 25.0553 37.5001 23.9308 37.725 22.7762C37.965 21.5617 38.0999 20.3172 38.0999 19.0427C38.0999 18.243 38.0499 17.4533 37.95 16.6736Z" fill="url(#paint9_linear_233_2868)"/>
<path d="M28.5039 2.81895C28.7738 2.97888 29.0387 3.14382 29.2986 3.31375C30.3932 4.03348 31.3978 4.85815 32.3274 5.7728C33.1971 6.64246 33.9768 7.60209 34.6665 8.62169C35.1763 9.3864 35.6261 10.1961 36.031 11.0507L36.2859 10.9308C35.876 10.0711 35.4112 9.25145 34.8914 8.47175C34.2017 7.42216 33.392 6.46253 32.5224 5.57788C31.5927 4.64824 30.5581 3.80856 29.4485 3.08884C29.1886 2.91891 28.9187 2.74897 28.6389 2.57904L28.5039 2.81895Z" fill="url(#paint10_linear_233_2868)"/>
<path d="M7.31679 4.39329C7.73662 4.05343 8.17146 3.73355 8.62128 3.43367C9.58091 2.78892 10.5855 2.23413 11.6501 1.78431C12.7747 1.30449 13.9592 0.929639 15.1737 0.674738C16.4183 0.404843 17.7227 0.269895 19.0422 0.269895C20.3017 0.269895 21.5313 0.404843 22.7158 0.629755C22.8058 0.649747 22.9007 0.66974 23.0007 0.689732L23.0457 0.419837C22.9557 0.399845 22.8658 0.379852 22.7758 0.35986C21.5613 0.119953 20.3167 0 19.0422 0C17.6928 0 16.3883 0.134947 15.1138 0.404843C13.8842 0.659744 12.6847 1.0346 11.5451 1.52941C10.4656 1.99423 9.43097 2.54901 8.47134 3.20875C8.01152 3.50864 7.57169 3.82851 7.15186 4.16838L7.31679 4.39329Z" fill="url(#paint11_linear_233_2868)"/>
<path d="M5.77262 5.77289C6.26243 5.28308 6.77723 4.82326 7.31702 4.39343L7.15209 4.16852C6.6023 4.60835 6.07751 5.07816 5.5777 5.57797C4.64806 6.49262 3.82338 7.51222 3.11865 8.60679L3.34356 8.75674C4.04829 7.67715 4.85798 6.67254 5.77262 5.77289Z" fill="url(#paint12_linear_233_2868)"/>
<path d="M22.311 35.1014C22.311 34.6666 22.6709 34.3217 23.0907 34.3217C23.5256 34.3217 23.8704 34.6666 23.8704 35.1014C23.8704 35.5362 23.5256 35.8811 23.0907 35.8811C22.6709 35.8811 22.311 35.5362 22.311 35.1014Z" fill="#F8F7F7"/>
<path d="M14.439 2.98394C14.439 2.5641 14.7838 2.21924 15.2187 2.21924C15.6535 2.21924 15.9984 2.5641 15.9984 2.98394C15.9984 3.41877 15.6535 3.76364 15.2187 3.76364C14.7838 3.76364 14.439 3.41877 14.439 2.98394Z" fill="#F8F7F7"/>
<path d="M2.02393 16.1337C2.02393 15.6989 2.36879 15.354 2.78863 15.354C3.22346 15.354 3.56832 15.6989 3.56832 16.1337C3.56832 16.5685 3.22346 16.9134 2.78863 16.9134C2.36879 16.9134 2.02393 16.5685 2.02393 16.1337Z" fill="#F8F7F7"/>
<path d="M6.34229 30.4981C6.34229 30.0783 6.68715 29.7184 7.12198 29.7184C7.55682 29.7184 7.90168 30.0783 7.90168 30.4981C7.90168 30.933 7.55682 31.2778 7.12198 31.2778C6.68715 31.2778 6.34229 30.933 6.34229 30.4981Z" fill="#F8F7F7"/>
<path d="M34.2915 22.851C34.2915 22.4162 34.6514 22.0714 35.0712 22.0714C35.506 22.0714 35.8509 22.4162 35.8509 22.851C35.8509 23.2709 35.506 23.6158 35.0712 23.6158C34.6514 23.6158 34.2915 23.2709 34.2915 22.851Z" fill="#F8F7F7"/>
<path d="M30.4678 8.03708C30.4678 7.60225 30.8126 7.25739 31.2475 7.25739C31.6823 7.25739 32.0272 7.60225 32.0272 8.03708C32.0272 8.47191 31.6823 8.81678 31.2475 8.81678C30.8126 8.81678 30.4678 8.47191 30.4678 8.03708Z" fill="#F8F7F7"/>
<path fill-rule="evenodd" clip-rule="evenodd" d="M27.7389 27.7393C27.1541 28.3241 26.5394 28.8339 25.8796 29.2688C25.2349 29.7036 24.5751 30.0634 23.8854 30.3483C23.1357 30.6632 22.371 30.9181 21.5763 31.0681C20.7516 31.248 19.897 31.3379 19.0423 31.3379C18.2326 31.3379 17.4379 31.263 16.6432 31.098C15.9035 30.9581 15.1788 30.7482 14.4691 30.4683C13.7344 30.1684 13.0146 29.7935 12.3249 29.3437C11.6202 28.8939 10.9604 28.3541 10.3457 27.7393C10.1957 27.5894 10.0458 27.4295 9.89585 27.2595C9.78589 27.1396 9.68093 27.0146 9.58097 26.8847C9.54099 26.8447 9.501 26.7997 9.46101 26.7497C9.38104 26.6498 9.30108 26.5498 9.22111 26.4498C9.19112 26.3999 9.16114 26.3549 9.13115 26.3149C9.02119 26.165 8.91623 26.02 8.81626 25.8801C8.39643 25.2353 8.03657 24.5756 7.73668 23.8858C7.4218 23.1361 7.1819 22.3714 7.01696 21.5767C6.83703 20.7521 6.74707 19.8974 6.74707 19.0427C6.74707 18.248 6.83703 17.4383 6.98697 16.6437C7.13692 15.9039 7.35184 15.1792 7.63173 14.4695C7.93161 13.7348 8.29147 13.0151 8.74129 12.3253C9.20611 11.6356 9.73091 10.9609 10.3457 10.3461C10.9304 9.77632 11.5602 9.26652 12.2199 8.81669C12.8497 8.39686 13.5244 8.037 14.2142 7.73711C14.9489 7.42224 15.7286 7.18233 16.5083 7.01739C17.3479 6.83746 18.2026 6.7475 19.0423 6.7475C19.852 6.7475 20.6617 6.83746 21.4414 6.98741C22.1911 7.13735 22.9108 7.34726 23.6155 7.63215C24.3652 7.93204 25.0849 8.2919 25.7597 8.74172C25.9196 8.85168 26.0746 8.96164 26.2245 9.0716C26.2745 9.10158 26.3245 9.13657 26.3745 9.17655C26.4844 9.25652 26.5894 9.33649 26.6893 9.41646C26.7393 9.45645 26.7893 9.49643 26.8393 9.53642C26.9692 9.64637 27.1042 9.76133 27.2441 9.88128L27.2741 9.91127C27.434 10.0512 27.589 10.1962 27.7389 10.3461C27.8889 10.496 28.0288 10.646 28.1588 10.7959L28.2037 10.8259C28.2037 10.8359 28.2087 10.8459 28.2187 10.8559C28.3187 10.9759 28.4187 11.0908 28.5186 11.2008C28.5586 11.2507 28.5936 11.2957 28.6236 11.3357C28.7035 11.4457 28.7835 11.5506 28.8635 11.6506C28.9035 11.6906 28.9385 11.7356 28.9684 11.7855C29.0684 11.9255 29.1684 12.0704 29.2683 12.2204C29.7032 12.8501 30.063 13.5249 30.3479 14.2146C30.6628 14.9493 30.9027 15.729 31.0676 16.5087C31.2476 17.3484 31.3375 18.203 31.3375 19.0427C31.3375 19.8524 31.2626 20.6621 31.0976 21.4568C30.9627 22.1915 30.7378 22.9112 30.4679 23.6159C30.168 24.3657 29.7931 25.0854 29.3433 25.7601C28.8935 26.4648 28.3537 27.1246 27.7389 27.7393Z" fill="url(#paint13_linear_233_2868)"/>
<path fill-rule="evenodd" clip-rule="evenodd" d="M31.0827 19.0427C31.0827 19.8524 30.9928 20.6321 30.8428 21.3968C30.7079 22.1315 30.483 22.8363 30.2131 23.526C29.9132 24.2607 29.5533 24.9654 29.1185 25.6102C28.6687 26.3149 28.1439 26.9597 27.5591 27.5594C26.9893 28.1142 26.3746 28.609 25.7298 29.0588C25.1151 29.4637 24.4703 29.8235 23.7806 30.1084C23.0609 30.4233 22.3111 30.6632 21.5315 30.8281C20.7218 30.9931 19.8971 31.083 19.0424 31.083C18.8225 31.083 18.6076 31.0781 18.3977 31.0681C18.3777 31.0681 18.3577 31.0631 18.3377 31.0531C18.2277 31.0531 18.1128 31.0481 17.9928 31.0381C17.9728 31.0381 17.9478 31.0331 17.9179 31.0231C17.8579 31.0231 17.8029 31.0181 17.7529 31.0081C17.623 30.9981 17.493 30.9831 17.3631 30.9631C17.3131 30.9531 17.2631 30.9431 17.2131 30.9331C17.0332 30.9131 16.8583 30.8831 16.6883 30.8431C15.9536 30.7082 15.2489 30.4833 14.5742 30.2134C13.8394 29.9135 13.1347 29.5536 12.475 29.1188C11.7702 28.669 11.1255 28.1442 10.5407 27.5594C9.98594 26.9896 9.47613 26.3899 9.0413 25.7301C8.63646 25.1154 8.2766 24.4706 7.97672 23.7809C7.67684 23.0612 7.43693 22.3115 7.27199 21.5318C7.10706 20.7221 7.01709 19.8974 7.01709 19.0427C7.01709 18.248 7.09206 17.4533 7.242 16.6886C7.39194 15.9539 7.60186 15.2492 7.87176 14.5745C8.17164 13.8397 8.5465 13.135 8.96633 12.4753C9.43115 11.7855 9.95595 11.1258 10.5407 10.541C11.0955 9.98624 11.7103 9.47644 12.37 9.04161C12.9798 8.63177 13.6245 8.27691 14.3043 7.97702C15.024 7.67714 15.7887 7.43723 16.5684 7.2723C16.7483 7.23231 16.9282 7.19733 17.1082 7.16734C17.1681 7.15734 17.2231 7.15234 17.2731 7.15234C17.4131 7.13235 17.548 7.11236 17.678 7.09237C17.7379 7.08237 17.7979 7.07737 17.8579 7.07737C18.0278 7.05738 18.1977 7.04239 18.3677 7.03239H18.4127C18.6226 7.02239 18.8325 7.0174 19.0424 7.0174C19.2423 7.0174 19.4423 7.02239 19.6422 7.03239H19.6872C19.7471 7.03239 19.8021 7.03739 19.8521 7.04738C19.9521 7.04738 20.052 7.05238 20.152 7.06238C20.112 7.06238 20.072 7.05738 20.032 7.04738C20.082 7.05738 20.127 7.06238 20.167 7.06238C20.227 7.07237 20.2869 7.07737 20.3469 7.07737C20.4669 7.09736 20.5918 7.11736 20.7218 7.13735C20.7718 7.13735 20.8267 7.14235 20.8867 7.15234C21.0566 7.18233 21.2266 7.21232 21.3965 7.24231C22.1312 7.39225 22.836 7.60217 23.5257 7.87206C24.2604 8.17195 24.9651 8.5468 25.6099 8.96664C26.3146 9.43146 26.9593 9.95625 27.5591 10.541C28.1139 11.0958 28.6087 11.7106 29.0585 12.3703C29.4684 12.9801 29.8182 13.6298 30.1081 14.3196C30.423 15.0243 30.6629 15.789 30.8278 16.5687C30.9928 17.3634 31.0827 18.2031 31.0827 19.0427ZM20.032 7.04738C19.9721 7.04738 19.9121 7.04738 19.8521 7.04738C19.8021 7.03739 19.7522 7.03239 19.7022 7.03239C19.8121 7.04239 19.9221 7.04738 20.032 7.04738ZM17.9328 31.0231C17.9628 31.0331 17.9928 31.0381 18.0228 31.0381C18.0128 31.0381 18.0028 31.0381 17.9928 31.0381C17.9728 31.0381 17.9528 31.0331 17.9328 31.0231ZM18.3977 31.0681C18.3777 31.0681 18.3577 31.0631 18.3377 31.0531C18.2977 31.0531 18.2627 31.0531 18.2327 31.0531C18.2827 31.0531 18.3377 31.0581 18.3977 31.0681Z" fill="#FF4141"/>
<defs>
<linearGradient id="paint0_linear_233_2868" x1="5.39635" y1="5.43762" x2="32.6145" y2="5.43762" gradientUnits="userSpaceOnUse">
<stop stop-color="#006BB3"/>
<stop offset="1" stop-color="#093679"/>
</linearGradient>
<linearGradient id="paint1_linear_233_2868" x1="1.05176" y1="27.3941" x2="2.17408" y2="27.0615" gradientUnits="userSpaceOnUse">
<stop stop-color="#8D8E90"/>
<stop offset="1" stop-color="white"/>
</linearGradient>
<linearGradient id="paint2_linear_233_2868" x1="36.0896" y1="30.6029" x2="34.474" y2="28.9873" gradientUnits="userSpaceOnUse">
<stop stop-color="#8D8E90"/>
<stop offset="1" stop-color="white"/>
</linearGradient>
<linearGradient id="paint3_linear_233_2868" x1="14.789" y1="38.3221" x2="15.218" y2="37.2112" gradientUnits="userSpaceOnUse">
<stop stop-color="#8D8E90"/>
<stop offset="1" stop-color="white"/>
</linearGradient>
<linearGradient id="paint4_linear_233_2868" x1="37.6368" y1="10.6117" x2="35.6104" y2="11.0794" gradientUnits="userSpaceOnUse">
<stop stop-color="#8D8E90"/>
<stop offset="1" stop-color="white"/>
</linearGradient>
<linearGradient id="paint5_linear_233_2868" x1="23.6855" y1="-1.11272" x2="22.8965" y2="0.797265" gradientUnits="userSpaceOnUse">
<stop stop-color="#8D8E90"/>
<stop offset="1" stop-color="white"/>
</linearGradient>
<linearGradient id="paint6_linear_233_2868" x1="2.24493" y1="8.30141" x2="0.327466" y2="7.63718" gradientUnits="userSpaceOnUse">
<stop stop-color="#0071B2"/>
<stop offset="1" stop-color="#093679"/>
</linearGradient>
<linearGradient id="paint7_linear_233_2868" x1="1.83425" y1="27.1485" x2="0.379949" y2="28.5323" gradientUnits="userSpaceOnUse">
<stop stop-color="#0064A8"/>
<stop offset="1" stop-color="#093679"/>
</linearGradient>
<linearGradient id="paint8_linear_233_2868" x1="14.8347" y1="36.8685" x2="15.7771" y2="40.5825" gradientUnits="userSpaceOnUse">
<stop stop-color="#003D7C"/>
<stop offset="1" stop-color="#052C65"/>
</linearGradient>
<linearGradient id="paint9_linear_233_2868" x1="29.8848" y1="21.9151" x2="32.9346" y2="26.573" gradientUnits="userSpaceOnUse">
<stop stop-color="#1D67AB"/>
<stop offset="1" stop-color="#093679"/>
</linearGradient>
<linearGradient id="paint10_linear_233_2868" x1="34.2246" y1="12.1062" x2="36.4435" y2="10.8305" gradientUnits="userSpaceOnUse">
<stop stop-color="#0071B2"/>
<stop offset="1" stop-color="#093679"/>
</linearGradient>
<linearGradient id="paint11_linear_233_2868" x1="22.3533" y1="-2.05705" x2="21.978" y2="-3.38779" gradientUnits="userSpaceOnUse">
<stop stop-color="#0071B2"/>
<stop offset="1" stop-color="#093679"/>
</linearGradient>
<linearGradient id="paint12_linear_233_2868" x1="1.60694" y1="7.20709" x2="3.47251" y2="8.93517" gradientUnits="userSpaceOnUse">
<stop stop-color="#8D8E90"/>
<stop offset="1" stop-color="white"/>
</linearGradient>
<linearGradient id="paint13_linear_233_2868" x1="6.70509" y1="6.7544" x2="31.29" y2="6.7544" gradientUnits="userSpaceOnUse">
<stop stop-color="#006BB3"/>
<stop offset="1" stop-color="#093679"/>
</linearGradient>
</defs>
</svg>
