<svg width="32" height="32" viewBox="0 0 32 32" fill="none" xmlns="http://www.w3.org/2000/svg">
<path fill-rule="evenodd" clip-rule="evenodd" d="M27.8768 16.0855C27.8768 15.3 27.8043 14.5386 27.6593 13.7893C27.5143 13.0762 27.2967 12.3874 27.0309 11.7227C26.7529 10.9976 26.3904 10.3208 25.9674 9.68027C25.5202 8.9914 25.0126 8.36296 24.4325 7.78287C23.8887 7.23903 23.2965 6.75561 22.656 6.32054C22.0638 5.92172 21.4233 5.58333 20.7586 5.29329C20.0576 4.99115 19.3204 4.76153 18.559 4.59234C17.7735 4.43523 16.9638 4.33854 16.142 4.33854C15.9244 4.3466 15.7109 4.35466 15.5015 4.36271C15.3484 4.37077 15.1993 4.38286 15.0543 4.39897C15.0865 4.39091 15.1228 4.38688 15.1631 4.38688C15.1228 4.38688 15.0785 4.39091 15.0301 4.39897C14.9818 4.40703 14.9294 4.41106 14.873 4.41106C14.7441 4.42717 14.6192 4.44328 14.4984 4.4594C14.45 4.46745 14.3977 4.47551 14.3413 4.48357C14.1721 4.50774 14.0069 4.53594 13.8458 4.56816C13.1206 4.71319 12.4318 4.91864 11.7671 5.18452C11.054 5.47457 10.3652 5.83713 9.72465 6.26011C9.04787 6.70727 8.40735 7.21486 7.83934 7.78287C7.2955 8.32671 6.8 8.93097 6.37702 9.5715C5.96611 10.1637 5.62772 10.8042 5.33768 11.4689C5.03554 12.1698 4.80592 12.9071 4.64881 13.6684C4.47961 14.454 4.39502 15.2637 4.39502 16.0855C4.39502 16.871 4.46753 17.6445 4.61255 18.3817C4.75758 19.1068 4.97512 19.7957 5.24099 20.4604C5.53104 21.1734 5.88152 21.8623 6.3045 22.5028C6.75166 23.1796 7.25925 23.8201 7.83934 24.3881C8.38318 24.932 8.97536 25.4275 9.61589 25.8505C10.2202 26.2493 10.8486 26.5998 11.5133 26.8898C12.2142 27.1919 12.9514 27.4216 13.7128 27.5787C13.8901 27.619 14.0673 27.6512 14.2446 27.6753C14.301 27.6834 14.3574 27.6915 14.4138 27.6995C14.5427 27.7237 14.6716 27.7438 14.8005 27.7599C14.8569 27.768 14.9133 27.772 14.9697 27.772C15.1389 27.7881 15.3081 27.8043 15.4773 27.8204H15.5256C15.727 27.8284 15.9325 27.8325 16.142 27.8325C16.3353 27.8325 16.5247 27.8284 16.71 27.8204H16.7704C16.9235 27.8123 17.0806 27.8002 17.2417 27.7841C17.2901 27.7761 17.3425 27.768 17.3988 27.7599C17.5278 27.7519 17.6526 27.7398 17.7735 27.7237C17.8218 27.7156 17.8742 27.7076 17.9306 27.6995C18.0998 27.6673 18.269 27.6351 18.4382 27.6028C19.1512 27.4699 19.8401 27.2524 20.5048 26.9865C21.2178 26.6964 21.9067 26.346 22.5472 25.923C23.224 25.4758 23.8645 24.9682 24.4325 24.3881C24.9764 23.8443 25.4719 23.2521 25.9069 22.6116C26.3058 22.0073 26.6441 21.3789 26.9342 20.7142C27.2363 20.0132 27.4659 19.276 27.6351 18.5147C27.7922 17.7291 27.8768 16.9194 27.8768 16.0855Z" fill="#C23685"/>
<path d="M4.7334 11.2031C4.4071 11.9524 4.16539 12.7258 3.99619 13.5356C3.92368 13.8659 3.86728 14.2043 3.827 14.5507L0.902344 14.1761C0.950685 13.7571 1.01917 13.3382 1.1078 12.9192C1.31325 11.9282 1.62747 10.9614 2.0142 10.0429C2.08671 9.87369 2.16325 9.70853 2.24382 9.54739L4.91468 10.8043C4.85022 10.9332 4.7898 11.0661 4.7334 11.2031Z" fill="#F9FBF7"/>
<path d="M28.9771 7.67414L26.5117 9.29358C26.0404 8.58054 25.5086 7.91585 24.9043 7.32367C24.5821 6.99333 24.2437 6.68717 23.8892 6.40518L25.7261 4.09688C26.1733 4.45944 26.5963 4.83409 26.9951 5.2329C27.7323 5.97011 28.397 6.79191 28.9771 7.67414Z" fill="#F9FBF7"/>
<path d="M11.5257 4.56821C10.9537 4.80186 10.4099 5.06774 9.89421 5.36584L8.40771 2.81584C9.05227 2.44522 9.72502 2.11892 10.426 1.83692C11.2236 1.51062 12.0575 1.25683 12.9035 1.07555L13.5319 3.96395C12.843 4.10897 12.1663 4.31442 11.5257 4.56821Z" fill="#F9FBF7"/>
<path d="M27.5387 20.968C27.865 20.2308 28.1067 19.4573 28.2759 18.6476C28.3484 18.3172 28.4048 17.9789 28.4451 17.6324L31.3698 17.995C31.3214 18.422 31.2529 18.8409 31.1643 19.2518C30.9589 20.2549 30.6446 21.2097 30.2579 22.1282C30.1854 22.2974 30.1088 22.4665 30.0283 22.6357L27.3574 21.3789C27.4219 21.2419 27.4823 21.1049 27.5387 20.968Z" fill="#F9FBF7"/>
<path d="M20.7469 27.6029C21.3189 27.3773 21.8628 27.1114 22.3784 26.8053L23.8649 29.3553C23.2204 29.734 22.5476 30.0643 21.8467 30.3463C21.049 30.6605 20.2272 30.9143 19.3692 31.1077L18.7407 28.2193C19.4336 28.0662 20.1023 27.8607 20.7469 27.6029Z" fill="#F9FBF7"/>
<path fill-rule="evenodd" clip-rule="evenodd" d="M31.4906 16.0854C31.4906 15.0582 31.3939 14.0551 31.2006 13.0883C31.0072 12.1456 30.7413 11.2392 30.3908 10.3812C30.0162 9.43851 29.5449 8.54419 29.001 7.69822L28.9769 7.67404L26.5114 9.29348C26.0401 8.58044 25.5084 7.91575 24.9041 7.32357C24.5818 6.99323 24.2434 6.68707 23.8889 6.40508L25.7259 4.09678C25.3875 3.82285 25.033 3.56503 24.6624 3.32332C23.8768 2.79156 23.055 2.34441 22.1849 1.96976C21.2664 1.58303 20.2996 1.26881 19.2965 1.06336C18.2813 0.845823 17.2178 0.737053 16.1422 0.737053C15.1029 0.737053 14.0998 0.833736 13.133 1.0271C13.0605 1.04321 12.9839 1.05933 12.9033 1.07545L13.5318 3.96384C12.8389 4.10887 12.1702 4.31029 11.5256 4.56811C10.9536 4.80176 10.4097 5.06764 9.89409 5.36574L8.40759 2.81573C8.182 2.9527 7.96446 3.08967 7.75498 3.22664C6.86067 3.80673 6.02678 4.48351 5.27749 5.23281C4.56445 5.94584 3.92393 6.7193 3.36801 7.56528C2.94502 8.19371 2.57037 8.85841 2.24407 9.54727L4.91493 10.8041C4.85047 10.9331 4.79005 11.066 4.73365 11.203C4.40734 11.9523 4.16564 12.7257 3.99644 13.5354C3.92393 13.8658 3.86753 14.2042 3.82725 14.5506L0.902592 14.176C0.822023 14.8044 0.781738 15.4409 0.781738 16.0854C0.781738 17.1127 0.878424 18.1158 1.07179 19.0947C1.26516 20.0253 1.53103 20.9317 1.88151 21.8018C2.25615 22.7445 2.72748 23.6388 3.27132 24.4727L3.29549 24.5089L5.7609 22.8895C6.23223 23.6025 6.76399 24.2672 7.36825 24.8594C7.69053 25.1817 8.02892 25.4878 8.38342 25.7779L6.54645 28.0741C6.88484 28.3521 7.2474 28.618 7.60996 28.8597C8.39551 29.3793 9.21731 29.8386 10.0995 30.2132C11.0059 30.5999 11.9728 30.9021 12.9759 31.1196C13.991 31.3251 15.0545 31.4459 16.1422 31.4459C17.1695 31.4459 18.1726 31.3372 19.1394 31.1559C19.2119 31.1398 19.2884 31.1236 19.369 31.1075L18.7406 28.2191C19.4335 28.0661 20.1022 27.8606 20.7467 27.6028C21.3188 27.3772 21.8626 27.1113 22.3783 26.8051L23.8647 29.3552C24.0903 29.2262 24.3119 29.0933 24.5294 28.9563C25.4117 28.3642 26.2456 27.6995 26.9949 26.9502C27.7079 26.2371 28.3484 25.4516 28.9043 24.6177C29.3233 23.9893 29.6979 23.3286 30.0283 22.6357L27.3574 21.3788C27.4219 21.2419 27.4823 21.1049 27.5387 20.9679C27.865 20.2307 28.1067 19.4573 28.2759 18.6475C28.3484 18.3092 28.4048 17.9708 28.4451 17.6324L31.3698 17.9949C31.4503 17.3745 31.4906 16.7381 31.4906 16.0854ZM5.74882 22.8653L5.7609 22.8895C5.75285 22.8814 5.74882 22.8734 5.74882 22.8653ZM26.1489 12.0852C26.3906 12.6895 26.584 13.3179 26.7169 13.9826C26.8498 14.6594 26.9223 15.3724 26.9223 16.0854C26.9223 16.8468 26.8377 17.5961 26.6927 18.3092C26.5356 19.0101 26.3302 19.6869 26.0522 20.3274C25.7863 20.9438 25.4721 21.5239 25.0975 22.0798C24.7107 22.6599 24.2636 23.2158 23.756 23.7113C23.2363 24.2431 22.6441 24.7023 22.0278 25.1132C21.4356 25.4999 20.8072 25.8262 20.1425 26.0921C19.5382 26.3459 18.8977 26.5393 18.2451 26.6601C17.5683 26.8051 16.8553 26.8777 16.1422 26.8777C15.3688 26.8777 14.6315 26.7931 13.9185 26.636C13.2176 26.4909 12.5408 26.2734 11.8882 26.0075C11.2839 25.7416 10.7038 25.4274 10.1479 25.0528C9.56779 24.666 9.01186 24.2068 8.51636 23.7113C7.9846 23.1795 7.51328 22.5994 7.10238 21.971C6.72773 21.3909 6.38934 20.7625 6.12346 20.0978C5.88176 19.4935 5.68839 18.853 5.55545 18.2004C5.42251 17.5115 5.35 16.8106 5.35 16.0854C5.35 15.3241 5.4346 14.5869 5.57962 13.8617C5.73673 13.1608 5.94218 12.4961 6.22014 11.8435C6.48602 11.2392 6.80024 10.647 7.17489 10.1032C7.56162 9.51102 8.02086 8.96718 8.51636 8.47168C9.03603 7.93992 9.62821 7.46859 10.2446 7.05769C10.8367 6.67096 11.4652 6.34466 12.1299 6.07878C12.7341 5.83707 13.3747 5.64371 14.0273 5.51077C14.7041 5.37783 15.4171 5.30532 16.1422 5.30532C16.9036 5.30532 17.6408 5.38991 18.3538 5.53494C19.0548 5.67996 19.7316 5.8975 20.3842 6.17546C20.9884 6.44134 21.5685 6.75556 22.1245 7.11812C22.7046 7.51693 23.2605 7.96409 23.756 8.47168C24.2877 8.99135 24.7591 9.57144 25.17 10.1999C25.5446 10.7921 25.883 11.4205 26.1489 12.0852Z" fill="#D94297"/>
<path d="M7.36817 24.8595C7.69045 25.1818 8.02884 25.488 8.38334 25.778L6.54637 28.0742C6.10324 27.7197 5.68025 27.3451 5.27741 26.9503C4.5402 26.201 3.87551 25.3913 3.29541 24.509L5.76082 22.8896C6.23215 23.6026 6.7639 24.2673 7.36817 24.8595Z" fill="#F9FBF7"/>
<path d="M25.8347 18.1279C25.7018 18.7805 25.5084 19.3969 25.2426 19.9891C25.0008 20.5571 24.7108 21.0888 24.3724 21.5964C24.0098 22.1282 23.5989 22.6358 23.1397 23.095C22.6563 23.5784 22.1245 24.0135 21.5444 24.3881C21.0006 24.7386 20.4326 25.0407 19.8162 25.2945C19.2603 25.5121 18.6802 25.6933 18.0759 25.8142C17.4475 25.9351 16.7949 26.0076 16.1423 26.0076C15.4413 26.0076 14.7525 25.923 14.0878 25.79C13.4473 25.6571 12.8309 25.4516 12.2387 25.1979C11.6707 24.9561 11.139 24.6661 10.6314 24.3277C10.0996 23.9651 9.59203 23.5542 9.13278 23.095C8.64937 22.6116 8.2143 22.0798 7.83965 21.4997C7.48918 20.9559 7.18705 20.3758 6.93325 19.7715C6.71572 19.2156 6.53443 18.6355 6.41358 18.0312C6.29273 17.4028 6.22021 16.7502 6.22021 16.0855C6.22021 15.3845 6.29273 14.7078 6.43775 14.0431C6.57069 13.4026 6.77614 12.7862 7.02993 12.194C7.27164 11.626 7.56169 11.0942 7.90008 10.5867C8.26264 10.0428 8.67354 9.54733 9.13278 9.08808C9.6162 8.60467 10.148 8.1696 10.7281 7.79495C11.2679 7.44045 11.8439 7.13831 12.4563 6.88855C13.0122 6.67101 13.5923 6.48973 14.1965 6.36888C14.6719 6.2722 15.1553 6.21177 15.6468 6.1876C15.1634 6.21177 14.688 6.2722 14.2207 6.36888C13.6285 6.48973 13.0484 6.65893 12.4925 6.87646C11.9003 7.11817 11.3202 7.42031 10.7885 7.77078C10.2205 8.14543 9.68871 8.56841 9.21738 9.05182C8.75814 9.49898 8.34724 10.0066 7.99676 10.5383C7.65837 11.0379 7.36832 11.5656 7.12662 12.1215C6.88491 12.7016 6.69154 13.318 6.54652 13.9585C6.41358 14.599 6.34107 15.2758 6.34107 15.9767C6.34107 16.6293 6.4015 17.2699 6.53443 17.8862C6.6432 18.4784 6.82448 19.0585 7.04202 19.6144C7.28373 20.2187 7.58586 20.7867 7.93634 21.3185C8.31098 21.8865 8.73397 22.4182 9.21738 22.8895C9.66454 23.3488 10.16 23.7597 10.7039 24.1102C11.2034 24.4486 11.7311 24.7386 12.2871 24.9803C12.8672 25.222 13.4835 25.4275 14.1119 25.5604C14.7646 25.6933 15.4413 25.7659 16.1423 25.7659C16.7949 25.7659 17.4354 25.7054 18.0518 25.5725C18.648 25.4597 19.224 25.2905 19.78 25.0649C20.3722 24.8232 20.9523 24.5211 21.484 24.1706C22.052 23.796 22.5838 23.373 23.0551 22.8895C23.5143 22.4424 23.9252 21.9469 24.2757 21.4031C24.6141 20.9076 24.9042 20.3758 25.1459 19.8199C25.3876 19.2398 25.593 18.6234 25.726 17.995C25.8589 17.3424 25.9314 16.6656 25.9314 15.9767C25.9314 15.312 25.871 14.6715 25.738 14.0552C25.6293 13.463 25.448 12.8829 25.2305 12.327C24.9888 11.7348 24.6866 11.1547 24.3362 10.6229C23.9615 10.0549 23.5385 9.52315 23.0551 9.05182C22.6079 8.59258 22.1124 8.18168 21.5686 7.83121C21.0691 7.49282 20.5414 7.2068 19.9854 6.97315C19.4053 6.71935 18.789 6.52599 18.1605 6.39305C17.5079 6.24802 16.8311 6.17551 16.1423 6.17551C16.8311 6.17551 17.52 6.24802 18.1847 6.39305C18.8252 6.52599 19.4416 6.71935 20.0338 6.97315C20.6018 7.21485 21.1335 7.51699 21.6411 7.84329C22.185 8.20585 22.6805 8.62884 23.1397 9.08808C23.6231 9.5715 24.0582 10.1033 24.4328 10.6833C24.7833 11.2151 25.0854 11.7952 25.3392 12.3995C25.5568 12.9675 25.738 13.5476 25.8589 14.1518C25.9798 14.7803 26.0523 15.4208 26.0523 16.0855C26.0523 16.7864 25.9798 17.4753 25.8347 18.1279Z" fill="#A3FF90"/>
<path fill-rule="evenodd" clip-rule="evenodd" d="M8.37156 23.8443C8.89123 24.364 9.45924 24.8232 10.0393 25.222C10.6073 25.5967 11.2116 25.9109 11.8159 26.1768C12.4927 26.4548 13.1694 26.6723 13.8704 26.8173C14.6197 26.9744 15.3811 27.059 16.1424 27.059C16.8555 27.059 17.5685 26.9865 18.2815 26.8415C18.9422 26.7126 19.5868 26.5232 20.2152 26.2735C20.8799 26.0076 21.5204 25.6813 22.1247 25.2825C22.7531 24.8716 23.3453 24.4002 23.9012 23.8443C24.4209 23.3246 24.8681 22.7687 25.2669 22.1765C25.6415 21.6206 25.9557 21.0163 26.2216 20.4C26.5117 19.7353 26.7171 19.0464 26.8742 18.3455C27.0193 17.6083 27.1038 16.8469 27.1038 16.0855C27.1038 15.3725 27.0313 14.6474 26.8984 13.9464C26.7655 13.2817 26.5721 12.6412 26.3183 12.0128C26.0524 11.3481 25.7261 10.7075 25.3273 10.0912C24.9164 9.47484 24.4451 8.88266 23.9012 8.32673C23.3816 7.80706 22.8135 7.3599 22.2335 6.96109C21.6654 6.58644 21.0612 6.26014 20.4569 6.00635C19.7922 5.7163 19.1034 5.49876 18.4024 5.35374C17.6531 5.19663 16.8917 5.12411 16.1424 5.12411C15.4173 5.12411 14.7043 5.19663 13.9912 5.32957C13.3386 5.46251 12.686 5.65587 12.0576 5.89758C11.3929 6.16346 10.7524 6.50184 10.1481 6.90066C9.51967 7.29948 8.92749 7.78289 8.37156 8.32673C7.85189 8.8464 7.40473 9.40233 7.00592 9.99451C6.63127 10.5625 6.31705 11.1547 6.05117 11.7711C5.76113 12.4358 5.55568 13.1246 5.39857 13.8256C5.25354 14.5749 5.16895 15.3362 5.16895 16.0855C5.16895 16.8106 5.24146 17.5237 5.37439 18.2367C5.50733 18.8893 5.7007 19.5419 5.95449 20.1704C6.22037 20.8351 6.54667 21.4756 6.94549 22.0799C7.35639 22.7083 7.82772 23.3005 8.37156 23.8443ZM10.5348 24.4848C9.991 24.1223 9.48341 23.6993 9 23.2159C8.5045 22.7204 8.05734 22.1765 7.6827 21.5964C7.32014 21.0405 7.018 20.4483 6.77629 19.8441C6.54667 19.264 6.36539 18.6718 6.24454 18.0554C6.12369 17.4149 6.05117 16.7502 6.05117 16.0855C6.05117 15.3967 6.12369 14.6957 6.26871 14.0068C6.40165 13.3663 6.6071 12.7379 6.86089 12.1215C7.1026 11.5535 7.40473 11.0097 7.74312 10.49C8.10568 9.94617 8.52867 9.43858 9 8.95517C9.50758 8.44759 10.0514 8.01251 10.6315 7.63787C11.1874 7.27531 11.7796 6.97317 12.3839 6.73147C12.964 6.50184 13.5562 6.32057 14.1604 6.19971C14.8131 6.06677 15.4777 6.00635 16.1424 6.00635C16.8313 6.00635 17.5323 6.07886 18.209 6.22388C18.8616 6.35682 19.4901 6.56227 20.1064 6.81606C20.6744 7.05777 21.2183 7.34782 21.738 7.69829C22.2818 8.06085 22.7894 8.48384 23.2728 8.95517C23.7683 9.46276 24.2155 10.0066 24.5901 10.5746C24.9527 11.1426 25.2548 11.7348 25.4965 12.3391C25.7301 12.9192 25.9074 13.5113 26.0283 14.1156C26.1491 14.7682 26.2216 15.4329 26.2216 16.0855C26.2216 16.7865 26.1491 17.4874 26.0041 18.1642C25.8711 18.8168 25.6657 19.4453 25.4119 20.0616C25.1702 20.6175 24.8681 21.1735 24.5297 21.6931C24.1671 22.237 23.7441 22.7446 23.2728 23.228C22.7652 23.7235 22.2214 24.1585 21.6413 24.5332C21.0853 24.9078 20.4932 25.21 19.8889 25.4517C19.3088 25.6853 18.7166 25.8626 18.1124 25.9834C17.4597 26.1043 16.795 26.1768 16.1424 26.1768C15.4415 26.1768 14.7405 26.0922 14.0638 25.9593C13.4112 25.8142 12.7827 25.6209 12.1664 25.355C11.6104 25.1254 11.0545 24.8232 10.5348 24.4848Z" fill="url(#paint0_linear_44_4987)"/>
<path d="M24.3724 21.5965L25.0975 22.0799C24.7107 22.66 24.2636 23.2159 23.756 23.7114L23.1396 23.0951C23.5989 22.6358 24.0098 22.1282 24.3724 21.5965Z" fill="#C23685"/>
<path d="M25.2543 19.9891L26.0519 20.3275C25.7861 20.9439 25.4718 21.524 25.0972 22.0799L24.3721 21.5965C24.7105 21.0889 25.0126 20.5571 25.2543 19.9891Z" fill="#E6EDE6"/>
<path d="M25.8344 18.128L26.6924 18.3093C26.5353 19.0102 26.3299 19.687 26.0519 20.3275L25.2422 19.9891C25.5081 19.3969 25.7014 18.7806 25.8344 18.128Z" fill="#C23685"/>
<path d="M23.1396 9.08808L23.756 8.47173C24.2878 8.9914 24.7591 9.5715 25.17 10.1999L24.4328 10.6833C24.0581 10.1033 23.6231 9.5715 23.1396 9.08808Z" fill="#E6EDE6"/>
<path d="M6.9334 19.7716L6.12368 20.0979C5.88197 19.4936 5.6886 18.8531 5.55566 18.2005L6.41372 18.0313C6.53458 18.6356 6.71586 19.2157 6.9334 19.7716Z" fill="#E6EDE6"/>
<path d="M6.43765 14.0432L5.57959 13.8619C5.7367 13.1609 5.94215 12.4962 6.22011 11.8436L7.02983 12.1941C6.77604 12.7863 6.57059 13.4026 6.43765 14.0432Z" fill="#C23685"/>
<path d="M6.41361 18.0312L5.55555 18.2004C5.42261 17.5116 5.3501 16.8106 5.3501 16.0855H6.22024C6.22024 16.7502 6.29275 17.4028 6.41361 18.0312Z" fill="#C23685"/>
<path d="M6.22024 16.0855H5.3501C5.3501 15.3241 5.43469 14.5869 5.57972 13.8618L6.43778 14.0431C6.29275 14.7078 6.22024 15.3846 6.22024 16.0855Z" fill="#E6EDE6"/>
<path d="M7.02993 12.1941L6.22021 11.8436C6.48609 11.2394 6.80031 10.6472 7.17496 10.1033L7.90008 10.5867C7.56169 11.0943 7.27164 11.6261 7.02993 12.1941Z" fill="#E6EDE6"/>
<path d="M9.13247 9.08807L8.51611 8.47172C9.03578 7.93997 9.62797 7.46864 10.2443 7.05774L10.7277 7.79494C10.1476 8.16959 9.61588 8.60466 9.13247 9.08807Z" fill="#E6EDE6"/>
<path d="M7.90041 10.5866L7.17529 10.1032C7.56202 9.51101 8.02126 8.96717 8.51676 8.47167L9.13312 9.08803C8.67387 9.54727 8.26297 10.0428 7.90041 10.5866Z" fill="#C23685"/>
<path d="M10.7276 7.79498L10.2441 7.05778C10.8363 6.67104 11.4648 6.34474 12.1295 6.07886L12.4558 6.88858C11.8434 7.13835 11.2674 7.44048 10.7276 7.79498Z" fill="#C23685"/>
<path d="M7.83966 21.4998L7.10245 21.9711C6.7278 21.391 6.38941 20.7626 6.12354 20.0979L6.93325 19.7716C7.18705 20.3759 7.48918 20.956 7.83966 21.4998Z" fill="#C23685"/>
<path d="M16.1422 26.0076V26.8777C15.3687 26.8777 14.6315 26.7931 13.9185 26.636L14.0877 25.7901C14.7523 25.923 15.4412 26.0076 16.1422 26.0076Z" fill="#E6EDE6"/>
<path d="M12.2387 25.1979L11.8882 26.0076C11.284 25.7417 10.7039 25.4275 10.1479 25.0528L10.6314 24.3277C11.1389 24.6661 11.6707 24.9561 12.2387 25.1979Z" fill="#E6EDE6"/>
<path d="M14.0877 25.7901L13.9185 26.6361C13.2176 26.4911 12.5408 26.2735 11.8882 26.0077L12.2387 25.198C12.8308 25.4517 13.4472 25.6572 14.0877 25.7901Z" fill="#C23685"/>
<path d="M9.13288 23.0951L8.51652 23.7114C7.98477 23.1797 7.51344 22.5996 7.10254 21.9711L7.83975 21.4998C8.21439 22.0799 8.64946 22.6117 9.13288 23.0951Z" fill="#E6EDE6"/>
<path d="M10.631 24.3277L10.1476 25.0529C9.56754 24.6661 9.01161 24.2069 8.51611 23.7114L9.13247 23.095C9.59171 23.5543 10.0993 23.9652 10.631 24.3277Z" fill="#C23685"/>
<path d="M25.8345 18.1279C25.9795 17.4753 26.052 16.7864 26.052 16.0855H26.9222C26.9222 16.8469 26.8376 17.5962 26.6925 18.3092L25.8345 18.1279Z" fill="#E6EDE6"/>
<path d="M25.8589 14.1519L26.717 13.9827C26.8499 14.6594 26.9224 15.3725 26.9224 16.0855H26.0523C26.0523 15.4208 25.9797 14.7803 25.8589 14.1519Z" fill="#C23685"/>
<path d="M23.1397 23.095L23.7561 23.7114C23.2364 24.2431 22.6442 24.7024 22.0278 25.1133L21.5444 24.3882C22.1245 24.0135 22.6563 23.5784 23.1397 23.095Z" fill="#E6EDE6"/>
<path d="M25.3394 12.3995L26.1491 12.0853C26.3908 12.6895 26.5841 13.318 26.7171 13.9827L25.859 14.1519C25.7382 13.5476 25.5569 12.9675 25.3394 12.3995Z" fill="#E6EDE6"/>
<path d="M12.4562 6.88855L12.1299 6.07883C12.7342 5.83712 13.3747 5.64376 14.0273 5.51082L14.1965 6.36888C13.5922 6.48973 13.0121 6.67101 12.4562 6.88855Z" fill="#E6EDE6"/>
<path d="M21.5441 24.3882L22.0275 25.1133C21.4354 25.5 20.8069 25.8263 20.1422 26.0922L19.8159 25.2946C20.4323 25.0408 21.0003 24.7387 21.5441 24.3882Z" fill="#C23685"/>
<path d="M19.816 25.2946L20.1423 26.0922C19.538 26.346 18.8975 26.5394 18.2449 26.6602L18.0757 25.8142C18.68 25.6934 19.26 25.5121 19.816 25.2946Z" fill="#E6EDE6"/>
<path d="M24.4326 10.6834L25.1698 10.1999C25.5445 10.7921 25.8829 11.4206 26.1487 12.0853L25.339 12.3995C25.0852 11.7952 24.7831 11.2151 24.4326 10.6834Z" fill="#C23685"/>
<path d="M16.1421 6.17559V5.30545C16.9035 5.30545 17.6407 5.39004 18.3537 5.53507L18.1845 6.39313C17.5198 6.2481 16.831 6.17559 16.1421 6.17559Z" fill="#E6EDE6"/>
<path d="M18.0757 25.8142L18.2449 26.6602C17.5682 26.8052 16.8551 26.8777 16.1421 26.8777V26.0076C16.7947 26.0076 17.4473 25.9351 18.0757 25.8142Z" fill="#C23685"/>
<path d="M14.1965 6.3689L14.0273 5.51084C14.7162 5.3779 15.4172 5.30539 16.1423 5.30539V6.17553C15.4776 6.17553 14.825 6.24804 14.1965 6.3689Z" fill="#C23685"/>
<path d="M18.1846 6.39305L18.3538 5.53499C19.0547 5.68001 19.7315 5.89755 20.3841 6.17551L20.0336 6.97314C19.4414 6.71935 18.8251 6.52599 18.1846 6.39305Z" fill="#C23685"/>
<path d="M20.0337 6.97318L20.3842 6.17554C20.9884 6.44142 21.5685 6.75564 22.1245 7.1182L21.641 7.84332C21.1335 7.51702 20.6017 7.21489 20.0337 6.97318Z" fill="#E6EDE6"/>
<path d="M21.6411 7.84328L22.1245 7.11816C22.7046 7.51698 23.2605 7.96414 23.756 8.47172L23.1397 9.08807C22.6804 8.62883 22.185 8.20584 21.6411 7.84328Z" fill="#C23685"/>
<path d="M2.44927 9.64396C2.3687 9.8051 2.29216 9.97026 2.21965 10.1395C1.83292 11.0338 1.53078 11.9885 1.32533 12.9674C1.24476 13.3783 1.17628 13.7933 1.11988 14.2122L0.902344 14.176C0.950685 13.757 1.01917 13.338 1.1078 12.9191C1.31325 11.9281 1.62747 10.9613 2.0142 10.0428C2.08671 9.87358 2.16325 9.70841 2.24382 9.54728L2.44927 9.64396Z" fill="url(#paint1_linear_44_4987)"/>
<path d="M26.8376 5.39C26.4388 4.99118 26.0278 4.62862 25.5928 4.27815L25.7257 4.09687C26.1729 4.45943 26.5959 4.83407 26.9947 5.23289C27.7319 5.9701 28.3966 6.7919 28.9767 7.67413L28.7954 7.79498C28.2274 6.92484 27.5627 6.11512 26.8376 5.39Z" fill="url(#paint2_linear_44_4987)"/>
<path d="M10.5106 2.04239C9.81767 2.31632 9.15298 2.6386 8.51648 3.00922L8.40771 2.81585C9.05227 2.44523 9.72502 2.11893 10.426 1.83694C11.2236 1.51063 12.0575 1.25684 12.9035 1.07556L12.9518 1.2931C12.1058 1.47438 11.2961 1.72817 10.5106 2.04239Z" fill="url(#paint3_linear_44_4987)"/>
<path d="M30.0524 22.0436C30.4391 21.1372 30.7412 20.1945 30.9467 19.2035C31.0273 18.8007 31.0957 18.3898 31.1521 17.9708L31.3697 17.995C31.3213 18.422 31.2529 18.8409 31.1642 19.2518C30.9588 20.2549 30.6446 21.2097 30.2578 22.1282C30.1853 22.2974 30.1088 22.4665 30.0282 22.6357L29.8228 22.5391C29.9033 22.3779 29.9799 22.2128 30.0524 22.0436Z" fill="url(#paint4_linear_44_4987)"/>
<path d="M21.762 30.1408C22.4549 29.8588 23.1196 29.5325 23.7561 29.1619L23.8649 29.3553C23.2203 29.734 22.5476 30.0643 21.8466 30.3463C21.049 30.6605 20.2272 30.9143 19.3691 31.1077L19.3208 30.878C20.1668 30.7088 20.9765 30.4551 21.762 30.1408Z" fill="url(#paint5_linear_44_4987)"/>
<path d="M1.12013 14.2123C1.04762 14.8246 1.00733 15.4491 0.999277 16.0855C0.999277 17.1007 1.10804 18.0917 1.28932 19.0465C1.48269 19.977 1.74857 20.8593 2.08696 21.7173C2.4616 22.6479 2.92085 23.5301 3.46469 24.3519L3.47677 24.3882L3.29549 24.509L3.27132 24.4728C2.72748 23.6389 2.25615 22.7446 1.88151 21.8019C1.53103 20.9318 1.26516 20.0254 1.07179 19.0948C0.878424 18.1159 0.781738 17.1128 0.781738 16.0855C0.781738 15.441 0.822023 14.8045 0.902592 14.1761L1.12013 14.2123Z" fill="url(#paint6_linear_44_4987)"/>
<path d="M8.51644 3.00913C8.2989 3.13804 8.08539 3.27097 7.87591 3.40794C6.99368 3.98804 6.17188 4.65273 5.43467 5.38994C4.73372 6.09089 4.10529 6.86435 3.54936 7.68615C3.13846 8.30251 2.76381 8.95512 2.44959 9.64398L2.24414 9.5473C2.57045 8.85843 2.94509 8.19374 3.36808 7.5653C3.92401 6.71933 4.56453 5.94587 5.27756 5.23283C6.02686 4.48354 6.86074 3.80676 7.75506 3.22666C7.96454 3.08969 8.18207 2.95273 8.40767 2.81576L8.51644 3.00913Z" fill="url(#paint7_linear_44_4987)"/>
<path d="M25.5929 4.27814C25.2545 4.0042 24.9041 3.74638 24.5415 3.50467C23.7681 2.985 22.9462 2.53785 22.0882 2.17529C21.1818 1.78855 20.2391 1.48642 19.2602 1.28097C18.245 1.07552 17.2057 0.954669 16.1422 0.954669C15.127 0.954669 14.136 1.06344 13.1813 1.24472C13.1007 1.26083 13.0242 1.27694 12.9517 1.29306L12.9033 1.07552C12.9839 1.05941 13.0604 1.04329 13.1329 1.02718C14.0998 0.833812 15.1029 0.73713 16.1422 0.73713C17.2178 0.73713 18.2813 0.8459 19.2965 1.06344C20.2996 1.26889 21.2664 1.58311 22.1849 1.96984C23.055 2.34448 23.8768 2.79164 24.6624 3.32339C25.033 3.5651 25.3875 3.82292 25.7259 4.09686L25.5929 4.27814Z" fill="url(#paint8_linear_44_4987)"/>
<path d="M31.3701 17.995L31.1525 17.9708C31.2251 17.3504 31.2653 16.722 31.2734 16.0855C31.2734 15.0824 31.1646 14.0914 30.9834 13.1246C30.79 12.2061 30.5241 11.3118 30.1857 10.4658C29.8111 9.53525 29.3518 8.65302 28.808 7.81913L28.7959 7.79496L28.9772 7.67411L29.0014 7.69828C29.5452 8.54425 30.0165 9.43857 30.3912 10.3812C30.7416 11.2393 31.0075 12.1457 31.2009 13.0883C31.3943 14.0552 31.4909 15.0583 31.4909 16.0855C31.4909 16.7381 31.4507 17.3746 31.3701 17.995Z" fill="url(#paint9_linear_44_4987)"/>
<path d="M23.7563 29.1619C23.9739 29.0329 24.1874 28.9 24.3969 28.763C25.2791 28.195 26.1009 27.5303 26.8381 26.7931C27.5391 26.0922 28.1675 25.3187 28.7234 24.4848C29.1343 23.8685 29.509 23.2159 29.8232 22.5391L30.0286 22.6358C29.6983 23.3287 29.3237 23.9893 28.9047 24.6178C28.3488 25.4517 27.7083 26.2372 26.9952 26.9502C26.2459 27.6995 25.412 28.3642 24.5298 28.9564C24.3123 29.0934 24.0907 29.2263 23.8651 29.3552L23.7563 29.1619Z" fill="url(#paint10_linear_44_4987)"/>
<path d="M6.67933 27.905C7.0298 28.1709 7.36819 28.4367 7.73075 28.6784C8.50421 29.186 9.32602 29.6332 10.1841 30.0078C11.0905 30.3946 12.0331 30.6967 13.012 30.9021C14.0272 31.1076 15.0666 31.2164 16.1422 31.2164C17.1452 31.2164 18.1362 31.1197 19.091 30.9263C19.1715 30.9102 19.2481 30.8941 19.3206 30.878L19.3689 31.1076C19.2884 31.1237 19.2118 31.1398 19.1393 31.1559C18.1725 31.3372 17.1694 31.446 16.1422 31.446C15.0545 31.446 13.991 31.3251 12.9758 31.1197C11.9727 30.9021 11.0059 30.6 10.0995 30.2133C9.21725 29.8386 8.39544 29.3794 7.6099 28.8597C7.24734 28.618 6.88478 28.3521 6.54639 28.0742L6.67933 27.905Z" fill="url(#paint11_linear_44_4987)"/>
<path d="M5.43451 26.7932C5.83333 27.1799 6.24423 27.5545 6.67931 27.905L6.54637 28.0742C6.10324 27.7197 5.68025 27.3451 5.27741 26.9503C4.5402 26.201 3.87551 25.3913 3.29541 24.509L3.47669 24.3882C4.05679 25.2583 4.70939 26.056 5.43451 26.7932Z" fill="url(#paint12_linear_44_4987)"/>
<path d="M18.7769 3.15422C18.7769 3.49261 19.0548 3.77057 19.4053 3.77057C19.7437 3.77057 20.0216 3.49261 20.0216 3.15422C20.0216 2.80374 19.7437 2.52578 19.4053 2.52578C19.0548 2.52578 18.7769 2.80374 18.7769 3.15422Z" fill="#F9FAF9"/>
<path d="M12.4321 29.0289C12.4321 29.3794 12.7101 29.6573 13.0485 29.6573C13.399 29.6573 13.6769 29.3794 13.6769 29.0289C13.6769 28.6905 13.399 28.4005 13.0485 28.4005C12.7101 28.4005 12.4321 28.6905 12.4321 29.0289Z" fill="#F9FAF9"/>
<path d="M2.41309 18.4421C2.41309 18.7805 2.69105 19.0585 3.04153 19.0585C3.37992 19.0585 3.66997 18.7805 3.66997 18.4421C3.66997 18.0916 3.37992 17.8137 3.04153 17.8137C2.69105 17.8137 2.41309 18.0916 2.41309 18.4421Z" fill="#F9FAF9"/>
<path d="M5.90576 6.86442C5.90576 7.20281 6.18372 7.48077 6.52211 7.48077C6.87259 7.48077 7.15055 7.20281 7.15055 6.86442C7.15055 6.51395 6.87259 6.23598 6.52211 6.23598C6.18372 6.23598 5.90576 6.51395 5.90576 6.86442Z" fill="#F9FAF9"/>
<path d="M28.4331 13.0279C28.4331 13.3783 28.7111 13.6563 29.0495 13.6563C29.3999 13.6563 29.6779 13.3783 29.6779 13.0279C29.6779 12.6774 29.3999 12.3994 29.0495 12.3994C28.7111 12.3994 28.4331 12.6774 28.4331 13.0279Z" fill="#F9FAF9"/>
<path d="M25.3394 24.9682C25.3394 25.3066 25.6294 25.5846 25.9678 25.5846C26.3183 25.5846 26.5962 25.3066 26.5962 24.9682C26.5962 24.6178 26.3183 24.3398 25.9678 24.3398C25.6294 24.3398 25.3394 24.6178 25.3394 24.9682Z" fill="#F9FAF9"/>
<path fill-rule="evenodd" clip-rule="evenodd" d="M23.1519 9.07594C22.6806 8.61669 22.173 8.20579 21.6412 7.84323C21.1337 7.50484 20.5898 7.21479 20.0339 6.97309C19.4296 6.7193 18.8133 6.52593 18.1727 6.39299C17.5081 6.26005 16.8192 6.17545 16.1424 6.17545C15.4898 6.17545 14.8372 6.24797 14.1967 6.36882C13.6045 6.48967 13.0244 6.65887 12.4564 6.88849C11.8521 7.1302 11.272 7.43233 10.7282 7.7828C10.1602 8.15745 9.6284 8.58044 9.13291 9.07594C9.00399 9.20485 8.87911 9.33376 8.75826 9.46267C8.66963 9.56741 8.58504 9.66812 8.50447 9.7648C8.47224 9.80509 8.44001 9.84134 8.40778 9.87357C8.34333 9.9622 8.2829 10.0468 8.2265 10.1274C8.19428 10.1596 8.16608 10.1958 8.14191 10.2361C8.05328 10.3489 7.96868 10.4658 7.88812 10.5866C7.54973 11.0942 7.25968 11.638 7.03006 12.194C6.76418 12.7982 6.57081 13.4146 6.43787 14.043C6.30494 14.7198 6.23242 15.4087 6.23242 16.0854C6.23242 16.738 6.29285 17.3907 6.4137 18.0312C6.53456 18.6274 6.70778 19.2075 6.93337 19.7715C7.17508 20.3757 7.47721 20.9558 7.82769 21.4997C8.20233 22.0677 8.63741 22.5994 9.13291 23.0949C9.59215 23.5663 10.0997 23.9772 10.6315 24.3276C11.1512 24.6781 11.6829 24.9682 12.2388 25.1978C12.8431 25.4516 13.4595 25.657 14.1 25.7779C14.7647 25.9229 15.4535 25.9954 16.1424 25.9954C16.7829 25.9954 17.4355 25.935 18.0761 25.8021C18.6682 25.6933 19.2483 25.512 19.8164 25.2945C20.4206 25.0528 21.0007 24.7506 21.5566 24.3881C21.6775 24.3075 21.8024 24.2229 21.9313 24.1343C21.9635 24.1101 21.9998 24.0819 22.0401 24.0497C22.1287 23.9852 22.2173 23.9167 22.3059 23.8442C22.3382 23.8201 22.3744 23.7919 22.4147 23.7596C22.5275 23.671 22.6363 23.5784 22.741 23.4817L22.7773 23.4575C22.8981 23.3366 23.023 23.2158 23.1519 23.0949C23.2647 22.9821 23.3735 22.8653 23.4782 22.7445L23.5145 22.7082C23.5628 22.6518 23.6111 22.5954 23.6595 22.539C23.6514 22.5471 23.6434 22.5592 23.6353 22.5753C23.6756 22.5269 23.7159 22.4746 23.7562 22.4182C23.7642 22.4182 23.7683 22.4141 23.7683 22.4061C23.8005 22.3738 23.8327 22.3376 23.8649 22.2973C23.9294 22.2167 23.9898 22.1362 24.0462 22.0556C24.0784 22.0153 24.1067 21.9791 24.1308 21.9468C24.2194 21.826 24.304 21.7092 24.3846 21.5964C24.723 21.0767 25.0131 20.5449 25.2427 19.989C25.5086 19.3847 25.7019 18.7684 25.8349 18.1279C25.9678 17.4632 26.0403 16.7743 26.0403 16.0854C26.0403 15.4449 25.9799 14.7923 25.859 14.1518C25.7382 13.5596 25.569 12.9674 25.3394 12.3994C25.0976 11.8072 24.7955 11.2271 24.445 10.6712C24.0704 10.1153 23.6353 9.57144 23.1519 9.07594Z" fill="url(#paint13_linear_44_4987)"/>
<path fill-rule="evenodd" clip-rule="evenodd" d="M25.8345 16.0855C25.8345 15.445 25.7741 14.8045 25.6532 14.1881C25.5323 13.5959 25.3632 13.0279 25.1335 12.4841C24.9039 11.8919 24.6018 11.3239 24.2634 10.7921C23.8887 10.2362 23.4657 9.70444 22.9944 9.23311C22.5473 8.78596 22.0518 8.37505 21.52 8.02458C21.0245 7.69827 20.5048 7.40823 19.9489 7.16652C19.3688 6.92481 18.7646 6.73145 18.1361 6.59851C17.4956 6.46557 16.8188 6.39306 16.142 6.39306C15.9648 6.39306 15.7875 6.39709 15.6103 6.40514C15.5861 6.40514 15.5579 6.40514 15.5257 6.40514C15.429 6.4132 15.3363 6.42126 15.2477 6.42931C15.3283 6.42126 15.4089 6.41723 15.4894 6.41723C15.4008 6.41723 15.3122 6.42126 15.2235 6.42931C15.1833 6.43737 15.139 6.44543 15.0906 6.45348C14.9859 6.46154 14.8852 6.47363 14.7885 6.48974C14.7401 6.48974 14.6958 6.49377 14.6555 6.50183C14.5186 6.526 14.3816 6.55017 14.2446 6.57434C13.6525 6.69519 13.0724 6.86439 12.5285 7.08192C11.9363 7.32363 11.3683 7.62576 10.8366 7.96415C10.2806 8.3388 9.74889 8.76179 9.27756 9.23311C8.8304 9.68027 8.43158 10.1758 8.06902 10.7075C7.73869 11.199 7.4567 11.7227 7.22305 12.2786C6.96926 12.8466 6.77589 13.463 6.64295 14.0914C6.51001 14.7319 6.4375 15.4087 6.4375 16.0855C6.4375 16.7381 6.49793 17.3666 6.61878 17.9829C6.73963 18.5751 6.90883 19.1431 7.13845 19.699C7.36807 20.2912 7.67021 20.8592 8.02068 21.3789C8.38324 21.9469 8.80623 22.4666 9.27756 22.95C9.72471 23.3971 10.2202 23.796 10.752 24.1585C11.2475 24.4848 11.7671 24.7749 12.3231 25.0045C12.9032 25.2583 13.5074 25.4516 14.1359 25.5846C14.2809 25.6088 14.4259 25.6329 14.5709 25.6571C14.6193 25.6652 14.6676 25.6732 14.716 25.6813C14.8207 25.6974 14.9254 25.7135 15.0302 25.7296C15.0785 25.7296 15.1269 25.7336 15.1752 25.7417C15.3122 25.7578 15.4491 25.7699 15.5861 25.778H15.6344C15.8036 25.786 15.9728 25.79 16.142 25.79C16.2951 25.79 16.4522 25.786 16.6134 25.778H16.6617C16.6778 25.778 16.6939 25.7739 16.71 25.7659C16.8067 25.7659 16.9074 25.7618 17.0122 25.7538C17.0202 25.7457 17.0323 25.7417 17.0484 25.7417C17.0887 25.7417 17.133 25.7377 17.1814 25.7296C17.2861 25.7216 17.3868 25.7095 17.4835 25.6934C17.5318 25.6853 17.5762 25.6772 17.6164 25.6692C17.7534 25.6531 17.8904 25.6289 18.0273 25.5967C18.6195 25.4879 19.1996 25.3066 19.7435 25.0891C20.3356 24.8474 20.9037 24.5573 21.4354 24.2069C21.9913 23.8443 22.5231 23.4213 22.9944 22.95C23.4416 22.4907 23.8404 22.0073 24.203 21.4756C24.5293 20.9801 24.8193 20.4604 25.0489 19.9045C25.3027 19.3244 25.4961 18.7201 25.629 18.0917C25.762 17.4391 25.8345 16.7744 25.8345 16.0855ZM17.0122 25.7538C17.0041 25.7538 17.0001 25.7538 17.0001 25.7538C17.0081 25.7538 17.0162 25.7498 17.0243 25.7417C17.0243 25.7498 17.0202 25.7538 17.0122 25.7538ZM16.8067 25.7659C16.7745 25.7659 16.7423 25.7659 16.71 25.7659C16.6939 25.7739 16.6778 25.778 16.6617 25.778C16.71 25.7699 16.7584 25.7659 16.8067 25.7659ZM15.6103 6.40514C15.5861 6.40514 15.5579 6.40514 15.5257 6.40514C15.5176 6.40514 15.5055 6.40917 15.4894 6.41723C15.5297 6.40917 15.57 6.40514 15.6103 6.40514Z" fill="#D94297"/>
<defs>
<linearGradient id="paint0_linear_44_4987" x1="5.13547" y1="27.0584" x2="27.0733" y2="27.0584" gradientUnits="userSpaceOnUse">
<stop stop-color="#FC1DC8"/>
<stop offset="1" stop-color="#C23685"/>
</linearGradient>
<linearGradient id="paint1_linear_44_4987" x1="1.63351" y1="9.36152" x2="2.53796" y2="9.62951" gradientUnits="userSpaceOnUse">
<stop stop-color="#B3B0B1"/>
<stop offset="1" stop-color="white"/>
</linearGradient>
<linearGradient id="paint2_linear_44_4987" x1="29.8738" y1="6.77534" x2="28.5713" y2="8.07778" gradientUnits="userSpaceOnUse">
<stop stop-color="#B3B0B1"/>
<stop offset="1" stop-color="white"/>
</linearGradient>
<linearGradient id="paint3_linear_44_4987" x1="12.7054" y1="0.553595" x2="13.0511" y2="1.449" gradientUnits="userSpaceOnUse">
<stop stop-color="#B3B0B1"/>
<stop offset="1" stop-color="white"/>
</linearGradient>
<linearGradient id="paint4_linear_44_4987" x1="31.1213" y1="22.8883" x2="29.4867" y2="22.511" gradientUnits="userSpaceOnUse">
<stop stop-color="#B3B0B1"/>
<stop offset="1" stop-color="white"/>
</linearGradient>
<linearGradient id="paint5_linear_44_4987" x1="19.8765" y1="32.3381" x2="19.2406" y2="30.7985" gradientUnits="userSpaceOnUse">
<stop stop-color="#B3B0B1"/>
<stop offset="1" stop-color="white"/>
</linearGradient>
<linearGradient id="paint6_linear_44_4987" x1="2.59478" y1="24.7503" x2="1.04931" y2="25.2856" gradientUnits="userSpaceOnUse">
<stop stop-color="#FC1DCF"/>
<stop offset="1" stop-color="#C23685"/>
</linearGradient>
<linearGradient id="paint7_linear_44_4987" x1="2.26372" y1="9.55938" x2="1.09123" y2="8.44375" gradientUnits="userSpaceOnUse">
<stop stop-color="#F220C0"/>
<stop offset="1" stop-color="#C23685"/>
</linearGradient>
<linearGradient id="paint8_linear_44_4987" x1="12.7428" y1="1.72523" x2="13.5024" y2="-1.2683" gradientUnits="userSpaceOnUse">
<stop stop-color="#C72C92"/>
<stop offset="1" stop-color="#B0387C"/>
</linearGradient>
<linearGradient id="paint9_linear_44_4987" x1="24.8735" y1="13.7779" x2="27.3317" y2="10.0235" gradientUnits="userSpaceOnUse">
<stop stop-color="#ED3BB5"/>
<stop offset="1" stop-color="#C23685"/>
</linearGradient>
<linearGradient id="paint10_linear_44_4987" x1="28.371" y1="21.6838" x2="30.159" y2="22.7118" gradientUnits="userSpaceOnUse">
<stop stop-color="#FC1DCF"/>
<stop offset="1" stop-color="#C23685"/>
</linearGradient>
<linearGradient id="paint11_linear_44_4987" x1="18.8026" y1="33.0993" x2="18.5002" y2="34.1718" gradientUnits="userSpaceOnUse">
<stop stop-color="#FC1DCF"/>
<stop offset="1" stop-color="#C23685"/>
</linearGradient>
<linearGradient id="paint12_linear_44_4987" x1="2.08059" y1="25.6324" x2="3.58412" y2="24.2397" gradientUnits="userSpaceOnUse">
<stop stop-color="#B3B0B1"/>
<stop offset="1" stop-color="white"/>
</linearGradient>
<linearGradient id="paint13_linear_44_4987" x1="6.19" y1="25.9971" x2="26.006" y2="25.9971" gradientUnits="userSpaceOnUse">
<stop stop-color="#FC1DC8"/>
<stop offset="1" stop-color="#C23685"/>
</linearGradient>
</defs>
</svg>
