<svg width="31" height="31" viewBox="0 0 31 31" fill="none" xmlns="http://www.w3.org/2000/svg">
<path fill-rule="evenodd" clip-rule="evenodd" d="M27.2234 15.3603C27.2234 14.5748 27.1509 13.8013 26.9938 13.0641C26.8608 12.3511 26.6433 11.6622 26.3774 10.9975C26.0874 10.2724 25.7369 9.59563 25.3139 8.94302C24.8668 8.26624 24.3592 7.63781 23.7791 7.05771C23.2352 6.51387 22.6431 6.03046 22.0025 5.59539C21.3983 5.19657 20.7698 4.84609 20.1051 4.56813C19.4042 4.266 18.667 4.02428 17.8935 3.86718C17.1201 3.69798 16.3103 3.61339 15.4765 3.61339C15.267 3.61339 15.0575 3.62144 14.848 3.63756C14.6949 3.64561 14.5459 3.65367 14.4009 3.66173C14.4411 3.66173 14.4814 3.66173 14.5217 3.66173C14.4734 3.66173 14.425 3.66576 14.3767 3.67381C14.3203 3.67381 14.2639 3.67784 14.2075 3.6859C14.0866 3.70201 13.9658 3.71813 13.8449 3.73424C13.7885 3.7423 13.7362 3.75035 13.6878 3.75841C13.5186 3.78258 13.3494 3.81078 13.1802 3.84301C12.4672 3.98804 11.7783 4.19348 11.1136 4.45936C10.3885 4.74941 9.71174 5.11197 9.07122 5.52287C8.38235 5.97003 7.75391 6.4897 7.17382 7.05771C6.62998 7.60155 6.14656 8.20582 5.71149 8.84634C5.31268 9.43852 4.97429 10.079 4.68424 10.7437C4.3821 11.4447 4.15248 12.1819 3.98329 12.9433C3.82618 13.7167 3.72949 14.5265 3.72949 15.3603C3.72949 16.1459 3.81409 16.9194 3.95912 17.6566C4.10414 18.3696 4.30959 19.0585 4.57547 19.7232C4.86551 20.4483 5.22808 21.1251 5.65107 21.7777C6.08614 22.4544 6.6058 23.0829 7.17382 23.663C7.71766 24.2068 8.32192 24.6902 8.96245 25.1253C9.55463 25.5241 10.1952 25.8746 10.8598 26.1526C11.5608 26.4547 12.298 26.6964 13.0594 26.8535C13.2366 26.8938 13.4139 26.926 13.5911 26.9502C13.6475 26.9582 13.7039 26.9663 13.7603 26.9744C13.8812 26.9985 14.0101 27.0146 14.1471 27.0227C14.2035 27.0308 14.2599 27.0388 14.3163 27.0469C14.4855 27.063 14.6546 27.0751 14.8238 27.0831L14.8722 27.0952C15.0736 27.1033 15.275 27.1073 15.4765 27.1073C15.6698 27.1073 15.8632 27.1033 16.0565 27.0952L16.117 27.0831C16.2701 27.0751 16.4231 27.063 16.5762 27.0469C16.6326 27.0469 16.689 27.0428 16.7454 27.0348C16.8663 27.0187 16.9911 27.0026 17.1201 26.9864C17.1684 26.9784 17.2208 26.9703 17.2772 26.9623C17.4464 26.9381 17.6115 26.9099 17.7727 26.8777C18.4857 26.7327 19.1867 26.5272 19.8513 26.2613C20.5644 25.9713 21.2532 25.6087 21.8938 25.1978C22.5705 24.7507 23.2111 24.231 23.7791 23.663C24.3229 23.1191 24.8184 22.5149 25.2414 21.8743C25.6402 21.2822 25.9907 20.6416 26.2808 19.9769C26.5829 19.276 26.8125 18.5388 26.9696 17.7774C27.1388 17.004 27.2234 16.1942 27.2234 15.3603Z" fill="#C80E2D"/>
<path d="M4.06799 10.4779C3.75377 11.2151 3.51206 12.0007 3.34287 12.7983C3.27036 13.1367 3.21396 13.4751 3.17368 13.8135L0.249023 13.4509C0.297365 13.0239 0.36585 12.6049 0.454476 12.194C0.659927 11.203 0.96206 10.2362 1.36088 9.31773C1.43339 9.14854 1.50992 8.97934 1.59049 8.81014L4.26136 10.067C4.1969 10.204 4.13244 10.341 4.06799 10.4779Z" fill="#F7FAF6"/>
<path d="M28.3232 6.93696L25.8578 8.5564C25.3864 7.84336 24.8547 7.19075 24.2504 6.58648C23.9281 6.2642 23.5857 5.96207 23.2231 5.68008L25.0722 3.37178C25.5073 3.72226 25.9424 4.10899 26.3412 4.50781C27.0784 5.24501 27.7431 6.06681 28.3232 6.93696Z" fill="#F7FAF6"/>
<path d="M10.8598 3.84312C10.2959 4.06871 9.75202 4.33458 9.22832 4.64075L7.75391 2.09074C8.39846 1.71207 9.07121 1.38173 9.77216 1.09974C10.5698 0.785523 11.3916 0.531729 12.2497 0.350449L12.866 3.23885C12.1771 3.38387 11.5125 3.58932 10.8598 3.84312Z" fill="#F7FAF6"/>
<path d="M26.8849 20.2429C27.1991 19.5057 27.4529 18.7201 27.6221 17.9225C27.6866 17.5841 27.743 17.2457 27.7913 16.9073L30.7159 17.2699C30.6595 17.6969 30.5911 18.1158 30.5105 18.5267C30.293 19.5298 29.9908 20.4846 29.6041 21.4031C29.5235 21.5723 29.447 21.7414 29.3745 21.9106L26.7036 20.6538C26.7681 20.5168 26.8285 20.3798 26.8849 20.2429Z" fill="#F7FAF6"/>
<path d="M20.0931 26.8778C20.6571 26.6522 21.2009 26.3863 21.7246 26.0801L23.2111 28.6301C22.5666 29.0088 21.8938 29.3391 21.1928 29.6211C20.3952 29.9354 19.5613 30.1891 18.7033 30.3704L18.0869 27.482C18.7798 27.337 19.4485 27.1356 20.0931 26.8778Z" fill="#F7FAF6"/>
<path fill-rule="evenodd" clip-rule="evenodd" d="M30.8373 15.3605C30.8373 14.3332 30.7285 13.3301 30.5351 12.3633C30.3539 11.4206 30.088 10.5143 29.7375 9.64411C29.3629 8.71354 28.8915 7.80713 28.3477 6.97324L28.3235 6.93699L25.8581 8.55643C25.3868 7.84339 24.855 7.19077 24.2508 6.58651C23.9285 6.26423 23.5861 5.9621 23.2235 5.68011L25.0726 3.37181C24.7261 3.09787 24.3716 2.83603 24.0091 2.58626C23.2235 2.06659 22.3896 1.61944 21.5195 1.24479C20.601 0.845974 19.6463 0.54384 18.6432 0.33839C17.628 0.120853 16.5645 -5.72205e-06 15.4768 -5.72205e-06C14.4496 -5.72205e-06 13.4465 0.108763 12.4796 0.302128C12.3991 0.318241 12.3225 0.334358 12.25 0.350471L12.8664 3.22678C12.1735 3.37986 11.5048 3.58532 10.8602 3.84314C10.2962 4.06873 9.75238 4.33461 9.22868 4.64077L7.75427 2.09076C7.52868 2.21968 7.30711 2.35664 7.08957 2.50166C6.19526 3.08176 5.37346 3.75854 4.62417 4.50783C3.91113 5.20878 3.27061 5.99433 2.7026 6.84031C2.28364 7.46874 1.91302 8.12538 1.59074 8.81021L4.26161 10.0671C4.19715 10.2041 4.13269 10.341 4.06824 10.478C3.75402 11.2152 3.51231 12.0007 3.34312 12.7984C3.27061 13.1368 3.21421 13.4752 3.17393 13.8135L0.249271 13.451C0.168702 14.0794 0.128418 14.7159 0.128418 15.3605C0.128418 16.3877 0.225104 17.3908 0.418469 18.3576C0.599749 19.3003 0.877707 20.2067 1.22818 21.0768C1.60283 22.0195 2.07416 22.9138 2.618 23.7477L2.64217 23.784L5.10758 22.1645C5.56683 22.8776 6.11067 23.5302 6.70285 24.1344C7.03318 24.4567 7.3756 24.7588 7.7301 25.0408L5.89313 27.3491C6.23152 27.6271 6.58199 27.8809 6.95664 28.1347C7.7301 28.6544 8.56399 29.1015 9.43414 29.4762C10.3526 29.875 11.3194 30.1771 12.3104 30.3826C13.3377 30.6001 14.3891 30.7209 15.4768 30.7209C16.5041 30.7209 17.5071 30.6122 18.4861 30.4188C18.5586 30.4027 18.6311 30.3866 18.7036 30.3705L18.0872 27.4821C18.7801 27.3371 19.4489 27.1356 20.0934 26.8778C20.6574 26.6522 21.2012 26.3863 21.7249 26.0802L23.2114 28.6302C23.437 28.5013 23.6546 28.3643 23.864 28.2193C24.7584 27.6392 25.5922 26.9745 26.3415 26.2131C27.0425 25.5122 27.6951 24.7266 28.251 23.8806C28.67 23.2522 29.0446 22.5956 29.375 21.9107L26.7041 20.6539C26.7686 20.5169 26.829 20.3799 26.8854 20.243C27.1996 19.5057 27.4534 18.7202 27.6226 17.9226C27.687 17.5842 27.7434 17.2458 27.7918 16.9074L30.7164 17.27C30.797 16.6415 30.8373 16.005 30.8373 15.3605ZM5.08341 22.1404L5.10758 22.1645C5.09953 22.1565 5.09147 22.1484 5.08341 22.1404ZM3.17393 13.8135V13.8256C3.17393 13.8176 3.17393 13.8135 3.17393 13.8135ZM13.0597 3.19053C12.9953 3.20664 12.9308 3.22276 12.8664 3.23887V3.22678C12.9308 3.21873 12.9953 3.20664 13.0597 3.19053ZM25.4835 11.3481C25.7373 11.9645 25.9185 12.5929 26.0515 13.2576C26.1965 13.9344 26.269 14.6354 26.269 15.3605C26.269 16.1219 26.1844 16.8711 26.0273 17.5842C25.8823 18.2851 25.6648 18.9619 25.3868 19.6024C25.133 20.2188 24.8067 20.7989 24.4441 21.3427C24.0453 21.9349 23.5982 22.4787 23.1027 22.9863C22.5709 23.506 21.9908 23.9773 21.3624 24.3882C20.7823 24.775 20.1538 25.1013 19.4891 25.3671C18.8849 25.6088 18.2444 25.8022 17.5917 25.9352C16.9029 26.0681 16.2019 26.1406 15.4768 26.1406C14.7154 26.1406 13.9782 26.0681 13.2531 25.911C12.5522 25.766 11.8754 25.5484 11.2349 25.2705C10.6306 25.0167 10.0384 24.6904 9.49456 24.3278C8.90238 23.929 8.35854 23.4818 7.86304 22.9863C7.33128 22.4546 6.85995 21.8745 6.44905 21.246C6.06232 20.6539 5.73602 20.0254 5.47014 19.3728C5.22844 18.7565 5.03507 18.128 4.90213 17.4633C4.76919 16.7865 4.69668 16.0856 4.69668 15.3605C4.69668 14.5991 4.78128 13.8498 4.9263 13.1368C5.07133 12.4358 5.28886 11.759 5.56682 11.1185C5.8327 10.5022 6.14692 9.92207 6.50948 9.37823C6.9083 8.78605 7.35546 8.2422 7.86304 7.73462C8.38271 7.21495 8.9628 6.74362 9.59124 6.33272C10.1834 5.94599 10.8119 5.61969 11.4645 5.35381C12.0808 5.1121 12.7093 4.91874 13.374 4.7858C14.0507 4.65286 14.7638 4.58034 15.4768 4.58034C16.2382 4.58034 16.9875 4.65286 17.7005 4.80997C18.4015 4.95499 19.0782 5.17253 19.7188 5.45049C20.3351 5.71637 20.9152 6.03058 21.4591 6.39314C22.0512 6.79196 22.6072 7.23912 23.1027 7.73462C23.6223 8.26637 24.0937 8.84647 24.5046 9.47491C24.8913 10.0671 25.2176 10.6955 25.4835 11.3481Z" fill="#E31A3C"/>
<path d="M6.70277 24.1344C7.0331 24.4566 7.37552 24.7588 7.73003 25.0408L5.89305 27.3491C5.44589 26.9986 5.02291 26.6239 4.62409 26.213C3.8748 25.4758 3.2101 24.654 2.64209 23.7839L5.1075 22.1644C5.56675 22.8775 6.11059 23.5301 6.70277 24.1344Z" fill="#F7FAF6"/>
<path d="M25.1814 17.4028C25.0485 18.0433 24.843 18.6718 24.5892 19.264C24.3475 19.8199 24.0575 20.3637 23.7191 20.8592C23.3565 21.4031 22.9456 21.9107 22.4864 22.3699C22.003 22.8533 21.4712 23.2884 20.8911 23.663C20.3473 24.0135 19.7672 24.3156 19.1629 24.5573C18.607 24.787 18.0269 24.9562 17.4226 25.077C16.7942 25.21 16.1416 25.2704 15.4769 25.2704C14.7759 25.2704 14.0991 25.1979 13.4345 25.0649C12.7939 24.9199 12.1776 24.7265 11.5854 24.4728C11.0174 24.231 10.4856 23.941 9.97805 23.6026C9.43421 23.24 8.9387 22.8291 8.47946 22.3699C7.98396 21.8865 7.56098 21.3426 7.18633 20.7746C6.82377 20.2308 6.52164 19.6507 6.27993 19.0464C6.05031 18.4905 5.88111 17.8983 5.76026 17.2941C5.6394 16.6777 5.56689 16.0251 5.56689 15.3604C5.56689 14.6595 5.63941 13.9827 5.78443 13.318C5.91737 12.6775 6.11073 12.049 6.36452 11.4568C6.60623 10.9009 6.89628 10.3571 7.23467 9.86157C7.59723 9.31773 8.02022 8.81014 8.47946 8.3509C8.96287 7.86749 9.49463 7.43241 10.0626 7.05777C10.6105 6.70326 11.1866 6.40516 11.7908 6.16345C12.3589 5.93383 12.939 5.76463 13.5432 5.64378C14.0186 5.5471 14.502 5.48667 14.9935 5.4625C14.5101 5.48667 14.0347 5.54307 13.5674 5.6317C12.9631 5.75255 12.3951 5.93383 11.8392 6.15137C11.2349 6.39307 10.6669 6.69521 10.1352 7.04568C9.56714 7.42033 9.03539 7.84332 8.55198 8.31465C8.10482 8.77389 7.69391 9.26939 7.33135 9.80114C7.00505 10.3087 6.715 10.8284 6.4733 11.3843C6.2195 11.9765 6.02614 12.5929 5.8932 13.2213C5.76026 13.8739 5.68775 14.5507 5.68775 15.2395C5.68775 15.9042 5.74817 16.5327 5.86903 17.1611C5.98988 17.7533 6.17116 18.3334 6.3887 18.8893C6.6304 19.4815 6.93254 20.0616 7.28302 20.5934C7.64558 21.1614 8.08065 21.6931 8.55198 22.1645C9.01122 22.6237 9.50672 23.0225 10.0385 23.3851C10.538 23.7235 11.0657 24.0095 11.6217 24.2431C12.2138 24.4969 12.8302 24.6903 13.4586 24.8232C14.1112 24.9683 14.788 25.0408 15.4769 25.0408C16.1295 25.0408 16.77 24.9683 17.3985 24.8474C17.9947 24.7265 18.5707 24.5533 19.1267 24.3277C19.7188 24.0981 20.2868 23.796 20.8307 23.4455C21.3987 23.0709 21.9305 22.6479 22.4018 22.1645C22.861 21.7173 23.2598 21.2097 23.6224 20.678C23.9608 20.1825 24.2508 19.6507 24.4805 19.0948C24.7343 18.5147 24.9276 17.8983 25.0606 17.2578C25.2056 16.6052 25.2781 15.9405 25.2781 15.2395C25.2781 14.5869 25.2056 13.9464 25.0847 13.3301C24.9639 12.7258 24.7947 12.1578 24.5651 11.6019C24.3234 10.9976 24.0333 10.4296 23.6828 9.89782C23.3082 9.32981 22.8852 8.79806 22.4018 8.31465C21.9546 7.86749 21.447 7.45658 20.9153 7.09402C20.4158 6.76369 19.888 6.47767 19.3321 6.23596C18.752 5.98217 18.1357 5.78881 17.4951 5.65587C16.8425 5.52293 16.1657 5.45042 15.4769 5.45042C16.1778 5.45042 16.8667 5.52293 17.5193 5.65587C18.1719 5.80089 18.7883 5.99426 19.3804 6.24805C19.9364 6.48975 20.4802 6.7798 20.9757 7.11819C21.5196 7.48075 22.0271 7.89166 22.4864 8.3509C22.9698 8.83431 23.4049 9.37816 23.7795 9.94617C24.13 10.49 24.4321 11.0701 24.6738 11.6744C24.9034 12.2303 25.0847 12.8225 25.2056 13.4267C25.3264 14.0552 25.3869 14.6957 25.3869 15.3604C25.3869 16.0614 25.3144 16.7381 25.1814 17.4028Z" fill="#81FF9D"/>
<path fill-rule="evenodd" clip-rule="evenodd" d="M7.71775 23.1192C8.23742 23.6389 8.79335 24.0981 9.38553 24.4849C9.95354 24.8716 10.5457 25.1858 11.1621 25.4517C11.8268 25.7297 12.5156 25.9472 13.2166 26.0922C13.9659 26.2493 14.7273 26.3339 15.4765 26.3339C16.2017 26.3339 16.9147 26.2614 17.6277 26.1164C18.2884 25.9875 18.933 25.7981 19.5614 25.5484C20.2261 25.2825 20.8666 24.9562 21.4709 24.5574C22.0993 24.1465 22.6915 23.6631 23.2353 23.1192C23.755 22.5996 24.2143 22.0436 24.601 21.4514C24.9877 20.8834 25.3019 20.2912 25.5678 19.6749C25.8458 19.0102 26.0633 18.3213 26.2083 17.6204C26.3654 16.8711 26.45 16.1218 26.45 15.3604C26.45 14.6474 26.3775 13.9223 26.2325 13.2213C26.1117 12.5566 25.9183 11.904 25.6645 11.2756C25.3986 10.623 25.0723 9.98245 24.6735 9.36609C24.2626 8.73766 23.7913 8.14548 23.2353 7.60163C22.7157 7.08197 22.1597 6.62272 21.5676 6.23599C20.9996 5.84926 20.4074 5.53504 19.791 5.26917C19.1263 4.9912 18.4375 4.77367 17.7365 4.62864C16.9993 4.47153 16.2379 4.38694 15.4765 4.38694C14.7635 4.38694 14.0384 4.45945 13.3374 4.60447C12.6727 4.73741 12.0322 4.91869 11.4038 5.17248C10.7391 5.43836 10.0986 5.76466 9.48222 6.16348C8.86587 6.57438 8.27368 7.05779 7.71775 7.60163C7.19808 8.12131 6.75093 8.67723 6.35211 9.26941C5.97747 9.83742 5.65116 10.4296 5.39737 11.046C5.10732 11.7107 4.88979 12.3995 4.74476 13.1005C4.58765 13.8498 4.51514 14.5991 4.51514 15.3604C4.51514 16.0735 4.57556 16.7986 4.72059 17.4995C4.85353 18.1642 5.04689 18.8168 5.2886 19.4453C5.55448 20.0979 5.89287 20.7505 6.29168 21.3548C6.6905 21.9832 7.17391 22.5754 7.71775 23.1192ZM9.88103 23.7477C9.33719 23.3851 8.82961 22.9742 8.34619 22.4908C7.83861 21.9953 7.40353 21.4394 7.02889 20.8713C6.66633 20.3033 6.36419 19.7232 6.12249 19.1069C5.88078 18.5268 5.71159 17.9346 5.59074 17.3303C5.4578 16.6777 5.39737 16.0251 5.39737 15.3604C5.39737 14.6595 5.46988 13.9706 5.61491 13.2817C5.74785 12.6412 5.94121 12.0007 6.20709 11.3964C6.44879 10.8284 6.73884 10.2846 7.08931 9.76492C7.45187 9.22108 7.87486 8.7014 8.34619 8.23008C8.85378 7.72249 9.39762 7.28741 9.96563 6.91277C10.5336 6.55021 11.1258 6.23599 11.7301 5.99429C12.3102 5.76466 12.9024 5.59547 13.5066 5.47462C14.1592 5.34168 14.8239 5.28125 15.4765 5.28125C16.1775 5.28125 16.8664 5.35376 17.5552 5.49878C18.1958 5.63172 18.8363 5.82509 19.4526 6.09097C20.0086 6.33267 20.5524 6.62272 21.0842 6.9732C21.6159 7.33576 22.1356 7.74666 22.6069 8.23008C23.1145 8.73766 23.5496 9.2815 23.9242 9.84951C24.2989 10.4175 24.601 10.9976 24.8427 11.614C25.0763 12.1941 25.2496 12.7862 25.3624 13.3905C25.4953 14.0431 25.5557 14.6957 25.5557 15.3604C25.5557 16.0614 25.4832 16.7502 25.3503 17.4391C25.2053 18.0796 25.0119 18.7202 24.746 19.3244C24.5043 19.8924 24.2143 20.4363 23.8638 20.9559C23.5012 21.4998 23.0903 22.0195 22.6069 22.4908C22.1114 22.9984 21.5676 23.4334 20.9875 23.8081C20.4315 24.1706 19.8394 24.4849 19.2351 24.7266C18.655 24.9522 18.0588 25.1254 17.4465 25.2462C16.8059 25.3792 16.1412 25.4396 15.4765 25.4396C14.7877 25.4396 14.0867 25.3671 13.3979 25.2221C12.7573 25.0891 12.1289 24.8958 11.5126 24.6299C10.9445 24.3882 10.4007 24.0981 9.88103 23.7477Z" fill="url(#paint0_linear_44_5059)"/>
<path d="M23.7185 20.8592L24.4437 21.3427C24.0449 21.9348 23.5977 22.4787 23.1022 22.9863L22.4858 22.3699C22.9451 21.9107 23.356 21.4031 23.7185 20.8592Z" fill="#C80E2D"/>
<path d="M24.5889 19.2639L25.3865 19.6023C25.1327 20.2187 24.8064 20.7987 24.4439 21.3426L23.7188 20.8592C24.0571 20.3637 24.3472 19.8198 24.5889 19.2639Z" fill="#E2ECE6"/>
<path d="M25.181 17.4028L26.027 17.5841C25.882 18.2851 25.6645 18.9618 25.3865 19.6024L24.5889 19.264C24.8427 18.6718 25.0481 18.0433 25.181 17.4028Z" fill="#C80E2D"/>
<path d="M22.4858 8.3509L23.1022 7.73454C23.6219 8.2663 24.0932 8.8464 24.5041 9.47484L23.779 9.94617C23.4043 9.37816 22.9693 8.83431 22.4858 8.3509Z" fill="#E2ECE6"/>
<path d="M6.27959 19.0464L5.46987 19.3727C5.22816 18.7564 5.03479 18.128 4.90186 17.4633L5.75991 17.2941C5.88077 17.8983 6.04997 18.4905 6.27959 19.0464Z" fill="#E2ECE6"/>
<path d="M5.78433 13.3179L4.92627 13.1367C5.07129 12.4357 5.28883 11.7589 5.56679 11.1184L6.36442 11.4568C6.11063 12.049 5.91726 12.6774 5.78433 13.3179Z" fill="#C80E2D"/>
<path d="M5.7598 17.2941L4.90174 17.4633C4.7688 16.7865 4.69629 16.0855 4.69629 15.3604H5.56644C5.56644 16.0251 5.63894 16.6777 5.7598 17.2941Z" fill="#C80E2D"/>
<path d="M5.56644 15.3604H4.69629C4.69629 14.599 4.78089 13.8618 4.92591 13.1367L5.78397 13.318C5.63895 13.9827 5.56644 14.6595 5.56644 15.3604Z" fill="#E2ECE6"/>
<path d="M6.36452 11.4568L5.56689 11.1185C5.83277 10.5021 6.14699 9.92201 6.50955 9.37817L7.23467 9.86158C6.89628 10.3571 6.60623 10.9009 6.36452 11.4568Z" fill="#E2ECE6"/>
<path d="M8.47865 8.35089L7.8623 7.73453C8.38197 7.21486 8.96207 6.74354 9.59051 6.33264L10.0618 7.05776C9.49383 7.4324 8.96207 7.86748 8.47865 8.35089Z" fill="#E2ECE6"/>
<path d="M7.2344 9.86163L6.50928 9.37822C6.90809 8.78604 7.35525 8.24219 7.86284 7.73461L8.47919 8.35097C8.01994 8.81021 7.59696 9.31779 7.2344 9.86163Z" fill="#C80E2D"/>
<path d="M10.0622 7.05774L9.59082 6.33262C10.183 5.94589 10.8114 5.61959 11.464 5.35371L11.7904 6.16342C11.1861 6.40513 10.61 6.70324 10.0622 7.05774Z" fill="#C80E2D"/>
<path d="M7.18585 20.7746L6.44864 21.246C6.06191 20.6538 5.7356 20.0254 5.46973 19.3727L6.27945 19.0464C6.52115 19.6507 6.82329 20.2308 7.18585 20.7746Z" fill="#C80E2D"/>
<path d="M15.4766 25.2704V26.1405C14.7153 26.1405 13.9781 26.068 13.2529 25.9109L13.4342 25.0649C14.0989 25.1978 14.7757 25.2704 15.4766 25.2704Z" fill="#E2ECE6"/>
<path d="M11.5849 24.4728L11.2344 25.2704C10.6302 25.0166 10.038 24.6903 9.49414 24.3277L9.97755 23.6026C10.4851 23.941 11.0169 24.231 11.5849 24.4728Z" fill="#E2ECE6"/>
<path d="M13.4344 25.0649L13.2531 25.9109C12.5522 25.7659 11.8754 25.5483 11.2349 25.2704L11.5853 24.4727C12.1775 24.7265 12.7939 24.9199 13.4344 25.0649Z" fill="#C80E2D"/>
<path d="M8.47907 22.3699L7.86272 22.9863C7.33096 22.4545 6.85963 21.8744 6.44873 21.246L7.18594 20.7747C7.56059 21.3427 7.98357 21.8865 8.47907 22.3699Z" fill="#E2ECE6"/>
<path d="M9.97724 23.6026L9.49383 24.3278C8.90164 23.9289 8.3578 23.4818 7.8623 22.9863L8.47865 22.3699C8.9379 22.8292 9.4334 23.2401 9.97724 23.6026Z" fill="#C80E2D"/>
<path d="M25.1812 17.4028C25.3141 16.7381 25.3866 16.0614 25.3866 15.3604H26.2688C26.2688 16.1218 26.1842 16.8711 26.0271 17.5841L25.1812 17.4028Z" fill="#E2ECE6"/>
<path d="M25.2051 13.4268L26.0511 13.2576C26.1961 13.9343 26.2686 14.6353 26.2686 15.3604H25.3864C25.3864 14.6957 25.3259 14.0552 25.2051 13.4268Z" fill="#C80E2D"/>
<path d="M22.4859 22.3699L23.1022 22.9862C22.5705 23.5059 21.9904 23.9772 21.362 24.3881L20.8906 23.663C21.4707 23.2884 22.0025 22.8533 22.4859 22.3699Z" fill="#E2ECE6"/>
<path d="M24.6733 11.6743L25.4831 11.348C25.7369 11.9644 25.9181 12.5928 26.0511 13.2575L25.2051 13.4267C25.0842 12.8224 24.903 12.2302 24.6733 11.6743Z" fill="#E2ECE6"/>
<path d="M11.7907 6.16339L11.4644 5.35368C12.0807 5.11197 12.7091 4.9186 13.3738 4.78567L13.543 5.64372C12.9388 5.76458 12.3587 5.93377 11.7907 6.16339Z" fill="#E2ECE6"/>
<path d="M20.8908 23.663L21.3621 24.3882C20.782 24.7749 20.1536 25.1012 19.4889 25.3671L19.1626 24.5573C19.7669 24.3156 20.347 24.0135 20.8908 23.663Z" fill="#C80E2D"/>
<path d="M19.1627 24.5573L19.489 25.367C18.8847 25.6088 18.2442 25.8021 17.5916 25.9351L17.4224 25.077C18.0266 24.9561 18.6067 24.7869 19.1627 24.5573Z" fill="#E2ECE6"/>
<path d="M23.7793 9.94611L24.5044 9.47478C24.8911 10.067 25.2175 10.6954 25.4833 11.348L24.6736 11.6743C24.4319 11.07 24.1298 10.49 23.7793 9.94611Z" fill="#C80E2D"/>
<path d="M15.4766 5.45043V4.58028C16.2379 4.58028 16.9872 4.6528 17.7003 4.80991L17.519 5.65588C16.8664 5.52294 16.1775 5.45043 15.4766 5.45043Z" fill="#E2ECE6"/>
<path d="M17.4223 25.077L17.5915 25.9351C16.9026 26.068 16.2017 26.1405 15.4766 26.1405V25.2704C16.1413 25.2704 16.7939 25.2099 17.4223 25.077Z" fill="#C80E2D"/>
<path d="M13.5427 5.6438L13.3735 4.78574C14.0503 4.6528 14.7634 4.58029 15.4764 4.58029V5.45044C14.8117 5.45044 14.1712 5.51086 13.5427 5.6438Z" fill="#C80E2D"/>
<path d="M17.519 5.65587L17.7003 4.8099C18.4013 4.95492 19.078 5.17245 19.7186 5.45042L19.3802 6.24805C18.788 5.99425 18.1717 5.80089 17.519 5.65587Z" fill="#C80E2D"/>
<path d="M19.3799 6.24808L19.7183 5.45045C20.3346 5.71633 20.9147 6.03054 21.4586 6.3931L20.9751 7.11823C20.4797 6.77984 19.9358 6.48979 19.3799 6.24808Z" fill="#E2ECE6"/>
<path d="M20.9756 7.11818L21.459 6.39306C22.0512 6.79188 22.6071 7.23903 23.1026 7.73453L22.4863 8.35089C22.027 7.89165 21.5194 7.48074 20.9756 7.11818Z" fill="#C80E2D"/>
<path d="M1.79595 8.90677C1.71538 9.07597 1.63884 9.24114 1.56633 9.40228C1.1796 10.3087 0.877461 11.2634 0.672011 12.2423C0.583385 12.6452 0.5149 13.0561 0.466558 13.475L0.249023 13.4509C0.297365 13.0238 0.36585 12.6049 0.454476 12.194C0.659927 11.203 0.96206 10.2362 1.36088 9.31768C1.43339 9.14848 1.50992 8.97929 1.59049 8.81009L1.79595 8.90677Z" fill="url(#paint1_linear_44_5059)"/>
<path d="M26.1841 4.66484C25.7853 4.26603 25.3623 3.89138 24.9272 3.55299L25.0723 3.37171C25.5073 3.72219 25.9424 4.10892 26.3412 4.50774C27.0784 5.24494 27.7431 6.06674 28.3232 6.93689L28.1299 7.06982C27.5619 6.19968 26.9092 5.38997 26.1841 4.66484Z" fill="url(#paint2_linear_44_5059)"/>
<path d="M9.85676 1.31729C9.16387 1.59123 8.49917 1.9135 7.86268 2.28412L7.75391 2.09076C8.39846 1.71208 9.07121 1.38175 9.77216 1.09976C10.5698 0.785537 11.3916 0.531743 12.2497 0.350463L12.298 0.567998C11.452 0.749278 10.6302 0.990987 9.85676 1.31729Z" fill="url(#paint3_linear_44_5059)"/>
<path d="M29.3991 21.3185C29.7858 20.4121 30.0879 19.4573 30.2934 18.4784C30.3739 18.0756 30.4424 17.6647 30.4988 17.2457L30.7164 17.2699C30.66 17.6969 30.5915 18.1158 30.5109 18.5267C30.2934 19.5298 29.9912 20.4846 29.6045 21.4031C29.5239 21.5723 29.4474 21.7414 29.3749 21.9106L29.1694 21.814C29.25 21.6448 29.3265 21.4796 29.3991 21.3185Z" fill="url(#paint4_linear_44_5059)"/>
<path d="M21.1082 29.4157C21.8011 29.1337 22.4658 28.8074 23.1023 28.4368L23.2111 28.6301C22.5665 29.0088 21.8938 29.3391 21.1928 29.6211C20.3952 29.9354 19.5613 30.1891 18.7032 30.3704L18.667 30.1529C19.5009 29.9716 20.3227 29.7299 21.1082 29.4157Z" fill="url(#paint5_linear_44_5059)"/>
<path d="M0.466806 13.4751C0.386237 14.0955 0.345953 14.724 0.345953 15.3605C0.345953 16.3756 0.442638 17.3666 0.636004 18.3214C0.817284 19.2398 1.08316 20.1342 1.43363 20.9922C1.80828 21.9107 2.26752 22.805 2.79928 23.6268L2.82345 23.651L2.64217 23.7839L2.618 23.7477C2.07416 22.9138 1.60283 22.0195 1.22818 21.0768C0.877707 20.2067 0.599749 19.3003 0.418469 18.3576C0.225104 17.3908 0.128418 16.3877 0.128418 15.3605C0.128418 14.7159 0.168702 14.0794 0.249271 13.451L0.466806 13.4751Z" fill="url(#paint6_linear_44_5059)"/>
<path d="M7.86263 2.28403C7.64509 2.41294 7.42755 2.54588 7.21002 2.68285C6.33987 3.26294 5.51807 3.92764 4.78087 4.66485C4.07992 5.3658 3.45148 6.12717 2.89556 6.96106C2.48465 7.57741 2.11 8.23002 1.79578 8.9068L1.59033 8.81012C1.91261 8.12528 2.28323 7.46865 2.70219 6.84021C3.2702 5.99423 3.91072 5.20869 4.62376 4.50774C5.37305 3.75845 6.19485 3.08166 7.08916 2.50157C7.3067 2.35654 7.52827 2.21958 7.75386 2.09067L7.86263 2.28403Z" fill="url(#paint7_linear_44_5059)"/>
<path d="M24.927 3.55304C24.5887 3.2791 24.2382 3.02128 23.8756 2.77957C23.1142 2.2599 22.2924 1.81275 21.4344 1.45019C20.528 1.06345 19.5853 0.761326 18.5943 0.555875C17.5912 0.338338 16.5519 0.229569 15.4763 0.229569C14.4611 0.229569 13.4822 0.326254 12.5154 0.51962C12.4429 0.535734 12.3704 0.551843 12.2979 0.567957L12.2495 0.350422C12.322 0.334308 12.3986 0.318192 12.4791 0.302078C13.446 0.108712 14.449 -5.57899e-05 15.4763 -5.57899e-05C16.564 -5.57899e-05 17.6275 0.120804 18.6427 0.33834C19.6457 0.543791 20.6005 0.845924 21.519 1.24474C22.3891 1.61939 23.223 2.06654 24.0086 2.58621C24.3711 2.83598 24.7256 3.09782 25.0721 3.37176L24.927 3.55304Z" fill="url(#paint8_linear_44_5059)"/>
<path d="M30.7161 17.2699L30.4986 17.2457C30.5711 16.6253 30.6074 15.9969 30.6074 15.3604C30.6074 14.3452 30.5107 13.3542 30.3173 12.3995C30.136 11.481 29.8702 10.5867 29.5318 9.72864C29.1571 8.81015 28.6979 7.92792 28.1541 7.09403L28.1299 7.06986L28.3232 6.93693L28.3474 6.97318C28.8913 7.80707 29.3626 8.71348 29.7372 9.64405C30.0877 10.5142 30.3536 11.4206 30.5349 12.3632C30.7282 13.3301 30.837 14.3332 30.837 15.3604C30.837 16.005 30.7967 16.6415 30.7161 17.2699Z" fill="url(#paint9_linear_44_5059)"/>
<path d="M23.1021 28.4367C23.3196 28.3078 23.5331 28.1749 23.7426 28.0379C24.6248 27.4578 25.4345 26.8052 26.1838 26.0559C26.8848 25.3549 27.5132 24.5936 28.0691 23.7597C28.48 23.1433 28.8426 22.4907 29.1689 21.8139L29.3743 21.9106C29.044 22.5954 28.6694 23.2521 28.2504 23.8805C27.6945 24.7265 27.0419 25.512 26.3409 26.213C25.5916 26.9744 24.7577 27.6391 23.8634 28.2192C23.654 28.3642 23.4364 28.5012 23.2108 28.6301L23.1021 28.4367Z" fill="url(#paint10_linear_44_5059)"/>
<path d="M6.02551 27.1678C6.3639 27.4458 6.71438 27.6995 7.07694 27.9413C7.8504 28.4609 8.66012 28.9081 9.53026 29.2706C10.4246 29.6574 11.3793 29.9595 12.3582 30.165C13.3613 30.3825 14.4127 30.4913 15.4763 30.4913C16.4914 30.4913 17.4824 30.3946 18.4372 30.2012C18.5097 30.1851 18.5862 30.169 18.6668 30.1529L18.703 30.3704C18.6305 30.3865 18.558 30.4026 18.4855 30.4188C17.5066 30.6121 16.5035 30.7209 15.4763 30.7209C14.3886 30.7209 13.3371 30.6 12.3099 30.3825C11.3189 30.177 10.3521 29.8749 9.43358 29.4761C8.56344 29.1015 7.72955 28.6543 6.95609 28.1346C6.58144 27.8808 6.23097 27.627 5.89258 27.3491L6.02551 27.1678Z" fill="url(#paint11_linear_44_5059)"/>
<path d="M4.7812 26.0559C5.17599 26.4507 5.59091 26.8213 6.02599 27.1678L5.89305 27.3491C5.44589 26.9986 5.02291 26.6239 4.62409 26.213C3.8748 25.4758 3.2101 24.654 2.64209 23.7839L2.82337 23.6509C3.39138 24.5211 4.04399 25.3308 4.7812 26.0559Z" fill="url(#paint12_linear_44_5059)"/>
<path d="M18.1113 2.41697C18.1113 2.76745 18.4014 3.04541 18.7398 3.04541C19.0902 3.04541 19.3682 2.76745 19.3682 2.41697C19.3682 2.07858 19.0902 1.78854 18.7398 1.78854C18.4014 1.78854 18.1113 2.07858 18.1113 2.41697Z" fill="#F8FAF8"/>
<path d="M11.7661 28.3039C11.7661 28.6423 12.0441 28.9323 12.3946 28.9323C12.745 28.9323 13.023 28.6423 13.023 28.3039C13.023 27.9534 12.745 27.6754 12.3946 27.6754C12.0441 27.6754 11.7661 27.9534 11.7661 28.3039Z" fill="#F8FAF8"/>
<path d="M1.75977 17.7049C1.75977 18.0554 2.03773 18.3334 2.37612 18.3334C2.72659 18.3334 3.00455 18.0554 3.00455 17.7049C3.00455 17.3665 2.72659 17.0765 2.37612 17.0765C2.03773 17.0765 1.75977 17.3665 1.75977 17.7049Z" fill="#F8FAF8"/>
<path d="M5.24023 6.12724C5.24023 6.47771 5.5182 6.75568 5.86867 6.75568C6.21915 6.75568 6.49711 6.47771 6.49711 6.12724C6.49711 5.78885 6.21915 5.4988 5.86867 5.4988C5.5182 5.4988 5.24023 5.78885 5.24023 6.12724Z" fill="#F8FAF8"/>
<path d="M27.7676 12.3028C27.7676 12.6412 28.0576 12.9192 28.396 12.9192C28.7465 12.9192 29.0244 12.6412 29.0244 12.3028C29.0244 11.9524 28.7465 11.6744 28.396 11.6744C28.0576 11.6744 27.7676 11.9524 27.7676 12.3028Z" fill="#F8FAF8"/>
<path d="M24.6855 24.2311C24.6855 24.5815 24.9635 24.8595 25.314 24.8595C25.6645 24.8595 25.9424 24.5815 25.9424 24.2311C25.9424 23.8927 25.6645 23.6026 25.314 23.6026C24.9635 23.6026 24.6855 23.8927 24.6855 24.2311Z" fill="#F8FAF8"/>
<path fill-rule="evenodd" clip-rule="evenodd" d="M22.4864 8.3509C22.0151 7.87957 21.5195 7.46867 20.9878 7.11819C20.4681 6.7798 19.9364 6.48975 19.3804 6.24805C18.7762 5.99426 18.1598 5.80089 17.5193 5.66795C16.8546 5.52293 16.1657 5.45042 15.4769 5.45042C14.8364 5.45042 14.1837 5.51084 13.5432 5.64378C12.951 5.76463 12.3589 5.93383 11.7908 6.16345C11.1987 6.39307 10.6186 6.69521 10.0626 7.05777C9.49463 7.42033 8.96288 7.8554 8.46738 8.3509C8.34652 8.47981 8.22567 8.60872 8.10482 8.73763C8.01619 8.83432 7.9316 8.93503 7.85103 9.03977C7.8188 9.08005 7.78657 9.1163 7.75434 9.14853C7.68988 9.2291 7.62543 9.3137 7.56098 9.40233C7.53681 9.43455 7.51264 9.46678 7.48847 9.49901C7.39984 9.61986 7.31524 9.74072 7.23467 9.86157C6.89628 10.3692 6.60623 10.913 6.36452 11.4568C6.11073 12.0611 5.91737 12.6895 5.78443 13.318C5.63941 13.9948 5.56689 14.6715 5.56689 15.3604C5.56689 16.013 5.6394 16.6535 5.76026 17.2941C5.88111 17.8862 6.05031 18.4784 6.27993 19.0464C6.52164 19.6386 6.81168 20.2187 7.17424 20.7746C7.54889 21.3426 7.97188 21.8744 8.46738 22.3699C8.93871 22.8412 9.44629 23.2521 9.97805 23.6026C10.4856 23.941 11.0295 24.231 11.5854 24.4728C12.1776 24.7265 12.806 24.9199 13.4345 25.0528C14.1112 25.1979 14.8001 25.2704 15.4769 25.2704C16.1295 25.2704 16.7821 25.21 17.4226 25.077C18.0148 24.9562 18.5949 24.787 19.1629 24.5573C19.7672 24.3277 20.3473 24.0256 20.8911 23.663C21.02 23.5825 21.1449 23.4979 21.2658 23.4092C21.306 23.377 21.3463 23.3488 21.3866 23.3246C21.4752 23.2602 21.5598 23.1917 21.6404 23.1192C21.6807 23.087 21.721 23.0547 21.7613 23.0225C21.866 22.9339 21.9748 22.8453 22.0876 22.7566L22.1117 22.7204C22.2406 22.6076 22.3655 22.4908 22.4864 22.3699C22.6072 22.2571 22.72 22.1403 22.8248 22.0194L22.861 21.9832C22.9094 21.9268 22.9577 21.8704 23.006 21.814C22.9899 21.8301 22.9779 21.8422 22.9698 21.8502C23.0181 21.8019 23.0624 21.7495 23.1027 21.6931C23.1027 21.6931 23.1068 21.6891 23.1148 21.681C23.147 21.6408 23.1752 21.6045 23.1994 21.5723C23.2639 21.4917 23.3283 21.4071 23.3928 21.3185C23.425 21.2862 23.4532 21.254 23.4774 21.2218C23.5579 21.1009 23.6385 20.9801 23.7191 20.8592C24.0696 20.3516 24.3596 19.8199 24.5892 19.264C24.843 18.6597 25.0364 18.0313 25.1693 17.4028C25.3144 16.726 25.3869 16.0493 25.3869 15.3604C25.3869 14.7078 25.3264 14.0673 25.1935 13.4267C25.0847 12.8346 24.9035 12.2424 24.6859 11.6744C24.4442 11.0822 24.1421 10.5021 23.7795 9.94617C23.417 9.37816 22.9819 8.8464 22.4864 8.3509Z" fill="url(#paint13_linear_44_5059)"/>
<path fill-rule="evenodd" clip-rule="evenodd" d="M25.1812 15.3604C25.1812 14.7078 25.1087 14.0794 24.9878 13.463C24.879 12.8708 24.6977 12.3028 24.4802 11.759C24.2385 11.1547 23.9485 10.5988 23.598 10.067C23.2354 9.49902 22.8124 8.97934 22.3411 8.50801C21.8819 8.06086 21.3984 7.64996 20.8667 7.29948C20.3712 6.96109 19.8515 6.68313 19.2956 6.44142C18.7155 6.19972 18.1112 6.00635 17.4828 5.87341C16.8302 5.72839 16.1655 5.65588 15.4766 5.65588C15.2994 5.65588 15.1262 5.66393 14.957 5.68004C14.9247 5.68004 14.8965 5.68004 14.8724 5.68004C14.7757 5.6881 14.679 5.69616 14.5823 5.70421C14.6709 5.69616 14.7555 5.6881 14.8361 5.68004C14.7475 5.6881 14.6589 5.69616 14.5702 5.70421C14.5219 5.71227 14.4776 5.7163 14.4373 5.7163C14.3326 5.73242 14.2278 5.7445 14.1231 5.75256C14.0828 5.76061 14.0425 5.76867 14.0022 5.77673C13.8572 5.8009 13.7162 5.82507 13.5792 5.84924C12.987 5.97009 12.419 6.13929 11.8752 6.35682C11.283 6.59853 10.715 6.88858 10.1832 7.23905C9.61524 7.6137 9.09556 8.03669 8.62424 8.50801C8.17708 8.95517 7.76618 9.45067 7.4157 9.98243C7.08537 10.4739 6.79935 10.9936 6.55764 11.5414C6.31594 12.1215 6.12257 12.7258 5.98963 13.3663C5.85669 14.0069 5.78418 14.6715 5.78418 15.3604C5.78418 16.013 5.84461 16.6415 5.96546 17.2578C6.08631 17.85 6.25551 18.418 6.47305 18.9618C6.71475 19.5661 7.01689 20.122 7.35527 20.6538C7.72992 21.2218 8.15291 21.7415 8.62424 22.2128C9.07139 22.66 9.56689 23.0709 10.0986 23.4213C10.5941 23.7597 11.1138 24.0377 11.6577 24.2794C12.2378 24.5211 12.8541 24.7145 13.4825 24.8474C13.6276 24.8796 13.7726 24.9078 13.9176 24.932C13.966 24.9401 14.0103 24.9481 14.0506 24.9562C14.1634 24.9723 14.2721 24.9844 14.3769 24.9924C14.4252 25.0005 14.4735 25.0085 14.5219 25.0166C14.6589 25.0247 14.7958 25.0327 14.9328 25.0408L14.969 25.0529C15.1382 25.0609 15.3074 25.0649 15.4766 25.0649C15.6378 25.0649 15.7989 25.0609 15.96 25.0529L16.0084 25.0408C16.0164 25.0408 16.0285 25.0408 16.0446 25.0408C16.1494 25.0327 16.2541 25.0247 16.3589 25.0166C16.3669 25.0166 16.375 25.0166 16.383 25.0166C16.4314 25.0085 16.4797 25.0045 16.5281 25.0045C16.6247 24.9884 16.7254 24.9763 16.8302 24.9683C16.8705 24.9602 16.9148 24.9521 16.9631 24.9441C17.1001 24.9199 17.2371 24.8957 17.374 24.8716C17.9662 24.7507 18.5342 24.5815 19.0902 24.364C19.6823 24.1223 20.2503 23.8322 20.77 23.4818C21.338 23.1192 21.8577 22.6962 22.3411 22.2128C22.7883 21.7656 23.1871 21.2701 23.5496 20.7384C23.8759 20.255 24.166 19.7232 24.3956 19.1794C24.6494 18.5993 24.8428 17.995 24.9757 17.3545C25.1086 16.714 25.1812 16.0493 25.1812 15.3604ZM16.7698 24.9683C16.6973 24.9844 16.6247 24.9965 16.5522 25.0045C16.6247 24.9884 16.6973 24.9763 16.7698 24.9683ZM16.3589 25.0166C16.3589 25.0166 16.3548 25.0166 16.3468 25.0166C16.3548 25.0166 16.3629 25.0166 16.3709 25.0166C16.3629 25.0166 16.3589 25.0166 16.3589 25.0166ZM16.1413 25.0408C16.1091 25.0408 16.0769 25.0408 16.0446 25.0408C16.0366 25.0408 16.0245 25.0408 16.0084 25.0408C16.0487 25.0408 16.093 25.0408 16.1413 25.0408ZM14.957 5.68004C14.9247 5.68004 14.8965 5.68004 14.8724 5.68004C14.8562 5.68004 14.8442 5.68004 14.8361 5.68004C14.8764 5.68004 14.9167 5.68004 14.957 5.68004Z" fill="#E31A3C"/>
<defs>
<linearGradient id="paint0_linear_44_5059" x1="4.47828" y1="26.3297" x2="26.416" y2="26.3297" gradientUnits="userSpaceOnUse">
<stop stop-color="#FC005C"/>
<stop offset="1" stop-color="#C80E2D"/>
</linearGradient>
<linearGradient id="paint1_linear_44_5059" x1="0.976923" y1="8.6328" x2="1.88089" y2="8.90065" gradientUnits="userSpaceOnUse">
<stop stop-color="#A9A5A6"/>
<stop offset="1" stop-color="white"/>
</linearGradient>
<linearGradient id="paint2_linear_44_5059" x1="29.2167" y1="6.04668" x2="27.9145" y2="7.34887" gradientUnits="userSpaceOnUse">
<stop stop-color="#A9A5A6"/>
<stop offset="1" stop-color="white"/>
</linearGradient>
<linearGradient id="paint3_linear_44_5059" x1="12.048" y1="-0.175249" x2="12.3937" y2="0.720158" gradientUnits="userSpaceOnUse">
<stop stop-color="#A9A5A6"/>
<stop offset="1" stop-color="white"/>
</linearGradient>
<linearGradient id="paint4_linear_44_5059" x1="30.4646" y1="22.1595" x2="28.83" y2="21.7822" gradientUnits="userSpaceOnUse">
<stop stop-color="#A9A5A6"/>
<stop offset="1" stop-color="white"/>
</linearGradient>
<linearGradient id="paint5_linear_44_5059" x1="19.2191" y1="31.6093" x2="18.5831" y2="30.0697" gradientUnits="userSpaceOnUse">
<stop stop-color="#A9A5A6"/>
<stop offset="1" stop-color="white"/>
</linearGradient>
<linearGradient id="paint6_linear_44_5059" x1="1.93808" y1="24.0214" x2="0.392746" y2="24.5567" gradientUnits="userSpaceOnUse">
<stop stop-color="#FB0065"/>
<stop offset="1" stop-color="#C80E2D"/>
</linearGradient>
<linearGradient id="paint7_linear_44_5059" x1="1.60653" y1="8.83066" x2="0.434048" y2="7.71502" gradientUnits="userSpaceOnUse">
<stop stop-color="#F30058"/>
<stop offset="1" stop-color="#C80E2D"/>
</linearGradient>
<linearGradient id="paint8_linear_44_5059" x1="12.0854" y1="0.996382" x2="12.845" y2="-1.99715" gradientUnits="userSpaceOnUse">
<stop stop-color="#CF0237"/>
<stop offset="1" stop-color="#B1122E"/>
</linearGradient>
<linearGradient id="paint9_linear_44_5059" x1="24.2162" y1="13.0492" x2="26.6744" y2="9.2948" gradientUnits="userSpaceOnUse">
<stop stop-color="#FC1054"/>
<stop offset="1" stop-color="#C80E2D"/>
</linearGradient>
<linearGradient id="paint10_linear_44_5059" x1="27.7132" y1="20.9549" x2="29.5013" y2="21.983" gradientUnits="userSpaceOnUse">
<stop stop-color="#FB0065"/>
<stop offset="1" stop-color="#C80E2D"/>
</linearGradient>
<linearGradient id="paint11_linear_44_5059" x1="18.1453" y1="32.3705" x2="17.8428" y2="33.4431" gradientUnits="userSpaceOnUse">
<stop stop-color="#FB0065"/>
<stop offset="1" stop-color="#C80E2D"/>
</linearGradient>
<linearGradient id="paint12_linear_44_5059" x1="1.42365" y1="24.9037" x2="2.92743" y2="23.5108" gradientUnits="userSpaceOnUse">
<stop stop-color="#A9A5A6"/>
<stop offset="1" stop-color="white"/>
</linearGradient>
<linearGradient id="paint13_linear_44_5059" x1="5.5333" y1="25.2685" x2="25.349" y2="25.2685" gradientUnits="userSpaceOnUse">
<stop stop-color="#FC005C"/>
<stop offset="1" stop-color="#C80E2D"/>
</linearGradient>
</defs>
</svg>
