<svg width="37" height="37" viewBox="0 0 37 37" fill="none" xmlns="http://www.w3.org/2000/svg">
<path fill-rule="evenodd" clip-rule="evenodd" d="M32.7522 18.9571C32.7522 18.0337 32.667 17.1244 32.4823 16.2578C32.326 15.4054 32.0703 14.5956 31.7577 13.8142C31.4168 12.976 31.0048 12.1662 30.5075 11.4132C29.9818 10.6176 29.3852 9.86466 28.7032 9.19693C28.0639 8.55762 27.3678 7.97513 26.6148 7.47788C25.9044 7.00905 25.1657 6.59705 24.3843 6.25608C23.5603 5.90091 22.6936 5.63097 21.7844 5.44628C20.8752 5.24738 19.9233 5.14794 18.943 5.14794C18.6967 5.14794 18.4505 5.15267 18.2042 5.16214C18.0148 5.17161 17.8301 5.18582 17.6502 5.20476C17.5839 5.21424 17.5176 5.22371 17.4513 5.23318C17.3092 5.24265 17.1671 5.26159 17.0251 5.29001C16.9588 5.29001 16.8972 5.29474 16.8404 5.30421C16.6415 5.3421 16.4426 5.37998 16.2437 5.41787C15.4055 5.57415 14.5957 5.82987 13.8143 6.14243C12.9619 6.4834 12.1663 6.8954 11.4133 7.39264C10.6035 7.9183 9.86472 8.515 9.18279 9.19693C8.54347 9.83625 7.97519 10.5324 7.46374 11.2854C6.99491 11.9957 6.59711 12.7345 6.25615 13.5159C5.90097 14.3399 5.63104 15.2065 5.43214 16.1015C5.24745 17.025 5.13379 17.9769 5.13379 18.9571C5.13379 19.8806 5.23324 20.7756 5.40373 21.6565C5.57421 22.4947 5.81573 23.3045 6.12828 24.0859C6.46925 24.9383 6.89546 25.7339 7.39271 26.4869C7.90416 27.2967 8.51506 28.0354 9.18279 28.7174C9.8221 29.3567 10.5324 29.925 11.2854 30.4364C11.9816 30.9052 12.7345 31.303 13.5159 31.644C14.3399 31.9992 15.2066 32.2691 16.1016 32.468C16.31 32.5059 16.5183 32.5438 16.7267 32.5817C16.793 32.5911 16.8593 32.6006 16.9256 32.6101C17.0771 32.629 17.2287 32.648 17.3802 32.6669C17.4465 32.6764 17.5128 32.6859 17.5791 32.6953C17.778 32.7143 17.9769 32.7285 18.1758 32.7379H18.2326C18.4694 32.7569 18.7062 32.7664 18.943 32.7664C19.1703 32.7664 19.3976 32.7569 19.6249 32.7379H19.696C19.7433 32.7379 19.7954 32.7332 19.8523 32.7237C19.9754 32.7143 20.0985 32.7048 20.2216 32.6953C20.1743 32.7048 20.1269 32.7095 20.0796 32.7095C20.1364 32.7095 20.1885 32.7048 20.2358 32.6953C20.3021 32.6859 20.3684 32.6811 20.4347 32.6811C20.5768 32.6622 20.7236 32.6432 20.8751 32.6243C20.932 32.6148 20.9935 32.6053 21.0598 32.5959C21.2587 32.5675 21.4529 32.5343 21.6423 32.4964C22.4805 32.3259 23.3046 32.0844 24.0859 31.7719C24.9242 31.4309 25.7339 31.0047 26.4869 30.5074C27.2825 29.9818 28.0355 29.3851 28.7032 28.7174C29.3425 28.078 29.925 27.3677 30.4223 26.6147C30.8911 25.9186 31.3031 25.1656 31.6441 24.3842C31.9992 23.5602 32.2692 22.6936 32.4539 21.7985C32.6528 20.8751 32.7522 19.9232 32.7522 18.9571ZM20.0796 32.7095C20.0038 32.719 19.928 32.7237 19.8523 32.7237C19.8049 32.7332 19.7575 32.7379 19.7102 32.7379C19.8333 32.7285 19.9564 32.719 20.0796 32.7095Z" fill="#093679"/>
<path d="M5.5314 13.2175C5.16202 14.0841 4.87788 14.9934 4.67898 15.9452C4.59374 16.343 4.52745 16.7408 4.48009 17.1386L1.04199 16.7124C1.09882 16.2104 1.17933 15.7179 1.28351 15.2349C1.52503 14.0557 1.88021 12.9333 2.34904 11.8536C2.43428 11.6547 2.52425 11.4558 2.61897 11.2569L5.75872 12.7344C5.68295 12.8955 5.60717 13.0565 5.5314 13.2175Z" fill="#F8F5F6"/>
<path d="M34.0452 9.05488L31.1469 10.9586C30.5929 10.1204 29.9678 9.33902 29.2574 8.64288C28.8785 8.26402 28.476 7.90411 28.0498 7.56314L30.2235 4.86381C30.7444 5.28055 31.2417 5.72097 31.7152 6.18506C32.5818 7.0659 33.3632 8.01777 34.0452 9.05488Z" fill="#F8F5F6"/>
<path d="M13.5159 5.41787C12.853 5.68306 12.2136 5.99562 11.598 6.35553L9.86475 3.35785C10.6225 2.9127 11.4133 2.52437 12.2373 2.19288C13.175 1.82349 14.1411 1.52515 15.1498 1.29784L15.8743 4.69331C15.0598 4.87326 14.2737 5.11478 13.5159 5.41787Z" fill="#F8F5F6"/>
<path d="M32.3542 24.6968C32.7236 23.8159 33.0219 22.9067 33.2208 21.9548C33.2966 21.5665 33.3629 21.1687 33.4197 20.7614L36.8578 21.2018C36.7915 21.6944 36.711 22.1869 36.6163 22.6794C36.3606 23.8443 36.0054 24.9809 35.5508 26.0606C35.4561 26.2595 35.3661 26.4537 35.2809 26.6431L32.1411 25.1656C32.2169 25.0141 32.2879 24.8578 32.3542 24.6968Z" fill="#F8F5F6"/>
<path d="M24.3701 32.4964C25.0331 32.2217 25.6724 31.9092 26.288 31.5587L28.0355 34.5564C27.2778 34.9921 26.4869 35.3757 25.6629 35.7072C24.7253 36.0908 23.745 36.3891 22.7363 36.6022L22.0117 33.2068C22.8215 33.0363 23.6171 32.7948 24.3701 32.4964Z" fill="#F8F5F6"/>
<path fill-rule="evenodd" clip-rule="evenodd" d="M36.9999 18.9571C36.9999 17.7495 36.872 16.5703 36.6447 15.4196C36.4316 14.3256 36.1191 13.2601 35.7071 12.2372C35.2666 11.129 34.7126 10.0777 34.0733 9.09744L34.0448 9.05482L31.1466 10.9586C30.5925 10.1203 29.9674 9.33896 29.2571 8.64281C28.8782 8.26396 28.4757 7.90405 28.0495 7.56308L30.2232 4.86375C29.8159 4.54173 29.3992 4.23391 28.9729 3.9403C28.0495 3.32939 27.0692 2.78953 26.0463 2.34911C24.9666 1.89448 23.8442 1.53931 22.665 1.28358C21.4716 1.04206 20.2214 0.899997 18.9428 0.899997C17.7352 0.899997 16.556 1.02786 15.4195 1.25517C15.3248 1.26464 15.2348 1.27885 15.1495 1.29779L15.8741 4.69326C15.0643 4.86375 14.2829 5.10527 13.5157 5.41782C12.8527 5.68302 12.2134 5.99558 11.5978 6.35549L9.86452 3.35781C9.59932 3.50935 9.33886 3.66562 9.08313 3.82664C8.03182 4.52278 7.06574 5.30417 6.18491 6.185C5.3467 7.02321 4.59372 7.94667 3.92599 8.92695C3.43348 9.66572 2.9978 10.4424 2.61895 11.2569L5.7587 12.7344C5.68293 12.8954 5.60715 13.0565 5.53138 13.2175C5.162 14.0841 4.87786 14.9933 4.67896 15.9452C4.59372 16.343 4.52743 16.7408 4.48007 17.1386L1.04197 16.7124C0.947259 17.4417 0.899902 18.1899 0.899902 18.9571C0.899902 20.1647 1.01356 21.3439 1.24087 22.4804C1.45398 23.5886 1.78073 24.6541 2.19274 25.6628C2.63315 26.771 3.18723 27.8223 3.82654 28.8168L3.85496 28.8452L6.75319 26.9414C7.29306 27.7797 7.93237 28.561 8.62852 29.2572C9.01684 29.6455 9.41937 30.0054 9.83611 30.3369L7.67665 33.0505C8.07444 33.3725 8.49118 33.6756 8.92686 33.9597C9.83611 34.5848 10.8164 35.1105 11.8393 35.5509C12.919 36.0197 14.0556 36.3749 15.2206 36.6164C16.4282 36.8721 17.6642 37 18.9428 37C20.1504 37 21.3296 36.8863 22.4803 36.659C22.5656 36.6401 22.6508 36.6211 22.7361 36.6022L22.0115 33.2067C22.8213 33.0362 23.6169 32.7947 24.3699 32.4964C25.0329 32.2217 25.6722 31.9092 26.2878 31.5587L28.0353 34.5564C28.3005 34.3954 28.5562 34.2344 28.8025 34.0734C29.8538 33.3914 30.8341 32.5958 31.7149 31.715C32.5389 30.8768 33.3061 29.9675 33.9596 28.973C34.4521 28.2343 34.8925 27.4576 35.2809 26.6431L32.1411 25.1656C32.2169 25.014 32.2879 24.8577 32.3542 24.6967C32.7236 23.8159 33.0219 22.9066 33.2208 21.9548C33.2966 21.5665 33.3629 21.1687 33.4197 20.7614L36.8578 21.2018C36.9525 20.463 36.9999 19.7148 36.9999 18.9571ZM6.72477 26.913L6.75319 26.9414C6.74372 26.932 6.73425 26.9225 6.72477 26.913ZM16.1014 4.65065C16.0256 4.66959 15.9499 4.68379 15.8741 4.69326C15.9499 4.67432 16.0256 4.66012 16.1014 4.65065ZM30.7062 14.2404C31.0045 14.9507 31.2177 15.7037 31.3739 16.4709C31.5444 17.2807 31.6297 18.1047 31.6297 18.9571C31.6297 19.8521 31.5302 20.7188 31.3455 21.5712C31.175 22.3952 30.9193 23.1766 30.6067 23.9438C30.2942 24.6541 29.9106 25.3503 29.4844 25.9896C29.0156 26.6857 28.4899 27.325 27.9074 27.9075C27.2823 28.5326 26.6004 29.0867 25.8616 29.5697C25.1797 30.0244 24.4409 30.4079 23.6595 30.7205C22.9492 31.0046 22.1962 31.232 21.429 31.3882C20.6192 31.5445 19.7952 31.6298 18.9428 31.6298C18.0478 31.6298 17.1811 31.5303 16.3287 31.3598C15.5047 31.1893 14.7091 30.9336 13.9561 30.6068C13.2458 30.2943 12.5496 29.9249 11.9103 29.4987C11.2142 29.0299 10.5749 28.5042 9.99239 27.9075C9.36728 27.2966 8.8132 26.6147 8.33016 25.8759C7.87554 25.1798 7.49195 24.441 7.1794 23.6596C6.89526 22.9493 6.66795 22.2105 6.51167 21.4291C6.35539 20.6335 6.27015 19.7953 6.27015 18.9571C6.27015 18.0621 6.3696 17.1812 6.54009 16.343C6.71057 15.519 6.96629 14.7234 7.29305 13.9704C7.60561 13.2506 7.97499 12.5639 8.4012 11.9104C8.87003 11.2285 9.39569 10.575 9.99239 9.99248C10.6033 9.36737 11.2852 8.82751 12.024 8.34447C12.7201 7.88984 13.4589 7.50625 14.2261 7.1937C14.9506 6.89535 15.6894 6.66804 16.4708 6.52597C17.2664 6.35549 18.1046 6.27024 18.9428 6.27024C19.8378 6.27024 20.7187 6.36969 21.5569 6.55438C22.3809 6.72487 23.1765 6.98059 23.9295 7.29315C24.654 7.6057 25.336 7.97509 25.9753 8.4155C26.6714 8.87013 27.3249 9.40999 27.9074 9.99248C28.5183 10.6176 29.0724 11.2995 29.5554 12.0383C30.0101 12.7202 30.3936 13.459 30.7062 14.2404Z" fill="#6561C0"/>
<path d="M8.62854 29.2573C9.01686 29.6456 9.4194 30.0055 9.83614 30.337L7.67667 33.0505C7.15575 32.6338 6.6585 32.1886 6.18493 31.7151C5.3041 30.8485 4.52271 29.8824 3.85498 28.8453L6.75321 26.9415C7.29308 27.7797 7.9324 28.5611 8.62854 29.2573Z" fill="#F8F5F6"/>
<path d="M30.3509 21.358C30.1947 22.111 29.9531 22.8356 29.6548 23.5317C29.3707 24.1995 29.0297 24.8246 28.6319 25.4213C28.2057 26.0606 27.7226 26.6431 27.1828 27.1829C26.6145 27.7512 25.9894 28.2627 25.3075 28.7031C24.6681 29.1293 23.9862 29.4845 23.2759 29.7686C22.6223 30.0385 21.9404 30.2374 21.23 30.3795C20.4913 30.5216 19.7241 30.6068 18.9427 30.6068C18.1187 30.6068 17.3231 30.5216 16.5417 30.3511C15.7888 30.1948 15.05 29.9675 14.3681 29.6691C13.7003 29.385 13.0752 29.044 12.4785 28.6462C11.8392 28.22 11.2425 27.7228 10.7027 27.1829C10.1344 26.6146 9.63713 25.9895 9.19671 25.3076C8.7705 24.6825 8.41533 24.0006 8.13119 23.2902C7.86125 22.6225 7.66235 21.9405 7.52028 21.2302C7.37821 20.4914 7.29297 19.7385 7.29297 18.9571C7.29297 18.1331 7.37821 17.3233 7.54869 16.5561C7.70497 15.7889 7.93228 15.0643 8.23063 14.3682C8.51477 13.7052 8.85574 13.0801 9.25353 12.4929C9.67974 11.8536 10.177 11.2569 10.7169 10.717C11.2851 10.1487 11.9102 9.63727 12.578 9.19685C13.2173 8.78485 13.8992 8.42967 14.6096 8.14553C15.2773 7.8756 15.9592 7.6625 16.6696 7.52043C17.2284 7.41624 17.7967 7.34994 18.3744 7.32153C17.7967 7.34994 17.2379 7.41624 16.698 7.52043C15.9877 7.6625 15.3199 7.86139 14.6664 8.13133C13.9561 8.41547 13.2883 8.77064 12.6632 9.16844C11.9955 9.60885 11.3704 10.1203 10.8021 10.6744C10.2764 11.2142 9.7934 11.7967 9.36719 12.4218C8.9836 13.0043 8.64263 13.6294 8.35849 14.283C8.06015 14.9791 7.83284 15.6895 7.67656 16.4424C7.52028 17.2096 7.43504 18.0052 7.43504 18.815C7.43504 19.5822 7.50607 20.3351 7.64814 21.0597C7.79021 21.7701 8.00332 22.452 8.25904 23.0913C8.54318 23.8017 8.89836 24.4694 9.31037 25.0945C9.73658 25.7764 10.248 26.3873 10.8021 26.9556C11.342 27.4813 11.9245 27.9643 12.5496 28.3905C13.1463 28.7741 13.7572 29.1151 14.4107 29.3992C15.1068 29.6976 15.8314 29.9249 16.5701 30.0812C17.3373 30.2374 18.1329 30.3369 18.9427 30.3369C19.7099 30.3369 20.4629 30.2516 21.2016 30.1096C21.8978 29.9675 22.5797 29.7686 23.2332 29.4987C23.9294 29.2145 24.5971 28.8736 25.2364 28.4616C25.9041 28.0211 26.515 27.5097 27.0833 26.9556C27.6232 26.4157 28.092 25.8333 28.5182 25.2081C28.916 24.6209 29.2523 24.0006 29.5269 23.347C29.8253 22.6509 30.0526 21.9405 30.2089 21.1876C30.3794 20.4204 30.4646 19.6248 30.4646 18.815C30.4646 18.0478 30.3794 17.2948 30.2373 16.5703C30.0952 15.8599 29.8963 15.178 29.6264 14.5387C29.3422 13.8283 29.0013 13.1606 28.5893 12.5355C28.1489 11.8678 27.6516 11.2427 27.0833 10.6744C26.5435 10.1487 25.961 9.66568 25.3359 9.23947C24.7486 8.85115 24.1283 8.51492 23.4748 8.23078C22.7928 7.93243 22.0683 7.70512 21.3153 7.54884C20.5481 7.39256 19.7525 7.30732 18.9427 7.30732C19.7667 7.30732 20.5765 7.39256 21.3437 7.54884C22.1109 7.70512 22.8354 7.94663 23.5316 8.24498C24.1946 8.52912 24.8197 8.87009 25.4069 9.26789C26.0462 9.6941 26.6429 10.1771 27.1828 10.717C27.7511 11.2853 28.2625 11.9104 28.7029 12.5923C29.1149 13.2316 29.4701 13.9136 29.7542 14.6239C30.0242 15.2775 30.2373 15.9594 30.3794 16.6697C30.5214 17.4085 30.5925 18.1757 30.5925 18.9571C30.5925 19.7811 30.5072 20.5767 30.3509 21.358Z" fill="#EA7374"/>
<path fill-rule="evenodd" clip-rule="evenodd" d="M9.82199 28.078C10.4329 28.6889 11.0864 29.2146 11.7826 29.6834C12.4503 30.1238 13.1464 30.5074 13.871 30.8058C14.6524 31.1468 15.4622 31.4025 16.2862 31.573C17.167 31.7577 18.0478 31.8429 18.9429 31.8429C19.7953 31.8429 20.6335 31.7577 21.4717 31.6014C22.2389 31.4451 23.0061 31.2178 23.7449 30.9336C24.5262 30.6211 25.2792 30.2233 25.9896 29.7545C26.7283 29.2856 27.4245 28.7174 28.0638 28.078C28.6747 27.4671 29.2146 26.8136 29.6692 26.1175C30.1238 25.4497 30.4932 24.7536 30.8057 24.029C31.1325 23.2477 31.3882 22.4379 31.5587 21.6139C31.7434 20.733 31.8428 19.838 31.8428 18.9571C31.8428 18.1047 31.7576 17.2665 31.5871 16.4283C31.4451 15.6611 31.2177 14.8939 30.9194 14.1552C30.6068 13.3738 30.2232 12.6208 29.7544 11.9105C29.2714 11.1717 28.7173 10.4756 28.0638 9.83624C27.4529 9.22534 26.7994 8.68547 26.1032 8.23085C25.4355 7.77623 24.7393 7.40684 24.0148 7.09429C23.2334 6.76753 22.4236 6.5118 21.5996 6.34132C20.733 6.15663 19.8379 6.05718 18.9429 6.05718C18.1047 6.05718 17.2523 6.14242 16.4282 6.3129C15.6469 6.45497 14.8939 6.68229 14.1551 6.98063C13.3737 7.29319 12.6208 7.67678 11.8962 8.14561C11.1717 8.62865 10.4613 9.18272 9.82199 9.83624C9.21108 10.4471 8.68543 11.1007 8.2166 11.7968C7.77618 12.4645 7.39259 13.1607 7.09424 13.8852C6.75327 14.6666 6.49755 15.4764 6.32707 16.3004C6.14237 17.1671 6.05713 18.0621 6.05713 18.9571C6.05713 19.7954 6.12817 20.6478 6.29865 21.4718C6.45493 22.2532 6.68224 23.0061 6.96638 23.7449C7.27893 24.5263 7.67673 25.2793 8.14556 26.0038C8.61439 26.7284 9.18267 27.4245 9.82199 28.078ZM12.365 28.8168C11.7257 28.3906 11.129 27.8933 10.5608 27.3393C9.96406 26.7426 9.4526 26.1033 9.01218 25.4355C8.58597 24.7678 8.2308 24.0717 7.93246 23.3613C7.66252 22.6794 7.46363 21.9832 7.32156 21.2729C7.16528 20.5057 7.09424 19.7243 7.09424 18.9571C7.09424 18.1331 7.17949 17.3091 7.34997 16.5135C7.50625 15.7606 7.73356 15.0076 8.04611 14.283C8.33025 13.6295 8.67122 12.976 9.08322 12.3651C9.50943 11.74 10.0067 11.1291 10.5608 10.575C11.1574 9.97831 11.7968 9.46686 12.4645 9.02644C13.1322 8.58602 13.8284 8.23085 14.5387 7.94671C15.2207 7.67678 15.9168 7.46367 16.6271 7.3216C17.3943 7.17953 18.1757 7.09429 18.9429 7.09429C19.7669 7.09429 20.5767 7.19374 21.3865 7.35002C22.1395 7.5205 22.8924 7.74781 23.617 8.06037C24.2705 8.34451 24.9098 8.68547 25.5349 9.09748C26.16 9.50948 26.7709 10.0067 27.325 10.575C27.9217 11.1575 28.4332 11.7968 28.8736 12.4787C29.314 13.1323 29.6692 13.8284 29.9533 14.5388C30.2232 15.2207 30.4364 15.931 30.5642 16.6414C30.7205 17.3944 30.7915 18.1758 30.7915 18.9571C30.7915 19.7669 30.7063 20.5909 30.55 21.4007C30.3795 22.1537 30.1522 22.8925 29.8397 23.617C29.5555 24.2848 29.2146 24.9241 28.8026 25.535C28.3763 26.1743 27.8933 26.771 27.325 27.3393C26.7425 27.936 26.1032 28.4474 25.4213 28.8878C24.7678 29.314 24.0716 29.6692 23.3613 29.9534C22.6793 30.2375 21.969 30.4364 21.2586 30.5785C20.5057 30.7347 19.7243 30.8058 18.9429 30.8058C18.1331 30.8058 17.3091 30.7205 16.4993 30.5501C15.7463 30.3938 15.0075 30.1523 14.283 29.8539C13.6153 29.5698 12.9759 29.2288 12.365 28.8168Z" fill="url(#paint0_linear_233_2724)"/>
<path d="M28.6322 25.4213L29.4846 25.9896C29.0158 26.6857 28.4901 27.325 27.9077 27.9075L27.1831 27.183C27.723 26.6431 28.206 26.0606 28.6322 25.4213Z" fill="#6561C0"/>
<path d="M29.6547 23.5318L30.5924 23.9438C30.2941 24.6542 29.9105 25.3503 29.4843 25.9896L28.6318 25.4213C29.0296 24.8246 29.3706 24.1995 29.6547 23.5318Z" fill="#E3DEDD"/>
<path d="M30.3509 21.3581L31.3454 21.5712C31.1749 22.3952 30.9192 23.1766 30.5924 23.9438L29.6548 23.5318C29.9531 22.8356 30.1946 22.1111 30.3509 21.3581Z" fill="#6561C0"/>
<path d="M27.1831 10.717L27.9077 9.99246C28.5186 10.6176 29.0726 11.2995 29.5557 12.0383L28.7033 12.5923C28.2628 11.9104 27.7514 11.2853 27.1831 10.717Z" fill="#E3DEDD"/>
<path d="M8.13132 23.2903L7.17945 23.6597C6.89531 22.9493 6.668 22.2106 6.51172 21.4292L7.52041 21.2303C7.66248 21.9406 7.86139 22.6226 8.13132 23.2903Z" fill="#E3DEDD"/>
<path d="M7.54873 16.5562L6.54004 16.3431C6.71052 15.5191 6.96625 14.7235 7.29301 13.9705L8.23067 14.3683C7.93232 15.0645 7.70501 15.789 7.54873 16.5562Z" fill="#6561C0"/>
<path d="M7.52023 21.2302L6.51154 21.4291C6.35526 20.6335 6.27002 19.7953 6.27002 18.9571H7.29293C7.29293 19.7385 7.37816 20.4915 7.52023 21.2302Z" fill="#6561C0"/>
<path d="M7.29293 18.9572H6.27002C6.27002 18.0621 6.36947 17.1813 6.53996 16.3431L7.54865 16.5562C7.37817 17.3233 7.29293 18.1331 7.29293 18.9572Z" fill="#E3DEDD"/>
<path d="M8.23063 14.3683L7.29297 13.9705C7.60552 13.2507 7.9749 12.564 8.40111 11.9105L9.25353 12.4788C8.85574 13.0754 8.51477 13.7053 8.23063 14.3683Z" fill="#E3DEDD"/>
<path d="M10.7167 10.7171L9.99219 9.99254C10.6031 9.36744 11.285 8.82757 12.0238 8.34453L12.5779 9.19695C11.9101 9.63737 11.285 10.1488 10.7167 10.7171Z" fill="#E3DEDD"/>
<path d="M9.2533 12.4788L8.40088 11.9105C8.86971 11.2286 9.39537 10.575 9.99207 9.99255L10.7166 10.7171C10.1768 11.257 9.67951 11.8537 9.2533 12.493V12.4788Z" fill="#6561C0"/>
<path d="M12.578 9.1969L12.0239 8.34448C12.7201 7.88985 13.4588 7.50626 14.226 7.19371L14.6096 8.14558C13.8993 8.42972 13.2173 8.7849 12.578 9.1969Z" fill="#6561C0"/>
<path d="M9.19708 25.3077L8.33045 25.876C7.87583 25.1798 7.49224 24.4411 7.17969 23.6597L8.13156 23.2903C8.4157 24.0007 8.77087 24.6826 9.19708 25.3077Z" fill="#6561C0"/>
<path d="M18.9427 30.6069V31.6298C18.0477 31.6298 17.181 31.5303 16.3286 31.3598L16.5417 30.3511C17.3231 30.5216 18.1187 30.6069 18.9427 30.6069Z" fill="#E3DEDD"/>
<path d="M14.368 29.6691L13.956 30.6068C13.2456 30.2943 12.5495 29.9249 11.9102 29.4987L12.4784 28.6462C13.0751 29.0298 13.7002 29.385 14.368 29.6691Z" fill="#E3DEDD"/>
<path d="M16.5417 30.3512L16.3286 31.3599C15.5046 31.1894 14.709 30.9337 13.9561 30.6069L14.3681 29.6692C15.05 29.9676 15.7888 30.1949 16.5417 30.3512Z" fill="#6561C0"/>
<path d="M10.7027 27.183L9.9923 27.9075C9.36719 27.2966 8.81312 26.6147 8.33008 25.8759L9.19671 25.3076C9.63713 25.9896 10.1344 26.6147 10.7027 27.183Z" fill="#E3DEDD"/>
<path d="M12.4784 28.6463L11.9101 29.4987C11.214 29.0299 10.5747 28.5042 9.99219 27.9075L10.7025 27.183C11.2424 27.7228 11.8391 28.2201 12.4784 28.6463Z" fill="#6561C0"/>
<path d="M30.3511 21.3581C30.5074 20.5767 30.5926 19.7811 30.5926 18.9571H31.6297C31.6297 19.8522 31.5303 20.7188 31.3456 21.5712L30.3511 21.3581Z" fill="#E3DEDD"/>
<path d="M30.3799 16.6698L31.3744 16.4709C31.5449 17.2807 31.6301 18.1047 31.6301 18.9572H30.593C30.593 18.1758 30.522 17.4086 30.3799 16.6698Z" fill="#6561C0"/>
<path d="M27.1825 27.1829L27.907 27.9075C27.2819 28.5326 26.6 29.0867 25.8612 29.5697L25.3071 28.7031C25.9891 28.2627 26.6142 27.7512 27.1825 27.1829Z" fill="#E3DEDD"/>
<path d="M29.7549 14.6239L30.7068 14.2403C31.0051 14.9507 31.2182 15.7037 31.3745 16.4708L30.38 16.6697C30.2379 15.9594 30.0248 15.2775 29.7549 14.6239Z" fill="#E3DEDD"/>
<path d="M14.6092 8.14557L14.2256 7.1937C14.9501 6.89535 15.6889 6.66804 16.4703 6.52597L16.6692 7.52046C15.9588 7.66253 15.2769 7.87564 14.6092 8.14557Z" fill="#E3DEDD"/>
<path d="M25.3075 28.7031L25.8616 29.5697C25.1796 30.0243 24.4409 30.4079 23.6595 30.7205L23.2759 29.7686C23.9862 29.4844 24.6682 29.1293 25.3075 28.7031Z" fill="#6561C0"/>
<path d="M23.2763 29.7687L23.6599 30.7206C22.9495 31.0047 22.1965 31.232 21.4294 31.3883L21.2305 30.3796C21.9408 30.2375 22.6228 30.0244 23.2763 29.7687Z" fill="#E3DEDD"/>
<path d="M28.7031 12.5924L29.5555 12.0383C30.0102 12.7203 30.3938 13.459 30.7063 14.2404L29.7544 14.624C29.4703 13.9137 29.1151 13.2317 28.7031 12.5924Z" fill="#6561C0"/>
<path d="M18.9424 7.29316V6.27026C19.8374 6.27026 20.7183 6.36971 21.5565 6.5544L21.3434 7.54889C20.5762 7.39261 19.7664 7.30737 18.9424 7.30737V7.29316Z" fill="#E3DEDD"/>
<path d="M21.2297 30.3795L21.4286 31.3882C20.6188 31.5445 19.7948 31.6298 18.9424 31.6298V30.6069C19.7238 30.6069 20.4909 30.5216 21.2297 30.3795Z" fill="#6561C0"/>
<path d="M16.6696 7.52051L16.4707 6.52602C17.2663 6.35553 18.0903 6.27029 18.9427 6.27029V7.29319C18.1613 7.29319 17.4084 7.37844 16.6696 7.52051Z" fill="#6561C0"/>
<path d="M21.3438 7.54891L21.5569 6.55442C22.3809 6.72491 23.1764 6.98063 23.9294 7.29319L23.5316 8.24506C22.8355 7.94671 22.1109 7.70519 21.3438 7.54891Z" fill="#6561C0"/>
<path d="M23.5317 8.24504L23.9295 7.29317C24.6541 7.60572 25.336 7.97511 25.9753 8.41552L25.4071 9.26794C24.8198 8.87015 24.1947 8.52918 23.5317 8.24504Z" fill="#E3DEDD"/>
<path d="M25.4072 9.26799L25.9755 8.41557C26.6717 8.87019 27.3252 9.41006 27.9077 9.99254L27.1831 10.7171C26.6432 10.1772 26.0465 9.6942 25.4072 9.26799Z" fill="#6561C0"/>
<path d="M2.86049 11.3705C2.76577 11.56 2.6758 11.7541 2.59056 11.953C2.13594 13.0185 1.78076 14.1267 1.53924 15.2917C1.43505 15.7652 1.35454 16.2483 1.29772 16.7408L1.04199 16.7124C1.09882 16.2104 1.17933 15.7179 1.28351 15.2348C1.52503 14.0557 1.88021 12.9333 2.34904 11.8536C2.43428 11.6547 2.52425 11.4558 2.61897 11.2569L2.86049 11.3705Z" fill="url(#paint1_linear_233_2724)"/>
<path d="M31.5307 6.3697C31.0572 5.91508 30.5647 5.4794 30.0532 5.06266L30.2237 4.86376C30.7446 5.2805 31.2419 5.72092 31.7154 6.18501C32.5821 7.06585 33.3635 8.01772 34.0454 9.05483L33.8181 9.1969C33.1503 8.1882 32.3832 7.23633 31.5307 6.3697Z" fill="url(#paint2_linear_233_2724)"/>
<path d="M12.3368 2.43444C11.5222 2.76593 10.7408 3.14952 9.99261 3.58521L9.86475 3.35789C10.6225 2.91274 11.4133 2.52441 12.2373 2.19292C13.175 1.82353 14.1411 1.52519 15.1498 1.29788L15.2066 1.56781C14.2121 1.76671 13.246 2.06505 12.3368 2.43444Z" fill="url(#paint3_linear_233_2724)"/>
<path d="M35.309 25.947C35.7636 24.8957 36.1188 23.7733 36.3603 22.6225C36.455 22.1395 36.5355 21.6517 36.6018 21.1592L36.8576 21.2018C36.7913 21.6944 36.7108 22.1869 36.616 22.6794C36.3603 23.8443 36.0051 24.9809 35.5505 26.0606C35.4558 26.2595 35.3658 26.4537 35.2806 26.6431L35.0391 26.5295C35.1338 26.34 35.2238 26.1459 35.309 25.947Z" fill="url(#paint4_linear_233_2724)"/>
<path d="M25.5632 35.4657C26.3777 35.1436 27.1591 34.7648 27.9073 34.3291L28.0352 34.5564C27.2775 34.9921 26.4866 35.3757 25.6626 35.7072C24.725 36.0908 23.7447 36.3891 22.736 36.6022L22.6934 36.3465C23.6736 36.1334 24.6397 35.8351 25.5632 35.4657Z" fill="url(#paint5_linear_233_2724)"/>
<path d="M1.2977 16.7408C1.20298 17.4701 1.15563 18.2089 1.15563 18.9571C1.15563 20.1505 1.26929 21.3013 1.4966 22.4379C1.7097 23.5176 2.02225 24.5689 2.43426 25.5634C2.87467 26.6573 3.41454 27.6944 4.03965 28.6747L4.06806 28.7031L3.85496 28.8452L3.82654 28.8168C3.18723 27.8223 2.63315 26.771 2.19274 25.6628C1.78073 24.6541 1.45398 23.5886 1.24087 22.4805C1.01356 21.3439 0.899902 20.1647 0.899902 18.9571C0.899902 18.19 0.947259 17.4417 1.04197 16.7124L1.2977 16.7408Z" fill="url(#paint6_linear_233_2724)"/>
<path d="M9.99258 3.58523C9.73685 3.73677 9.48112 3.89305 9.2254 4.05406C8.20249 4.72179 7.23642 5.50317 6.36979 6.3698C5.54579 7.19381 4.80703 8.10306 4.1535 9.08334C3.67047 9.8079 3.23004 10.5751 2.86066 11.3707L2.61914 11.257C2.99799 10.4425 3.43368 9.66583 3.92619 8.92706C4.59392 7.94678 5.34689 7.02332 6.1851 6.18511C7.06594 5.30428 8.03201 4.52289 9.08333 3.82675C9.33905 3.66573 9.59952 3.50946 9.86471 3.35792L9.99258 3.58523Z" fill="url(#paint7_linear_233_2724)"/>
<path d="M30.0526 5.06268C29.6548 4.75013 29.2428 4.44705 28.8166 4.15344C27.9215 3.55674 26.9554 3.03108 25.9467 2.59067C24.8812 2.13604 23.7731 1.78087 22.6081 1.53935C21.4289 1.29783 20.2071 1.16996 18.9427 1.16996C17.7493 1.16996 16.5985 1.28362 15.462 1.51093C15.3767 1.52987 15.2915 1.54882 15.2062 1.56776L15.1494 1.29783C15.2347 1.27888 15.3246 1.26468 15.4194 1.25521C16.5559 1.0279 17.7351 0.900032 18.9427 0.900032C20.2213 0.900032 21.4715 1.0421 22.6649 1.28362C23.8441 1.53934 24.9665 1.89452 26.0462 2.34914C27.0691 2.78956 28.0494 3.32943 28.9728 3.94033C29.399 4.23394 29.8158 4.54176 30.2231 4.86379L30.0526 5.06268Z" fill="url(#paint8_linear_233_2724)"/>
<path d="M36.8582 21.2018L36.6024 21.1592C36.6877 20.4394 36.7303 19.7054 36.7303 18.9571C36.7303 17.7637 36.6166 16.5988 36.3893 15.4764C36.1762 14.3967 35.8637 13.3454 35.4659 12.3367C35.0255 11.2427 34.4856 10.2056 33.8463 9.23954L33.8179 9.19692L34.0452 9.05485L34.0736 9.09747C34.7129 10.0778 35.267 11.1291 35.7074 12.2372C36.1194 13.2601 36.432 14.3257 36.6451 15.4196C36.8724 16.5704 37.0002 17.7495 37.0002 18.9571C37.0002 19.7148 36.9529 20.4631 36.8582 21.2018Z" fill="url(#paint9_linear_233_2724)"/>
<path d="M27.9077 34.3292C28.1634 34.1777 28.4144 34.0214 28.6607 33.8604C29.6978 33.1784 30.6497 32.3971 31.5305 31.5304C32.3545 30.7064 33.0933 29.7972 33.7468 28.8311C34.2298 28.1065 34.656 27.3394 35.0396 26.5296L35.2812 26.6432C34.8928 27.4578 34.4524 28.2344 33.9599 28.9732C33.3064 29.9677 32.5392 30.8769 31.7152 31.7151C30.8344 32.596 29.8541 33.3915 28.8028 34.0735C28.5565 34.2345 28.3008 34.3955 28.0356 34.5565L27.9077 34.3292Z" fill="url(#paint10_linear_233_2724)"/>
<path d="M7.83303 32.8373C8.23083 33.1594 8.64283 33.4625 9.06904 33.7466C9.97829 34.3575 10.9302 34.8832 11.9389 35.3094C13.0044 35.764 14.1267 36.1192 15.2775 36.3607C16.4567 36.6164 17.6927 36.7443 18.9429 36.7443C20.1363 36.7443 21.3013 36.6164 22.4236 36.4033C22.5089 36.3844 22.5989 36.3654 22.6936 36.3465L22.7362 36.6022C22.6509 36.6211 22.5657 36.6401 22.4805 36.659C21.3297 36.8863 20.1505 37 18.9429 37C17.6643 37 16.4283 36.8721 15.2207 36.6164C14.0557 36.3749 12.9191 36.0197 11.8394 35.5509C10.8165 35.1105 9.83622 34.5848 8.92697 33.9597C8.49129 33.6756 8.07455 33.3725 7.67676 33.0505L7.83303 32.8373Z" fill="url(#paint11_linear_233_2724)"/>
<path d="M6.36962 31.5304C6.83372 31.9945 7.32149 32.4302 7.83294 32.8374L7.67667 33.0505C7.15575 32.6338 6.6585 32.1886 6.18493 31.7151C5.3041 30.8485 4.52271 29.8824 3.85498 28.8453L4.06809 28.7032C4.73581 29.7261 5.503 30.678 6.36962 31.5304Z" fill="url(#paint12_linear_233_2724)"/>
<path d="M22.04 3.7414C22.04 4.15341 22.381 4.48016 22.7788 4.48016C23.1908 4.48016 23.5176 4.15341 23.5176 3.7414C23.5176 3.3294 23.1908 3.00264 22.7788 3.00264C22.381 3.00264 22.04 3.3294 22.04 3.7414Z" fill="#F8F7F7"/>
<path d="M14.5811 34.1728C14.5811 34.5706 14.9078 34.8974 15.3198 34.8974C15.7318 34.8974 16.0586 34.5706 16.0586 34.1728C16.0586 33.7608 15.7318 33.4341 15.3198 33.4341C14.9078 33.4341 14.5811 33.7608 14.5811 34.1728Z" fill="#F8F7F7"/>
<path d="M2.81836 21.7133C2.81836 22.1253 3.14512 22.4521 3.54291 22.4521C3.95492 22.4521 4.28168 22.1253 4.28168 21.7133C4.28168 21.3013 3.95492 20.9746 3.54291 20.9746C3.14512 20.9746 2.81836 21.3013 2.81836 21.7133Z" fill="#F8F7F7"/>
<path d="M6.90918 8.10297C6.90918 8.50077 7.23594 8.84174 7.64795 8.84174C8.05995 8.84174 8.38671 8.50077 8.38671 8.10297C8.38671 7.69097 8.05995 7.36421 7.64795 7.36421C7.23594 7.36421 6.90918 7.69097 6.90918 8.10297Z" fill="#F8F7F7"/>
<path d="M33.3911 15.3486C33.3911 15.7606 33.7321 16.0873 34.1299 16.0873C34.5419 16.0873 34.8686 15.7606 34.8686 15.3486C34.8686 14.9508 34.5419 14.624 34.1299 14.624C33.7321 14.624 33.3911 14.9508 33.3911 15.3486Z" fill="#F8F7F7"/>
<path d="M29.7686 29.3851C29.7686 29.7971 30.0953 30.1238 30.5073 30.1238C30.9193 30.1238 31.2461 29.7971 31.2461 29.3851C31.2461 28.9731 30.9193 28.6463 30.5073 28.6463C30.0953 28.6463 29.7686 28.9731 29.7686 29.3851Z" fill="#F8F7F7"/>
<path fill-rule="evenodd" clip-rule="evenodd" d="M27.1828 10.717C26.6287 10.1629 26.0462 9.67989 25.4211 9.26789C24.8102 8.85588 24.1851 8.51491 23.5316 8.24498C22.8212 7.94663 22.0967 7.70512 21.3437 7.56305C20.5623 7.39256 19.7525 7.30732 18.9427 7.30732C18.1755 7.30732 17.4226 7.37835 16.6696 7.53463C15.9687 7.66723 15.282 7.86613 14.6096 8.13133C13.9134 8.41547 13.2315 8.77064 12.578 9.19685C11.9102 9.62306 11.2851 10.1345 10.7027 10.717C10.5606 10.8591 10.4185 11.0106 10.2764 11.1716C10.1723 11.2853 10.0728 11.4037 9.9781 11.5268C9.94021 11.5647 9.90232 11.6073 9.86443 11.6547C9.78866 11.7494 9.7129 11.8441 9.63712 11.9388C9.60871 11.9862 9.5803 12.0288 9.55189 12.0667C9.4477 12.2087 9.34825 12.3461 9.25353 12.4787C8.85574 13.0896 8.51477 13.7147 8.23063 14.3682C7.93228 15.0786 7.70497 15.8031 7.54869 16.5561C7.37821 17.3375 7.29297 18.1473 7.29297 18.9571C7.29297 19.71 7.37821 20.4772 7.52028 21.2302C7.66235 21.9311 7.86599 22.6177 8.13119 23.2902C8.41533 23.9863 8.75629 24.6683 9.1825 25.3218C9.62292 25.9753 10.1202 26.6146 10.7027 27.1971C11.2567 27.737 11.8534 28.22 12.4785 28.6462C13.0752 29.044 13.7145 29.385 14.3681 29.6691C15.0642 29.9675 15.803 30.1948 16.5417 30.3511C17.3373 30.5216 18.1471 30.6068 18.9427 30.6068C19.7099 30.6068 20.4771 30.5216 21.2158 30.3795C21.9262 30.2374 22.6081 30.0385 23.2759 29.7686C23.9862 29.4845 24.6681 29.1435 25.3075 28.7173C25.459 28.6131 25.6058 28.5089 25.7479 28.4047C25.7952 28.3763 25.8426 28.3432 25.8899 28.3053C25.9941 28.2295 26.0936 28.1537 26.1883 28.078C26.2356 28.0401 26.283 28.0022 26.3304 27.9643C26.4535 27.8601 26.5814 27.7512 26.7139 27.6375L26.7424 27.6091C26.8939 27.4765 27.0407 27.3392 27.1828 27.1971C27.3248 27.0551 27.4574 26.913 27.5806 26.7709L27.6232 26.7425C27.6232 26.733 27.6279 26.7236 27.6374 26.7141C27.7321 26.6004 27.8268 26.4915 27.9215 26.3873C27.9594 26.34 27.9926 26.2974 28.021 26.2595C28.0968 26.1553 28.1725 26.0558 28.2483 25.9611C28.2862 25.9232 28.3193 25.8806 28.3478 25.8333C28.4425 25.7007 28.5372 25.5633 28.6319 25.4213C29.0439 24.8246 29.3849 24.1852 29.6548 23.5317C29.9531 22.8356 30.1805 22.0968 30.3367 21.358C30.5072 20.5625 30.5925 19.7527 30.5925 18.9571C30.5925 18.1899 30.5214 17.4227 30.3652 16.6697C30.2373 15.9736 30.0242 15.2917 29.7685 14.6239C29.4843 13.9136 29.1291 13.2316 28.7029 12.5923C28.2767 11.9246 27.7653 11.2995 27.1828 10.717Z" fill="url(#paint13_linear_233_2724)"/>
<path fill-rule="evenodd" clip-rule="evenodd" d="M30.3511 18.9572C30.3511 18.19 30.2658 17.4512 30.1238 16.7267C29.9959 16.0305 29.7828 15.3628 29.5271 14.7093C29.2429 14.0131 28.902 13.3454 28.49 12.7345C28.0637 12.0668 27.5665 11.4559 27.0124 10.8876C26.4726 10.3619 25.8901 9.89311 25.2792 9.4669C24.6967 9.08331 24.0858 8.74234 23.4323 8.47241C22.7503 8.17406 22.04 7.94675 21.3012 7.79047C20.534 7.63419 19.7526 7.54895 18.9428 7.54895C18.7345 7.54895 18.5308 7.55369 18.3319 7.56316C18.313 7.56316 18.2941 7.56789 18.2751 7.57736C18.1709 7.57736 18.062 7.5821 17.9484 7.59157C17.9294 7.59157 17.9057 7.59631 17.8773 7.60578C17.8205 7.60578 17.7684 7.61051 17.7211 7.61999C17.5979 7.62946 17.4748 7.64366 17.3517 7.66261C17.3043 7.67208 17.2569 7.68155 17.2096 7.69102C17.0391 7.70996 16.8734 7.73838 16.7123 7.77626C16.0162 7.90413 15.3485 8.11723 14.7092 8.37296C14.013 8.6571 13.3453 8.99807 12.7202 9.41007C12.0525 9.83628 11.4415 10.3335 10.8875 10.8876C10.3618 11.4275 9.87878 11.9957 9.46677 12.6209C9.08318 13.2033 8.74222 13.8142 8.45808 14.4678C8.17394 15.1497 7.94663 15.86 7.79035 16.5988C7.63407 17.366 7.54883 18.1474 7.54883 18.9572C7.54883 19.7101 7.61986 20.4631 7.76193 21.1877C7.904 21.8838 8.1029 22.5515 8.35863 23.1909C8.64277 23.887 8.99794 24.5547 9.39574 25.1798C9.83616 25.8334 10.3334 26.4585 10.8875 27.0125C11.4131 27.5382 11.9956 28.0212 12.6207 28.4333C13.1985 28.8216 13.8094 29.1578 14.4534 29.4419C15.1354 29.7261 15.8599 29.9534 16.5987 30.1097C16.7692 30.1476 16.9397 30.1807 17.1101 30.2091C17.167 30.2186 17.2191 30.2233 17.2664 30.2233C17.399 30.2423 17.5269 30.2612 17.65 30.2802C17.7068 30.2896 17.7637 30.2944 17.8205 30.2944C17.9815 30.3133 18.1425 30.3275 18.3035 30.337H18.3462C18.5451 30.3465 18.744 30.3512 18.9428 30.3512C19.1323 30.3512 19.3217 30.3465 19.5111 30.337H19.5537C19.6106 30.337 19.6627 30.3323 19.71 30.3228C19.8047 30.3228 19.8995 30.318 19.9942 30.3086C19.9563 30.3086 19.9184 30.3133 19.8805 30.3228C19.9279 30.3133 19.9705 30.3086 20.0084 30.3086C20.0652 30.2991 20.122 30.2944 20.1789 30.2944C20.2925 30.2754 20.4109 30.2565 20.534 30.2375C20.5814 30.2375 20.6335 30.2328 20.6903 30.2233C20.8513 30.1949 21.0123 30.1665 21.1734 30.1381C21.8695 29.996 22.5372 29.7971 23.1907 29.5414C23.8869 29.2573 24.5546 28.9021 25.1655 28.5043C25.8332 28.0639 26.4441 27.5666 27.0124 27.0125C27.5381 26.4869 28.0069 25.9044 28.4331 25.2793C28.8215 24.7015 29.153 24.0859 29.4276 23.4324C29.726 22.7647 29.9533 22.0401 30.1096 21.3013C30.2658 20.5484 30.3511 19.7528 30.3511 18.9572ZM19.8805 30.3228C19.8237 30.3228 19.7669 30.3228 19.71 30.3228C19.6627 30.3323 19.6153 30.337 19.568 30.337C19.6721 30.3275 19.7763 30.3228 19.8805 30.3228ZM17.8915 7.60578C17.9199 7.59631 17.9484 7.59157 17.9768 7.59157C17.9673 7.59157 17.9578 7.59157 17.9484 7.59157C17.9294 7.59157 17.9105 7.59631 17.8915 7.60578ZM18.3319 7.56316C18.313 7.56316 18.2941 7.56789 18.2751 7.57736C18.2372 7.57736 18.2041 7.57736 18.1757 7.57736C18.223 7.57736 18.2751 7.57263 18.3319 7.56316Z" fill="#6561C0"/>
<defs>
<linearGradient id="paint0_linear_233_2724" x1="6.01351" y1="31.8479" x2="31.8028" y2="31.8479" gradientUnits="userSpaceOnUse">
<stop stop-color="#006BB3"/>
<stop offset="1" stop-color="#093679"/>
</linearGradient>
<linearGradient id="paint1_linear_233_2724" x1="1.89697" y1="11.0441" x2="2.96037" y2="11.3591" gradientUnits="userSpaceOnUse">
<stop stop-color="#8D8E90"/>
<stop offset="1" stop-color="white"/>
</linearGradient>
<linearGradient id="paint2_linear_233_2724" x1="35.0954" y1="8.0038" x2="33.5646" y2="9.5346" gradientUnits="userSpaceOnUse">
<stop stop-color="#8D8E90"/>
<stop offset="1" stop-color="white"/>
</linearGradient>
<linearGradient id="paint3_linear_233_2724" x1="14.9126" y1="0.689816" x2="15.3191" y2="1.74242" gradientUnits="userSpaceOnUse">
<stop stop-color="#8D8E90"/>
<stop offset="1" stop-color="white"/>
</linearGradient>
<linearGradient id="paint4_linear_233_2724" x1="36.5603" y1="26.9455" x2="34.6403" y2="26.5023" gradientUnits="userSpaceOnUse">
<stop stop-color="#8D8E90"/>
<stop offset="1" stop-color="white"/>
</linearGradient>
<linearGradient id="paint5_linear_233_2724" x1="23.3419" y1="38.0545" x2="22.5944" y2="36.2448" gradientUnits="userSpaceOnUse">
<stop stop-color="#8D8E90"/>
<stop offset="1" stop-color="white"/>
</linearGradient>
<linearGradient id="paint6_linear_233_2724" x1="3.02697" y1="29.1345" x2="1.21018" y2="29.7638" gradientUnits="userSpaceOnUse">
<stop stop-color="#0071B2"/>
<stop offset="1" stop-color="#093679"/>
</linearGradient>
<linearGradient id="paint7_linear_233_2724" x1="2.63789" y1="11.2768" x2="1.25995" y2="9.9656" gradientUnits="userSpaceOnUse">
<stop stop-color="#0064A8"/>
<stop offset="1" stop-color="#093679"/>
</linearGradient>
<linearGradient id="paint8_linear_233_2724" x1="14.9562" y1="2.06714" x2="15.8492" y2="-1.45193" gradientUnits="userSpaceOnUse">
<stop stop-color="#003D7C"/>
<stop offset="1" stop-color="#052C65"/>
</linearGradient>
<linearGradient id="paint9_linear_233_2724" x1="29.2164" y1="16.2355" x2="32.1061" y2="11.8221" gradientUnits="userSpaceOnUse">
<stop stop-color="#1D67AB"/>
<stop offset="1" stop-color="#093679"/>
</linearGradient>
<linearGradient id="paint10_linear_233_2724" x1="33.3281" y1="25.5295" x2="35.4305" y2="26.7383" gradientUnits="userSpaceOnUse">
<stop stop-color="#0071B2"/>
<stop offset="1" stop-color="#093679"/>
</linearGradient>
<linearGradient id="paint11_linear_233_2724" x1="22.0801" y1="38.9491" x2="21.7245" y2="40.2099" gradientUnits="userSpaceOnUse">
<stop stop-color="#0071B2"/>
<stop offset="1" stop-color="#093679"/>
</linearGradient>
<linearGradient id="paint12_linear_233_2724" x1="2.42263" y1="30.1715" x2="4.19026" y2="28.5341" gradientUnits="userSpaceOnUse">
<stop stop-color="#8D8E90"/>
<stop offset="1" stop-color="white"/>
</linearGradient>
<linearGradient id="paint13_linear_233_2724" x1="7.25319" y1="30.6003" x2="30.5474" y2="30.6003" gradientUnits="userSpaceOnUse">
<stop stop-color="#006BB3"/>
<stop offset="1" stop-color="#093679"/>
</linearGradient>
</defs>
</svg>
