<svg width="32" height="31" viewBox="0 0 32 31" fill="none" xmlns="http://www.w3.org/2000/svg">
<path fill-rule="evenodd" clip-rule="evenodd" d="M27.4413 15.4933C27.4413 14.7077 27.3688 13.9343 27.2238 13.1971C27.0787 12.4719 26.8733 11.7831 26.5953 11.1184C26.3174 10.4053 25.9548 9.71648 25.5318 9.07596C25.0847 8.39918 24.5771 7.75866 23.997 7.19065C23.4531 6.64681 22.861 6.1513 22.2204 5.72832C21.6282 5.3295 20.9877 4.97903 20.323 4.68898C19.6221 4.38684 18.8849 4.15722 18.1235 4.00011C17.3379 3.83092 16.5282 3.74632 15.7064 3.74632C15.4889 3.74632 15.2754 3.75035 15.0659 3.75841C14.9128 3.76646 14.7638 3.77855 14.6187 3.79466C14.651 3.79466 14.6832 3.79063 14.7154 3.78258C14.6751 3.79063 14.6389 3.79466 14.6067 3.79466C14.5503 3.80272 14.4939 3.81078 14.4375 3.81883C14.3086 3.82689 14.1837 3.83897 14.0628 3.85509C14.0145 3.86314 13.9621 3.8712 13.9057 3.87926C13.7365 3.90343 13.5713 3.93566 13.4102 3.97594C12.6851 4.10888 11.9962 4.32642 11.3315 4.5923C10.6185 4.88235 9.92963 5.23282 9.28911 5.65581C8.61233 6.10296 7.97181 6.61055 7.4038 7.19065C6.85996 7.73449 6.36446 8.32667 5.94147 8.96719C5.53057 9.57146 5.19218 10.1999 4.90213 10.8646C4.59999 11.5655 4.37037 12.3027 4.21326 13.0641C4.04407 13.8497 3.95947 14.6594 3.95947 15.4933C3.95947 16.2788 4.03198 17.0402 4.17701 17.7895C4.32203 18.5025 4.53957 19.1914 4.80545 19.8561C5.0955 20.5812 5.44597 21.258 5.86896 21.8985C6.31611 22.5874 6.8237 23.2158 7.4038 23.7959C7.94764 24.3398 8.53982 24.8232 9.18034 25.2582C9.78461 25.6571 10.413 25.9954 11.0777 26.2855C11.7787 26.5876 12.5159 26.8172 13.2773 26.9864C13.4545 27.0187 13.6318 27.0509 13.809 27.0831C13.8654 27.0912 13.9218 27.0992 13.9782 27.1073C14.1071 27.1234 14.236 27.1395 14.365 27.1556C14.4214 27.1637 14.4778 27.1718 14.5342 27.1798C14.7033 27.1959 14.8725 27.208 15.0417 27.2161H15.0901C15.2915 27.2241 15.4969 27.2281 15.7064 27.2281C15.8998 27.2281 16.0891 27.2241 16.2744 27.2161H16.3349C16.4879 27.208 16.6451 27.1959 16.8062 27.1798C16.8545 27.1718 16.9069 27.1677 16.9633 27.1677C17.0922 27.1516 17.2171 27.1355 17.3379 27.1194C17.3863 27.1113 17.4387 27.1033 17.4951 27.0952C17.6643 27.071 17.8334 27.0428 18.0026 27.0106C18.7157 26.8656 19.4045 26.6601 20.0692 26.3943C20.7823 26.1042 21.4711 25.7417 22.1117 25.3187C22.7884 24.8715 23.429 24.3639 23.997 23.7959C24.5408 23.2521 25.0363 22.6478 25.4714 22.0073C25.8702 21.4151 26.2086 20.7746 26.4986 20.1099C26.8008 19.4089 27.0304 18.6717 27.1996 17.9103C27.3567 17.1248 27.4413 16.3151 27.4413 15.4933Z" fill="#480979"/>
<path d="M4.29785 10.6109C3.97155 11.3481 3.72984 12.1215 3.56065 12.9312C3.48813 13.2616 3.43174 13.6 3.39145 13.9464L0.466797 13.5839C0.515138 13.1568 0.583623 12.7379 0.672249 12.327C0.8777 11.3239 1.19192 10.3692 1.57865 9.45066C1.65116 9.28147 1.7277 9.11227 1.80827 8.94308L4.47913 10.2C4.41468 10.3369 4.35425 10.4739 4.29785 10.6109Z" fill="#F8F7F5"/>
<path d="M28.5411 7.06978L26.0756 8.68921C25.6043 7.97617 25.0726 7.31148 24.4683 6.7193C24.146 6.39702 23.8076 6.09086 23.4531 5.80082L25.2901 3.5046C25.7373 3.85507 26.1602 4.22972 26.5591 4.62854C27.2963 5.37783 27.961 6.18755 28.5411 7.06978Z" fill="#F8F7F5"/>
<path d="M11.0902 3.97592C10.5182 4.20152 9.97431 4.4674 9.45867 4.77356L7.97217 2.22355C8.61672 1.84487 9.28947 1.51455 9.99042 1.23255C10.7881 0.918335 11.6099 0.664537 12.4679 0.471171L13.0964 3.35957C12.4035 3.51265 11.7347 3.7181 11.0902 3.97592Z" fill="#F8F7F5"/>
<path d="M27.1027 20.3758C27.429 19.6265 27.6707 18.853 27.8399 18.0433C27.9124 17.713 27.9688 17.3746 28.0091 17.0282L30.9337 17.4028C30.8854 17.8218 30.8169 18.2407 30.7283 18.6597C30.5228 19.6507 30.2086 20.6175 29.8219 21.536C29.7494 21.7052 29.6728 21.8704 29.5922 22.0315L26.9214 20.7746C26.9858 20.6457 27.0463 20.5128 27.1027 20.3758Z" fill="#F8F7F5"/>
<path d="M20.3109 27.0106C20.8829 26.777 21.4267 26.5111 21.9424 26.213L23.4289 28.763C22.7843 29.1336 22.1116 29.4599 21.4106 29.7419C20.613 30.0682 19.7912 30.322 18.9331 30.5033L18.3047 27.6149C19.0056 27.4699 19.6703 27.2644 20.3109 27.0106Z" fill="#F8F7F5"/>
<path fill-rule="evenodd" clip-rule="evenodd" d="M31.0546 15.4934C31.0546 14.4662 30.9579 13.4631 30.7645 12.4842C30.5712 11.5536 30.3053 10.6472 29.9548 9.77703C29.5802 8.83438 29.1088 7.94006 28.565 7.10617L28.5408 7.06992L26.0754 8.68935C25.6041 7.97632 25.0723 7.31162 24.4681 6.71944C24.1458 6.39717 23.8074 6.09101 23.4529 5.80096L25.2899 3.50474C24.9434 3.23081 24.5889 2.96896 24.2264 2.71919C23.4408 2.19953 22.619 1.74028 21.7368 1.36563C20.8304 0.978903 19.8635 0.664684 18.8605 0.459234C17.8453 0.241697 16.7818 0.132927 15.7062 0.132927C14.6668 0.132927 13.6638 0.241699 12.6969 0.422979C12.6244 0.439093 12.5479 0.455202 12.4673 0.471315L13.0957 3.35972C12.4029 3.5128 11.7341 3.71825 11.0896 3.97607C10.5175 4.20166 9.9737 4.46754 9.45806 4.7737L7.97156 2.22369C7.74596 2.3526 7.52843 2.48555 7.31895 2.62251C6.42463 3.21469 5.59074 3.87939 4.84145 4.62868C4.12842 5.34171 3.4879 6.12726 2.93197 6.96115C2.51301 7.58959 2.13836 8.25026 1.80803 8.94315L4.47889 10.2C4.41444 10.337 4.35401 10.474 4.29761 10.6109C3.97131 11.3481 3.7296 12.1216 3.56041 12.9313C3.48789 13.2697 3.4315 13.6081 3.39121 13.9465L0.466557 13.5839C0.385988 14.2043 0.345703 14.8408 0.345703 15.4934C0.345703 16.5207 0.442389 17.5237 0.635754 18.4906C0.82912 19.4332 1.095 20.3396 1.44547 21.1977C1.82012 22.1403 2.29144 23.0347 2.83529 23.8806L2.85946 23.9048L5.32487 22.2854C5.7962 22.9984 6.32795 23.6631 6.93222 24.2553C7.25449 24.5776 7.59289 24.8837 7.94739 25.1738L6.11041 27.47C6.4488 27.7479 6.81136 28.0138 7.17392 28.2555C7.95947 28.7873 8.78128 29.2344 9.66351 29.6091C10.5699 29.9958 11.5367 30.31 12.5398 30.5155C13.555 30.733 14.6185 30.8418 15.7062 30.8418C16.7334 30.8418 17.7365 30.7451 18.7033 30.5517C18.7759 30.5356 18.8524 30.5195 18.933 30.5034L18.3045 27.615C19.0055 27.47 19.6702 27.2645 20.3107 27.0107C20.8827 26.7771 21.4266 26.5112 21.9422 26.2131L23.4287 28.7631C23.6543 28.6262 23.8759 28.4892 24.0934 28.3522C24.9756 27.7721 25.8095 27.0953 26.5588 26.346C27.2719 25.633 27.9124 24.8595 28.4683 24.0136C28.8873 23.3851 29.2619 22.7245 29.5922 22.0316L26.9214 20.7747C26.9858 20.6458 27.0463 20.5129 27.1027 20.3759C27.429 19.6266 27.6707 18.8531 27.8399 18.0434C27.9124 17.7131 27.9688 17.3747 28.0091 17.0282L30.9337 17.4029C31.0143 16.7745 31.0546 16.138 31.0546 15.4934ZM5.31278 22.2612L5.32487 22.2854C5.31681 22.2773 5.31278 22.2693 5.31278 22.2612ZM13.277 3.32346C13.2126 3.33958 13.1521 3.35166 13.0957 3.35972C13.1521 3.3436 13.2126 3.33152 13.277 3.32346ZM25.7128 11.4811C25.9546 12.0853 26.1479 12.7259 26.2809 13.3785C26.4138 14.0673 26.4863 14.7683 26.4863 15.4934C26.4863 16.2548 26.4017 16.992 26.2567 17.7171C26.1117 18.406 25.8941 19.0828 25.6162 19.7354C25.3503 20.3396 25.0361 20.9318 24.6614 21.4757C24.2747 22.0678 23.8275 22.6117 23.32 23.1072C22.8003 23.6389 22.2081 24.1103 21.5917 24.5212C20.9996 24.9079 20.3711 25.2342 19.7064 25.5001C19.1022 25.7418 18.4616 25.9351 17.809 26.0681C17.1322 26.201 16.4192 26.2735 15.7062 26.2735C14.9327 26.2735 14.1955 26.1889 13.4825 26.0439C12.7815 25.8989 12.1047 25.6814 11.4521 25.4034C10.8479 25.1375 10.2678 24.8233 9.71185 24.4486C9.13175 24.0619 8.57582 23.6148 8.08033 23.1072C7.54857 22.5875 7.07724 22.0074 6.66634 21.379C6.2917 20.7868 5.95331 20.1583 5.68743 19.4937C5.44572 18.8894 5.25235 18.2489 5.11942 17.5963C4.98648 16.9195 4.91397 16.2064 4.91397 15.4934C4.91397 14.732 4.99856 13.9827 5.14359 13.2697C5.3007 12.5688 5.50615 11.892 5.78411 11.2514C6.04999 10.6351 6.36421 10.055 6.73885 9.49907C7.12559 8.91898 7.58483 8.36305 8.08033 7.86755C8.59999 7.33579 9.19218 6.86447 9.80853 6.46565C10.4007 6.07892 11.0292 5.74053 11.6938 5.48674C12.2981 5.23294 12.9386 5.03958 13.5912 4.91873C14.2801 4.77371 14.9811 4.70119 15.7062 4.70119C16.4676 4.70119 17.2048 4.78579 17.9178 4.93081C18.6188 5.08792 19.2955 5.29337 19.9481 5.57133C20.5524 5.83721 21.1325 6.15143 21.6884 6.52608C22.2685 6.91281 22.8245 7.37205 23.32 7.86755C23.8517 8.39931 24.323 8.9794 24.7339 9.60784C25.1086 10.1879 25.447 10.8164 25.7128 11.4811Z" fill="#631E97"/>
<path d="M6.93214 24.2552C7.25441 24.5775 7.5928 24.8836 7.94731 25.1737L6.11033 27.4699C5.6672 27.1235 5.24422 26.7488 4.84137 26.346C4.10417 25.6088 3.43947 24.787 2.85938 23.9047L5.32479 22.2853C5.79611 22.9983 6.32787 23.663 6.93214 24.2552Z" fill="#F8F7F5"/>
<path d="M25.3987 17.5357C25.2658 18.1762 25.0724 18.7926 24.8065 19.3848C24.5769 19.9528 24.2748 20.4845 23.9364 20.9921C23.5738 21.5359 23.1629 22.0314 22.7037 22.4907C22.2203 22.9741 21.6885 23.4092 21.1084 23.7838C20.5646 24.1464 19.9965 24.4485 19.3802 24.6902C18.8243 24.9078 18.2442 25.089 17.6399 25.2099C17.0115 25.3307 16.3589 25.4033 15.7062 25.4033C15.0053 25.4033 14.3164 25.3307 13.6517 25.1857C13.0112 25.0528 12.3949 24.8594 11.8027 24.6056C11.2347 24.3639 10.7029 24.0618 10.1953 23.7355C9.66358 23.3729 9.15599 22.9499 8.69675 22.4907C8.21334 22.0073 7.77826 21.4755 7.40362 20.8954C7.05314 20.3637 6.75101 19.7836 6.49722 19.1793C6.27968 18.6113 6.0984 18.0312 5.97755 17.4269C5.85669 16.7985 5.78418 16.1459 5.78418 15.4933C5.78418 14.7923 5.85669 14.1035 6.00172 13.4509C6.13466 12.7982 6.34011 12.1819 6.5939 11.5897C6.83561 11.0217 7.12566 10.4899 7.46405 9.98236C7.82661 9.4506 8.23751 8.94302 8.69675 8.48378C9.18016 8.00036 9.71192 7.56529 10.292 7.19064C10.8359 6.84017 11.4039 6.53803 12.0202 6.28424C12.5761 6.06671 13.1562 5.88543 13.7605 5.76457C14.2359 5.67595 14.7193 5.61552 15.2107 5.58329C14.7273 5.61552 14.252 5.67595 13.7847 5.76457C13.1925 5.88543 12.6124 6.05462 12.0565 6.28424C11.4643 6.52595 10.8842 6.816 10.3524 7.16647C9.78443 7.54112 9.25268 7.97618 8.78135 8.44751C8.3221 8.90676 7.9112 9.40226 7.56073 9.93402C7.22234 10.4335 6.93229 10.9613 6.69058 11.5172C6.44887 12.0973 6.24342 12.7136 6.11049 13.3542C5.97755 14.0068 5.90503 14.6836 5.90503 15.3724C5.90503 16.025 5.96546 16.6656 6.0984 17.2819C6.21925 17.8862 6.38845 18.4663 6.60599 19.0101C6.84769 19.6144 7.14983 20.1824 7.5003 20.7141C7.87495 21.2822 8.29793 21.8139 8.78135 22.2973C9.22851 22.7445 9.724 23.1554 10.2678 23.5179C10.7633 23.8442 11.2951 24.1343 11.851 24.376C12.4311 24.6298 13.0475 24.8232 13.6759 24.9561C14.3285 25.089 15.0053 25.1616 15.7062 25.1616C16.3589 25.1616 16.9994 25.1011 17.6157 24.9803C18.2079 24.8594 18.788 24.6902 19.3439 24.4606C19.9482 24.2189 20.5162 23.9168 21.048 23.5663C21.616 23.2037 22.1477 22.7687 22.6191 22.2973C23.0783 21.8381 23.4892 21.3426 23.8397 20.8108C24.1781 20.3113 24.4681 19.7836 24.7098 19.2276C24.9515 18.6355 25.157 18.0312 25.2899 17.3907C25.4229 16.7381 25.4954 16.0613 25.4954 15.3724C25.4954 14.7198 25.435 14.0793 25.302 13.4509C25.1932 12.8587 25.012 12.2786 24.7944 11.7347C24.5527 11.1305 24.2506 10.5625 23.9001 10.0186C23.5255 9.4506 23.1025 8.93093 22.6191 8.44751C22.1719 8.00036 21.6764 7.58946 21.1326 7.2269C20.633 6.89656 20.1053 6.61055 19.5494 6.36884C18.9693 6.11505 18.3529 5.92168 17.7245 5.78874C17.0719 5.64371 16.3951 5.5712 15.7062 5.5712C16.3951 5.5712 17.084 5.6558 17.7487 5.78874C18.3892 5.92168 19.0055 6.12713 19.5977 6.38092C20.1657 6.62263 20.6975 6.91268 21.2051 7.25107C21.7368 7.61363 22.2444 8.02453 22.7037 8.48378C23.1871 8.96719 23.6222 9.49894 23.9968 10.079C24.3594 10.6229 24.6615 11.1909 24.9032 11.8072C25.1207 12.3632 25.302 12.9433 25.4229 13.5475C25.5437 14.176 25.6162 14.8286 25.6162 15.4933C25.6162 16.1942 25.5437 16.871 25.3987 17.5357Z" fill="#EAE573"/>
<path fill-rule="evenodd" clip-rule="evenodd" d="M7.93553 23.2521C8.4552 23.7718 9.02321 24.2189 9.6033 24.6177C10.1713 24.9924 10.7756 25.3187 11.3799 25.5725C12.0445 25.8625 12.7334 26.0801 13.4344 26.2251C14.1837 26.3822 14.945 26.4547 15.7064 26.4547C16.4194 26.4547 17.1325 26.3822 17.8455 26.2493C18.4981 26.1163 19.1507 25.923 19.7792 25.6692C20.4439 25.4154 21.0844 25.077 21.7007 24.6782C22.3171 24.2793 22.9093 23.7959 23.4652 23.2521C23.9849 22.7324 24.432 22.1765 24.8308 21.5843C25.2055 21.0163 25.5197 20.4241 25.7856 19.8078C26.0756 19.1431 26.2811 18.4542 26.4382 17.7533C26.5832 17.004 26.6678 16.2426 26.6678 15.4933C26.6678 14.7682 26.5953 14.0551 26.4624 13.3421C26.3294 12.6895 26.1361 12.0369 25.8823 11.4085C25.6164 10.7438 25.2901 10.1032 24.8913 9.49897C24.4804 8.87053 24.009 8.27835 23.4652 7.73451C22.9455 7.21484 22.3775 6.75559 21.7974 6.35678C21.2294 5.98213 20.6251 5.66792 20.0209 5.40204C19.3562 5.12408 18.6673 4.90653 17.9664 4.76151C17.2171 4.6044 16.4557 4.5198 15.7064 4.5198C14.9813 4.5198 14.2682 4.59232 13.5552 4.72526C12.9026 4.85819 12.25 5.05156 11.6216 5.30535C10.9569 5.57123 10.3163 5.89754 9.71207 6.29635C9.08363 6.70725 8.49145 7.17859 7.93553 7.73451C7.41586 8.25418 6.9687 8.8101 6.56988 9.40229C6.19523 9.95821 5.88102 10.5625 5.61514 11.1667C5.32509 11.8435 5.11964 12.5324 4.96253 13.2333C4.81751 13.9705 4.73291 14.7319 4.73291 15.4933C4.73291 16.2063 4.80542 16.9315 4.93836 17.6324C5.0713 18.2971 5.26467 18.9376 5.51846 19.5661C5.78434 20.2308 6.11064 20.8713 6.50945 21.4876C6.92036 22.104 7.39169 22.6962 7.93553 23.2521ZM10.0988 23.8805C9.55496 23.518 9.04738 23.095 8.56396 22.6237C8.06846 22.1161 7.62131 21.5722 7.24666 21.0042C6.8841 20.4362 6.58197 19.844 6.34026 19.2398C6.11064 18.6597 5.92936 18.0675 5.80851 17.4632C5.68765 16.8106 5.61514 16.1459 5.61514 15.4933C5.61514 14.7924 5.68765 14.0914 5.83268 13.4146C5.96562 12.762 6.17107 12.1336 6.42486 11.5172C6.66657 10.9613 6.9687 10.4054 7.30709 9.8857C7.66965 9.34186 8.09263 8.83427 8.56396 8.35086C9.07155 7.85536 9.61539 7.40821 10.1955 7.03356C10.7514 6.671 11.3436 6.36887 11.9479 6.12716C12.528 5.89754 13.1201 5.71626 13.7244 5.5954C14.377 5.47455 15.0417 5.40204 15.7064 5.40204C16.3953 5.40204 17.0962 5.47455 17.773 5.61958C18.4256 5.75251 19.054 5.95796 19.6704 6.22384C20.2384 6.45346 20.7823 6.7556 21.3019 7.09399C21.8458 7.45655 22.3533 7.87953 22.8368 8.35086C23.3323 8.85844 23.7794 9.40228 24.1541 9.98238C24.5166 10.5383 24.8188 11.1305 25.0605 11.7348C25.2941 12.3149 25.4714 12.9111 25.5922 13.5234C25.7131 14.1639 25.7856 14.8286 25.7856 15.4933C25.7856 16.1822 25.7131 16.8831 25.568 17.572C25.4351 18.2125 25.2297 18.8409 24.9759 19.4573C24.7342 20.0253 24.432 20.5691 24.0936 21.0888C23.7311 21.6327 23.3081 22.1402 22.8368 22.6237C22.3292 23.1312 21.7853 23.5663 21.2052 23.941C20.6493 24.3035 20.0571 24.6057 19.4529 24.8474C18.8728 25.077 18.2806 25.2583 17.6763 25.3791C17.0237 25.5 16.359 25.5725 15.7064 25.5725C15.0055 25.5725 14.3045 25.5 13.6277 25.3549C12.9751 25.222 12.3467 25.0166 11.7303 24.7628C11.1744 24.5211 10.6185 24.231 10.0988 23.8805Z" fill="url(#paint0_linear_44_4844)"/>
<path d="M23.9363 20.9921L24.6614 21.4755C24.2747 22.0677 23.8276 22.6115 23.32 23.107L22.7036 22.4906C23.1629 22.0314 23.5738 21.5359 23.9363 20.9921Z" fill="#480979"/>
<path d="M24.8067 19.3847L25.6164 19.7352C25.3505 20.3394 25.0363 20.9316 24.6616 21.4755L23.9365 20.992C24.2749 20.4845 24.577 19.9527 24.8067 19.3847Z" fill="#E2E3DD"/>
<path d="M25.3988 17.5357L26.2569 17.717C26.1119 18.4058 25.8943 19.0826 25.6164 19.7352L24.8066 19.3848C25.0725 18.7926 25.2659 18.1762 25.3988 17.5357Z" fill="#480979"/>
<path d="M22.7036 8.48378L23.32 7.86742C23.8517 8.39918 24.323 8.97928 24.734 9.60772L23.9967 10.079C23.6221 9.49894 23.187 8.96719 22.7036 8.48378Z" fill="#E2E3DD"/>
<path d="M6.49736 19.1794L5.68764 19.4936C5.44593 18.8893 5.25257 18.2488 5.11963 17.5962L5.97769 17.427C6.09854 18.0313 6.27983 18.6114 6.49736 19.1794Z" fill="#E2E3DD"/>
<path d="M6.0021 13.4508L5.14404 13.2695C5.30115 12.5686 5.5066 11.8918 5.78456 11.2513L6.59428 11.5897C6.34049 12.1818 6.13504 12.7982 6.0021 13.4508Z" fill="#480979"/>
<path d="M5.97757 17.4269L5.11951 17.5961C4.98657 16.9194 4.91406 16.2063 4.91406 15.4933H5.78421C5.78421 16.1459 5.85672 16.7985 5.97757 17.4269Z" fill="#480979"/>
<path d="M5.78421 15.4933H4.91406C4.91406 14.7319 4.99866 13.9826 5.14368 13.2696L6.00174 13.4509C5.85672 14.1035 5.78421 14.7923 5.78421 15.4933Z" fill="#E2E3DD"/>
<path d="M6.5939 11.5897L5.78418 11.2513C6.05006 10.635 6.36428 10.0549 6.73893 9.49896L7.46405 9.98237C7.12566 10.49 6.83561 11.0217 6.5939 11.5897Z" fill="#E2E3DD"/>
<path d="M8.69692 8.48376L8.08057 7.86741C8.60024 7.33565 9.19242 6.86433 9.80877 6.46551L10.2922 7.19063C9.71209 7.56528 9.18033 8.00035 8.69692 8.48376Z" fill="#E2E3DD"/>
<path d="M7.46438 9.98236L6.73926 9.49895C7.12599 8.91885 7.58523 8.36292 8.08073 7.86743L8.69708 8.48378C8.23784 8.94303 7.82694 9.45061 7.46438 9.98236Z" fill="#480979"/>
<path d="M10.292 7.19061L9.80859 6.46549C10.4008 6.07876 11.0292 5.74037 11.6939 5.48657L12.0202 6.28421C11.4039 6.538 10.8358 6.84014 10.292 7.19061Z" fill="#480979"/>
<path d="M7.40362 20.8954L6.66641 21.3788C6.29177 20.7867 5.95338 20.1582 5.6875 19.4935L6.49722 19.1793C6.75101 19.7836 7.05315 20.3637 7.40362 20.8954Z" fill="#480979"/>
<path d="M15.7061 25.4033V26.2734C14.9327 26.2734 14.1955 26.1888 13.4824 26.0438L13.6516 25.1858C14.3163 25.3308 15.0052 25.4033 15.7061 25.4033Z" fill="#E2E3DD"/>
<path d="M11.8032 24.6056L11.4527 25.4033C10.8484 25.1374 10.2683 24.8232 9.7124 24.4485L10.1958 23.7355C10.7034 24.0618 11.2352 24.3639 11.8032 24.6056Z" fill="#E2E3DD"/>
<path d="M13.6522 25.1857L13.483 26.0438C12.782 25.8987 12.1052 25.6812 11.4526 25.4032L11.8031 24.6056C12.3953 24.8594 13.0116 25.0528 13.6522 25.1857Z" fill="#480979"/>
<path d="M8.69684 22.4906L8.08049 23.107C7.54873 22.5873 7.07741 22.0072 6.6665 21.3788L7.40371 20.8954C7.77836 21.4755 8.21343 22.0072 8.69684 22.4906Z" fill="#E2E3DD"/>
<path d="M10.1955 23.7355L9.71209 24.4485C9.13199 24.0618 8.57607 23.6147 8.08057 23.1071L8.69692 22.4907C9.15616 22.95 9.66375 23.373 10.1955 23.7355Z" fill="#480979"/>
<path d="M25.3989 17.5358C25.5439 16.8711 25.6165 16.1943 25.6165 15.4933H26.4866C26.4866 16.2547 26.402 16.9919 26.257 17.717L25.3989 17.5358Z" fill="#E2E3DD"/>
<path d="M25.4233 13.5475L26.2814 13.3784C26.4143 14.0672 26.4868 14.7682 26.4868 15.4933H25.6167C25.6167 14.8286 25.5442 14.176 25.4233 13.5475Z" fill="#480979"/>
<path d="M22.7042 22.4907L23.3205 23.1071C22.8008 23.6388 22.2087 24.1102 21.5923 24.5211L21.1089 23.7839C21.689 23.4092 22.2207 22.9741 22.7042 22.4907Z" fill="#E2E3DD"/>
<path d="M24.9033 11.8072L25.713 11.4809C25.9547 12.0852 26.1481 12.7257 26.2811 13.3783L25.423 13.5475C25.3021 12.9432 25.1209 12.3631 24.9033 11.8072Z" fill="#E2E3DD"/>
<path d="M12.0206 6.28418L11.6943 5.48654C12.2986 5.23275 12.9391 5.03939 13.5917 4.91854L13.7609 5.76451C13.1567 5.88536 12.5766 6.06664 12.0206 6.28418Z" fill="#E2E3DD"/>
<path d="M21.1086 23.7838L21.592 24.521C20.9998 24.9078 20.3714 25.2341 19.7067 25.4999L19.3804 24.6902C19.9967 24.4485 20.5647 24.1464 21.1086 23.7838Z" fill="#480979"/>
<path d="M19.3804 24.6902L19.7067 25.4999C19.1025 25.7416 18.4619 25.935 17.8093 26.0679L17.6401 25.2099C18.2444 25.089 18.8245 24.9077 19.3804 24.6902Z" fill="#E2E3DD"/>
<path d="M23.9966 10.079L24.7338 9.60772C25.1084 10.1878 25.4468 10.8163 25.7127 11.4809L24.903 11.8073C24.6613 11.1909 24.3591 10.6229 23.9966 10.079Z" fill="#480979"/>
<path d="M15.7061 5.57122V4.70108C16.4674 4.70108 17.2046 4.78568 17.9177 4.9307L17.7485 5.78876C17.0838 5.65582 16.3949 5.57122 15.7061 5.57122Z" fill="#E2E3DD"/>
<path d="M17.6397 25.2099L17.8089 26.068C17.1321 26.2009 16.4191 26.2734 15.7061 26.2734V25.4033C16.3587 25.4033 17.0113 25.3308 17.6397 25.2099Z" fill="#480979"/>
<path d="M13.7605 5.76459L13.5913 4.91861C14.2681 4.77359 14.9811 4.70107 15.7062 4.70107V5.57122C15.0416 5.57122 14.3889 5.64373 13.7605 5.76459Z" fill="#480979"/>
<path d="M17.749 5.7888L17.9182 4.93074C18.6192 5.08785 19.2959 5.2933 19.9486 5.57126L19.5981 6.38098C19.0059 6.12719 18.3895 5.92174 17.749 5.7888Z" fill="#480979"/>
<path d="M19.5981 6.38089L19.9486 5.57117C20.5529 5.83705 21.133 6.15127 21.6889 6.52592L21.2055 7.25104C20.6979 6.91265 20.1662 6.6226 19.5981 6.38089Z" fill="#E2E3DD"/>
<path d="M21.2056 7.25106L21.689 6.52594C22.2691 6.91267 22.825 7.37191 23.3205 7.86741L22.7041 8.48376C22.2449 8.02452 21.7373 7.61362 21.2056 7.25106Z" fill="#480979"/>
<path d="M2.01372 9.03971C1.93315 9.20085 1.85661 9.36601 1.7841 9.53521C1.39737 10.4416 1.09523 11.3843 0.889784 12.3753C0.809215 12.7781 0.740734 13.189 0.684335 13.608L0.466797 13.5838C0.515138 13.1568 0.583623 12.7378 0.672249 12.3269C0.8777 11.3238 1.19192 10.3691 1.57865 9.45062C1.65116 9.28142 1.7277 9.11223 1.80827 8.94303L2.01372 9.03971Z" fill="url(#paint1_linear_44_4844)"/>
<path d="M26.402 4.78563C26.0072 4.39084 25.5923 4.02022 25.1572 3.67377L25.2902 3.50458C25.7373 3.85506 26.1603 4.2297 26.5591 4.62852C27.2963 5.37781 27.961 6.18753 28.5411 7.06976L28.3598 7.19061C27.7918 6.32047 27.1271 5.52283 26.402 4.78563Z" fill="url(#paint2_linear_44_4844)"/>
<path d="M10.075 1.43801C9.38212 1.72 8.71743 2.04631 8.08094 2.41693L7.97217 2.22356C8.61672 1.84489 9.28947 1.51456 9.99042 1.23257C10.7881 0.91835 11.6099 0.664551 12.4679 0.471186L12.5163 0.688728C11.6703 0.874037 10.8565 1.12379 10.075 1.43801Z" fill="url(#paint3_linear_44_4844)"/>
<path d="M29.6163 21.4393C30.0031 20.545 30.3052 19.5903 30.5107 18.6113C30.5912 18.2004 30.6597 17.7855 30.7161 17.3665L30.9336 17.4028C30.8853 17.8218 30.8168 18.2407 30.7282 18.6597C30.5227 19.6507 30.2085 20.6175 29.8218 21.536C29.7493 21.7052 29.6727 21.8704 29.5922 22.0315L29.3867 21.9348C29.4673 21.7737 29.5438 21.6085 29.6163 21.4393Z" fill="url(#paint4_linear_44_4844)"/>
<path d="M21.3265 29.5365C22.0194 29.2625 22.6841 28.9403 23.3206 28.5696L23.4293 28.763C22.7848 29.1336 22.112 29.4599 21.4111 29.7419C20.6135 30.0682 19.7917 30.322 18.9336 30.5033L18.8853 30.2858C19.7312 30.1045 20.5409 29.8507 21.3265 29.5365Z" fill="url(#paint5_linear_44_4844)"/>
<path d="M0.684095 13.608C0.611583 14.2203 0.571298 14.8488 0.563242 15.4933C0.563242 16.4964 0.672009 17.4874 0.853289 18.4421C1.04665 19.3727 1.31253 20.267 1.65092 21.113C2.02557 22.0436 2.48481 22.9258 3.02865 23.7597L3.04074 23.7839L2.85946 23.9047L2.83529 23.8806C2.29144 23.0346 1.82012 22.1403 1.44547 21.1976C1.095 20.3395 0.82912 19.4331 0.635754 18.4905C0.442389 17.5237 0.345703 16.5206 0.345703 15.4933C0.345703 14.8407 0.385988 14.2042 0.466557 13.5838L0.684095 13.608Z" fill="url(#paint6_linear_44_4844)"/>
<path d="M8.0804 2.4169C7.86286 2.54581 7.64936 2.67875 7.43988 2.81572C6.55765 3.38373 5.73584 4.04842 4.99864 4.78563C4.29769 5.48658 3.66925 6.26004 3.11333 7.08184C2.70242 7.71028 2.32778 8.36289 2.01356 9.03967L1.80811 8.94299C2.13844 8.2501 2.51309 7.58943 2.93204 6.96099C3.48797 6.1271 4.12849 5.34156 4.84153 4.62852C5.59082 3.87923 6.42471 3.21454 7.31902 2.62236C7.5285 2.48539 7.74604 2.35244 7.97163 2.22353L8.0804 2.4169Z" fill="url(#paint7_linear_44_4844)"/>
<path d="M25.1574 3.67383C24.819 3.39989 24.4685 3.14208 24.106 2.90037C23.3325 2.39279 22.5107 1.94563 21.6526 1.57098C20.7462 1.18425 19.8036 0.882115 18.8247 0.676664C17.8095 0.471213 16.7702 0.362448 15.7066 0.362448C14.6915 0.362448 13.7005 0.459126 12.7457 0.652492C12.6652 0.660548 12.5886 0.67264 12.5161 0.688754L12.4678 0.471211C12.5483 0.455098 12.6249 0.438988 12.6974 0.422874C13.6642 0.241594 14.6673 0.132823 15.7066 0.132823C16.7822 0.132823 17.8458 0.241593 18.8609 0.459129C19.864 0.66458 20.8308 0.978799 21.7372 1.36553C22.6195 1.74018 23.4413 2.19942 24.2268 2.71909C24.5894 2.96885 24.9439 3.2307 25.2903 3.50464L25.1574 3.67383Z" fill="url(#paint8_linear_44_4844)"/>
<path d="M30.934 17.4027L30.7165 17.3665C30.789 16.7541 30.8293 16.1297 30.8374 15.4932C30.8374 14.4781 30.7286 13.4871 30.5473 12.5323C30.3539 11.6017 30.0881 10.7195 29.7497 9.86145C29.375 8.93088 28.9158 8.04865 28.372 7.22685L28.3599 7.19059L28.5411 7.06974L28.5653 7.10599C29.1092 7.93988 29.5805 8.83419 29.9551 9.77685C30.3056 10.647 30.5715 11.5534 30.7649 12.484C30.9582 13.4629 31.0549 14.466 31.0549 15.4932C31.0549 16.1378 31.0146 16.7743 30.934 17.4027Z" fill="url(#paint9_linear_44_4844)"/>
<path d="M23.3203 28.5696C23.5378 28.4407 23.7514 28.3037 23.9608 28.1587C24.8431 27.5907 25.6649 26.926 26.4021 26.1888C27.103 25.4878 27.7315 24.7143 28.2874 23.8925C28.6983 23.2762 29.0729 22.6236 29.3872 21.9347L29.5926 22.0314C29.2623 22.7243 28.8876 23.385 28.4687 24.0134C27.9127 24.8594 27.2722 25.6328 26.5592 26.3459C25.8099 27.0952 24.976 27.7719 24.0938 28.352C23.8762 28.489 23.6547 28.626 23.4291 28.7629L23.3203 28.5696Z" fill="url(#paint10_linear_44_4844)"/>
<path d="M6.24378 27.3007C6.59425 27.5665 6.93264 27.8324 7.2952 28.0741C8.06866 28.5938 8.89047 29.0289 9.74853 29.4035C10.6549 29.7903 11.5976 30.0924 12.5765 30.2978C13.5917 30.5033 14.631 30.6241 15.7066 30.6241C16.7097 30.6241 17.7007 30.5154 18.6554 30.3341C18.736 30.318 18.8125 30.3019 18.8851 30.2857L18.9334 30.5033C18.8528 30.5194 18.7763 30.5355 18.7038 30.5516C17.7369 30.745 16.7339 30.8417 15.7066 30.8417C14.6189 30.8417 13.5554 30.7329 12.5402 30.5154C11.5372 30.3099 10.5703 29.9957 9.66393 29.609C8.7817 29.2343 7.9599 28.7872 7.17435 28.2554C6.81179 28.0137 6.44923 27.7478 6.11084 27.4699L6.24378 27.3007Z" fill="url(#paint11_linear_44_4844)"/>
<path d="M4.99848 26.1889C5.39327 26.5837 5.8082 26.9543 6.24327 27.3007L6.11033 27.4699C5.6672 27.1235 5.24422 26.7488 4.84137 26.346C4.10416 25.6088 3.43947 24.787 2.85938 23.9047L3.04066 23.7839C3.62075 24.654 4.27336 25.4517 4.99848 26.1889Z" fill="url(#paint12_linear_44_4844)"/>
<path d="M18.3408 2.54991C18.3408 2.88829 18.6188 3.17834 18.9693 3.17834C19.3076 3.17834 19.5856 2.88829 19.5856 2.54991C19.5856 2.19943 19.3076 1.92147 18.9693 1.92147C18.6188 1.92147 18.3408 2.19943 18.3408 2.54991Z" fill="#F8F8F7"/>
<path d="M11.9844 28.4247C11.9844 28.7751 12.2744 29.0531 12.6128 29.0531C12.9633 29.0531 13.2413 28.7751 13.2413 28.4247C13.2413 28.0863 12.9633 27.8083 12.6128 27.8083C12.2744 27.8083 11.9844 28.0863 11.9844 28.4247Z" fill="#F8F8F7"/>
<path d="M1.97754 17.8379C1.97754 18.1763 2.2555 18.4663 2.60598 18.4663C2.94437 18.4663 3.23442 18.1763 3.23442 17.8379C3.23442 17.4874 2.94437 17.2094 2.60598 17.2094C2.2555 17.2094 1.97754 17.4874 1.97754 17.8379Z" fill="#F8F8F7"/>
<path d="M5.45801 6.26005C5.45801 6.59844 5.74805 6.88849 6.08644 6.88849C6.43692 6.88849 6.71488 6.59844 6.71488 6.26005C6.71488 5.90957 6.43692 5.63161 6.08644 5.63161C5.74805 5.63161 5.45801 5.90957 5.45801 6.26005Z" fill="#F8F8F7"/>
<path d="M27.9971 12.4236C27.9971 12.774 28.275 13.052 28.6134 13.052C28.9639 13.052 29.2419 12.774 29.2419 12.4236C29.2419 12.0852 28.9639 11.7951 28.6134 11.7951C28.275 11.7951 27.9971 12.0852 27.9971 12.4236Z" fill="#F8F8F7"/>
<path d="M24.9033 24.3639C24.9033 24.7023 25.1934 24.9924 25.5318 24.9924C25.8822 24.9924 26.1602 24.7023 26.1602 24.3639C26.1602 24.0135 25.8822 23.7355 25.5318 23.7355C25.1934 23.7355 24.9033 24.0135 24.9033 24.3639Z" fill="#F8F8F7"/>
<path fill-rule="evenodd" clip-rule="evenodd" d="M22.7038 8.48378C22.2445 8.01245 21.737 7.60154 21.2052 7.23898C20.6976 6.90059 20.1538 6.61055 19.5979 6.38092C18.9936 6.12713 18.3772 5.92168 17.7367 5.78874C17.072 5.6558 16.3832 5.58329 15.7064 5.58329C15.0538 5.58329 14.4012 5.64372 13.7606 5.77666C13.1644 5.88945 12.5843 6.05865 12.0203 6.28424C11.4161 6.52595 10.836 6.82808 10.2921 7.19064C9.72413 7.5532 9.19237 7.98828 8.69687 8.48378C8.56796 8.60463 8.44308 8.73354 8.32222 8.8705C8.2336 8.96719 8.149 9.0679 8.06843 9.17264C8.03621 9.20486 8.00398 9.24112 7.97175 9.28141C7.90729 9.36198 7.84687 9.44254 7.79047 9.52311C7.75824 9.5634 7.73004 9.59966 7.70587 9.63189C7.61725 9.74468 7.53265 9.8615 7.45208 9.98236C7.11369 10.502 6.82364 11.0338 6.59402 11.5897C6.32814 12.194 6.13478 12.8103 6.00184 13.4509C5.8689 14.1155 5.79639 14.8044 5.79639 15.4933C5.79639 16.1338 5.85681 16.7864 5.97767 17.4269C6.09852 18.0231 6.27175 18.6073 6.49734 19.1793C6.73905 19.7715 7.04118 20.3516 7.39165 20.9075C7.7663 21.4634 8.20137 22.0073 8.69687 22.5028C9.15611 22.962 9.6637 23.3729 10.1955 23.7355C10.7151 24.0739 11.2469 24.3639 11.8028 24.5935C12.4071 24.8594 13.0234 25.0528 13.6639 25.1857C14.3286 25.3187 15.0175 25.3912 15.7064 25.3912C16.3469 25.3912 16.9995 25.3307 17.64 25.2099C18.2322 25.089 18.8123 24.9198 19.3803 24.6902C19.9846 24.4485 20.5647 24.1464 21.1085 23.7959C21.2374 23.7073 21.3663 23.6187 21.4953 23.53C21.5275 23.5059 21.5637 23.4777 21.604 23.4454C21.6926 23.381 21.7813 23.3165 21.8699 23.2521C21.9021 23.2198 21.9384 23.1876 21.9787 23.1554C22.0915 23.0668 22.2002 22.9741 22.305 22.8774L22.3291 22.8533H22.3412C22.4621 22.7405 22.5829 22.6236 22.7038 22.5028C22.8246 22.3819 22.9374 22.2611 23.0422 22.1402L23.0784 22.104C23.1671 22.0073 23.2517 21.9106 23.3322 21.8139C23.3645 21.7736 23.3967 21.7374 23.4289 21.7051C23.4934 21.6165 23.5538 21.5319 23.6102 21.4514C23.6424 21.4191 23.6706 21.3829 23.6948 21.3426C23.7834 21.2298 23.868 21.113 23.9486 20.9921C24.287 20.4845 24.577 19.9407 24.8066 19.3848C25.0725 18.7805 25.2659 18.1641 25.3988 17.5357C25.5318 16.8589 25.6043 16.1701 25.6043 15.4933C25.6043 14.8407 25.5438 14.1881 25.423 13.5475C25.3021 12.9554 25.1329 12.3753 24.9033 11.8072C24.6616 11.203 24.3595 10.6229 24.009 10.079C23.6344 9.51103 23.1993 8.97928 22.7038 8.48378Z" fill="url(#paint13_linear_44_4844)"/>
<path fill-rule="evenodd" clip-rule="evenodd" d="M25.3989 15.4933C25.3989 14.8407 25.3385 14.2002 25.2177 13.5959C25.0968 13.0037 24.9276 12.4357 24.698 11.8798C24.4684 11.2876 24.1662 10.7196 23.8158 10.1878C23.4532 9.63189 23.0302 9.11222 22.5589 8.6288C22.1117 8.18164 21.6162 7.78283 21.0845 7.42027C20.589 7.09396 20.0693 6.80391 19.5134 6.57429C18.9333 6.3205 18.329 6.12714 17.7006 5.9942C17.06 5.86126 16.3833 5.78874 15.7065 5.78874C15.5292 5.78874 15.352 5.79278 15.1747 5.80083C15.1506 5.80083 15.1224 5.80486 15.0901 5.81292C14.9934 5.81292 14.9008 5.82097 14.8122 5.83709C14.8927 5.82903 14.9733 5.82097 15.0539 5.81292C14.9653 5.82097 14.8766 5.82903 14.788 5.83709C14.7477 5.83709 14.7034 5.84111 14.6551 5.84917C14.5503 5.85723 14.4496 5.86932 14.3529 5.88543C14.3046 5.89349 14.2603 5.90154 14.22 5.9096C14.083 5.92571 13.9461 5.94989 13.8091 5.98211C13.2169 6.09088 12.6368 6.27216 12.093 6.4897C11.5008 6.73141 10.9328 7.02145 10.401 7.37193C9.84509 7.73449 9.31334 8.15747 8.84201 8.6288C8.39485 9.08805 7.99604 9.57146 7.63347 10.1032C7.30314 10.5947 7.02115 11.1184 6.7875 11.6743C6.53371 12.2544 6.34034 12.8587 6.2074 13.4871C6.07446 14.1397 6.00195 14.8044 6.00195 15.4933C6.00195 16.1338 6.06238 16.7743 6.18323 17.3907C6.30409 17.9708 6.47328 18.5509 6.7029 19.0947C6.93252 19.6869 7.23466 20.2549 7.58513 20.7867C7.94769 21.3426 8.37068 21.8743 8.84201 22.3457C9.28917 22.7928 9.78466 23.2037 10.3164 23.5542C10.8079 23.8845 11.3316 24.1665 11.8875 24.4002C12.4676 24.654 13.0719 24.8473 13.7003 24.9803C13.8453 25.0125 13.9904 25.0407 14.1354 25.0649C14.1837 25.0729 14.2321 25.077 14.2804 25.077C14.3852 25.0931 14.4899 25.1092 14.5946 25.1253C14.643 25.1334 14.6913 25.1374 14.7397 25.1374C14.8766 25.1535 15.0136 25.1656 15.1506 25.1736H15.1989C15.3681 25.1817 15.5373 25.1857 15.7065 25.1857C15.8596 25.1857 16.0167 25.1817 16.1778 25.1736H16.2262C16.2423 25.1736 16.2584 25.1736 16.2745 25.1736C16.3712 25.1656 16.4679 25.1575 16.5645 25.1495C16.5807 25.1495 16.5968 25.1495 16.6129 25.1495C16.6532 25.1414 16.6975 25.1334 16.7458 25.1253C16.8506 25.1172 16.9513 25.1052 17.048 25.089C17.0963 25.089 17.1406 25.085 17.1809 25.077C17.3179 25.0528 17.4548 25.0286 17.5918 25.0044C18.184 24.8836 18.7641 24.7144 19.3079 24.4969C19.9001 24.2552 20.4681 23.953 20.9999 23.6146C21.5558 23.24 22.0875 22.817 22.5589 22.3457C23.006 21.8985 23.4048 21.403 23.7674 20.8713C24.0937 20.3758 24.3838 19.8561 24.6134 19.3002C24.8672 18.7201 25.0605 18.1158 25.1935 17.4874C25.3264 16.8468 25.3989 16.1701 25.3989 15.4933ZM16.5645 25.1495C16.5565 25.1495 16.5525 25.1495 16.5525 25.1495C16.5686 25.1495 16.5847 25.1495 16.6008 25.1495C16.5847 25.1495 16.5726 25.1495 16.5645 25.1495ZM16.3712 25.1616C16.339 25.1696 16.3067 25.1736 16.2745 25.1736C16.2584 25.1736 16.2423 25.1736 16.2262 25.1736C16.2745 25.1736 16.3228 25.1696 16.3712 25.1616ZM15.1747 5.80083C15.1506 5.80083 15.1224 5.80486 15.0901 5.81292C15.0821 5.81292 15.07 5.81292 15.0539 5.81292C15.0942 5.81292 15.1344 5.80889 15.1747 5.80083Z" fill="#631E97"/>
<defs>
<linearGradient id="paint0_linear_44_4844" x1="4.69943" y1="26.458" x2="26.6374" y2="26.458" gradientUnits="userSpaceOnUse">
<stop stop-color="#4200B3"/>
<stop offset="1" stop-color="#480979"/>
</linearGradient>
<linearGradient id="paint1_linear_44_4844" x1="1.19796" y1="8.76103" x2="2.10241" y2="9.02901" gradientUnits="userSpaceOnUse">
<stop stop-color="#8F8D90"/>
<stop offset="1" stop-color="white"/>
</linearGradient>
<linearGradient id="paint2_linear_44_4844" x1="29.4385" y1="6.17436" x2="28.1354" y2="7.4774" gradientUnits="userSpaceOnUse">
<stop stop-color="#8F8D90"/>
<stop offset="1" stop-color="white"/>
</linearGradient>
<linearGradient id="paint3_linear_44_4844" x1="12.2697" y1="-0.0467935" x2="12.6154" y2="0.848362" gradientUnits="userSpaceOnUse">
<stop stop-color="#8F8D90"/>
<stop offset="1" stop-color="white"/>
</linearGradient>
<linearGradient id="paint4_linear_44_4844" x1="30.6844" y1="22.2877" x2="29.0511" y2="21.9107" gradientUnits="userSpaceOnUse">
<stop stop-color="#8F8D90"/>
<stop offset="1" stop-color="white"/>
</linearGradient>
<linearGradient id="paint5_linear_44_4844" x1="19.4406" y1="31.7376" x2="18.8047" y2="30.1981" gradientUnits="userSpaceOnUse">
<stop stop-color="#8F8D90"/>
<stop offset="1" stop-color="white"/>
</linearGradient>
<linearGradient id="paint6_linear_44_4844" x1="2.15875" y1="24.1498" x2="0.61316" y2="24.6852" gradientUnits="userSpaceOnUse">
<stop stop-color="#3B00B2"/>
<stop offset="1" stop-color="#480979"/>
</linearGradient>
<linearGradient id="paint7_linear_44_4844" x1="1.82768" y1="8.9587" x2="0.655575" y2="7.84341" gradientUnits="userSpaceOnUse">
<stop stop-color="#3E00A8"/>
<stop offset="1" stop-color="#480979"/>
</linearGradient>
<linearGradient id="paint8_linear_44_4844" x1="12.3072" y1="1.12467" x2="13.0668" y2="-1.86886" gradientUnits="userSpaceOnUse">
<stop stop-color="#3B007C"/>
<stop offset="1" stop-color="#3B0565"/>
</linearGradient>
<linearGradient id="paint9_linear_44_4844" x1="24.4373" y1="13.1772" x2="26.8955" y2="9.42287" gradientUnits="userSpaceOnUse">
<stop stop-color="#5C1DAB"/>
<stop offset="1" stop-color="#480979"/>
</linearGradient>
<linearGradient id="paint10_linear_44_4844" x1="27.9349" y1="21.0831" x2="29.7232" y2="22.1113" gradientUnits="userSpaceOnUse">
<stop stop-color="#3B00B2"/>
<stop offset="1" stop-color="#480979"/>
</linearGradient>
<linearGradient id="paint11_linear_44_4844" x1="18.3668" y1="32.4987" x2="18.0644" y2="33.5713" gradientUnits="userSpaceOnUse">
<stop stop-color="#3B00B2"/>
<stop offset="1" stop-color="#480979"/>
</linearGradient>
<linearGradient id="paint12_linear_44_4844" x1="1.64504" y1="25.0316" x2="3.14795" y2="23.6394" gradientUnits="userSpaceOnUse">
<stop stop-color="#8F8D90"/>
<stop offset="1" stop-color="white"/>
</linearGradient>
<linearGradient id="paint13_linear_44_4844" x1="5.75409" y1="25.3967" x2="25.5696" y2="25.3967" gradientUnits="userSpaceOnUse">
<stop stop-color="#4200B3"/>
<stop offset="1" stop-color="#480979"/>
</linearGradient>
</defs>
</svg>
