<svg width="36" height="36" viewBox="0 0 36 36" fill="none" xmlns="http://www.w3.org/2000/svg">
<rect width="35.5347" height="35.5347" rx="17.7674" fill="url(#paint0_linear_355_4362)"/>
<mask id="mask0_355_4362" style="mask-type:alpha" maskUnits="userSpaceOnUse" x="0" y="0" width="36" height="36">
<rect width="35.5347" height="35.5347" rx="17.7674" fill="url(#paint1_linear_355_4362)"/>
</mask>
<g mask="url(#mask0_355_4362)">
<ellipse cx="17.7673" cy="0.243399" rx="6.08471" ry="4.62438" fill="white"/>
</g>
<mask id="mask1_355_4362" style="mask-type:alpha" maskUnits="userSpaceOnUse" x="0" y="0" width="36" height="36">
<rect x="35.5347" width="35.5347" height="35.5347" rx="17.7674" transform="rotate(90 35.5347 0)" fill="url(#paint2_linear_355_4362)"/>
</mask>
<g mask="url(#mask1_355_4362)">
<ellipse cx="35.2911" cy="17.7674" rx="6.08471" ry="4.62438" transform="rotate(90 35.2911 17.7674)" fill="white"/>
</g>
<mask id="mask2_355_4362" style="mask-type:alpha" maskUnits="userSpaceOnUse" x="0" y="0" width="36" height="36">
<rect x="35.5347" y="35.5347" width="35.5347" height="35.5347" rx="17.7674" transform="rotate(180 35.5347 35.5347)" fill="url(#paint3_linear_355_4362)"/>
</mask>
<g mask="url(#mask2_355_4362)">
<ellipse cx="17.7678" cy="35.2913" rx="6.08471" ry="4.62438" transform="rotate(180 17.7678 35.2913)" fill="white"/>
</g>
<mask id="mask3_355_4362" style="mask-type:alpha" maskUnits="userSpaceOnUse" x="0" y="0" width="36" height="36">
<rect y="35.5347" width="35.5347" height="35.5347" rx="17.7674" transform="rotate(-90 0 35.5347)" fill="url(#paint4_linear_355_4362)"/>
</mask>
<g mask="url(#mask3_355_4362)">
<ellipse cx="0.243033" cy="17.7674" rx="6.08471" ry="4.62438" transform="rotate(-90 0.243033 17.7674)" fill="white"/>
</g>
<defs>
<linearGradient id="paint0_linear_355_4362" x1="-3.5204e-07" y1="2.5" x2="26.5" y2="30" gradientUnits="userSpaceOnUse">
<stop offset="0.47" stop-color="#FF5353"/>
<stop offset="0.905" stop-color="#6561C0"/>
</linearGradient>
<linearGradient id="paint1_linear_355_4362" x1="3.89422" y1="-4.77144e-07" x2="38.6988" y2="42.1062" gradientUnits="userSpaceOnUse">
<stop stop-color="#8F8BF4"/>
<stop offset="1" stop-color="#FF4141"/>
</linearGradient>
<linearGradient id="paint2_linear_355_4362" x1="39.4289" y1="-4.77144e-07" x2="74.2334" y2="42.1062" gradientUnits="userSpaceOnUse">
<stop stop-color="#8F8BF4"/>
<stop offset="1" stop-color="#FF4141"/>
</linearGradient>
<linearGradient id="paint3_linear_355_4362" x1="39.4289" y1="35.5347" x2="74.2334" y2="77.6409" gradientUnits="userSpaceOnUse">
<stop stop-color="#8F8BF4"/>
<stop offset="1" stop-color="#FF4141"/>
</linearGradient>
<linearGradient id="paint4_linear_355_4362" x1="3.89422" y1="35.5347" x2="38.6988" y2="77.6409" gradientUnits="userSpaceOnUse">
<stop stop-color="#8F8BF4"/>
<stop offset="1" stop-color="#FF4141"/>
</linearGradient>
</defs>
</svg>
