<svg width="32" height="32" viewBox="0 0 32 32" fill="none" xmlns="http://www.w3.org/2000/svg">
<path fill-rule="evenodd" clip-rule="evenodd" d="M27.659 16.3151C27.659 15.5296 27.5864 14.7561 27.4293 14.0189C27.2964 13.2938 27.0789 12.6049 26.813 11.9402C26.5229 11.2272 26.1725 10.5383 25.7495 9.8978C25.3023 9.22102 24.7947 8.58049 24.2146 8.01248C23.6708 7.46864 23.0786 6.97314 22.4381 6.55016C21.8338 6.15134 21.2054 5.80086 20.5407 5.51081C19.8397 5.20868 19.1025 4.97906 18.3291 4.82195C17.5556 4.65276 16.7459 4.56816 15.912 4.56816C15.7025 4.56816 15.493 4.57219 15.2836 4.58024C15.1224 4.5883 14.9653 4.60039 14.8122 4.6165C14.7558 4.62456 14.6994 4.63261 14.643 4.64067C14.5222 4.64873 14.4013 4.66484 14.2805 4.68901C14.2241 4.68901 14.1717 4.69304 14.1234 4.7011C13.9542 4.73332 13.785 4.76555 13.6158 4.79778C12.9027 4.93072 12.2139 5.14826 11.5492 5.41413C10.8241 5.70418 10.1473 6.05466 9.50676 6.47764C8.8179 6.9248 8.18946 7.43239 7.60936 8.01248C7.06552 8.55632 6.58211 9.14851 6.14704 9.78903C5.74822 10.3933 5.40983 11.0217 5.11978 11.6864C4.81765 12.3874 4.58803 13.1246 4.41884 13.886C4.26173 14.6715 4.16504 15.4812 4.16504 16.3151C4.16504 17.1007 4.24964 17.862 4.39466 18.6113C4.53969 19.3244 4.74514 20.0132 5.01101 20.6779C5.30106 21.403 5.66363 22.0798 6.08661 22.7203C6.52168 23.4092 7.04135 24.0377 7.60936 24.6177C8.1532 25.1616 8.75747 25.645 9.39799 26.0801C9.99017 26.4789 10.6307 26.8173 11.2954 27.1073C11.9963 27.4095 12.7336 27.6391 13.4949 27.8083C13.6722 27.8405 13.8494 27.8727 14.0267 27.905C14.0831 27.913 14.1395 27.9211 14.1959 27.9291C14.3248 27.9452 14.4537 27.9614 14.5826 27.9775C14.639 27.9855 14.6954 27.9936 14.7518 28.0016C14.921 28.0178 15.0902 28.0298 15.2594 28.0379H15.3077C15.5092 28.054 15.7106 28.0621 15.912 28.0621C16.1054 28.0621 16.2987 28.054 16.4921 28.0379H16.5525C16.5928 28.0379 16.6371 28.0339 16.6855 28.0258C16.7902 28.0178 16.8949 28.0097 16.9997 28.0016C16.9594 28.0097 16.9191 28.0137 16.8788 28.0137C16.9272 28.0137 16.9715 28.0097 17.0118 28.0016C17.0682 27.9936 17.1246 27.9896 17.181 27.9896C17.3018 27.9734 17.4267 27.9573 17.5556 27.9412C17.6039 27.9332 17.6563 27.9251 17.7127 27.917C17.8819 27.8929 18.0471 27.8647 18.2082 27.8325C18.9212 27.6874 19.6222 27.482 20.2869 27.2161C20.9999 26.9261 21.6888 26.5635 22.3293 26.1405C23.0061 25.6933 23.6466 25.1858 24.2146 24.6177C24.7585 24.0739 25.254 23.4696 25.677 22.8291C26.0758 22.2369 26.4263 21.5964 26.7163 20.9317C27.0184 20.2308 27.2481 19.4936 27.4052 18.7322C27.5744 17.9466 27.659 17.1369 27.659 16.3151ZM16.8788 28.0137C16.8144 28.0218 16.7499 28.0258 16.6855 28.0258C16.6452 28.0339 16.6049 28.0379 16.5646 28.0379C16.6693 28.0298 16.7741 28.0218 16.8788 28.0137Z" fill="#093679"/>
<path d="M4.50354 11.4327C4.18932 12.1699 3.94761 12.9434 3.77842 13.7531C3.7059 14.0915 3.64951 14.4299 3.60923 14.7682L0.68457 14.4057C0.732912 13.9787 0.801397 13.5597 0.890023 13.1488C1.09547 12.1457 1.39761 11.191 1.79642 10.2725C1.86894 10.1033 1.94547 9.93411 2.02604 9.76492L4.69691 11.0218C4.63245 11.1588 4.56799 11.2957 4.50354 11.4327Z" fill="#F8F5F6"/>
<path d="M28.7587 7.89167L26.2933 9.51111C25.822 8.79807 25.2902 8.13338 24.6859 7.5412C24.3637 7.21892 24.0213 6.91276 23.6587 6.62271L25.5078 4.3265C25.9509 4.681 26.3739 5.05564 26.7767 5.45043C27.5139 6.19972 28.1786 7.00944 28.7587 7.89167Z" fill="#F8F5F6"/>
<path d="M11.2954 4.79776C10.7314 5.02336 10.1876 5.28924 9.66387 5.5954L8.18945 3.04539C8.834 2.66671 9.50676 2.33638 10.2077 2.05439C11.0053 1.74017 11.8271 1.48638 12.6852 1.29301L13.3016 4.18141C12.6087 4.33449 11.9399 4.53994 11.2954 4.79776Z" fill="#F8F5F6"/>
<path d="M27.3209 21.1976C27.6351 20.4483 27.8889 19.6749 28.0581 18.8652C28.1226 18.5348 28.179 18.1964 28.2273 17.85L31.152 18.2246C31.0956 18.6436 31.0271 19.0626 30.9465 19.4815C30.729 20.4725 30.4269 21.4393 30.0401 22.3578C29.9596 22.527 29.883 22.6922 29.8105 22.8533L27.1396 21.5965C27.2041 21.4675 27.2645 21.3346 27.3209 21.1976Z" fill="#F8F5F6"/>
<path d="M20.5286 27.8324C21.0926 27.5988 21.6365 27.3329 22.1602 27.0348L23.6467 29.5848C23.0021 29.9554 22.3293 30.2817 21.6284 30.5637C20.8308 30.89 19.9969 31.1438 19.1388 31.3251L18.5225 28.4367C19.2113 28.2917 19.8881 28.0862 20.5286 27.8324Z" fill="#F8F5F6"/>
<path fill-rule="evenodd" clip-rule="evenodd" d="M31.2728 16.3151C31.2728 15.2879 31.1641 14.2848 30.9707 13.3059C30.7894 12.3753 30.5235 11.4689 30.1731 10.5988C29.7984 9.6561 29.3271 8.76178 28.7832 7.92789L28.7591 7.89163L26.2937 9.51107C25.8223 8.79803 25.2906 8.13334 24.6863 7.54116C24.364 7.21888 24.0216 6.91272 23.6591 6.62267L25.5081 4.32646C25.1617 4.05252 24.8072 3.79067 24.4446 3.54091C23.6591 3.02124 22.8252 2.56199 21.955 2.18735C21.0365 1.80062 20.0818 1.49848 19.0787 1.28095C18.0635 1.0755 17 0.954645 15.9124 0.954645C14.8851 0.954645 13.882 1.06341 12.9152 1.25678C12.8346 1.26484 12.7581 1.27692 12.6856 1.29303L13.3019 4.18143C12.6131 4.32646 11.9484 4.53191 11.2958 4.79778C10.7318 5.02338 10.1879 5.28926 9.66423 5.59542L8.18982 3.04541C7.96422 3.17432 7.74266 3.30726 7.52512 3.44423C6.63081 4.03641 5.80901 4.7011 5.05972 5.45039C4.34668 6.16343 3.70615 6.94898 3.13814 7.78287C2.71918 8.4113 2.34856 9.07197 2.02629 9.76486L4.69715 11.0217C4.6327 11.1587 4.56824 11.2957 4.50378 11.4326C4.18957 12.1698 3.94786 12.9433 3.77866 13.753C3.70615 14.0914 3.64976 14.4298 3.60947 14.7682L0.684818 14.4056C0.604249 15.026 0.563965 15.6625 0.563965 16.3151C0.563965 17.3424 0.660651 18.3455 0.854016 19.3123C1.0353 20.2549 1.31325 21.1613 1.66373 22.0194C2.03837 22.9621 2.5097 23.8564 3.05354 24.7024L3.07772 24.7265L5.54313 23.1071C6.00237 23.8201 6.54621 24.4848 7.1384 25.077C7.46873 25.4073 7.81115 25.7135 8.16565 25.9955L6.32868 28.3038C6.66707 28.5777 7.02157 28.8355 7.39219 29.0772C8.16565 29.609 8.99954 30.0562 9.86968 30.4308C10.7882 30.8296 11.755 31.1318 12.746 31.3372C13.7732 31.5547 14.8247 31.6635 15.9124 31.6635C16.9396 31.6635 17.9427 31.5668 18.9216 31.3735C18.9941 31.3574 19.0666 31.3412 19.1391 31.3251L18.5228 28.4367C19.2117 28.2917 19.8884 28.0863 20.529 27.8325C21.0929 27.5988 21.6368 27.3329 22.1605 27.0348L23.647 29.5848C23.8726 29.4479 24.0901 29.3109 24.2996 29.1739C25.1939 28.5938 26.0278 27.9171 26.7771 27.1678C27.478 26.4547 28.1306 25.6813 28.6866 24.8353C29.1055 24.2069 29.4802 23.5462 29.8105 22.8533L27.1396 21.5964C27.2041 21.4675 27.2645 21.3346 27.3209 21.1976C27.6351 20.4483 27.8889 19.6748 28.0581 18.8651C28.1226 18.5348 28.179 18.1964 28.2273 17.85L31.152 18.2246C31.2325 17.5962 31.2728 16.9597 31.2728 16.3151ZM5.51896 23.0829L5.54313 23.1071C5.53507 23.099 5.52701 23.091 5.51896 23.0829ZM13.4953 4.14518C13.4308 4.16129 13.3664 4.17337 13.3019 4.18143C13.3664 4.16532 13.4308 4.15323 13.4953 4.14518ZM25.919 12.3028C26.1728 12.9071 26.3541 13.5476 26.487 14.2002C26.6321 14.8891 26.7046 15.59 26.7046 16.3151C26.7046 17.0765 26.62 17.8137 26.4629 18.5388C26.3178 19.2398 26.1003 19.9045 25.8344 20.5571C25.5685 21.1613 25.2422 21.7535 24.8797 22.2974C24.4809 22.8896 24.0337 23.4334 23.5382 23.9289C23.0065 24.4606 22.4264 24.932 21.7979 25.3429C21.2178 25.7296 20.5894 26.0559 19.9247 26.3218C19.3204 26.5635 18.6799 26.7569 18.0273 26.8898C17.3384 27.0227 16.6375 27.0953 15.9124 27.0953C15.151 27.0953 14.4138 27.0107 13.6886 26.8656C12.9877 26.7206 12.3109 26.5031 11.6704 26.2251C11.0661 25.9592 10.4739 25.645 9.93011 25.2824C9.33793 24.8836 8.79409 24.4365 8.29859 23.9289C7.76683 23.4092 7.2955 22.8291 6.8846 22.2007C6.49787 21.6085 6.17157 20.9801 5.90569 20.3154C5.66398 19.7111 5.47062 19.0827 5.33768 18.418C5.20474 17.7412 5.13222 17.0282 5.13222 16.3151C5.13222 15.5537 5.21683 14.8045 5.36185 14.0914C5.50687 13.3905 5.72441 12.7137 6.00237 12.0732C6.26825 11.4608 6.58247 10.8767 6.94503 10.3208C7.34384 9.74069 7.791 9.18477 8.29859 8.68927C8.81826 8.15751 9.39835 7.69827 10.0268 7.28737C10.619 6.90064 11.2474 6.57433 11.9 6.30845C12.5164 6.05466 13.1448 5.8613 13.8095 5.74044C14.4863 5.59542 15.1993 5.52291 15.9124 5.52291C16.6737 5.52291 17.423 5.6075 18.1361 5.76461C18.837 5.90964 19.5138 6.12717 20.1543 6.39305C20.7707 6.65893 21.3508 6.97315 21.8946 7.34779C22.4868 7.73453 23.0427 8.19377 23.5382 8.68927C24.0579 9.22102 24.5292 9.80112 24.9401 10.4296C25.3268 11.0097 25.6531 11.6381 25.919 12.3028Z" fill="#1E4E97"/>
<path d="M7.13832 25.077C7.46865 25.4074 7.81107 25.7135 8.16557 25.9955L6.3286 28.3038C5.88547 27.9493 5.46248 27.5707 5.05964 27.1678C4.31035 26.4306 3.64565 25.6088 3.07764 24.7266L5.54305 23.1071C6.00229 23.8202 6.54614 24.4849 7.13832 25.077Z" fill="#F8F5F6"/>
<path d="M25.617 18.3575C25.484 18.9981 25.2786 19.6144 25.0248 20.2066C24.7831 20.7746 24.493 21.3064 24.1546 21.8139C23.7921 22.3578 23.3812 22.8533 22.9219 23.3125C22.4385 23.7959 21.9068 24.231 21.3267 24.6057C20.7828 24.9682 20.2027 25.2704 19.5985 25.5121C19.0425 25.7417 18.4624 25.9109 17.8582 26.0317C17.2297 26.1526 16.5771 26.2251 15.9124 26.2251C15.2115 26.2251 14.5347 26.1526 13.87 26.0076C13.2295 25.8746 12.601 25.6813 12.0209 25.4275C11.4529 25.1858 10.9212 24.8957 10.4136 24.5573C9.86975 24.1948 9.36217 23.7718 8.90292 23.3125C8.41951 22.8291 7.99653 22.2974 7.62188 21.7173C7.25932 21.1855 6.95719 20.6054 6.71548 20.0011C6.48586 19.4331 6.31666 18.853 6.1958 18.2488C6.07495 17.6203 6.00244 16.9798 6.00244 16.3151C6.00244 15.6142 6.07495 14.9253 6.21998 14.2727C6.35291 13.6201 6.54628 13.0037 6.80007 12.4115C7.04178 11.8476 7.33183 11.3158 7.67022 10.8163C8.03278 10.2724 8.45576 9.76485 8.91501 9.30561C9.39842 8.8222 9.93018 8.38713 10.4982 8.01248C11.042 7.662 11.6221 7.35987 12.2264 7.11816C12.7944 6.88854 13.3745 6.70726 13.9788 6.58641C14.4541 6.49778 14.9375 6.44138 15.429 6.41721C14.9375 6.44138 14.4622 6.49778 14.0029 6.58641C13.3987 6.70726 12.8307 6.87646 12.2747 7.10608C11.6705 7.34779 11.1025 7.64992 10.5707 7.98831C10.0027 8.36295 9.47094 8.79803 8.98752 9.26936C8.54037 9.7286 8.12946 10.2241 7.7669 10.7559C7.44059 11.2514 7.15055 11.7831 6.90884 12.339C6.65505 12.9312 6.46169 13.5355 6.32875 14.176C6.19581 14.8286 6.12329 15.5054 6.12329 16.1943C6.12329 16.8469 6.18372 17.4874 6.30458 18.1037C6.42543 18.708 6.60671 19.2881 6.82424 19.8319C7.06595 20.4362 7.36809 21.0042 7.71856 21.536C8.08112 22.1161 8.5162 22.6357 8.98752 23.1192C9.44677 23.5663 9.94226 23.9772 10.474 24.3398C10.9816 24.6661 11.5013 24.9561 12.0572 25.1978C12.6494 25.4516 13.2657 25.645 13.8942 25.7779C14.5468 25.9109 15.2236 25.9955 15.9124 25.9955C16.565 25.9955 17.2056 25.923 17.834 25.8021C18.4262 25.6813 19.0063 25.5121 19.5622 25.2824C20.1544 25.0407 20.7224 24.7507 21.2662 24.4002C21.8342 24.0256 22.3539 23.5905 22.8373 23.1192C23.2966 22.6599 23.6954 22.1644 24.058 21.6327C24.3963 21.1331 24.6824 20.6054 24.916 20.0495C25.1698 19.4573 25.3632 18.853 25.4961 18.2125C25.6411 17.5599 25.7136 16.8831 25.7136 16.1943C25.7136 15.5417 25.6411 14.9011 25.5203 14.2848C25.3994 13.6805 25.2302 13.1004 25.0006 12.5566C24.7589 11.9523 24.4689 11.3843 24.1184 10.8525C23.7437 10.2845 23.3207 9.75277 22.8373 9.26936C22.3781 8.8222 21.8826 8.41129 21.3508 8.04873C20.8513 7.7184 20.3236 7.43238 19.7677 7.19068C19.1876 6.93688 18.5712 6.74352 17.9307 6.61058C17.2781 6.47764 16.6013 6.40513 15.9124 6.40513C16.6134 6.40513 17.3022 6.47764 17.9549 6.61058C18.6075 6.74352 19.2238 6.94897 19.816 7.20276C20.38 7.44447 20.9117 7.73452 21.4113 8.07291C21.9551 8.43547 22.4627 8.84637 22.9219 9.30561C23.4053 9.78903 23.8404 10.3208 24.2151 10.9009C24.5655 11.4447 24.8677 12.0248 25.1094 12.6291C25.339 13.185 25.5203 13.7651 25.6411 14.3694C25.762 14.9978 25.8224 15.6504 25.8224 16.3151C25.8224 17.0161 25.7499 17.6928 25.617 18.3575Z" fill="#EA7374"/>
<path fill-rule="evenodd" clip-rule="evenodd" d="M8.15379 24.0739C8.67346 24.5936 9.22938 25.0408 9.82157 25.4396C10.3896 25.8142 10.9818 26.1405 11.5981 26.3943C12.2628 26.6844 12.9517 26.9019 13.6526 27.0469C14.4019 27.204 15.1512 27.2766 15.9126 27.2766C16.6377 27.2766 17.3507 27.204 18.0638 27.0711C18.7164 26.9382 19.369 26.7448 19.9974 26.5031C20.6621 26.2372 21.3026 25.8988 21.9069 25.5C22.5354 25.1012 23.1275 24.6178 23.6714 24.0739C24.191 23.5543 24.6503 22.9983 25.037 22.4062C25.4238 21.8381 25.738 21.246 26.0038 20.6296C26.2818 19.9649 26.4993 19.2761 26.6444 18.5751C26.8015 17.8258 26.8861 17.0644 26.8861 16.3151C26.8861 15.59 26.8136 14.877 26.6685 14.1639C26.5477 13.5113 26.3543 12.8587 26.1005 12.2303C25.8347 11.5656 25.5083 10.9251 25.1095 10.3208C24.6986 9.69237 24.2273 9.10019 23.6714 8.55635C23.1517 8.03668 22.5958 7.57743 22.0036 7.1907C21.4356 6.80397 20.8434 6.48975 20.2271 6.22388C19.5624 5.94591 18.8735 5.72838 18.1725 5.58335C17.4353 5.42624 16.674 5.34164 15.9126 5.34164C15.1995 5.34164 14.4744 5.41416 13.7735 5.55918C13.1088 5.68003 12.4683 5.8734 11.8398 6.12719C11.1751 6.39307 10.5346 6.71937 9.91825 7.11819C9.3019 7.52909 8.69763 8.00042 8.15379 8.55635C7.63412 9.07602 7.18696 9.63194 6.78815 10.2241C6.4135 10.7921 6.08719 11.3843 5.8334 12.0007C5.54335 12.6654 5.32582 13.3542 5.1808 14.0552C5.02369 14.7924 4.95117 15.5538 4.95117 16.3151C4.95117 17.0282 5.0116 17.7533 5.15662 18.4542C5.28956 19.1189 5.48293 19.7595 5.72464 20.3879C5.99051 21.0526 6.3289 21.6931 6.72772 22.3095C7.12654 22.9258 7.60995 23.518 8.15379 24.0739ZM10.3171 24.7024C9.77323 24.3398 9.26564 23.9168 8.78223 23.4455C8.27464 22.9379 7.83957 22.3941 7.46492 21.8261C7.10236 21.258 6.80023 20.6659 6.54644 20.0616C6.31682 19.4815 6.14762 18.8893 6.02677 18.2851C5.89383 17.6324 5.8334 16.9677 5.8334 16.3151C5.8334 15.6142 5.90592 14.9132 6.05094 14.2365C6.18388 13.5959 6.37724 12.9554 6.64312 12.3391C6.88483 11.7831 7.17487 11.2272 7.52535 10.7075C7.88791 10.1758 8.3109 9.65611 8.78223 9.18479C9.28981 8.6772 9.83366 8.24213 10.4017 7.86748C10.9697 7.49284 11.5619 7.1907 12.1661 6.949C12.7462 6.71937 13.3384 6.53809 13.9427 6.41724C14.5953 6.29639 15.26 6.22388 15.9126 6.22388C16.6135 6.22388 17.3024 6.30847 17.9913 6.44141C18.6318 6.58644 19.2723 6.7798 19.8887 7.04568C20.4446 7.28739 20.9884 7.57743 21.5202 7.92791C22.0519 8.27838 22.5716 8.70137 23.0429 9.18479C23.5505 9.68028 23.9856 10.2241 24.3602 10.8042C24.7349 11.3601 25.037 11.9523 25.2787 12.5566C25.5084 13.1367 25.6896 13.741 25.7984 14.3452C25.9313 14.9858 25.9918 15.6504 25.9918 16.3151C25.9918 17.004 25.9193 17.705 25.7863 18.3938C25.6413 19.0343 25.4479 19.6628 25.182 20.2791C24.9403 20.8471 24.6503 21.391 24.2998 21.9107C23.9373 22.4545 23.5264 22.9621 23.0429 23.4455C22.5474 23.9531 22.0036 24.3882 21.4235 24.7628C20.8676 25.1254 20.2754 25.4275 19.6711 25.6692C19.091 25.9109 18.4868 26.0801 17.8825 26.201C17.242 26.3339 16.5773 26.3943 15.9126 26.3943C15.2237 26.3943 14.5228 26.3218 13.8339 26.1768C13.1934 26.0438 12.5649 25.8384 11.9486 25.5846C11.3806 25.3429 10.8367 25.0528 10.3171 24.7024Z" fill="url(#paint0_linear_44_4702)"/>
<path d="M24.1546 21.814L24.8797 22.2974C24.4809 22.8896 24.0337 23.4334 23.5382 23.9289L22.9219 23.3125C23.3811 22.8533 23.792 22.3578 24.1546 21.814Z" fill="#093679"/>
<path d="M25.0244 20.2066L25.8221 20.5571C25.5683 21.1613 25.242 21.7535 24.8794 22.2974L24.1543 21.8139C24.4927 21.3064 24.7827 20.7746 25.0244 20.2066Z" fill="#E3DEDD"/>
<path d="M25.6166 18.3575L26.4626 18.5388C26.3175 19.2398 26.1 19.9045 25.822 20.5571L25.0244 20.2066C25.2782 19.6144 25.4837 18.9981 25.6166 18.3575Z" fill="#093679"/>
<path d="M22.9219 9.30567L23.5382 8.68932C24.0579 9.22108 24.5292 9.80117 24.9401 10.4296L24.215 10.9009C23.8404 10.3208 23.4053 9.78909 22.9219 9.30567Z" fill="#E3DEDD"/>
<path d="M6.71513 20.0011L5.90542 20.3154C5.66371 19.7111 5.47034 19.0827 5.3374 18.418L6.19546 18.2488C6.31631 18.853 6.48551 19.4331 6.71513 20.0011Z" fill="#E3DEDD"/>
<path d="M6.21987 14.2727L5.36182 14.0914C5.50684 13.3905 5.72438 12.7137 6.00234 12.0732L6.79997 12.4116C6.54618 13.0037 6.35281 13.6201 6.21987 14.2727Z" fill="#093679"/>
<path d="M6.19583 18.2488L5.33778 18.418C5.20484 17.7412 5.13232 17.0282 5.13232 16.3151H6.00247C6.00247 16.9798 6.07498 17.6203 6.19583 18.2488Z" fill="#093679"/>
<path d="M6.00247 16.3151H5.13232C5.13232 15.5537 5.21692 14.8045 5.36195 14.0914L6.22001 14.2727C6.07498 14.9253 6.00247 15.6142 6.00247 16.3151Z" fill="#E3DEDD"/>
<path d="M6.80007 12.4116L6.00244 12.0732C6.26832 11.4608 6.58254 10.8767 6.9451 10.3208L7.67022 10.8042C7.33183 11.3118 7.04178 11.8476 6.80007 12.4116Z" fill="#E3DEDD"/>
<path d="M8.91469 9.3056L8.29834 8.68925C8.81801 8.15749 9.3981 7.69825 10.0265 7.28735L10.4979 8.01247C9.92986 8.38712 9.3981 8.82219 8.91469 9.3056Z" fill="#E3DEDD"/>
<path d="M7.66995 10.8042L6.94482 10.3208C7.34364 9.74069 7.7908 9.18476 8.29838 8.68926L8.91473 9.30562C8.45549 9.76486 8.03251 10.2724 7.66995 10.8163V10.8042Z" fill="#093679"/>
<path d="M10.4982 8.01245L10.0269 7.28733C10.619 6.9006 11.2475 6.57429 11.9001 6.30842L12.2264 7.11813C11.6221 7.35984 11.042 7.66198 10.4982 8.01245Z" fill="#093679"/>
<path d="M7.62139 21.7173L6.88418 22.2007C6.49745 21.6086 6.17115 20.9801 5.90527 20.3154L6.71499 20.0012C6.9567 20.6055 7.25883 21.1856 7.62139 21.7173Z" fill="#093679"/>
<path d="M15.9122 26.2251V27.0953C15.1508 27.0953 14.4136 27.0107 13.6885 26.8657L13.8698 26.0076C14.5345 26.1526 15.2112 26.2251 15.9122 26.2251Z" fill="#E3DEDD"/>
<path d="M12.0205 25.4275L11.67 26.2251C11.0657 25.9592 10.4735 25.645 9.92969 25.2824L10.4131 24.5573C10.9207 24.8836 11.4524 25.1858 12.0205 25.4275Z" fill="#E3DEDD"/>
<path d="M13.8699 26.0075L13.6887 26.8655C12.9877 26.7205 12.3109 26.503 11.6704 26.225L12.0209 25.4274C12.601 25.6812 13.2294 25.8745 13.8699 26.0075Z" fill="#093679"/>
<path d="M8.90253 23.3125L8.29826 23.9289C7.76651 23.4092 7.29518 22.8291 6.88428 22.2007L7.62149 21.7173C7.99613 22.2974 8.41912 22.8291 8.90253 23.3125Z" fill="#E3DEDD"/>
<path d="M10.4133 24.5573L9.92986 25.2825C9.33768 24.8837 8.79384 24.4365 8.29834 23.9289L8.90261 23.3126C9.36185 23.7718 9.86943 24.1948 10.4133 24.5573Z" fill="#093679"/>
<path d="M25.6167 18.3575C25.7496 17.6928 25.8222 17.0161 25.8222 16.3151H26.7044C26.7044 17.0765 26.6198 17.8137 26.4627 18.5388L25.6167 18.3575Z" fill="#E3DEDD"/>
<path d="M25.6406 14.3694L26.4866 14.2002C26.6316 14.8891 26.7041 15.59 26.7041 16.3151H25.8219C25.8219 15.6504 25.7615 14.9978 25.6406 14.3694Z" fill="#093679"/>
<path d="M22.9214 23.3126L23.5378 23.9289C23.006 24.4607 22.4259 24.932 21.7975 25.3429L21.3262 24.6057C21.9063 24.231 22.438 23.796 22.9214 23.3126Z" fill="#E3DEDD"/>
<path d="M25.1094 12.629L25.9191 12.3027C26.1729 12.907 26.3542 13.5475 26.4871 14.2001L25.6411 14.3693C25.5203 13.7651 25.339 13.185 25.1094 12.629Z" fill="#E3DEDD"/>
<path d="M12.2262 7.1181L11.8999 6.30839C12.5163 6.05459 13.1447 5.86123 13.8094 5.74037L13.9786 6.58635C13.3743 6.7072 12.7942 6.88848 12.2262 7.1181Z" fill="#E3DEDD"/>
<path d="M21.3263 24.6057L21.7977 25.3429C21.2176 25.7296 20.5891 26.0559 19.9245 26.3218L19.5981 25.5121C20.2024 25.2704 20.7825 24.9682 21.3263 24.6057Z" fill="#093679"/>
<path d="M19.5982 25.512L19.9245 26.3218C19.3202 26.5635 18.6797 26.7568 18.0271 26.8898L17.8579 26.0317C18.4622 25.9109 19.0423 25.7296 19.5982 25.512Z" fill="#E3DEDD"/>
<path d="M24.2148 10.9009L24.94 10.4296C25.3267 11.0097 25.653 11.6381 25.9189 12.3028L25.1092 12.6291C24.8674 12.0248 24.5653 11.4447 24.2148 10.9009Z" fill="#093679"/>
<path d="M15.9121 6.39306V5.52291C16.6735 5.52291 17.4228 5.60751 18.1358 5.76462L17.9545 6.6106C17.3019 6.47766 16.6131 6.40515 15.9121 6.40515V6.39306Z" fill="#E3DEDD"/>
<path d="M17.8578 26.0318L18.027 26.8898C17.3382 27.0228 16.6372 27.0953 15.9121 27.0953V26.2251C16.5768 26.2251 17.2294 26.1526 17.8578 26.0318Z" fill="#093679"/>
<path d="M13.9788 6.58643L13.8096 5.74045C14.4863 5.59543 15.1873 5.52291 15.9124 5.52291V6.39306C15.2477 6.39306 14.6072 6.46557 13.9788 6.58643Z" fill="#093679"/>
<path d="M17.9546 6.61058L18.1359 5.7646C18.8368 5.90963 19.5136 6.12716 20.1541 6.39304L19.8157 7.20276C19.2235 6.94897 18.6072 6.74352 17.9546 6.61058Z" fill="#093679"/>
<path d="M19.8159 7.20273L20.1543 6.39301C20.7707 6.65889 21.3508 6.97311 21.8946 7.34776L21.4112 8.07288C20.9117 7.73449 20.3799 7.44444 19.8159 7.20273Z" fill="#E3DEDD"/>
<path d="M21.4111 8.0729L21.8945 7.34778C22.4867 7.73451 23.0427 8.19375 23.5382 8.68925L22.9218 9.3056C22.4626 8.84636 21.955 8.43546 21.4111 8.0729Z" fill="#093679"/>
<path d="M2.23149 9.86155C2.15092 10.0227 2.07439 10.1879 2.00188 10.357C1.61514 11.2634 1.31301 12.2061 1.10756 13.1971C1.01893 13.5999 0.950446 14.0109 0.902105 14.4298L0.68457 14.4056C0.732912 13.9786 0.801397 13.5597 0.890023 13.1488C1.09547 12.1457 1.39761 11.1909 1.79642 10.2725C1.86894 10.1033 1.94547 9.93406 2.02604 9.76487L2.23149 9.86155Z" fill="url(#paint1_linear_44_4702)"/>
<path d="M26.6197 5.60747C26.2168 5.22073 25.7979 4.85012 25.3628 4.49561L25.5078 4.32642C25.9509 4.68092 26.3739 5.05557 26.7768 5.45036C27.514 6.19965 28.1787 7.00937 28.7588 7.8916L28.5654 8.01245C27.9974 7.15439 27.3448 6.34467 26.6197 5.60747Z" fill="url(#paint2_linear_44_4702)"/>
<path d="M10.2923 2.25986C9.59941 2.54185 8.93472 2.86815 8.29822 3.23877L8.18945 3.0454C8.834 2.66673 9.50676 2.33639 10.2077 2.0544C11.0053 1.74018 11.8271 1.48639 12.6852 1.29303L12.7335 1.52265C11.8876 1.69184 11.0658 1.94564 10.2923 2.25986Z" fill="url(#paint3_linear_44_4702)"/>
<path d="M29.8346 22.2612C30.2213 21.3668 30.5235 20.4121 30.7289 19.4332C30.8095 19.0223 30.878 18.6073 30.9344 18.1884L31.1519 18.2246C31.0955 18.6436 31.027 19.0626 30.9465 19.4815C30.7289 20.4725 30.4268 21.4393 30.0401 22.3578C29.9595 22.527 29.8829 22.6922 29.8104 22.8533L29.605 22.7566C29.6855 22.5955 29.7621 22.4303 29.8346 22.2612Z" fill="url(#paint4_linear_44_4702)"/>
<path d="M21.5438 30.3582C22.2367 30.0843 22.9014 29.762 23.5379 29.3914L23.6466 29.5848C23.0021 29.9554 22.3293 30.2817 21.6284 30.5637C20.8307 30.89 19.9969 31.1438 19.1388 31.3251L19.1025 31.1075C19.9364 30.9263 20.7582 30.6725 21.5438 30.3582Z" fill="url(#paint5_linear_44_4702)"/>
<path d="M0.902353 14.4298C0.821784 15.0502 0.7815 15.6787 0.7815 16.3152C0.7815 17.3303 0.878185 18.3092 1.07155 19.2761C1.25283 20.1946 1.51871 21.0889 1.86918 21.9348C2.24383 22.8654 2.70307 23.7476 3.23482 24.5815L3.259 24.6057L3.07772 24.7266L3.05354 24.7024C2.5097 23.8564 2.03837 22.9621 1.66373 22.0194C1.31325 21.1614 1.0353 20.255 0.854016 19.3123C0.660651 18.3455 0.563965 17.3424 0.563965 16.3152C0.563965 15.6626 0.604249 15.0261 0.684818 14.4057L0.902353 14.4298Z" fill="url(#paint6_linear_44_4702)"/>
<path d="M8.29867 3.23874C8.08113 3.36765 7.86359 3.50059 7.64605 3.63756C6.77591 4.20557 5.95411 4.87026 5.2169 5.60747C4.51595 6.30842 3.88752 7.08188 3.33159 7.91577C2.92069 8.53212 2.54604 9.18473 2.23182 9.86151L2.02637 9.76483C2.34864 9.07194 2.71926 8.41127 3.13822 7.78283C3.70623 6.94894 4.34676 6.16339 5.05979 5.45036C5.80909 4.70107 6.63088 4.03637 7.5252 3.44419C7.74274 3.30722 7.9643 3.17429 8.18989 3.04538L8.29867 3.23874Z" fill="url(#paint7_linear_44_4702)"/>
<path d="M25.3626 4.49567C25.0242 4.22979 24.6737 3.97197 24.3112 3.72221C23.5498 3.21462 22.728 2.76746 21.8699 2.39282C20.9635 2.00609 20.0209 1.70395 19.0299 1.4985C18.0268 1.29305 16.9874 1.18428 15.9118 1.18428C14.8967 1.18428 13.9178 1.28096 12.9509 1.47433C12.8784 1.49044 12.8059 1.50656 12.7334 1.52267L12.6851 1.29305C12.7576 1.27694 12.8341 1.26485 12.9147 1.2568C13.8815 1.06343 14.8846 0.954662 15.9118 0.954662C16.9995 0.954662 18.063 1.07551 19.0782 1.28096C20.0813 1.4985 21.036 1.80063 21.9545 2.18736C22.8247 2.56201 23.6586 3.02126 24.4441 3.54092C24.8067 3.79069 25.1612 4.05254 25.5076 4.32647L25.3626 4.49567Z" fill="url(#paint8_linear_44_4702)"/>
<path d="M31.1517 18.2246L30.9342 18.1884C31.0067 17.576 31.0429 16.9516 31.0429 16.3151C31.0429 15.3 30.9462 14.309 30.7529 13.3542C30.5716 12.4357 30.3057 11.5414 29.9673 10.6834C29.5927 9.75278 29.1334 8.87055 28.5896 8.04875L28.5654 8.01249L28.7588 7.89164L28.783 7.92789C29.3268 8.76178 29.7981 9.6561 30.1728 10.5988C30.5233 11.4689 30.7891 12.3753 30.9704 13.3059C31.1638 14.2848 31.2725 15.2879 31.2725 16.3151C31.2725 16.9597 31.2323 17.5962 31.1517 18.2246Z" fill="url(#paint9_linear_44_4702)"/>
<path d="M23.5381 29.3914C23.7556 29.2625 23.9691 29.1296 24.1786 28.9926C25.0608 28.4125 25.8706 27.7478 26.6198 27.0106C27.3208 26.3096 27.9492 25.5362 28.5052 24.7144C28.9161 24.098 29.2786 23.4454 29.6049 22.7566L29.8104 22.8532C29.4801 23.5461 29.1054 24.2068 28.6864 24.8352C28.1305 25.6812 27.4779 26.4547 26.777 27.1677C26.0277 27.917 25.1938 28.5938 24.2995 29.1739C24.09 29.3108 23.8725 29.4478 23.6469 29.5848L23.5381 29.3914Z" fill="url(#paint10_linear_44_4702)"/>
<path d="M6.46155 28.1225C6.79994 28.3964 7.15042 28.6543 7.51298 28.896C8.28644 29.4156 9.09616 29.8628 9.95422 30.2254C10.8606 30.6121 11.8154 30.9142 12.7943 31.1197C13.7974 31.3372 14.8488 31.446 15.9123 31.446C16.9275 31.446 17.9185 31.3372 18.8732 31.1559C18.9457 31.1398 19.0223 31.1237 19.1028 31.1076L19.1391 31.3251C19.0666 31.3412 18.9941 31.3574 18.9215 31.3735C17.9426 31.5668 16.9395 31.6635 15.9123 31.6635C14.8246 31.6635 13.7732 31.5547 12.7459 31.3372C11.7549 31.1318 10.7881 30.8296 9.86962 30.4308C8.99947 30.0562 8.16558 29.609 7.39212 29.0772C7.02151 28.8355 6.667 28.5777 6.32861 28.3038L6.46155 28.1225Z" fill="url(#paint11_linear_44_4702)"/>
<path d="M5.21674 27.0107C5.61153 27.4055 6.02646 27.7761 6.46153 28.1226L6.3286 28.3038C5.88547 27.9493 5.46248 27.5707 5.05964 27.1678C4.31035 26.4306 3.64565 25.6088 3.07764 24.7266L3.25892 24.6057C3.82693 25.4759 4.47954 26.2856 5.21674 27.0107Z" fill="url(#paint12_linear_44_4702)"/>
<path d="M18.5469 3.37175C18.5469 3.72222 18.8369 4.00018 19.1753 4.00018C19.5258 4.00018 19.8038 3.72222 19.8038 3.37175C19.8038 3.02127 19.5258 2.74331 19.1753 2.74331C18.8369 2.74331 18.5469 3.02127 18.5469 3.37175Z" fill="#F8F7F7"/>
<path d="M12.2021 29.2586C12.2021 29.597 12.4801 29.8749 12.8306 29.8749C13.1811 29.8749 13.459 29.597 13.459 29.2586C13.459 28.9081 13.1811 28.6301 12.8306 28.6301C12.4801 28.6301 12.2021 28.9081 12.2021 29.2586Z" fill="#F8F7F7"/>
<path d="M2.19531 18.6597C2.19531 19.0102 2.47327 19.2881 2.81166 19.2881C3.16214 19.2881 3.4401 19.0102 3.4401 18.6597C3.4401 18.3092 3.16214 18.0313 2.81166 18.0313C2.47327 18.0313 2.19531 18.3092 2.19531 18.6597Z" fill="#F8F7F7"/>
<path d="M5.67578 7.08189C5.67578 7.42028 5.95375 7.71033 6.30422 7.71033C6.6547 7.71033 6.93266 7.42028 6.93266 7.08189C6.93266 6.73141 6.6547 6.45345 6.30422 6.45345C5.95375 6.45345 5.67578 6.73141 5.67578 7.08189Z" fill="#F8F7F7"/>
<path d="M28.2031 13.2455C28.2031 13.5959 28.4932 13.8739 28.8316 13.8739C29.182 13.8739 29.46 13.5959 29.46 13.2455C29.46 12.9071 29.182 12.6291 28.8316 12.6291C28.4932 12.6291 28.2031 12.9071 28.2031 13.2455Z" fill="#F8F7F7"/>
<path d="M25.1211 25.1857C25.1211 25.5362 25.3991 25.8141 25.7495 25.8141C26.1 25.8141 26.378 25.5362 26.378 25.1857C26.378 24.8352 26.1 24.5573 25.7495 24.5573C25.3991 24.5573 25.1211 24.8352 25.1211 25.1857Z" fill="#F8F7F7"/>
<path fill-rule="evenodd" clip-rule="evenodd" d="M22.9219 9.30561C22.4506 8.83428 21.9551 8.42338 21.4233 8.07291C20.9037 7.72243 20.3719 7.43238 19.816 7.20276C19.2117 6.94897 18.5954 6.74352 17.9549 6.62267C17.2902 6.47764 16.6013 6.40513 15.9124 6.40513C15.2598 6.40513 14.6193 6.46556 13.9788 6.59849C13.3826 6.71129 12.7984 6.88049 12.2264 7.10608C11.6342 7.34779 11.0541 7.64992 10.4982 8.01248C9.93018 8.37504 9.39842 8.81011 8.90292 9.30561C8.78207 9.42647 8.66122 9.55538 8.54036 9.69234C8.45174 9.78903 8.36714 9.88974 8.28657 9.99448C8.25435 10.0267 8.22211 10.063 8.18989 10.1032C8.12543 10.1838 8.06098 10.2644 7.99652 10.345C7.97235 10.3852 7.94819 10.4215 7.92401 10.4537C7.83539 10.5746 7.75079 10.6914 7.67022 10.8042C7.33183 11.3239 7.04178 11.8556 6.80007 12.4115C6.54628 13.0158 6.35291 13.6322 6.21998 14.2727C6.07495 14.9374 6.00244 15.6262 6.00244 16.3151C6.00244 16.9556 6.07495 17.6082 6.1958 18.2488C6.31666 18.845 6.48989 19.4291 6.71548 20.0011C6.95719 20.5933 7.24723 21.1734 7.60979 21.7293C7.98444 22.2853 8.40743 22.8291 8.90292 23.3246C9.37425 23.7839 9.88184 24.1948 10.4136 24.5573C10.9212 24.8957 11.465 25.1858 12.0209 25.4275C12.6131 25.6813 13.2416 25.8746 13.87 26.0076C14.5468 26.1526 15.2356 26.2251 15.9124 26.2251C16.565 26.2251 17.2176 26.1526 17.8461 26.0317C18.4503 25.9109 19.0304 25.7417 19.5985 25.5121C20.2027 25.2704 20.7828 24.9803 21.3267 24.6177C21.4556 24.5291 21.5805 24.4405 21.7013 24.3519C21.7416 24.3277 21.7819 24.2995 21.8222 24.2673C21.9108 24.2028 21.9954 24.1384 22.076 24.0739C22.1162 24.0417 22.1565 24.0094 22.1968 23.9772C22.3015 23.8886 22.4103 23.7959 22.5231 23.6993L22.5473 23.6751C22.6762 23.5623 22.8011 23.4455 22.9219 23.3246C23.0428 23.2038 23.1556 23.0829 23.2603 22.9621L23.2966 22.9379C23.2966 22.9298 23.3006 22.9218 23.3087 22.9137C23.3892 22.817 23.4698 22.7244 23.5504 22.6357C23.5826 22.5955 23.6108 22.5592 23.635 22.527C23.6994 22.4384 23.7639 22.3538 23.8283 22.2732C23.8606 22.241 23.8888 22.2047 23.9129 22.1644C23.9935 22.0516 24.0741 21.9348 24.1546 21.8139C24.5051 21.3064 24.7952 20.7625 25.0248 20.2066C25.2786 19.6144 25.4719 18.986 25.6049 18.3575C25.7499 17.6808 25.8224 16.9919 25.8224 16.3151C25.8224 15.6625 25.762 15.0099 25.629 14.3694C25.5203 13.7772 25.339 13.1971 25.1215 12.6291C24.8798 12.0248 24.5776 11.4447 24.2151 10.9009C23.8525 10.3329 23.4174 9.80111 22.9219 9.30561Z" fill="url(#paint13_linear_44_4702)"/>
<path fill-rule="evenodd" clip-rule="evenodd" d="M25.6167 16.3151C25.6167 15.6625 25.5442 15.0341 25.4233 14.4177C25.3146 13.8255 25.1333 13.2575 24.9158 12.7016C24.6741 12.1094 24.384 11.5414 24.0335 11.0217C23.671 10.4537 23.248 9.93406 22.7767 9.45064C22.3174 9.00348 21.8219 8.60467 21.3022 8.24211C20.8067 7.9158 20.2871 7.62576 19.7311 7.39613C19.151 7.14234 18.5468 6.94898 17.9183 6.81604C17.2657 6.6831 16.601 6.61059 15.9122 6.61059C15.7349 6.61059 15.5617 6.61462 15.3925 6.62267C15.3764 6.62267 15.3603 6.6267 15.3442 6.63476C15.2555 6.63476 15.1629 6.63879 15.0662 6.64684C15.0501 6.64684 15.0299 6.65087 15.0058 6.65893C14.9574 6.65893 14.9131 6.66296 14.8728 6.67101C14.7681 6.67907 14.6634 6.69116 14.5586 6.70727C14.5183 6.71533 14.478 6.72338 14.4378 6.73144C14.2927 6.74755 14.1517 6.77172 14.0148 6.80395C13.4226 6.91272 12.8546 7.094 12.3107 7.31154C11.7186 7.55324 11.1506 7.84329 10.6188 8.19377C10.0508 8.55633 9.53111 8.97931 9.05978 9.45064C8.61263 9.90989 8.20172 10.3933 7.85125 10.9251C7.52494 11.4206 7.2349 11.9402 6.99319 12.4962C6.75148 13.0762 6.55812 13.6805 6.42518 14.309C6.29224 14.9616 6.21973 15.6263 6.21973 16.3151C6.21973 16.9556 6.28015 17.5962 6.40101 18.2125C6.52186 18.8047 6.69106 19.3727 6.90859 19.9166C7.1503 20.5087 7.45243 21.0767 7.79082 21.6085C8.16547 22.1644 8.58845 22.6962 9.05978 23.1675C9.50694 23.6147 10.0024 24.0256 10.5342 24.376C11.0257 24.7064 11.5453 24.9924 12.0932 25.2341C12.6733 25.4758 13.2897 25.6692 13.9181 25.8021C14.0631 25.8343 14.2081 25.8625 14.3532 25.8867C14.4015 25.8948 14.4458 25.8988 14.4861 25.8988C14.5989 25.9149 14.7077 25.931 14.8124 25.9471C14.8608 25.9552 14.9091 25.9592 14.9574 25.9592C15.0944 25.9753 15.2314 25.9874 15.3683 25.9955H15.4046C15.5738 26.0035 15.743 26.0076 15.9122 26.0076C16.0733 26.0076 16.2345 26.0035 16.3956 25.9955H16.4318C16.4802 25.9955 16.5245 25.9915 16.5648 25.9834C16.6454 25.9834 16.7259 25.9794 16.8065 25.9713C16.7743 25.9713 16.742 25.9753 16.7098 25.9834C16.7501 25.9753 16.7863 25.9713 16.8186 25.9713C16.8669 25.9633 16.9153 25.9592 16.9636 25.9592C17.0603 25.9431 17.161 25.927 17.2657 25.9109C17.306 25.9109 17.3503 25.9069 17.3987 25.8988C17.5356 25.8746 17.6726 25.8505 17.8096 25.8263C18.4018 25.7054 18.9698 25.5362 19.5257 25.3187C20.1179 25.077 20.6859 24.7749 21.2056 24.4365C21.7736 24.0618 22.2932 23.6388 22.7767 23.1675C23.2238 22.7204 23.6226 22.2249 23.9852 21.6931C24.3155 21.2016 24.5975 20.6779 24.8312 20.122C25.085 19.554 25.2783 18.9376 25.4113 18.3092C25.5442 17.6687 25.6167 16.9919 25.6167 16.3151ZM16.7098 25.9834C16.6615 25.9834 16.6131 25.9834 16.5648 25.9834C16.5245 25.9915 16.4842 25.9955 16.4439 25.9955C16.5326 25.9874 16.6212 25.9834 16.7098 25.9834ZM15.0179 6.65893C15.042 6.65087 15.0662 6.64684 15.0904 6.64684C15.0823 6.64684 15.0743 6.64684 15.0662 6.64684C15.0501 6.64684 15.034 6.65087 15.0179 6.65893ZM15.3925 6.62267C15.3764 6.62267 15.3603 6.6267 15.3442 6.63476C15.3119 6.63476 15.2837 6.63476 15.2596 6.63476C15.2998 6.63476 15.3442 6.63073 15.3925 6.62267Z" fill="#1E4E97"/>
<defs>
<linearGradient id="paint0_linear_44_4702" x1="4.91407" y1="27.2808" x2="26.852" y2="27.2808" gradientUnits="userSpaceOnUse">
<stop stop-color="#006BB3"/>
<stop offset="1" stop-color="#093679"/>
</linearGradient>
<linearGradient id="paint1_linear_44_4702" x1="1.41187" y1="9.58383" x2="2.31646" y2="9.85186" gradientUnits="userSpaceOnUse">
<stop stop-color="#8D8E90"/>
<stop offset="1" stop-color="white"/>
</linearGradient>
<linearGradient id="paint2_linear_44_4702" x1="29.652" y1="6.99752" x2="28.3498" y2="8.29972" gradientUnits="userSpaceOnUse">
<stop stop-color="#8D8E90"/>
<stop offset="1" stop-color="white"/>
</linearGradient>
<linearGradient id="paint3_linear_44_4702" x1="12.4835" y1="0.775775" x2="12.8293" y2="1.67118" gradientUnits="userSpaceOnUse">
<stop stop-color="#8D8E90"/>
<stop offset="1" stop-color="white"/>
</linearGradient>
<linearGradient id="paint4_linear_44_4702" x1="30.8991" y1="23.1105" x2="29.2658" y2="22.7335" gradientUnits="userSpaceOnUse">
<stop stop-color="#8D8E90"/>
<stop offset="1" stop-color="white"/>
</linearGradient>
<linearGradient id="paint5_linear_44_4702" x1="19.6542" y1="32.5604" x2="19.0184" y2="31.021" gradientUnits="userSpaceOnUse">
<stop stop-color="#8D8E90"/>
<stop offset="1" stop-color="white"/>
</linearGradient>
<linearGradient id="paint6_linear_44_4702" x1="2.37338" y1="24.9726" x2="0.827904" y2="25.508" gradientUnits="userSpaceOnUse">
<stop stop-color="#0071B2"/>
<stop offset="1" stop-color="#093679"/>
</linearGradient>
<linearGradient id="paint7_linear_44_4702" x1="2.04232" y1="9.78163" x2="0.870153" y2="8.66628" gradientUnits="userSpaceOnUse">
<stop stop-color="#0064A8"/>
<stop offset="1" stop-color="#093679"/>
</linearGradient>
<linearGradient id="paint8_linear_44_4702" x1="12.5207" y1="1.94747" x2="13.2803" y2="-1.04606" gradientUnits="userSpaceOnUse">
<stop stop-color="#003D7C"/>
<stop offset="1" stop-color="#052C65"/>
</linearGradient>
<linearGradient id="paint9_linear_44_4702" x1="24.6511" y1="13.9999" x2="27.1093" y2="10.2456" gradientUnits="userSpaceOnUse">
<stop stop-color="#1D67AB"/>
<stop offset="1" stop-color="#093679"/>
</linearGradient>
<linearGradient id="paint10_linear_44_4702" x1="28.149" y1="21.9059" x2="29.9374" y2="22.9341" gradientUnits="userSpaceOnUse">
<stop stop-color="#0071B2"/>
<stop offset="1" stop-color="#093679"/>
</linearGradient>
<linearGradient id="paint11_linear_44_4702" x1="18.581" y1="33.3215" x2="18.2785" y2="34.3941" gradientUnits="userSpaceOnUse">
<stop stop-color="#0071B2"/>
<stop offset="1" stop-color="#093679"/>
</linearGradient>
<linearGradient id="paint12_linear_44_4702" x1="1.85919" y1="25.8547" x2="3.36285" y2="24.4619" gradientUnits="userSpaceOnUse">
<stop stop-color="#8D8E90"/>
<stop offset="1" stop-color="white"/>
</linearGradient>
<linearGradient id="paint13_linear_44_4702" x1="5.9686" y1="26.2195" x2="25.7841" y2="26.2195" gradientUnits="userSpaceOnUse">
<stop stop-color="#006BB3"/>
<stop offset="1" stop-color="#093679"/>
</linearGradient>
</defs>
</svg>
