<svg width="28" height="28" viewBox="0 0 28 28" fill="none" xmlns="http://www.w3.org/2000/svg">
<path d="M19.8337 4.08331H18.667V6.41665H19.8337V4.08331Z" fill="#6561C0"/>
<path d="M19.25 28C19.1238 28 19.001 27.9591 18.9 27.8833L16.9167 26.3958L14.9333 27.8833C14.8324 27.9591 14.7095 28 14.5833 28C14.4571 28 14.3343 27.9591 14.2333 27.8833L12.25 26.3958L10.2667 27.8833C10.1657 27.9591 10.0429 28 9.91667 28C9.79045 28 9.66764 27.9591 9.56667 27.8833L7.58333 26.3958L5.6 27.8833C5.49903 27.9591 5.37622 28 5.25 28C5.12378 28 5.00097 27.9591 4.9 27.8833L2.91667 26.3958L0.933333 27.8833C0.849363 27.9427 0.751178 27.9789 0.648733 27.9881C0.546289 27.9973 0.443228 27.9793 0.35 27.9358C0.248346 27.8915 0.161431 27.8191 0.0994418 27.7272C0.0374526 27.6352 0.00295759 27.5275 0 27.4167L0 4.08333C0 3.00037 0.430207 1.96175 1.19598 1.19598C1.96175 0.430207 3.00037 0 4.08333 0V1.16667C3.30979 1.16667 2.56792 1.47396 2.02094 2.02094C1.47396 2.56792 1.16667 3.30979 1.16667 4.08333V26.25L2.56667 25.2C2.66764 25.1243 2.79045 25.0833 2.91667 25.0833C3.04288 25.0833 3.16569 25.1243 3.26667 25.2L5.25 26.6875L7.23333 25.2C7.33431 25.1243 7.45712 25.0833 7.58333 25.0833C7.70955 25.0833 7.83236 25.1243 7.93333 25.2L9.91667 26.6875L11.9 25.2C12.001 25.1243 12.1238 25.0833 12.25 25.0833C12.3762 25.0833 12.499 25.1243 12.6 25.2L14.5833 26.6875L16.5667 25.2C16.6676 25.1243 16.7905 25.0833 16.9167 25.0833C17.0429 25.0833 17.1657 25.1243 17.2667 25.2L18.6667 26.25V21.5833H19.8333V27.4167C19.833 27.5244 19.8029 27.6299 19.7462 27.7216C19.6896 27.8132 19.6087 27.8874 19.5125 27.9358C19.4312 27.9775 19.3413 27.9995 19.25 28Z" fill="#6561C0"/>
<path d="M22.75 4.66667H7.58333C7.42862 4.66667 7.28025 4.60521 7.17085 4.49581C7.06146 4.38642 7 4.23804 7 4.08333C7 3.70031 6.92456 3.32104 6.77798 2.96717C6.63141 2.61331 6.41657 2.29178 6.14573 2.02094C5.87489 1.7501 5.55336 1.53526 5.19949 1.38868C4.84563 1.24211 4.46636 1.16667 4.08333 1.16667C3.92862 1.16667 3.78025 1.10521 3.67085 0.995812C3.56146 0.886416 3.5 0.738043 3.5 0.583333C3.5 0.428624 3.56146 0.280251 3.67085 0.170854C3.78025 0.0614582 3.92862 0 4.08333 0L19.25 0C20.333 0 21.3716 0.430207 22.1374 1.19598C22.9031 1.96175 23.3333 3.00037 23.3333 4.08333C23.3333 4.23804 23.2719 4.38642 23.1625 4.49581C23.0531 4.60521 22.9047 4.66667 22.75 4.66667ZM8.12583 3.5H22.1258C21.9908 2.83825 21.6302 2.24388 21.1058 1.81835C20.5813 1.39281 19.9254 1.16248 19.25 1.16667H6.93583C7.58083 1.79055 7.99955 2.61157 8.12583 3.5Z" fill="#6561C0"/>
<path d="M21.0003 18.0833C20.3815 18.0833 19.788 17.8375 19.3504 17.3999C18.9128 16.9623 18.667 16.3688 18.667 15.75H19.8337C19.8337 15.9807 19.9021 16.2063 20.0303 16.3981C20.1585 16.59 20.3407 16.7395 20.5539 16.8278C20.767 16.9161 21.0016 16.9392 21.2279 16.8942C21.4542 16.8492 21.6621 16.7381 21.8253 16.5749C21.9884 16.4118 22.0996 16.2039 22.1446 15.9776C22.1896 15.7513 22.1665 15.5167 22.0782 15.3035C21.9899 15.0903 21.8404 14.9081 21.6485 14.7799C21.4566 14.6517 21.2311 14.5833 21.0003 14.5833C20.5388 14.5833 20.0877 14.4464 19.704 14.1901C19.3203 13.9337 19.0212 13.5692 18.8446 13.1429C18.668 12.7165 18.6218 12.2474 18.7118 11.7947C18.8019 11.3421 19.0241 10.9264 19.3504 10.6C19.6767 10.2737 20.0925 10.0515 20.5451 9.96146C20.9977 9.87143 21.4669 9.91764 21.8933 10.0942C22.3196 10.2708 22.684 10.5699 22.9404 10.9536C23.1968 11.3373 23.3337 11.7885 23.3337 12.25H22.167C22.167 12.0192 22.0986 11.7937 21.9704 11.6018C21.8422 11.4099 21.66 11.2604 21.4468 11.1721C21.2336 11.0838 20.999 11.0607 20.7727 11.1057C20.5464 11.1507 20.3385 11.2618 20.1754 11.425C20.0122 11.5882 19.9011 11.796 19.8561 12.0224C19.8111 12.2487 19.8342 12.4832 19.9225 12.6964C20.0108 12.9096 20.1603 13.0918 20.3522 13.22C20.544 13.3482 20.7696 13.4166 21.0003 13.4166C21.6192 13.4166 22.2127 13.6625 22.6502 14.1C23.0878 14.5376 23.3337 15.1311 23.3337 15.75C23.3337 16.3688 23.0878 16.9623 22.6502 17.3999C22.2127 17.8375 21.6192 18.0833 21.0003 18.0833Z" fill="#6561C0"/>
<path d="M21.5837 17.5H20.417V19.25H21.5837V17.5Z" fill="#6561C0"/>
<path d="M21.5837 8.75H20.417V10.5H21.5837V8.75Z" fill="#6561C0"/>
<path d="M25.6667 13.4166H24.5V14.5833H25.6667V13.4166Z" fill="#6561C0"/>
<path d="M17.4997 13.4166H16.333V14.5833H17.4997V13.4166Z" fill="#6561C0"/>
<path d="M14.5833 23.9167C14.5113 23.9178 14.4397 23.9039 14.3733 23.8758C14.2637 23.8335 14.1694 23.7591 14.1028 23.6623C14.0362 23.5655 14.0003 23.4508 14 23.3333V14C14.0014 12.4874 14.4927 11.016 15.4004 9.80608C16.308 8.59611 17.5832 7.71269 19.0349 7.28808C20.4867 6.86346 22.0369 6.9205 23.4535 7.45065C24.8701 7.9808 26.0769 8.95554 26.8931 10.2289C27.7094 11.5023 28.0913 13.0059 27.9816 14.5144C27.8718 16.023 27.2764 17.4555 26.2844 18.5973C25.2925 19.7392 23.9573 20.529 22.4789 20.8486C21.0005 21.1681 19.4583 21.0002 18.0833 20.37L15.0033 23.73C14.9496 23.7879 14.8847 23.8344 14.8125 23.8664C14.7403 23.8985 14.6623 23.9156 14.5833 23.9167ZM21 8.16668C19.4529 8.16668 17.9692 8.78126 16.8752 9.87522C15.7812 10.9692 15.1667 12.4529 15.1667 14V21.8342L17.5292 19.25C17.6172 19.155 17.7343 19.0919 17.8621 19.0708C17.9899 19.0496 18.1211 19.0717 18.235 19.1333C19.0164 19.5551 19.8837 19.7929 20.771 19.8286C21.6582 19.8643 22.5419 19.6971 23.3546 19.3395C24.1674 18.9819 24.8878 18.4436 25.461 17.7654C26.0341 17.0872 26.4449 16.2871 26.662 15.4261C26.8791 14.5651 26.8967 13.6659 26.7136 12.7971C26.5305 11.9282 26.1515 11.1126 25.6054 10.4125C25.0593 9.71231 24.3606 9.14605 23.5625 8.75686C22.7644 8.36767 21.8879 8.16581 21 8.16668Z" fill="#6561C0"/>
<path d="M5.25033 9.91663H2.91699V11.0833H5.25033V9.91663Z" fill="#6561C0"/>
<path d="M9.33366 7H2.91699V8.16667H9.33366V7Z" fill="#6561C0"/>
<path d="M13.4167 9.91663H7V11.0833H13.4167V9.91663Z" fill="#6561C0"/>
<path d="M5.25033 12.8334H2.91699V14H5.25033V12.8334Z" fill="#6561C0"/>
<path d="M11.6667 12.8334H7V14H11.6667V12.8334Z" fill="#6561C0"/>
<path d="M5.25033 15.75H2.91699V16.9167H5.25033V15.75Z" fill="#6561C0"/>
<path d="M12.8333 15.75H7V16.9167H12.8333V15.75Z" fill="#6561C0"/>
<path d="M5.25033 18.6666H2.91699V19.8333H5.25033V18.6666Z" fill="#6561C0"/>
<path d="M10.5 18.6666H7V19.8333H10.5V18.6666Z" fill="#6561C0"/>
<path d="M5.25033 21.5834H2.91699V22.75H5.25033V21.5834Z" fill="#6561C0"/>
<path d="M12.8333 21.5834H7V22.75H12.8333V21.5834Z" fill="#6561C0"/>
</svg>
