<svg width="20" height="20" viewBox="0 0 20 20" fill="none" xmlns="http://www.w3.org/2000/svg">
<path d="M5.79749 9.45973C7.04737 11.6478 8.51641 13.1994 10.809 14.3689C11.0078 14.1937 11.114 14.0494 11.2784 13.8406C11.9287 13.0019 12.7387 11.995 14.0652 12.6019C14.9307 13.0308 16.6316 13.9325 17.351 14.4549C17.6248 14.6433 17.8228 14.8811 17.9562 15.1513C18.2392 15.7264 18.2025 16.3861 18.0228 16.9832C17.9302 17.2905 17.7953 17.5951 17.6352 17.8711C17.0344 18.905 16.0368 19.4442 14.886 19.737C13.4868 20.0917 12.2225 20.1015 10.8317 19.6815C9.78226 19.3636 8.80702 18.8498 7.8757 18.2868L7.75554 18.2141C7.30366 17.9384 6.81824 17.642 6.32124 17.2799L6.31764 17.2768C5.35998 16.5706 4.39592 15.7018 3.52169 14.7298C2.71212 13.8297 1.97441 12.8349 1.38559 11.7921C0.845882 10.8361 0.432317 9.83197 0.201981 8.81535C-0.125757 7.36744 -0.101407 5.70056 0.625926 4.36487C1.47741 2.80162 3.02269 2.16271 4.7528 2.31207L4.79552 2.31716C5.09451 2.35391 5.36636 2.5326 5.51367 2.79067L7.4821 6.04974C7.67451 6.30467 7.78628 6.56704 7.82381 6.83645C7.96712 7.87145 7.10086 8.50802 6.35956 9.04018C6.10687 9.22004 5.82464 9.42063 5.79749 9.45973ZM9.50482 7.41866C9.20941 7.34398 9.03177 7.04798 9.10802 6.75864C9.18426 6.4689 9.48645 6.2949 9.78186 6.36997C11.5423 6.81963 13.1423 8.23939 13.6892 9.94967C13.7798 10.2355 13.6173 10.5401 13.3251 10.6289C13.0333 10.718 12.7223 10.5585 12.6317 10.2723C12.1998 8.9217 10.8932 7.77253 9.50482 7.41866ZM9.57827 4.09703C9.27688 4.04698 9.07408 3.76624 9.12518 3.47103C9.17628 3.17581 9.4629 2.97679 9.76429 3.02723C13.1714 3.60514 16.1829 6.41259 17.032 9.68261C17.1075 9.97313 16.9278 10.2691 16.6312 10.343C16.3342 10.4169 16.032 10.241 15.957 9.95006C15.2133 7.08552 12.5646 4.60417 9.57827 4.09703ZM9.93435 1.08196C9.63056 1.04794 9.4122 0.778532 9.44693 0.480974C9.48166 0.183806 9.75631 -0.0304672 10.0601 0.00355061C14.7981 0.546663 18.9514 4.26165 19.9869 8.81418C20.0527 9.10626 19.8643 9.39522 19.5665 9.45973C19.2687 9.52425 18.9733 9.33969 18.9078 9.048C17.9737 4.94318 14.2069 1.5715 9.93435 1.08196ZM4.77276 9.97078C4.754 9.94068 4.73763 9.909 4.72406 9.87538C4.39073 9.04722 5.07455 8.5608 5.68492 8.12756C5.97833 7.92033 6.4893 7.58171 6.64099 7.23802C6.73001 7.03821 6.6869 6.88923 6.55796 6.71914L6.50606 6.64681L4.56318 3.42958C3.32448 3.34473 2.25344 3.76702 1.63908 4.89391C1.04668 5.98131 1.05706 7.3995 1.32252 8.57253C1.52611 9.47225 1.90135 10.3763 2.39436 11.2498C3.49334 13.197 5.1995 15.0406 7.01025 16.3783C7.45096 16.7001 7.92321 16.989 8.36312 17.2573L8.48567 17.3323C10.0725 18.2981 11.7854 19.0954 13.7243 18.815C14.0205 18.7724 14.3175 18.7185 14.5973 18.6477C15.7039 18.3658 16.5666 17.841 16.9199 16.6657C17.0456 16.2473 17.1059 15.6701 16.6967 15.3804C15.8017 14.808 14.5231 14.1112 13.569 13.6166C13.0768 13.4019 12.5906 14.0056 12.1938 14.5174C11.908 14.8834 11.6006 15.3014 11.1447 15.4688C10.9212 15.5509 10.6896 15.5485 10.4693 15.4598L10.395 15.4289C7.825 14.1452 6.16236 12.4154 4.77276 9.97078Z" fill="#6561C0"/>
</svg>
