<svg width="24" height="28" viewBox="0 0 24 28" fill="none" xmlns="http://www.w3.org/2000/svg">
<path d="M20.52 0.000229911H5.52C5.05965 -0.00506188 4.60282 0.0810441 4.17597 0.25356C3.74913 0.426075 3.36077 0.681571 3.03337 1.00525C2.70597 1.32892 2.44606 1.71435 2.26867 2.13919C2.09129 2.56403 1.99997 3.01984 2 3.48023V5.00023H1C0.734784 5.00023 0.48043 5.10559 0.292893 5.29312C0.105357 5.48066 0 5.73501 0 6.00023C0 6.26545 0.105357 6.5198 0.292893 6.70734C0.48043 6.89487 0.734784 7.00023 1 7.00023H2V13.0002H1C0.734784 13.0002 0.48043 13.1056 0.292893 13.2931C0.105357 13.4807 0 13.735 0 14.0002C0 14.2654 0.105357 14.5198 0.292893 14.7073C0.48043 14.8949 0.734784 15.0002 1 15.0002H2V21.0002H1C0.734784 21.0002 0.48043 21.1056 0.292893 21.2931C0.105357 21.4807 0 21.735 0 22.0002C0 22.2654 0.105357 22.5198 0.292893 22.7073C0.48043 22.8949 0.734784 23.0002 1 23.0002H2V24.5202C2 25.4432 2.36664 26.3283 3.01927 26.981C3.6719 27.6336 4.55705 28.0002 5.48 28.0002H20.48C20.9404 28.0055 21.3972 27.9194 21.824 27.7469C22.2509 27.5744 22.6392 27.3189 22.9666 26.9952C23.294 26.6715 23.5539 26.2861 23.7313 25.8613C23.9087 25.4364 24 24.9806 24 24.5202V3.52023C24.0053 3.05987 23.9192 2.60304 23.7467 2.1762C23.5742 1.74936 23.3187 1.361 22.995 1.0336C22.6713 0.706203 22.2859 0.446285 21.861 0.268903C21.4362 0.0915205 20.9804 0.000199497 20.52 0.000229911ZM22 24.5202C21.9974 24.9119 21.8406 25.2869 21.5636 25.5639C21.2866 25.8408 20.9117 25.9976 20.52 26.0002H5.52C5.32266 26.0042 5.12649 25.9689 4.9429 25.8965C4.7593 25.824 4.59194 25.7158 4.45052 25.5781C4.3091 25.4404 4.19645 25.276 4.11911 25.0944C4.04177 24.9128 4.00128 24.7176 4 24.5202V23.0002C4.26522 23.0002 4.51957 22.8949 4.70711 22.7073C4.89464 22.5198 5 22.2654 5 22.0002C5 21.735 4.89464 21.4807 4.70711 21.2931C4.51957 21.1056 4.26522 21.0002 4 21.0002V15.0002C4.26522 15.0002 4.51957 14.8949 4.70711 14.7073C4.89464 14.5198 5 14.2654 5 14.0002C5 13.735 4.89464 13.4807 4.70711 13.2931C4.51957 13.1056 4.26522 13.0002 4 13.0002V7.00023C4.26522 7.00023 4.51957 6.89487 4.70711 6.70734C4.89464 6.5198 5 6.26545 5 6.00023C5 5.73501 4.89464 5.48066 4.70711 5.29312C4.51957 5.10559 4.26522 5.00023 4 5.00023V3.48023C4.00262 3.08852 4.15939 2.7136 4.43638 2.43661C4.71337 2.15962 5.08829 2.00285 5.48 2.00023H20.48C20.6773 1.99625 20.8735 2.03152 21.0571 2.10399C21.2407 2.17646 21.4081 2.28469 21.5495 2.42239C21.6909 2.56008 21.8035 2.7245 21.8809 2.9061C21.9582 3.0877 21.9987 3.28285 22 3.48023V24.5202Z" fill="#6561C0"/>
<path d="M16 13.6002C16.6388 12.8843 16.9944 11.9598 17 11.0002C17 9.93938 16.5786 8.92196 15.8284 8.17182C15.0783 7.42167 14.0609 7.00024 13 7.00024C11.9391 7.00024 10.9217 7.42167 10.1716 8.17182C9.42143 8.92196 9 9.93938 9 11.0002C9.00561 11.9598 9.36119 12.8843 10 13.6002C9.09997 14.057 8.34357 14.7534 7.8142 15.6128C7.28484 16.4721 7.00308 17.461 7 18.4702V21.0002C7 21.2655 7.10536 21.5198 7.29289 21.7074C7.48043 21.8949 7.73478 22.0002 8 22.0002H18C18.2652 22.0002 18.5196 21.8949 18.7071 21.7074C18.8946 21.5198 19 21.2655 19 21.0002V18.4702C18.9969 17.461 18.7152 16.4721 18.1858 15.6128C17.6564 14.7534 16.9 14.057 16 13.6002ZM13 9.00024C13.3956 9.00024 13.7822 9.11754 14.1111 9.33731C14.44 9.55707 14.6964 9.86943 14.8478 10.2349C14.9991 10.6003 15.0387 11.0025 14.9616 11.3904C14.8844 11.7784 14.6939 12.1348 14.4142 12.4145C14.1345 12.6942 13.7781 12.8846 13.3902 12.9618C13.0022 13.039 12.6001 12.9994 12.2346 12.848C11.8692 12.6966 11.5568 12.4403 11.3371 12.1114C11.1173 11.7825 11 11.3958 11 11.0002C11 10.4698 11.2107 9.9611 11.5858 9.58603C11.9609 9.21096 12.4696 9.00024 13 9.00024ZM17 20.0002H9V18.4702C9.00264 17.5508 9.36907 16.6697 10.0193 16.0195C10.6694 15.3693 11.5505 15.0029 12.47 15.0002H13.53C14.4495 15.0029 15.3306 15.3693 15.9807 16.0195C16.6309 16.6697 16.9974 17.5508 17 18.4702V20.0002Z" fill="#6561C0"/>
</svg>
