<svg width="14" height="14" viewBox="0 0 14 14" fill="none" xmlns="http://www.w3.org/2000/svg">
<path fill-rule="evenodd" clip-rule="evenodd" d="M8.75033 0.583328H2.33366C1.69199 0.583328 1.16699 1.10833 1.16699 1.74999V9.33333C1.16699 9.65416 1.42949 9.91666 1.75033 9.91666C2.07116 9.91666 2.33366 9.65416 2.33366 9.33333V2.33333C2.33366 2.01249 2.59616 1.74999 2.91699 1.74999H8.75033C9.07116 1.74999 9.33366 1.48749 9.33366 1.16666C9.33366 0.845828 9.07116 0.583328 8.75033 0.583328ZM9.09449 3.26083L11.912 6.07833C12.1278 6.29416 12.2503 6.59166 12.2503 6.90083V12.25C12.2503 12.8917 11.7253 13.4167 11.0837 13.4167H4.66116C4.01949 13.4167 3.50033 12.8917 3.50033 12.25L3.50616 4.08333C3.50616 3.44166 4.02533 2.91666 4.66699 2.91666H8.26616C8.57533 2.91666 8.87283 3.03916 9.09449 3.26083ZM8.75033 6.99999H11.3753L8.16699 3.79166V6.41666C8.16699 6.73749 8.42949 6.99999 8.75033 6.99999Z" fill="#6965C2"/>
</svg>
