<svg width="35" height="30" viewBox="0 0 35 30" fill="none" xmlns="http://www.w3.org/2000/svg">
<path d="M31.5613 10.1447L30.9727 10.1452C29.3484 4.21499 23.8211 0 17.494 0C11.2045 0 5.68284 4.21602 4.03159 10.1464L3.43811 10.1459C1.54229 10.1459 0 11.6643 0 13.5307V17.3323C0 19.1984 1.54229 20.7167 3.43811 20.7167H3.86592C4.41623 24.9793 8.12362 28.2855 12.6009 28.2855H13.4218C13.8574 29.2923 14.8723 30 16.0519 30H18.9479C20.5235 30 21.8055 28.7381 21.8055 27.187C21.8055 25.6357 20.5235 24.3735 18.9479 24.3735H16.0519C14.8726 24.3735 13.858 25.081 13.4223 26.0873H12.6007C8.97656 26.0873 6.02818 23.185 6.02818 19.6176V11.3687C7.183 6.04918 11.9876 2.19836 17.494 2.19836C23.037 2.19836 27.8471 6.04772 28.972 11.3646V19.6167C28.972 20.2237 29.4718 20.7158 30.0884 20.7158H31.562C33.4577 20.7158 35 19.1976 35 17.3313V13.5295C35.0001 11.6633 33.4579 10.1447 31.5613 10.1447ZM16.0519 26.5717H18.9479C19.2924 26.5717 19.5727 26.8478 19.5727 27.187C19.5727 27.5261 19.2924 27.8018 18.9479 27.8018H16.0519C15.7076 27.8018 15.4275 27.526 15.4275 27.187C15.4275 26.8478 15.7075 26.5717 16.0519 26.5717ZM2.23283 17.3323V13.5307C2.23283 12.8765 2.77347 12.3441 3.43706 12.3441L3.79536 12.3444V18.5183H3.43811C2.77347 18.5185 2.23283 17.9863 2.23283 17.3323ZM32.7673 17.3311C32.7673 17.9852 32.2267 18.5174 31.5622 18.5174H31.2049V12.3432L31.5622 12.3429C32.2267 12.3429 32.7673 12.8752 32.7673 13.5295V17.3311Z" fill="#6561C0"/>
</svg>
