<svg width="17" height="19" viewBox="0 0 17 19" fill="none" xmlns="http://www.w3.org/2000/svg">
<path d="M6.03662 9.06705C6.0321 8.96807 6.04757 8.8692 6.08211 8.77641C6.11665 8.68362 6.16954 8.59884 6.23757 8.52719C6.3056 8.45554 6.38738 8.39851 6.47794 8.35954C6.56851 8.32058 6.66599 8.30049 6.76449 8.30049C6.86299 8.30049 6.96047 8.32058 7.05104 8.35954C7.14161 8.39851 7.22338 8.45554 7.29141 8.52719C7.35945 8.59884 7.41233 8.68362 7.44687 8.77641C7.48141 8.8692 7.49688 8.96807 7.49236 9.06705V14.4912C7.49688 14.5902 7.48141 14.689 7.44687 14.7818C7.41233 14.8746 7.35945 14.9594 7.29141 15.0311C7.22338 15.1027 7.14161 15.1597 7.05104 15.1987C6.96047 15.2377 6.86299 15.2578 6.76449 15.2578C6.66599 15.2578 6.56851 15.2377 6.47794 15.1987C6.38738 15.1597 6.3056 15.1027 6.23757 15.0311C6.16954 14.9594 6.11665 14.8746 6.08211 14.7818C6.04757 14.689 6.0321 14.5902 6.03662 14.4912V9.06705ZM15.8133 5.99625L15.0647 15.9261C15.0092 16.7463 14.6641 17.5195 14.0916 18.1063C13.8129 18.3905 13.4807 18.6159 13.1143 18.7694C12.7479 18.9228 12.3548 19.0012 11.958 19H5.04051C4.64415 19.0009 4.25159 18.9223 3.88577 18.7689C3.51995 18.6154 3.1882 18.3902 2.90994 18.1063C2.33713 17.5196 1.9915 16.7464 1.93535 15.9261L1.1898 5.99625H0V3.86556C0 3.35221 0.250565 3.15739 0.744009 3.15739H4.23962V1.66837C4.24084 1.22627 4.41598 0.802624 4.72678 0.490008C5.03757 0.177392 5.45875 0.00122411 5.89827 0L11.1048 0C11.5435 0.00244549 11.9635 0.179152 12.2733 0.491637C12.5831 0.804121 12.7576 1.22707 12.7588 1.66837V3.15584H16.3482C16.3996 3.15475 16.451 3.15785 16.5019 3.16512C16.634 3.18636 16.755 3.25182 16.8454 3.35088C16.9358 3.44995 16.9902 3.57682 17 3.71093C17 3.74186 17 3.76969 17 3.79907V5.99625H15.8133ZM14.3529 6.02254H2.65015L3.38186 15.8179C3.41115 16.2876 3.60569 16.7316 3.93064 17.0703C4.07464 17.2181 4.24666 17.3353 4.43651 17.415C4.62637 17.4946 4.83019 17.5352 5.0359 17.5342H11.9533C12.159 17.5346 12.3626 17.4939 12.5524 17.4142C12.7422 17.3346 12.9143 17.2177 13.0586 17.0703C13.3849 16.7322 13.5806 16.2881 13.6105 15.8179L14.3529 6.03027V6.02254ZM10.9142 3.15584V1.8632H6.0935V3.15584H10.9142ZM9.51072 9.06705C9.50619 8.96807 9.52167 8.8692 9.55621 8.77641C9.59074 8.68362 9.64363 8.59884 9.71166 8.52719C9.7797 8.45554 9.86147 8.39851 9.95203 8.35954C10.0426 8.32058 10.1401 8.30049 10.2386 8.30049C10.3371 8.30049 10.4346 8.32058 10.5251 8.35954C10.6157 8.39851 10.6975 8.45554 10.7655 8.52719C10.8335 8.59884 10.8864 8.68362 10.921 8.77641C10.9555 8.8692 10.971 8.96807 10.9665 9.06705V14.4912C10.971 14.5902 10.9555 14.689 10.921 14.7818C10.8864 14.8746 10.8335 14.9594 10.7655 15.0311C10.6975 15.1027 10.6157 15.1597 10.5251 15.1987C10.4346 15.2377 10.3371 15.2578 10.2386 15.2578C10.1401 15.2578 10.0426 15.2377 9.95203 15.1987C9.86147 15.1597 9.7797 15.1027 9.71166 15.0311C9.64363 14.9594 9.59074 14.8746 9.55621 14.7818C9.52167 14.689 9.50619 14.5902 9.51072 14.4912V9.06705Z" fill="#FF4255"/>
</svg>
