<svg width="35" height="35" viewBox="0 0 40 40" fill="none" xmlns="http://www.w3.org/2000/svg">
<path d="M6.08653 21.7391H2.60827C1.64778 21.7391 0.869141 22.5178 0.869141 23.4783V37.3913C0.869141 38.3518 1.64778 39.1304 2.60827 39.1304H6.08653C7.04703 39.1304 7.82566 38.3518 7.82566 37.3913V23.4783C7.82566 22.5178 7.04703 21.7391 6.08653 21.7391Z" fill="#505572"/>
<path d="M7.82617 24.3478H20.0001C20.692 24.3478 21.3555 24.6227 21.8447 25.1119C22.3339 25.6011 22.6088 26.2647 22.6088 26.9565C22.6088 27.6484 22.3339 28.3119 21.8447 28.8012C21.3555 29.2904 20.692 29.5652 20.0001 29.5652H7.82617V24.3478Z" fill="#CC8679"/>
<path d="M7.82617 35.6522L14.0483 38.7632C14.5312 39.0047 15.0638 39.1304 15.6038 39.1304H22.4252C23.1119 39.1304 23.7832 38.9272 24.3546 38.5463L37.9646 29.473C38.3233 29.2338 38.6173 28.9099 38.8207 28.5298C39.0241 28.1498 39.1305 27.7254 39.1305 27.2943C39.1305 26.8285 39.0062 26.3711 38.7705 25.9693C38.5347 25.5675 38.1961 25.2359 37.7894 25.0087C37.3827 24.7814 36.9228 24.6668 36.4571 24.6766C35.9913 24.6864 35.5367 24.8203 35.1399 25.0644L27.8262 29.5652H7.82617V35.6522Z" fill="#CC8679"/>
<path d="M19.9998 20C25.2825 20 29.565 15.7175 29.565 10.4348C29.565 5.15206 25.2825 0.869568 19.9998 0.869568C14.7171 0.869568 10.4346 5.15206 10.4346 10.4348C10.4346 15.7175 14.7171 20 19.9998 20Z" fill="#FFBC5A"/>
<path d="M19.9998 20C25.2825 20 29.565 15.7175 29.565 10.4348C29.565 5.15206 25.2825 0.869568 19.9998 0.869568C14.7171 0.869568 10.4346 5.15206 10.4346 10.4348C10.4346 15.7175 14.7171 20 19.9998 20Z" fill="#EF9D3A"/>
<path d="M19.9999 18.2609C18.4521 18.2609 16.939 17.8019 15.652 16.9419C14.365 16.082 13.3619 14.8597 12.7696 13.4297C12.1772 11.9997 12.0222 10.4261 12.3242 8.908C12.6262 7.38989 13.3715 5.99541 14.466 4.90091C15.5605 3.80642 16.955 3.06105 18.4731 2.75908C19.9912 2.45711 21.5648 2.61209 22.9948 3.20443C24.4249 3.79677 25.6471 4.79986 26.5071 6.08685C27.367 7.37385 27.826 8.88694 27.826 10.4348C27.8237 12.5097 26.9984 14.499 25.5313 15.9661C24.0641 17.4333 22.0748 18.2586 19.9999 18.2609Z" fill="#FFBC5A"/>
<path d="M21.7389 14.7826H17.391C17.1604 14.7826 16.9392 14.691 16.7762 14.5279C16.6131 14.3649 16.5215 14.1437 16.5215 13.9131C16.5215 13.6824 16.6131 13.4613 16.7762 13.2982C16.9392 13.1351 17.1604 13.0435 17.391 13.0435H21.7389V11.3044H18.2606C17.7995 11.3038 17.3575 11.1204 17.0314 10.7944C16.7054 10.4684 16.522 10.0263 16.5215 9.56524V7.82611C16.522 7.36502 16.7054 6.92298 17.0314 6.59694C17.3575 6.2709 17.7995 6.0875 18.2606 6.08698H22.6084C22.8391 6.08698 23.0602 6.17859 23.2233 6.34166C23.3864 6.50474 23.478 6.72592 23.478 6.95654C23.478 7.18716 23.3864 7.40834 23.2233 7.57142C23.0602 7.73449 22.8391 7.82611 22.6084 7.82611H18.2606V9.56524H21.7389C22.2 9.56577 22.642 9.74916 22.968 10.0752C23.2941 10.4012 23.4775 10.8433 23.478 11.3044V13.0435C23.4775 13.5046 23.2941 13.9466 22.968 14.2727C22.642 14.5987 22.2 14.7821 21.7389 14.7826Z" fill="#505572"/>
<path d="M20.0004 7.8261C19.7698 7.8261 19.5486 7.73449 19.3855 7.57141C19.2225 7.40834 19.1309 7.18716 19.1309 6.95654V5.2174C19.1309 4.98678 19.2225 4.7656 19.3855 4.60253C19.5486 4.43945 19.7698 4.34784 20.0004 4.34784C20.231 4.34784 20.4522 4.43945 20.6153 4.60253C20.7784 4.7656 20.87 4.98678 20.87 5.2174V6.95654C20.87 7.18716 20.7784 7.40834 20.6153 7.57141C20.4522 7.73449 20.231 7.8261 20.0004 7.8261Z" fill="#505572"/>
<path d="M20.0004 16.5217C19.7698 16.5217 19.5486 16.4301 19.3855 16.267C19.2225 16.104 19.1309 15.8828 19.1309 15.6522V13.913C19.1309 13.6824 19.2225 13.4612 19.3855 13.2981C19.5486 13.1351 19.7698 13.0435 20.0004 13.0435C20.231 13.0435 20.4522 13.1351 20.6153 13.2981C20.7784 13.4612 20.87 13.6824 20.87 13.913V15.6522C20.87 15.8828 20.7784 16.104 20.6153 16.267C20.4522 16.4301 20.231 16.5217 20.0004 16.5217Z" fill="#505572"/>
<path d="M4.34808 26.9565C4.82833 26.9565 5.21765 26.5672 5.21765 26.087C5.21765 25.6067 4.82833 25.2174 4.34808 25.2174C3.86783 25.2174 3.47852 25.6067 3.47852 26.087C3.47852 26.5672 3.86783 26.9565 4.34808 26.9565Z" fill="#8491C1"/>
<path d="M4.34808 26.9565C4.82833 26.9565 5.21765 26.5672 5.21765 26.087C5.21765 25.6067 4.82833 25.2174 4.34808 25.2174C3.86783 25.2174 3.47852 25.6067 3.47852 26.087C3.47852 26.5672 3.86783 26.9565 4.34808 26.9565Z" fill="#231F20"/>
<path d="M38.2137 24.2502C37.6734 23.9431 37.0601 23.7878 36.4387 23.8009C35.8174 23.8139 35.2111 23.9947 34.6841 24.3241L27.5798 28.6957H23.0117C23.3172 28.167 23.4781 27.5672 23.4783 26.9566C23.4784 26.3459 23.3178 25.7461 23.0126 25.2172C22.7073 24.6884 22.2682 24.2493 21.7393 23.944C21.2105 23.6387 20.6106 23.4781 20 23.4783H8.69565C8.69489 22.7866 8.41981 22.1235 7.93074 21.6345C7.44168 21.1454 6.77859 20.8703 6.08696 20.8696H2.6087C1.91706 20.8703 1.25397 21.1454 0.764908 21.6345C0.275847 22.1235 0.000759547 22.7866 0 23.4783V37.3913C0.000759547 38.0829 0.275847 38.746 0.764908 39.2351C1.25397 39.7242 1.91706 39.9992 2.6087 40H6.08696C6.77859 39.9992 7.44168 39.7242 7.93074 39.2351C8.41981 38.746 8.69489 38.0829 8.69565 37.3913V37.0593L13.6596 39.5414C14.2636 39.842 14.929 39.999 15.6037 40H22.4252C23.2838 40.0011 24.1232 39.7468 24.8369 39.2696L38.4464 30.1962C38.9435 29.865 39.3472 29.4117 39.6188 28.8797C39.8904 28.3476 40.0207 27.7548 39.9974 27.1579C39.974 26.5611 39.7977 25.9802 39.4854 25.4711C39.1731 24.9619 38.7352 24.5415 38.2137 24.2502ZM6.95652 24.3478V37.3913C6.95629 37.6219 6.8646 37.8429 6.70158 38.0059C6.53855 38.169 6.31751 38.2606 6.08696 38.2609H2.6087C2.37814 38.2606 2.1571 38.169 1.99407 38.0059C1.83105 37.8429 1.73936 37.6219 1.73913 37.3913V23.4783C1.73936 23.2477 1.83105 23.0267 1.99407 22.8636C2.1571 22.7006 2.37814 22.6089 2.6087 22.6087H6.08696C6.31751 22.6089 6.53855 22.7006 6.70158 22.8636C6.8646 23.0267 6.95629 23.2477 6.95652 23.4783V24.3478ZM37.4822 28.7491L23.8718 37.8227C23.4439 38.1091 22.9403 38.2617 22.4253 38.2609H15.6037C15.1988 38.2604 14.7995 38.1662 14.437 37.9857L8.69565 35.1146V25.2174H20C20.4612 25.2174 20.9036 25.4006 21.2298 25.7268C21.5559 26.0529 21.7391 26.4953 21.7391 26.9565C21.7391 27.4178 21.5559 27.8601 21.2298 28.1863C20.9036 28.5124 20.4612 28.6957 20 28.6957H15.2535C15.0229 28.6957 14.8017 28.7873 14.6386 28.9503C14.4755 29.1134 14.3839 29.3346 14.3839 29.5652C14.3839 29.7958 14.4755 30.017 14.6386 30.1801C14.8017 30.3432 15.0229 30.4348 15.2535 30.4348H27.8261C27.9869 30.4347 28.1446 30.39 28.2817 30.3057L35.5952 25.805C35.9855 25.5641 36.4548 25.4862 36.902 25.588C37.3493 25.6898 37.7386 25.9633 37.9861 26.3494C38.2336 26.7356 38.3194 27.2035 38.2252 27.6524C38.1309 28.1013 37.8641 28.4951 37.4822 28.7491Z" fill="#231F20"/>
<path d="M20.0002 20.8696C22.064 20.8696 24.0815 20.2576 25.7975 19.111C27.5135 17.9644 28.8509 16.3347 29.6407 14.428C30.4305 12.5213 30.6371 10.4232 30.2345 8.39906C29.8319 6.37491 28.838 4.51561 27.3787 3.05628C25.9194 1.59695 24.0601 0.603134 22.0359 0.200506C20.0118 -0.202122 17.9137 0.00452125 16.007 0.794305C14.1003 1.58409 12.4706 2.92154 11.324 4.63753C10.1774 6.35352 9.56543 8.37098 9.56543 10.4348C9.56851 13.2013 10.6689 15.8537 12.6251 17.8099C14.5813 19.7661 17.2337 20.8665 20.0002 20.8696ZM20.0002 1.73914C21.72 1.73914 23.4013 2.24913 24.8313 3.20462C26.2612 4.16011 27.3758 5.51818 28.0339 7.10711C28.6921 8.69603 28.8643 10.4444 28.5288 12.1312C28.1933 13.818 27.3651 15.3674 26.149 16.5835C24.9329 17.7997 23.3834 18.6278 21.6966 18.9634C20.0099 19.2989 18.2615 19.1267 16.6725 18.4685C15.0836 17.8104 13.7255 16.6958 12.77 15.2658C11.8146 13.8358 11.3046 12.1546 11.3046 10.4348C11.3072 8.12937 12.2242 5.91913 13.8544 4.28896C15.4846 2.65878 17.6948 1.74178 20.0002 1.73914Z" fill="#231F20"/>
<path d="M17.391 13.0435C17.1604 13.0435 16.9392 13.1351 16.7762 13.2982C16.6131 13.4613 16.5215 13.6824 16.5215 13.9131C16.5215 14.1437 16.6131 14.3649 16.7762 14.5279C16.9392 14.691 17.1604 14.7826 17.391 14.7826H19.1302V15.6522C19.1302 15.8828 19.2218 16.104 19.3849 16.2671C19.5479 16.4301 19.7691 16.5218 19.9997 16.5218C20.2304 16.5218 20.4515 16.4301 20.6146 16.2671C20.7777 16.104 20.8693 15.8828 20.8693 15.6522V14.7826H21.7389C22.2 14.7821 22.642 14.5987 22.968 14.2727C23.2941 13.9466 23.4775 13.5046 23.478 13.0435V11.3044C23.4775 10.8433 23.2941 10.4012 22.968 10.0752C22.642 9.74916 22.2 9.56576 21.7389 9.56523H18.2606V7.8261H22.6084C22.8391 7.8261 23.0602 7.73449 23.2233 7.57141C23.3864 7.40834 23.478 7.18716 23.478 6.95653C23.478 6.72591 23.3864 6.50473 23.2233 6.34166C23.0602 6.17858 22.8391 6.08697 22.6084 6.08697H20.8693V5.2174C20.8693 4.98678 20.7777 4.7656 20.6146 4.60253C20.4515 4.43945 20.2304 4.34784 19.9997 4.34784C19.7691 4.34784 19.5479 4.43945 19.3849 4.60253C19.2218 4.7656 19.1302 4.98678 19.1302 5.2174V6.08697H18.2606C17.7995 6.0875 17.3575 6.2709 17.0314 6.59693C16.7054 6.92297 16.522 7.36502 16.5215 7.8261V9.56523C16.522 10.0263 16.7054 10.4684 17.0314 10.7944C17.3575 11.1204 17.7995 11.3038 18.2606 11.3044H21.7389V13.0435H17.391Z" fill="#231F20"/>
</svg>
