<svg width="45" height="23" viewBox="0 0 73 50" fill="none" xmlns="http://www.w3.org/2000/svg">
<path d="M18.3708 0.857778L22.8702 10.1526C23.1916 10.8167 22.7079 11.5883 21.9701 11.5883H14.5414C13.9891 11.5883 13.5414 12.036 13.5414 12.5883V37.8288C13.5414 38.3811 13.9891 38.8288 14.5414 38.8288H20.3757C26.3899 38.8288 28.501 33.6612 28.8047 31.0774C28.8047 28.7742 29.2603 23.1784 29.4881 20.6685C32.2219 6.14023 45.5108 1.03171 51.8136 0.293481C54.608 -0.159291 60.2457 -0.00138853 63.8264 0.192234C64.5788 0.23292 65.0034 1.06391 64.6057 1.70389L59.1692 10.4518C58.9867 10.7454 58.6655 10.9239 58.3198 10.9239H52.8365C52.7623 10.9239 52.6867 10.9324 52.6145 10.9494C44.8712 12.7748 43.0812 21.1302 43.1568 25.0978C43.1568 35.3739 48.928 38.5335 51.8136 38.8288H59.6982C60.2505 38.8288 60.6982 38.3811 60.6982 37.8288V32.0774C60.6982 31.5252 60.2505 31.0774 59.6982 31.0774H53.3193C52.6042 31.0774 52.1211 30.3485 52.4206 29.6991C55.4877 23.0485 58.4192 21.3329 59.5592 21.3329C61.8373 21.2591 67.0314 21.1557 69.5828 21.3329C72.1343 21.5101 72.9241 23.9167 73 25.0978V41.9293C73 48.3076 66.0138 49.9022 62.5207 49.9022H49.7633C43.9308 49.9022 38.5427 46.6927 36.0373 44.6757C35.6647 44.3757 35.1352 44.3528 34.7464 44.6314C28.6499 48.9995 23.4202 49.9734 21.5148 49.9022C17.9457 49.976 9.75975 50.0793 5.56809 49.9022C1.37643 49.725 0.17659 47.466 0.100629 46.3587C0.024692 34.4733 -0.0816197 9.72799 0.100629 5.83017C0.282877 1.93234 3.82154 0.514948 5.56809 0.293481H17.4707C17.8541 0.293481 18.2038 0.512686 18.3708 0.857778Z" fill="white"/>
<path d="M25.9328 10.8067L21.2334 1.749C20.888 1.08333 21.3711 0.28846 22.121 0.28846H28.4769C29.0292 0.28846 29.4769 0.736176 29.4769 1.28846V10.3462C29.4769 10.8984 29.0292 11.3462 28.4769 11.3462H26.8205C26.4471 11.3462 26.1048 11.1381 25.9328 10.8067Z" fill="#FF3E3E"/>
</svg>
