<svg width="305" height="120" viewBox="0 0 305 120" fill="none" xmlns="http://www.w3.org/2000/svg">
<path d="M18.3708 33.8578L22.8702 43.1526C23.1916 43.8167 22.7079 44.5883 21.9701 44.5883H14.5414C13.9891 44.5883 13.5414 45.036 13.5414 45.5883V70.8288C13.5414 71.3811 13.9891 71.8288 14.5414 71.8288H20.3757C26.3899 71.8288 28.501 66.6612 28.8047 64.0774C28.8047 61.7742 29.2603 56.1784 29.4881 53.6685C32.2219 39.1402 45.5108 34.0317 51.8136 33.2935C54.608 32.8407 60.2457 32.9986 63.8264 33.1922C64.5788 33.2329 65.0034 34.0639 64.6057 34.7039L59.1692 43.4518C58.9867 43.7454 58.6655 43.9239 58.3198 43.9239H52.8365C52.7623 43.9239 52.6867 43.9324 52.6145 43.9494C44.8712 45.7748 43.0812 54.1302 43.1568 58.0978C43.1568 68.3739 48.928 71.5335 51.8136 71.8288H59.6982C60.2505 71.8288 60.6982 71.3811 60.6982 70.8288V65.0774C60.6982 64.5252 60.2505 64.0774 59.6982 64.0774H53.3193C52.6042 64.0774 52.1211 63.3485 52.4206 62.6991C55.4877 56.0485 58.4192 54.3329 59.5592 54.3329C61.8373 54.2591 67.0314 54.1557 69.5828 54.3329C72.1343 54.5101 72.9241 56.9167 73 58.0978V74.9293C73 81.3076 66.0138 82.9022 62.5207 82.9022H49.7633C43.9308 82.9022 38.5427 79.6927 36.0373 77.6757C35.6647 77.3757 35.1352 77.3528 34.7464 77.6314C28.6499 81.9995 23.4202 82.9734 21.5148 82.9022C17.9457 82.976 9.75975 83.0793 5.56809 82.9022C1.37643 82.725 0.17659 80.466 0.100629 79.3587C0.024692 67.4733 -0.0816197 42.728 0.100629 38.8302C0.282877 34.9323 3.82154 33.5149 5.56809 33.2935H17.4707C17.8541 33.2935 18.2038 33.5127 18.3708 33.8578Z" fill="white"/>
<path d="M25.9328 43.8067L21.2334 34.749C20.888 34.0833 21.3711 33.2885 22.121 33.2885H28.4769C29.0292 33.2885 29.4769 33.7362 29.4769 34.2885V43.3461C29.4769 43.8984 29.0292 44.3461 28.4769 44.3461H26.8205C26.4471 44.3461 26.1048 44.1381 25.9328 43.8067Z" fill="#FF3E3E"/>
<path d="M81.1 50H91.03C93.33 50 95.37 50.43 97.15 51.29C98.93 52.15 100.31 53.37 101.29 54.95C102.27 56.53 102.76 58.38 102.76 60.5C102.76 62.62 102.27 64.47 101.29 66.05C100.31 67.63 98.93 68.85 97.15 69.71C95.37 70.57 93.33 71 91.03 71H81.1V50ZM90.79 66.26C92.59 66.26 94.03 65.75 95.11 64.73C96.21 63.71 96.76 62.3 96.76 60.5C96.76 58.7 96.21 57.29 95.11 56.27C94.03 55.25 92.59 54.74 90.79 54.74H87.04V66.26H90.79ZM119.662 66.92H110.782L109.132 71H103.072L112.342 50H118.192L127.492 71H121.312L119.662 66.92ZM117.922 62.54L115.222 55.82L112.522 62.54H117.922ZM138.776 50C140.676 50 142.326 50.32 143.726 50.96C145.126 51.58 146.206 52.48 146.966 53.66C147.726 54.82 148.106 56.19 148.106 57.77C148.106 59.35 147.726 60.72 146.966 61.88C146.206 63.04 145.126 63.94 143.726 64.58C142.326 65.2 140.676 65.51 138.776 65.51H135.116V71H129.176V50H138.776ZM138.416 60.83C139.636 60.83 140.556 60.57 141.176 60.05C141.796 59.51 142.106 58.75 142.106 57.77C142.106 56.79 141.796 56.03 141.176 55.49C140.556 54.95 139.636 54.68 138.416 54.68H135.116V60.83H138.416ZM151.002 50H156.942V71H151.002V50ZM171.638 71.42C169.438 71.42 167.458 70.96 165.698 70.04C163.958 69.1 162.588 67.8 161.588 66.14C160.588 64.48 160.088 62.6 160.088 60.5C160.088 58.4 160.588 56.52 161.588 54.86C162.588 53.2 163.958 51.91 165.698 50.99C167.458 50.05 169.438 49.58 171.638 49.58C173.558 49.58 175.288 49.92 176.828 50.6C178.368 51.28 179.648 52.26 180.668 53.54L176.888 56.96C175.528 55.32 173.878 54.5 171.938 54.5C170.798 54.5 169.778 54.75 168.878 55.25C167.998 55.75 167.308 56.46 166.808 57.38C166.328 58.28 166.088 59.32 166.088 60.5C166.088 61.68 166.328 62.73 166.808 63.65C167.308 64.55 167.998 65.25 168.878 65.75C169.778 66.25 170.798 66.5 171.938 66.5C173.878 66.5 175.528 65.68 176.888 64.04L180.668 67.46C179.648 68.74 178.368 69.72 176.828 70.4C175.288 71.08 173.558 71.42 171.638 71.42ZM206.117 60.05H211.367V68.75C210.167 69.61 208.787 70.27 207.227 70.73C205.667 71.19 204.107 71.42 202.547 71.42C200.347 71.42 198.367 70.96 196.607 70.04C194.847 69.1 193.467 67.8 192.467 66.14C191.467 64.48 190.967 62.6 190.967 60.5C190.967 58.4 191.467 56.52 192.467 54.86C193.467 53.2 194.857 51.91 196.637 50.99C198.417 50.05 200.427 49.58 202.667 49.58C204.627 49.58 206.387 49.91 207.947 50.57C209.507 51.23 210.807 52.18 211.847 53.42L208.067 56.84C206.647 55.28 204.947 54.5 202.967 54.5C201.167 54.5 199.717 55.05 198.617 56.15C197.517 57.23 196.967 58.68 196.967 60.5C196.967 61.66 197.217 62.7 197.717 63.62C198.217 64.52 198.917 65.23 199.817 65.75C200.717 66.25 201.747 66.5 202.907 66.5C204.047 66.5 205.117 66.27 206.117 65.81V60.05ZM229.203 66.92H220.323L218.673 71H212.613L221.883 50H227.733L237.033 71H230.853L229.203 66.92ZM227.463 62.54L224.763 55.82L222.063 62.54H227.463ZM257.677 71L257.617 59.87L252.217 68.93H249.577L244.207 60.17V71H238.717V50H243.607L250.987 62.12L258.187 50H263.077L263.137 71H257.677ZM284.2 66.41V71H267.34V50H283.81V54.59H273.22V58.13H282.55V62.57H273.22V66.41H284.2ZM294.876 71.42C293.176 71.42 291.526 71.21 289.926 70.79C288.326 70.37 287.026 69.81 286.026 69.11L287.976 64.73C288.916 65.35 290.006 65.85 291.246 66.23C292.486 66.61 293.706 66.8 294.906 66.8C297.186 66.8 298.326 66.23 298.326 65.09C298.326 64.49 297.996 64.05 297.336 63.77C296.696 63.47 295.656 63.16 294.216 62.84C292.636 62.5 291.316 62.14 290.256 61.76C289.196 61.36 288.286 60.73 287.526 59.87C286.766 59.01 286.386 57.85 286.386 56.39C286.386 55.11 286.736 53.96 287.436 52.94C288.136 51.9 289.176 51.08 290.556 50.48C291.956 49.88 293.666 49.58 295.686 49.58C297.066 49.58 298.426 49.74 299.766 50.06C301.106 50.36 302.286 50.81 303.306 51.41L301.476 55.82C299.476 54.74 297.536 54.2 295.656 54.2C294.476 54.2 293.616 54.38 293.076 54.74C292.536 55.08 292.266 55.53 292.266 56.09C292.266 56.65 292.586 57.07 293.226 57.35C293.866 57.63 294.896 57.92 296.316 58.22C297.916 58.56 299.236 58.93 300.276 59.33C301.336 59.71 302.246 60.33 303.006 61.19C303.786 62.03 304.176 63.18 304.176 64.64C304.176 65.9 303.826 67.04 303.126 68.06C302.426 69.08 301.376 69.9 299.976 70.52C298.576 71.12 296.876 71.42 294.876 71.42Z" fill="white"/>
</svg>
