<svg width="41" height="41" viewBox="0 0 41 41" fill="none" xmlns="http://www.w3.org/2000/svg">
<rect x="6.47363" y="6.47351" width="25.8947" height="25.8947" fill="#33363F"/>
<path fill-rule="evenodd" clip-rule="evenodd" d="M8.4082 0H32.5918C34.8199 0.00616352 36.955 0.894004 38.5305 2.46951C40.106 4.04502 40.9938 6.1801 41 8.4082V32.5918C40.9938 34.8199 40.106 36.955 38.5305 38.5305C36.955 40.106 34.8199 40.9938 32.5918 41H8.4082C6.1801 40.9938 4.04502 40.106 2.46951 38.5305C0.894004 36.955 0.00616352 34.8199 0 32.5918L0 8.4082C0.00616352 6.1801 0.894004 4.04502 2.46951 2.46951C4.04502 0.894004 6.1801 0.00616352 8.4082 0ZM24.3304 16.4561C24.5736 16.2269 24.8969 16.1022 25.2311 16.1085C25.5652 16.1149 25.8835 16.2519 26.1178 16.4901C26.3521 16.7284 26.4838 17.0489 26.4846 17.3831C26.4854 17.7173 26.3553 18.0384 26.1222 18.2778L21.2708 23.0692C21.0313 23.3033 20.7098 23.4345 20.3749 23.4345C20.04 23.4345 19.7184 23.3033 19.479 23.0692L14.6977 18.3512C14.5686 18.2361 14.4642 18.096 14.3909 17.9393C14.3175 17.7827 14.2768 17.6128 14.271 17.4399C14.2653 17.267 14.2947 17.0948 14.3575 16.9336C14.4203 16.7724 14.5151 16.6257 14.6363 16.5023C14.7575 16.3788 14.9024 16.2813 15.0624 16.2155C15.2224 16.1498 15.3941 16.1172 15.567 16.1197C15.74 16.1223 15.9106 16.1599 16.0686 16.2303C16.2266 16.3008 16.3686 16.4025 16.4861 16.5295L19.1187 19.1387L19.1453 9.95304C19.148 9.61412 19.2852 9.29013 19.5267 9.05235C19.7682 8.81458 20.0943 8.68249 20.4333 8.68514C20.7722 8.6878 21.0962 8.82498 21.334 9.06651C21.5717 9.30804 21.7038 9.63414 21.7012 9.97306L21.6878 19.082L24.3571 16.4561H24.3304ZM10.3434 28.1875L10.3601 23.1826C10.3632 22.8437 10.5008 22.5199 10.7427 22.2824C10.9845 22.045 11.3108 21.9133 11.6497 21.9164C11.9886 21.9195 12.3124 22.0571 12.5499 22.2989C12.7874 22.5408 12.919 22.8671 12.9159 23.206V26.8462C17.992 26.8462 23.0647 26.8462 28.1341 26.8462V23.1759C28.1372 22.837 28.2748 22.5132 28.5167 22.2757C28.7585 22.0383 29.0848 21.9066 29.4237 21.9097C29.7626 21.9128 30.0864 22.0504 30.3239 22.2923C30.5614 22.5341 30.693 22.8604 30.6899 23.1993L30.6733 28.1742C30.6611 28.5108 30.5165 28.829 30.2709 29.0595C30.0254 29.2901 29.6987 29.4144 29.362 29.4054C23.4318 29.4054 17.506 29.4054 11.5846 29.4054C11.2622 29.3964 10.9552 29.266 10.725 29.0401C10.4947 28.8142 10.3585 28.5097 10.3434 28.1875Z" fill="white"/>
</svg>
