<svg width="20" height="14" viewBox="0 0 20 14" fill="none" xmlns="http://www.w3.org/2000/svg">
<path d="M18.125 0H1.875C1.37772 0 0.900805 0.184375 0.549175 0.512563C0.197544 0.840752 0 1.28587 0 1.75L0 12.25C0 12.7141 0.197544 13.1592 0.549175 13.4874C0.900805 13.8156 1.37772 14 1.875 14H18.125C18.6223 14 19.0992 13.8156 19.4508 13.4874C19.8025 13.1592 20 12.7141 20 12.25V1.75C20 1.28587 19.8025 0.840752 19.4508 0.512563C19.0992 0.184375 18.6223 0 18.125 0ZM17.675 1.16667L10 6.2825L2.325 1.16667H17.675ZM18.75 12.25C18.75 12.4047 18.6842 12.5531 18.5669 12.6625C18.4497 12.7719 18.2908 12.8333 18.125 12.8333H1.875C1.70924 12.8333 1.55027 12.7719 1.43306 12.6625C1.31585 12.5531 1.25 12.4047 1.25 12.25V1.88417L9.6375 7.4725C9.74335 7.54284 9.87006 7.58064 10 7.58064C10.1299 7.58064 10.2566 7.54284 10.3625 7.4725L18.75 1.88417V12.25Z" fill="#6561C0"/>
</svg>
