<svg width="20" height="16" viewBox="0 0 20 16" fill="none" xmlns="http://www.w3.org/2000/svg">
<path fill-rule="evenodd" clip-rule="evenodd" d="M0.928763 4.92104C0.926544 5.25595 0.926544 5.61486 0.926544 6V10C0.926544 12.8284 0.926544 14.2426 1.80522 15.1213C2.6839 16 4.09812 16 6.92655 16H13.9489C16.7773 16 18.1915 16 19.0702 15.1213C19.9489 14.2426 19.9489 12.8284 19.9489 10V6C19.9489 5.4422 19.9489 4.9394 19.9421 4.48486L11.0804 9.70535C10.4539 10.0744 9.67656 10.0744 9.0501 9.70535L0.928763 4.92104ZM1.0421 2.66656L10.0653 7.98213L19.2576 2.56686C19.4266 2.46732 19.6129 2.42312 19.7954 2.42879C19.6743 1.75773 19.4577 1.26614 19.0702 0.87868C18.1915 0 16.7773 0 13.9489 0H6.92654C4.09812 0 2.6839 0 1.80522 0.87868C1.37338 1.31052 1.15378 1.87171 1.0421 2.66656Z" fill="#515151"/>
</svg>
