<svg width="17" height="12" viewBox="0 0 17 12" fill="none" xmlns="http://www.w3.org/2000/svg">
<path d="M4.69597 0.610725L5.92127 3.07448H3.67487V9.01649H5.20649C6.55432 9.01649 7.02742 7.88928 7.0955 7.32568C7.0955 6.82326 7.1976 5.60266 7.24866 5.05515C7.86131 1.88609 10.8395 0.771756 12.252 0.610725C12.9871 0.494783 14.6005 0.562416 15.3152 0.610725L13.8346 2.92956H12.4562C10.6999 3.31603 10.2949 5.15177 10.3119 6.02133C10.3119 8.26287 11.6053 8.95208 12.252 9.01649H14.2431V7.32568H12.252C12.9871 5.6252 13.7155 5.20008 13.9878 5.20008C14.4983 5.18398 15.6624 5.16143 16.2342 5.20008C16.806 5.23873 16.983 5.76369 17 6.02133V9.69282C17 11.0841 15.4343 11.4319 14.6515 11.4319H11.7925C10.363 11.4319 9.05257 10.5946 8.57607 10.1759C7.14655 11.2194 5.90423 11.448 5.46176 11.4319C4.66191 11.448 2.82737 11.4706 1.88799 11.4319C0.948605 11.3933 0.679712 10.9005 0.662688 10.659C0.64567 8.06641 0.621845 2.66869 0.662688 1.81845C0.703532 0.968211 1.49657 0.659034 1.88799 0.610725H4.69597Z" fill="#6561C0"/>
<path d="M6.51449 3.02165L5.22876 0.609619H7.24603V3.02165H6.51449Z" fill="#FF3E3E"/>
</svg>
