<svg width="31" height="34" viewBox="0 0 31 41" fill="none" xmlns="http://www.w3.org/2000/svg">
<path fill-rule="evenodd" clip-rule="evenodd" d="M15.1526 22.6864L16.3343 25.5751L19.4463 25.8049L17.0631 27.8237L17.8049 30.8568L15.1493 29.2155L12.4937 30.8568L13.2355 27.8237L10.8524 25.8049L13.9643 25.5751L15.1526 22.6864ZM15.3758 1.18193C15.4808 0.643577 15.7599 0.298902 16.1407 0.12164C16.4492 -0.0195124 16.807 -0.0359255 17.1812 0.0625531C17.5062 0.147901 17.8476 0.32188 18.1759 0.57136C19.0622 1.2443 19.8927 2.51795 19.9977 4.10674C20.0306 4.59585 20.0207 5.11779 19.9748 5.67255C19.9452 6.04021 19.896 6.42428 19.8336 6.82476H23.6021L23.6185 6.82804C24.2323 6.85102 24.8232 7.00202 25.3254 7.26463C25.7587 7.49113 26.1231 7.79969 26.3759 8.18704C26.6352 8.58424 26.7796 9.05694 26.7567 9.59529C26.7402 9.99577 26.6352 10.4291 26.4153 10.8952C26.54 11.4171 26.5991 11.9752 26.517 12.4676C26.4481 12.8845 26.2872 13.2554 25.9951 13.5312C26.0115 14.2205 25.9196 14.7982 25.7325 15.3005C25.5421 15.8159 25.2565 16.2426 24.8888 16.6201C24.856 16.9516 24.8035 17.2668 24.7214 17.5622C24.6164 17.9331 24.4654 18.2745 24.252 18.5733C23.6086 19.4793 23.0965 19.4596 22.2824 19.4267C22.1708 19.4235 22.0461 19.4169 21.859 19.4169H14.4829C13.8198 19.4169 13.2979 19.3217 12.8219 19.0821C12.3492 18.8457 11.9487 18.4846 11.5187 17.9463L11.4071 17.6344V9.0274L11.7813 8.92563C12.7333 8.66959 13.4817 7.8555 14.0628 6.88384C14.6602 5.88264 15.0804 4.71075 15.366 3.76535V1.27712L15.3758 1.18193ZM4.29695 8.13124H9.79206C10.209 8.13124 10.5471 8.47263 10.5471 8.88624V18.9343C10.5471 19.3512 10.2057 19.6894 9.79206 19.6894H4.29695C3.88006 19.6894 3.54195 19.348 3.54195 18.9343V8.88624C3.54195 8.46935 3.88006 8.13124 4.29695 8.13124ZM16.5608 1.03421C16.4788 1.07032 16.4131 1.16551 16.3737 1.32965V3.83757L16.3507 3.982C16.0455 4.99633 15.5925 6.28312 14.9228 7.4025C14.2925 8.45622 13.4752 9.35894 12.4149 9.77912V17.4539C12.707 17.7986 12.9762 18.0349 13.2684 18.1793C13.5933 18.3402 13.9741 18.4058 14.4796 18.4058H21.8557C21.987 18.4058 22.1577 18.4124 22.3185 18.419C22.8011 18.4387 23.1064 18.4518 23.4314 17.989C23.5725 17.7887 23.6776 17.5524 23.7531 17.2865C23.8318 17.0042 23.8778 16.6923 23.9008 16.3575L24.0551 16.0259C24.38 15.7174 24.6295 15.3727 24.7871 14.946C24.9479 14.5094 25.0201 13.9809 24.9808 13.3211L24.9643 13.0223L25.2171 12.8648C25.3911 12.7565 25.4863 12.5529 25.5257 12.3035C25.5913 11.9063 25.5224 11.4204 25.3976 10.9674L25.437 10.6031C25.6406 10.2124 25.739 9.86118 25.7522 9.5559C25.7653 9.23748 25.6832 8.96174 25.5322 8.73196C25.3747 8.49233 25.1416 8.29537 24.8593 8.14765C24.4949 7.95726 24.0583 7.84893 23.5988 7.82924H18.6256L18.7372 7.2318C18.8455 6.65406 18.9243 6.10586 18.967 5.58392C19.0097 5.07184 19.0195 4.59914 18.99 4.16911C18.9046 2.89874 18.2547 1.89426 17.562 1.36575C17.3421 1.19834 17.1222 1.08345 16.9219 1.03093C16.7775 0.994818 16.6495 0.994818 16.5608 1.03421ZM9.72313 32.1666L10.9049 35.0553L14.0168 35.2851L11.6336 37.3039L12.3755 40.337L9.71984 38.6957L7.0642 40.337L7.80608 37.3039L5.42289 35.2851L8.53482 35.0553L9.72313 32.1666ZM20.5788 32.1666L21.7605 35.0553L24.8724 35.2851L22.4892 37.3039L23.2311 40.337L20.5755 38.6957L17.9198 40.337L18.6617 37.3039L16.2785 35.2851L19.3904 35.0553L20.5788 32.1666ZM26.0049 22.6864L27.1867 25.5751L30.2986 25.8049L27.9154 27.8237L28.6606 30.8568L26.0049 29.2155L23.3493 30.8568L24.0912 27.8237L21.708 25.8049L24.8199 25.5751L26.0049 22.6864ZM4.29695 22.6864L5.4787 25.5751L8.59062 25.8049L6.20744 27.8237L6.94931 30.8568L4.29367 29.2155L1.64131 30.8568L2.38318 27.8237L0 25.8049L3.11193 25.5751L4.29695 22.6864Z" fill="#6561C0"/>
</svg>
