<svg width="73" height="73" viewBox="0 0 73 73" fill="none" xmlns="http://www.w3.org/2000/svg">
<rect width="73" height="73" rx="18" fill="url(#paint0_linear_341_4001)"/>
<mask id="mask0_341_4001" style="mask-type:alpha" maskUnits="userSpaceOnUse" x="0" y="0" width="73" height="73">
<rect width="73" height="73" rx="18" fill="url(#paint1_linear_341_4001)"/>
</mask>
<g mask="url(#mask0_341_4001)">
<ellipse cx="36.5" cy="0.5" rx="12.5" ry="9.5" fill="white"/>
</g>
<mask id="mask1_341_4001" style="mask-type:alpha" maskUnits="userSpaceOnUse" x="0" y="0" width="73" height="73">
<rect x="73" width="73" height="73" rx="18" transform="rotate(90 73 0)" fill="url(#paint2_linear_341_4001)"/>
</mask>
<g mask="url(#mask1_341_4001)">
<ellipse cx="72.5" cy="36.5" rx="12.5" ry="9.5" transform="rotate(90 72.5 36.5)" fill="white"/>
</g>
<mask id="mask2_341_4001" style="mask-type:alpha" maskUnits="userSpaceOnUse" x="0" y="0" width="73" height="73">
<rect x="73" y="73" width="73" height="73" rx="18" transform="rotate(180 73 73)" fill="url(#paint3_linear_341_4001)"/>
</mask>
<g mask="url(#mask2_341_4001)">
<ellipse cx="36.5" cy="72.5" rx="12.5" ry="9.5" transform="rotate(180 36.5 72.5)" fill="white"/>
</g>
<mask id="mask3_341_4001" style="mask-type:alpha" maskUnits="userSpaceOnUse" x="0" y="0" width="73" height="73">
<rect y="73" width="73" height="73" rx="18" transform="rotate(-90 0 73)" fill="url(#paint4_linear_341_4001)"/>
</mask>
<g mask="url(#mask3_341_4001)">
<ellipse cx="0.5" cy="36.5" rx="12.5" ry="9.5" transform="rotate(-90 0.5 36.5)" fill="white"/>
</g>
<defs>
<linearGradient id="paint0_linear_341_4001" x1="8" y1="-9.80211e-07" x2="79.5" y2="86.5" gradientUnits="userSpaceOnUse">
<stop offset="0.285" stop-color="#00C738"/>
<stop offset="0.53" stop-color="#6561C0"/>
</linearGradient>
<linearGradient id="paint1_linear_341_4001" x1="8" y1="-9.80211e-07" x2="79.5" y2="86.5" gradientUnits="userSpaceOnUse">
<stop stop-color="#8F8BF4"/>
<stop offset="1" stop-color="#FF4141"/>
</linearGradient>
<linearGradient id="paint2_linear_341_4001" x1="81" y1="-9.80211e-07" x2="152.5" y2="86.5" gradientUnits="userSpaceOnUse">
<stop stop-color="#8F8BF4"/>
<stop offset="1" stop-color="#FF4141"/>
</linearGradient>
<linearGradient id="paint3_linear_341_4001" x1="81" y1="73" x2="152.5" y2="159.5" gradientUnits="userSpaceOnUse">
<stop stop-color="#8F8BF4"/>
<stop offset="1" stop-color="#FF4141"/>
</linearGradient>
<linearGradient id="paint4_linear_341_4001" x1="8" y1="73" x2="79.5" y2="159.5" gradientUnits="userSpaceOnUse">
<stop stop-color="#8F8BF4"/>
<stop offset="1" stop-color="#FF4141"/>
</linearGradient>
</defs>
</svg>
