<svg width="75" height="75" viewBox="0 0 75 75" fill="none" xmlns="http://www.w3.org/2000/svg">
<path fill-rule="evenodd" clip-rule="evenodd" d="M65.3804 37.0354C65.3804 38.9309 65.2054 40.7973 64.8263 42.5761C64.5055 44.3258 63.9806 45.9881 63.3391 47.592C62.6392 49.3125 61.7935 50.9747 60.7728 52.5203C59.6939 54.1534 58.4691 55.6989 57.0693 57.0695C55.757 58.3818 54.3281 59.5774 52.7825 60.5981C51.3244 61.5604 49.808 62.4061 48.2041 63.106C46.5127 63.8351 44.7339 64.3891 42.8675 64.7682C41.0012 65.1765 39.0473 65.3806 37.0352 65.3806C36.5297 65.3806 36.0242 65.3709 35.5188 65.3515C35.1299 65.332 34.7508 65.3029 34.3815 65.264C34.2454 65.2445 34.1093 65.2251 33.9732 65.2057C33.6816 65.1862 33.3899 65.1473 33.0983 65.089C32.9622 65.089 32.8359 65.0793 32.7192 65.0599C32.311 64.9821 31.9027 64.9043 31.4944 64.8266C29.7739 64.5058 28.1117 63.9809 26.5078 63.3393C24.7581 62.6394 23.125 61.7937 21.5794 60.7731C19.9172 59.6941 18.4008 58.4693 17.001 57.0695C15.6888 55.7573 14.5223 54.3283 13.4725 52.7828C12.5101 51.3247 11.6936 49.8083 10.9937 48.2044C10.2647 46.513 9.71061 44.7341 9.30235 42.8969C8.92325 41.0014 8.68994 39.0476 8.68994 37.0354C8.68994 35.1399 8.89408 33.3027 9.24402 31.4947C9.59396 29.7741 10.0897 28.1119 10.7313 26.508C11.4311 24.7583 12.306 23.1253 13.3267 21.5797C14.3765 19.9175 15.6304 18.401 17.001 17.0013C18.3133 15.689 19.7714 14.5225 21.317 13.4727C22.7459 12.5104 24.2915 11.6938 25.8954 10.994C27.5868 10.2649 29.3656 9.71085 31.2028 9.30258C31.6305 9.22482 32.0582 9.14705 32.4859 9.06929C32.622 9.04985 32.7581 9.03041 32.8942 9.01096C33.2053 8.97208 33.5163 8.9332 33.8274 8.89432C33.9635 8.87488 34.0996 8.85544 34.2356 8.83599C34.6439 8.79711 35.0522 8.76795 35.4604 8.74851H35.5771C36.0631 8.70963 36.5491 8.69019 37.0352 8.69019C37.5018 8.69019 37.9683 8.70963 38.4349 8.74851H38.5807C38.6779 8.74851 38.7849 8.75823 38.9015 8.77767C39.1543 8.79711 39.407 8.81655 39.6597 8.83599C39.5625 8.81655 39.4653 8.80683 39.3681 8.80683C39.4848 8.80683 39.5917 8.81655 39.6889 8.83599C39.825 8.85544 39.9611 8.86516 40.0972 8.86516C40.3888 8.90404 40.6901 8.94292 41.0012 8.9818C41.1178 9.00124 41.2442 9.02069 41.3803 9.04013C41.7885 9.09845 42.1871 9.16649 42.5759 9.24426C44.2964 9.5942 45.9878 10.0899 47.5917 10.7315C49.3123 11.4314 50.9745 12.3062 52.5201 13.3269C54.1531 14.4059 55.6987 15.6307 57.0693 17.0013C58.3816 18.3136 59.5772 19.7717 60.5979 21.3172C61.5602 22.7462 62.4059 24.2917 63.1058 25.8956C63.8348 27.587 64.3889 29.3659 64.768 31.2031C65.1763 33.0986 65.3804 35.0524 65.3804 37.0354ZM39.3681 8.80683C39.2126 8.78739 39.0571 8.77767 38.9015 8.77767C38.8043 8.75823 38.7071 8.74851 38.6099 8.74851C38.8626 8.76795 39.1154 8.78739 39.3681 8.80683Z" fill="#093679"/>
<path d="M9.50661 48.8168C8.7484 47.038 8.16517 45.1716 7.75691 43.2178C7.58193 42.4012 7.44586 41.5847 7.34865 40.7682L0.291504 41.643C0.408151 42.6734 0.573404 43.6844 0.787257 44.6759C1.28301 47.0963 2.01205 49.4001 2.97439 51.6164C3.14936 52.0246 3.33404 52.4329 3.52845 52.8412L9.97321 49.8083C9.81768 49.4778 9.66214 49.1473 9.50661 48.8168Z" fill="#F8F5F6"/>
<path d="M68.0343 57.3612L62.0853 53.4535C60.948 55.174 59.6649 56.7779 58.2068 58.2069C57.4291 58.9845 56.6029 59.7233 55.728 60.4231L60.1898 65.9639C61.2591 65.1085 62.2797 64.2045 63.2518 63.2518C65.0306 61.4438 66.6345 59.49 68.0343 57.3612Z" fill="#F8F5F6"/>
<path d="M25.8959 64.8265C24.5351 64.2822 23.2228 63.6406 21.9591 62.9019L18.4014 69.055C19.9567 69.9687 21.58 70.7658 23.2714 71.4463C25.1961 72.2045 27.1791 72.8169 29.2495 73.2834L30.7368 66.3138C29.0649 65.9444 27.4512 65.4486 25.8959 64.8265Z" fill="#F8F5F6"/>
<path d="M64.5644 25.2539C65.3226 27.062 65.935 28.9283 66.3432 30.8822C66.4988 31.6793 66.6349 32.4958 66.7515 33.3318L73.8086 32.4277C73.6726 31.4168 73.5073 30.4059 73.3129 29.3949C72.788 27.0037 72.0589 24.6707 71.1258 22.4544C70.9314 22.0462 70.7467 21.6476 70.5717 21.2588L64.127 24.2916C64.2825 24.6027 64.4283 24.9234 64.5644 25.2539Z" fill="#F8F5F6"/>
<path d="M48.1758 9.24428C49.5367 9.80807 50.849 10.4496 52.1127 11.169L55.6996 5.01582C54.1443 4.12153 52.5209 3.33416 50.8295 2.65372C48.9049 1.86635 46.8927 1.25395 44.8222 0.816528L43.335 7.78619C44.9972 8.13613 46.6302 8.63188 48.1758 9.24428Z" fill="#F8F5F6"/>
<path fill-rule="evenodd" clip-rule="evenodd" d="M74.1 37.0354C74.1 39.5142 73.8375 41.9346 73.3709 44.2967C72.9335 46.5422 72.292 48.7293 71.4463 50.8289C70.5423 53.1035 69.405 55.2615 68.0927 57.2737L68.0344 57.3612L62.0854 53.4535C60.9481 55.174 59.6649 56.7779 58.2068 58.2069C57.4292 58.9845 56.6029 59.7233 55.7281 60.4231L60.1899 65.9639C59.3539 66.6249 58.4985 67.2567 57.6236 67.8594C55.7281 69.1133 53.7159 70.2215 51.6163 71.1255C49.4 72.0587 47.0962 72.7877 44.6758 73.3126C42.2262 73.8084 39.66 74.1 37.0354 74.1C34.5567 74.1 32.1362 73.8376 29.8033 73.371C29.6089 73.3515 29.4242 73.3224 29.2492 73.2835L30.7365 66.3138C29.0743 65.9639 27.4704 65.4681 25.8956 64.8266C24.5347 64.2822 23.2225 63.6407 21.9588 62.9019L18.4011 69.055C17.8567 68.744 17.3221 68.4232 16.7972 68.0927C14.6392 66.6638 12.6562 65.0599 10.8482 63.2518C9.12763 61.5313 7.58205 59.6358 6.21145 57.6236C5.20051 56.1072 4.30621 54.513 3.52856 52.8411L9.97332 49.8083C9.81779 49.4778 9.66225 49.1473 9.50672 48.8168C8.74852 47.0379 8.16528 45.1716 7.75702 43.2177C7.58205 42.4012 7.44597 41.5847 7.34876 40.7681L0.291617 41.643C0.0972058 40.146 0 38.6102 0 37.0354C0 34.5567 0.233301 32.1362 0.699889 29.8033C1.13732 27.5287 1.80802 25.3416 2.65371 23.2711C3.55773 20.9965 4.69503 18.8385 6.00731 16.7972L6.06564 16.7388L12.0146 20.6465C13.1228 18.926 14.4351 17.3221 15.864 15.8932C16.6611 15.0961 17.4873 14.3573 18.3427 13.6769L13.9102 8.10697C14.7267 7.44597 15.5821 6.82385 16.4764 6.24061C18.3427 4.9575 20.3549 3.87851 22.4545 2.9745C24.6708 2.01216 27.0038 1.28312 29.395 0.787367C31.8738 0.262455 34.4109 0 37.0354 0C39.5142 0 41.9346 0.233294 44.2967 0.699882C44.4717 0.738764 44.6466 0.777646 44.8216 0.816529L43.3344 7.78619C44.9966 8.13613 46.6296 8.63188 48.1752 9.24428C49.5361 9.80807 50.8484 10.4496 52.112 11.169L55.6989 5.01582C56.2433 5.34632 56.7682 5.67682 57.2737 6.00732C59.4317 7.40708 61.4438 9.04014 63.2518 10.8482C64.9432 12.5687 66.518 14.4351 67.8594 16.4764C68.8703 17.9928 69.7743 19.587 70.5714 21.2589L64.1267 24.2917C64.2822 24.6028 64.428 24.9236 64.5641 25.2541C65.3223 27.0621 65.9347 28.9285 66.343 30.8823C66.4985 31.6794 66.6346 32.4959 66.7513 33.3319L73.8084 32.4279C74.0028 33.9443 74.1 35.4801 74.1 37.0354ZM11.9563 20.7048L12.0146 20.6465C11.9952 20.666 11.9758 20.6854 11.9563 20.7048ZM31.2031 66.4013C31.0475 66.3624 30.892 66.3333 30.7365 66.3138C30.892 66.3527 31.0475 66.3819 31.2031 66.4013ZM61.1813 46.7171C61.7937 45.259 62.2312 43.7135 62.5519 42.1387C62.9019 40.4765 63.0769 38.7851 63.0769 37.0354C63.0769 35.1982 62.8727 33.4194 62.4936 31.6697C62.1437 29.9783 61.6188 28.3744 60.9772 26.7996C60.3357 25.3416 59.5483 23.9126 58.6734 22.6004C57.7111 21.1714 56.6321 19.8592 55.4365 18.6635C54.1534 17.3804 52.7536 16.2431 51.2372 15.2516C49.8374 14.3184 48.321 13.5311 46.7171 12.8895C45.259 12.3063 43.7135 11.8397 42.1387 11.5189C40.4765 11.1981 38.7851 11.0231 37.0354 11.0231C35.1982 11.0231 33.4194 11.2273 31.6697 11.5772C29.9783 11.9272 28.3452 12.4521 26.7997 13.1228C25.3416 13.7643 23.9126 14.5226 22.6004 15.3974C21.1714 16.3597 19.8591 17.4387 18.6635 18.6635C17.3804 19.9175 16.2431 21.3172 15.2516 22.8337C14.3184 24.2626 13.5311 25.779 12.8895 27.3829C12.3063 28.841 11.8397 30.3574 11.5189 31.9613C11.1981 33.5943 11.0231 35.3149 11.0231 37.0354C11.0231 38.8726 11.2273 40.6806 11.5772 42.4012C11.9272 44.0926 12.4521 45.7256 13.1228 47.2712C13.7643 48.7487 14.5225 50.1582 15.3974 51.4997C16.3597 52.8994 17.4387 54.2409 18.6635 55.4365C19.9175 56.7196 21.3172 57.8278 22.8336 58.8193C24.2626 59.7524 25.779 60.5398 27.3537 61.1814C28.841 61.7938 30.3574 62.2603 31.9613 62.552C33.5943 62.9019 35.3149 63.0769 37.0354 63.0769C38.8726 63.0769 40.6806 62.8727 42.4012 62.4936C44.0926 62.1437 45.7256 61.6188 47.2712 60.9772C48.7584 60.3357 50.1582 59.5775 51.4705 58.6734C52.8994 57.7403 54.2408 56.6321 55.4365 55.4365C56.6904 54.1534 57.8278 52.7536 58.8192 51.2372C59.7524 49.8374 60.5398 48.321 61.1813 46.7171Z" fill="#6561C0"/>
<path d="M15.8643 15.8931C16.6614 15.096 17.4876 14.3573 18.343 13.6768L13.9104 8.10693C12.8412 8.96235 11.8205 9.87608 10.8485 10.8481C9.04042 12.627 7.43652 14.61 6.06592 16.7388L12.0149 20.6465C13.1231 18.9259 14.4354 17.322 15.8643 15.8931Z" fill="#F8F5F6"/>
<path d="M60.4526 32.1071C60.1318 30.5615 59.636 29.0743 59.0237 27.6454C58.4404 26.2748 57.7405 24.9916 56.924 23.7668C56.0491 22.4546 55.0576 21.2589 53.9495 20.1508C52.783 18.9843 51.4999 17.9345 50.1001 17.0305C48.7879 16.1556 47.3881 15.4266 45.93 14.8433C44.5886 14.2893 43.1888 13.881 41.7307 13.5894C40.2143 13.2978 38.6396 13.1228 37.0357 13.1228C35.3443 13.1228 33.7112 13.2978 32.1073 13.6477C30.5618 13.9685 29.0454 14.4351 27.6456 15.0475C26.275 15.6307 24.9919 16.3306 23.7671 17.1471C22.4548 18.022 21.23 19.0426 20.1219 20.1508C18.9554 21.3173 17.9347 22.6004 17.0307 24.0001C16.1559 25.2833 15.4268 26.683 14.8436 28.1411C14.2895 29.5117 13.8812 30.9115 13.5896 32.3696C13.298 33.886 13.123 35.4315 13.123 37.0354C13.123 38.7268 13.298 40.389 13.648 41.9638C13.9687 43.5385 14.4353 45.0258 15.0477 46.4547C15.631 47.8156 16.3308 49.0987 17.1474 50.304C18.0222 51.6163 19.0429 52.8411 20.151 53.9493C21.3175 55.1157 22.6006 56.1655 23.9712 57.0696C25.2835 57.9153 26.6833 58.6443 28.1413 59.2275C29.512 59.7816 30.9117 60.219 32.3698 60.5106C33.5168 60.7245 34.6833 60.8606 35.8692 60.9189C34.6833 60.8606 33.5363 60.7245 32.4281 60.5106C30.97 60.219 29.5994 59.8108 28.258 59.2567C26.7999 58.6735 25.4293 57.9444 24.1462 57.1279C22.7756 56.2239 21.4925 55.174 20.326 54.0367C19.247 52.9286 18.2555 51.733 17.3807 50.4498C16.5933 49.2542 15.8934 47.9711 15.3102 46.6297C14.6978 45.2007 14.2312 43.7426 13.9104 42.1971C13.5896 40.6223 13.4147 38.9893 13.4147 37.3271C13.4147 35.7523 13.5605 34.2067 13.8521 32.7195C14.1437 31.2614 14.5811 29.8616 15.106 28.5494C15.6893 27.0913 16.4183 25.7207 17.264 24.4376C18.1389 23.0378 19.1887 21.7838 20.326 20.6174C21.4341 19.5384 22.6298 18.5469 23.9129 17.672C25.1377 16.8847 26.3916 16.1848 27.7331 15.6016C29.162 14.9892 30.6493 14.5226 32.1657 14.2018C33.7404 13.881 35.3735 13.6769 37.0357 13.6769C38.6104 13.6769 40.156 13.8518 41.6724 14.1435C43.1013 14.4351 44.5011 14.8433 45.8425 15.3974C47.2715 15.9807 48.6421 16.6805 49.9543 17.5262C51.3249 18.4302 52.5789 19.4801 53.7454 20.6174C54.8535 21.7255 55.8159 22.9212 56.6907 24.2043C57.5072 25.4096 58.1974 26.683 58.7612 28.0245C59.3736 29.4534 59.8402 30.9115 60.1609 32.457C60.5109 34.0318 60.6859 35.6648 60.6859 37.3271C60.6859 38.9018 60.5109 40.4474 60.2193 41.9346C59.9277 43.3927 59.5194 44.7925 58.9653 46.1047C58.3821 47.5628 57.6822 48.9334 56.8365 50.2165C55.9325 51.5872 54.9118 52.8703 53.7454 54.0367C52.6372 55.1157 51.4416 56.1072 50.1585 56.9821C48.9531 57.7792 47.6797 58.4693 46.3383 59.0526C44.9385 59.665 43.4513 60.1315 41.9057 60.4523C40.331 60.7731 38.6979 60.9481 37.0357 60.9481C38.7271 60.9481 40.3893 60.7731 41.964 60.4523C43.5388 60.1315 45.026 59.6358 46.4549 59.0234C47.8158 58.4402 49.0989 57.7403 50.3043 56.9238C51.6166 56.0489 52.8414 55.0574 53.9495 53.9493C55.116 52.7828 56.1658 51.4997 57.0698 50.0999C57.9155 48.7876 58.6445 47.3879 59.2278 45.9298C59.7818 44.5883 60.2193 43.1886 60.5109 41.7305C60.8025 40.2141 60.9483 38.6393 60.9483 37.0354C60.9483 35.3441 60.7733 33.711 60.4526 32.1071Z" fill="#EA7374"/>
<path fill-rule="evenodd" clip-rule="evenodd" d="M18.3138 18.3136C19.5678 17.0596 20.9092 15.9806 22.3381 15.0183C23.7087 14.1143 25.1377 13.3269 26.6249 12.7145C28.2288 12.0146 29.891 11.4897 31.5824 11.1398C33.3904 10.7607 35.1985 10.5857 37.0357 10.5857C38.7854 10.5857 40.5059 10.7607 42.2264 11.0814C43.8012 11.4022 45.3759 11.8688 46.8923 12.452C48.4962 13.0936 50.0418 13.9101 51.4999 14.8725C53.0163 15.8348 54.4452 17.0013 55.7575 18.3136C57.0115 19.5675 58.1196 20.909 59.0528 22.3379C59.9859 23.7085 60.7442 25.1374 61.3857 26.6247C62.0564 28.2286 62.5813 29.8908 62.9313 31.5822C63.3104 33.3902 63.5145 35.2274 63.5145 37.0354C63.5145 38.7851 63.3396 40.5056 62.9896 42.2262C62.698 43.8009 62.2314 45.3757 61.619 46.8921C60.9774 48.496 60.1901 50.0415 59.2277 51.4996C58.2362 53.016 57.0989 54.445 55.7575 55.7572C54.5035 57.0112 53.1621 58.1193 51.7332 59.0525C50.3626 59.9857 48.9336 60.7439 47.4464 61.3855C45.8425 62.0562 44.1803 62.5811 42.4889 62.931C40.71 63.3101 38.8728 63.5143 37.0357 63.5143C35.3151 63.5143 33.5654 63.3393 31.874 62.9894C30.2701 62.6977 28.7245 62.2312 27.2081 61.6188C25.6042 60.9772 24.0587 60.1898 22.5714 59.2275C21.0842 58.236 19.6261 57.0987 18.3138 55.7572C17.0598 54.5033 15.9809 53.1619 15.0185 51.7329C14.1145 50.3623 13.3271 48.9334 12.7147 47.4461C12.0149 45.8422 11.49 44.18 11.14 42.4886C10.7609 40.7098 10.5859 38.8726 10.5859 37.0354C10.5859 35.3149 10.7317 33.5652 11.0817 31.8738C11.4025 30.2699 11.8691 28.7243 12.4523 27.2079C13.0939 25.604 13.9104 24.0584 14.8727 22.5712C15.8351 21.0839 17.0015 19.655 18.3138 18.3136ZM23.5338 16.7971C22.2215 17.672 20.9967 18.6927 19.8302 19.83C18.6054 21.0548 17.5556 22.367 16.6516 23.7376C15.7767 25.1082 15.0477 26.5372 14.4353 27.9953C13.8812 29.395 13.473 30.8239 13.1813 32.282C12.8606 33.8568 12.7147 35.4607 12.7147 37.0354C12.7147 38.7268 12.8897 40.4182 13.2397 42.0512C13.5604 43.5968 14.027 45.1424 14.6686 46.6296C15.2518 47.9711 15.9517 49.3125 16.7974 50.5665C17.6722 51.8496 18.6929 53.1035 19.8302 54.2408C21.055 55.4656 22.3673 56.5155 23.7379 57.4195C25.1085 58.3235 26.5374 59.0525 27.9955 59.6358C29.3953 60.1898 30.8242 60.6273 32.2823 60.9189C33.857 61.2105 35.4609 61.3855 37.0357 61.3855C38.727 61.3855 40.3893 61.1813 42.0515 60.8605C43.597 60.5106 45.1426 60.044 46.6299 59.4025C47.9713 58.8192 49.2836 58.1194 50.5667 57.2737C51.8498 56.428 53.1038 55.4073 54.2411 54.2408C55.4659 53.0452 56.5157 51.7329 57.4197 50.3332C58.3237 48.9917 59.0528 47.5628 59.636 46.1047C60.1901 44.7049 60.6275 43.2469 60.89 41.7888C61.2107 40.2432 61.3566 38.6393 61.3566 37.0354C61.3566 35.3732 61.1816 33.6818 60.8608 32.0196C60.5109 30.474 60.0443 28.9576 59.4027 27.4703C58.8195 26.0997 58.1196 24.7875 57.2739 23.5335C56.3991 22.2212 55.4076 20.9964 54.2411 19.83C53.0455 18.6052 51.7332 17.5554 50.3334 16.6513C48.992 15.7765 47.563 15.0474 46.1049 14.4642C44.7052 13.881 43.2471 13.4727 41.789 13.1811C40.2434 12.8603 38.6395 12.7145 37.0357 12.7145C35.3734 12.7145 33.682 12.8895 32.0198 13.2394C30.4743 13.5602 28.9578 14.0559 27.4706 14.6683C26.1 15.2516 24.7877 15.9515 23.5338 16.7971Z" fill="url(#paint0_linear_48_2244)"/>
<path d="M56.9237 23.7669L58.6734 22.6004C57.7111 21.1715 56.6321 19.8592 55.4365 18.6636L53.9492 20.1508C55.0574 21.259 56.0489 22.4546 56.9237 23.7669Z" fill="#6561C0"/>
<path d="M59.0235 27.6453L60.9481 26.7996C60.3357 25.3415 59.5484 23.9126 58.6735 22.6003L56.9238 23.7668C57.7404 24.9916 58.4402 26.2747 59.0235 27.6453Z" fill="#E3DEDD"/>
<path d="M60.4524 32.1071L62.4937 31.6697C62.1437 29.9783 61.6188 28.3744 60.9481 26.7997L59.0234 27.6454C59.6358 29.0743 60.1316 30.5615 60.4524 32.1071Z" fill="#6561C0"/>
<path d="M53.9492 53.9492L55.4365 55.4365C56.6904 54.1533 57.8277 52.7536 58.8192 51.2372L57.0695 50.0999C56.1655 51.4996 55.1157 52.7827 53.9492 53.9492Z" fill="#E3DEDD"/>
<path d="M14.8435 28.141L12.8896 27.3828C12.3064 28.8409 11.8398 30.3573 11.519 31.9612L13.5895 32.3695C13.8811 30.9114 14.2894 29.5116 14.8435 28.141Z" fill="#E3DEDD"/>
<path d="M13.6481 41.9636L11.5776 42.401C11.9276 44.0924 12.4525 45.7255 13.1232 47.2711L15.0479 46.4545C14.4355 45.0256 13.9689 43.5384 13.6481 41.9636Z" fill="#6561C0"/>
<path d="M13.5892 32.3696L11.5187 31.9613C11.1979 33.5944 11.0229 35.3149 11.0229 37.0354H13.1226C13.1226 35.4316 13.2976 33.886 13.5892 32.3696Z" fill="#6561C0"/>
<path d="M13.1226 37.0353H11.0229C11.0229 38.8725 11.2271 40.6805 11.577 42.401L13.6475 41.9636C13.2976 40.3889 13.1226 38.7267 13.1226 37.0353Z" fill="#E3DEDD"/>
<path d="M15.0477 46.4547L13.123 47.2712C13.7646 48.7488 14.5228 50.1583 15.3977 51.4997L17.1474 50.3332C16.3308 49.1084 15.631 47.8156 15.0477 46.4547Z" fill="#E3DEDD"/>
<path d="M20.1508 53.9492L18.6636 55.4365C19.9175 56.7196 21.3173 57.8277 22.8337 58.8192L23.971 57.0695C22.6004 56.1655 21.3173 55.1157 20.1508 53.9492Z" fill="#E3DEDD"/>
<path d="M17.1472 50.3331L15.3975 51.4996C16.3598 52.8994 17.4388 54.2408 18.6636 55.4364L20.1508 53.9492C19.0427 52.841 18.022 51.6162 17.1472 50.304V50.3331Z" fill="#6561C0"/>
<path d="M23.9708 57.0696L22.8335 58.8193C24.2624 59.7525 25.7788 60.5398 27.3536 61.1814L28.1409 59.2276C26.6829 58.6443 25.2831 57.9153 23.9708 57.0696Z" fill="#6561C0"/>
<path d="M17.0306 24.0001L15.2517 22.8336C14.3186 24.2625 13.5312 25.779 12.8896 27.3829L14.8435 28.1411C15.4267 26.683 16.1558 25.2832 17.0306 24.0001Z" fill="#6561C0"/>
<path d="M37.0352 13.1228V11.0232C35.198 11.0232 33.4191 11.2273 31.6694 11.5773L32.1069 13.6478C33.7108 13.2978 35.3438 13.1228 37.0352 13.1228Z" fill="#E3DEDD"/>
<path d="M27.6451 15.0475L26.7994 13.1228C25.3413 13.7644 23.9124 14.5226 22.6001 15.3974L23.7666 17.1471C24.9914 16.3598 26.2745 15.6307 27.6451 15.0475Z" fill="#E3DEDD"/>
<path d="M32.1067 13.6476L31.6693 11.5771C29.9779 11.9271 28.3449 12.452 26.7993 13.1227L27.645 15.0474C29.0448 14.435 30.5612 13.9684 32.1067 13.6476Z" fill="#6561C0"/>
<path d="M20.1215 20.1508L18.6634 18.6636C17.3803 19.9175 16.243 21.3173 15.2515 22.8337L17.0303 24.0002C17.9344 22.6004 18.955 21.3173 20.1215 20.1508Z" fill="#E3DEDD"/>
<path d="M23.7669 17.1472L22.6004 15.3975C21.1715 16.3598 19.8592 17.4388 18.6636 18.6636L20.1217 20.1508C21.2298 19.0427 22.4546 18.022 23.7669 17.1472Z" fill="#6561C0"/>
<path d="M60.4526 32.1071C60.7734 33.711 60.9484 35.3441 60.9484 37.0354H63.0772C63.0772 35.1982 62.8731 33.4194 62.494 31.6697L60.4526 32.1071Z" fill="#E3DEDD"/>
<path d="M60.5107 41.7303L62.5521 42.1386C62.902 40.4764 63.077 38.785 63.077 37.0353H60.9482C60.9482 38.6392 60.8024 40.2139 60.5107 41.7303Z" fill="#6561C0"/>
<path d="M53.949 20.1508L55.4362 18.6635C54.1531 17.3804 52.7533 16.2431 51.2369 15.2516L50.0996 17.0305C51.4994 17.9345 52.7825 18.9843 53.949 20.1508Z" fill="#E3DEDD"/>
<path d="M59.228 45.9299L61.1819 46.7172C61.7943 45.2592 62.2317 43.7136 62.5525 42.1389L60.5112 41.7306C60.2195 43.1887 59.7821 44.5884 59.228 45.9299Z" fill="#E3DEDD"/>
<path d="M28.1409 59.2275L27.3535 61.1814C28.8408 61.7938 30.3572 62.2604 31.9611 62.552L32.3693 60.5107C30.9113 60.219 29.5115 59.7816 28.1409 59.2275Z" fill="#E3DEDD"/>
<path d="M50.0998 17.0305L51.2371 15.2516C49.8374 14.3185 48.321 13.5311 46.7171 12.8895L45.9297 14.8434C47.3878 15.4266 48.7875 16.1556 50.0998 17.0305Z" fill="#6561C0"/>
<path d="M45.9303 14.8432L46.7176 12.8894C45.2595 12.3062 43.714 11.8396 42.1392 11.5188L41.731 13.5893C43.189 13.8809 44.5888 14.3183 45.9303 14.8432Z" fill="#E3DEDD"/>
<path d="M57.0698 50.0998L58.8195 51.2371C59.7527 49.8374 60.5401 48.321 61.1816 46.7171L59.2278 45.9297C58.6445 47.3878 57.9155 48.7875 57.0698 50.0998Z" fill="#6561C0"/>
<path d="M37.0352 60.9772V63.0768C38.8723 63.0768 40.6804 62.8727 42.4009 62.4936L41.9635 60.4523C40.3888 60.773 38.7265 60.948 37.0352 60.948V60.9772Z" fill="#E3DEDD"/>
<path d="M41.7302 13.5894L42.1385 11.5189C40.4762 11.1982 38.7849 11.0232 37.0352 11.0232V13.1228C38.6391 13.1228 40.2138 13.2978 41.7302 13.5894Z" fill="#6561C0"/>
<path d="M32.3692 60.5106L31.9609 62.5519C33.594 62.9019 35.2854 63.0769 37.0351 63.0769V60.9772C35.4312 60.9772 33.8856 60.8022 32.3692 60.5106Z" fill="#6561C0"/>
<path d="M41.9634 60.4522L42.4008 62.4936C44.0922 62.1436 45.7252 61.6187 47.2708 60.9772L46.4543 59.0233C45.0254 59.6357 43.5381 60.1315 41.9634 60.4522Z" fill="#6561C0"/>
<path d="M46.4546 59.0235L47.2711 60.9773C48.7584 60.3358 50.1581 59.5775 51.4704 58.6735L50.3039 56.9238C49.0986 57.7404 47.8155 58.4402 46.4546 59.0235Z" fill="#E3DEDD"/>
<path d="M50.3042 56.9237L51.4707 58.6734C52.8996 57.7402 54.241 56.6321 55.4367 55.4365L53.9494 53.9492C52.8413 55.0574 51.6165 56.0489 50.3042 56.9237Z" fill="#6561C0"/>
<path d="M4.0242 52.6079C3.82979 52.219 3.64511 51.8205 3.47014 51.4122C2.53697 49.2251 1.80791 46.9505 1.31217 44.5592C1.09831 43.5872 0.933059 42.5957 0.816412 41.5847L0.291504 41.643C0.408151 42.6734 0.573404 43.6844 0.787257 44.6759C1.28301 47.0963 2.01205 49.4001 2.97439 51.6164C3.14936 52.0246 3.33404 52.4329 3.52845 52.8411L4.0242 52.6079Z" fill="url(#paint1_linear_48_2244)"/>
<path d="M62.8731 62.8728C61.9011 63.8059 60.8902 64.7002 59.8403 65.5557L60.1903 65.9639C61.2595 65.1085 62.2802 64.2045 63.2523 63.2519C65.0311 61.4438 66.635 59.49 68.0348 57.3612L67.5682 57.0696C66.1976 59.1401 64.6228 61.0939 62.8731 62.8728Z" fill="url(#paint2_linear_48_2244)"/>
<path d="M23.4755 70.9505C21.8036 70.27 20.1997 69.4827 18.6638 68.5884L18.4014 69.055C19.9567 69.9687 21.58 70.7658 23.2714 71.4462C25.1961 72.2044 27.1791 72.8168 29.2495 73.2834L29.3662 72.7294C27.3249 72.3211 25.3419 71.7087 23.4755 70.9505Z" fill="url(#paint3_linear_48_2244)"/>
<path d="M70.6298 22.6877C71.5629 24.8457 72.292 27.1495 72.7877 29.5116C72.9821 30.5031 73.1474 31.5043 73.2835 32.5152L73.8084 32.4277C73.6723 31.4168 73.5071 30.4059 73.3126 29.3949C72.7877 27.0037 72.0587 24.6707 71.1255 22.4544C70.9311 22.0462 70.7464 21.6476 70.5714 21.2588L70.0757 21.4921C70.2701 21.8809 70.4548 22.2795 70.6298 22.6877Z" fill="url(#paint4_linear_48_2244)"/>
<path d="M50.6245 3.14947C52.2965 3.81047 53.9004 4.58811 55.4362 5.48241L55.6987 5.01582C54.1434 4.12153 52.5201 3.33416 50.8287 2.65372C48.904 1.86635 46.8919 1.25395 44.8214 0.816528L44.7339 1.34144C46.746 1.77887 48.729 2.39126 50.6245 3.14947Z" fill="url(#paint5_linear_48_2244)"/>
<path d="M0.816525 41.5847C0.622114 40.0877 0.524908 38.5713 0.524908 37.0355C0.524908 34.5859 0.758209 32.2238 1.2248 29.8908C1.66222 27.6745 2.30377 25.5166 3.14947 23.4753C4.05348 21.2298 5.16162 19.101 6.44474 17.0888L6.50307 17.0305L6.06564 16.7389L6.00731 16.7972C4.69503 18.8385 3.55773 20.9965 2.65371 23.2711C1.80802 25.3416 1.13732 27.5287 0.699889 29.8034C0.233301 32.1363 0 34.5567 0 37.0355C0 38.6102 0.0972058 40.1461 0.291618 41.643L0.816525 41.5847Z" fill="url(#paint6_linear_48_2244)"/>
<path d="M18.6638 68.5883C18.1389 68.2772 17.6139 67.9565 17.089 67.626C14.9894 66.2554 13.0064 64.6515 11.2275 62.8726C9.53614 61.1812 8.01973 59.3149 6.67829 57.3027C5.68679 55.8155 4.78277 54.2407 4.02456 52.6077L3.52881 52.841C4.30646 54.5129 5.20075 56.1071 6.21169 57.6235C7.5823 59.6356 9.12788 61.5312 10.8484 63.2517C12.6564 65.0597 14.6394 66.6636 16.7974 68.0926C17.3223 68.4231 17.8569 68.7438 18.4013 69.0549L18.6638 68.5883Z" fill="url(#paint7_linear_48_2244)"/>
<path d="M59.8397 65.5557C59.0232 66.1972 58.1775 66.8193 57.3026 67.422C55.4654 68.6468 53.4824 69.7258 51.412 70.6298C49.2248 71.563 46.9502 72.292 44.5589 72.7878C42.1385 73.2835 39.6306 73.546 37.0352 73.546C34.5856 73.546 32.2235 73.3127 29.8906 72.8461C29.7156 72.8072 29.5406 72.7683 29.3657 72.7295L29.249 73.2835C29.424 73.3224 29.6087 73.3516 29.8031 73.371C32.136 73.8376 34.5565 74.1001 37.0352 74.1001C39.6598 74.1001 42.226 73.8084 44.6756 73.3127C47.096 72.7878 49.3998 72.0587 51.6161 71.1256C53.7157 70.2215 55.7279 69.1134 57.6234 67.8594C58.4983 67.2568 59.3537 66.6249 60.1897 65.9639L59.8397 65.5557Z" fill="url(#paint8_linear_48_2244)"/>
<path d="M73.8085 32.4279L73.2836 32.5153C73.4585 33.9929 73.546 35.4996 73.546 37.0354C73.546 39.485 73.3127 41.8763 72.8461 44.18C72.4087 46.3963 71.7672 48.5543 70.9506 50.6248C70.0466 52.8702 68.9385 54.9991 67.6262 56.9821L67.5679 57.0695L68.0345 57.3612L68.0928 57.2737C69.4051 55.2615 70.5424 53.1035 71.4464 50.8289C72.2921 48.7293 72.9336 46.5421 73.371 44.2967C73.8376 41.9346 74.1001 39.5142 74.1001 37.0354C74.1001 35.4801 74.0029 33.9443 73.8085 32.4279Z" fill="url(#paint9_linear_48_2244)"/>
<path d="M55.437 5.48233C55.9619 5.79339 56.4771 6.11417 56.9826 6.44467C59.1114 7.84444 61.0652 9.44833 62.8733 11.2272C64.5646 12.9186 66.0811 14.7849 67.4225 16.7679C68.414 18.2552 69.2888 19.8299 70.0762 21.4921L70.572 21.2588C69.7749 19.5869 68.8709 17.9927 67.8599 16.4763C66.5185 14.435 64.9438 12.5686 63.2524 10.8481C61.4443 9.04007 59.4322 7.40701 57.2742 6.00725C56.7687 5.67675 56.2438 5.34625 55.6995 5.01575L55.437 5.48233Z" fill="url(#paint10_linear_48_2244)"/>
<path d="M14.2309 8.54439C15.0475 7.88339 15.8932 7.26128 16.768 6.67804C18.6344 5.42409 20.5882 4.3451 22.6587 3.47025C24.8458 2.53707 27.1496 1.80803 29.5117 1.31228C31.9321 0.787367 34.4692 0.524911 37.0354 0.524911C39.485 0.524911 41.8763 0.787367 44.18 1.22479C44.355 1.26368 44.5397 1.30256 44.7341 1.34144L44.8216 0.816529C44.6466 0.777646 44.4717 0.738764 44.2967 0.699882C41.9346 0.233294 39.5142 0 37.0354 0C34.4109 0 31.8738 0.262455 29.395 0.787367C27.0038 1.28312 24.6708 2.01216 22.4545 2.9745C20.3549 3.87851 18.3427 4.9575 16.4764 6.24061C15.5821 6.82385 14.7267 7.44597 13.9102 8.10697L14.2309 8.54439Z" fill="url(#paint11_linear_48_2244)"/>
<path d="M11.2276 11.2272C12.1802 10.2746 13.1814 9.38033 14.2312 8.54436L13.9104 8.10693C12.8412 8.96235 11.8205 9.87608 10.8485 10.8481C9.04042 12.627 7.43652 14.61 6.06592 16.7388L6.50334 17.0304C7.87395 14.9308 9.44868 12.9769 11.2276 11.2272Z" fill="url(#paint12_linear_48_2244)"/>
<path d="M43.3921 68.2676C43.3921 67.4219 44.092 66.7512 44.9085 66.7512C45.7542 66.7512 46.4249 67.4219 46.4249 68.2676C46.4249 69.1133 45.7542 69.784 44.9085 69.784C44.092 69.784 43.3921 69.1133 43.3921 68.2676Z" fill="#F8F7F7"/>
<path d="M28.0825 5.80317C28.0825 4.98664 28.7532 4.31592 29.5989 4.31592C30.4446 4.31592 31.1153 4.98664 31.1153 5.80317C31.1153 6.64886 30.4446 7.31958 29.5989 7.31958C28.7532 7.31958 28.0825 6.64886 28.0825 5.80317Z" fill="#F8F7F7"/>
<path d="M3.93701 31.378C3.93701 30.5323 4.60772 29.8616 5.42425 29.8616C6.26994 29.8616 6.94067 30.5323 6.94067 31.378C6.94067 32.2237 6.26994 32.8944 5.42425 32.8944C4.60772 32.8944 3.93701 32.2237 3.93701 31.378Z" fill="#F8F7F7"/>
<path d="M12.3354 59.315C12.3354 58.4985 13.0062 57.7986 13.8519 57.7986C14.6976 57.7986 15.3683 58.4985 15.3683 59.315C15.3683 60.1607 14.6976 60.8314 13.8519 60.8314C13.0062 60.8314 12.3354 60.1607 12.3354 59.315Z" fill="#F8F7F7"/>
<path d="M66.6929 44.4424C66.6929 43.5967 67.3928 42.926 68.2093 42.926C69.055 42.926 69.7257 43.5967 69.7257 44.4424C69.7257 45.259 69.055 45.9297 68.2093 45.9297C67.3928 45.9297 66.6929 45.259 66.6929 44.4424Z" fill="#F8F7F7"/>
<path d="M59.2568 15.6308C59.2568 14.7851 59.9276 14.1144 60.7733 14.1144C61.6189 14.1144 62.2896 14.7851 62.2896 15.6308C62.2896 16.4765 61.6189 17.1472 60.7733 17.1472C59.9276 17.1472 59.2568 16.4765 59.2568 15.6308Z" fill="#F8F7F7"/>
<path fill-rule="evenodd" clip-rule="evenodd" d="M53.9495 53.9493C52.8122 55.0866 51.6166 56.0781 50.3334 56.9238C49.0795 57.7694 47.7964 58.4693 46.4549 59.0234C44.9968 59.6358 43.5096 60.1315 41.964 60.4232C40.3601 60.7731 38.6979 60.9481 37.0357 60.9481C35.4609 60.9481 33.9154 60.8023 32.3698 60.4815C30.9312 60.2093 29.5217 59.801 28.1413 59.2567C26.7124 58.6735 25.3127 57.9444 23.9712 57.0696C22.6006 56.1947 21.3175 55.1449 20.1219 53.9493C19.8302 53.6576 19.5386 53.3466 19.247 53.0161C19.0332 52.7828 18.829 52.5398 18.6346 52.287C18.5569 52.2093 18.4791 52.1218 18.4013 52.0246C18.2458 51.8302 18.0903 51.6358 17.9347 51.4413C17.8764 51.3441 17.8181 51.2567 17.7598 51.1789C17.5459 50.8873 17.3418 50.6054 17.1474 50.3332C16.3308 49.0792 15.631 47.7961 15.0477 46.4547C14.4353 44.9966 13.9687 43.5093 13.648 41.9638C13.298 40.3599 13.123 38.6977 13.123 37.0354C13.123 35.4899 13.298 33.9151 13.5896 32.3696C13.8812 30.9309 14.2992 29.5214 14.8436 28.1411C15.4268 26.7122 16.1267 25.3124 17.0016 23.971C17.9056 22.6295 18.9262 21.3173 20.1219 20.1216C21.2592 19.0135 22.484 18.022 23.7671 17.1471C24.9919 16.3306 26.3042 15.6307 27.6456 15.0475C29.0745 14.4351 30.5909 13.9685 32.1073 13.6477C33.7404 13.2978 35.4026 13.1228 37.0357 13.1228C38.6104 13.1228 40.1852 13.2978 41.7016 13.5894C43.1597 13.881 44.5594 14.2893 45.93 14.8433C47.3881 15.4266 48.7879 16.1265 50.1001 17.0013C50.4112 17.2152 50.7126 17.429 51.0042 17.6429C51.1014 17.7012 51.1986 17.7692 51.2958 17.847C51.5096 18.0025 51.7138 18.1581 51.9082 18.3136C52.0054 18.3914 52.1026 18.4691 52.1998 18.5469C52.4525 18.7607 52.715 18.9843 52.9872 19.2176L53.0455 19.2759C53.3565 19.5481 53.6579 19.83 53.9495 20.1216C54.2411 20.4132 54.5133 20.7049 54.766 20.9965L54.8535 21.0548C54.8535 21.0742 54.8632 21.0937 54.8827 21.1131C55.0771 21.3464 55.2715 21.57 55.4659 21.7838C55.5437 21.8811 55.6117 21.9685 55.67 22.0463C55.8256 22.2602 55.9811 22.4643 56.1366 22.6587C56.2144 22.7365 56.2824 22.8239 56.3408 22.9212C56.5352 23.1933 56.7296 23.4752 56.924 23.7668C57.7697 24.9916 58.4696 26.3039 59.0237 27.6454C59.636 29.0743 60.1026 30.5907 60.4234 32.1071C60.7734 33.7402 60.9483 35.4024 60.9483 37.0354C60.9483 38.6102 60.8025 40.1849 60.4817 41.7305C60.2193 43.1594 59.7819 44.5592 59.2569 45.9298C58.6737 47.3879 57.9447 48.7876 57.0698 50.0999C56.195 51.4705 55.1451 52.7536 53.9495 53.9493Z" fill="url(#paint13_linear_48_2244)"/>
<path fill-rule="evenodd" clip-rule="evenodd" d="M60.4521 37.0354C60.4521 38.6102 60.2771 40.1266 59.9855 41.6138C59.723 43.0427 59.2856 44.4134 58.7607 45.7548C58.1775 47.1837 57.4776 48.5543 56.6319 49.8083C55.757 51.1789 54.7364 52.4328 53.5991 53.5993C52.4909 54.6783 51.2953 55.6406 50.0413 56.5155C48.8457 57.3028 47.5917 58.0027 46.2503 58.5568C44.8505 59.1692 43.3924 59.6358 41.876 59.9566C40.3013 60.2773 38.6974 60.4523 37.0352 60.4523C36.6075 60.4523 36.1895 60.4426 35.7812 60.4232C35.7424 60.4232 35.7035 60.4134 35.6646 60.394C35.4507 60.394 35.2272 60.3843 34.9939 60.3648C34.955 60.3648 34.9064 60.3551 34.8481 60.3357C34.7314 60.3357 34.6245 60.3259 34.5273 60.3065C34.2745 60.2871 34.0218 60.2579 33.7691 60.219C33.6719 60.1996 33.5747 60.1801 33.4775 60.1607C33.1275 60.1218 32.7873 60.0635 32.4568 59.9857C31.0279 59.7233 29.6573 59.2858 28.345 58.7609C26.9161 58.1777 25.5455 57.4778 24.2623 56.6321C22.8917 55.7573 21.6378 54.7366 20.5005 53.5993C19.4215 52.4912 18.43 51.3247 17.5843 50.0416C16.7969 48.8459 16.0971 47.592 15.5138 46.2505C14.9306 44.8508 14.464 43.3927 14.1432 41.8763C13.8224 40.3015 13.6475 38.6976 13.6475 37.0354C13.6475 35.4899 13.7933 33.9443 14.0849 32.457C14.3765 31.0281 14.7848 29.6575 15.3097 28.3452C15.8929 26.9163 16.622 25.5457 17.4385 24.2626C18.3425 22.9211 19.3632 21.638 20.5005 20.5007C21.5795 19.4217 22.7751 18.4302 24.0582 17.5845C25.2441 16.7875 26.4981 16.0973 27.8201 15.5141C29.2198 14.9308 30.7071 14.4642 32.2235 14.1435C32.5734 14.0657 32.9234 13.9976 33.2733 13.9393C33.39 13.9199 33.4969 13.9102 33.5941 13.9102C33.8663 13.8713 34.1287 13.8324 34.3815 13.7935C34.4981 13.7741 34.6148 13.7644 34.7314 13.7644C35.0619 13.7255 35.3924 13.6963 35.7229 13.6769H35.8104C36.2187 13.6574 36.6269 13.6477 37.0352 13.6477C37.424 13.6477 37.8128 13.6574 38.2017 13.6769H38.2891C38.4058 13.6769 38.5127 13.6866 38.6099 13.706C38.8043 13.706 38.9988 13.7158 39.1932 13.7352C39.1154 13.7352 39.0376 13.7255 38.9599 13.706C39.0571 13.7255 39.1446 13.7352 39.2223 13.7352C39.339 13.7546 39.4556 13.7644 39.5723 13.7644C39.8056 13.8032 40.0486 13.8421 40.3013 13.881C40.3985 13.881 40.5054 13.8907 40.6221 13.9102C40.9526 13.9685 41.2831 14.0268 41.6136 14.0851C43.0425 14.3767 44.4131 14.785 45.7546 15.3099C47.1835 15.8932 48.5541 16.6222 49.808 17.4387C51.1786 18.3427 52.4326 19.3634 53.5991 20.5007C54.678 21.5797 55.6404 22.7753 56.5152 24.0584C57.3123 25.2444 57.9928 26.508 58.5566 27.8495C59.169 29.2201 59.6355 30.7073 59.9563 32.2237C60.2771 33.7693 60.4521 35.4024 60.4521 37.0354ZM38.9599 13.706C38.8432 13.706 38.7266 13.706 38.6099 13.706C38.5127 13.6866 38.4155 13.6769 38.3183 13.6769C38.5322 13.6963 38.746 13.706 38.9599 13.706ZM34.8772 60.3357C34.9355 60.3551 34.9939 60.3648 35.0522 60.3648C35.0328 60.3648 35.0133 60.3648 34.9939 60.3648C34.955 60.3648 34.9161 60.3551 34.8772 60.3357ZM35.7812 60.4232C35.7424 60.4232 35.7035 60.4134 35.6646 60.394C35.5868 60.394 35.5188 60.394 35.4604 60.394C35.5577 60.394 35.6646 60.4037 35.7812 60.4232Z" fill="#6561C0"/>
<defs>
<linearGradient id="paint0_linear_48_2244" x1="10.4964" y1="10.5755" x2="63.4323" y2="10.5755" gradientUnits="userSpaceOnUse">
<stop stop-color="#006BB3"/>
<stop offset="1" stop-color="#093679"/>
</linearGradient>
<linearGradient id="paint1_linear_48_2244" x1="2.04646" y1="53.278" x2="4.22923" y2="52.6312" gradientUnits="userSpaceOnUse">
<stop stop-color="#8D8E90"/>
<stop offset="1" stop-color="white"/>
</linearGradient>
<linearGradient id="paint2_linear_48_2244" x1="70.1901" y1="59.5186" x2="67.0479" y2="56.3764" gradientUnits="userSpaceOnUse">
<stop stop-color="#8D8E90"/>
<stop offset="1" stop-color="white"/>
</linearGradient>
<linearGradient id="paint3_linear_48_2244" x1="28.7628" y1="74.5315" x2="29.5971" y2="72.3709" gradientUnits="userSpaceOnUse">
<stop stop-color="#8D8E90"/>
<stop offset="1" stop-color="white"/>
</linearGradient>
<linearGradient id="paint4_linear_48_2244" x1="73.1983" y1="20.6382" x2="69.2571" y2="21.5479" gradientUnits="userSpaceOnUse">
<stop stop-color="#8D8E90"/>
<stop offset="1" stop-color="white"/>
</linearGradient>
<linearGradient id="paint5_linear_48_2244" x1="46.0651" y1="-2.16439" x2="44.5308" y2="1.55029" gradientUnits="userSpaceOnUse">
<stop stop-color="#8D8E90"/>
<stop offset="1" stop-color="white"/>
</linearGradient>
<linearGradient id="paint6_linear_48_2244" x1="4.3661" y1="16.1452" x2="0.63688" y2="14.8533" gradientUnits="userSpaceOnUse">
<stop stop-color="#0071B2"/>
<stop offset="1" stop-color="#093679"/>
</linearGradient>
<linearGradient id="paint7_linear_48_2244" x1="3.5673" y1="52.8004" x2="0.738882" y2="55.4917" gradientUnits="userSpaceOnUse">
<stop stop-color="#0064A8"/>
<stop offset="1" stop-color="#093679"/>
</linearGradient>
<linearGradient id="paint8_linear_48_2244" x1="28.8524" y1="71.7044" x2="30.6853" y2="78.9278" gradientUnits="userSpaceOnUse">
<stop stop-color="#003D7C"/>
<stop offset="1" stop-color="#052C65"/>
</linearGradient>
<linearGradient id="paint9_linear_48_2244" x1="58.1227" y1="42.6219" x2="64.0542" y2="51.681" gradientUnits="userSpaceOnUse">
<stop stop-color="#1D67AB"/>
<stop offset="1" stop-color="#093679"/>
</linearGradient>
<linearGradient id="paint10_linear_48_2244" x1="66.5631" y1="23.5448" x2="70.8784" y2="21.0637" gradientUnits="userSpaceOnUse">
<stop stop-color="#0071B2"/>
<stop offset="1" stop-color="#093679"/>
</linearGradient>
<linearGradient id="paint11_linear_48_2244" x1="43.4749" y1="-4.0007" x2="42.7451" y2="-6.58883" gradientUnits="userSpaceOnUse">
<stop stop-color="#0071B2"/>
<stop offset="1" stop-color="#093679"/>
</linearGradient>
<linearGradient id="paint12_linear_48_2244" x1="3.12583" y1="14.0166" x2="6.75413" y2="17.3775" gradientUnits="userSpaceOnUse">
<stop stop-color="#8D8E90"/>
<stop offset="1" stop-color="white"/>
</linearGradient>
<linearGradient id="paint13_linear_48_2244" x1="13.0414" y1="13.1362" x2="60.8559" y2="13.1362" gradientUnits="userSpaceOnUse">
<stop stop-color="#006BB3"/>
<stop offset="1" stop-color="#093679"/>
</linearGradient>
</defs>
</svg>
