<svg width="21" height="24" viewBox="0 0 21 24" fill="none" xmlns="http://www.w3.org/2000/svg">
<path d="M13.9146 13.4177H18.3871C18.9143 13.4177 19.4199 13.6271 19.7927 13.9999C20.1655 14.3727 20.3749 14.8783 20.3749 15.4055C20.3749 15.9327 20.1655 16.4383 19.7927 16.8111C19.4199 17.1839 18.9143 17.3933 18.3871 17.3933H13.9146V13.4177Z" fill="#CA7300"/>
<path d="M1.98781 7.45425H16.3994V21.8658H0V9.44206C0 8.91486 0.209429 8.40925 0.582215 8.03647C0.955 7.66368 1.46061 7.45425 1.98781 7.45425Z" fill="#CA7300"/>
<path d="M1.98779 9.93902L11.9268 0L19.878 7.95122L17.8902 9.93902H1.98779Z" fill="#5EAC24"/>
<path d="M3.97559 7.95122V0H11.9268L3.97559 7.95122Z" fill="#47821B"/>
<path d="M14.9088 9.93902L16.1959 8.65689C16.1034 8.56458 16.0301 8.45496 15.9801 8.33431C15.9301 8.21365 15.9044 8.08431 15.9044 7.9537C15.9044 7.82308 15.9301 7.69375 15.9801 7.57309C16.0301 7.45244 16.1034 7.34282 16.1959 7.25051L12.6327 3.6824C12.5404 3.77481 12.4308 3.84812 12.3101 3.89814C12.1895 3.94816 12.0601 3.9739 11.9295 3.9739C11.7989 3.9739 11.6696 3.94816 11.5489 3.89814C11.4283 3.84812 11.3186 3.77481 11.2263 3.6824L4.96973 9.93902H14.9088Z" fill="#69C229"/>
<path d="M5.96338 2.9817C6.22698 2.9817 6.47978 2.87698 6.66617 2.69059C6.85257 2.5042 6.95728 2.25139 6.95728 1.98779H9.93899L5.96338 5.9634V2.9817Z" fill="#529820"/>
<path d="M6.46045 9.93902C6.46045 9.01642 6.82695 8.13161 7.47932 7.47923C8.1317 6.82686 9.01651 6.46036 9.93911 6.46036C10.8617 6.46036 11.7465 6.82686 12.3989 7.47923C13.0513 8.13161 13.4178 9.01642 13.4178 9.93902H6.46045Z" fill="#5EAC24"/>
<path d="M17.3933 21.8658H1.98779V23.8536H17.3933V21.8658Z" fill="#FF9811"/>
<path d="M0 19.8781V21.8659C0 22.3931 0.209429 22.8987 0.582214 23.2714C0.955 23.6442 1.46061 23.8537 1.9878 23.8537V21.8659C1.46061 21.8659 0.955 21.6564 0.582214 21.2836C0.209429 20.9109 0 20.4053 0 19.8781Z" fill="#E4880F"/>
<path d="M15.9024 11.4299H1.98779V21.8658H17.3933V11.4299H15.9024Z" fill="#FFAB3D"/>
<path d="M1.9878 21.8659V11.4299C1.46061 11.4299 0.955 11.2205 0.582214 10.8477C0.209429 10.4749 0 9.96928 0 9.44208V19.8781C0 20.4053 0.209429 20.9109 0.582214 21.2836C0.955 21.6564 1.46061 21.8659 1.9878 21.8659Z" fill="#E49937"/>
<path d="M20.3749 14.9085C20.3749 15.4357 20.1655 15.9413 19.7927 16.3141C19.4199 16.6869 18.9143 16.8963 18.3871 16.8963H13.9146C13.3874 16.8963 12.8818 17.1058 12.509 17.4786C12.1362 17.8513 11.9268 18.357 11.9268 18.8841C11.9268 19.4113 12.1362 19.917 12.509 20.2897C12.8818 20.6625 13.3874 20.872 13.9146 20.872H18.3871C18.9143 20.872 19.4199 20.6625 19.7927 20.2897C20.1655 19.917 20.3749 19.4113 20.3749 18.8841V14.9085Z" fill="#EE8700"/>
<path d="M14.4114 18.3872H13.4175V19.3811H14.4114V18.3872Z" fill="#FFD422"/>
<path d="M2.9817 21.3689H1.98779V22.3628H2.9817V21.3689Z" fill="white"/>
<path d="M7.45424 21.3689H3.97559V22.3628H7.45424V21.3689Z" fill="white"/>
<path d="M16.8964 19.3811H14.4116V20.375H16.8964V19.3811Z" fill="white"/>
<path d="M17.8901 20.375V19.3811C18.0219 19.3811 18.1483 19.3287 18.2415 19.2356C18.3347 19.1424 18.3871 19.016 18.3871 18.8842H19.381C19.381 19.2796 19.2239 19.6588 18.9443 19.9383C18.6647 20.2179 18.2855 20.375 17.8901 20.375Z" fill="white"/>
</svg>
