<svg width="64" height="64" viewBox="0 0 64 64" fill="none" xmlns="http://www.w3.org/2000/svg">
<g filter="url(#filter0_d_751_4768)">
<rect x="4" y="1" width="56" height="56" rx="28" fill="#6561C0"/>
</g>
<path fill-rule="evenodd" clip-rule="evenodd" d="M21 33.9934C21.2641 30.5207 20.5946 30.6612 23.4433 29.5729C24.8425 29.0268 26.1836 28.3365 27.4457 27.5125L29.8797 33.999L21 33.9934ZM28.5609 24.6036C28.2793 24.1431 28.0398 23.6572 27.8455 23.1519C26.3066 22.2678 26.0608 18.3362 27.0091 18.634C27.0091 18.486 26.9834 18.0721 26.9834 17.7874C26.9834 11.4058 37.0243 11.402 37.0243 17.7874C37.0243 18.0796 36.9949 18.486 36.9986 18.634C37.9469 18.3306 37.6919 22.2622 36.1621 23.1519C35.7714 24.2571 35.0744 24.9988 35.1313 25.4839C35.1239 27.1435 33.3392 27.7466 32.0057 27.7616C31.8846 27.7616 31.7617 27.7616 31.6388 27.7429C31.9299 27.6639 32.2089 27.5441 32.4679 27.387C33.0384 27.0311 33.4236 26.5048 33.4236 25.8735C33.4236 25.2423 33.0402 24.7122 32.4697 24.3582C31.9468 24.0448 31.3518 23.8787 30.7455 23.8768C30.2745 23.8678 29.8064 23.9538 29.368 24.1297C29.0959 24.2424 28.847 24.4064 28.6343 24.6129H28.5664L28.5609 24.6036ZM36.6721 27.2109C37.8186 27.993 39.0582 28.6225 40.3608 29.084C43.0205 29.9868 43.0205 30.1142 42.9948 33.9859H34.1499L36.6721 27.2109ZM32.6715 30.5394H33.0127C33.1586 30.5394 33.2986 30.4802 33.4018 30.3748C33.505 30.2694 33.563 30.1265 33.563 29.9775V29.0409C33.563 28.8919 33.505 28.749 33.4018 28.6436C33.2986 28.5382 33.1586 28.479 33.0127 28.479H30.995C30.8498 28.4814 30.7112 28.5414 30.6085 28.6463C30.5058 28.7511 30.4471 28.8927 30.4447 29.0409V29.9775C30.4475 30.1256 30.5064 30.2669 30.609 30.3716C30.7116 30.4764 30.8499 30.5365 30.995 30.5394H31.3417L30.6666 33.9934H33.3098L32.6715 30.5394Z" fill="white"/>
<path fill-rule="evenodd" clip-rule="evenodd" d="M39.7038 16.9069H39.6316C38.9624 14.1927 37.2414 12.3098 35.1908 11.5309C33.9879 11.0959 32.6984 10.9248 31.4173 11.0303C30.1579 11.1244 28.9328 11.4679 27.8193 12.039C26.8907 12.5338 26.0988 13.2336 25.5093 14.0802C24.9199 14.9268 24.5499 15.8959 24.4302 16.9069H24.2956C23.6517 16.9069 23 17.4131 23 18.0276V22.0755C23 22.6919 23.6517 23.1963 24.2956 23.1963H24.676C25.0916 24.8121 26.7755 26.2915 28.4905 26.2915H28.8281C29.1227 26.7062 29.6944 26.9994 30.6466 26.9994C31.5987 26.9994 32.6133 26.4857 32.6133 25.8544C32.6133 25.223 31.6124 24.7112 30.6544 24.7112C29.6963 24.7112 29.0934 25.0157 28.8183 25.4453H28.4905C27.0194 25.4453 25.5638 23.9509 25.4604 22.6023V16.9797C25.5706 16.1329 25.8878 15.3229 26.3861 14.6154C26.8844 13.9079 27.5499 13.3228 28.3286 12.9076C29.312 12.407 30.3927 12.1062 31.5031 12.024C32.6242 11.9317 33.7526 12.0797 34.8064 12.4574C36.5059 13.1 37.9419 14.6989 38.5585 16.9069H38.5331V23.1963H39.7038C40.3496 23.1963 40.9994 22.6919 40.9994 22.0755V18.0295C40.9994 17.4112 40.3477 16.9087 39.7038 16.9087V16.9069Z" fill="white"/>
<path d="M17.292 38.716C17.832 38.716 18.278 38.858 18.63 39.142C18.986 39.426 19.216 39.81 19.32 40.294H18.234C18.154 40.098 18.03 39.944 17.862 39.832C17.698 39.72 17.502 39.664 17.274 39.664C16.974 39.664 16.732 39.774 16.548 39.994C16.364 40.214 16.272 40.508 16.272 40.876C16.272 41.244 16.364 41.538 16.548 41.758C16.732 41.974 16.974 42.082 17.274 42.082C17.502 42.082 17.698 42.026 17.862 41.914C18.03 41.802 18.154 41.65 18.234 41.458H19.32C19.216 41.938 18.986 42.322 18.63 42.61C18.278 42.894 17.832 43.036 17.292 43.036C16.88 43.036 16.518 42.946 16.206 42.766C15.894 42.582 15.652 42.326 15.48 41.998C15.312 41.67 15.228 41.296 15.228 40.876C15.228 40.456 15.312 40.082 15.48 39.754C15.652 39.426 15.894 39.172 16.206 38.992C16.518 38.808 16.88 38.716 17.292 38.716ZM21.461 39.61C21.793 39.61 22.089 39.68 22.349 39.82C22.613 39.956 22.819 40.154 22.967 40.414C23.119 40.674 23.195 40.978 23.195 41.326C23.195 41.674 23.119 41.978 22.967 42.238C22.819 42.498 22.613 42.698 22.349 42.838C22.089 42.974 21.793 43.042 21.461 43.042C21.129 43.042 20.831 42.974 20.567 42.838C20.303 42.698 20.095 42.498 19.943 42.238C19.795 41.978 19.721 41.674 19.721 41.326C19.721 40.978 19.795 40.674 19.943 40.414C20.095 40.154 20.303 39.956 20.567 39.82C20.831 39.68 21.129 39.61 21.461 39.61ZM21.461 40.498C21.265 40.498 21.099 40.57 20.963 40.714C20.831 40.854 20.765 41.058 20.765 41.326C20.765 41.594 20.831 41.798 20.963 41.938C21.099 42.078 21.265 42.148 21.461 42.148C21.657 42.148 21.821 42.078 21.953 41.938C22.085 41.798 22.151 41.594 22.151 41.326C22.151 41.058 22.085 40.854 21.953 40.714C21.821 40.57 21.657 40.498 21.461 40.498ZM25.851 39.616C26.235 39.616 26.539 39.744 26.763 40C26.991 40.256 27.105 40.608 27.105 41.056V43H26.079V41.176C26.079 40.952 26.019 40.778 25.899 40.654C25.783 40.526 25.627 40.462 25.431 40.462C25.223 40.462 25.057 40.528 24.933 40.66C24.813 40.792 24.753 40.98 24.753 41.224V43H23.727V39.652H24.753V40.264C24.849 40.064 24.991 39.906 25.179 39.79C25.371 39.674 25.595 39.616 25.851 39.616ZM29.6777 42.118V43H29.2157C28.8237 43 28.5177 42.904 28.2977 42.712C28.0817 42.516 27.9737 42.194 27.9737 41.746V40.516H27.5237V39.652H27.9737V38.83H28.9997V39.652H29.6717V40.516H28.9997V41.764C28.9997 41.896 29.0257 41.988 29.0777 42.04C29.1337 42.092 29.2257 42.118 29.3537 42.118H29.6777ZM31.5264 39.61C31.7824 39.61 32.0024 39.668 32.1864 39.784C32.3704 39.9 32.5064 40.058 32.5944 40.258V39.652H33.6144V43H32.5944V42.394C32.5064 42.594 32.3704 42.752 32.1864 42.868C32.0024 42.984 31.7824 43.042 31.5264 43.042C31.2504 43.042 31.0024 42.974 30.7824 42.838C30.5664 42.698 30.3944 42.498 30.2664 42.238C30.1424 41.978 30.0804 41.674 30.0804 41.326C30.0804 40.974 30.1424 40.67 30.2664 40.414C30.3944 40.154 30.5664 39.956 30.7824 39.82C31.0024 39.68 31.2504 39.61 31.5264 39.61ZM31.8564 40.51C31.6364 40.51 31.4584 40.582 31.3224 40.726C31.1904 40.87 31.1244 41.07 31.1244 41.326C31.1244 41.582 31.1904 41.782 31.3224 41.926C31.4584 42.07 31.6364 42.142 31.8564 42.142C32.0724 42.142 32.2484 42.068 32.3844 41.92C32.5244 41.772 32.5944 41.574 32.5944 41.326C32.5944 41.074 32.5244 40.876 32.3844 40.732C32.2484 40.584 32.0724 40.51 31.8564 40.51ZM35.8328 39.61C36.2648 39.61 36.6268 39.73 36.9188 39.97C37.2108 40.206 37.3948 40.532 37.4708 40.948H36.3848C36.3528 40.804 36.2868 40.692 36.1868 40.612C36.0868 40.532 35.9608 40.492 35.8088 40.492C35.6288 40.492 35.4808 40.564 35.3648 40.708C35.2488 40.848 35.1908 41.054 35.1908 41.326C35.1908 41.598 35.2488 41.806 35.3648 41.95C35.4808 42.09 35.6288 42.16 35.8088 42.16C35.9608 42.16 36.0868 42.12 36.1868 42.04C36.2868 41.96 36.3528 41.848 36.3848 41.704H37.4708C37.3948 42.12 37.2108 42.448 36.9188 42.688C36.6268 42.924 36.2648 43.042 35.8328 43.042C35.5048 43.042 35.2128 42.974 34.9568 42.838C34.7048 42.698 34.5068 42.498 34.3628 42.238C34.2188 41.978 34.1468 41.674 34.1468 41.326C34.1468 40.974 34.2168 40.67 34.3568 40.414C34.5008 40.154 34.7008 39.956 34.9568 39.82C35.2128 39.68 35.5048 39.61 35.8328 39.61ZM39.9023 42.118V43H39.4403C39.0483 43 38.7423 42.904 38.5223 42.712C38.3063 42.516 38.1983 42.194 38.1983 41.746V40.516H37.7483V39.652H38.1983V38.83H39.2243V39.652H39.8963V40.516H39.2243V41.764C39.2243 41.896 39.2503 41.988 39.3023 42.04C39.3583 42.092 39.4503 42.118 39.5783 42.118H39.9023ZM42.6762 38.758V41.206C42.6762 41.486 42.7382 41.7 42.8622 41.848C42.9902 41.996 43.1742 42.07 43.4142 42.07C43.6542 42.07 43.8362 41.996 43.9602 41.848C44.0882 41.7 44.1522 41.486 44.1522 41.206V38.758H45.1782V41.206C45.1782 41.606 45.1002 41.944 44.9442 42.22C44.7882 42.492 44.5742 42.698 44.3022 42.838C44.0342 42.974 43.7302 43.042 43.3902 43.042C43.0502 43.042 42.7502 42.974 42.4902 42.838C42.2302 42.702 42.0262 42.496 41.8782 42.22C41.7302 41.944 41.6562 41.606 41.6562 41.206V38.758H42.6762ZM47.0818 39.61C47.5058 39.61 47.8438 39.716 48.0958 39.928C48.3518 40.14 48.5118 40.42 48.5758 40.768H47.6158C47.5878 40.632 47.5238 40.526 47.4238 40.45C47.3278 40.37 47.2058 40.33 47.0578 40.33C46.9418 40.33 46.8538 40.356 46.7938 40.408C46.7338 40.456 46.7038 40.526 46.7038 40.618C46.7038 40.722 46.7578 40.8 46.8658 40.852C46.9778 40.904 47.1518 40.956 47.3878 41.008C47.6438 41.068 47.8538 41.13 48.0178 41.194C48.1818 41.254 48.3238 41.354 48.4438 41.494C48.5638 41.634 48.6238 41.822 48.6238 42.058C48.6238 42.25 48.5718 42.42 48.4678 42.568C48.3638 42.716 48.2138 42.832 48.0178 42.916C47.8218 43 47.5898 43.042 47.3218 43.042C46.8698 43.042 46.5078 42.942 46.2358 42.742C45.9638 42.542 45.7978 42.256 45.7378 41.884H46.7278C46.7438 42.028 46.8038 42.138 46.9078 42.214C47.0158 42.29 47.1538 42.328 47.3218 42.328C47.4378 42.328 47.5258 42.302 47.5858 42.25C47.6458 42.194 47.6758 42.122 47.6758 42.034C47.6758 41.918 47.6198 41.836 47.5078 41.788C47.3998 41.736 47.2218 41.682 46.9738 41.626C46.7258 41.574 46.5218 41.518 46.3618 41.458C46.2018 41.398 46.0638 41.302 45.9478 41.17C45.8318 41.034 45.7738 40.85 45.7738 40.618C45.7738 40.318 45.8878 40.076 46.1158 39.892C46.3438 39.704 46.6658 39.61 47.0818 39.61Z" fill="white"/>
<defs>
<filter id="filter0_d_751_4768" x="0" y="0" width="64" height="64" filterUnits="userSpaceOnUse" color-interpolation-filters="sRGB">
<feFlood flood-opacity="0" result="BackgroundImageFix"/>
<feColorMatrix in="SourceAlpha" type="matrix" values="0 0 0 0 0 0 0 0 0 0 0 0 0 0 0 0 0 0 127 0" result="hardAlpha"/>
<feOffset dy="3"/>
<feGaussianBlur stdDeviation="2"/>
<feComposite in2="hardAlpha" operator="out"/>
<feColorMatrix type="matrix" values="0 0 0 0 0 0 0 0 0 0 0 0 0 0 0 0 0 0 0.23 0"/>
<feBlend mode="normal" in2="BackgroundImageFix" result="effect1_dropShadow_751_4768"/>
<feBlend mode="normal" in="SourceGraphic" in2="effect1_dropShadow_751_4768" result="shape"/>
</filter>
</defs>
</svg>
