<svg width="41" height="41" viewBox="0 0 41 41" fill="none" xmlns="http://www.w3.org/2000/svg">
<rect width="41" height="41" rx="11" fill="white"/>
<path d="M28.9367 17.5409L28.5836 17.5412C27.609 13.9271 24.2926 11.3583 20.4964 11.3583C16.7227 11.3583 13.4097 13.9277 12.4189 17.5419L12.0629 17.5416C10.9254 17.5416 10 18.467 10 19.6045V21.9214C10 23.0587 10.9254 23.9839 12.0629 23.9839H12.3195C12.6497 26.5818 14.8741 28.5968 17.5605 28.5968H18.0531C18.3144 29.2103 18.9233 29.6416 19.6311 29.6416H21.3687C22.3141 29.6416 23.0832 28.8726 23.0832 27.9273C23.0832 26.9818 22.3141 26.2126 21.3687 26.2126H19.6311C18.9235 26.2126 18.3147 26.6438 18.0533 27.2571H17.5604C15.3859 27.2571 13.6169 25.4882 13.6169 23.3141V18.2869C14.3098 15.0449 17.1925 12.698 20.4964 12.698C23.8221 12.698 26.7082 15.044 27.3831 18.2844V23.3136C27.3831 23.6835 27.683 23.9834 28.0529 23.9834H28.9371C30.0745 23.9834 30.9999 23.0581 30.9999 21.9207V19.6038C31 18.4664 30.0746 17.5409 28.9367 17.5409ZM19.6311 27.5523H21.3687C21.5754 27.5523 21.7435 27.7205 21.7435 27.9273C21.7435 28.1339 21.5754 28.3019 21.3687 28.3019H19.6311C19.4245 28.3019 19.2565 28.1339 19.2565 27.9273C19.2565 27.7205 19.4245 27.5523 19.6311 27.5523ZM11.3397 21.9214V19.6045C11.3397 19.2058 11.6641 18.8813 12.0622 18.8813L12.2772 18.8815V22.6442H12.0629C11.6641 22.6443 11.3397 22.32 11.3397 21.9214ZM29.6603 21.9206C29.6603 22.3192 29.3359 22.6436 28.9372 22.6436H28.7229V18.8808L28.9372 18.8806C29.3359 18.8806 29.6603 19.205 29.6603 19.6038V21.9206Z" fill="#33363F"/>
</svg>
