<svg width="23" height="23" viewBox="0 0 26 30" fill="none" xmlns="http://www.w3.org/2000/svg">
<path d="M1.3 14.5013C1.3 11.8608 1.3278 10.9431 1.69078 10.1539C2.05376 9.36474 2.73238 8.74644 4.73721 7.02802L6.59435 5.43618C8.35011 3.93125 9.57653 2.88318 10.6154 2.19705C11.6238 1.53101 12.3209 1.3 13 1.3C13.6791 1.3 14.3762 1.53101 15.3846 2.19705C16.4235 2.88318 17.6499 3.93124 19.4056 5.43618L21.2628 7.02802C23.2676 8.74644 23.9462 9.36474 24.3092 10.1539C24.6722 10.9431 24.7 11.8608 24.7 14.5013V22.3763C24.7 24.164 24.6972 25.3739 24.5756 26.2786C24.459 27.1459 24.255 27.5356 23.9929 27.7977C23.7307 28.0599 23.3411 28.2639 22.4738 28.3805C21.5691 28.5021 20.3591 28.5049 18.5714 28.5049H7.42857C5.64089 28.5049 4.43091 28.5021 3.52621 28.3805C2.65892 28.2639 2.26927 28.0599 2.00713 27.7977C1.74498 27.5356 1.541 27.1459 1.42439 26.2786C1.30276 25.3739 1.3 24.164 1.3 22.3763V14.5013Z" stroke="white" stroke-width="2.6"/>
<path d="M17.6426 27.8047V17.6619C17.6426 17.1096 17.1949 16.6619 16.6426 16.6619H9.35693C8.80465 16.6619 8.35693 17.1096 8.35693 17.6619V27.8047" stroke="white" stroke-width="2.6" stroke-linecap="round" stroke-linejoin="round"/>
</svg>
