<svg width="27" height="33" viewBox="0 0 27 33" fill="none" xmlns="http://www.w3.org/2000/svg">
<path d="M19.3694 30.1318L24.2694 24.9756H19.3694V30.1318ZM21.9469 2.4707C21.9469 2.92456 21.5791 3.28979 21.128 3.28979C20.6743 3.28979 20.3091 2.92188 20.3091 2.4707V1.64087H1.63786V26.4124H2.44603C2.89979 26.4124 3.26495 26.7803 3.26495 27.2314C3.26495 27.6853 2.89711 28.0505 2.44603 28.0505H1.46871C1.06328 28.0505 0.695438 27.8867 0.429627 27.6182L0.432312 27.6155C0.163815 27.3469 3.25119e-05 26.979 3.25119e-05 26.5762V1.47168C-0.00265245 1.06616 0.16113 0.698242 0.429627 0.432373C0.695438 0.163818 1.06328 0 1.46871 0H20.4756C20.8783 0 21.2462 0.166504 21.512 0.432373L21.5147 0.435059C21.7805 0.700928 21.9469 1.06885 21.9469 1.47168V2.4707ZM26.9973 24.3176C26.9973 24.6936 26.745 25.0105 26.4013 25.1072L19.1841 32.6992C19.0337 32.8818 18.8055 32.9973 18.5504 32.9973C18.5343 32.9973 18.5182 32.9973 18.4994 32.9946C18.4833 32.9946 18.4672 32.9973 18.4511 32.9973H6.51913C6.1137 32.9973 5.74586 32.8335 5.48004 32.5649L5.48273 32.5623L5.48004 32.5596C5.21423 32.2937 5.04777 31.9258 5.04777 31.5229V6.41309C5.04777 6.00757 5.21423 5.63965 5.48004 5.37378L5.48273 5.37646C5.75123 5.1106 6.11907 4.94409 6.51913 4.94409H25.526C25.9287 4.94409 26.2966 5.1106 26.5624 5.37646L26.5651 5.37915C26.8309 5.64502 26.9973 6.01294 26.9973 6.41577V24.3176ZM25.3568 23.3374V6.59033H6.68828V31.3618H17.7315V24.1565C17.7315 23.7026 18.0994 23.3374 18.5504 23.3374H25.3568Z" fill="#6561C0"/>
</svg>
