<svg width="28" height="26" viewBox="0 0 28 26" fill="none" xmlns="http://www.w3.org/2000/svg">
<path d="M9.99919 22.815C11.7221 23.8097 13.6764 24.3333 15.6658 24.3333C17.6552 24.3333 19.6095 23.8097 21.3324 22.815C23.0553 21.8203 24.486 20.3896 25.4807 18.6667C26.4754 16.9438 26.999 14.9895 26.999 13.0001C26.999 11.0107 26.4754 9.05635 25.4807 7.33348C24.486 5.61062 23.0553 4.17993 21.3324 3.18523C19.6095 2.19054 17.6552 1.66687 15.6658 1.66687C13.6764 1.66687 11.7221 2.19054 9.99919 3.18523" stroke="#6561C0" stroke-width="2"/>
<path d="M1.5 13.0001L0.719131 12.3754L0.219375 13.0001L0.719131 13.6248L1.5 13.0001ZM14.2499 14.0001C14.8022 14.0001 15.2499 13.5524 15.2499 13.0001C15.2499 12.4479 14.8022 12.0001 14.2499 12.0001V14.0001ZM6.38574 5.29218L0.719131 12.3754L2.28087 13.6248L7.94748 6.54157L6.38574 5.29218ZM0.719131 13.6248L6.38574 20.7081L7.94748 19.4587L2.28087 12.3754L0.719131 13.6248ZM1.5 14.0001H14.2499V12.0001H1.5V14.0001Z" fill="#6561C0"/>
</svg>
