<svg width="186" height="32" viewBox="0 0 186 32" fill="none" xmlns="http://www.w3.org/2000/svg">
<path d="M12.616 28H2.014V6.188L0 0.487999H12.616C15.124 0.563998 17.138 2.578 17.328 5.086V23.782C16.986 26.062 14.972 27.924 12.616 28ZM11.59 22.3V6.188H7.714V22.3H11.59ZM33.2892 0.487999L35.5692 28.038H29.8692L28.9572 17.132H26.2212L25.3092 28.038H19.6092L20.4832 17.132L18.5072 11.432H20.9772L21.3952 6.226L19.4192 0.487999H27.5892H33.2892ZM26.6772 11.432H28.5012L28.0452 6.226H27.1332L26.6772 11.432ZM43.4937 28H37.7557V6.188L35.7797 0.487999H53.9437V15.764L43.4937 21.768V28ZM43.4937 15.194L48.2057 12.458V6.188H43.4937V15.194ZM66.9901 28H55.8941V22.3H58.5921V6.188H55.8941V0.487999H65.3561L67.3321 6.188H64.2921V22.3H66.9901V28ZM83.3904 28H69.1024V6.188L67.3164 0.487999H81.3764L83.3904 6.188H74.8024V22.3H83.3904V28ZM101.202 31.686V28H96.072V27.962C93.716 27.886 91.778 26.062 91.436 23.782H91.36V5.428L89.916 0.487999H106.712V7.822L101.012 9.684V6.188H97.098V22.3H101.202V20.628H100.062L98.048 14.89H106.902V28.836L101.202 31.686ZM122.611 0.487999L124.891 28.038H119.191L118.279 17.132H115.543L114.631 28.038H108.931L109.805 17.132L107.829 11.432H110.299L110.717 6.226L108.741 0.487999H116.911H122.611ZM115.999 11.432H117.823L117.367 6.226H116.455L115.999 11.432ZM151.094 28H145.356V7.594L141.898 10.216V19.45L136.198 21.996V10.216L132.702 7.556V28H127.002V5.998L125.064 0.487999H132.74L139.048 5.77L145.356 0.487999H151.094V28ZM167.562 28H153.274V17.094L151.184 11.394H153.274V6.188L151.526 0.487999H165.586L167.562 6.188H159.012V11.394H165.586L167.562 17.094H159.012V22.3H167.562V28ZM185.637 28H169.449V19.564L175.187 17.702V22.3H179.899V18.158L169.449 12.116V0.487999H185.637V7.822L179.899 9.684V6.188H175.187V8.848L185.637 14.852V28Z" fill="white"/>
</svg>
