<svg width="456" height="503" viewBox="0 0 456 503" fill="none" xmlns="http://www.w3.org/2000/svg">
<path fill-rule="evenodd" clip-rule="evenodd" d="M383.196 502.674C339.372 498.761 239.463 491.718 193.291 499.283C153.119 498.761 110.077 500.587 71.4704 502.674C67.2966 500.848 55.0363 484.675 51.3843 473.197C48.7757 457.807 57.384 304.161 58.9492 279.38C58.4275 262.685 57.1232 245.99 54.7754 229.295C54.2537 184.166 55.0363 202.687 58.1666 157.559C55.558 129.647 55.8189 93.9093 55.8189 65.9974C59.4709 58.9543 64.1663 52.4328 70.1661 46.4331C106.947 44.3462 176.075 41.9985 208.16 39.3899C245.724 41.7376 286.157 42.2593 321.112 42.781C339.633 45.3896 361.284 46.4331 380.587 50.6068C385.805 55.5631 391.283 61.8237 394.935 67.3017C395.196 94.1701 393.891 128.082 391.543 155.472C392.848 165.124 395.196 175.036 395.717 182.601C395.456 197.731 394.413 210.252 392.326 223.034C391.543 260.598 393.109 298.161 395.978 335.725C391.283 406.678 395.717 411.374 404.586 470.067C400.674 486.762 386.848 501.892 383.196 502.674Z" fill="white"/>
<path fill-rule="evenodd" clip-rule="evenodd" d="M119.99 87.6485C133.293 71.997 147.119 58.9541 161.205 48.7806C161.727 47.7372 163.814 45.3895 166.683 42.2592C178.422 29.2163 204.508 2.34785 206.595 0.260986C172.683 2.86957 99.9035 5.47816 61.0356 7.56502C55.8184 12.7822 51.6447 18.2602 47.9927 24.5208C53.9924 30.2597 61.0356 37.3029 67.8179 44.8678C68.3396 45.6503 69.1222 46.1721 69.6439 46.9546C84.7737 63.9104 99.3818 81.9096 106.164 89.9963C112.164 97.0394 113.99 94.6917 119.99 87.6485Z" fill="white"/>
<path fill-rule="evenodd" clip-rule="evenodd" d="M166.683 51.1282C186.248 69.1275 261.114 104.865 265.81 104.082C266.853 103.822 267.636 103.3 268.679 102.256C269.462 94.4307 269.201 67.0406 268.94 41.9982C268.679 25.5641 268.679 10.4343 268.418 2.60858C247.81 2.08687 226.942 1.30429 206.856 0L168.77 41.7373L167.205 43.5633C165.118 46.9545 164.597 49.5631 166.683 51.1282Z" fill="white"/>
<path fill-rule="evenodd" clip-rule="evenodd" d="M271.287 42.259C272.07 65.2145 272.331 91.3003 272.331 107.213C285.635 131.212 296.591 156.515 305.982 182.862C308.59 190.426 310.155 191.209 317.981 192.253C323.981 193.035 333.633 193.557 343.284 194.079C351.11 194.6 359.197 195.383 365.457 195.905C369.37 196.165 372.761 194.6 375.37 191.731C381.37 184.427 387.108 178.166 392.847 172.688C393.108 172.427 393.369 171.906 393.63 171.645C396.76 167.471 400.934 161.993 404.586 155.732C404.586 154.167 404.586 152.602 404.586 151.037C403.803 143.211 401.456 132.516 400.151 122.342C400.934 112.691 401.717 101.996 402.238 91.0395C401.195 85.8223 400.412 80.866 399.63 75.6488C389.978 55.041 382.152 31.8246 375.892 9.12997C359.197 6.52139 341.458 5.47796 326.068 3.39109C308.068 3.13023 288.504 2.86937 268.418 2.34766C269.983 10.956 270.766 25.8249 271.287 42.259Z" fill="white"/>
<path fill-rule="evenodd" clip-rule="evenodd" d="M375.892 9.65186C384.24 33.1291 398.587 67.5624 401.717 75.1273C401.978 77.7359 402.5 80.3445 402.761 82.953C403.543 64.4321 404.065 45.9112 403.804 29.7379C399.891 23.9991 394.152 17.2167 388.674 12.2604C384.5 11.217 380.066 10.4344 375.892 9.65186Z" fill="white"/>
<path fill-rule="evenodd" clip-rule="evenodd" d="M305.46 196.166C295.808 164.602 284.591 139.821 272.592 115.3V115.561C248.071 98.6049 234.506 94.692 211.29 81.1274C193.291 70.6931 179.205 63.6499 165.118 53.9981C161.988 51.6504 154.945 56.3459 152.336 58.4327C138.511 70.1713 125.989 83.736 114.512 99.3875C94.9473 167.471 88.165 233.208 63.3834 297.118C63.1226 317.204 62.8617 337.29 62.6008 357.376C62.34 367.811 66.7746 374.332 70.1657 379.028C73.5569 395.462 88.165 456.502 93.643 488.849C113.729 488.849 133.293 489.371 152.858 490.153C175.292 481.806 198.769 470.067 213.638 458.068C220.942 456.242 239.463 453.633 248.071 450.503C253.549 448.677 254.593 447.112 256.158 441.634C265.288 410.331 277.287 380.071 291.113 350.333C292.156 299.205 296.852 245.99 305.46 196.166Z" fill="white"/>
<path fill-rule="evenodd" clip-rule="evenodd" d="M58.688 296.335C81.6435 243.12 86.5998 183.123 104.338 124.169C109.555 107.213 108.512 101.735 102.773 92.3442C94.9473 79.823 82.4261 63.1281 68.8615 47.9983C68.3398 47.4766 67.818 46.694 67.2963 46.1723C60.7749 38.8682 53.9925 31.8251 47.7319 25.5645C47.2102 26.347 46.6885 27.3905 46.1668 28.173C46.1668 57.65 45.6451 95.2136 48.5145 124.691C45.1234 172.167 44.6016 152.863 44.8625 200.34C47.4711 218.078 48.5145 235.555 49.2971 253.294C46.4277 298.161 45.3842 338.855 45.1234 382.419C46.1668 381.636 46.9494 380.593 47.9928 379.81C50.8622 376.941 53.21 374.854 54.7751 372.767C60.7749 365.724 60.2531 361.811 60.514 352.681C61.2966 333.899 60.7749 314.856 58.688 296.335Z" fill="white"/>
<path fill-rule="evenodd" clip-rule="evenodd" d="M93.3828 488.849C85.0353 458.328 75.9053 408.765 67.5578 380.853C66.7753 378.245 65.471 376.68 64.6884 375.375C61.819 370.68 58.6887 373.549 55.8192 375.897L54.7758 376.941L45.124 385.288C45.124 387.897 45.124 390.505 45.124 392.853C46.95 403.287 48.2543 413.722 48.2543 424.417C47.4718 439.807 48.2543 459.111 50.0803 470.328C50.6021 473.719 55.2975 481.806 59.4712 486.24C60.5147 487.544 61.819 488.327 62.6015 488.849C73.0359 488.849 83.2093 488.588 93.3828 488.849Z" fill="white"/>
<path fill-rule="evenodd" clip-rule="evenodd" d="M379.805 195.383C381.631 195.383 387.631 194.6 394.935 194.079C397.022 193.818 399.109 193.818 401.196 193.557C403.022 182.601 404.065 171.645 404.587 159.124C400.152 165.906 395.457 172.688 394.413 174.254C394.413 174.254 394.153 174.254 394.153 174.514C387.631 178.688 382.675 184.688 377.458 192.514C375.11 195.905 376.153 195.644 379.805 195.383Z" fill="white"/>
<path fill-rule="evenodd" clip-rule="evenodd" d="M336.502 433.807C322.677 411.895 308.851 386.592 298.156 360.245C294.504 351.376 292.939 353.202 290.07 359.723C277.027 388.679 265.81 418.416 256.941 449.719C255.636 454.937 255.115 472.936 254.332 487.544C294.504 489.631 339.111 489.37 380.066 488.848C377.457 479.979 352.936 446.589 336.502 433.807Z" fill="white"/>
<path fill-rule="evenodd" clip-rule="evenodd" d="M253.289 458.067C253.289 455.198 253.81 453.111 249.898 452.85C246.767 452.589 221.203 460.154 216.247 461.198C203.465 469.284 176.335 483.371 156.51 490.153C168.771 490.675 180.77 491.457 192.77 492.24C208.421 489.631 224.333 486.762 239.985 486.762C244.42 487.023 249.115 487.283 253.55 487.544C253.55 477.371 253.55 464.328 253.289 458.067Z" fill="white"/>
<path fill-rule="evenodd" clip-rule="evenodd" d="M310.157 25.0424C290.332 19.5644 143.729 17.4775 66.5151 20.6078C66.776 30.5204 67.0368 40.433 67.2977 50.3456L94.9487 53.4759L67.5585 58.6931C68.602 106.691 68.8628 154.95 68.3411 203.469L82.9492 208.687L68.3411 212.86C67.2977 281.727 64.6891 350.854 59.9937 419.721C71.2106 436.416 82.4275 453.111 93.6444 470.067C98.3398 472.154 295.81 474.24 374.85 473.719C374.067 451.546 373.806 429.112 373.545 406.939L363.111 400.417L368.067 394.679L367.285 389.983L373.545 386.331C373.284 314.595 375.893 243.12 380.588 171.906L372.763 167.732L376.936 160.95L365.72 155.211L382.154 151.82C384.501 122.343 387.11 92.8655 390.24 63.6494C363.372 50.6065 336.764 37.8244 310.157 25.0424Z" fill="url(#paint0_linear_533_4409)"/>
<path d="M187.848 148.392C186.261 148.392 184.721 148.196 183.228 147.804C181.735 147.412 180.521 146.889 179.588 146.236L181.408 142.148C182.285 142.727 183.303 143.193 184.46 143.548C185.617 143.903 186.756 144.08 187.876 144.08C190.004 144.08 191.068 143.548 191.068 142.484C191.068 141.924 190.76 141.513 190.144 141.252C189.547 140.972 188.576 140.683 187.232 140.384C185.757 140.067 184.525 139.731 183.536 139.376C182.547 139.003 181.697 138.415 180.988 137.612C180.279 136.809 179.924 135.727 179.924 134.364C179.924 133.169 180.251 132.096 180.904 131.144C181.557 130.173 182.528 129.408 183.816 128.848C185.123 128.288 186.719 128.008 188.604 128.008C189.892 128.008 191.161 128.157 192.412 128.456C193.663 128.736 194.764 129.156 195.716 129.716L194.008 133.832C192.141 132.824 190.331 132.32 188.576 132.32C187.475 132.32 186.672 132.488 186.168 132.824C185.664 133.141 185.412 133.561 185.412 134.084C185.412 134.607 185.711 134.999 186.308 135.26C186.905 135.521 187.867 135.792 189.192 136.072C190.685 136.389 191.917 136.735 192.888 137.108C193.877 137.463 194.727 138.041 195.436 138.844C196.164 139.628 196.528 140.701 196.528 142.064C196.528 143.24 196.201 144.304 195.548 145.256C194.895 146.208 193.915 146.973 192.608 147.552C191.301 148.112 189.715 148.392 187.848 148.392ZM207.453 148.252C205.829 148.252 204.364 147.916 203.057 147.244C201.75 146.572 200.724 145.639 199.977 144.444C199.249 143.249 198.885 141.896 198.885 140.384C198.885 138.891 199.249 137.547 199.977 136.352C200.724 135.157 201.741 134.233 203.029 133.58C204.336 132.908 205.81 132.572 207.453 132.572C209.096 132.572 210.57 132.908 211.877 133.58C213.184 134.233 214.201 135.157 214.929 136.352C215.657 137.528 216.021 138.872 216.021 140.384C216.021 141.896 215.657 143.249 214.929 144.444C214.201 145.639 213.184 146.572 211.877 147.244C210.57 147.916 209.096 148.252 207.453 148.252ZM207.453 144.024C208.386 144.024 209.152 143.707 209.749 143.072C210.346 142.419 210.645 141.523 210.645 140.384C210.645 139.264 210.346 138.387 209.749 137.752C209.152 137.117 208.386 136.8 207.453 136.8C206.52 136.8 205.754 137.117 205.157 137.752C204.56 138.387 204.261 139.264 204.261 140.384C204.261 141.523 204.56 142.419 205.157 143.072C205.754 143.707 206.52 144.024 207.453 144.024ZM224.553 134.644C225.095 133.953 225.795 133.44 226.653 133.104C227.531 132.749 228.529 132.572 229.649 132.572V137.36C229.164 137.304 228.763 137.276 228.445 137.276C227.307 137.276 226.411 137.584 225.757 138.2C225.123 138.816 224.805 139.759 224.805 141.028V148H219.485V132.824H224.553V134.644ZM237.913 134.644C238.454 133.953 239.154 133.44 240.013 133.104C240.89 132.749 241.889 132.572 243.009 132.572V137.36C242.523 137.304 242.122 137.276 241.805 137.276C240.666 137.276 239.77 137.584 239.117 138.2C238.482 138.816 238.165 139.759 238.165 141.028V148H232.845V132.824H237.913V134.644ZM262.657 132.824L256.105 148.616C255.34 150.483 254.406 151.789 253.305 152.536C252.204 153.301 250.86 153.684 249.273 153.684C248.47 153.684 247.658 153.553 246.837 153.292C246.034 153.049 245.381 152.723 244.877 152.312L246.725 148.588C247.024 148.868 247.378 149.083 247.789 149.232C248.218 149.4 248.648 149.484 249.077 149.484C249.581 149.484 249.992 149.381 250.309 149.176C250.645 148.971 250.925 148.644 251.149 148.196L244.653 132.824H250.113L253.837 142.092L257.589 132.824H262.657Z" fill="white"/>
<path opacity="0.4" fill-rule="evenodd" clip-rule="evenodd" d="M328.157 470.589C361.546 470.328 370.937 451.807 373.546 430.417C373.807 444.764 374.068 458.85 374.589 473.197C314.331 473.719 185.989 472.676 125.73 471.11C172.946 469.024 189.119 463.806 230.074 456.502C257.986 451.546 262.942 455.72 289.549 464.328C300.506 467.98 312.244 470.85 328.157 470.589Z" fill="url(#paint1_radial_533_4409)"/>
<path opacity="0.35" fill-rule="evenodd" clip-rule="evenodd" d="M304.418 23.9989C293.723 24.7815 280.158 28.1726 267.898 30.7812C251.986 33.9115 241.03 32.8681 229.552 30.5204C198.771 24.5206 173.989 21.6512 145.034 19.3035C210.509 19.0426 281.463 20.8686 304.418 23.9989Z" fill="url(#paint2_radial_533_4409)"/>
<path opacity="0.75" fill-rule="evenodd" clip-rule="evenodd" d="M155.989 265.38C156.51 265.641 157.293 265.38 157.815 265.12C158.336 264.859 158.597 264.076 158.597 263.554C159.119 257.816 155.728 246.86 156.771 244.251C157.554 241.642 166.684 234.599 169.814 229.643C170.075 229.121 170.336 228.599 170.075 227.817C169.814 227.295 169.553 226.773 168.771 226.513C163.553 224.426 152.076 223.904 149.728 222.339C147.641 220.774 143.467 209.818 139.815 205.644C139.294 205.122 138.772 204.861 138.25 204.861C137.728 204.861 136.946 205.122 136.685 205.644C133.033 210.079 129.12 220.774 126.772 222.339C124.686 223.904 112.947 224.426 107.73 226.513C107.208 226.773 106.686 227.295 106.425 227.817C106.165 228.339 106.425 229.121 106.686 229.643C109.817 234.599 118.686 241.642 119.729 244.251C120.512 246.86 117.381 257.816 117.903 263.554C117.903 264.076 118.164 264.859 118.686 265.12C119.208 265.38 119.729 265.641 120.512 265.38C125.99 264.076 135.642 257.555 138.25 257.555C140.859 257.555 150.25 264.076 155.989 265.38Z" fill="#7B6A58"/>
<path fill-rule="evenodd" clip-rule="evenodd" d="M137.989 196.774C137.206 196.774 136.685 197.035 136.163 197.557C132.25 202.252 128.337 215.556 125.468 215.817C118.685 216.339 106.947 216.86 103.556 216.86C103.295 217.904 103.295 221.295 103.556 222.599C103.556 222.86 103.816 223.121 103.816 223.382C107.208 228.599 116.859 236.425 117.903 239.033C117.12 242.946 115.816 250.511 115.816 253.642C115.816 255.728 115.816 257.815 115.816 259.902C115.816 260.685 116.077 261.206 116.859 261.467C117.381 261.989 118.164 261.989 118.685 261.728C124.685 260.163 135.119 253.381 137.989 253.381C140.858 253.381 151.293 260.424 157.292 261.728C158.075 261.989 158.597 261.728 159.118 261.467C159.64 260.946 159.901 260.424 160.162 259.902C160.423 257.815 160.162 255.728 160.162 253.642C159.901 250.511 158.857 242.946 158.075 239.033C158.857 236.164 168.77 228.599 172.161 223.382C172.422 223.121 172.422 222.86 172.422 222.599C172.683 221.295 172.683 217.904 172.422 216.86C168.77 216.6 157.292 216.339 150.51 215.817C147.641 215.556 143.989 202.513 139.815 197.557C139.293 197.035 138.771 196.774 137.989 196.774Z" fill="url(#paint3_radial_533_4409)"/>
<path fill-rule="evenodd" clip-rule="evenodd" d="M157.292 256.772C158.075 257.033 158.597 256.772 159.118 256.511C159.64 255.99 159.901 255.468 160.162 254.946C160.684 248.686 157.292 236.686 158.075 234.078C158.858 231.208 168.77 223.643 172.161 218.426C172.422 217.904 172.683 217.122 172.422 216.6C172.161 215.818 171.64 215.557 171.118 215.296C165.379 212.948 152.858 212.426 150.51 210.861C148.162 209.035 143.989 197.557 139.815 192.601C139.293 192.079 138.771 191.819 137.989 191.819C137.206 191.819 136.685 192.079 136.163 192.601C132.25 197.297 127.815 209.035 125.468 210.861C123.12 212.687 110.599 212.948 104.86 215.296C104.338 215.557 103.816 216.078 103.556 216.6C103.295 217.383 103.295 217.904 103.816 218.426C107.208 223.643 116.859 231.469 117.903 234.078C118.685 236.947 115.294 248.947 115.816 254.946C115.816 255.729 116.077 256.251 116.859 256.511C117.381 257.033 118.164 257.033 118.685 256.772C124.685 255.207 135.119 248.425 137.989 248.425C141.119 248.425 151.293 255.207 157.292 256.772Z" fill="url(#paint4_radial_533_4409)"/>
<path fill-rule="evenodd" clip-rule="evenodd" d="M169.814 217.904C162.771 222.861 159.119 225.73 152.858 229.904C152.075 230.426 151.293 231.469 151.554 232.512C153.38 238.251 158.336 247.381 158.858 253.12C159.119 256.511 156.249 255.468 154.423 254.685C148.684 252.077 144.511 248.686 139.033 245.816C136.946 244.773 135.381 245.034 133.555 246.338C130.163 248.425 124.164 253.903 119.207 255.468C117.903 255.99 116.86 255.729 116.338 255.207C116.338 255.729 116.86 256.251 117.12 256.511C117.642 257.033 118.425 257.033 118.946 256.772C124.946 255.207 135.381 248.425 138.25 248.425C141.119 248.425 151.554 255.468 157.553 256.772C158.336 257.033 158.858 256.772 159.38 256.511C159.901 255.99 160.162 255.468 160.423 254.946C160.945 248.686 157.554 236.686 158.336 234.078C159.119 231.208 169.031 223.643 172.422 218.426C172.683 217.904 172.944 217.122 172.683 216.6C172.422 215.818 171.901 215.557 171.379 215.296C165.64 212.948 153.119 212.426 150.771 210.861C148.423 209.035 144.25 197.557 140.076 192.601C139.554 192.079 139.033 191.819 138.25 191.819C137.467 191.819 136.946 192.079 136.424 192.601C135.902 193.384 135.12 194.166 134.598 195.21C136.424 193.384 138.25 192.34 139.815 194.688C142.685 199.383 143.989 204.34 145.815 209.035C146.858 211.905 147.38 213.209 153.119 213.47C159.64 213.992 165.118 214.252 169.292 215.035C171.118 215.296 171.118 216.861 169.814 217.904Z" fill="url(#paint5_radial_533_4409)"/>
<path fill-rule="evenodd" clip-rule="evenodd" d="M118.425 215.818C117.121 215.557 117.382 214.252 118.686 213.992C120.512 213.47 122.599 213.47 124.425 212.948C126.251 212.426 127.555 211.905 128.599 209.557C130.685 205.383 132.772 199.905 134.859 196.253C135.642 194.949 136.424 195.21 136.424 196.514C135.642 201.21 134.598 205.905 133.294 210.6C132.511 212.948 131.729 215.557 128.599 215.818C126.251 216.078 121.034 216.339 118.425 215.818ZM113.73 214.252C112.165 214.252 109.295 214.774 107.469 215.296C105.382 216.078 105.904 216.339 107.73 216.6C109.556 216.6 111.643 216.6 113.469 216.6C116.077 216.339 115.817 213.992 113.73 214.252Z" fill="url(#paint6_radial_533_4409)"/>
<path fill-rule="evenodd" clip-rule="evenodd" d="M152.857 251.294C152.075 251.555 149.727 252.077 152.335 253.642C153.379 254.164 154.683 254.685 155.987 254.946C158.596 255.729 158.596 253.903 158.335 251.816C157.553 248.164 155.987 243.729 154.422 240.077C153.64 238.512 152.857 237.469 153.118 240.077C153.379 242.947 153.901 246.077 154.161 248.947C153.901 250.512 153.901 250.773 152.857 251.294Z" fill="url(#paint7_radial_533_4409)"/>
<path fill-rule="evenodd" clip-rule="evenodd" d="M117.903 238.773C118.163 236.426 118.424 234.6 118.163 233.817C117.381 230.948 107.468 223.383 104.077 218.166C103.816 217.905 103.816 217.383 103.816 216.861C103.555 217.905 103.555 221.296 103.816 222.6C103.816 222.861 104.077 223.122 104.077 223.383C107.207 228.6 116.337 235.643 117.903 238.773Z" fill="url(#paint8_radial_533_4409)"/>
<path fill-rule="evenodd" clip-rule="evenodd" d="M172.161 218.165C168.77 223.382 159.118 231.208 158.075 233.817C157.814 234.599 157.814 236.425 158.336 238.773C159.901 235.643 169.031 228.599 172.161 223.643C172.422 223.382 172.422 223.121 172.422 222.86C172.683 221.556 172.683 218.165 172.422 217.122C172.422 217.382 172.422 217.643 172.161 218.165Z" fill="url(#paint9_radial_533_4409)"/>
<path fill-rule="evenodd" clip-rule="evenodd" d="M157.292 256.772C151.293 255.207 140.858 248.425 137.989 248.425C139.032 248.946 138.771 253.12 137.989 253.903C140.858 253.903 151.293 260.946 157.292 262.25C158.075 262.511 158.597 262.25 159.118 261.989C159.64 261.467 159.901 260.946 160.162 260.424C160.423 258.337 160.162 256.25 160.162 254.163C160.162 254.424 160.162 254.685 160.162 254.946C160.162 255.729 159.901 256.25 159.118 256.511C158.597 256.772 158.075 257.033 157.292 256.772Z" fill="url(#paint10_radial_533_4409)"/>
<path opacity="0.5" fill-rule="evenodd" clip-rule="evenodd" d="M119.729 261.989C119.468 261.206 119.207 257.293 119.729 256.511C119.468 256.511 119.207 256.772 118.946 256.772C118.164 257.033 117.642 256.772 117.12 256.511C116.599 256.25 116.338 255.728 116.338 255.207V254.946C116.338 254.685 116.338 254.424 116.338 254.163C116.338 256.25 116.338 258.337 116.338 260.424C116.338 261.206 116.599 261.728 117.381 261.989C117.903 262.511 118.686 262.511 119.207 262.25C119.207 262.25 119.468 261.989 119.729 261.989Z" fill="url(#paint11_radial_533_4409)"/>
<path opacity="0.5" fill-rule="evenodd" clip-rule="evenodd" d="M156.51 261.989C156.771 261.206 157.031 257.293 156.51 256.511C156.771 256.511 157.031 256.772 157.292 256.772C158.075 257.033 158.597 256.772 159.118 256.511C159.64 256.25 159.901 255.728 159.901 255.207V254.946C159.901 254.685 159.901 254.424 159.901 254.163C159.901 256.25 159.901 258.337 159.901 260.424C159.901 261.206 159.64 261.728 158.857 261.989C158.336 262.511 157.553 262.511 157.031 262.25C157.031 262.25 156.771 261.989 156.51 261.989Z" fill="url(#paint12_radial_533_4409)"/>
<path opacity="0.5" fill-rule="evenodd" clip-rule="evenodd" d="M106.425 226.513C105.642 224.687 105.642 221.035 106.425 221.035C105.642 219.992 104.86 218.948 104.077 218.166C103.816 217.905 103.816 217.383 103.816 216.861C103.555 217.905 103.555 221.296 103.816 222.6C103.816 222.861 104.077 223.122 104.077 223.383C104.599 224.426 105.381 225.47 106.425 226.513Z" fill="url(#paint13_radial_533_4409)"/>
<path opacity="0.5" fill-rule="evenodd" clip-rule="evenodd" d="M169.813 226.513C170.596 224.687 170.596 221.035 169.813 221.035C170.596 219.992 171.379 218.948 172.161 218.166C172.422 217.905 172.422 217.383 172.422 216.861C172.683 217.905 172.683 221.296 172.422 222.6C172.422 222.861 172.161 223.122 172.161 223.383C171.379 224.426 170.857 225.47 169.813 226.513Z" fill="url(#paint14_radial_533_4409)"/>
<path opacity="0.75" fill-rule="evenodd" clip-rule="evenodd" d="M244.157 268.25C244.939 268.511 245.461 268.25 245.983 267.989C246.505 267.467 246.765 266.946 247.026 266.424C247.548 260.424 244.157 248.425 244.939 245.555C245.722 242.686 255.635 235.121 258.765 229.904C259.026 229.382 259.287 228.6 259.026 228.078C258.765 227.295 258.243 227.034 257.721 226.774C251.983 224.426 239.722 223.904 237.375 222.339C235.027 220.513 230.853 209.035 226.94 204.34C226.418 203.818 225.897 203.557 225.114 203.557C224.332 203.557 223.81 203.818 223.288 204.34C219.375 209.035 215.202 220.774 212.854 222.339C210.506 224.165 198.246 224.426 192.507 226.774C191.985 227.034 191.463 227.556 191.203 228.078C190.942 228.86 190.942 229.382 191.463 229.904C194.594 235.121 204.506 242.686 205.289 245.555C206.072 248.425 202.68 260.163 203.202 266.424C203.202 267.207 203.463 267.728 204.246 267.989C204.767 268.511 205.55 268.511 206.072 268.25C212.071 266.685 222.245 259.903 225.114 259.903C227.984 259.903 238.157 266.685 244.157 268.25Z" fill="#7B6A58"/>
<path fill-rule="evenodd" clip-rule="evenodd" d="M224.854 194.427C224.072 194.427 223.55 194.688 223.028 195.21C218.854 200.427 214.681 214.513 211.55 214.774C204.246 215.557 191.725 215.817 187.812 216.078C187.551 217.383 187.551 220.774 187.812 222.339C187.812 222.6 188.073 222.861 188.073 223.121C191.725 228.86 202.16 236.947 203.203 240.077C202.42 244.251 201.116 252.338 200.855 255.729C200.855 257.816 200.855 260.424 200.855 262.511C200.855 263.294 201.377 263.815 201.899 264.337C202.42 264.859 203.203 264.859 203.986 264.859C210.507 263.294 221.463 255.729 224.593 255.729C227.724 255.729 238.941 263.294 245.201 264.859C245.984 265.12 246.505 264.859 247.288 264.337C247.81 263.815 248.331 263.294 248.331 262.511C248.592 260.424 248.331 257.816 248.331 255.729C248.071 252.338 246.766 243.99 245.984 240.077C247.027 237.208 257.462 228.86 261.114 223.121C261.374 222.861 261.374 222.6 261.374 222.339C261.635 220.774 261.635 217.383 261.374 216.078C257.462 215.817 245.201 215.557 237.636 214.774C234.506 214.513 230.593 200.427 226.159 195.21C226.419 194.688 225.637 194.427 224.854 194.427Z" fill="url(#paint15_radial_533_4409)"/>
<path fill-rule="evenodd" clip-rule="evenodd" d="M245.723 258.859C246.506 259.12 247.028 258.859 247.81 258.337C248.332 257.815 248.854 257.294 248.854 256.511C249.375 249.99 245.723 236.947 246.506 234.077C247.549 231.208 257.984 222.86 261.636 217.121C262.157 216.6 262.157 215.817 261.896 215.035C261.636 214.252 261.114 213.73 260.592 213.469C254.332 210.861 241.028 210.6 238.419 208.774C235.811 206.948 231.376 194.427 226.941 189.21C226.42 188.688 225.898 188.427 225.115 188.427C224.333 188.427 223.811 188.688 223.289 189.21C219.116 194.427 214.42 206.948 211.812 208.774C209.203 210.6 195.899 211.122 189.639 213.469C188.856 213.73 188.334 214.252 188.334 215.035C188.074 215.817 188.074 216.339 188.595 217.121C192.247 222.86 202.682 230.947 203.725 234.077C204.769 236.947 201.116 249.99 201.377 256.511C201.377 257.294 201.899 257.815 202.421 258.337C202.943 258.859 203.725 258.859 204.508 258.859C211.029 257.294 221.985 249.729 225.115 249.729C228.246 249.729 239.202 257.294 245.723 258.859Z" fill="url(#paint16_radial_533_4409)"/>
<path fill-rule="evenodd" clip-rule="evenodd" d="M259.026 217.122C251.461 222.339 247.288 225.73 240.766 229.904C239.984 230.426 238.94 231.73 239.462 232.773C241.288 239.034 246.766 248.946 247.288 254.946C247.548 258.598 244.418 257.555 242.592 256.772C236.332 254.164 232.158 250.251 225.897 247.12C223.55 246.077 221.984 246.338 219.898 247.642C216.245 249.99 209.724 255.729 204.246 257.555C202.681 258.077 201.637 257.816 201.116 257.294C201.377 257.816 201.637 258.337 202.159 258.598C202.681 259.12 203.463 259.12 204.246 259.12C210.767 257.555 221.724 249.99 224.854 249.99C227.984 249.99 239.201 257.555 245.462 259.12C246.244 259.381 246.766 259.12 247.548 258.598C248.07 258.077 248.592 257.555 248.592 256.772C249.114 250.251 245.462 237.208 246.244 234.338C247.288 231.469 257.722 223.122 261.374 217.383C261.896 216.861 261.896 216.078 261.635 215.296C261.374 214.513 260.852 213.991 260.331 213.731C254.07 211.122 240.766 210.861 238.158 209.035C235.549 207.209 231.114 194.688 226.68 189.471C226.158 188.949 225.636 188.688 224.854 188.688C224.071 188.688 223.55 188.949 223.028 189.471C222.245 190.253 221.724 191.297 220.941 192.34C222.767 190.514 224.854 189.21 226.419 191.819C229.549 196.775 231.114 202.253 232.68 207.209C233.723 210.339 234.506 211.644 240.505 212.165C247.548 212.687 253.548 213.209 257.722 213.731C260.331 214.252 260.591 215.817 259.026 217.122Z" fill="url(#paint17_radial_533_4409)"/>
<path fill-rule="evenodd" clip-rule="evenodd" d="M203.724 214.774C202.42 214.513 202.681 212.948 203.985 212.687C206.072 212.165 208.159 212.165 210.246 211.644C212.333 211.122 213.637 210.339 214.941 207.992C217.028 203.557 219.376 197.557 221.724 193.644C222.506 192.079 223.55 192.34 223.289 193.905C222.506 199.122 221.463 203.818 219.898 209.035C219.115 211.644 218.332 214.252 214.941 214.774C212.072 215.296 206.333 215.296 203.724 214.774ZM198.768 213.209C197.203 213.209 194.073 213.73 191.986 214.513C189.899 215.296 190.16 215.817 192.247 215.817C194.333 215.817 196.42 215.817 198.507 215.817C201.377 215.296 200.855 212.948 198.768 213.209Z" fill="url(#paint18_radial_533_4409)"/>
<path fill-rule="evenodd" clip-rule="evenodd" d="M240.767 252.859C239.724 253.381 237.376 253.642 240.245 255.207C241.55 255.989 242.854 256.25 244.158 256.772C247.028 257.554 247.028 255.468 246.506 253.381C245.723 249.468 243.897 244.772 242.071 240.86C241.289 239.034 240.245 238.251 240.767 240.86C241.028 243.99 241.811 247.12 242.071 250.511C242.071 252.076 242.071 252.337 240.767 252.859Z" fill="url(#paint19_radial_533_4409)"/>
<path fill-rule="evenodd" clip-rule="evenodd" d="M203.203 239.556C203.464 237.208 203.725 235.121 203.464 234.077C202.421 231.208 191.986 222.861 188.334 217.122C188.074 216.6 188.074 216.339 188.074 215.817C187.813 217.122 187.813 220.513 188.074 222.078C188.074 222.339 188.334 222.6 188.334 222.861C191.726 228.599 201.377 236.164 203.203 239.556Z" fill="url(#paint20_radial_533_4409)"/>
<path fill-rule="evenodd" clip-rule="evenodd" d="M261.374 217.383C257.722 223.121 247.288 231.208 246.244 234.338C245.983 235.382 245.983 237.208 246.505 239.816C248.331 236.425 257.983 228.86 261.374 223.382C261.635 223.121 261.635 222.861 261.635 222.6C261.896 221.035 261.896 217.643 261.635 216.339C261.896 216.6 261.635 216.861 261.374 217.383Z" fill="url(#paint21_radial_533_4409)"/>
<path fill-rule="evenodd" clip-rule="evenodd" d="M245.723 258.859C239.202 257.294 228.246 249.729 225.115 249.729C226.159 250.251 226.159 254.946 225.115 255.468C228.246 255.468 239.462 263.033 245.723 264.598C246.506 264.859 247.027 264.598 247.81 264.076C248.332 263.554 248.853 263.033 248.853 262.25C249.114 260.163 248.853 257.816 248.853 255.729C248.853 255.99 248.853 256.25 248.853 256.511C248.853 257.294 248.332 257.816 247.81 258.337C247.027 258.859 246.245 259.12 245.723 258.859Z" fill="url(#paint22_radial_533_4409)"/>
<path opacity="0.5" fill-rule="evenodd" clip-rule="evenodd" d="M205.289 264.337C204.768 263.555 204.768 259.12 205.289 258.598C205.029 258.598 204.768 258.859 204.246 258.859C203.463 259.12 202.942 258.859 202.159 258.337C201.637 258.076 201.377 257.555 201.116 257.033C201.116 256.772 201.116 256.772 201.116 256.511C201.116 256.25 201.116 255.99 201.116 255.729C201.116 257.816 201.116 260.163 201.116 262.25C201.116 263.033 201.637 263.555 202.159 264.076C202.681 264.598 203.463 264.598 204.246 264.598C204.507 264.598 204.768 264.598 205.289 264.337Z" fill="url(#paint23_radial_533_4409)"/>
<path opacity="0.5" fill-rule="evenodd" clip-rule="evenodd" d="M244.679 264.337C245.201 263.555 245.201 259.12 244.679 258.598C244.94 258.598 245.201 258.859 245.723 258.859C246.505 259.12 247.027 258.859 247.81 258.337C248.331 258.076 248.592 257.555 248.853 257.033C248.853 256.772 248.853 256.772 248.853 256.511C248.853 256.25 248.853 255.99 248.853 255.729C248.853 257.816 248.853 260.163 248.853 262.25C248.853 263.033 248.331 263.555 247.81 264.076C247.288 264.598 246.505 264.598 245.723 264.598C245.201 264.598 244.94 264.598 244.679 264.337Z" fill="url(#paint24_radial_533_4409)"/>
<path opacity="0.5" fill-rule="evenodd" clip-rule="evenodd" d="M190.682 226.252C189.9 224.426 189.9 220.513 190.682 220.513C189.639 219.47 188.856 218.426 188.334 217.383C188.074 216.861 188.074 216.6 188.074 216.078C187.813 217.383 187.813 220.774 188.074 222.339C188.074 222.6 188.334 222.861 188.334 223.122C189.117 224.165 189.9 225.208 190.682 226.252Z" fill="url(#paint25_radial_533_4409)"/>
<path opacity="0.5" fill-rule="evenodd" clip-rule="evenodd" d="M259.026 226.252C259.809 224.426 259.809 220.513 259.026 220.513C260.07 219.47 260.852 218.426 261.374 217.383C261.635 216.861 261.635 216.6 261.635 216.078C261.896 217.383 261.896 220.774 261.635 222.339C261.635 222.6 261.374 222.861 261.374 223.122C260.852 224.165 260.07 225.208 259.026 226.252Z" fill="url(#paint26_radial_533_4409)"/>
<path opacity="0.75" fill-rule="evenodd" clip-rule="evenodd" d="M329.46 265.38C329.981 265.641 330.764 265.38 331.286 265.12C331.807 264.859 332.068 264.076 332.068 263.554C332.59 257.816 329.199 246.86 330.242 244.251C331.025 241.642 340.155 234.599 343.285 229.643C343.546 229.121 343.807 228.599 343.546 227.817C343.285 227.295 343.024 226.773 342.242 226.513C337.025 224.426 325.547 223.904 323.199 222.339C321.112 220.774 316.938 209.818 313.286 205.644C312.765 205.122 312.243 204.861 311.721 204.861C311.2 204.861 310.417 205.122 310.156 205.644C306.504 210.079 302.591 220.774 300.244 222.339C298.157 223.904 286.418 224.426 281.201 226.513C280.679 226.773 280.157 227.295 279.897 227.817C279.636 228.339 279.897 229.121 280.157 229.643C283.288 234.599 292.157 241.642 293.2 244.251C293.983 246.86 290.853 257.816 291.374 263.554C291.374 264.076 291.635 264.859 292.157 265.12C292.679 265.38 293.2 265.641 293.983 265.38C299.461 264.076 309.113 257.555 311.721 257.555C314.33 257.555 323.982 264.076 329.46 265.38Z" fill="#7B6A58"/>
<path fill-rule="evenodd" clip-rule="evenodd" d="M311.721 196.774C310.938 196.774 310.416 197.035 309.895 197.557C305.982 202.252 302.069 215.556 299.2 215.817C292.417 216.339 280.679 216.86 277.287 216.86C277.027 217.904 277.027 221.295 277.287 222.599C277.287 222.86 277.548 223.121 277.548 223.382C280.939 228.599 290.591 236.425 291.635 239.033C290.852 242.946 289.548 250.511 289.548 253.642C289.548 255.728 289.548 257.815 289.548 259.902C289.548 260.685 289.809 261.206 290.591 261.467C291.113 261.989 291.895 261.989 292.417 261.728C298.417 260.163 308.851 253.381 311.721 253.381C314.59 253.381 325.025 260.424 331.024 261.728C331.807 261.989 332.329 261.728 332.85 261.467C333.372 260.946 333.633 260.424 333.894 259.902C334.155 257.815 333.894 255.728 333.894 253.642C333.633 250.511 332.589 242.946 331.807 239.033C332.589 236.164 342.502 228.599 345.893 223.382C346.154 223.121 346.154 222.86 346.154 222.599C346.415 221.295 346.415 217.904 346.154 216.86C342.502 216.6 331.024 216.339 324.242 215.817C321.373 215.556 317.72 202.513 313.547 197.557C313.025 197.035 312.503 196.774 311.721 196.774Z" fill="url(#paint27_radial_533_4409)"/>
<path fill-rule="evenodd" clip-rule="evenodd" d="M331.024 256.772C331.806 257.033 332.328 256.772 332.85 256.511C333.372 255.99 333.632 255.468 333.893 254.946C334.415 248.686 331.024 236.686 331.806 234.078C332.589 231.208 342.502 223.643 345.893 218.426C346.154 217.904 346.415 217.122 346.154 216.6C345.893 215.818 345.371 215.557 344.849 215.296C339.11 212.948 326.589 212.426 324.242 210.861C321.894 209.035 317.72 197.557 313.546 192.601C313.025 192.079 312.503 191.819 311.72 191.819C310.938 191.819 310.416 192.079 309.894 192.601C305.982 197.297 301.547 209.035 299.199 210.861C296.851 212.687 284.33 212.948 278.591 215.296C278.07 215.557 277.548 216.078 277.287 216.6C277.026 217.383 277.026 217.904 277.548 218.426C280.939 223.643 290.591 231.469 291.634 234.078C292.417 236.947 289.026 248.947 289.547 254.946C289.547 255.729 289.808 256.251 290.591 256.511C291.113 257.033 291.895 257.033 292.417 256.772C298.417 255.207 308.851 248.425 311.72 248.425C314.59 248.425 325.024 255.207 331.024 256.772Z" fill="url(#paint28_radial_533_4409)"/>
<path fill-rule="evenodd" clip-rule="evenodd" d="M343.285 217.904C336.241 222.861 332.589 225.73 326.329 229.904C325.546 230.426 324.764 231.469 325.024 232.512C326.85 238.251 331.807 247.381 332.329 253.12C332.589 256.511 329.72 255.468 327.894 254.685C322.155 252.077 317.981 248.686 312.503 245.816C310.416 244.773 308.851 245.034 307.025 246.338C303.634 248.425 297.634 253.903 292.678 255.468C291.374 255.99 290.33 255.729 289.809 255.207C289.809 255.729 290.33 256.251 290.591 256.511C291.113 257.033 291.895 257.033 292.417 256.772C298.417 255.207 308.851 248.425 311.721 248.425C314.59 248.425 325.024 255.468 331.024 256.772C331.807 257.033 332.328 256.772 332.85 256.511C333.372 255.99 333.633 255.468 333.894 254.946C334.415 248.686 331.024 236.686 331.807 234.078C332.589 231.208 342.502 223.643 345.893 218.426C346.154 217.904 346.415 217.122 346.154 216.6C345.893 215.818 345.371 215.557 344.85 215.296C339.111 212.948 326.59 212.426 324.242 210.861C321.894 209.035 317.72 197.557 313.547 192.601C313.025 192.079 312.503 191.819 311.721 191.819C310.938 191.819 310.416 192.079 309.895 192.601C309.373 193.384 308.59 194.166 308.069 195.21C309.895 193.384 311.721 192.34 313.286 194.688C316.155 199.383 317.46 204.34 319.286 209.035C320.329 211.905 320.851 213.209 326.59 213.47C333.111 213.992 338.589 214.252 342.763 215.035C344.85 215.296 344.85 216.861 343.285 217.904Z" fill="url(#paint29_radial_533_4409)"/>
<path fill-rule="evenodd" clip-rule="evenodd" d="M292.157 215.818C290.853 215.557 291.114 214.252 292.418 213.992C294.244 213.47 296.331 213.47 298.157 212.948C299.983 212.426 301.287 211.905 302.331 209.557C304.417 205.383 306.504 199.905 308.591 196.253C309.374 194.949 310.156 195.21 310.156 196.514C309.374 201.21 308.33 205.905 307.026 210.6C306.243 212.948 305.461 215.557 302.331 215.818C299.722 216.078 294.505 216.339 292.157 215.818ZM287.462 214.252C285.896 214.252 283.027 214.774 281.201 215.296C279.114 216.078 279.636 216.339 281.462 216.6C283.288 216.6 285.375 216.6 287.201 216.6C289.809 216.339 289.548 213.992 287.462 214.252Z" fill="url(#paint30_radial_533_4409)"/>
<path fill-rule="evenodd" clip-rule="evenodd" d="M326.329 251.294C325.547 251.555 323.199 252.077 325.808 253.642C326.851 254.164 328.155 254.685 329.46 254.946C332.068 255.729 332.068 253.903 331.807 251.816C331.025 248.164 329.46 243.729 327.894 240.077C327.112 238.512 326.329 237.469 326.59 240.077C326.851 242.947 327.373 246.077 327.634 248.947C327.634 250.512 327.634 250.773 326.329 251.294Z" fill="url(#paint31_radial_533_4409)"/>
<path fill-rule="evenodd" clip-rule="evenodd" d="M291.635 238.773C291.896 236.426 292.157 234.6 291.896 233.817C291.113 230.948 281.201 223.383 277.81 218.166C277.549 217.905 277.549 217.383 277.549 216.861C277.288 217.905 277.288 221.296 277.549 222.6C277.549 222.861 277.81 223.122 277.81 223.383C280.94 228.6 289.809 235.643 291.635 238.773Z" fill="url(#paint32_radial_533_4409)"/>
<path fill-rule="evenodd" clip-rule="evenodd" d="M345.632 218.165C342.241 223.382 332.589 231.208 331.546 233.817C331.285 234.599 331.285 236.425 331.807 238.773C333.372 235.643 342.502 228.599 345.632 223.643C345.893 223.382 345.893 223.121 345.893 222.86C346.154 221.556 346.154 218.165 345.893 217.122C345.893 217.382 345.893 217.643 345.632 218.165Z" fill="url(#paint33_radial_533_4409)"/>
<path fill-rule="evenodd" clip-rule="evenodd" d="M331.024 256.772C325.024 255.207 314.59 248.425 311.72 248.425C312.764 248.946 312.503 253.12 311.72 253.903C314.59 253.903 325.024 260.946 331.024 262.25C331.806 262.511 332.328 262.25 332.85 261.989C333.371 261.467 333.632 260.946 333.893 260.424C334.154 258.337 333.893 256.25 333.893 254.163C333.893 254.424 333.893 254.685 333.893 254.946C333.893 255.729 333.632 256.25 332.85 256.511C332.328 256.772 331.545 257.033 331.024 256.772Z" fill="url(#paint34_radial_533_4409)"/>
<path opacity="0.5" fill-rule="evenodd" clip-rule="evenodd" d="M293.461 261.989C293.2 261.206 292.939 257.293 293.461 256.511C293.2 256.511 292.939 256.772 292.678 256.772C291.895 257.033 291.374 256.772 290.852 256.511C290.33 256.25 290.069 255.728 290.069 255.207V254.946C290.069 254.685 290.069 254.424 290.069 254.163C290.069 256.25 290.069 258.337 290.069 260.424C290.069 261.206 290.33 261.728 291.113 261.989C291.634 262.511 292.417 262.511 292.939 262.25C292.678 262.25 293.2 261.989 293.461 261.989Z" fill="url(#paint35_radial_533_4409)"/>
<path opacity="0.5" fill-rule="evenodd" clip-rule="evenodd" d="M329.98 261.989C330.241 261.206 330.502 257.293 329.98 256.511C330.241 256.511 330.502 256.772 330.763 256.772C331.546 257.033 332.067 256.772 332.589 256.511C333.111 256.25 333.372 255.728 333.372 255.207V254.946C333.372 254.685 333.372 254.424 333.372 254.163C333.372 256.25 333.372 258.337 333.372 260.424C333.372 261.206 333.111 261.728 332.328 261.989C331.806 262.511 331.024 262.511 330.502 262.25C330.763 262.25 330.241 261.989 329.98 261.989Z" fill="url(#paint36_radial_533_4409)"/>
<path opacity="0.5" fill-rule="evenodd" clip-rule="evenodd" d="M279.896 226.513C279.113 224.687 279.113 221.035 279.896 221.035C279.113 219.992 278.331 218.948 277.548 218.166C277.287 217.905 277.287 217.383 277.287 216.861C277.027 217.905 277.027 221.296 277.287 222.6C277.287 222.861 277.548 223.122 277.548 223.383C278.331 224.426 279.113 225.47 279.896 226.513Z" fill="url(#paint37_radial_533_4409)"/>
<path opacity="0.5" fill-rule="evenodd" clip-rule="evenodd" d="M343.545 226.513C344.328 224.687 344.328 221.035 343.545 221.035C344.328 219.992 345.111 218.948 345.893 218.166C346.154 217.905 346.154 217.383 346.154 216.861C346.415 217.905 346.415 221.296 346.154 222.6C346.154 222.861 345.893 223.122 345.893 223.383C345.111 224.426 344.328 225.47 343.545 226.513Z" fill="url(#paint38_radial_533_4409)"/>
<path fill-rule="evenodd" clip-rule="evenodd" d="M280.157 403.026H169.553C154.423 403.026 142.163 390.766 142.163 375.636C142.163 360.506 154.423 348.246 169.553 348.246C212.746 348.246 236.963 348.246 280.157 348.246C295.286 348.246 307.547 360.506 307.547 375.636C307.547 390.766 295.286 403.026 280.157 403.026Z" fill="#46429D"/>
<path fill-rule="evenodd" clip-rule="evenodd" d="M168.249 350.594H281.722C290.852 350.594 298.939 355.028 303.895 362.072C299.2 353.985 290.33 348.246 280.157 348.246H169.553C159.38 348.246 150.51 353.724 145.815 362.072C151.032 355.028 159.119 350.594 168.249 350.594Z" fill="#46429D"/>
<path fill-rule="evenodd" clip-rule="evenodd" d="M280.157 403.027H169.553C154.684 403.027 142.423 391.027 142.163 375.897V376.158C142.163 391.288 154.423 403.548 169.553 403.548H280.157C295.286 403.548 307.547 391.288 307.547 376.158V375.897C307.286 390.766 295.026 403.027 280.157 403.027Z" fill="#46429D"/>
<path opacity="0.5" fill-rule="evenodd" clip-rule="evenodd" d="M374.075 125.595C385.216 125.329 396.357 125.064 407.498 124.799C409.355 118.167 410.682 96.4153 411.477 74.133C410.416 78.6425 408.294 85.5394 405.907 92.7016C402.458 92.4363 399.01 91.9058 395.561 91.3752C399.01 79.9688 403.254 67.7666 408.294 58.217C410.416 54.5033 410.151 50.5243 408.029 48.1369C394.766 33.8126 341.978 26.6504 226.587 26.6504C111.197 26.6504 58.4087 33.8126 45.1455 48.1369C43.0233 50.5243 42.7581 54.238 44.8802 58.217C49.9203 67.5013 54.1645 79.9688 57.6129 91.3752C54.1645 92.171 50.716 92.4363 47.2676 92.7016C45.9413 88.7226 44.6149 84.7436 43.5539 81.2951C44.8802 99.8637 46.4718 115.249 48.3286 118.963L50.9813 122.146C48.3286 122.146 46.4718 134.348 45.4107 143.102C45.1455 147.081 44.8802 150.264 44.6149 151.591C56.5519 153.182 71.672 148.407 78.3037 136.736C80.1605 133.818 79.63 128.512 79.0995 126.656C77.2426 120.024 75.1205 113.127 72.4678 101.986C94.4849 95.3542 140.111 85.5394 226.057 85.5394C312.003 85.5394 357.894 95.3542 379.646 101.986C378.054 112.596 376.197 119.228 374.075 125.595Z" fill="#1D1D1B"/>
<path opacity="0.5" fill-rule="evenodd" clip-rule="evenodd" d="M406.172 131.695C404.315 129.573 385.481 126.125 374.075 125.86C374.075 126.125 374.075 126.39 373.81 126.39C373.279 128.247 372.749 133.552 374.606 136.47C381.768 148.672 397.418 153.182 409.621 151.06C409.621 149.734 407.498 135.94 406.172 131.695Z" fill="#1D1D1B"/>
<path fill-rule="evenodd" clip-rule="evenodd" d="M26.8428 138.858C39.045 148.142 70.6117 141.245 77.7738 130.634C79.1002 128.778 79.8959 126.39 79.6307 123.207C79.8959 122.411 64.5106 79.7034 63.4495 69.0928C62.3884 81.5603 27.1081 83.9476 18.3543 81.5603C15.1711 94.5583 15.9669 131.43 26.8428 138.858Z" fill="url(#paint39_linear_533_4409)"/>
<path fill-rule="evenodd" clip-rule="evenodd" d="M52.307 108.087C49.9196 97.2111 59.7345 90.8447 70.8756 90.3142C74.3241 106.23 76.9768 114.188 79.6294 123.472C76.181 112.066 54.9597 119.759 52.307 108.087Z" fill="url(#paint40_linear_533_4409)"/>
<path fill-rule="evenodd" clip-rule="evenodd" d="M28.1684 62.1963C31.6169 76.2554 43.0233 108.618 49.3897 120.555C43.2886 112.597 30.2905 115.515 25.2505 122.942C22.5978 127.186 22.0673 134.614 26.8421 138.858C25.2505 137.797 20.4757 134.349 18.3536 125.595C15.4357 113.393 7.21243 91.1103 1.11132 78.3775C-4.98979 65.3795 15.4357 53.7078 28.1684 62.1963Z" fill="url(#paint41_linear_533_4409)"/>
<path fill-rule="evenodd" clip-rule="evenodd" d="M13.8445 59.8086C10.6613 60.6044 7.74335 61.9307 5.35596 63.7876C9.06968 68.5624 26.8425 114.719 26.312 121.881C28.4341 119.493 31.352 117.371 34.5352 116.575C29.4951 108.352 14.9055 65.3792 13.8445 59.8086Z" fill="url(#paint42_radial_533_4409)"/>
<path fill-rule="evenodd" clip-rule="evenodd" d="M30.026 68.5628C29.7607 67.5018 29.4954 66.4407 29.2302 65.3796C21.5375 60.3396 11.1921 62.727 5.62154 68.2976C2.70362 71.2155 1.11201 75.4597 2.17308 79.4387C2.70361 80.2345 2.96887 81.2956 3.49941 82.0914C2.70361 78.3777 4.29521 74.3987 6.94787 71.746C11.9879 66.1754 22.3333 63.788 30.026 68.5628ZM45.4114 112.597C41.4324 109.148 35.066 109.148 29.7607 111.271C21.2722 114.719 16.2322 123.473 20.7417 131.961C19.4153 124.534 24.7206 117.637 31.087 114.984C36.6576 112.597 43.024 112.597 47.003 116.311C46.7377 114.984 46.2072 113.923 45.4114 112.597Z" fill="url(#paint43_linear_533_4409)"/>
<path fill-rule="evenodd" clip-rule="evenodd" d="M428.19 138.858C415.988 148.142 384.421 141.245 377.259 130.634C375.932 128.778 375.137 126.39 375.402 123.207C375.137 122.411 390.522 79.7034 391.583 69.0928C392.644 81.5603 427.924 83.9476 436.678 81.5603C439.861 94.5583 439.331 131.43 428.19 138.858Z" fill="url(#paint44_linear_533_4409)"/>
<path fill-rule="evenodd" clip-rule="evenodd" d="M402.99 108.087C405.377 97.2111 395.562 90.8447 384.421 90.3142C380.973 106.23 378.32 114.188 375.667 123.472C378.851 112.066 400.337 119.759 402.99 108.087Z" fill="url(#paint45_linear_533_4409)"/>
<path fill-rule="evenodd" clip-rule="evenodd" d="M427.128 62.1963C423.68 76.2554 412.274 108.618 405.907 120.555C412.008 112.597 425.006 115.515 430.046 122.942C432.699 127.186 433.23 134.614 428.455 138.858C430.046 137.797 434.821 134.349 436.943 125.595C439.861 113.393 448.084 91.1103 454.186 78.3775C460.287 65.3795 439.596 53.7078 427.128 62.1963Z" fill="url(#paint46_linear_533_4409)"/>
<path fill-rule="evenodd" clip-rule="evenodd" d="M441.453 59.8086C444.637 60.6044 447.555 61.9307 449.942 63.7876C446.228 68.5624 428.455 114.719 428.986 121.881C426.864 119.493 423.946 117.371 420.763 116.575C425.803 108.352 440.127 65.3792 441.453 59.8086Z" fill="url(#paint47_radial_533_4409)"/>
<path fill-rule="evenodd" clip-rule="evenodd" d="M449.941 68.2976C444.37 62.727 433.76 60.3396 426.332 65.3796C426.067 66.4407 425.802 67.5018 425.536 68.5628C432.964 63.788 443.574 66.1754 448.88 71.746C451.532 74.6639 453.124 78.3777 452.328 82.0914C452.859 81.2956 453.124 80.2345 453.655 79.4387C454.45 75.4597 452.859 71.4807 449.941 68.2976ZM425.271 111.271C419.966 109.148 413.599 109.148 409.62 112.597C409.09 113.923 408.559 115.25 408.029 116.311C412.008 112.332 418.374 112.597 423.945 114.984C430.576 117.637 435.882 124.534 434.29 131.961C438.8 123.473 434.025 114.719 425.271 111.271Z" fill="url(#paint48_linear_533_4409)"/>
<path fill-rule="evenodd" clip-rule="evenodd" d="M31.8828 34.3435C29.4954 36.9962 29.4954 40.9752 31.6175 45.2194C41.6976 64.3185 49.6556 94.8241 52.043 108.087C51.2472 103.313 54.9609 99.0683 62.9189 96.1504C85.7317 87.1314 122.869 82.6219 227.384 82.6219V11.2654C103.239 11.2654 46.2071 18.9581 31.8828 34.3435Z" fill="url(#paint49_radial_533_4409)"/>
<path fill-rule="evenodd" clip-rule="evenodd" d="M423.15 34.3435C425.538 36.9962 425.538 40.9752 423.416 45.2194C413.335 64.3185 405.377 94.8241 402.99 108.087C403.786 103.313 400.072 99.0683 392.114 96.1504C369.301 87.1314 332.164 82.6219 227.649 82.6219V11.2654C352.059 11.2654 409.091 18.9581 423.15 34.3435Z" fill="url(#paint50_radial_533_4409)"/>
<path fill-rule="evenodd" clip-rule="evenodd" d="M227.649 74.1337C120.747 74.1337 81.2226 79.1738 59.4708 88.9886C54.1655 91.376 50.9823 94.0287 49.9212 97.2119C50.1865 98.8035 50.717 100.395 50.9823 101.987C51.5128 98.2729 55.2265 95.0897 61.3277 92.7023C83.61 83.1528 121.808 78.378 227.649 78.378H227.915L227.649 74.1337ZM35.5969 41.7713C50.9823 26.9164 105.362 19.7543 227.649 19.7543H227.915V15.51H227.649C104.301 15.51 48.5949 22.9375 33.74 38.0576C31.8831 39.9145 31.0874 42.3019 31.6179 45.2198C32.1484 46.0156 32.4137 46.8114 32.9442 47.6072C32.9442 45.2198 33.74 43.0976 35.5969 41.7713Z" fill="url(#paint51_linear_533_4409)"/>
<path fill-rule="evenodd" clip-rule="evenodd" d="M227.915 74.1337C334.817 74.1337 374.341 79.1738 396.093 88.9886C401.398 91.376 404.316 93.7634 405.112 96.9466C404.847 98.5382 404.316 100.13 404.051 101.456C403.521 97.7424 400.337 94.8245 394.236 92.4371C371.954 82.8875 333.756 78.1127 227.915 78.1127H227.649L227.915 74.1337ZM419.967 41.7713C404.582 26.9164 350.202 19.7543 227.915 19.7543H227.649V15.51H227.915C351.263 15.51 406.969 22.9375 421.824 38.0576C423.681 39.9145 424.477 41.5061 423.946 44.1587C423.946 44.1587 422.885 46.0156 422.62 46.8114C422.62 44.6892 421.824 43.0976 419.967 41.7713Z" fill="url(#paint52_linear_533_4409)"/>
<path opacity="0.3" fill-rule="evenodd" clip-rule="evenodd" d="M423.149 34.3434C408.825 18.958 352.058 11 227.383 11C102.974 11 45.9415 18.6927 31.6172 34.3434C29.2298 36.996 29.2298 40.975 31.3519 45.2193C41.432 64.3184 49.3899 94.824 51.7773 108.087C50.9815 103.312 54.6953 99.0682 62.6533 96.1503C85.4661 87.1313 122.603 82.6217 227.118 82.6217C331.898 82.6217 369.035 87.1313 391.583 96.1503C399.275 99.3335 403.254 103.312 402.459 108.087C404.846 94.824 412.804 64.3184 422.884 45.2193C425.802 41.2403 425.537 36.996 423.149 34.3434Z" fill="url(#paint53_radial_533_4409)"/>
<path d="M130.296 64.5835C130.031 64.5835 129.5 64.8488 128.704 65.114C127.909 65.3793 127.113 65.3793 126.582 65.3793C124.991 65.3793 123.93 65.3793 123.134 64.8488C122.338 64.3182 121.807 63.2572 121.807 61.6656L121.277 55.0339C120.481 53.9729 119.42 52.6465 118.359 51.055C117.298 49.7286 116.237 48.137 115.176 46.8107C114.115 45.2191 113.054 43.8928 112.258 42.3012C111.462 40.9749 110.666 39.6485 110.136 38.3222C110.401 37.7917 111.197 36.9959 111.727 36.4653C112.523 35.9348 113.319 35.6695 114.38 35.4043C115.706 35.4043 116.767 35.4043 117.563 35.9348C118.359 36.4653 119.155 37.2611 119.951 38.8527L124.725 46.8107H124.991C125.256 45.7496 125.786 44.6886 126.052 43.8928C126.317 43.097 126.582 42.0359 126.847 41.2401C127.113 40.4443 127.378 39.3833 127.643 38.5875C127.909 37.5264 128.174 36.4653 128.704 35.4043C129.235 35.139 130.031 34.8737 130.561 34.6085C131.357 34.3432 131.888 34.3432 132.683 34.078C133.744 34.078 134.805 34.3432 135.601 34.8737C136.397 35.4043 136.928 36.2001 136.928 37.5264C136.928 37.7917 136.928 38.3222 136.662 38.8527C136.662 39.3833 136.132 40.1791 135.601 41.5054C135.071 42.5665 134.275 44.158 133.214 46.2802C132.153 48.4023 130.826 51.055 129.235 54.2381L130.296 64.5835ZM140.111 48.9328C140.111 46.2802 140.376 44.158 141.172 42.0359C141.968 39.9138 143.029 38.3222 144.355 36.9959C145.681 35.6695 147.273 34.6085 149.13 33.8127C150.987 33.0169 153.109 32.7516 155.231 32.4863C157.353 32.4863 159.475 32.7516 161.332 33.2822C163.189 33.8127 165.046 34.8737 166.372 36.2001C167.964 37.5264 169.025 39.118 169.821 40.9749C170.616 42.8317 171.147 45.2191 171.412 47.8718C171.412 50.5244 171.147 52.6465 170.351 54.7687C169.555 56.8908 168.494 58.4824 167.168 59.8087C165.842 61.1351 164.25 62.1961 162.393 62.9919C160.536 63.7877 158.414 64.053 156.292 64.3182C154.17 64.5835 152.048 64.053 149.926 63.5224C148.069 62.9919 146.212 61.9309 144.886 60.6045C143.559 59.2782 142.233 57.6866 141.437 55.8297C140.641 53.7076 140.111 51.3202 140.111 48.9328ZM149.13 48.4023C149.13 51.3202 149.926 53.7076 151.252 55.0339C152.578 56.3603 154.17 57.1561 156.292 57.1561C158.414 57.1561 160.006 56.3603 161.067 54.7687C162.128 53.1771 162.658 51.055 162.658 47.8718C162.658 44.9538 161.863 42.5665 160.536 41.2401C159.21 39.9138 157.618 39.118 155.496 39.118C153.374 39.118 151.782 39.9138 150.721 41.5054C149.395 43.3622 148.865 45.4844 149.13 48.4023ZM203.509 51.3202C203.509 53.1771 203.244 54.7687 202.714 56.095C202.183 57.6866 201.122 58.7477 200.061 59.8087C199 60.8698 197.408 61.6656 195.817 62.1961C194.225 62.7266 192.368 62.9919 190.246 62.9919C188.124 62.9919 186.267 62.7266 184.675 62.1961C183.084 61.6656 181.492 60.8698 180.431 59.8087C179.37 58.7477 178.309 57.4213 177.779 56.095C177.248 54.5034 176.717 52.9118 176.717 51.3202L176.452 32.4863C176.717 32.4863 177.513 32.2211 178.309 32.2211C179.105 32.2211 179.901 31.9558 180.696 31.9558C181.492 31.9558 182.023 31.9558 182.819 32.2211C183.349 32.2211 183.88 32.4864 184.41 32.7516C184.941 33.0169 185.206 33.5474 185.206 34.078C185.471 34.6085 185.471 35.4043 185.471 36.2001L185.737 51.3202C185.737 52.9118 186.267 54.2381 187.063 55.0339C187.859 55.8297 189.185 56.3603 190.511 56.3603C191.838 56.3603 193.164 55.8297 193.96 55.0339C194.755 54.2381 195.286 52.9118 195.286 51.3202L195.021 32.4863C195.286 32.4863 196.082 32.2211 196.878 32.2211C197.673 32.2211 198.469 31.9558 199.265 31.9558C200.061 31.9558 200.591 31.9558 201.387 32.2211C201.918 32.2211 202.448 32.4864 202.979 32.7516C203.509 33.0169 203.775 33.5474 203.775 34.078C204.04 34.6085 204.04 35.4043 204.04 36.2001L203.509 51.3202ZM224.465 62.4614C223.139 62.4614 221.813 61.9309 221.017 61.1351C220.221 60.3393 219.691 59.2782 219.691 57.6866V31.9558C219.956 31.9558 220.752 31.6906 221.547 31.6906C222.343 31.6906 223.139 31.4253 223.935 31.4253C224.731 31.4253 225.261 31.4253 226.057 31.6906C226.587 31.6906 227.118 31.9558 227.648 32.2211C227.914 32.4864 228.444 33.0169 228.444 33.5474C228.71 34.0779 228.71 34.8737 228.71 35.6695V55.2992H240.116C240.381 55.5645 240.646 56.095 240.646 56.8908C240.912 57.4213 240.912 58.2171 240.912 58.7477C240.912 60.074 240.647 61.135 240.116 61.6656C239.585 62.1961 238.79 62.4614 237.994 62.4614H224.465ZM242.503 47.3412C242.503 44.6886 243.034 42.5664 243.83 40.4443C244.626 38.5875 245.687 36.7306 247.278 35.4043C248.604 34.078 250.461 33.0169 252.318 32.4863C254.175 31.6906 256.297 31.4253 258.419 31.4253C260.541 31.4253 262.664 31.6906 264.52 32.4863C266.377 33.2821 267.969 34.3432 269.56 35.6695C270.887 36.9959 271.948 38.5875 272.744 40.7096C273.539 42.8317 273.805 44.9538 273.805 47.6065C273.805 50.2592 273.274 52.3813 272.478 54.5034C271.683 56.6255 270.622 58.2171 269.03 59.5435C267.704 60.8698 265.847 61.9309 263.99 62.4614C262.133 63.2572 260.011 63.5224 257.623 63.5224C255.501 63.5224 253.379 63.2572 251.257 62.4614C249.4 61.6656 247.809 60.6045 246.217 59.2782C244.891 57.9519 243.83 56.3603 243.034 54.2381C242.769 52.116 242.503 49.7286 242.503 47.3412ZM251.257 47.3412C251.257 50.2592 251.788 52.6466 253.114 53.9729C254.44 55.5645 256.032 56.3603 257.889 56.3603C260.011 56.3603 261.602 55.5645 262.929 54.2381C264.255 52.6465 264.786 50.5244 264.786 47.6065C264.786 44.6886 264.255 42.3012 262.929 40.9749C261.868 39.3833 260.011 38.5875 257.889 38.5875C255.767 38.5875 254.175 39.3833 252.849 40.7096C252.053 42.0359 251.257 44.4233 251.257 47.3412ZM287.599 51.055C286.272 50.5244 284.946 49.9939 283.62 49.4634C282.559 48.9328 281.497 48.137 280.702 47.6065C279.906 46.8107 279.11 46.0149 278.845 44.9538C278.314 43.8928 278.314 42.5665 278.314 41.2401C278.314 38.3222 279.641 36.2001 281.763 34.6085C283.885 33.0169 287.068 32.2211 291.047 32.2211C292.373 32.2211 293.7 32.4864 295.026 32.7516C296.352 33.0169 297.413 33.2821 298.209 33.8127C299.005 34.3432 299.801 34.8737 300.331 35.4043C300.862 35.9348 301.127 36.7306 301.127 37.7917C301.127 38.5875 300.862 39.3833 300.597 39.9138C300.066 40.4443 299.801 40.9749 299.005 41.5054C298.209 40.9749 297.413 40.7096 296.087 40.1791C294.761 39.9138 293.434 39.6485 292.108 39.6485C290.516 39.6485 289.455 39.9138 288.925 40.1791C288.129 40.4443 287.864 40.9749 287.864 41.7706C287.864 42.3012 288.129 42.5664 288.394 43.097C288.925 43.3622 289.455 43.6275 290.251 43.8928L292.904 44.6886C296.087 45.7496 298.209 47.076 300.066 48.6676C301.658 50.2592 302.453 52.3813 302.453 55.0339C302.453 57.9519 301.127 60.074 299.005 61.6656C296.618 63.2572 293.434 64.053 289.19 64.053C287.599 64.053 286.272 63.7877 284.946 63.5224C283.62 63.2572 282.558 62.7267 281.497 62.4614C280.436 61.9309 279.906 61.4003 279.375 60.6045C278.845 59.8087 278.58 59.0129 278.58 58.2171C278.58 57.1561 278.845 56.3603 279.375 55.8297C279.906 55.2992 280.702 54.7687 281.232 54.2381C282.028 55.0339 283.354 55.5645 284.681 56.095C286.007 56.6255 287.333 56.8908 288.925 56.8908C290.516 56.8908 291.578 56.6255 292.373 56.3603C293.169 55.8297 293.434 55.2992 293.434 54.7687C293.434 54.2381 293.169 53.7076 292.639 53.1771C292.108 52.9118 291.312 52.3813 290.516 52.116L287.599 51.055ZM307.228 38.0569C307.228 36.7306 307.759 35.4043 308.555 34.8737C309.35 34.0779 310.677 33.8127 312.003 33.8127L328.449 34.6085C328.715 34.8737 328.715 35.4043 328.98 36.2001C329.245 36.7306 329.245 37.5264 329.245 38.0569C329.245 39.3833 328.98 40.1791 328.184 40.7096C327.654 41.2401 326.858 41.5054 326.062 41.5054L315.717 40.9749L315.451 45.4844L326.593 46.0149C326.858 46.2802 326.858 46.8107 327.123 47.3412C327.388 47.8718 327.388 48.6676 327.388 49.1981C327.388 50.5244 327.123 51.3202 326.327 51.8508C325.797 52.3813 325.001 52.6466 324.205 52.6466L315.186 52.116L314.921 57.4213L327.654 57.9519C327.919 58.2171 327.919 58.7477 328.184 59.5435C328.449 60.074 328.449 60.8698 328.449 61.4003C328.449 62.7266 328.184 63.5224 327.388 64.053C326.858 64.5835 326.062 64.8488 325.266 64.8488L310.677 64.053C309.35 64.053 308.024 63.5224 307.493 62.7266C306.698 61.9308 306.432 60.6045 306.432 59.2782L307.228 38.0569ZM343.835 36.9959C343.835 37.7917 343.57 38.8527 343.57 40.1791C343.304 41.5054 343.304 43.097 343.039 44.6886C342.774 46.2802 342.509 47.8718 342.243 49.7286C341.978 51.3202 341.713 52.9118 341.447 53.9729C341.182 53.9729 341.182 54.2381 340.917 54.2381C340.652 54.2381 340.386 54.5034 340.121 54.5034C339.856 54.5034 339.591 54.5034 339.325 54.5034C339.06 54.5034 338.795 54.5034 338.53 54.5034C337.468 54.5034 336.673 54.2381 336.142 53.9729C335.612 53.7076 335.081 52.9118 335.081 52.116C335.081 51.3202 334.816 50.2592 334.816 48.6676C334.816 47.076 334.816 45.4844 334.816 43.6275C334.816 41.7707 334.816 39.9138 335.081 38.3222C335.081 36.4653 335.346 35.139 335.346 33.8127C336.142 33.5474 336.673 33.2821 337.734 33.0169C338.53 32.7516 339.325 32.7516 340.386 32.7516C341.713 32.7516 342.774 33.2821 343.57 33.8127C343.57 34.8737 343.835 35.6695 343.835 36.9959ZM332.694 61.4003C332.694 60.074 333.224 59.0129 334.285 58.2171C335.081 57.4213 336.407 57.1561 337.999 57.1561C339.591 57.1561 340.652 57.6866 341.447 58.7477C342.243 59.8087 342.509 60.8698 342.509 62.1961C342.509 63.5224 341.978 64.5835 340.917 65.3793C340.121 66.1751 338.795 66.4404 337.203 66.4404C335.612 66.4404 334.551 65.9098 333.755 64.8488C332.959 63.7877 332.694 62.7266 332.694 61.4003Z" fill="url(#paint54_linear_533_4409)"/>
<defs>
<linearGradient id="paint0_linear_533_4409" x1="224.884" y1="473.488" x2="224.884" y2="19.3137" gradientUnits="userSpaceOnUse">
<stop stop-color="#6561C0"/>
<stop offset="1" stop-color="#6561C0"/>
</linearGradient>
<radialGradient id="paint1_radial_533_4409" cx="0" cy="0" r="1" gradientUnits="userSpaceOnUse" gradientTransform="translate(276.624 351.825) scale(295.113 295.113)">
<stop stop-color="white"/>
<stop offset="1" stop-color="#A48A7B"/>
</radialGradient>
<radialGradient id="paint2_radial_533_4409" cx="0" cy="0" r="1" gradientUnits="userSpaceOnUse" gradientTransform="translate(234.171 -118.083) scale(258.019 258.019)">
<stop stop-color="#A48A7B"/>
<stop offset="1" stop-color="white"/>
</radialGradient>
<radialGradient id="paint3_radial_533_4409" cx="0" cy="0" r="1" gradientUnits="userSpaceOnUse" gradientTransform="translate(116.621 262.872) scale(28.889 28.889)">
<stop stop-color="#FC8200"/>
<stop offset="1" stop-color="#E34F00"/>
</radialGradient>
<radialGradient id="paint4_radial_533_4409" cx="0" cy="0" r="1" gradientUnits="userSpaceOnUse" gradientTransform="translate(123.954 206.056) scale(63.8576 63.8576)">
<stop stop-color="#FCF800"/>
<stop offset="1" stop-color="#FC9700"/>
</radialGradient>
<radialGradient id="paint5_radial_533_4409" cx="0" cy="0" r="1" gradientUnits="userSpaceOnUse" gradientTransform="translate(125.507 203.226) scale(66.4842 66.4842)">
<stop offset="7e-08" stop-color="white"/>
<stop offset="0.0963096" stop-color="#FFFDF9"/>
<stop offset="0.2205" stop-color="#FFF7E9"/>
<stop offset="0.3601" stop-color="#FFECCF"/>
<stop offset="0.5108" stop-color="#FFDEAA"/>
<stop offset="0.6706" stop-color="#FFCC7A"/>
<stop offset="0.8354" stop-color="#FFB641"/>
<stop offset="1" stop-color="#FF9D00"/>
</radialGradient>
<radialGradient id="paint6_radial_533_4409" cx="0" cy="0" r="1" gradientUnits="userSpaceOnUse" gradientTransform="translate(125.535 200.658) scale(33.5727 33.5727)">
<stop stop-color="#FFFACF"/>
<stop offset="1"/>
</radialGradient>
<radialGradient id="paint7_radial_533_4409" cx="0" cy="0" r="1" gradientUnits="userSpaceOnUse" gradientTransform="translate(136.629 244.355) scale(40.2119 40.2118)">
<stop/>
<stop offset="0.1681" stop-color="#251B00"/>
<stop offset="0.5449" stop-color="#856100"/>
<stop offset="1" stop-color="#FFBB00"/>
</radialGradient>
<radialGradient id="paint8_radial_533_4409" cx="0" cy="0" r="1" gradientUnits="userSpaceOnUse" gradientTransform="translate(106.415 220.095) scale(19.9408 19.9408)">
<stop stop-color="#FCAC00"/>
<stop offset="1" stop-color="#E36600"/>
</radialGradient>
<radialGradient id="paint9_radial_533_4409" cx="0" cy="0" r="1" gradientUnits="userSpaceOnUse" gradientTransform="translate(205.139 238.3) scale(47.7723 47.7723)">
<stop stop-color="#FCAC00"/>
<stop offset="1" stop-color="#E36600"/>
</radialGradient>
<radialGradient id="paint10_radial_533_4409" cx="0" cy="0" r="1" gradientUnits="userSpaceOnUse" gradientTransform="translate(163.833 254.085) scale(25.3969 25.3969)">
<stop stop-color="#FCAC00"/>
<stop offset="1" stop-color="#FF6600"/>
</radialGradient>
<radialGradient id="paint11_radial_533_4409" cx="0" cy="0" r="1" gradientUnits="userSpaceOnUse" gradientTransform="translate(113.269 250.706) scale(14.2235 14.2236)">
<stop stop-color="#FFF261"/>
<stop offset="0.1102" stop-color="#FAEE5F"/>
<stop offset="0.2341" stop-color="#EDE15A"/>
<stop offset="0.3647" stop-color="#D6CB52"/>
<stop offset="0.4999" stop-color="#B7AD46"/>
<stop offset="0.6388" stop-color="#8E8736"/>
<stop offset="0.7807" stop-color="#5C5823"/>
<stop offset="0.9223" stop-color="#23210D"/>
<stop offset="1"/>
</radialGradient>
<radialGradient id="paint12_radial_533_4409" cx="0" cy="0" r="1" gradientUnits="userSpaceOnUse" gradientTransform="translate(164.751 251.71) scale(14.837 14.8371)">
<stop stop-color="#FFF261"/>
<stop offset="0.1102" stop-color="#FAEE5F"/>
<stop offset="0.2341" stop-color="#EDE15A"/>
<stop offset="0.3647" stop-color="#D6CB52"/>
<stop offset="0.4999" stop-color="#B7AD46"/>
<stop offset="0.6388" stop-color="#8E8736"/>
<stop offset="0.7807" stop-color="#5C5823"/>
<stop offset="0.9223" stop-color="#23210D"/>
<stop offset="1"/>
</radialGradient>
<radialGradient id="paint13_radial_533_4409" cx="0" cy="0" r="1" gradientUnits="userSpaceOnUse" gradientTransform="translate(104.103 216.031) scale(9.98748 9.98749)">
<stop stop-color="#FFF261"/>
<stop offset="0.1102" stop-color="#FAEE5F"/>
<stop offset="0.2341" stop-color="#EDE15A"/>
<stop offset="0.3647" stop-color="#D6CB52"/>
<stop offset="0.4999" stop-color="#B7AD46"/>
<stop offset="0.6388" stop-color="#8E8736"/>
<stop offset="0.7807" stop-color="#5C5823"/>
<stop offset="0.9223" stop-color="#23210D"/>
<stop offset="1"/>
</radialGradient>
<radialGradient id="paint14_radial_533_4409" cx="0" cy="0" r="1" gradientUnits="userSpaceOnUse" gradientTransform="translate(175.532 215.527) scale(13.105 13.105)">
<stop stop-color="#FFF261"/>
<stop offset="0.1102" stop-color="#FAEE5F"/>
<stop offset="0.2341" stop-color="#EDE15A"/>
<stop offset="0.3647" stop-color="#D6CB52"/>
<stop offset="0.4999" stop-color="#B7AD46"/>
<stop offset="0.6388" stop-color="#8E8736"/>
<stop offset="0.7807" stop-color="#5C5823"/>
<stop offset="0.9223" stop-color="#23210D"/>
<stop offset="1"/>
</radialGradient>
<radialGradient id="paint15_radial_533_4409" cx="0" cy="0" r="1" gradientUnits="userSpaceOnUse" gradientTransform="translate(201.796 265.468) scale(31.0669 31.0669)">
<stop stop-color="#FC8200"/>
<stop offset="1" stop-color="#E34F00"/>
</radialGradient>
<radialGradient id="paint16_radial_533_4409" cx="0" cy="0" r="1" gradientUnits="userSpaceOnUse" gradientTransform="translate(209.683 204.369) scale(68.6717 68.6717)">
<stop stop-color="#FCF800"/>
<stop offset="1" stop-color="#FC9700"/>
</radialGradient>
<radialGradient id="paint17_radial_533_4409" cx="0" cy="0" r="1" gradientUnits="userSpaceOnUse" gradientTransform="translate(211.351 201.325) scale(71.4963 71.4963)">
<stop offset="7e-08" stop-color="white"/>
<stop offset="0.0963096" stop-color="#FFFDF9"/>
<stop offset="0.2205" stop-color="#FFF7E9"/>
<stop offset="0.3601" stop-color="#FFECCF"/>
<stop offset="0.5108" stop-color="#FFDEAA"/>
<stop offset="0.6706" stop-color="#FFCC7A"/>
<stop offset="0.8354" stop-color="#FFB641"/>
<stop offset="1" stop-color="#FF9D00"/>
</radialGradient>
<radialGradient id="paint18_radial_533_4409" cx="0" cy="0" r="1" gradientUnits="userSpaceOnUse" gradientTransform="translate(211.381 198.564) scale(36.1038 36.1038)">
<stop stop-color="#FFFACF"/>
<stop offset="1"/>
</radialGradient>
<radialGradient id="paint19_radial_533_4409" cx="0" cy="0" r="1" gradientUnits="userSpaceOnUse" gradientTransform="translate(223.314 245.555) scale(43.243 43.243)">
<stop/>
<stop offset="0.1681" stop-color="#251B00"/>
<stop offset="0.5449" stop-color="#856100"/>
<stop offset="1" stop-color="#FFBB00"/>
</radialGradient>
<radialGradient id="paint20_radial_533_4409" cx="0" cy="0" r="1" gradientUnits="userSpaceOnUse" gradientTransform="translate(190.821 219.465) scale(21.4441 21.4441)">
<stop stop-color="#FCAC00"/>
<stop offset="1" stop-color="#E36600"/>
</radialGradient>
<radialGradient id="paint21_radial_533_4409" cx="0" cy="0" r="1" gradientUnits="userSpaceOnUse" gradientTransform="translate(296.988 239.044) scale(51.374 51.374)">
<stop stop-color="#FCAC00"/>
<stop offset="1" stop-color="#E36600"/>
</radialGradient>
<radialGradient id="paint22_radial_533_4409" cx="0" cy="0" r="1" gradientUnits="userSpaceOnUse" gradientTransform="translate(252.567 256.019) scale(27.3116 27.3116)">
<stop stop-color="#FCAC00"/>
<stop offset="1" stop-color="#FF6600"/>
</radialGradient>
<radialGradient id="paint23_radial_533_4409" cx="0" cy="0" r="1" gradientUnits="userSpaceOnUse" gradientTransform="translate(198.191 252.386) scale(15.2959 15.296)">
<stop stop-color="#FFF261"/>
<stop offset="0.1102" stop-color="#FAEE5F"/>
<stop offset="0.2341" stop-color="#EDE15A"/>
<stop offset="0.3647" stop-color="#D6CB52"/>
<stop offset="0.4999" stop-color="#B7AD46"/>
<stop offset="0.6388" stop-color="#8E8736"/>
<stop offset="0.7807" stop-color="#5C5823"/>
<stop offset="0.9223" stop-color="#23210D"/>
<stop offset="1"/>
</radialGradient>
<radialGradient id="paint24_radial_533_4409" cx="0" cy="0" r="1" gradientUnits="userSpaceOnUse" gradientTransform="translate(253.555 253.465) scale(15.9559 15.9559)">
<stop stop-color="#FFF261"/>
<stop offset="0.1102" stop-color="#FAEE5F"/>
<stop offset="0.2341" stop-color="#EDE15A"/>
<stop offset="0.3647" stop-color="#D6CB52"/>
<stop offset="0.4999" stop-color="#B7AD46"/>
<stop offset="0.6388" stop-color="#8E8736"/>
<stop offset="0.7807" stop-color="#5C5823"/>
<stop offset="0.9223" stop-color="#23210D"/>
<stop offset="1"/>
</radialGradient>
<radialGradient id="paint25_radial_533_4409" cx="0" cy="0" r="1" gradientUnits="userSpaceOnUse" gradientTransform="translate(188.335 215.095) scale(10.7406 10.7406)">
<stop stop-color="#FFF261"/>
<stop offset="0.1102" stop-color="#FAEE5F"/>
<stop offset="0.2341" stop-color="#EDE15A"/>
<stop offset="0.3647" stop-color="#D6CB52"/>
<stop offset="0.4999" stop-color="#B7AD46"/>
<stop offset="0.6388" stop-color="#8E8736"/>
<stop offset="0.7807" stop-color="#5C5823"/>
<stop offset="0.9223" stop-color="#23210D"/>
<stop offset="1"/>
</radialGradient>
<radialGradient id="paint26_radial_533_4409" cx="0" cy="0" r="1" gradientUnits="userSpaceOnUse" gradientTransform="translate(265.149 214.553) scale(14.0934 14.0934)">
<stop stop-color="#FFF261"/>
<stop offset="0.1102" stop-color="#FAEE5F"/>
<stop offset="0.2341" stop-color="#EDE15A"/>
<stop offset="0.3647" stop-color="#D6CB52"/>
<stop offset="0.4999" stop-color="#B7AD46"/>
<stop offset="0.6388" stop-color="#8E8736"/>
<stop offset="0.7807" stop-color="#5C5823"/>
<stop offset="0.9223" stop-color="#23210D"/>
<stop offset="1"/>
</radialGradient>
<radialGradient id="paint27_radial_533_4409" cx="0" cy="0" r="1" gradientUnits="userSpaceOnUse" gradientTransform="translate(290.212 262.872) scale(28.889 28.889)">
<stop stop-color="#FC8200"/>
<stop offset="1" stop-color="#E34F00"/>
</radialGradient>
<radialGradient id="paint28_radial_533_4409" cx="0" cy="0" r="1" gradientUnits="userSpaceOnUse" gradientTransform="translate(297.545 206.056) scale(63.8576 63.8576)">
<stop stop-color="#FCF800"/>
<stop offset="1" stop-color="#FC9700"/>
</radialGradient>
<radialGradient id="paint29_radial_533_4409" cx="0" cy="0" r="1" gradientUnits="userSpaceOnUse" gradientTransform="translate(299.098 203.226) scale(66.4842 66.4842)">
<stop offset="7e-08" stop-color="white"/>
<stop offset="0.0963096" stop-color="#FFFDF9"/>
<stop offset="0.2205" stop-color="#FFF7E9"/>
<stop offset="0.3601" stop-color="#FFECCF"/>
<stop offset="0.5108" stop-color="#FFDEAA"/>
<stop offset="0.6706" stop-color="#FFCC7A"/>
<stop offset="0.8354" stop-color="#FFB641"/>
<stop offset="1" stop-color="#FF9D00"/>
</radialGradient>
<radialGradient id="paint30_radial_533_4409" cx="0" cy="0" r="1" gradientUnits="userSpaceOnUse" gradientTransform="translate(299.126 200.658) scale(33.5727 33.5727)">
<stop stop-color="#FFFACF"/>
<stop offset="1"/>
</radialGradient>
<radialGradient id="paint31_radial_533_4409" cx="0" cy="0" r="1" gradientUnits="userSpaceOnUse" gradientTransform="translate(310.221 244.355) scale(40.2119 40.2118)">
<stop/>
<stop offset="0.1681" stop-color="#251B00"/>
<stop offset="0.5449" stop-color="#856100"/>
<stop offset="1" stop-color="#FFBB00"/>
</radialGradient>
<radialGradient id="paint32_radial_533_4409" cx="0" cy="0" r="1" gradientUnits="userSpaceOnUse" gradientTransform="translate(280.007 220.095) scale(19.9408 19.9408)">
<stop stop-color="#FCAC00"/>
<stop offset="1" stop-color="#E36600"/>
</radialGradient>
<radialGradient id="paint33_radial_533_4409" cx="0" cy="0" r="1" gradientUnits="userSpaceOnUse" gradientTransform="translate(378.73 238.3) scale(47.7723 47.7723)">
<stop stop-color="#FCAC00"/>
<stop offset="1" stop-color="#E36600"/>
</radialGradient>
<radialGradient id="paint34_radial_533_4409" cx="0" cy="0" r="1" gradientUnits="userSpaceOnUse" gradientTransform="translate(337.424 254.085) scale(25.3969 25.3969)">
<stop stop-color="#FCAC00"/>
<stop offset="1" stop-color="#FF6600"/>
</radialGradient>
<radialGradient id="paint35_radial_533_4409" cx="0" cy="0" r="1" gradientUnits="userSpaceOnUse" gradientTransform="translate(286.86 250.706) scale(14.2236 14.2236)">
<stop stop-color="#FFF261"/>
<stop offset="0.1102" stop-color="#FAEE5F"/>
<stop offset="0.2341" stop-color="#EDE15A"/>
<stop offset="0.3647" stop-color="#D6CB52"/>
<stop offset="0.4999" stop-color="#B7AD46"/>
<stop offset="0.6388" stop-color="#8E8736"/>
<stop offset="0.7807" stop-color="#5C5823"/>
<stop offset="0.9223" stop-color="#23210D"/>
<stop offset="1"/>
</radialGradient>
<radialGradient id="paint36_radial_533_4409" cx="0" cy="0" r="1" gradientUnits="userSpaceOnUse" gradientTransform="translate(338.342 251.71) scale(14.8371 14.8371)">
<stop stop-color="#FFF261"/>
<stop offset="0.1102" stop-color="#FAEE5F"/>
<stop offset="0.2341" stop-color="#EDE15A"/>
<stop offset="0.3647" stop-color="#D6CB52"/>
<stop offset="0.4999" stop-color="#B7AD46"/>
<stop offset="0.6388" stop-color="#8E8736"/>
<stop offset="0.7807" stop-color="#5C5823"/>
<stop offset="0.9223" stop-color="#23210D"/>
<stop offset="1"/>
</radialGradient>
<radialGradient id="paint37_radial_533_4409" cx="0" cy="0" r="1" gradientUnits="userSpaceOnUse" gradientTransform="translate(277.695 216.031) scale(9.98748 9.98749)">
<stop stop-color="#FFF261"/>
<stop offset="0.1102" stop-color="#FAEE5F"/>
<stop offset="0.2341" stop-color="#EDE15A"/>
<stop offset="0.3647" stop-color="#D6CB52"/>
<stop offset="0.4999" stop-color="#B7AD46"/>
<stop offset="0.6388" stop-color="#8E8736"/>
<stop offset="0.7807" stop-color="#5C5823"/>
<stop offset="0.9223" stop-color="#23210D"/>
<stop offset="1"/>
</radialGradient>
<radialGradient id="paint38_radial_533_4409" cx="0" cy="0" r="1" gradientUnits="userSpaceOnUse" gradientTransform="translate(349.124 215.527) scale(13.105 13.105)">
<stop stop-color="#FFF261"/>
<stop offset="0.1102" stop-color="#FAEE5F"/>
<stop offset="0.2341" stop-color="#EDE15A"/>
<stop offset="0.3647" stop-color="#D6CB52"/>
<stop offset="0.4999" stop-color="#B7AD46"/>
<stop offset="0.6388" stop-color="#8E8736"/>
<stop offset="0.7807" stop-color="#5C5823"/>
<stop offset="0.9223" stop-color="#23210D"/>
<stop offset="1"/>
</radialGradient>
<linearGradient id="paint39_linear_533_4409" x1="17.1537" y1="120.489" x2="74.5779" y2="97.2884" gradientUnits="userSpaceOnUse">
<stop stop-color="#2E0103"/>
<stop offset="0.0824994" stop-color="#3E0506"/>
<stop offset="0.2327" stop-color="#540A0B"/>
<stop offset="0.3759" stop-color="#610E0E"/>
<stop offset="0.5037" stop-color="#660F0F"/>
<stop offset="0.6405" stop-color="#600E0E"/>
<stop offset="0.8254" stop-color="#4F0B0B"/>
<stop offset="1" stop-color="#380808"/>
</linearGradient>
<linearGradient id="paint40_linear_533_4409" x1="51.8502" y1="106.972" x2="79.6055" y2="106.972" gradientUnits="userSpaceOnUse">
<stop stop-color="#420000"/>
<stop offset="1" stop-color="#8A1F1F"/>
</linearGradient>
<linearGradient id="paint41_linear_533_4409" x1="9.28893" y1="103.723" x2="39.9385" y2="91.3402" gradientUnits="userSpaceOnUse">
<stop stop-color="#660F0F"/>
<stop offset="0.3866" stop-color="#C4353C"/>
<stop offset="0.4775" stop-color="#AD292E"/>
<stop offset="0.665" stop-color="#841315"/>
<stop offset="0.8128" stop-color="#6A0506"/>
<stop offset="0.9015" stop-color="#610000"/>
</linearGradient>
<radialGradient id="paint42_radial_533_4409" cx="0" cy="0" r="1" gradientUnits="userSpaceOnUse" gradientTransform="translate(11.3199 52.0191) scale(81.7859)">
<stop offset="0.00371747" stop-color="#ED6161"/>
<stop offset="1"/>
</radialGradient>
<linearGradient id="paint43_linear_533_4409" x1="8.3039" y1="101.19" x2="38.5338" y2="88.9766" gradientUnits="userSpaceOnUse">
<stop offset="0.1041" stop-color="#6B4200"/>
<stop offset="0.4981" stop-color="#FFC261"/>
<stop offset="1" stop-color="#6B4200"/>
</linearGradient>
<linearGradient id="paint44_linear_533_4409" x1="380.623" y1="97.2881" x2="438.048" y2="120.49" gradientUnits="userSpaceOnUse">
<stop stop-color="#380808"/>
<stop offset="0.1746" stop-color="#4F0B0B"/>
<stop offset="0.3595" stop-color="#600E0E"/>
<stop offset="0.4963" stop-color="#660F0F"/>
<stop offset="0.6241" stop-color="#610E0E"/>
<stop offset="0.7673" stop-color="#540A0B"/>
<stop offset="0.9175" stop-color="#3E0506"/>
<stop offset="1" stop-color="#2E0103"/>
</linearGradient>
<linearGradient id="paint45_linear_533_4409" x1="375.594" y1="106.972" x2="403.35" y2="106.972" gradientUnits="userSpaceOnUse">
<stop stop-color="#8A1F1F"/>
<stop offset="1" stop-color="#420000"/>
</linearGradient>
<linearGradient id="paint46_linear_533_4409" x1="415.261" y1="91.3397" x2="445.912" y2="103.723" gradientUnits="userSpaceOnUse">
<stop offset="0.098513" stop-color="#610000"/>
<stop offset="0.1872" stop-color="#6A0506"/>
<stop offset="0.335" stop-color="#841315"/>
<stop offset="0.5225" stop-color="#AD292E"/>
<stop offset="0.6134" stop-color="#C4353C"/>
<stop offset="1" stop-color="#660F0F"/>
</linearGradient>
<radialGradient id="paint47_radial_533_4409" cx="0" cy="0" r="1" gradientUnits="userSpaceOnUse" gradientTransform="translate(455.165 49.7624) scale(81.2138 81.2138)">
<stop offset="0.00371747" stop-color="#ED6161"/>
<stop offset="1"/>
</radialGradient>
<linearGradient id="paint48_linear_533_4409" x1="416.668" y1="88.9769" x2="446.898" y2="101.191" gradientUnits="userSpaceOnUse">
<stop stop-color="#6B4200"/>
<stop offset="0.5019" stop-color="#FFC261"/>
<stop offset="0.8959" stop-color="#6B4200"/>
</linearGradient>
<radialGradient id="paint49_radial_533_4409" cx="0" cy="0" r="1" gradientUnits="userSpaceOnUse" gradientTransform="translate(-49.9695 104.529) scale(283.405 283.405)">
<stop offset="0.3285" stop-color="#701D24"/>
<stop offset="0.3696" stop-color="#CC4545"/>
<stop offset="0.3824" stop-color="#B22E2E"/>
<stop offset="0.3972" stop-color="#9C1919"/>
<stop offset="0.4134" stop-color="#8C0B0B"/>
<stop offset="0.4318" stop-color="#830303"/>
<stop offset="0.4572" stop-color="#800000"/>
<stop offset="0.6611" stop-color="#990D0D"/>
<stop offset="0.8478" stop-color="#A81414"/>
<stop offset="1" stop-color="#AD1717"/>
</radialGradient>
<radialGradient id="paint50_radial_533_4409" cx="0" cy="0" r="1" gradientUnits="userSpaceOnUse" gradientTransform="translate(505.171 104.529) rotate(180) scale(283.405 283.405)">
<stop offset="0.3285" stop-color="#701D24"/>
<stop offset="0.3696" stop-color="#CC4545"/>
<stop offset="0.3824" stop-color="#B22E2E"/>
<stop offset="0.3972" stop-color="#9C1919"/>
<stop offset="0.4134" stop-color="#8C0B0B"/>
<stop offset="0.4318" stop-color="#830303"/>
<stop offset="0.4572" stop-color="#800000"/>
<stop offset="0.6611" stop-color="#990D0D"/>
<stop offset="0.8478" stop-color="#A81414"/>
<stop offset="1" stop-color="#AD1717"/>
</radialGradient>
<linearGradient id="paint51_linear_533_4409" x1="31.5099" y1="58.6205" x2="227.785" y2="58.6205" gradientUnits="userSpaceOnUse">
<stop stop-color="#D69705"/>
<stop offset="0.0669145" stop-color="#FFDD6E"/>
<stop offset="0.5242" stop-color="#EBA605"/>
<stop offset="1" stop-color="#FFD570"/>
</linearGradient>
<linearGradient id="paint52_linear_533_4409" x1="227.785" y1="58.4785" x2="424.154" y2="58.4785" gradientUnits="userSpaceOnUse">
<stop stop-color="#FFD570"/>
<stop offset="0.4758" stop-color="#EBA605"/>
<stop offset="0.9331" stop-color="#FFDD6E"/>
<stop offset="1" stop-color="#D69705"/>
</linearGradient>
<radialGradient id="paint53_radial_533_4409" cx="0" cy="0" r="1" gradientUnits="userSpaceOnUse" gradientTransform="translate(227.6 151.656) scale(246.405 246.405)">
<stop stop-color="#D11919"/>
<stop offset="0.2488" stop-color="#911115"/>
<stop offset="0.5484" stop-color="#4A0911"/>
<stop offset="0.7646" stop-color="#1E030E"/>
<stop offset="0.8736" stop-color="#0D010D"/>
</radialGradient>
<linearGradient id="paint54_linear_533_4409" x1="226.762" y1="66.3446" x2="226.762" y2="31.5168" gradientUnits="userSpaceOnUse">
<stop stop-color="#FFA400"/>
<stop offset="1" stop-color="#FFEC59"/>
</linearGradient>
</defs>
</svg>
