<svg width="27" height="27" viewBox="0 0 41 41" fill="none" xmlns="http://www.w3.org/2000/svg">
<rect width="41" height="41" rx="11" fill="white"/>
<path d="M11.3267 12.7133L12.2177 13.1673L11.3267 12.7133ZM11.768 30.3073L12.4751 31.0144H12.4751L11.768 30.3073ZM29.3619 25.7484L28.9079 24.8574L29.3619 25.7484ZM30.6729 24.4374L29.7819 23.9834L29.7819 23.9834L30.6729 24.4374ZM30.6729 12.7133L29.7819 13.1673L29.7819 13.1673L30.6729 12.7133ZM29.3619 11.4023L29.8159 10.5113V10.5113L29.3619 11.4023ZM12.6378 11.4023L13.0918 12.2933L12.6378 11.4023ZM15.9999 26.0754L15.2928 25.3683L15.9999 26.0754ZM11.9998 15.8753C11.9998 15.0187 12.0005 14.4364 12.0373 13.9863C12.0731 13.5479 12.1381 13.3237 12.2177 13.1673L10.4357 12.2593C10.1884 12.7447 10.0899 13.2614 10.0439 13.8235C9.99898 14.3739 9.99976 15.0517 9.99976 15.8753H11.9998ZM11.9998 26.0754V15.8753H9.99976V26.0754H11.9998ZM10.9998 25.0754H10.9998V27.0754H10.9998V25.0754ZM9.99983 26.0754V29.9891H11.9998V26.0754H9.99983ZM9.99983 29.9891C9.99983 31.2809 11.5617 31.9278 12.4751 31.0144L11.0609 29.6002C11.4074 29.2537 11.9998 29.4991 11.9998 29.9891H9.99983ZM12.4751 31.0144L16.707 26.7825L15.2928 25.3683L11.0609 29.6002L12.4751 31.0144ZM26.1999 25.0754H15.9999V27.0754H26.1999V25.0754ZM28.9079 24.8574C28.7515 24.9371 28.5273 25.002 28.0889 25.0379C27.6388 25.0746 27.0565 25.0754 26.1999 25.0754V27.0754C27.0235 27.0754 27.7013 27.0762 28.2518 27.0312C28.8139 26.9853 29.3306 26.8867 29.8159 26.6394L28.9079 24.8574ZM29.7819 23.9834C29.5902 24.3597 29.2842 24.6657 28.9079 24.8574L29.8159 26.6394C30.5685 26.2559 31.1805 25.644 31.564 24.8914L29.7819 23.9834ZM29.9999 21.2754C29.9999 22.132 29.9992 22.7143 29.9624 23.1644C29.9266 23.6028 29.8616 23.827 29.7819 23.9834L31.564 24.8914C31.8112 24.406 31.9098 23.8893 31.9557 23.3272C32.0007 22.7768 31.9999 22.099 31.9999 21.2754H29.9999ZM29.9999 15.8753V21.2754H31.9999V15.8753H29.9999ZM29.7819 13.1673C29.8616 13.3237 29.9266 13.5479 29.9624 13.9863C29.9992 14.4364 29.9999 15.0187 29.9999 15.8753H31.9999C31.9999 15.0517 32.0007 14.3739 31.9557 13.8235C31.9098 13.2614 31.8112 12.7447 31.564 12.2593L29.7819 13.1673ZM28.9079 12.2933C29.2842 12.485 29.5902 12.791 29.7819 13.1673L31.564 12.2593C31.1805 11.5067 30.5685 10.8948 29.8159 10.5113L28.9079 12.2933ZM26.1999 12.0753C27.0565 12.0753 27.6388 12.0761 28.0889 12.1128C28.5273 12.1487 28.7515 12.2136 28.9079 12.2933L29.8159 10.5113C29.3306 10.264 28.8139 10.1654 28.2518 10.1195C27.7013 10.0745 27.0235 10.0753 26.1999 10.0753V12.0753ZM15.7998 12.0753H26.1999V10.0753H15.7998V12.0753ZM13.0918 12.2933C13.2482 12.2136 13.4724 12.1487 13.9108 12.1128C14.3609 12.0761 14.9432 12.0753 15.7998 12.0753V10.0753C14.9762 10.0753 14.2984 10.0745 13.7479 10.1195C13.1858 10.1654 12.6691 10.264 12.1838 10.5113L13.0918 12.2933ZM12.2177 13.1673C12.4095 12.791 12.7155 12.485 13.0918 12.2933L12.1838 10.5113C11.4311 10.8948 10.8192 11.5067 10.4357 12.2593L12.2177 13.1673ZM16.9999 26.0754C16.9999 26.5577 16.6197 27.0754 15.9999 27.0754V25.0754C15.3801 25.0754 14.9999 25.5932 14.9999 26.0754H16.9999ZM10.9998 27.0754C10.4475 27.0754 9.99983 26.6277 9.99983 26.0754H11.9998C11.9998 25.5231 11.5521 25.0754 10.9998 25.0754V27.0754ZM16.707 26.7825C16.892 26.5976 16.9999 26.3442 16.9999 26.0754H14.9999C14.9999 25.8066 15.1078 25.5533 15.2928 25.3683L16.707 26.7825ZM9.99976 26.0754C9.99976 26.6277 10.4475 27.0754 10.9998 27.0754V25.0754C11.5521 25.0754 11.9998 25.5231 11.9998 26.0754H9.99976Z" fill="#33363F"/>
<path d="M15.9998 16.0753L25.9998 16.0753" stroke="#33363F" stroke-width="2" stroke-linecap="round" stroke-linejoin="round"/>
<path d="M15.9998 21.0754H22.2498" stroke="#33363F" stroke-width="2" stroke-linecap="round" stroke-linejoin="round"/>
</svg>
