<svg width="36" height="36" viewBox="0 0 36 36" fill="none" xmlns="http://www.w3.org/2000/svg">
<path d="M17.9993 7.38374C16.4339 7.38374 15.166 5.79707 15.166 3.84207C15.1349 3.46212 15.1869 3.07996 15.3183 2.7221C15.4497 2.36425 15.6574 2.03926 15.9269 1.7697C16.1965 1.50014 16.5215 1.29245 16.8793 1.16105C17.2372 1.02964 17.6193 0.977674 17.9993 1.00874C18.3793 0.977674 18.7614 1.02964 19.1193 1.16105C19.4771 1.29245 19.8021 1.50014 20.0717 1.7697C20.3412 2.03926 20.5489 2.36425 20.6803 2.7221C20.8117 3.07996 20.8637 3.46212 20.8326 3.84207C20.8326 5.79707 19.5647 7.38374 17.9993 7.38374ZM17.9993 2.42541C16.7314 2.42541 16.5826 3.23291 16.5826 3.84207C16.5826 4.97541 17.2414 5.96707 17.9993 5.96707C18.7572 5.96707 19.416 4.97541 19.416 3.84207C19.416 3.23291 19.2672 2.42541 17.9993 2.42541Z" fill="#6561C0" stroke="#6561C0" stroke-width="0.5"/>
<path d="M22.9587 11.6337H21.542V8.58079C21.5444 8.41204 21.4866 8.24796 21.3788 8.1181C21.271 7.98824 21.1204 7.90113 20.9541 7.87246L18.0003 7.38371L15.0466 7.87954C14.8803 7.90821 14.7297 7.99532 14.6219 8.12519C14.5141 8.25505 14.4562 8.41913 14.4587 8.58787V11.6337H13.042V8.58079C13.0436 8.07856 13.2231 7.59314 13.5485 7.21062C13.874 6.82811 14.3244 6.57324 14.8199 6.49121L17.887 5.96704H18.1137L21.1807 6.48412C21.6774 6.56635 22.1288 6.82226 22.4544 7.20624C22.78 7.59023 22.9587 8.07734 22.9587 8.58079V11.6337Z" fill="#6561C0" stroke="#6561C0" stroke-width="0.5"/>
<path d="M17.9993 30.0505C16.4339 30.0505 15.166 28.4638 15.166 26.5088C15.1349 26.1289 15.1869 25.7467 15.3183 25.3889C15.4497 25.031 15.6574 24.706 15.9269 24.4364C16.1965 24.1669 16.5215 23.9592 16.8793 23.8278C17.2372 23.6964 17.6193 23.6444 17.9993 23.6755C18.3793 23.6444 18.7614 23.6964 19.1193 23.8278C19.4771 23.9592 19.8021 24.1669 20.0717 24.4364C20.3412 24.706 20.5489 25.031 20.6803 25.3889C20.8117 25.7467 20.8637 26.1289 20.8326 26.5088C20.8326 28.4638 19.5647 30.0505 17.9993 30.0505ZM17.9993 25.0922C16.7314 25.0922 16.5826 25.8997 16.5826 26.5088C16.5826 27.6422 17.2414 28.6338 17.9993 28.6338C18.7572 28.6338 19.416 27.6422 19.416 26.5088C19.416 25.8997 19.2672 25.0922 17.9993 25.0922Z" fill="#6561C0" stroke="#6561C0" stroke-width="0.5"/>
<path d="M22.9587 35.0085H21.542V31.2473C21.5444 31.0785 21.4866 30.9145 21.3788 30.7846C21.271 30.6547 21.1204 30.5676 20.9541 30.539L18.0003 30.0502L15.0466 30.546C14.8803 30.5747 14.7297 30.6618 14.6219 30.7917C14.5141 30.9216 14.4562 31.0856 14.4587 31.2544V35.0085H13.042V31.2473C13.0436 30.7451 13.2231 30.2596 13.5485 29.8771C13.874 29.4946 14.3244 29.2397 14.8199 29.1577L17.887 28.6335H18.1137L21.1807 29.1506C21.6774 29.2329 22.1288 29.4888 22.4544 29.8727C22.78 30.2567 22.9587 30.7438 22.9587 31.2473V35.0085Z" fill="#6561C0" stroke="#6561C0" stroke-width="0.5"/>
<path d="M5.95829 30.0505C4.39287 30.0505 3.12495 28.4638 3.12495 26.5088C3.09389 26.1289 3.14586 25.7467 3.27726 25.3889C3.40866 25.031 3.61635 24.706 3.88591 24.4364C4.15547 24.1669 4.48046 23.9592 4.83831 23.8278C5.19617 23.6964 5.57833 23.6444 5.95829 23.6755C6.33824 23.6444 6.7204 23.6964 7.07826 23.8278C7.43611 23.9592 7.7611 24.1669 8.03066 24.4364C8.30022 24.706 8.50791 25.031 8.63931 25.3889C8.77071 25.7467 8.82269 26.1289 8.79162 26.5088C8.79162 28.4638 7.5237 30.0505 5.95829 30.0505ZM5.95829 25.0922C4.69037 25.0922 4.54162 25.8997 4.54162 26.5088C4.54162 27.6422 5.20037 28.6338 5.95829 28.6338C6.7162 28.6338 7.37495 27.6422 7.37495 26.5088C7.37495 25.8997 7.2262 25.0922 5.95829 25.0922Z" fill="#6561C0" stroke="#6561C0" stroke-width="0.5"/>
<path d="M10.9167 35.0085H9.5V31.2473C9.50245 31.0785 9.44458 30.9145 9.33679 30.7846C9.22901 30.6547 9.0784 30.5676 8.91208 30.539L5.95833 30.0502L3.00458 30.546C2.83827 30.5747 2.68766 30.6618 2.57988 30.7917C2.47209 30.9216 2.41421 31.0856 2.41667 31.2544V35.0085H1V31.2473C1.00163 30.7451 1.18109 30.2596 1.50654 29.8771C1.832 29.4946 2.28243 29.2397 2.77792 29.1577L5.845 28.6335H6.07167L9.13875 29.1506C9.63544 29.2329 10.0868 29.4888 10.4124 29.8727C10.738 30.2567 10.9167 30.7438 10.9167 31.2473V35.0085Z" fill="#6561C0" stroke="#6561C0" stroke-width="0.5"/>
<path d="M30.0413 30.0505C28.4759 30.0505 27.208 28.4638 27.208 26.5088C27.1769 26.1289 27.2289 25.7467 27.3603 25.3889C27.4917 25.031 27.6994 24.706 27.9689 24.4364C28.2385 24.1669 28.5635 23.9592 28.9213 23.8278C29.2792 23.6964 29.6613 23.6444 30.0413 23.6755C30.4212 23.6444 30.8034 23.6964 31.1613 23.8278C31.5191 23.9592 31.8441 24.1669 32.1137 24.4364C32.3832 24.706 32.5909 25.031 32.7223 25.3889C32.8537 25.7467 32.9057 26.1289 32.8746 26.5088C32.8746 28.4638 31.6067 30.0505 30.0413 30.0505ZM30.0413 25.0922C28.7734 25.0922 28.6246 25.8997 28.6246 26.5088C28.6246 27.6422 29.2834 28.6338 30.0413 28.6338C30.7992 28.6338 31.458 27.6422 31.458 26.5088C31.458 25.8997 31.3092 25.0922 30.0413 25.0922Z" fill="#6561C0" stroke="#6561C0" stroke-width="0.5"/>
<path d="M34.9997 35.0085H33.583V31.2473C33.5855 31.0785 33.5276 30.9145 33.4198 30.7846C33.312 30.6547 33.1614 30.5676 32.9951 30.539L30.0413 30.0502L27.0876 30.546C26.9213 30.5747 26.7707 30.6618 26.6629 30.7917C26.5551 30.9216 26.4972 31.0856 26.4997 31.2544V35.0085H25.083V31.2473C25.0846 30.7451 25.2641 30.2596 25.5896 29.8771C25.915 29.4946 26.3654 29.2397 26.8609 29.1577L29.928 28.6335H30.1547L33.2218 29.1506C33.7184 29.2329 34.1698 29.4888 34.4954 29.8727C34.821 30.2567 34.9997 30.7438 34.9997 31.2473V35.0085Z" fill="#6561C0" stroke="#6561C0" stroke-width="0.5"/>
<path d="M24.3743 18.717C22.8089 18.717 21.541 17.1303 21.541 15.1753C21.5099 14.7954 21.5619 14.4132 21.6933 14.0554C21.8247 13.6975 22.0324 13.3725 22.3019 13.103C22.5715 12.8334 22.8965 12.6257 23.2543 12.4943C23.6122 12.3629 23.9943 12.3109 24.3743 12.342C24.7543 12.3109 25.1364 12.3629 25.4943 12.4943C25.8521 12.6257 26.1771 12.8334 26.4467 13.103C26.7162 13.3725 26.9239 13.6975 27.0553 14.0554C27.1867 14.4132 27.2387 14.7954 27.2076 15.1753C27.2076 17.1303 25.9397 18.717 24.3743 18.717ZM24.3743 13.7587C23.1064 13.7587 22.9576 14.5662 22.9576 15.1753C22.9576 16.3087 23.6164 17.3003 24.3743 17.3003C25.1322 17.3003 25.791 16.3087 25.791 15.1753C25.791 14.5662 25.6422 13.7587 24.3743 13.7587Z" fill="#6561C0" stroke="#6561C0" stroke-width="0.5"/>
<path d="M29.3338 22.9671H27.9172V19.9142C27.9196 19.7455 27.8618 19.5814 27.754 19.4515C27.6462 19.3217 27.4956 19.2346 27.3293 19.2059L24.3755 18.7171L21.4218 19.213C21.2555 19.2417 21.1048 19.3288 20.9971 19.4586C20.8893 19.5885 20.8314 19.7526 20.8339 19.9213V22.9671H19.4172V19.9142C19.4104 19.4059 19.586 18.912 19.9122 18.5221C20.2384 18.1322 20.6936 17.8722 21.1951 17.7892L24.2622 17.3005C24.3376 17.2934 24.4135 17.2934 24.4889 17.3005L27.5559 17.8176C28.0575 17.9005 28.5126 18.1606 28.8388 18.5505C29.165 18.9403 29.3407 19.4343 29.3338 19.9426V22.9671Z" fill="#6561C0" stroke="#6561C0" stroke-width="0.5"/>
<path d="M11.6243 18.717C10.0589 18.717 8.79097 17.1303 8.79097 15.1753C8.7599 14.7954 8.81187 14.4132 8.94327 14.0554C9.07468 13.6975 9.28236 13.3725 9.55193 13.103C9.82149 12.8334 10.1465 12.6257 10.5043 12.4943C10.8622 12.3629 11.2443 12.3109 11.6243 12.342C12.0043 12.3109 12.3864 12.3629 12.7443 12.4943C13.1021 12.6257 13.4271 12.8334 13.6967 13.103C13.9662 13.3725 14.1739 13.6975 14.3053 14.0554C14.4367 14.4132 14.4887 14.7954 14.4576 15.1753C14.4576 17.1303 13.1897 18.717 11.6243 18.717ZM11.6243 13.7587C10.3564 13.7587 10.2076 14.5662 10.2076 15.1753C10.2076 16.3087 10.8664 17.3003 11.6243 17.3003C12.3822 17.3003 13.041 16.3087 13.041 15.1753C13.041 14.5662 12.8922 13.7587 11.6243 13.7587Z" fill="#6561C0" stroke="#6561C0" stroke-width="0.5"/>
<path d="M16.5838 22.9671H15.1672V19.9142C15.1696 19.7455 15.1118 19.5814 15.004 19.4515C14.8962 19.3217 14.7456 19.2346 14.5793 19.2059L11.6255 18.7171L8.67177 19.213C8.50545 19.2417 8.35485 19.3288 8.24706 19.4586C8.13927 19.5885 8.0814 19.7526 8.08385 19.9213V22.9671H6.66718V19.9142C6.66036 19.4059 6.83599 18.912 7.1622 18.5221C7.4884 18.1322 7.94357 17.8722 8.4451 17.7892L11.5122 17.3005C11.5876 17.2934 11.6635 17.2934 11.7389 17.3005L14.8059 17.8176C15.3075 17.9005 15.7626 18.1606 16.0888 18.5505C16.415 18.9403 16.5907 19.4343 16.5838 19.9426V22.9671Z" fill="#6561C0" stroke="#6561C0" stroke-width="0.5"/>
</svg>
