<svg width="20" height="20" viewBox="0 0 23 31" fill="none" xmlns="http://www.w3.org/2000/svg">
<path fill-rule="evenodd" clip-rule="evenodd" d="M11.5 0C7.60728 0 4.45161 3.21591 4.45161 7.18293C4.45161 11.1499 7.60728 14.3659 11.5 14.3659C15.3927 14.3659 18.5484 11.1499 18.5484 7.18293C18.5484 3.21591 15.3927 0 11.5 0ZM6.67742 7.18293C6.67742 4.46865 8.83656 2.26829 11.5 2.26829C14.1634 2.26829 16.3226 4.46865 16.3226 7.18293C16.3226 9.89721 14.1634 12.0976 11.5 12.0976C8.83656 12.0976 6.67742 9.89721 6.67742 7.18293Z" fill="#6A6A6A"/>
<path fill-rule="evenodd" clip-rule="evenodd" d="M7.04839 16.6341C3.15567 16.6341 0 19.8501 0 23.8171C0 27.7841 3.15567 31 7.04839 31H15.9516C19.8443 31 23 27.7841 23 23.8171C23 19.8501 19.8443 16.6341 15.9516 16.6341H7.04839ZM2.22581 23.8171C2.22581 21.1028 4.38495 18.9024 7.04839 18.9024H15.9516C18.615 18.9024 20.7742 21.1028 20.7742 23.8171C20.7742 26.5314 18.615 28.7317 15.9516 28.7317H7.04839C4.38495 28.7317 2.22581 26.5314 2.22581 23.8171Z" fill="#6A6A6A"/>
</svg>
