<svg width="41" height="41" viewBox="0 0 41 41" fill="none" xmlns="http://www.w3.org/2000/svg">
<rect width="41" height="41" rx="11" fill="white"/>
<path d="M28.875 13C28.75 12.875 28.5625 12.875 28.375 12.875L18.375 14.75C18.0625 14.8125 17.875 15.0625 17.875 15.375V24.625C17.375 24.3125 16.6875 24.125 16 24.125C14.25 24.125 12.875 25.25 12.875 26.625C12.875 28 14.25 29.125 16 29.125C17.75 29.125 19.125 28 19.125 26.625V15.875L27.875 14.25V22.75C27.375 22.4375 26.6875 22.25 26 22.25C24.25 22.25 22.875 23.375 22.875 24.75C22.875 26.125 24.25 27.25 26 27.25C27.75 27.25 29.125 26.125 29.125 24.75V13.5C29.125 13.3125 29.0625 13.125 28.875 13Z" fill="#33363F"/>
</svg>
