<svg width="21" height="22" viewBox="0 0 21 22" fill="none" xmlns="http://www.w3.org/2000/svg">
<path d="M18.0623 22.0079H3.62293C2.66819 22.0079 1.80004 21.5639 1.24157 20.789C0.683108 20.014 0.536336 19.0498 0.838685 18.1442L1.35532 16.5935C1.8903 14.9901 3.32058 13.821 4.99964 13.6148C6.5356 13.427 8.79588 13.2017 10.8426 13.2017C12.8886 13.2017 15.1496 13.427 16.6863 13.6148C18.3646 13.8203 19.7949 14.9901 20.3299 16.5935L20.8465 18.1442C21.1489 19.0498 21.0021 20.014 20.4429 20.789C19.8844 21.5639 19.017 22.0079 18.0623 22.0079ZM10.8426 14.6694C8.87 14.6694 6.67357 14.8881 5.1787 15.0723C4.05811 15.2095 3.1041 15.9888 2.74818 17.0581L2.23154 18.608C2.08037 19.0615 2.15375 19.5429 2.43262 19.9304C2.71148 20.3179 3.14519 20.5402 3.62293 20.5402H18.0623C18.5393 20.5402 18.9737 20.3179 19.2526 19.9311C19.5322 19.5436 19.6048 19.0615 19.4544 18.608L18.9378 17.0581C18.5811 15.9888 17.6271 15.2088 16.5072 15.0723C15.0116 14.8881 12.8145 14.6694 10.8426 14.6694Z" fill="#6561C0"/>
<path d="M10.8413 12.4677C7.40171 12.4677 4.60352 9.66953 4.60352 6.22996C4.60352 2.79038 7.40171 -0.0078125 10.8413 -0.0078125C14.2809 -0.0078125 17.0791 2.79038 17.0791 6.22996C17.0791 9.66953 14.2809 12.4677 10.8413 12.4677ZM10.8413 1.4599C8.21115 1.4599 6.07123 3.59982 6.07123 6.22996C6.07123 8.86009 8.21115 11 10.8413 11C13.4714 11 15.6113 8.86009 15.6113 6.22996C15.6113 3.59982 13.4714 1.4599 10.8413 1.4599Z" fill="#6561C0"/>
</svg>
