<svg width="25" height="28" viewBox="0 0 25 28" fill="none" xmlns="http://www.w3.org/2000/svg">
<path d="M22.6807 19.56C22.1006 18.3773 21.7995 17.0773 21.8007 15.76C21.8007 15.4948 21.6954 15.2404 21.5078 15.0529C21.3203 14.8654 21.066 14.76 20.8007 14.76C20.5355 14.76 20.2812 14.8654 20.0936 15.0529C19.9061 15.2404 19.8007 15.4948 19.8007 15.76C19.7993 17.3819 20.1687 18.9827 20.8807 20.44L21.8807 22.57C21.9081 22.6153 21.9225 22.6671 21.9225 22.72C21.9225 22.7729 21.9081 22.8247 21.8807 22.87C21.86 22.9102 21.8284 22.9437 21.7895 22.9667C21.7506 22.9897 21.7059 23.0013 21.6607 23H2.23074C2.18555 23.0013 2.14092 22.9897 2.102 22.9667C2.06308 22.9437 2.03144 22.9102 2.01074 22.87C1.98339 22.8247 1.96893 22.7729 1.96893 22.72C1.96893 22.6671 1.98339 22.6153 2.01074 22.57L3.01074 20.44C3.72273 18.9827 4.09214 17.3819 4.09074 15.76V10C4.08151 8.95777 4.27783 7.92395 4.66846 6.95765C5.0591 5.99136 5.63639 5.11155 6.36733 4.36854C7.09826 3.62553 7.9685 3.0339 8.92826 2.62749C9.88803 2.22107 10.9185 2.00785 11.9607 2C12.8649 1.99904 13.7621 2.15817 14.6107 2.47C14.86 2.56283 15.136 2.55282 15.3779 2.44217C15.6199 2.33152 15.8079 2.12931 15.9007 1.88C15.9936 1.6307 15.9836 1.35473 15.8729 1.11281C15.7623 0.870887 15.56 0.682828 15.3107 0.590002C14.2372 0.198961 13.1033 -0.000731133 11.9607 2.0114e-06C9.33143 0.0264064 6.8197 1.09354 4.97546 2.96777C3.13122 4.842 2.10473 7.37061 2.12074 10V15.76C2.12196 17.0773 1.8209 18.3773 1.24074 19.56L0.240738 21.69C0.0654452 22.0415 -0.0165072 22.4321 0.00275658 22.8244C0.0220204 23.2167 0.141852 23.5974 0.350738 23.93C0.548969 24.2519 0.82513 24.5187 1.15371 24.7058C1.4823 24.8928 1.85271 24.994 2.23074 25H8.10074C8.33102 25.8474 8.83374 26.5954 9.53133 27.1287C10.2289 27.6621 11.0826 27.951 11.9607 27.951C12.8388 27.951 13.6925 27.6621 14.3901 27.1287C15.0877 26.5954 15.5905 25.8474 15.8207 25H21.6907C22.0756 25.0007 22.4541 24.9027 22.7903 24.7154C23.1264 24.5281 23.4089 24.2577 23.6107 23.93C23.8196 23.5974 23.9395 23.2167 23.9587 22.8244C23.978 22.4321 23.896 22.0415 23.7207 21.69L22.6807 19.56ZM11.9607 26C11.6117 25.9979 11.2693 25.9045 10.9676 25.7291C10.6658 25.5536 10.4152 25.3023 10.2407 25H13.6807C13.5062 25.3023 13.2556 25.5536 12.9539 25.7291C12.6522 25.9045 12.3098 25.9979 11.9607 26Z" fill="#6561C0"/>
<path d="M9.4903 4.11002C8.28009 4.73729 7.26637 5.68624 6.56064 6.85244C5.85492 8.01865 5.48456 9.35692 5.4903 10.72C5.4903 10.9852 5.59566 11.2396 5.78319 11.4271C5.97073 11.6147 6.22508 11.72 6.4903 11.72C6.75552 11.72 7.00987 11.6147 7.19741 11.4271C7.38494 11.2396 7.4903 10.9852 7.4903 10.72C7.48549 9.72544 7.75445 8.74871 8.26772 7.89679C8.78099 7.04487 9.51878 6.3506 10.4003 5.89002C10.5172 5.82961 10.621 5.74677 10.7059 5.64624C10.7907 5.5457 10.855 5.42943 10.8949 5.30407C10.9348 5.17871 10.9497 5.04672 10.9386 4.91562C10.9275 4.78452 10.8907 4.65689 10.8303 4.54002C10.7699 4.42314 10.6871 4.31931 10.5865 4.23444C10.486 4.14958 10.3697 4.08535 10.2444 4.04542C10.119 4.00549 9.987 3.99065 9.8559 4.00173C9.72481 4.01281 9.59718 4.04961 9.4803 4.11002H9.4903Z" fill="#6561C0"/>
<path d="M19.9609 13C20.9498 13 21.9165 12.7068 22.7388 12.1573C23.561 11.6079 24.2019 10.827 24.5803 9.91342C24.9588 8.99979 25.0578 7.99446 24.8649 7.02455C24.6719 6.05465 24.1957 5.16373 23.4965 4.46447C22.7972 3.76521 21.9063 3.289 20.9364 3.09608C19.9665 2.90315 18.9612 3.00217 18.0475 3.3806C17.1339 3.75904 16.353 4.39991 15.8036 5.22215C15.2542 6.0444 14.9609 7.0111 14.9609 8C14.9609 9.32609 15.4877 10.5979 16.4254 11.5355C17.3631 12.4732 18.6349 13 19.9609 13ZM19.9609 5C20.5543 5 21.1343 5.17595 21.6276 5.50559C22.121 5.83524 22.5055 6.30377 22.7326 6.85195C22.9596 7.40013 23.019 8.00333 22.9033 8.58527C22.7875 9.16722 22.5018 9.70177 22.0823 10.1213C21.6627 10.5409 21.1282 10.8266 20.5462 10.9424C19.9643 11.0581 19.3611 10.9987 18.8129 10.7716C18.2647 10.5446 17.7962 10.1601 17.4665 9.66671C17.1369 9.17337 16.9609 8.59335 16.9609 8C16.9609 7.20435 17.277 6.44129 17.8396 5.87868C18.4022 5.31607 19.1653 5 19.9609 5Z" fill="#6561C0"/>
</svg>
