<svg width="30" height="22" viewBox="0 0 20 26" fill="none" xmlns="http://www.w3.org/2000/svg">
<path fill-rule="evenodd" clip-rule="evenodd" d="M1.77083 9.48574C0.892151 10.3644 0.892151 11.7786 0.892151 14.6071V17.4741C0.892151 21.2454 0.892151 23.131 2.06372 24.3026C3.2353 25.4741 5.12092 25.4741 8.89216 25.4741H11.692C15.4633 25.4741 17.3489 25.4741 18.5205 24.3026C19.692 23.131 19.692 21.2454 19.692 17.4741V14.6071C19.692 11.7786 19.692 10.3644 18.8134 9.48574C17.9347 8.60706 16.5205 8.60706 13.692 8.60706H6.89215C4.06372 8.60706 2.64951 8.60706 1.77083 9.48574ZM10.2921 17.8517C10.7815 17.8517 11.4254 17.3784 11.4254 16.4783C11.4254 15.5781 10.7815 15.1049 10.2921 15.1049C9.80272 15.1049 9.15881 15.5781 9.15881 16.4783C9.15881 17.3784 9.80272 17.8517 10.2921 17.8517ZM13.4254 16.4783C13.4254 17.9648 12.5324 19.2267 11.2924 19.6761V22.1006H9.29242V19.6764C8.05214 19.2271 7.15881 17.965 7.15881 16.4783C7.15881 14.6152 8.56165 13.1049 10.2921 13.1049C12.0226 13.1049 13.4254 14.6152 13.4254 16.4783Z" fill="#515151"/>
<path d="M14.9922 9.73124V9.73124C15.3095 7.68113 14.4445 5.58768 12.787 4.39453L12.4896 4.18044C10.3776 2.66008 7.60547 2.80838 5.74706 4.54113L4.72524 5.49386" stroke="#515151" stroke-width="2" stroke-linecap="round"/>
</svg>
