<svg width="20" height="26" viewBox="0 0 20 26" fill="none" xmlns="http://www.w3.org/2000/svg">
<path fill-rule="evenodd" clip-rule="evenodd" d="M1.77126 9.48574C0.892578 10.3644 0.892578 11.7786 0.892578 14.6071V17.4741C0.892578 21.2454 0.892578 23.131 2.06415 24.3026C3.23572 25.4741 5.12134 25.4741 8.89258 25.4741H11.6925C15.4637 25.4741 17.3493 25.4741 18.5209 24.3026C19.6925 23.131 19.6925 21.2454 19.6925 17.4741V14.6071C19.6925 11.7786 19.6925 10.3644 18.8138 9.48574C17.9351 8.60706 16.5209 8.60706 13.6925 8.60706H6.89258C4.06415 8.60706 2.64994 8.60706 1.77126 9.48574ZM10.2926 17.8517C10.782 17.8517 11.4259 17.3784 11.4259 16.4783C11.4259 15.5781 10.782 15.1049 10.2926 15.1049C9.80314 15.1049 9.15924 15.5781 9.15924 16.4783C9.15924 17.3784 9.80314 17.8517 10.2926 17.8517ZM13.4259 16.4783C13.4259 17.9648 12.5328 19.2267 11.2929 19.6761V22.1006H9.29285V19.6764C8.05257 19.2271 7.15924 17.965 7.15924 16.4783C7.15924 14.6152 8.56207 13.1049 10.2926 13.1049C12.023 13.1049 13.4259 14.6152 13.4259 16.4783Z" fill="#6561C0"/>
<path d="M14.9927 9.73124V9.73124C15.3101 7.68113 14.445 5.58768 12.7876 4.39453L12.4902 4.18044C10.3782 2.66008 7.60605 2.80838 5.74764 4.54113L4.72582 5.49386" stroke="#6561C0" stroke-width="2" stroke-linecap="round"/>
</svg>
