<svg width="60" height="60" viewBox="0 0 60 60" fill="none" xmlns="http://www.w3.org/2000/svg">
<rect width="60" height="60" rx="30" fill="#6561C0"/>
<path d="M21.0588 33.633L24.2132 36.9376C26.93 39.7838 28.2884 41.2069 30 41.2069C31.7116 41.2069 33.07 39.7838 35.7868 36.9376L38.9412 33.633C40.3245 32.1838 41.0162 31.4593 41.2936 30.5545C41.3487 30.3747 41.3911 30.1913 41.4204 30.0055C41.568 29.0708 41.2643 28.1163 40.6568 26.2072C39.9162 23.8794 39.5458 22.7154 38.6962 21.9784C38.5286 21.833 38.3491 21.7018 38.1597 21.5861C37.1998 21 35.9784 21 33.5356 21H26.4644C24.0216 21 22.8002 21 21.8403 21.5861C21.6509 21.7018 21.4714 21.833 21.3038 21.9784C20.4542 22.7154 20.0838 23.8794 19.3432 26.2072C18.7357 28.1163 18.432 29.0708 18.5796 30.0055C18.6089 30.1913 18.6513 30.3747 18.7064 30.5545C18.9838 31.4593 19.6755 32.1838 21.0588 33.633Z" fill="white"/>
<path d="M24 29C25.8667 30.5092 30.88 32.6222 36 29" stroke="url(#paint0_linear_20_3403)" stroke-width="2" stroke-linecap="round" stroke-linejoin="round"/>
<defs>
<linearGradient id="paint0_linear_20_3403" x1="23.4545" y1="29" x2="37.0744" y2="30.1886" gradientUnits="userSpaceOnUse">
<stop stop-color="#6561C0"/>
<stop offset="1" stop-color="#A39FFC"/>
</linearGradient>
</defs>
</svg>
