<svg width="55" height="55" viewBox="0 0 60 60" fill="none" xmlns="http://www.w3.org/2000/svg">
<rect width="60" height="60" rx="30" fill="#6561C0"/>
<path d="M44.6526 26.2512L38.3708 34.6346L34.7275 39.5052L29.8263 46.0478L25.6078 40.4256L21.2741 34.6346L15 26.2512H44.6526Z" fill="#F7CB15"/>
<path d="M29.8264 46.0478L24.8792 26.2512H34.7659L29.8264 46.0478Z" fill="#FFF335"/>
<path d="M44.6526 26.2511H15L19.9396 20H39.7131L44.6526 26.2511Z" fill="#FFF335"/>
<path d="M34.7659 26.2511H24.8792L29.8264 20L34.7659 26.2511Z" fill="#FEDE3A"/>
<path d="M44.6526 26.2511H34.7659L39.7131 20L44.6526 26.2511Z" fill="#FEDE3A"/>
<path d="M24.8791 26.2511H15L19.9395 20L24.8791 26.2511Z" fill="#FEDE3A"/>
<path d="M27.0114 38.5539L25.6078 40.4255L21.2742 34.6345H23.9127L27.0114 38.5539Z" fill="#E7AD27"/>
<path d="M38.3709 34.6345L34.7276 39.505L34.022 38.5539L37.1207 34.6345H38.3709Z" fill="#E7AD27"/>
</svg>
