<svg width="24" height="22" viewBox="0 0 24 22" fill="none" xmlns="http://www.w3.org/2000/svg">
<path fill-rule="evenodd" clip-rule="evenodd" d="M15.9979 3.27583C15.79 3.44634 15.483 3.41921 15.31 3.20995C15.1371 3.0007 15.1663 2.6965 15.3761 2.52405L18.3044 0.111769C18.5123 -0.0587375 18.8193 -0.0316114 18.9923 0.175709C19.1632 0.38303 19.136 0.689167 18.9262 0.861611L15.9979 3.27583ZM1.77234 11.776C1.44978 11.8709 1.21272 12.0802 1.05532 12.3573C0.874615 12.677 0.793004 13.0897 0.798833 13.5314C0.800776 13.7213 0.820207 13.917 0.85324 14.1146C0.886273 14.3142 0.936795 14.5138 0.998974 14.7095C1.0631 14.9071 1.14082 15.0989 1.23215 15.283C1.32153 15.4612 1.42257 15.6318 1.53333 15.7868C1.80537 16.1646 2.14347 16.4649 2.53404 16.616C2.87408 16.7497 3.25688 16.7691 3.66882 16.6277L3.67659 16.6257C3.72323 16.6102 3.76986 16.6044 3.8165 16.6083C3.84953 16.6102 3.88256 16.616 3.9156 16.6257L3.92531 16.6219C4.03607 16.585 4.15071 16.5502 4.26341 16.5153L4.57237 16.4204C4.68507 16.3874 4.79194 16.3564 4.89298 16.3273C4.99208 16.2983 5.09313 16.2712 5.19611 16.244C5.30298 16.215 5.40985 16.2324 5.49924 16.2828L5.50895 16.2886C5.59251 16.339 5.65663 16.4204 5.68578 16.523C5.69161 16.5405 5.69355 16.554 5.69549 16.5695C5.7227 16.6916 5.75573 16.8176 5.77905 16.9396C5.99085 17.8852 6.19682 18.7958 6.4708 19.534C6.49411 19.6077 6.52326 19.6794 6.55046 19.753C6.63402 19.9855 6.72146 20.2257 6.81862 20.4447C6.91189 20.6578 7.01098 20.8477 7.12368 20.9872V20.9892C7.20724 21.0938 7.3044 21.1597 7.41904 21.1655C7.54534 21.1713 7.70273 21.1112 7.90093 20.9582C7.98643 20.8787 8.06415 20.8109 8.14382 20.7431L8.16131 20.7276C8.39448 20.5261 8.62766 20.3265 8.7287 20.0533C8.71316 20.0417 8.69567 20.0301 8.67624 20.0204C8.63155 19.9952 8.5752 19.97 8.51884 19.9467L8.51302 19.9448C8.3051 19.8576 8.09913 19.7685 7.94951 19.5825C7.79795 19.3945 7.71634 19.1213 7.77269 18.6757C7.77463 18.6486 7.77852 18.6253 7.7824 18.6021C7.78629 18.5749 7.79017 18.5478 7.79212 18.5207C7.81738 18.3192 7.83098 18.2145 7.82321 18.1855V18.1816C7.81738 18.1739 7.77657 18.1448 7.69496 18.0692C7.67164 18.0479 7.64638 18.0266 7.62501 18.0034C7.50454 17.891 7.41904 17.7573 7.36463 17.61C7.3044 17.4473 7.28108 17.269 7.28302 17.083C7.28496 16.9009 7.31217 16.711 7.35297 16.5308C7.40349 16.3118 7.47539 16.1026 7.54729 15.9301L7.55117 15.9243C7.57837 15.8604 7.62112 15.8081 7.67164 15.7693C7.72605 15.7267 7.79212 15.6996 7.86013 15.6899H7.86401C9.33495 15.4864 10.5222 15.5136 11.519 15.6414C12.4187 15.7577 13.159 15.9534 13.8177 16.1394C13.3145 15.5678 12.852 14.8955 12.4342 14.1631C11.896 13.2175 11.4335 12.1693 11.0604 11.1075C10.6835 10.0341 10.3978 8.94518 10.2191 7.92989C10.0695 7.07736 9.99367 6.2752 10.0034 5.57961C9.44183 6.3837 8.68595 7.36024 7.57449 8.34453C6.30563 9.46639 4.57237 10.5979 2.13181 11.4931C2.10655 11.5008 2.08129 11.5105 2.05603 11.5183L2.04437 11.5377C2.04437 11.5377 2.04632 11.5357 2.00162 11.6055L1.99774 11.6113C1.97248 11.65 1.94139 11.683 1.90641 11.7101C1.86755 11.7392 1.8248 11.7624 1.77816 11.776H1.77234ZM12.8578 13.2757C13.2231 13.9751 13.6273 14.6262 14.0645 15.19C14.4803 15.7248 14.9273 16.184 15.3975 16.5308L15.4461 16.5347C15.4694 16.5366 15.4927 16.5366 15.5121 16.5347H15.5199C15.5568 16.5327 15.5937 16.5269 15.6326 16.5153C15.6695 16.5037 15.7084 16.4862 15.7492 16.463C15.8483 16.3622 15.9299 16.2305 15.996 16.0755C16.0698 15.905 16.1242 15.7034 16.1592 15.4787C16.2661 14.8141 16.2155 13.9635 16.0504 13.0238C15.8697 11.9969 15.549 10.8673 15.1449 9.7609C14.7485 8.67392 14.2705 7.61213 13.7614 6.69372C13.2775 5.81793 12.7665 5.0739 12.273 4.56432C12.0884 4.3725 11.9096 4.21943 11.7405 4.10899C11.5831 4.0063 11.4374 3.94042 11.3033 3.91911H11.2994C11.2684 3.91329 11.2431 3.91136 11.2237 3.90942C11.2159 3.90942 11.2237 3.90361 11.2198 3.90554C11.2178 3.90554 11.2178 3.90942 11.2081 3.91717C11.1906 3.93267 11.1654 3.95592 11.1362 3.98498C11.111 4.00824 11.0857 4.0373 11.0624 4.06443L11.0546 4.07993C10.8292 4.54494 10.7515 5.28122 10.8001 6.17832C10.8506 7.08898 11.0332 8.16046 11.3305 9.27263C12.1758 9.07887 12.8365 9.25713 13.2911 9.63496C13.5574 9.85584 13.7497 10.1426 13.8683 10.4623C13.9848 10.7801 14.0276 11.1308 13.9926 11.4815C13.9265 12.1712 13.5554 12.8533 12.8578 13.2757ZM15.3295 17.3233C15.2906 17.3291 15.2518 17.3291 15.2129 17.3233C15.176 17.3174 15.1391 17.3078 15.1041 17.2903C15.0516 17.2806 14.9991 17.2709 14.9486 17.2593C14.5814 17.1838 14.2238 17.0811 13.8391 16.9726L13.8138 16.9648C12.4945 16.5909 10.8448 16.122 8.20212 16.4475C8.16714 16.5482 8.13799 16.6567 8.11468 16.7633C8.09136 16.8757 8.07776 16.9881 8.07581 17.0908C8.07581 17.1721 8.08359 17.2477 8.10107 17.3097C8.11468 17.3562 8.13605 17.395 8.1652 17.4221L8.21183 17.4647C8.42752 17.6604 8.53245 17.7573 8.59268 17.9782C8.64126 18.1564 8.61989 18.3211 8.57714 18.6466C8.57131 18.6912 8.56742 18.7358 8.55965 18.7803C8.54022 18.9373 8.56548 19.0283 8.61211 19.0845C8.66069 19.1426 8.74425 19.1795 8.82974 19.2143L8.83946 19.2182C9.1115 19.3345 9.38353 19.4527 9.52344 19.8382C9.53898 19.8731 9.5487 19.9119 9.55258 19.9506C9.55647 19.9894 9.55647 20.0281 9.5487 20.0688V20.0707C9.48846 20.3827 9.36022 20.621 9.19894 20.8245C9.04154 21.024 8.855 21.1829 8.67041 21.3418L8.62766 21.3786C8.56354 21.4329 8.50136 21.4871 8.44112 21.5452L8.41003 21.5724C7.98837 21.9076 7.6289 22.0277 7.31217 21.9948C6.99155 21.9618 6.72535 21.7719 6.49994 21.4891C6.34449 21.2953 6.21625 21.057 6.1016 20.8032C5.9889 20.5513 5.89175 20.2858 5.79848 20.0281C5.77322 19.9564 5.74601 19.8847 5.71881 19.813C5.43123 19.04 5.21943 18.1002 5.0018 17.1295C4.93185 17.1489 4.86189 17.1721 4.79194 17.1915C4.68313 17.2244 4.57626 17.2554 4.47327 17.2884C4.36834 17.3213 4.26536 17.3543 4.16432 17.3853L4.15849 17.3872C4.14294 17.3911 4.13128 17.3969 4.12157 17.4008L4.11574 17.4027C4.0419 17.4337 3.98749 17.455 3.92531 17.4608C3.86896 17.4666 3.8165 17.4608 3.75432 17.4376C3.19276 17.5926 2.67394 17.5461 2.21148 17.3601C1.68684 17.1469 1.23603 16.7497 0.878501 16.2518L0.874615 16.2479C0.74054 16.0561 0.620066 15.8507 0.513195 15.6337C0.40438 15.4147 0.313053 15.1861 0.237272 14.9536C0.16149 14.7211 0.103197 14.4828 0.0643342 14.2445C0.0254718 14.0081 0.00409751 13.7717 0.000211275 13.5392C-0.00561808 12.954 0.109026 12.3999 0.363575 11.9523C0.592863 11.5512 0.934851 11.2373 1.39926 11.063C1.41674 11.0358 1.43035 11.0126 1.44589 10.9932C1.47115 10.9603 1.49836 10.9312 1.53528 10.9002L1.54305 10.8944C1.58191 10.8614 1.61883 10.8401 1.66158 10.8188C1.70044 10.8014 1.74513 10.7839 1.80537 10.7626L1.85978 10.7433C4.32948 9.83647 6.03748 8.67779 7.26359 7.54431C8.4897 6.41083 9.23586 5.30254 9.7741 4.4965L9.78576 4.47907C10.0869 4.02955 10.3298 3.6711 10.5727 3.4289C10.6349 3.3669 10.6893 3.31652 10.7476 3.27389C10.8078 3.22933 10.87 3.19445 10.9419 3.16733C11.0177 3.1402 11.0915 3.1247 11.1712 3.12083C11.2489 3.11695 11.3325 3.1247 11.4296 3.1402C11.6589 3.17702 11.8921 3.27196 12.1272 3.41921C12.3662 3.56841 12.6072 3.77185 12.8462 4.01986C13.3786 4.57013 13.9265 5.36454 14.4415 6.29264C14.9778 7.25755 15.4791 8.36584 15.891 9.49933C16.3146 10.6619 16.6489 11.8515 16.8373 12.9424C17.0103 13.948 17.0608 14.8722 16.9403 15.6104C16.8898 15.9205 16.8101 16.2033 16.6994 16.4475C16.5906 16.6877 16.4487 16.8951 16.2738 17.0636C16.2661 17.0714 16.2563 17.0791 16.2486 17.0869C16.2369 17.0946 16.2253 17.1043 16.2136 17.1121C16.099 17.1876 15.9882 17.2419 15.8774 17.2768C15.7647 17.3136 15.652 17.331 15.5393 17.3368H15.5316C15.4927 17.3368 15.4558 17.3368 15.4208 17.3349C15.3936 17.3291 15.3606 17.3271 15.3295 17.3233ZM20.1115 15.2055C19.8414 15.2171 19.616 15.0079 19.6063 14.7385C19.5946 14.4692 19.8045 14.2445 20.0746 14.2348L23.4945 14.1069C23.7626 14.0991 23.988 14.3084 23.9997 14.5738C24.0094 14.8432 23.8015 15.0679 23.5314 15.0795L20.1115 15.2055ZM20.0143 11.8922C19.7462 11.9271 19.5014 11.7392 19.4664 11.4757C19.4314 11.2083 19.6199 10.9641 19.8841 10.9293L23.0437 10.5107C23.3118 10.4759 23.5566 10.6638 23.5916 10.9273C23.6266 11.1947 23.4381 11.4388 23.1738 11.4737L20.0143 11.8922ZM19.3498 8.85024C19.0952 8.93743 18.8154 8.80374 18.728 8.54992C18.6386 8.29609 18.7746 8.01708 19.0292 7.92989L22.2684 6.80803C22.5229 6.71697 22.8027 6.85454 22.8902 7.10836C22.9795 7.36218 22.8435 7.64119 22.589 7.72838L19.3498 8.85024ZM17.8225 5.92256C17.5893 6.05625 17.2901 5.97488 17.158 5.74043C17.0239 5.50792 17.1055 5.21147 17.3406 5.07778L20.4107 3.32233C20.6439 3.18864 20.9431 3.27002 21.0753 3.50447C21.2094 3.73697 21.1277 4.03342 20.8926 4.16712L17.8225 5.92256Z" fill="white"/>
</svg>
