<svg width="165" height="165" viewBox="0 0 165 165" fill="none" xmlns="http://www.w3.org/2000/svg">
<path d="M4.77409 47.1239H42.3498C43.6159 47.1239 44.8303 46.6209 45.7256 45.7256C46.6209 44.8302 47.1239 43.6159 47.1239 42.3498V4.77409C47.1239 3.50792 46.6209 2.29361 45.7256 1.3983C44.8303 0.50298 43.6159 0 42.3498 0H4.77409C3.50792 0 2.29361 0.50298 1.3983 1.3983C0.50298 2.29361 0 3.50792 0 4.77409V42.3498C0 43.6159 0.50298 44.8302 1.3983 45.7256C2.29361 46.6209 3.50792 47.1239 4.77409 47.1239ZM9.54818 9.54818H37.5757V37.5757H9.54818V9.54818Z" fill="#383A49"/>
<path d="M42.3498 117.198H4.77409C3.50792 117.198 2.29361 117.701 1.3983 118.596C0.50298 119.491 0 120.706 0 121.972V159.548C0 160.814 0.50298 162.028 1.3983 162.923C2.29361 163.819 3.50792 164.322 4.77409 164.322H42.3498C43.6159 164.322 44.8303 163.819 45.7256 162.923C46.6209 162.028 47.1239 160.814 47.1239 159.548V121.972C47.1239 120.706 46.6209 119.491 45.7256 118.596C44.8303 117.701 43.6159 117.198 42.3498 117.198ZM37.5757 154.774H9.54818V126.746H37.5757V154.774Z" fill="#383A49"/>
<path d="M159.548 0H121.972C120.706 0 119.492 0.50298 118.597 1.3983C117.701 2.29361 117.198 3.50792 117.198 4.77409V42.3498C117.198 43.6159 117.701 44.8302 118.597 45.7256C119.492 46.6209 120.706 47.1239 121.972 47.1239H159.548C160.814 47.1239 162.028 46.6209 162.924 45.7256C163.819 44.8302 164.322 43.6159 164.322 42.3498V4.77409C164.322 3.50792 163.819 2.29361 162.924 1.3983C162.028 0.50298 160.814 0 159.548 0ZM154.774 37.5757H126.746V9.54818H154.774V37.5757Z" fill="#383A49"/>
<path d="M4.77409 86.935H13.3997V100.927C13.3997 102.193 13.9027 103.407 14.798 104.302C15.6933 105.198 16.9076 105.701 18.1738 105.701C19.4399 105.701 20.6542 105.198 21.5496 104.302C22.4449 103.407 22.9479 102.193 22.9479 100.927V86.935H31.5711C32.8372 86.935 34.0515 86.4321 34.9469 85.5367C35.8422 84.6414 36.3451 83.4271 36.3451 82.1609C36.3451 80.8948 35.8422 79.6805 34.9469 78.7852C34.0515 77.8898 32.8372 77.3869 31.5711 77.3869H9.55057V66.8672H18.4352C24.7059 66.7633 24.7143 57.424 18.4352 57.319H4.77409C3.50792 57.319 2.29361 57.8219 1.3983 58.7173C0.50298 59.6126 0 60.8269 0 62.0931V82.1609C0 83.4271 0.50298 84.6414 1.3983 85.5367C2.29361 86.4321 3.50792 86.935 4.77409 86.935Z" fill="#383A49"/>
<path d="M94.9733 55.8032C94.8646 49.5264 85.5313 49.53 85.4251 55.8032V59.7931H70.0358V52.3849C70.0358 51.1188 69.5328 49.9045 68.6375 49.0091C67.7422 48.1138 66.5279 47.6108 65.2617 47.6108C63.9955 47.6108 62.7812 48.1138 61.8859 49.0091C60.9906 49.9045 60.4876 51.1188 60.4876 52.3849V77.3868H50.2233C48.9571 77.3868 47.7428 77.8898 46.8475 78.7851C45.9522 79.6805 45.4492 80.8948 45.4492 82.1609C45.4492 83.4271 45.9522 84.6414 46.8475 85.5367C47.7428 86.432 48.9571 86.935 50.2233 86.935H75.526V95.7862C75.631 102.058 84.9668 102.064 85.0742 95.7862V82.1609C85.0742 80.8948 84.5712 79.6805 83.6759 78.7851C82.7806 77.8898 81.5662 77.3868 80.3001 77.3868H70.0358V69.3413H111.149C117.419 69.2363 117.428 59.8994 111.149 59.7931H94.9733V55.8032Z" fill="#383A49"/>
<path d="M32.5039 100.927C32.5039 102.193 33.0069 103.407 33.9022 104.302C34.7975 105.198 36.0118 105.701 37.278 105.701H56.8697V111.205C56.9735 117.476 66.3128 117.483 66.4179 111.205V100.927C66.4179 99.6605 65.9149 98.4462 65.0196 97.5509C64.1243 96.6556 62.9099 96.1526 61.6438 96.1526H37.278C36.0118 96.1526 34.7975 96.6556 33.9022 97.5509C33.0069 98.4462 32.5039 99.6605 32.5039 100.927Z" fill="#383A49"/>
<path d="M61.6442 20.42C62.9104 20.42 64.1247 19.917 65.02 19.0217C65.9153 18.1264 66.4183 16.912 66.4183 15.6459V9.54818H98.6697V17.62H89.4736C88.2074 17.62 86.9931 18.123 86.0978 19.0183C85.2025 19.9136 84.6995 21.1279 84.6995 22.3941C84.6995 23.6602 85.2025 24.8745 86.0978 25.7699C86.9931 26.6652 88.2074 27.1682 89.4736 27.1682H98.6697V37.5363C98.7664 43.7975 108.115 43.8214 108.218 37.5363V4.77409C108.218 3.50792 107.715 2.29361 106.82 1.3983C105.924 0.50298 104.71 0 103.444 0H61.6442C60.378 0 59.1637 0.50298 58.2684 1.3983C57.3731 2.29361 56.8701 3.50792 56.8701 4.77409V15.6459C56.8701 16.912 57.3731 18.1264 58.2684 19.0217C59.1637 19.917 60.378 20.42 61.6442 20.42Z" fill="#383A49"/>
<path d="M159.548 57.319C158.281 57.319 157.067 57.8219 156.172 58.7173C155.277 59.6126 154.774 60.8269 154.774 62.0931V73.484H135.9V62.0931C135.9 60.8269 135.397 59.6126 134.502 58.7173C133.607 57.8219 132.392 57.319 131.126 57.319C129.86 57.319 128.646 57.8219 127.751 58.7173C126.855 59.6126 126.352 60.8269 126.352 62.0931V91.9645H122.75C116.477 92.0708 116.473 101.407 122.75 101.513H131.126C132.392 101.513 133.607 101.01 134.502 100.114C135.397 99.2191 135.9 98.0048 135.9 96.7386V83.0322H159.548C160.814 83.0322 162.028 82.5292 162.923 81.6339C163.819 80.7386 164.322 79.5243 164.322 78.2581V62.0931C164.322 60.8269 163.819 59.6126 162.923 58.7173C162.028 57.8219 160.814 57.319 159.548 57.319Z" fill="#383A49"/>
<path d="M73.4469 144.343C79.5339 143.929 78.0587 137.877 78.221 133.683H104.857C106.123 133.683 107.337 133.18 108.233 132.285C109.128 131.389 109.631 130.175 109.631 128.909V81.3255C109.631 80.0593 109.128 78.845 108.233 77.9497C107.337 77.0544 106.123 76.5514 104.857 76.5514H96.4808C95.2146 76.5514 94.0003 77.0544 93.105 77.9497C92.2096 78.845 91.7067 80.0593 91.7067 81.3255C91.7067 82.5917 92.2096 83.806 93.105 84.7013C94.0003 85.5966 95.2146 86.0996 96.4808 86.0996H100.083V124.141H61.6442C60.378 124.141 59.1637 124.644 58.2684 125.539C57.3731 126.434 56.8701 127.649 56.8701 128.915C56.8701 130.181 57.3731 131.395 58.2684 132.291C59.1637 133.186 60.378 133.689 61.6442 133.689H68.6729V139.569C68.6729 140.836 69.1758 142.05 70.0712 142.945C70.9665 143.84 72.1808 144.343 73.4469 144.343Z" fill="#383A49"/>
<path d="M90.1994 138.412C88.9332 138.412 87.7189 138.915 86.8236 139.81C85.9282 140.705 85.4253 141.92 85.4253 143.186V154.774H61.6443C55.3807 154.876 55.3616 164.216 61.6443 164.322H90.1982C91.4643 164.322 92.6786 163.819 93.574 162.924C94.4693 162.028 94.9722 160.814 94.9722 159.548V143.186C94.9722 141.92 94.4694 140.706 93.5744 139.81C92.6793 138.915 91.4653 138.412 90.1994 138.412Z" fill="#383A49"/>
<path d="M159.547 124.896C158.281 124.896 157.067 125.399 156.171 126.295C155.276 127.19 154.773 128.404 154.773 129.67V154.774H111.724V143.186C111.724 141.92 111.221 140.705 110.326 139.81C109.43 138.915 108.216 138.412 106.95 138.412C105.684 138.412 104.469 138.915 103.574 139.81C102.679 140.705 102.176 141.92 102.176 143.186V159.548C102.176 160.814 102.679 162.028 103.574 162.924C104.469 163.819 105.684 164.322 106.95 164.322H159.547C160.813 164.322 162.028 163.819 162.923 162.924C163.818 162.028 164.321 160.814 164.321 159.548V129.67C164.321 128.404 163.818 127.19 162.923 126.295C162.028 125.399 160.813 124.896 159.547 124.896Z" fill="#383A49"/>
<path d="M159.548 108.526H140.76C139.493 108.526 138.279 109.029 137.384 109.924C136.488 110.819 135.986 112.034 135.986 113.3V124.135H126.746V113.3C126.64 107.029 117.304 107.022 117.198 113.3V128.909C117.198 130.175 117.701 131.389 118.597 132.285C119.492 133.18 120.706 133.683 121.972 133.683H135.986V142.037C135.986 143.304 136.488 144.518 137.384 145.413C138.279 146.309 139.493 146.812 140.76 146.812C142.026 146.812 143.24 146.309 144.135 145.413C145.031 144.518 145.534 143.304 145.534 142.037V118.074H159.548C165.822 117.967 165.822 108.632 159.548 108.526Z" fill="#383A49"/>
<path d="M159.547 91.9645H148.649C147.383 91.9645 146.169 92.4675 145.273 93.3628C144.378 94.2581 143.875 95.4724 143.875 96.7386C143.875 98.0047 144.378 99.219 145.273 100.114C146.169 101.01 147.383 101.513 148.649 101.513H159.547C165.819 101.406 165.824 92.0671 159.547 91.9645Z" fill="#383A49"/>
<path d="M23.5612 18.7849C17.2869 18.8911 17.2869 28.2269 23.5612 28.3331C29.8368 28.2293 29.8368 18.8935 23.5612 18.7849Z" fill="#383A49"/>
<path d="M23.6926 144.343C29.9621 144.065 29.7067 134.733 23.4312 134.795C17.1616 135.075 17.417 144.407 23.6926 144.343Z" fill="#383A49"/>
<path d="M140.759 28.3331C147.034 28.2257 147.033 18.8899 140.759 18.7849C134.483 18.8947 134.485 28.2305 140.759 28.3331Z" fill="#383A49"/>
<path d="M47.5072 62.0931C47.3997 55.8175 38.0652 55.8187 37.959 62.0931C38.0664 68.3686 47.4009 68.3674 47.5072 62.0931Z" fill="#383A49"/>
<path d="M85.0745 111.809C84.9671 105.534 75.6326 105.535 75.5264 111.809C75.6338 118.086 84.9683 118.086 85.0745 111.809Z" fill="#383A49"/>
<path d="M66.4193 34.7924C66.3119 28.5168 56.9773 28.518 56.8711 34.7924C56.9773 41.0679 66.3131 41.0667 66.4193 34.7924Z" fill="#383A49"/>
<path d="M85.9857 34.7924C85.8783 28.5168 76.5437 28.518 76.4375 34.7924C76.5449 41.0679 85.8795 41.0667 85.9857 34.7924Z" fill="#383A49"/>
</svg>
