<svg width="34" height="34" viewBox="0 0 34 34" fill="none" xmlns="http://www.w3.org/2000/svg">
<path d="M24.3327 32.9998C22.6186 32.9998 20.943 32.4916 19.5177 31.5392C18.0925 30.5869 16.9817 29.2334 16.3257 27.6498C15.6698 26.0661 15.4981 24.3236 15.8325 22.6424C16.167 20.9612 16.9924 19.417 18.2044 18.2049C19.4165 16.9929 20.9607 16.1674 22.6419 15.833C24.3231 15.4986 26.0656 15.6703 27.6493 16.3262C29.2329 16.9822 30.5865 18.093 31.5388 19.5182C32.4911 20.9435 32.9994 22.6191 32.9994 24.3332C32.9994 26.6317 32.0863 28.8361 30.4609 30.4614C28.8356 32.0867 26.6312 32.9998 24.3327 32.9998ZM24.3327 16.9998C22.8823 16.9998 21.4645 17.4299 20.2585 18.2357C19.0525 19.0415 18.1126 20.1868 17.5576 21.5268C17.0025 22.8668 16.8573 24.3413 17.1403 25.7638C17.4232 27.1864 18.1217 28.493 19.1472 29.5186C20.1728 30.5442 21.4795 31.2426 22.902 31.5256C24.3246 31.8086 25.799 31.6633 27.139 31.1083C28.479 30.5532 29.6243 29.6133 30.4301 28.4074C31.2359 27.2014 31.666 25.7836 31.666 24.3332C31.666 22.3883 30.8934 20.523 29.5181 19.1477C28.1429 17.7725 26.2776 16.9998 24.3327 16.9998Z" fill="#6561C0" stroke="#6561C0" stroke-width="0.5"/>
<path d="M26.9993 13.6668H25.666V7.66683H19.666V6.3335H26.3327C26.5095 6.3335 26.6791 6.40373 26.8041 6.52876C26.9291 6.65378 26.9993 6.82335 26.9993 7.00016V13.6668Z" fill="#6561C0" stroke="#6561C0" stroke-width="0.5"/>
<path d="M26.3334 14.3335C26.2456 14.334 26.1586 14.3172 26.0774 14.284C25.9962 14.2509 25.9223 14.202 25.86 14.1402L23.1934 11.4735L24.14 10.5269L26.3334 12.7269L28.5267 10.5269L29.4734 11.4735L26.8067 14.1402C26.7444 14.202 26.6705 14.2509 26.5893 14.284C26.5081 14.3172 26.4211 14.334 26.3334 14.3335Z" fill="#6561C0" stroke="#6561C0" stroke-width="0.5"/>
<path d="M14.3333 27.6668H7.66667C7.48986 27.6668 7.32029 27.5966 7.19526 27.4716C7.07024 27.3465 7 27.177 7 27.0002V20.3335H8.33333V26.3335H14.3333V27.6668Z" fill="#6561C0" stroke="#6561C0" stroke-width="0.5"/>
<path d="M9.8597 23.4731L7.66637 21.2731L5.47303 23.4731L4.52637 22.5265L7.19303 19.8598C7.25501 19.7973 7.32874 19.7477 7.40998 19.7139C7.49122 19.68 7.57836 19.6626 7.66637 19.6626C7.75437 19.6626 7.84151 19.68 7.92275 19.7139C8.00399 19.7477 8.07772 19.7973 8.1397 19.8598L10.8064 22.5265L9.8597 23.4731Z" fill="#6561C0" stroke="#6561C0" stroke-width="0.5"/>
<path d="M24.3334 26.3334C22.4934 26.3334 21 24.54 21 22.3334C20.9683 21.8875 21.0328 21.44 21.1891 21.0212C21.3455 20.6024 21.5899 20.2221 21.906 19.906C22.2221 19.5899 22.6024 19.3455 23.0212 19.1891C23.44 19.0328 23.8875 18.9683 24.3334 19C24.7793 18.9683 25.2267 19.0328 25.6455 19.1891C26.0643 19.3455 26.4446 19.5899 26.7607 19.906C27.0768 20.2221 27.3213 20.6024 27.4776 21.0212C27.6339 21.44 27.6984 21.8875 27.6667 22.3334C27.6667 24.54 26.1734 26.3334 24.3334 26.3334ZM24.3334 20.3334C24.0635 20.3038 23.7905 20.3352 23.5344 20.4253C23.2783 20.5153 23.0457 20.6617 22.8537 20.8537C22.6617 21.0457 22.5153 21.2783 22.4253 21.5344C22.3352 21.7905 22.3038 22.0635 22.3334 22.3334C22.3334 23.8067 23.2334 25 24.3334 25C25.4334 25 26.3334 23.8067 26.3334 22.3334C26.3629 22.0635 26.3315 21.7905 26.2415 21.5344C26.1514 21.2783 26.005 21.0457 25.813 20.8537C25.6211 20.6617 25.3885 20.5153 25.1324 20.4253C24.8763 20.3352 24.6032 20.3038 24.3334 20.3334Z" fill="#6561C0" stroke="#6561C0" stroke-width="0.5"/>
<path d="M30.3341 30.3333H29.0007V28.1C29.0033 27.7734 28.8859 27.4573 28.6709 27.2115C28.4558 26.9658 28.1581 26.8075 27.8341 26.7667L24.3341 26.3333L20.8341 26.7667C20.5101 26.8075 20.2123 26.9658 19.9973 27.2115C19.7822 27.4573 19.6648 27.7734 19.6674 28.1V30.3333H18.3341V28.1C18.3289 27.4469 18.5637 26.8146 18.9938 26.3231C19.4239 25.8316 20.0194 25.515 20.6674 25.4333L24.2541 25H24.4141L28.0007 25.4467C28.6487 25.5283 29.2443 25.8449 29.6744 26.3364C30.1044 26.8279 30.3392 27.4602 30.3341 28.1133V30.3333Z" fill="#6561C0" stroke="#6561C0" stroke-width="0.5"/>
<path d="M24.9993 27H23.666V28.3333H24.9993V27Z" fill="#6561C0" stroke="#6561C0" stroke-width="0.5"/>
<path d="M24.9993 29.6665H23.666V30.9998H24.9993V29.6665Z" fill="#6561C0" stroke="#6561C0" stroke-width="0.5"/>
<path d="M9.66667 18.3333C7.95257 18.3333 6.27695 17.825 4.85173 16.8727C3.4265 15.9204 2.31567 14.5669 1.65971 12.9833C1.00376 11.3996 0.832126 9.65706 1.16653 7.97589C1.50094 6.29472 2.32636 4.75047 3.53841 3.53841C4.75047 2.32636 6.29472 1.50094 7.97589 1.16653C9.65706 0.832126 11.3996 1.00376 12.9833 1.65971C14.5669 2.31567 15.9204 3.4265 16.8727 4.85173C17.825 6.27695 18.3333 7.95257 18.3333 9.66667C18.3333 11.9652 17.4202 14.1696 15.7949 15.7949C14.1696 17.4202 11.9652 18.3333 9.66667 18.3333ZM9.66667 2.33334C8.21627 2.33334 6.79845 2.76343 5.59249 3.56923C4.38653 4.37502 3.4466 5.52033 2.89155 6.86033C2.33651 8.20032 2.19129 9.67481 2.47425 11.0973C2.7572 12.5199 3.45564 13.8265 4.48122 14.8521C5.50681 15.8777 6.81348 16.5761 8.23601 16.8591C9.65854 17.1421 11.133 16.9968 12.473 16.4418C13.813 15.8867 14.9583 14.9468 15.7641 13.7409C16.5699 12.5349 17 11.1171 17 9.66667C17 7.72175 16.2274 5.85649 14.8521 4.48122C13.4769 3.10595 11.6116 2.33334 9.66667 2.33334Z" fill="#6561C0" stroke="#6561C0" stroke-width="0.5"/>
<path d="M9.66736 11.6669C7.82736 11.6669 6.33402 9.87353 6.33402 7.66687C6.30233 7.22098 6.36683 6.77349 6.52313 6.3547C6.67944 5.93591 6.92391 5.55559 7.24 5.23951C7.55608 4.92343 7.9364 4.67895 8.35519 4.52265C8.77398 4.36634 9.22147 4.30184 9.66736 4.33353C10.1132 4.30184 10.5607 4.36634 10.9795 4.52265C11.3983 4.67895 11.7786 4.92343 12.0947 5.23951C12.4108 5.55559 12.6553 5.93591 12.8116 6.3547C12.9679 6.77349 13.0324 7.22098 13.0007 7.66687C13.0007 9.87353 11.5074 11.6669 9.66736 11.6669ZM9.66736 5.66687C9.3975 5.63731 9.12445 5.66872 8.86835 5.75877C8.61225 5.84883 8.37965 5.99524 8.18769 6.1872C7.99573 6.37916 7.84932 6.61177 7.75926 6.86786C7.6692 7.12396 7.6378 7.39701 7.66736 7.66687C7.66736 9.1402 8.56736 10.3335 9.66736 10.3335C10.7674 10.3335 11.6674 9.1402 11.6674 7.66687C11.6969 7.39701 11.6655 7.12396 11.5754 6.86786C11.4854 6.61177 11.339 6.37916 11.147 6.1872C10.9551 5.99524 10.7225 5.84883 10.4664 5.75877C10.2103 5.66872 9.93721 5.63731 9.66736 5.66687Z" fill="#6561C0" stroke="#6561C0" stroke-width="0.5"/>
<path d="M15.6661 15.6668H14.3328V13.4335C14.3353 13.1069 14.218 12.7908 14.0029 12.545C13.7879 12.2993 13.4901 12.141 13.1661 12.1002L9.6661 11.6668L6.1661 12.1002C5.84209 12.141 5.54433 12.2993 5.32929 12.545C5.11424 12.7908 4.99687 13.1069 4.99943 13.4335V15.6668H3.6661V13.4335C3.66098 12.7804 3.89572 12.1481 4.32581 11.6566C4.7559 11.165 5.35142 10.8485 5.99943 10.7668L9.5861 10.3335H9.7461L13.3328 10.7802C13.9808 10.8618 14.5763 11.1784 15.0064 11.6699C15.4365 12.1614 15.6712 12.7937 15.6661 13.4468V15.6668Z" fill="#6561C0" stroke="#6561C0" stroke-width="0.5"/>
</svg>
