<svg width="15" height="16" viewBox="0 0 17 19" fill="none" xmlns="http://www.w3.org/2000/svg">
<path d="M3.63623 4.32984C3.63623 2.90099 4.80529 1.73194 6.23414 1.73194H10.564C11.9928 1.73194 13.1619 2.90099 13.1619 4.32984H14.8938C14.8938 1.94843 12.9454 0 10.564 0H6.23414C3.85272 0 1.9043 1.94843 1.9043 4.32984V9.17926H3.63623V4.32984Z" fill="white"/>
<path d="M0 8.22668L2.7711 11.8637L5.54219 8.22668H0Z" fill="white"/>
<path d="M13.1629 13.8555C13.1629 15.2844 11.9938 16.4534 10.5649 16.4534H6.23511C4.80627 16.4534 3.63721 15.2844 3.63721 13.8555H1.90527C1.90527 16.2369 3.8537 18.1854 6.23511 18.1854H10.5649C12.9464 18.1854 14.8948 16.2369 14.8948 13.8555V8.65973H13.1629V13.8555Z" fill="white"/>
<path d="M11.2588 9.95863L14.0299 6.32156L16.801 9.95863H11.2588Z" fill="white"/>
</svg>
