<svg width="17" height="20" viewBox="0 0 17 20" fill="none" xmlns="http://www.w3.org/2000/svg">
<path d="M3.83692 5.29911C3.83692 3.87026 5.00597 2.7012 6.43482 2.7012H10.7647C12.1935 2.7012 13.3626 3.87026 13.3626 5.29911H15.0945C15.0945 2.9177 13.1461 0.969269 10.7647 0.969269H6.43482C4.05341 0.969269 2.10498 2.9177 2.10498 5.29911V10.1485H3.83692V5.29911Z" fill="#6662C0"/>
<path d="M0.200195 9.19595L2.97129 12.833L5.74239 9.19595H0.200195Z" fill="#6662C0"/>
<path d="M13.3626 14.8248C13.3626 16.2537 12.1935 17.4227 10.7647 17.4227H6.43482C5.00597 17.4227 3.83692 16.2537 3.83692 14.8248H2.10498C2.10498 17.2062 4.05341 19.1546 6.43482 19.1546H10.7647C13.1461 19.1546 15.0945 17.2062 15.0945 14.8248V9.629H13.3626V14.8248Z" fill="#6662C0"/>
<path d="M11.458 10.9279L14.2291 7.29083L17.0002 10.9279H11.458Z" fill="#6662C0"/>
</svg>
