<svg width="26" height="27" viewBox="0 0 26 27" fill="none" xmlns="http://www.w3.org/2000/svg">
<g clip-path="url(#clip0_232_2446)">
<path d="M2.7333 10.1128L10.2829 16.8303C10.2913 16.8379 10.3074 16.8465 10.3156 16.8623L12.8616 19.1314L23.1445 10.1858V7.54952L17.0267 1.19926H2.7333V10.1128ZM13.6952 12.5667H12.292V9.96826H9.66968V8.54378H12.292V5.93169H13.6952V8.54378H16.3303V9.96826H13.6952V12.5667ZM24.3566 9.1322C24.5194 8.99422 24.7063 8.92962 24.8935 8.92962C25.0563 8.92962 25.2026 8.97817 25.349 9.05925C25.4547 9.12385 25.5445 9.20493 25.6259 9.29436C25.8372 9.53715 26 9.91794 26 10.2343V25.7601C26 26.1009 25.8615 26.4085 25.6338 26.6355C25.406 26.862 25.0967 26.9998 24.7557 26.9998H1.24456C0.903306 26.9998 0.594042 26.862 0.366396 26.6355C0.138529 26.4085 0 26.1009 0 25.7601V10.2343C0 9.91816 0.162794 9.52903 0.382278 9.28623C0.463675 9.1968 0.552793 9.11638 0.658675 9.05947C0.796983 8.97839 0.943453 8.92984 1.10625 8.92984C1.2525 8.92984 1.39875 8.97026 1.53728 9.05134V0.599409C1.5375 0.267185 1.80617 0 2.1397 0H17.4092C17.5967 0 17.7672 0.080639 17.8731 0.218626L24.1938 6.72534C24.3079 6.83915 24.365 6.99318 24.365 7.14699V7.31684C24.365 7.34122 24.3727 7.36539 24.3727 7.38978C24.3727 7.41417 24.3727 7.43834 24.365 7.46273V9.14055L24.3566 9.1322ZM12.4548 20.3799L9.89225 18.0943L1.19558 25.6871V25.752C1.19558 25.7601 1.19558 25.7759 1.20397 25.7759C1.21235 25.7845 1.22007 25.7845 1.22845 25.7845H24.7389C24.7471 25.7845 24.7632 25.7845 24.7632 25.7759C24.7713 25.7682 24.7713 25.7601 24.7713 25.752V25.7115L15.9531 18.013L13.2361 20.3713C13.0083 20.5658 12.6664 20.5739 12.4387 20.3632L12.4548 20.3799ZM8.98145 17.2926L1.18786 10.3556V24.0906L8.98145 17.2926ZM24.7799 24.1234V10.3556L16.8805 17.2273L24.7799 24.1234Z" fill="#6561C0"/>
</g>
<defs>
<clipPath id="clip0_232_2446">
<rect width="26" height="27" fill="white"/>
</clipPath>
</defs>
</svg>
