<svg version="1.2" xmlns="http://www.w3.org/2000/svg" viewBox="0 0 112 112" width="112" height="112"><defs><linearGradient id="P" gradientUnits="userSpaceOnUse"/><linearGradient id="g1" x2="1" href="#P" gradientTransform="matrix(0,80,-80,0,56,8)"><stop stop-color="#5ca6ff"/><stop offset="1" stop-color="#a9e5ff"/></linearGradient></defs><style>.a{fill:url(#g1)}.b{fill:none;stroke:#fff;stroke-linecap:round;stroke-linejoin:round;stroke-width:2}.c{fill:#d0f7ff}</style><path class="a" d="m16 28c0-11 9-20 20-20h40c11 0 20 9 20 20v40c0 11-9 20-20 20h-40c-11 0-20-9-20-20z"/><path class="b" d="m69.8 30.5v-7.5h-33.8c-0.7 0-1.3 0.6-1.3 1.3l0.1 41.2h7.5"/><path fill-rule="evenodd" class="c" d="m73.3 39.5v34.5c0 2.2-1.8 4-4 4h-27c-2.3 0-4-1.8-4-4v-34.5c0-2.2 1.7-4 4-4h27c2.2 0 4 1.8 4 4zm-25 12h15c0.5 0 1-0.4 1-1 0-0.6-0.5-1-1-1h-15c-0.6 0-1 0.4-1 1 0 0.6 0.4 1 1 1zm0 8c-0.6 0-1 0.4-1 1 0 0.6 0.4 1 1 1h15c0.5 0 1-0.4 1-1 0-0.6-0.5-1-1-1z"/></svg>