<svg width="32" height="32" viewBox="0 0 32 32" fill="none" xmlns="http://www.w3.org/2000/svg">
<path d="M19.1802 2.80099H18.1802V2.85087L18.1851 2.9005L19.1802 2.80099ZM19.1802 2.80097H20.1802V2.7511L20.1752 2.70147L19.1802 2.80097ZM19.254 3.53899L18.2589 3.63849V3.63849L19.254 3.53899ZM22.5105 4.8879L21.8773 4.11394V4.11394L22.5105 4.8879ZM23.0845 4.41825L23.7178 5.19221L23.0845 4.41825ZM25.7652 4.55195L25.0581 5.25906L25.7652 4.55195ZM27.4482 6.2349L28.1553 5.52779L27.4482 6.2349ZM28.3798 7.53212L29.3785 7.4823V7.4823L28.3798 7.53212ZM27.5819 8.91559L26.8079 8.28235L26.8079 8.28235L27.5819 8.91559ZM27.1123 9.48955L27.8862 10.1228H27.8862L27.1123 9.48955ZM28.4612 12.7461L28.3617 13.7411H28.3617L28.4612 12.7461ZM29.199 12.8199L29.2985 11.8248L29.199 12.8199ZM30.7415 13.234L31.4829 12.563L31.4829 12.563L30.7415 13.234ZM30.7415 18.766L31.4829 19.437L31.4829 19.437L30.7415 18.766ZM29.199 19.1801V20.1801H29.2489L29.2985 20.1751L29.199 19.1801ZM29.199 19.1801V18.1801H29.1491L29.0995 18.185L29.199 19.1801ZM28.4615 19.2538L28.561 20.2489L28.4615 19.2538ZM25.7822 20.0517L24.8583 19.669L24.8583 19.669L25.7822 20.0517ZM27.1126 22.5104L27.8866 21.8771L27.1126 22.5104ZM27.5817 23.0837L28.3557 22.4505H28.3557L27.5817 23.0837ZM23.0844 27.5811L23.7176 26.8071L23.7176 26.8071L23.0844 27.5811ZM22.5106 27.1116L21.8773 27.8856L21.8773 27.8856L22.5106 27.1116ZM19.254 28.4605L18.259 28.361V28.361L19.254 28.4605ZM19.1802 29.199L18.1851 29.0995L18.1802 29.1491V29.199H19.1802ZM19.1802 29.199L20.1752 29.2985L20.1802 29.2489V29.199H19.1802ZM18.7661 30.7415L19.4371 31.4829L19.4371 31.4829L18.7661 30.7415ZM13.2341 30.7415L12.5631 31.4829L12.5631 31.4829L13.2341 30.7415ZM12.82 29.199L11.8249 29.2985V29.2985L12.82 29.199ZM12.7462 28.4611L13.7412 28.3616V28.3616L12.7462 28.4611ZM9.48964 27.1122L10.1229 27.8861V27.8861L9.48964 27.1122ZM8.91566 27.5818L9.5489 28.3558L8.91566 27.5818ZM6.23497 27.4481L6.94208 26.741L6.94208 26.741L6.23497 27.4481ZM4.55203 25.7652L3.84492 26.4723H3.84492L4.55203 25.7652ZM4.41832 23.0845L3.64437 22.4512H3.64437L4.41832 23.0845ZM4.88798 22.5104L5.66194 23.1437H5.66194L4.88798 22.5104ZM6.21837 20.0517L5.29449 20.4344L6.21837 20.0517ZM3.53908 19.2539L3.63858 18.2589H3.63858L3.53908 19.2539ZM2.80099 19.1801L2.90049 18.185L2.85087 18.1801H2.80099V19.1801ZM2.80097 19.1801L2.70147 20.1751L2.75109 20.1801H2.80097V19.1801ZM1.25855 18.766L2 18.095H2L1.25855 18.766ZM1.25855 13.234L0.517095 12.563L0.517094 12.563L1.25855 13.234ZM2.80099 12.8199L2.9005 13.8149H2.9005L2.80099 12.8199ZM3.5394 12.746L3.4399 11.751H3.4399L3.5394 12.746ZM4.88831 9.48949L4.11435 10.1227H4.11435L4.88831 9.48949ZM4.41815 8.91485L5.19211 8.28161L5.19211 8.28161L4.41815 8.91485ZM4.55185 6.23416L5.25896 6.94127H5.25896L4.55185 6.23416ZM6.2348 4.55121L5.52769 3.8441H5.52769L6.2348 4.55121ZM8.91549 4.41751L9.54873 3.64355L9.54873 3.64355L8.91549 4.41751ZM9.48969 4.88731L8.85645 5.66127L8.85645 5.66127L9.48969 4.88731ZM12.7462 3.5384L11.7512 3.4389V3.4389L12.7462 3.5384ZM12.82 2.80099L11.8249 2.70149L12.82 2.80099ZM13.2341 1.25855L12.5631 0.517094L12.5631 0.517096L13.2341 1.25855ZM18.7661 1.25855L18.0951 2V2L18.7661 1.25855ZM20.1802 2.80099V2.80097H18.1802V2.80099H20.1802ZM20.249 3.43949L20.1752 2.70149L18.1851 2.9005L18.2589 3.63849L20.249 3.43949ZM20.4345 5.2944C20.6084 5.36642 20.5639 5.50804 20.4766 5.16137C20.3891 4.81328 20.3341 4.29006 20.249 3.43949L18.2589 3.63849C18.3372 4.42146 18.4048 5.12338 18.5371 5.64931C18.6697 6.17666 18.9424 6.84115 19.6691 7.14216L20.4345 5.2944ZM21.8773 4.11394C21.2157 4.65524 20.8068 4.98633 20.4988 5.17054C20.192 5.354 20.2606 5.22237 20.4345 5.2944L19.6691 7.14216C20.3958 7.44317 21.0585 7.16613 21.5252 6.88705C21.9907 6.60872 22.5348 6.16013 23.1438 5.66185L21.8773 4.11394ZM22.4513 3.64429L21.8773 4.11394L23.1438 5.66185L23.7178 5.19221L22.4513 3.64429ZM24.5178 2.62162C24.0431 2.59794 23.6586 2.76842 23.3525 2.9593C23.0706 3.13507 22.7635 3.38887 22.4513 3.64429L23.7178 5.19221C24.0713 4.90292 24.2635 4.74818 24.4107 4.6564C24.5337 4.57972 24.5081 4.62362 24.4182 4.61914L24.5178 2.62162ZM26.4723 3.84485C26.1871 3.55962 25.9068 3.27653 25.6438 3.07358C25.3582 2.85318 24.9926 2.6453 24.5178 2.62162L24.4182 4.61914C24.3283 4.61465 24.3072 4.56843 24.4219 4.65696C24.5592 4.76293 24.7351 4.93603 25.0581 5.25906L26.4723 3.84485ZM28.1553 5.52779L26.4723 3.84485L25.0581 5.25906L26.7411 6.94201L28.1553 5.52779ZM29.3785 7.4823C29.3548 7.00754 29.1469 6.64198 28.9266 6.35637C28.7236 6.09336 28.4405 5.81302 28.1553 5.52779L26.7411 6.94201C27.0641 7.26504 27.2372 7.44088 27.3432 7.57821C27.4317 7.69294 27.3855 7.67186 27.381 7.58194L29.3785 7.4823ZM28.3558 9.54883C28.6113 9.23664 28.8651 8.92952 29.0408 8.64762C29.2317 8.3415 29.4022 7.95706 29.3785 7.4823L27.381 7.58193C27.3765 7.49201 27.4204 7.46643 27.3437 7.58939C27.2519 7.73659 27.0972 7.92878 26.8079 8.28235L28.3558 9.54883ZM27.8862 10.1228L28.3558 9.54883L26.8079 8.28235L26.3383 8.85631L27.8862 10.1228ZM26.7058 11.5656C26.7778 11.7395 26.6462 11.8081 26.8296 11.5013C27.0138 11.1932 27.3449 10.7844 27.8862 10.1228L26.3383 8.85631C25.84 9.46531 25.3915 10.0094 25.1131 10.4748C24.834 10.9415 24.557 11.6042 24.858 12.3309L26.7058 11.5656ZM28.5607 11.7511C27.7101 11.666 27.1869 11.611 26.8388 11.5234C26.4921 11.4362 26.6337 11.3917 26.7058 11.5656L24.858 12.3309C25.159 13.0576 25.8235 13.3303 26.3509 13.463C26.8768 13.5953 27.5787 13.6628 28.3617 13.7411L28.5607 11.7511ZM29.2985 11.8248L28.5607 11.7511L28.3617 13.7411L29.0995 13.8149L29.2985 11.8248ZM31.4829 12.563C31.1639 12.2105 30.7716 12.0592 30.4201 11.9777C30.0965 11.9027 29.6999 11.865 29.2985 11.8248L29.0995 13.8149C29.5541 13.8604 29.7994 13.8869 29.9684 13.926C30.1095 13.9588 30.0604 13.9717 30 13.905L31.4829 12.563ZM32 14.81C32 14.4066 32.0019 14.0082 31.9595 13.6787C31.9134 13.3209 31.8019 12.9154 31.4829 12.563L30 13.905C29.9396 13.8382 29.9574 13.7906 29.9759 13.9343C29.9981 14.1064 30 14.3531 30 14.81H32ZM32 17.19V14.81H30V17.19H32ZM31.4829 19.437C31.8019 19.0846 31.9134 18.6791 31.9595 18.3213C32.0019 17.9918 32 17.5934 32 17.19H30C30 17.6468 29.9981 17.8936 29.9759 18.0656C29.9574 18.2093 29.9396 18.1618 30 18.095L31.4829 19.437ZM29.2985 20.1751C29.6999 20.135 30.0965 20.0973 30.4201 20.0222C30.7716 19.9407 31.1639 19.7894 31.4829 19.437L30 18.095C30.0604 18.0282 30.1095 18.0412 29.9684 18.0739C29.7994 18.1131 29.5541 18.1396 29.0995 18.185L29.2985 20.1751ZM29.199 20.1801H29.199V18.1801H29.199V20.1801ZM28.561 20.2489L29.2985 20.1751L29.0995 18.185L28.362 18.2588L28.561 20.2489ZM26.7061 20.4344C26.6341 20.6082 26.4925 20.5637 26.8391 20.4765C27.1872 20.3889 27.7104 20.3339 28.561 20.2489L28.362 18.2588C27.579 18.3371 26.8771 18.4046 26.3512 18.5369C25.8238 18.6696 25.1594 18.9423 24.8583 19.669L26.7061 20.4344ZM27.8866 21.8771C27.3453 21.2156 27.0142 20.8067 26.83 20.4986C26.6465 20.1918 26.7781 20.2605 26.7061 20.4344L24.8583 19.669C24.5573 20.3957 24.8344 21.0584 25.1134 21.5251C25.3918 21.9905 25.8404 22.5346 26.3386 23.1436L27.8866 21.8771ZM28.3557 22.4505L27.8866 21.8771L26.3386 23.1436L26.8077 23.717L28.3557 22.4505ZM29.3783 24.517C29.402 24.0423 29.2315 23.6578 29.0407 23.3517C28.8649 23.0698 28.6111 22.7627 28.3557 22.4505L26.8077 23.717C27.097 24.0705 27.2518 24.2627 27.3436 24.4099C27.4202 24.5329 27.3763 24.5073 27.3808 24.4174L29.3783 24.517ZM28.1551 26.4715C28.4403 26.1863 28.7234 25.906 28.9264 25.6429C29.1468 25.3573 29.3547 24.9918 29.3783 24.517L27.3808 24.4174C27.3853 24.3275 27.4315 24.3064 27.343 24.4211C27.237 24.5584 27.0639 24.7343 26.7409 25.0573L28.1551 26.4715ZM26.4722 28.1545L28.1551 26.4715L26.7409 25.0573L25.0579 26.7403L26.4722 28.1545ZM24.5177 29.3777C24.9924 29.354 25.358 29.1461 25.6436 28.9257C25.9066 28.7228 26.1869 28.4397 26.4722 28.1545L25.0579 26.7403C24.7349 27.0633 24.5591 27.2364 24.4217 27.3424C24.307 27.4309 24.3281 27.3847 24.418 27.3802L24.5177 29.3777ZM22.4511 28.355C22.7633 28.6104 23.0704 28.8642 23.3523 29.04C23.6585 29.2309 24.0429 29.4014 24.5177 29.3777L24.418 27.3802C24.5079 27.3757 24.5335 27.4196 24.4106 27.3429C24.2634 27.2511 24.0712 27.0964 23.7176 26.8071L22.4511 28.355ZM21.8773 27.8856L22.4511 28.355L23.7176 26.8071L23.1438 26.3376L21.8773 27.8856ZM20.4346 26.7051C20.2607 26.7771 20.192 26.6455 20.4988 26.829C20.8069 27.0132 21.2158 27.3443 21.8773 27.8856L23.1438 26.3376C22.5348 25.8394 21.9907 25.3908 21.5253 25.1124C21.0586 24.8334 20.3959 24.5563 19.6692 24.8573L20.4346 26.7051ZM20.2491 28.56C20.3341 27.7094 20.3891 27.1862 20.4767 26.8381C20.5639 26.4915 20.6084 26.6331 20.4346 26.7051L19.6692 24.8573C18.9425 25.1584 18.6698 25.8228 18.5371 26.3502C18.4048 26.8761 18.3373 27.578 18.259 28.361L20.2491 28.56ZM20.1752 29.2985L20.2491 28.56L18.259 28.361L18.1851 29.0995L20.1752 29.2985ZM20.1802 29.199V29.199H18.1802V29.199H20.1802ZM19.4371 31.4829C19.7895 31.1639 19.9408 30.7716 20.0223 30.4201C20.0974 30.0965 20.1351 29.6999 20.1752 29.2985L18.1851 29.0995C18.1397 29.5541 18.1132 29.7994 18.074 29.9684C18.0413 30.1095 18.0283 30.0604 18.0951 30L19.4371 31.4829ZM17.1901 32C17.5935 32 17.9919 32.0019 18.3214 31.9595C18.6792 31.9134 19.0847 31.8019 19.4371 31.4829L18.0951 30C18.1618 29.9396 18.2094 29.9574 18.0657 29.9759C17.8937 29.9981 17.6469 30 17.1901 30V32ZM14.8101 32H17.1901V30H14.8101V32ZM12.5631 31.4829C12.9155 31.8019 13.321 31.9134 13.6788 31.9595C14.0083 32.0019 14.4067 32 14.8101 32V30C14.3532 30 14.1065 29.9981 13.9344 29.9759C13.7907 29.9574 13.8383 29.9396 13.9051 30L12.5631 31.4829ZM11.8249 29.2985C11.8651 29.6999 11.9028 30.0965 11.9778 30.4201C12.0593 30.7716 12.2106 31.1639 12.5631 31.4829L13.9051 30C13.9718 30.0604 13.9589 30.1095 13.9261 29.9684C13.887 29.7994 13.8605 29.5541 13.815 29.0995L11.8249 29.2985ZM11.7512 28.5606L11.8249 29.2985L13.815 29.0995L13.7412 28.3616L11.7512 28.5606ZM11.5657 26.7057C11.3918 26.6337 11.4363 26.492 11.5235 26.8387C11.6111 27.1868 11.6661 27.71 11.7512 28.5606L13.7412 28.3616C13.6629 27.5786 13.5954 26.8767 13.4631 26.3508C13.3304 25.8234 13.0577 25.1589 12.331 24.8579L11.5657 26.7057ZM10.1229 27.8861C10.7845 27.3448 11.1933 27.0138 11.5014 26.8295C11.8082 26.6461 11.7396 26.7777 11.5657 26.7057L12.331 24.8579C11.6043 24.5569 10.9416 24.834 10.4749 25.113C10.0095 25.3914 9.46541 25.84 8.8564 26.3382L10.1229 27.8861ZM9.5489 28.3558L10.1229 27.8861L8.8564 26.3382L8.28242 26.8078L9.5489 28.3558ZM7.48238 29.3784C7.95714 29.4021 8.34157 29.2316 8.64769 29.0408C8.92959 28.865 9.23671 28.6112 9.5489 28.3558L8.28242 26.8078C7.92885 27.0971 7.73666 27.2519 7.58947 27.3437C7.4665 27.4203 7.49208 27.3764 7.582 27.3809L7.48238 29.3784ZM5.52787 28.1552C5.81309 28.4404 6.09344 28.7235 6.35644 28.9265C6.64205 29.1469 7.00762 29.3548 7.48238 29.3784L7.582 27.3809C7.67193 27.3854 7.69301 27.4316 7.57829 27.3431C7.44096 27.2371 7.26511 27.064 6.94208 26.741L5.52787 28.1552ZM3.84492 26.4723L5.52787 28.1552L6.94208 26.741L5.25913 25.058L3.84492 26.4723ZM2.62169 24.5178C2.64537 24.9925 2.85326 25.3581 3.07365 25.6437C3.2766 25.9067 3.5597 26.187 3.84492 26.4723L5.25913 25.058C4.9361 24.735 4.763 24.5592 4.65703 24.4218C4.5685 24.3071 4.61472 24.3282 4.61921 24.4181L2.62169 24.5178ZM3.64437 22.4512C3.38894 22.7634 3.13515 23.0705 2.95937 23.3524C2.76849 23.6586 2.59801 24.043 2.62169 24.5178L4.61921 24.4181C4.62369 24.508 4.5798 24.5336 4.65647 24.4107C4.74826 24.2635 4.903 24.0713 5.19228 23.7177L3.64437 22.4512ZM4.11403 21.8772L3.64437 22.4512L5.19228 23.7177L5.66194 23.1437L4.11403 21.8772ZM5.29449 20.4344C5.22246 20.2605 5.35409 20.1919 5.17063 20.4987C4.98642 20.8067 4.65533 21.2156 4.11403 21.8772L5.66194 23.1437C6.16022 22.5347 6.60881 21.9906 6.88714 21.5251C7.16622 21.0584 7.44326 20.3958 7.14225 19.6691L5.29449 20.4344ZM3.43957 20.2489C4.29015 20.334 4.81337 20.389 5.16146 20.4765C5.50813 20.5638 5.36651 20.6083 5.29449 20.4344L7.14225 19.6691C6.84124 18.9423 6.17675 18.6696 5.6494 18.537C5.12347 18.4047 4.42155 18.3371 3.63858 18.2589L3.43957 20.2489ZM2.70149 20.1751L3.43957 20.2489L3.63858 18.2589L2.90049 18.185L2.70149 20.1751ZM2.80097 20.1801H2.80099V18.1801H2.80097V20.1801ZM0.517094 19.437C0.836053 19.7894 1.22843 19.9407 1.57986 20.0222C1.90349 20.0973 2.30011 20.135 2.70147 20.1751L2.90048 18.185C2.44592 18.1396 2.2006 18.1131 2.03163 18.0739C1.89046 18.0412 1.93959 18.0282 2 18.095L0.517094 19.437ZM0 17.19C0 17.5934 -0.00194263 17.9918 0.0405216 18.3213C0.0866349 18.6791 0.198134 19.0846 0.517094 19.437L2 18.095C2.06041 18.1617 2.04264 18.2093 2.02412 18.0656C2.00194 17.8936 2 17.6468 2 17.19H0ZM0 14.81V17.19H2V14.81H0ZM0.517094 12.563C0.198134 12.9154 0.0866349 13.3209 0.0405216 13.6787C-0.00194263 14.0082 0 14.4066 0 14.81H2C2 14.3531 2.00194 14.1064 2.02412 13.9343C2.04264 13.7906 2.06041 13.8382 2 13.905L0.517094 12.563ZM2.70149 11.8248C2.30013 11.865 1.9035 11.9027 1.57987 11.9777C1.22844 12.0592 0.836056 12.2105 0.517095 12.563L2 13.905C1.93959 13.9717 1.89046 13.9588 2.03163 13.926C2.20061 13.8869 2.44593 13.8604 2.9005 13.8149L2.70149 11.8248ZM3.4399 11.751L2.70149 11.8248L2.9005 13.8149L3.63891 13.7411L3.4399 11.751ZM5.29481 11.5655C5.36684 11.3916 5.50845 11.4362 5.16178 11.5234C4.8137 11.611 4.29047 11.6659 3.4399 11.751L3.6389 13.7411C4.42187 13.6628 5.1238 13.5953 5.64973 13.4629C6.17707 13.3303 6.84156 13.0576 7.14257 12.3309L5.29481 11.5655ZM4.11435 10.1227C4.65565 10.7843 4.98674 11.1932 5.17095 11.5012C5.35442 11.808 5.22278 11.7394 5.29481 11.5655L7.14257 12.3309C7.44358 11.6042 7.16654 10.9415 6.88746 10.4748C6.60913 10.0093 6.16054 9.46525 5.66227 8.85625L4.11435 10.1227ZM3.64419 9.54809L4.11435 10.1227L5.66227 8.85625L5.19211 8.28161L3.64419 9.54809ZM2.62152 7.48156C2.59784 7.95632 2.76832 8.34076 2.9592 8.64688C3.13497 8.92878 3.38877 9.2359 3.64419 9.54809L5.19211 8.28161C4.90282 7.92804 4.74808 7.73585 4.6563 7.58865C4.57962 7.46569 4.62352 7.49127 4.61903 7.58119L2.62152 7.48156ZM3.84474 5.52705C3.55952 5.81228 3.27643 6.09262 3.07347 6.35563C2.85308 6.64124 2.6452 7.00681 2.62152 7.48156L4.61903 7.58119C4.61455 7.67111 4.56833 7.6922 4.65686 7.57747C4.76283 7.44014 4.93593 7.2643 5.25896 6.94127L3.84474 5.52705ZM5.52769 3.8441L3.84474 5.52705L5.25896 6.94127L6.94191 5.25832L5.52769 3.8441ZM7.4822 2.62088C7.00744 2.64456 6.64188 2.85244 6.35627 3.07283C6.09326 3.27579 5.81291 3.55888 5.52769 3.8441L6.94191 5.25832C7.26494 4.93529 7.44078 4.76219 7.57811 4.65622C7.69284 4.56769 7.67175 4.61391 7.58183 4.6184L7.4822 2.62088ZM9.54873 3.64355C9.23654 3.38813 8.92942 3.13433 8.64752 2.95856C8.3414 2.76768 7.95696 2.5972 7.4822 2.62088L7.58183 4.6184C7.49191 4.62288 7.46633 4.57898 7.58929 4.65566C7.73648 4.74744 7.92868 4.90218 8.28225 5.19147L9.54873 3.64355ZM10.1229 4.11336L9.54873 3.64355L8.28225 5.19147L8.85645 5.66127L10.1229 4.11336ZM11.5657 5.29381C11.7396 5.22179 11.8082 5.35342 11.5014 5.16996C11.1934 4.98575 10.7845 4.65466 10.1229 4.11335L8.85645 5.66127C9.46546 6.15954 10.0095 6.60814 10.475 6.88647C10.9417 7.16555 11.6044 7.44258 12.3311 7.14157L11.5657 5.29381ZM11.7512 3.4389C11.6661 4.28947 11.6112 4.8127 11.5236 5.16078C11.4364 5.50745 11.3918 5.36584 11.5657 5.29381L12.3311 7.14157C13.0578 6.84056 13.3305 6.17608 13.4631 5.64873C13.5955 5.1228 13.663 4.42087 13.7413 3.63791L11.7512 3.4389ZM11.8249 2.70149L11.7512 3.4389L13.7413 3.63791L13.815 2.9005L11.8249 2.70149ZM12.5631 0.517096C12.2106 0.836056 12.0593 1.22844 11.9778 1.57987C11.9028 1.9035 11.8651 2.30013 11.8249 2.70149L13.815 2.9005C13.8605 2.44593 13.887 2.20061 13.9261 2.03163C13.9589 1.89046 13.9718 1.93959 13.9051 2L12.5631 0.517096ZM14.8101 0C14.4067 0 14.0083 -0.00194263 13.6788 0.0405216C13.321 0.0866349 12.9155 0.198134 12.5631 0.517094L13.9051 2C13.8383 2.06041 13.7907 2.04264 13.9344 2.02412C14.1065 2.00194 14.3532 2 14.8101 2V0ZM17.1901 0H14.8101V2H17.1901V0ZM19.4371 0.517094C19.0847 0.198134 18.6792 0.0866349 18.3214 0.0405216C17.9919 -0.00194263 17.5935 0 17.1901 0V2C17.6469 2 17.8937 2.00194 18.0657 2.02412C18.2094 2.04264 18.1618 2.06041 18.0951 2L19.4371 0.517094ZM20.1752 2.70147C20.1351 2.30011 20.0974 1.90349 20.0223 1.57987C19.9408 1.22843 19.7895 0.836053 19.4371 0.517094L18.0951 2C18.0283 1.93959 18.0413 1.89046 18.074 2.03163C18.1132 2.2006 18.1397 2.44592 18.1851 2.90048L20.1752 2.70147ZM20.9998 16C20.9998 18.7615 18.7613 21 15.9998 21V23C19.8658 23 22.9998 19.866 22.9998 16H20.9998ZM15.9998 11C18.7613 11 20.9998 13.2386 20.9998 16H22.9998C22.9998 12.134 19.8658 9.00004 15.9998 9.00004V11ZM10.9998 16C10.9998 13.2386 13.2384 11 15.9998 11V9.00004C12.1338 9.00004 8.99984 12.134 8.99984 16H10.9998ZM15.9998 21C13.2384 21 10.9998 18.7615 10.9998 16H8.99984C8.99984 19.866 12.1338 23 15.9998 23V21Z" fill="#6561C0"/>
</svg>
