<svg width="36" height="42" viewBox="0 0 36 42" fill="none" xmlns="http://www.w3.org/2000/svg">
<path d="M28.2857 26.25C26.469 26.25 24.7993 26.8914 23.4812 27.964L15.2457 22.7096C15.4896 21.5834 15.4896 20.4165 15.2457 19.2903L23.4812 14.0359C24.7993 15.1086 26.469 15.75 28.2857 15.75C32.5462 15.75 36 12.2242 36 7.875C36 3.52579 32.5462 0 28.2857 0C24.0253 0 20.5714 3.52579 20.5714 7.875C20.5714 8.46218 20.6349 9.0341 20.7543 9.58461L12.5188 14.839C11.2007 13.7664 9.531 13.125 7.71429 13.125C3.45383 13.125 0 16.6508 0 21C0 25.3492 3.45383 28.875 7.71429 28.875C9.531 28.875 11.2007 28.2336 12.5188 27.161L20.7543 32.4154C20.6326 32.9768 20.5713 33.55 20.5714 34.125C20.5714 38.4742 24.0253 42 28.2857 42C32.5462 42 36 38.4742 36 34.125C36 29.7758 32.5462 26.25 28.2857 26.25Z" fill="white"/>
</svg>
