<svg width="24" height="30" viewBox="0 0 24 30" fill="none" xmlns="http://www.w3.org/2000/svg">
<path d="M16.2507 1.40002V6.50002C16.2507 7.43891 17.0118 8.20002 17.9507 8.20002H23.0507M6.90073 8.20002H10.3007M6.90073 13.3H17.1007M6.90073 18.4H17.1007M20.5007 3.95002C19.7441 3.27306 18.959 2.47014 18.4633 1.94867C18.1335 1.60167 17.6778 1.40002 17.1991 1.40002H4.35033C2.47257 1.40002 0.950339 2.92225 0.950327 4.80001L0.950195 25.1999C0.950183 27.0777 2.47241 28.5999 4.35018 28.5999L19.6502 28.6C21.528 28.6 23.0502 27.0778 23.0503 25.2001L23.0507 7.17695C23.0507 6.74226 22.8849 6.32441 22.5832 6.01146C22.0253 5.43277 21.0937 4.48059 20.5007 3.95002Z" stroke="#6561C0" stroke-width="1.5" stroke-linecap="round" stroke-linejoin="round"/>
</svg>
