<svg width="48" height="49" viewBox="0 0 48 49" fill="none" xmlns="http://www.w3.org/2000/svg">
<path d="M38.3344 13.5638C38.1935 6.06241 32.0464 0 24.5113 0C17.0153 0 10.8913 5.99434 10.6936 13.4448C10.242 13.5182 9.89752 13.913 9.89752 14.3818V22.4023C9.89752 22.9273 10.3267 23.3564 10.8517 23.3564H11.8059C12.3084 23.3564 12.7257 22.9616 12.7541 22.4644C13.7024 23.3789 14.9495 24.4568 16.3157 25.3316C18.8668 28.7298 22.1236 31.0892 24.3533 31.0892C27.977 31.0892 34.3099 24.841 35.9472 18.0505V22.4023C35.9472 22.9273 36.3763 23.3564 36.9013 23.3564H37.8555C38.3805 23.3564 38.8097 22.9273 38.8097 22.4023V14.3818C38.8085 14.032 38.6167 13.7271 38.3344 13.5638ZM12.7594 20.8674V18.0736C13.1317 19.6143 13.7473 21.1273 14.5204 22.5437C13.8261 21.94 13.2217 21.3475 12.7594 20.8674ZM24.3527 29.961C22.9978 29.961 20.9545 28.6854 19.0018 26.6759C19.6002 26.8789 20.204 27.0091 20.7965 27.0482C20.8752 27.2684 20.9995 27.4602 21.1635 27.6241C21.4511 27.9118 21.8465 28.087 22.2869 28.087H26.8926C27.7675 28.087 28.4843 27.3761 28.4843 26.5007C28.4843 25.6258 27.7675 24.9144 26.8926 24.9144H22.2869C21.6151 24.9144 21.0398 25.3322 20.8083 25.9188C19.6227 25.8229 18.3755 25.2867 17.2018 24.5639C15.6101 22.4413 14.2777 19.8848 13.7473 17.2603C15.0513 16.4079 17.7156 9.97912 20.3626 9.97912C22.0502 9.97912 24.7594 13.0612 27.774 13.9698C30.7484 14.8731 33.8926 14.3481 35.2079 14.5961C35.2138 14.6866 35.2138 14.7766 35.2138 14.8672C35.2126 22.2276 27.6775 29.961 24.3527 29.961ZM36.9007 13.4282C36.6693 13.4282 36.4604 13.5075 36.297 13.6537C35.7944 6.80704 31.0189 2.12794 24.3527 2.12794C17.6812 2.12794 12.9056 6.80704 12.4031 13.6484C12.2451 13.5129 12.042 13.4341 11.8218 13.4282C12.0308 6.60993 17.6469 1.12878 24.5108 1.12878C31.3799 1.12878 36.9907 6.60934 37.1997 13.4282H36.9007ZM46.8065 48.6496H0.787334C0.787334 48.6496 -4.78378 38.2863 13.713 33.1669C16.3944 31.0727 16.9922 30.4352 16.9922 30.4352L22.1117 46.3358L22.8173 39.2068L21.666 38.5349C21.666 38.5349 23.9011 35.927 23.9691 35.5546L26.4357 38.4615L25.2447 39.1334L26.0799 46.9792L30.601 30.4352C30.601 30.4352 31.1994 31.0732 33.8802 33.1669C52.3776 38.2863 46.8065 48.6496 46.8065 48.6496Z" fill="#6561C0"/>
</svg>
