<svg width="36" height="35" viewBox="0 0 36 35" fill="none" xmlns="http://www.w3.org/2000/svg">
<path d="M24.8768 34.5794L23.8711 33.5808L26.2084 31.2505L23.8711 28.9132L24.8768 27.9146L27.71 30.7477C27.8419 30.8804 27.9159 31.0599 27.9159 31.247C27.9159 31.4341 27.8419 31.6136 27.71 31.7463L24.8768 34.5794Z" fill="#6561C0" stroke="#6561C0" stroke-width="0.5"/>
<path d="M27.2065 30.5422H15.874V31.9588H27.2065V30.5422Z" fill="#6561C0" stroke="#6561C0" stroke-width="0.5"/>
<path d="M31.9599 30.3297L30.9541 29.331L33.2914 27.0008L30.9541 24.6635L31.9599 23.6648L34.793 26.4979C34.9249 26.6306 34.9989 26.8101 34.9989 26.9972C34.9989 27.1844 34.9249 27.3639 34.793 27.4966L31.9599 30.3297Z" fill="#6561C0" stroke="#6561C0" stroke-width="0.5"/>
<path d="M22.9577 26.2925H18.708V27.709H22.9577V26.2925Z" fill="#6561C0" stroke="#6561C0" stroke-width="0.5"/>
<path d="M34.2901 26.2925H26.499V27.709H34.2901V26.2925Z" fill="#6561C0" stroke="#6561C0" stroke-width="0.5"/>
<path d="M4.03907 11.9146L1.20596 9.08153C1.07404 8.94883 1 8.76932 1 8.5822C1 8.39508 1.07404 8.21557 1.20596 8.08286L4.03907 5.24976L5.04482 6.24843L2.70751 8.58574L5.04482 10.916L4.03907 11.9146Z" fill="#6561C0" stroke="#6561C0" stroke-width="0.5"/>
<path d="M17.2907 7.87744H13.041V9.294H17.2907V7.87744Z" fill="#6561C0" stroke="#6561C0" stroke-width="0.5"/>
<path d="M9.50003 7.87744H1.70898V9.294H9.50003V7.87744Z" fill="#6561C0" stroke="#6561C0" stroke-width="0.5"/>
<path d="M11.1221 7.66489L8.28897 4.83178C8.15705 4.69907 8.08301 4.51956 8.08301 4.33244C8.08301 4.14533 8.15705 3.96581 8.28897 3.83311L11.1221 1L12.1278 1.99867L9.79052 4.33598L12.1278 6.66621L11.1221 7.66489Z" fill="#6561C0" stroke="#6561C0" stroke-width="0.5"/>
<path d="M20.1242 3.62769H9.5V5.04424H20.1242V3.62769Z" fill="#6561C0" stroke="#6561C0" stroke-width="0.5"/>
<path d="M26.4983 20.6263C24.8173 20.6263 23.1741 20.1279 21.7764 19.1939C20.3787 18.26 19.2893 16.9326 18.646 15.3796C18.0027 13.8265 17.8344 12.1176 18.1623 10.4689C18.4903 8.82017 19.2998 7.30573 20.4884 6.11708C21.6771 4.92843 23.1915 4.11895 24.8402 3.791C26.4889 3.46305 28.1979 3.63137 29.7509 4.27466C31.3039 4.91796 32.6314 6.00734 33.5653 7.40504C34.4992 8.80275 34.9977 10.446 34.9977 12.127C34.9977 14.3812 34.1022 16.543 32.5083 18.1369C30.9143 19.7309 28.7525 20.6263 26.4983 20.6263ZM26.4983 5.04424C25.0975 5.04424 23.7281 5.45964 22.5634 6.2379C21.3986 7.01617 20.4908 8.12235 19.9547 9.41655C19.4186 10.7108 19.2784 12.1349 19.5517 13.5088C19.825 14.8827 20.4995 16.1447 21.4901 17.1353C22.4806 18.1258 23.7426 18.8004 25.1166 19.0737C26.4905 19.347 27.9146 19.2067 29.2088 18.6706C30.503 18.1346 31.6092 17.2267 32.3875 16.062C33.1657 14.8972 33.5811 13.5279 33.5811 12.127C33.5811 11.1969 33.3979 10.2759 33.042 9.41655C32.686 8.55723 32.1643 7.77643 31.5066 7.11874C30.8489 6.46104 30.0681 5.93933 29.2088 5.58339C28.3495 5.22744 27.4285 5.04424 26.4983 5.04424Z" fill="#6561C0" stroke="#6561C0" stroke-width="0.5"/>
<path d="M26.4981 14.2519C24.9328 14.2519 23.665 12.6583 23.665 10.7105C23.6339 10.3306 23.6859 9.94845 23.8173 9.59062C23.9487 9.23279 24.1563 8.90783 24.4259 8.63829C24.6954 8.36875 25.0204 8.16108 25.3782 8.02969C25.736 7.89829 26.1182 7.84633 26.4981 7.87739C26.878 7.84633 27.2602 7.89829 27.618 8.02969C27.9758 8.16108 28.3008 8.36875 28.5703 8.63829C28.8398 8.90783 29.0475 9.23279 29.1789 9.59062C29.3103 9.94845 29.3623 10.3306 29.3312 10.7105C29.3312 12.6583 28.0634 14.2519 26.4981 14.2519ZM26.4981 9.29395C25.2303 9.29395 25.0815 10.1014 25.0815 10.7105C25.0815 11.8367 25.7402 12.8353 26.4981 12.8353C27.256 12.8353 27.9147 11.8367 27.9147 10.7105C27.9147 10.1014 27.7659 9.29395 26.4981 9.29395Z" fill="#6561C0" stroke="#6561C0" stroke-width="0.5"/>
<path d="M31.4571 18.5016H30.0405V15.4489C30.043 15.2802 29.9851 15.1161 29.8773 14.9862C29.7696 14.8564 29.619 14.7693 29.4527 14.7406L26.4991 14.259L23.5456 14.7548C23.3793 14.7834 23.2287 14.8706 23.121 15.0004C23.0132 15.1303 22.9553 15.2943 22.9578 15.4631V18.5157H21.5412V15.4489C21.5344 14.9406 21.71 14.4468 22.0362 14.0569C22.3624 13.667 22.8175 13.407 23.319 13.3241L26.3858 12.8141C26.4607 12.7999 26.5376 12.7999 26.6125 12.8141L29.6793 13.3241C30.1808 13.407 30.6359 13.667 30.9621 14.0569C31.2883 14.4468 31.4639 14.9406 31.4571 15.4489V18.5016Z" fill="#6561C0" stroke="#6561C0" stroke-width="0.5"/>
<path d="M9.5003 31.9589C7.8193 31.9589 6.17604 31.4604 4.77833 30.5265C3.38063 29.5925 2.29125 28.2651 1.64795 26.7121C1.00466 25.159 0.836344 23.4501 1.16429 21.8014C1.49224 20.1527 2.30172 18.6383 3.49037 17.4496C4.67903 16.261 6.19346 15.4515 7.84217 15.1235C9.49087 14.7956 11.1998 14.9639 12.7529 15.6072C14.3059 16.2505 15.6333 17.3399 16.5672 18.7376C17.5011 20.1353 17.9996 21.7785 17.9996 23.4595C17.9996 25.7137 17.1042 27.8755 15.5102 29.4695C13.9163 31.0634 11.7545 31.9589 9.5003 31.9589ZM9.5003 16.3768C8.09946 16.3768 6.73008 16.7922 5.56533 17.5704C4.40057 18.3487 3.49276 19.4549 2.95668 20.7491C2.4206 22.0433 2.28034 23.4674 2.55363 24.8413C2.82692 26.2152 3.50149 27.4773 4.49203 28.4678C5.48257 29.4583 6.7446 30.1329 8.11852 30.4062C9.49245 30.6795 10.9166 30.5392 12.2108 30.0032C13.505 29.4671 14.6111 28.5593 15.3894 27.3945C16.1677 26.2298 16.5831 24.8604 16.5831 23.4595C16.5831 21.5811 15.8369 19.7795 14.5086 18.4513C13.1803 17.123 11.3788 16.3768 9.5003 16.3768Z" fill="#6561C0" stroke="#6561C0" stroke-width="0.5"/>
<path d="M9.50005 24.8762C7.93476 24.8762 6.66694 23.2825 6.66694 21.3348C6.63588 20.9548 6.68785 20.5727 6.81924 20.2149C6.95063 19.8571 7.1583 19.5321 7.42784 19.2626C7.69738 18.993 8.02234 18.7853 8.38017 18.654C8.738 18.5226 9.12013 18.4706 9.50005 18.5017C9.87997 18.4706 10.2621 18.5226 10.6199 18.654C10.9778 18.7853 11.3027 18.993 11.5723 19.2626C11.8418 19.5321 12.0495 19.8571 12.1809 20.2149C12.3123 20.5727 12.3642 20.9548 12.3332 21.3348C12.3332 23.2825 11.0653 24.8762 9.50005 24.8762ZM9.50005 19.9182C8.23224 19.9182 8.0835 20.7256 8.0835 21.3348C8.0835 22.4609 8.74219 23.4596 9.50005 23.4596C10.2579 23.4596 10.9166 22.4609 10.9166 21.3348C10.9166 20.7256 10.7679 19.9182 9.50005 19.9182Z" fill="#6561C0" stroke="#6561C0" stroke-width="0.5"/>
<path d="M14.4581 29.8341H13.0415V26.0732C13.044 25.9044 12.9861 25.7404 12.8783 25.6105C12.7705 25.4807 12.6199 25.3936 12.4536 25.3649L9.50012 24.8833L6.54661 25.379C6.38031 25.4077 6.22971 25.4948 6.12193 25.6247C6.01416 25.7545 5.95628 25.9186 5.95874 26.0873V29.8483H4.54218V26.0732C4.53536 25.5649 4.71098 25.071 5.03716 24.6812C5.36334 24.2913 5.81847 24.0313 6.31996 23.9483L9.3868 23.4384C9.46168 23.4242 9.53856 23.4242 9.61345 23.4384L12.6803 23.9483C13.1818 24.0313 13.6369 24.2913 13.9631 24.6812C14.2893 25.071 14.4649 25.5649 14.4581 26.0732V29.8341Z" fill="#6561C0" stroke="#6561C0" stroke-width="0.5"/>
<path d="M10.2085 26.2925H8.79199V27.709H10.2085V26.2925Z" fill="#6561C0" stroke="#6561C0" stroke-width="0.5"/>
<path d="M10.2085 28.4175H8.79199V29.834H10.2085V28.4175Z" fill="#6561C0" stroke="#6561C0" stroke-width="0.5"/>
</svg>
