<svg width="32" height="32" viewBox="0 0 32 32" fill="none" xmlns="http://www.w3.org/2000/svg">
<path d="M16.0019 22.2585C14.3445 22.2585 12.7551 21.6001 11.5832 20.4282C10.4113 19.2563 9.75293 17.6668 9.75293 16.0095H11.0027C11.0027 17.3354 11.5294 18.6069 12.4669 19.5444C13.4045 20.482 14.676 21.0087 16.0019 21.0087C17.3277 21.0087 18.5993 20.482 19.5368 19.5444C20.4743 18.6069 21.001 17.3354 21.001 16.0095H22.2508C22.2508 17.6668 21.5924 19.2563 20.4205 20.4282C19.2486 21.6001 17.6592 22.2585 16.0019 22.2585Z" fill="#6561C0" stroke="#6561C0" stroke-width="0.5"/>
<path d="M7.25389 8.51094C5.52919 8.51094 4.12943 6.82998 4.12943 4.76158C4.09972 4.34364 4.16018 3.92419 4.30669 3.53164C4.4532 3.13909 4.68236 2.78261 4.97864 2.48633C5.27491 2.19005 5.6314 1.96089 6.02395 1.81438C6.4165 1.66787 6.83595 1.60742 7.25389 1.63712C7.67184 1.60742 8.09129 1.66787 8.48384 1.81438C8.87639 1.96089 9.23287 2.19005 9.52915 2.48633C9.82543 2.78261 10.0546 3.13909 10.2011 3.53164C10.3476 3.92419 10.4081 4.34364 10.3784 4.76158C10.3784 6.82998 8.9786 8.51094 7.25389 8.51094ZM7.25389 2.88691C7.00095 2.8592 6.74501 2.88864 6.50496 2.97305C6.26491 3.05747 6.04687 3.1947 5.86694 3.37463C5.68701 3.55456 5.54978 3.7726 5.46536 4.01265C5.38095 4.2527 5.35151 4.50864 5.37921 4.76158C5.37921 6.1426 6.22282 7.26116 7.25389 7.26116C8.28497 7.26116 9.12857 6.1426 9.12857 4.76158C9.15628 4.50864 9.12684 4.2527 9.04243 4.01265C8.95801 3.7726 8.82078 3.55456 8.64085 3.37463C8.46092 3.1947 8.24288 3.05747 8.00283 2.97305C7.76278 2.88864 7.50684 2.8592 7.25389 2.88691Z" fill="#6561C0" stroke="#6561C0" stroke-width="0.5"/>
<path d="M2.25473 14.7597H1.00494V10.7479C1.00025 9.97548 1.28185 9.22871 1.79538 8.65171C2.30891 8.0747 3.01797 7.70838 3.78571 7.62342L7.18513 7.26099L7.32261 8.51077L3.92319 8.89196C3.46255 8.94293 3.03711 9.16272 2.72899 9.50893C2.42087 9.85513 2.25191 10.3032 2.25473 10.7666V14.7597Z" fill="#6561C0" stroke="#6561C0" stroke-width="0.5"/>
<path d="M4.75467 11.0104H3.50488V16.0095H4.75467V11.0104Z" fill="#6561C0" stroke="#6561C0" stroke-width="0.5"/>
<path d="M16.0019 7.88594C14.2772 7.88594 12.8775 6.20498 12.8775 4.13658C12.8478 3.71864 12.9082 3.29919 13.0547 2.90664C13.2013 2.51409 13.4304 2.15761 13.7267 1.86133C14.023 1.56505 14.3794 1.33589 14.772 1.18938C15.1645 1.04287 15.584 0.982415 16.0019 1.01212C16.4199 0.982415 16.8393 1.04287 17.2319 1.18938C17.6244 1.33589 17.9809 1.56505 18.2772 1.86133C18.5735 2.15761 18.8026 2.51409 18.9491 2.90664C19.0957 3.29919 19.1561 3.71864 19.1264 4.13658C19.1264 6.20498 17.7266 7.88594 16.0019 7.88594ZM16.0019 2.26191C15.749 2.2342 15.4931 2.26364 15.253 2.34805C15.013 2.43247 14.7949 2.5697 14.615 2.74963C14.4351 2.92956 14.2978 3.1476 14.2134 3.38765C14.129 3.6277 14.0996 3.88364 14.1273 4.13658C14.1273 5.5176 14.9709 6.63616 16.0019 6.63616C17.033 6.63616 17.8766 5.5176 17.8766 4.13658C17.9043 3.88364 17.8749 3.6277 17.7905 3.38765C17.7061 3.1476 17.5688 2.92956 17.3889 2.74963C17.209 2.5697 16.9909 2.43247 16.7509 2.34805C16.5108 2.26364 16.2549 2.2342 16.0019 2.26191Z" fill="#6561C0" stroke="#6561C0" stroke-width="0.5"/>
<path d="M11.0028 14.7598H9.75299V10.1231C9.7483 9.35072 10.0299 8.60395 10.5434 8.02695C11.057 7.44995 11.766 7.08362 12.5338 6.99867L15.9332 6.63623L16.0707 7.88602L12.6712 8.2672C12.2106 8.31817 11.7852 8.53797 11.477 8.88417C11.1689 9.23037 11 9.67843 11.0028 10.1419V14.7598Z" fill="#6561C0" stroke="#6561C0" stroke-width="0.5"/>
<path d="M13.5027 10.3855H12.2529V16.0095H13.5027V10.3855Z" fill="#6561C0" stroke="#6561C0" stroke-width="0.5"/>
<path d="M22.2513 14.7598H21.0015V10.1231C21.0043 9.65969 20.8353 9.21162 20.5272 8.86542C20.2191 8.51922 19.7937 8.29943 19.333 8.24845L15.9336 7.88602L16.0711 6.63623L19.4705 7.01117C20.2382 7.09612 20.9473 7.46245 21.4608 8.03945C21.9744 8.61645 22.2559 9.36322 22.2513 10.1356V14.7598Z" fill="#6561C0" stroke="#6561C0" stroke-width="0.5"/>
<path d="M19.7517 10.3855H18.502V16.0095H19.7517V10.3855Z" fill="#6561C0" stroke="#6561C0" stroke-width="0.5"/>
<path d="M24.751 8.51094C23.0263 8.51094 21.6265 6.82998 21.6265 4.76158C21.5968 4.34364 21.6572 3.92419 21.8038 3.53164C21.9503 3.13909 22.1794 2.78261 22.4757 2.48633C22.772 2.19005 23.1285 1.96089 23.521 1.81438C23.9136 1.66787 24.333 1.60742 24.751 1.63712C25.1689 1.60742 25.5884 1.66787 25.9809 1.81438C26.3735 1.96089 26.7299 2.19005 27.0262 2.48633C27.3225 2.78261 27.5517 3.13909 27.6982 3.53164C27.8447 3.92419 27.9051 4.34364 27.8754 4.76158C27.8754 6.82998 26.4757 8.51094 24.751 8.51094ZM24.751 2.88691C24.498 2.8592 24.2421 2.88864 24.002 2.97305C23.762 3.05747 23.5439 3.1947 23.364 3.37463C23.1841 3.55456 23.0468 3.7726 22.9624 4.01265C22.878 4.2527 22.8486 4.50864 22.8763 4.76158C22.8763 6.1426 23.7199 7.26116 24.751 7.26116C25.782 7.26116 26.6256 6.1426 26.6256 4.76158C26.6533 4.50864 26.6239 4.2527 26.5395 4.01265C26.4551 3.7726 26.3178 3.55456 26.1379 3.37463C25.958 3.1947 25.74 3.05747 25.4999 2.97305C25.2599 2.88864 25.0039 2.8592 24.751 2.88691Z" fill="#6561C0" stroke="#6561C0" stroke-width="0.5"/>
<path d="M31.0003 14.7597H29.7505V10.7479C29.7533 10.2844 29.5844 9.83638 29.2762 9.49018C28.9681 9.14398 28.5427 8.92418 28.082 8.87321L24.6826 8.51077L24.8201 7.26099L28.2195 7.63592C28.9873 7.72088 29.6963 8.0872 30.2098 8.6642C30.7234 9.2412 31.005 9.98797 31.0003 10.7604V14.7597Z" fill="#6561C0" stroke="#6561C0" stroke-width="0.5"/>
<path d="M28.4998 11.0104H27.25V16.0095H28.4998V11.0104Z" fill="#6561C0" stroke="#6561C0" stroke-width="0.5"/>
<path d="M17.877 31.007H14.1277C13.9751 31.0082 13.8273 30.9537 13.7122 30.8535C13.5971 30.7534 13.5226 30.6146 13.5028 30.4633L13.0278 26.8514C12.119 26.6028 11.2454 26.2395 10.4283 25.7703L7.54129 27.995C7.42054 28.0877 7.2701 28.1331 7.11823 28.1228C6.96635 28.1124 6.82347 28.047 6.71643 27.9387L4.07313 25.2892C3.96489 25.1821 3.89945 25.0393 3.8891 24.8874C3.87874 24.7355 3.92418 24.5851 4.01689 24.4643L6.24151 21.5773C5.77494 20.7589 5.4118 19.8857 5.16044 18.9778L1.54856 18.5091C1.39728 18.4893 1.25848 18.4148 1.15833 18.2997C1.05818 18.1845 1.00361 18.0368 1.00491 17.8842V16.0095H2.25469V17.3343L5.74159 17.7905C5.8688 17.8065 5.98799 17.8613 6.08301 17.9473C6.17803 18.0334 6.24427 18.1466 6.27275 18.2716C6.52041 19.3396 6.94268 20.3594 7.52254 21.2899C7.59511 21.3945 7.63399 21.5187 7.63399 21.6461C7.63399 21.7734 7.59511 21.8976 7.52254 22.0022L5.34166 24.7955L7.21634 26.6702L10.0096 24.5206C10.1142 24.448 10.2385 24.4091 10.3658 24.4091C10.4931 24.4091 10.6174 24.448 10.722 24.5206C11.6524 25.1004 12.6722 25.5227 13.7402 25.7703C13.8652 25.7988 13.9784 25.8651 14.0645 25.9601C14.1506 26.0551 14.2054 26.1743 14.2214 26.3015L14.6776 29.7572H17.3271L17.7833 26.2703C17.7993 26.1431 17.8541 26.0239 17.9401 25.9288C18.0262 25.8338 18.1394 25.7676 18.2645 25.7391C19.3325 25.4914 20.3522 25.0692 21.2827 24.4893C21.3873 24.4168 21.5116 24.3779 21.6389 24.3779C21.7662 24.3779 21.8905 24.4168 21.9951 24.4893L24.7883 26.6389L26.663 24.7643L24.5134 21.971C24.4408 21.8664 24.4019 21.7421 24.4019 21.6148C24.4019 21.4875 24.4408 21.3632 24.5134 21.2586C25.0932 20.3282 25.5155 19.3084 25.7632 18.2404C25.7916 18.1154 25.8579 18.0022 25.9529 17.9161C26.0479 17.83 26.1671 17.7752 26.2943 17.7592L29.75 17.3343V16.0095H30.9998V17.8842C31.0011 18.0368 30.9465 18.1845 30.8463 18.2997C30.7462 18.4148 30.6074 18.4893 30.4561 18.5091L26.8442 18.984C26.5956 19.8929 26.2324 20.7664 25.7632 21.5836L27.9878 24.4706C28.0805 24.5913 28.1259 24.7418 28.1156 24.8936C28.1052 25.0455 28.0398 25.1884 27.9315 25.2954L25.282 27.945C25.1749 28.0532 25.0321 28.1187 24.8802 28.129C24.7283 28.1394 24.5779 28.0939 24.4571 28.0012L21.5701 25.7766C20.753 26.2458 19.8795 26.6091 18.9706 26.8577L18.5019 30.4633C18.4821 30.6146 18.4076 30.7534 18.2925 30.8535C18.1774 30.9537 18.0296 31.0082 17.877 31.007Z" fill="#6561C0" stroke="#6561C0" stroke-width="0.5"/>
</svg>
