<svg width="31" height="23" viewBox="0 0 31 23" fill="none" xmlns="http://www.w3.org/2000/svg">
<path d="M26.375 13.9199C28.2892 15.2792 30 18.7017 30 20.8105C30 21.4674 29.4957 22 28.8736 22H28.1875M20.9375 8.34823C22.1758 7.66742 23.0089 6.39493 23.0089 4.9375C23.0089 3.48007 22.1758 2.20758 20.9375 1.52677M2.12642 22H21.9688C22.5909 22 23.0952 21.4674 23.0952 20.8105C23.0952 16.681 19.4653 13.3333 12.0476 13.3333C4.62993 13.3333 1 16.681 1 20.8105C1 21.4674 1.50432 22 2.12642 22ZM16.1905 4.9375C16.1905 7.11212 14.3357 8.875 12.0476 8.875C9.75958 8.875 7.90476 7.11212 7.90476 4.9375C7.90476 2.76288 9.75958 1 12.0476 1C14.3357 1 16.1905 2.76288 16.1905 4.9375Z" stroke="white" stroke-width="2" stroke-linecap="round"/>
</svg>
