<svg width="32" height="32" viewBox="0 0 32 32" fill="none" xmlns="http://www.w3.org/2000/svg">
<path d="M13.913 18.7826V20.8695C13.913 21.2385 13.7665 21.5924 13.5055 21.8534C13.2446 22.1143 12.8907 22.2609 12.5217 22.2609H1.3913C1.02231 22.2609 0.668424 22.1143 0.407504 21.8534C0.146583 21.5924 0 21.2385 0 20.8695V18.7826H13.913Z" fill="#374F68"/>
<path d="M13.913 18.7826V20.8695H4.17387C3.62038 20.8695 3.08955 20.6497 2.69817 20.2583C2.30679 19.8669 2.08691 19.3361 2.08691 18.7826H13.913Z" fill="#425B72"/>
<path d="M13.913 1.3913V3.47826H0V1.3913C0 1.02231 0.146583 0.668424 0.407504 0.407504C0.668424 0.146583 1.02231 0 1.3913 0H12.5217C12.8907 0 13.2446 0.146583 13.5055 0.407504C13.7665 0.668424 13.913 1.02231 13.913 1.3913Z" fill="#374F68"/>
<path d="M13.913 1.3913V2.08696H4.17387C3.62038 2.08696 3.08955 1.86708 2.69817 1.4757C2.30679 1.08432 2.08691 0.553495 2.08691 0H12.5217C12.8907 0 13.2446 0.146583 13.5055 0.407504C13.7664 0.668424 13.913 1.02231 13.913 1.3913Z" fill="#425B72"/>
<path d="M13.913 3.47827H0V18.7826H13.913V3.47827Z" fill="#6561C0"/>
<path d="M13.913 3.47827V17.3913H4.17387C3.62038 17.3913 3.08955 17.1714 2.69817 16.7801C2.30679 16.3887 2.08691 15.8579 2.08691 15.3044V3.47827H13.913Z" fill="#8E8AE9"/>
<path d="M32 28.5217V30.6087C32 30.9777 31.8534 31.3316 31.5925 31.5925C31.3315 31.8534 30.9777 32 30.6087 32H19.4782C19.1092 32 18.7553 31.8534 18.4944 31.5925C18.2335 31.3316 18.0869 30.9777 18.0869 30.6087V28.5217H32Z" fill="#374F68"/>
<path d="M31.9999 28.5217V30.6087H22.2608C21.7073 30.6087 21.1765 30.3888 20.7851 29.9974C20.3937 29.606 20.1738 29.0752 20.1738 28.5217H31.9999Z" fill="#425B72"/>
<path d="M32 11.1304V13.2174H18.0869V11.1304C18.0869 10.7614 18.2335 10.4076 18.4944 10.1466C18.7553 9.88572 19.1092 9.73914 19.4782 9.73914H30.6087C30.9777 9.73914 31.3315 9.88572 31.5925 10.1466C31.8534 10.4076 32 10.7614 32 11.1304Z" fill="#374F68"/>
<path d="M31.9999 11.1304V11.8261H22.2608C21.7073 11.8261 21.1765 11.6062 20.7851 11.2148C20.3937 10.8235 20.1738 10.2926 20.1738 9.73914H30.6086C30.9776 9.73914 31.3315 9.88572 31.5924 10.1466C31.8533 10.4076 31.9999 10.7614 31.9999 11.1304Z" fill="#425B72"/>
<path d="M32 13.2174H18.0869V28.5218H32V13.2174Z" fill="#6561C0"/>
<path d="M31.9999 13.2174V27.1305H22.2608C21.7073 27.1305 21.1765 26.9106 20.7851 26.5192C20.3937 26.1278 20.1738 25.597 20.1738 25.0435V13.2174H31.9999Z" fill="#8E8AE9"/>
<path d="M25.7387 2.08696H22.2605L23.3735 1.25218C23.5211 1.14148 23.6187 0.976679 23.6448 0.794035C23.6709 0.611391 23.6233 0.425862 23.5126 0.278264C23.4578 0.20518 23.3892 0.143609 23.3105 0.0970641C23.2319 0.0505196 23.1449 0.019914 23.0545 0.0069945C22.8719 -0.0190975 22.6863 0.0284342 22.5387 0.139133C19.0605 2.7687 19.8952 2.11479 19.7561 2.26087C19.6421 2.35879 19.5628 2.49101 19.5302 2.63773C19.4976 2.78445 19.5134 2.93779 19.5752 3.07479C19.6796 3.29739 19.7422 3.30435 22.5666 5.42609C22.7142 5.53679 22.8997 5.58432 23.0823 5.55823C23.1728 5.54531 23.2598 5.5147 23.3384 5.46816C23.417 5.42161 23.4857 5.36004 23.5405 5.28696C23.5953 5.21388 23.6352 5.13071 23.6578 5.04222C23.6805 4.95372 23.6855 4.86162 23.6726 4.77119C23.6597 4.68075 23.6291 4.59375 23.5825 4.51514C23.536 4.43653 23.4744 4.36786 23.4013 4.31305L22.2605 3.47826H25.7387C26.1077 3.47826 26.4616 3.62485 26.7225 3.88577C26.9834 4.14669 27.13 4.50057 27.13 4.86957V6.95652C27.13 7.14102 27.2033 7.31796 27.3338 7.44842C27.4642 7.57889 27.6412 7.65218 27.8257 7.65218C28.0102 7.65218 28.1871 7.57889 28.3176 7.44842C28.448 7.31796 28.5213 7.14102 28.5213 6.95652V4.86957C28.5213 4.13157 28.2282 3.42381 27.7063 2.90197C27.1845 2.38013 26.4767 2.08696 25.7387 2.08696Z" fill="#425B72"/>
<path d="M9.46112 26.5739C9.31353 26.4632 9.128 26.4157 8.94535 26.4418C8.76271 26.4679 8.59791 26.5655 8.48721 26.7131C8.37651 26.8607 8.32898 27.0462 8.35507 27.2288C8.38117 27.4115 8.47874 27.5763 8.62634 27.687L9.73939 28.5218H6.26112C5.89213 28.5218 5.53824 28.3752 5.27732 28.1142C5.0164 27.8533 4.86982 27.4994 4.86982 27.1304V25.0435C4.86982 24.859 4.79653 24.6821 4.66607 24.5516C4.53561 24.4211 4.35867 24.3478 4.17417 24.3478C3.98967 24.3478 3.81273 24.4211 3.68227 24.5516C3.55181 24.6821 3.47852 24.859 3.47852 25.0435V27.1304C3.47852 27.8684 3.77168 28.5762 4.29352 29.098C4.81536 29.6199 5.52313 29.9131 6.26112 29.9131H9.73939L8.62634 30.7478C8.55326 30.8027 8.49169 30.8713 8.44514 30.9499C8.3986 31.0285 8.36799 31.1155 8.35507 31.206C8.34215 31.2964 8.34717 31.3885 8.36985 31.477C8.39252 31.5655 8.4324 31.6487 8.48721 31.7218C8.54202 31.7948 8.61069 31.8564 8.6893 31.903C8.76791 31.9495 8.85492 31.9801 8.94535 31.993C9.03579 32.0059 9.12788 32.0009 9.21638 31.9782C9.30488 31.9556 9.38804 31.9157 9.46112 31.8609C13.5655 28.7861 13.5585 29.6487 9.46112 26.5739Z" fill="#425B72"/>
<path d="M10.5179 13.3008C10.1902 13.8423 9.74356 14.3021 9.21191 14.6454C8.68025 14.9888 8.07746 15.2068 7.44915 15.2829C6.82083 15.359 6.18344 15.2912 5.58518 15.0846C4.98693 14.8781 4.44348 14.5382 3.99595 14.0907C3.54842 13.6431 3.20852 13.0997 3.00197 12.5014C2.79542 11.9032 2.72762 11.2658 2.80371 10.6375C2.8798 10.0091 3.09778 9.40635 3.44117 8.8747C3.78455 8.34304 4.24434 7.89643 4.78576 7.56866C8.50055 5.28692 12.8066 9.62779 10.5179 13.3008Z" fill="#9DCC6B"/>
<path d="M10.9629 12.2922C10.271 12.848 9.42005 13.1688 8.53348 13.2081C7.6469 13.2474 6.77088 13.0031 6.03261 12.5106C5.29433 12.0182 4.73222 11.3033 4.4279 10.4696C4.12357 9.63599 4.09287 8.72706 4.34025 7.87479C5.03208 7.31898 5.88306 6.99815 6.76963 6.95887C7.6562 6.91958 8.53222 7.1639 9.2705 7.65634C10.0088 8.14879 10.5709 8.86372 10.8752 9.69736C11.1795 10.531 11.2102 11.4399 10.9629 12.2922Z" fill="#B5E08C"/>
<path d="M5.07177 11.6244C4.94078 11.4934 4.86719 11.3157 4.86719 11.1305C4.86719 10.9452 4.94078 10.7676 5.07177 10.6366C5.20277 10.5056 5.38043 10.432 5.56569 10.432C5.75094 10.432 5.92861 10.5056 6.0596 10.6366L6.4909 11.0748L7.88221 9.68351C8.01228 9.55252 8.18906 9.47856 8.37366 9.47791C8.55826 9.47726 8.73556 9.54996 8.86656 9.68004C8.99755 9.81011 9.07151 9.98689 9.07216 10.1715C9.07281 10.3561 9.00011 10.5334 8.87003 10.6644C6.26134 13.287 6.72047 13.2661 5.07177 11.6244Z" fill="#EDEBF2"/>
<path d="M25.0434 20.1739C24.9058 20.1739 24.7713 20.1331 24.6569 20.0567C24.5425 19.9802 24.4533 19.8716 24.4007 19.7445C24.348 19.6174 24.3342 19.4775 24.3611 19.3425C24.3879 19.2076 24.4542 19.0836 24.5515 18.9864C24.6487 18.8891 24.7727 18.8228 24.9076 18.796C25.0426 18.7691 25.1825 18.7829 25.3096 18.8356C25.4367 18.8882 25.5453 18.9774 25.6218 19.0918C25.6982 19.2062 25.739 19.3407 25.739 19.4783C25.739 19.6628 25.8123 19.8397 25.9428 19.9702C26.0732 20.1006 26.2502 20.1739 26.4347 20.1739C27.5894 20.1739 27.2764 18.0869 25.739 17.5165C25.739 17.332 25.6657 17.1551 25.5353 17.0246C25.4048 16.8942 25.2279 16.8209 25.0434 16.8209C24.8589 16.8209 24.6819 16.8942 24.5515 17.0246C24.421 17.1551 24.3477 17.332 24.3477 17.5165C23.8876 17.6835 23.5008 18.0068 23.255 18.43C23.0091 18.8532 22.9198 19.3494 23.0027 19.8317C23.0856 20.3141 23.3354 20.752 23.7084 21.0689C24.0814 21.3857 24.5539 21.5614 25.0434 21.5652C25.1809 21.5652 25.3154 21.606 25.4298 21.6824C25.5442 21.7589 25.6334 21.8675 25.6861 21.9946C25.7387 22.1218 25.7525 22.2616 25.7256 22.3966C25.6988 22.5315 25.6325 22.6555 25.5353 22.7528C25.438 22.8501 25.314 22.9163 25.1791 22.9431C25.0441 22.97 24.9043 22.9562 24.7771 22.9036C24.65 22.8509 24.5414 22.7617 24.4649 22.6473C24.3885 22.5329 24.3477 22.3984 24.3477 22.2609C24.3477 22.0764 24.2744 21.8994 24.144 21.769C24.0135 21.6385 23.8365 21.5652 23.6521 21.5652C22.4973 21.5652 22.8103 23.6522 24.3477 24.2226C24.3477 24.4071 24.421 24.584 24.5515 24.7145C24.6819 24.845 24.8589 24.9183 25.0434 24.9183C25.2279 24.9183 25.4048 24.845 25.5353 24.7145C25.6657 24.584 25.739 24.4071 25.739 24.2226C26.1991 24.0557 26.5859 23.7323 26.8317 23.3091C27.0776 22.8859 27.1669 22.3898 27.084 21.9074C27.0011 21.425 26.7513 20.9871 26.3783 20.6703C26.0053 20.3534 25.5328 20.1777 25.0434 20.1739Z" fill="#F8834B"/>
</svg>
