<svg width="35" height="35" viewBox="0 0 38 35" fill="none" xmlns="http://www.w3.org/2000/svg">
<path d="M27.0824 12.8697L20.111 19.8411H4.61621V13.2487L16.0387 1.82616C16.6487 1.21623 17.6376 1.21623 18.2474 1.82616L27.0823 10.661C27.6922 11.271 27.6922 12.2599 27.0824 12.8697Z" fill="#81BC82"/>
<path d="M23.2173 12.3175L15.6937 19.8411H5.00684V17.2756L16.5911 5.69146C16.896 5.38654 17.3904 5.38654 17.6954 5.69146L23.2173 11.2133C23.5223 11.5182 23.5223 12.0126 23.2173 12.3175Z" fill="#699E69"/>
<path d="M8.45312 19.8412L24.6288 3.66552C25.2387 3.05567 26.2276 3.05567 26.8375 3.66552L35.6724 12.5004C36.2823 13.1103 36.2823 14.0992 35.6724 14.7091L30.5402 19.8412H8.45312Z" fill="#ACE5AC"/>
<path d="M31.8076 14.1569L26.1233 19.8412H12.8711L25.1816 7.5307C25.4865 7.22577 25.981 7.22577 26.286 7.5307L31.8078 13.0525C32.1126 13.3574 32.1126 13.852 31.8076 14.1569Z" fill="#81BC82"/>
<path d="M37.4143 15.7024V30.5395C37.4143 32.2646 36.0158 33.6631 34.2907 33.6631H6.1783C4.4532 33.6631 3.05469 32.2646 3.05469 30.5395V15.7024C3.05469 13.9773 4.4532 12.5788 6.1783 12.5788H34.2907C36.0158 12.5789 37.4143 13.9773 37.4143 15.7024Z" fill="#FEAF50"/>
<path d="M37.4143 19.3506V30.5395C37.4143 32.2646 36.0158 33.6631 34.2907 33.6631H6.1783C4.4532 33.6631 3.05469 32.2646 3.05469 30.5395V19.3506H37.4143Z" fill="#FE9443"/>
<path d="M10.0831 31.3204C10.0831 32.6143 9.03429 33.6631 7.74039 33.6631H2.27407C1.84279 33.6631 1.49316 33.3135 1.49316 32.8822V29.7586C1.49316 29.3273 1.84279 28.9777 2.27407 28.9777H7.74039C9.03421 28.9777 10.0831 30.0265 10.0831 31.3204Z" fill="#DD6400"/>
<path d="M9.94922 32.1013C9.62755 33.0111 8.76029 33.6631 7.74039 33.6631H2.27407C1.84279 33.6631 1.49316 33.3134 1.49316 32.8822V32.1013H9.94922Z" fill="#A62C18"/>
<path d="M26.4821 25.8541H32.7293C33.1606 25.8541 33.5102 26.2038 33.5102 26.635V28.9777C33.5102 29.409 33.1606 29.7586 32.7293 29.7586H26.4821C26.0508 29.7586 25.7012 29.409 25.7012 28.9777V26.635C25.7012 26.2038 26.0508 25.8541 26.4821 25.8541Z" fill="#FEF184"/>
<path d="M7.73598 28.4321H2.27509C1.52085 28.4321 0.907227 29.0457 0.907227 29.8001V32.9373C0.907227 33.6916 1.52085 34.3053 2.27524 34.3053H7.73605C9.35306 34.3053 10.6686 32.9898 10.6686 31.3728V31.3647C10.6685 29.7476 9.35299 28.4321 7.73598 28.4321ZM9.49709 31.3727C9.49709 32.3439 8.70706 33.1339 7.73591 33.1339H2.27509C2.16664 33.1339 2.07847 33.0457 2.07847 32.9373V29.8C2.07847 29.6916 2.16664 29.6034 2.27509 29.6034H7.73591C8.70706 29.6034 9.49709 30.3934 9.49709 31.3646V31.3727ZM32.7275 30.387C33.4817 30.387 34.0955 29.7734 34.0955 29.019V26.6654C34.0955 25.9111 33.4819 25.2974 32.7275 25.2974H26.483C25.7288 25.2974 25.115 25.911 25.115 26.6654V29.019C25.115 29.7733 25.7286 30.387 26.483 30.387H32.7275ZM26.2865 29.0192V26.6655C26.2865 26.5571 26.3746 26.4689 26.4831 26.4689H32.7276C32.836 26.4689 32.9242 26.5571 32.9242 26.6655V29.0192C32.9242 29.1276 32.836 29.2158 32.7276 29.2158H26.4831C26.3746 29.2157 26.2865 29.1276 26.2865 29.0192ZM37.9999 15.696V30.585C37.9999 32.6364 36.3359 34.3052 34.2907 34.3052H11.6446C11.3211 34.3052 11.059 34.0431 11.059 33.7196C11.059 33.396 11.3211 33.1339 11.6446 33.1339H34.2907C35.6901 33.1339 36.8286 31.9904 36.8286 30.5851V15.696C36.8286 14.2905 35.6901 13.1472 34.2907 13.1472H15.7156H15.7156C15.7155 13.1472 15.7155 13.1472 15.7155 13.1472H9.704H9.70392H6.1783C4.77885 13.1472 3.64035 14.2906 3.64035 15.696V26.9932C3.64035 27.3167 3.37824 27.5789 3.05469 27.5789C2.73114 27.5789 2.46903 27.3167 2.46903 26.9932V15.696C2.46903 14.1472 3.4175 12.8165 4.76262 12.2574L15.6242 1.35786C16.0299 0.950785 16.5694 0.726562 17.1434 0.726562C17.7174 0.726562 18.2569 0.950785 18.6625 1.35786L21.4273 4.13235C21.6557 4.3615 21.655 4.73229 21.4259 4.96057C21.1966 5.18899 20.8258 5.18827 20.5977 4.95912L17.8329 2.18462C17.6486 1.99981 17.4038 1.89788 17.1434 1.89788C16.883 1.89788 16.6381 1.99981 16.4539 2.18462L6.69688 11.9759H9.46072L16.1765 5.23666C16.4345 4.97766 16.7779 4.83487 17.1433 4.8348C17.5088 4.8348 17.8522 4.97745 18.1105 5.23666L19.1403 6.27011C19.3687 6.49926 19.368 6.87004 19.1389 7.09832C18.9096 7.32667 18.5389 7.32602 18.3107 7.09687L17.2808 6.06342C17.2311 6.01358 17.1735 6.00619 17.1435 6.00619C17.1135 6.00619 17.0559 6.01365 17.0063 6.06335L11.1144 11.9759H15.4725L24.2141 3.20359C24.6198 2.79651 25.1593 2.57229 25.7333 2.57229C26.3073 2.57229 26.8468 2.79651 27.2525 3.20359L34.1991 10.1747C34.4274 10.4038 34.4268 10.7746 34.1976 11.0029C33.9684 11.2313 33.5975 11.2305 33.3694 11.0015L26.4228 4.03035C26.2386 3.84554 25.9937 3.74361 25.7333 3.74361C25.4729 3.74361 25.228 3.84554 25.0438 4.03035L17.1259 11.9759H19.8898L24.7662 7.08238C25.0243 6.82339 25.3677 6.68059 25.7331 6.68052C26.0986 6.68052 26.442 6.82317 26.7003 7.08238L29.9208 10.3142C30.1491 10.5434 30.1485 10.9142 29.9192 11.1424C29.69 11.3707 29.3192 11.3701 29.091 11.141L25.8706 7.90915C25.8209 7.8593 25.7632 7.85191 25.7332 7.85191C25.7032 7.85191 25.6456 7.85938 25.596 7.90907L21.5433 11.9759H34.2907C36.3359 11.9759 37.9999 13.6448 37.9999 15.696Z" fill="#231F20"/>
</svg>
