<svg width="20" height="20" viewBox="0 0 33 30" fill="none" xmlns="http://www.w3.org/2000/svg">
<path d="M20.125 2.11108H12.875C7.74848 2.11108 5.18521 2.11108 3.59261 3.72897C2 5.34686 2 7.95081 2 13.1587V16.8412C2 22.0491 2 24.6531 3.59261 26.271C5.18521 27.8889 7.74848 27.8889 12.875 27.8889H20.125C25.2515 27.8889 27.8148 27.8889 29.4074 26.271C31 24.6531 31 22.0491 31 16.8412V13.1587C31 7.95081 31 5.34686 29.4074 3.72897C27.8148 2.11108 25.2515 2.11108 20.125 2.11108Z" stroke="#6A6A6A" stroke-width="2.5"/>
<path d="M8.44434 8.55542H13.2777" stroke="#6A6A6A" stroke-width="2.5" stroke-linecap="round"/>
<path d="M21.3333 19.4443V16.9999C21.3333 16.0571 21.3333 15.5857 21.6262 15.2928C21.9191 14.9999 22.3905 14.9999 23.3333 14.9999H29C29.9428 14.9999 30.4142 14.9999 30.7071 15.2928C31 15.5857 31 16.0571 31 16.9999V19.4443C31 20.3871 31 20.8585 30.7071 21.1514C30.4142 21.4443 29.9428 21.4443 29 21.4443H23.3333C22.3905 21.4443 21.9191 21.4443 21.6262 21.1514C21.3333 20.8585 21.3333 20.3871 21.3333 19.4443Z" stroke="#6A6A6A" stroke-width="2.5"/>
</svg>
