<svg width="48" height="48" viewBox="0 0 48 48" fill="none" xmlns="http://www.w3.org/2000/svg">
<g clip-path="url(#clip0_44_3285)">
<path d="M28.2728 42.2566C38.3556 39.8967 44.6163 29.8099 42.2564 19.727C39.8965 9.64417 29.8097 3.38348 19.7268 5.74338C9.64398 8.10328 3.38329 18.1901 5.74319 28.273C8.10309 38.3558 18.1899 44.6165 28.2728 42.2566Z" fill="#FDD402"/>
<path d="M39.75 24.09C39.75 24.285 39.75 24.495 39.735 24.69C39.6051 28.3465 38.1926 31.8405 35.745 34.56C35.4235 34.9418 35.0778 35.3025 34.71 35.64C31.9889 38.1683 28.4603 39.651 24.75 39.825C24.495 39.84 24.255 39.84 24 39.84C23.745 39.84 23.505 39.84 23.25 39.825C19.5951 39.6519 16.1151 38.2089 13.41 35.745H13.395C13.0263 35.4089 12.6758 35.0534 12.345 34.68C9.84578 31.9377 8.40009 28.3979 8.265 24.69C8.25 24.495 8.25 24.285 8.25 24.09C8.25 23.79 8.265 23.49 8.265 23.19C8.48677 19.5352 9.96528 16.0695 12.45 13.38C12.7914 13.0161 13.1519 12.6706 13.53 12.345C16.2138 9.93525 19.6472 8.52586 23.25 8.35503C23.505 8.34003 23.745 8.34003 24 8.34003C24.255 8.34003 24.495 8.34003 24.75 8.35503C28.4049 8.52822 31.8849 9.97114 34.59 12.435C34.9635 12.771 35.319 13.1265 35.655 13.5C38.0812 16.1696 39.521 19.589 39.735 23.19V23.28C39.75 23.55 39.75 23.82 39.75 24.09Z" fill="white"/>
<path d="M14.895 35.745C14.5263 35.4089 14.1758 35.0534 13.845 34.68C11.3458 31.9377 9.90009 28.3979 9.765 24.69C9.75 24.495 9.75 24.285 9.75 24.09C9.75 23.79 9.765 23.49 9.765 23.19C9.98677 19.5352 11.4653 16.0695 13.95 13.38C14.2914 13.0161 14.6519 12.6706 15.03 12.345C17.7138 9.93525 21.1472 8.52586 24.75 8.35503C24.495 8.34003 24.255 8.34003 24 8.34003C23.745 8.34003 23.505 8.34003 23.25 8.35503C19.6472 8.52586 16.2138 9.93525 13.53 12.345C13.1519 12.6706 12.7914 13.0161 12.45 13.38C9.96528 16.0695 8.48677 19.5352 8.265 23.19C8.265 23.49 8.25 23.79 8.25 24.09C8.25 24.285 8.25 24.495 8.265 24.69C8.40009 28.3979 9.84578 31.9377 12.345 34.68C12.6758 35.0534 13.0263 35.4089 13.395 35.745H13.41C16.1151 38.2089 19.5951 39.6519 23.25 39.825C23.505 39.84 23.745 39.84 24 39.84C24.255 39.84 24.495 39.84 24.75 39.825C21.0951 39.6519 17.6151 38.2089 14.91 35.745H14.895Z" fill="#E0E0E2"/>
<path d="M24.75 6.85503V11.25C24.75 11.4489 24.671 11.6397 24.5303 11.7804C24.3897 11.921 24.1989 12 24 12C23.8011 12 23.6103 11.921 23.4697 11.7804C23.329 11.6397 23.25 11.4489 23.25 11.25V6.85503C23.505 6.84003 23.745 6.84003 24 6.84003C24.255 6.84003 24.495 6.84003 24.75 6.85503ZM24.75 36.75V41.325C24.495 41.34 24.255 41.34 24 41.34C23.745 41.34 23.505 41.34 23.25 41.325V36.75C23.25 36.5511 23.329 36.3603 23.4697 36.2197C23.6103 36.079 23.8011 36 24 36C24.1989 36 24.3897 36.079 24.5303 36.2197C24.671 36.3603 24.75 36.5511 24.75 36.75ZM41.235 24.69H36.69C36.4913 24.6895 36.3008 24.6103 36.1603 24.4697C36.0198 24.3292 35.9406 24.1388 35.94 23.94C35.939 23.8413 35.9578 23.7433 35.9951 23.6519C36.0324 23.5604 36.0877 23.4774 36.1575 23.4075C36.2273 23.3377 36.3104 23.2825 36.4018 23.2451C36.4933 23.2078 36.5912 23.1891 36.69 23.19H41.235V24.69ZM11.94 23.94C11.9369 24.138 11.8568 24.3269 11.7169 24.4669C11.5769 24.6069 11.3879 24.6869 11.19 24.69H6.765C6.75 24.495 6.75 24.285 6.75 24.09C6.75 23.79 6.765 23.49 6.765 23.19H11.19C11.3887 23.1906 11.5791 23.2698 11.7197 23.4104C11.8602 23.5509 11.9394 23.7413 11.94 23.94ZM37.155 12L33.6 15.54C33.5323 15.6111 33.4508 15.6677 33.3606 15.7064C33.2703 15.7451 33.1732 15.7651 33.075 15.7651C32.9768 15.7651 32.8796 15.7451 32.7894 15.7064C32.6992 15.6677 32.6177 15.6111 32.55 15.54C32.4788 15.4708 32.4222 15.388 32.3836 15.2966C32.3449 15.2051 32.325 15.1068 32.325 15.0075C32.325 14.9082 32.3449 14.8099 32.3836 14.7185C32.4222 14.627 32.4788 14.5442 32.55 14.475L36.09 10.935C36.4635 11.271 36.819 11.6265 37.155 12ZM15.57 33.57L11.91 37.245H11.895C11.5263 36.9089 11.1758 36.5534 10.845 36.18L14.52 32.505C14.6604 32.368 14.8488 32.2913 15.045 32.2913C15.2412 32.2913 15.4296 32.368 15.57 32.505C15.6412 32.5742 15.6978 32.657 15.7365 32.7485C15.7751 32.8399 15.795 32.9382 15.795 33.0375C15.795 33.1368 15.7751 33.2351 15.7365 33.3266C15.6978 33.418 15.6412 33.5008 15.57 33.57ZM37.245 36.06C36.9235 36.4418 36.5777 36.8025 36.21 37.14L32.55 33.48C32.4788 33.4108 32.4222 33.328 32.3836 33.2366C32.3449 33.1451 32.325 33.0468 32.325 32.9475C32.325 32.8482 32.3449 32.75 32.3836 32.6585C32.4222 32.567 32.4788 32.4842 32.55 32.415C32.6904 32.278 32.8788 32.2013 33.075 32.2013C33.2712 32.2013 33.4596 32.278 33.6 32.415L37.245 36.06ZM15.57 15.45C15.4285 15.5848 15.2405 15.66 15.045 15.66C14.8495 15.66 14.6615 15.5848 14.52 15.45L10.95 11.88C11.2914 11.5161 11.6519 11.1706 12.03 10.845L15.57 14.385C15.6412 14.4542 15.6978 14.537 15.7364 14.6285C15.7751 14.7199 15.795 14.8182 15.795 14.9175C15.795 15.0168 15.7751 15.1151 15.7364 15.2066C15.6978 15.298 15.6412 15.3808 15.57 15.45ZM24.0081 22.3938C23.8096 22.3939 23.6193 22.3153 23.4787 22.1753C23.3382 22.0352 23.2588 21.8452 23.2581 21.6468L23.2412 17.1278C23.2408 17.0293 23.2598 16.9317 23.2971 16.8405C23.3345 16.7494 23.3894 16.6665 23.4588 16.5966C23.5281 16.5266 23.6106 16.4711 23.7014 16.433C23.7923 16.395 23.8897 16.3752 23.9882 16.3748H23.9904C24.1889 16.3746 24.3794 16.4531 24.5201 16.5931C24.6609 16.7332 24.7403 16.9233 24.7411 17.1218L24.758 21.6408C24.7584 21.7393 24.7394 21.8369 24.702 21.9281C24.6647 22.0192 24.6098 22.1021 24.5404 22.172C24.4711 22.242 24.3886 22.2975 24.2978 22.3356C24.2069 22.3736 24.1095 22.3934 24.011 22.3938H24.0081ZM29.3115 28.3755C29.1488 28.3753 28.9905 28.3224 28.8603 28.2246L24.4819 24.9163C24.4028 24.8571 24.3362 24.7829 24.2859 24.698C24.2355 24.613 24.2025 24.5189 24.1886 24.4211C24.1748 24.3233 24.1804 24.2238 24.2051 24.1281C24.2298 24.0325 24.2732 23.9427 24.3327 23.8639C24.3922 23.7851 24.4667 23.7188 24.5519 23.6689C24.6371 23.619 24.7313 23.5863 24.8292 23.5729C24.927 23.5595 25.0266 23.5655 25.1221 23.5907C25.2176 23.6159 25.3072 23.6596 25.3857 23.7195L29.7641 27.0264C29.8898 27.1211 29.9825 27.253 30.029 27.4033C30.0756 27.5536 30.0738 27.7148 30.0237 27.864C29.9736 28.0132 29.8779 28.1428 29.7501 28.2346C29.6223 28.3264 29.4689 28.3757 29.3115 28.3755Z" fill="#3C3B41"/>
<path d="M24 26.25C25.2426 26.25 26.25 25.2426 26.25 24C26.25 22.7574 25.2426 21.75 24 21.75C22.7574 21.75 21.75 22.7574 21.75 24C21.75 25.2426 22.7574 26.25 24 26.25Z" fill="#FDD402"/>
<path d="M24 48C23.8011 48 23.6103 47.921 23.4697 47.7803C23.329 47.6397 23.25 47.4489 23.25 47.25C23.25 47.0511 23.329 46.8603 23.4697 46.7197C23.6103 46.579 23.8011 46.5 24 46.5C29.9674 46.5 35.6903 44.1295 39.9099 39.9099C44.1295 35.6903 46.5 29.9674 46.5 24C46.5 18.0326 44.1295 12.3097 39.9099 8.0901C35.6903 3.87053 29.9674 1.5 24 1.5C23.8011 1.5 23.6103 1.42098 23.4697 1.28033C23.329 1.13968 23.25 0.948912 23.25 0.75C23.25 0.551088 23.329 0.360322 23.4697 0.21967C23.6103 0.0790176 23.8011 0 24 0C30.3652 0 36.4697 2.52856 40.9706 7.02944C45.4714 11.5303 48 17.6348 48 24C48 30.3652 45.4714 36.4697 40.9706 40.9706C36.4697 45.4714 30.3652 48 24 48ZM19.4817 47.5605C19.4315 47.5607 19.3814 47.5558 19.3323 47.5458L18.9551 47.4682C18.7606 47.4261 18.5907 47.3085 18.4829 47.1412C18.3751 46.9739 18.3381 46.7706 18.3801 46.5761C18.425 46.3833 18.5431 46.2155 18.7094 46.1081C18.8757 46.0007 19.0773 45.9621 19.2715 46.0004L19.6296 46.0751C19.8119 46.1119 19.9741 46.2151 20.0846 46.3647C20.195 46.5143 20.246 46.6997 20.2276 46.8847C20.2092 47.0698 20.1226 47.2414 19.9848 47.3663C19.847 47.4911 19.6677 47.5604 19.4817 47.5605ZM16.2268 46.6684C16.1402 46.6681 16.0543 46.6532 15.9727 46.6245L15.6101 46.4911C15.518 46.4565 15.4335 46.4041 15.3617 46.3368C15.2898 46.2696 15.2318 46.1888 15.1912 46.0992C15.1505 46.0096 15.1279 45.9128 15.1246 45.8144C15.1213 45.716 15.1375 45.618 15.1721 45.5258C15.2067 45.4337 15.2592 45.3493 15.3264 45.2774C15.3937 45.2055 15.4744 45.1476 15.5641 45.1069C15.6537 45.0662 15.7505 45.0436 15.8489 45.0403C15.9472 45.0371 16.0453 45.0532 16.1374 45.0878L16.4809 45.2123C16.6471 45.2722 16.7867 45.3887 16.8754 45.5414C16.9641 45.6941 16.996 45.8732 16.9657 46.0471C16.9353 46.2211 16.8446 46.3787 16.7094 46.4924C16.5743 46.606 16.4034 46.6684 16.2268 46.6684ZM13.1374 45.3135C13.0152 45.3138 12.8949 45.2836 12.7873 45.2256L12.5076 45.0747C12.3291 44.9793 12.1948 44.8181 12.1331 44.6253C12.0714 44.4325 12.0873 44.2233 12.1772 44.042C12.2203 43.9554 12.2802 43.8782 12.3536 43.8152C12.427 43.7521 12.5122 43.7044 12.6044 43.6749C12.6965 43.6454 12.7936 43.6347 12.89 43.6434C12.9863 43.6521 13.0799 43.68 13.1653 43.7256L13.489 43.9014C13.6371 43.9796 13.7547 44.1053 13.8231 44.2582C13.8914 44.4111 13.9066 44.5825 13.8661 44.7451C13.8256 44.9076 13.7319 45.0519 13.5998 45.155C13.4677 45.258 13.3049 45.3138 13.1374 45.3135ZM10.2788 43.522C10.1211 43.5217 9.96736 43.472 9.8393 43.3799L9.52143 43.1426C9.3637 43.0212 9.26065 42.8421 9.23496 42.6447C9.20927 42.4473 9.26304 42.2478 9.38445 42.0901C9.50585 41.9323 9.68495 41.8293 9.88233 41.8036C10.0797 41.7779 10.2792 41.8317 10.437 41.9531L10.7197 42.164C10.8479 42.2572 10.9434 42.3885 10.9924 42.5393C11.0414 42.69 11.0415 42.8524 10.9925 43.0032C10.9436 43.1539 10.8481 43.2853 10.7199 43.3785C10.5917 43.4717 10.4373 43.5219 10.2788 43.522ZM7.70946 41.3379C7.51266 41.3381 7.32371 41.2607 7.18358 41.1226L6.91185 40.853C6.84241 40.7831 6.78742 40.7002 6.75002 40.609C6.71262 40.5178 6.69355 40.4202 6.69389 40.3216C6.69424 40.2231 6.71399 40.1255 6.75202 40.0346C6.79005 39.9437 6.84562 39.8612 6.91554 39.7917C6.98547 39.7223 7.0684 39.6673 7.15958 39.6299C7.25076 39.5925 7.34841 39.5734 7.44696 39.5738C7.54552 39.5741 7.64303 39.5938 7.73395 39.6319C7.82487 39.6699 7.90741 39.7255 7.97685 39.7954L8.23539 40.0532C8.34151 40.1576 8.41417 40.2912 8.44411 40.437C8.47406 40.5828 8.45993 40.7343 8.40354 40.872C8.34715 41.0098 8.25104 41.1277 8.12744 41.2106C8.00385 41.2936 7.85832 41.3379 7.70946 41.3379ZM5.48217 38.8095C5.36621 38.8097 5.25178 38.783 5.14792 38.7314C5.04407 38.6798 4.95364 38.6047 4.88378 38.5121L4.65527 38.2075C4.59631 38.1284 4.55352 38.0385 4.52935 37.9429C4.50518 37.8473 4.50012 37.7479 4.51444 37.6503C4.52876 37.5527 4.56218 37.459 4.6128 37.3743C4.66342 37.2897 4.73024 37.2159 4.80943 37.1571C4.88862 37.0984 4.97862 37.0558 5.07428 37.0319C5.16995 37.0079 5.26939 37.0031 5.36692 37.0177C5.46445 37.0323 5.55815 37.0659 5.64265 37.1167C5.72715 37.1676 5.8008 37.2346 5.85936 37.3139L6.07908 37.6069C6.16326 37.7181 6.21476 37.8506 6.22779 37.9894C6.24083 38.1283 6.21488 38.268 6.15287 38.393C6.09087 38.5179 5.99525 38.6231 5.87677 38.6966C5.75829 38.7702 5.62165 38.8093 5.48217 38.8095ZM3.64158 35.9853C3.5075 35.9855 3.37582 35.9497 3.26026 35.8817C3.14471 35.8137 3.04951 35.716 2.98458 35.5986L2.80221 35.2632C2.70781 35.0882 2.6868 34.8828 2.7438 34.6923C2.8008 34.5018 2.93115 34.3417 3.10617 34.2473C3.28119 34.1529 3.48654 34.1319 3.67705 34.1889C3.86756 34.2459 4.02763 34.3763 4.12203 34.5513L4.29708 34.8721C4.36027 34.9862 4.3926 35.1148 4.39088 35.2453C4.38915 35.3757 4.35342 35.5035 4.28723 35.6159C4.22104 35.7283 4.12667 35.8215 4.01344 35.8863C3.90021 35.9511 3.77204 35.9852 3.64158 35.9853ZM2.22947 32.9282C2.07741 32.9282 1.92895 32.8819 1.80378 32.7956C1.6786 32.7093 1.58261 32.5869 1.52853 32.4448L1.39304 32.0757C1.32738 31.8878 1.33903 31.6816 1.42543 31.5023C1.51183 31.3231 1.66589 31.1855 1.85373 31.1199C2.04158 31.0542 2.2478 31.0658 2.42705 31.1522C2.60631 31.2386 2.74389 31.3927 2.80955 31.5805L2.9304 31.9116C3.00106 32.0976 2.99501 32.3041 2.91357 32.4856C2.83214 32.6671 2.68198 32.8089 2.49608 32.8799C2.41075 32.9115 2.32049 32.9279 2.22947 32.9282ZM1.27659 29.6968C1.10551 29.6966 0.939633 29.6379 0.806432 29.5306C0.673231 29.4232 0.580702 29.2736 0.544174 29.1064L0.465079 28.7241C0.427236 28.5291 0.468248 28.3271 0.579123 28.1623C0.689999 27.9976 0.861689 27.8835 1.05655 27.8451C1.25142 27.8067 1.45356 27.8471 1.61865 27.9575C1.78374 28.0679 1.89832 28.2393 1.93725 28.4341L2.0105 28.7871C2.03389 28.8966 2.03254 29.01 2.00654 29.1189C1.98055 29.2278 1.93057 29.3296 1.86026 29.4168C1.78994 29.5039 1.70105 29.5743 1.60008 29.6227C1.49911 29.6712 1.38858 29.6965 1.27659 29.6968ZM0.804184 26.3584C0.614558 26.3583 0.432038 26.2862 0.293416 26.1568C0.154793 26.0274 0.0703777 25.8503 0.0571844 25.6611L0.0329894 25.2737C0.0240678 25.0759 0.0936923 24.8826 0.226688 24.7359C0.359684 24.5892 0.545269 24.501 0.742994 24.4906C0.940719 24.4802 1.13455 24.5483 1.28225 24.6802C1.42995 24.812 1.51954 24.9969 1.53149 25.1946L1.55273 25.5557C1.56677 25.7541 1.50144 25.95 1.3711 26.1002C1.24075 26.2505 1.05607 26.3428 0.857659 26.3569C0.840079 26.3584 0.821764 26.3584 0.804184 26.3584ZM0.816634 22.9864L0.758779 22.9842C0.660572 22.9767 0.564802 22.95 0.476939 22.9055C0.389076 22.8609 0.310841 22.7996 0.246704 22.7248C0.182566 22.6501 0.133782 22.5634 0.103137 22.4698C0.0724931 22.3762 0.0605887 22.2775 0.0681044 22.1793L0.0996044 21.797C0.107428 21.6982 0.134734 21.602 0.179948 21.5139C0.225162 21.4257 0.287386 21.3474 0.36303 21.2835C0.438673 21.2195 0.526236 21.1712 0.620662 21.1412C0.715089 21.1113 0.814509 21.1004 0.913182 21.1091C1.01185 21.1178 1.10783 21.146 1.19555 21.192C1.28328 21.238 1.36103 21.3009 1.4243 21.3771C1.48758 21.4533 1.53513 21.5413 1.56421 21.636C1.59329 21.7307 1.60333 21.8302 1.59374 21.9288L1.56374 22.2935C1.54926 22.4818 1.4643 22.6578 1.32581 22.7862C1.18732 22.9146 1.0055 22.9862 0.816634 22.9864ZM1.31099 19.6516C1.25632 19.6515 1.20181 19.6456 1.14839 19.634C0.954149 19.5911 0.784921 19.4727 0.677925 19.305C0.570928 19.1373 0.534925 18.934 0.577834 18.7397L0.665719 18.3603C0.688804 18.2645 0.730531 18.1742 0.788519 18.0946C0.846507 18.0149 0.919619 17.9474 1.00368 17.896C1.08775 17.8446 1.18111 17.8102 1.27845 17.7949C1.37579 17.7796 1.4752 17.7836 1.571 17.8066C1.6668 17.8297 1.75711 17.8714 1.83678 17.9294C1.91646 17.9874 1.98393 18.0605 2.03534 18.1446C2.08676 18.2287 2.12112 18.322 2.13645 18.4194C2.15178 18.5167 2.14779 18.6161 2.12471 18.7119L2.04267 19.0642C2.00564 19.2307 1.91298 19.3796 1.77997 19.4864C1.64697 19.5932 1.48155 19.6514 1.31099 19.6516ZM2.28584 16.4224C2.16426 16.4224 2.04448 16.393 1.93683 16.3364C1.82918 16.2799 1.73688 16.1981 1.66791 16.098C1.59893 15.9978 1.55534 15.8824 1.54088 15.7617C1.52643 15.641 1.54155 15.5186 1.58495 15.405L1.72776 15.0424C1.8038 14.8606 1.94839 14.7159 2.13024 14.6399C2.3121 14.5638 2.5166 14.5623 2.6995 14.6359C2.8824 14.7094 3.029 14.852 3.10757 15.0328C3.18615 15.2136 3.19038 15.4181 3.11936 15.602L2.98679 15.9396C2.93252 16.0815 2.83647 16.2037 2.71133 16.2899C2.58619 16.3761 2.43779 16.4223 2.28584 16.4224ZM3.71999 13.3696C3.58904 13.3695 3.4604 13.3351 3.34687 13.2698C3.23334 13.2046 3.13888 13.1107 3.07289 12.9976C3.00689 12.8845 2.97166 12.7561 2.9707 12.6251C2.96973 12.4942 3.00307 12.3653 3.0674 12.2512L3.25929 11.9172C3.30874 11.8321 3.37446 11.7576 3.45272 11.6978C3.53097 11.6381 3.62022 11.5944 3.71537 11.5692C3.81052 11.5439 3.90971 11.5377 4.00728 11.5508C4.10484 11.5639 4.19887 11.5961 4.28399 11.6455C4.36911 11.695 4.44366 11.7607 4.50338 11.839C4.56311 11.9172 4.60683 12.0065 4.63206 12.1016C4.65729 12.1968 4.66353 12.296 4.65042 12.3935C4.63732 12.4911 4.60513 12.5851 4.55568 12.6702L4.37399 12.988C4.30873 13.104 4.21374 13.2005 4.09879 13.2676C3.98383 13.3347 3.85308 13.3699 3.71999 13.3696ZM5.58254 10.5579C5.4425 10.5577 5.30529 10.5184 5.18647 10.4442C5.06764 10.3701 4.97194 10.2642 4.9102 10.1385C4.84845 10.0128 4.82314 9.87237 4.83711 9.73302C4.85109 9.59368 4.9038 9.46103 4.98927 9.3501L5.22878 9.04469C5.35332 8.89057 5.5338 8.792 5.73078 8.77053C5.92776 8.74906 6.12523 8.80642 6.28006 8.93008C6.43488 9.05374 6.53447 9.23365 6.55707 9.4305C6.57966 9.62736 6.52343 9.82516 6.40065 9.98069L6.17726 10.2656C6.10721 10.3567 6.01713 10.4304 5.91399 10.4811C5.81085 10.5318 5.69746 10.5581 5.58254 10.5579ZM7.8303 8.04345C7.68091 8.04346 7.53491 7.99884 7.41103 7.91533C7.28715 7.83182 7.19104 7.71321 7.13501 7.57472C7.07898 7.43622 7.0656 7.28415 7.09656 7.138C7.12753 6.99184 7.20144 6.85827 7.30881 6.7544L7.58931 6.48706C7.73461 6.35109 7.92798 6.2784 8.12687 6.285C8.32576 6.29159 8.51388 6.37692 8.64986 6.52222C8.78583 6.66752 8.85852 6.86089 8.85193 7.05978C8.84533 7.25867 8.76 7.4468 8.6147 7.58277L8.35176 7.83252C8.21192 7.96786 8.02492 8.0435 7.8303 8.04345ZM10.4158 5.87988C10.2573 5.88002 10.1028 5.82994 9.97452 5.73683C9.84625 5.64372 9.75077 5.51237 9.7018 5.36162C9.65282 5.21087 9.65286 5.04848 9.70192 4.89776C9.75097 4.74704 9.84652 4.61574 9.97484 4.5227L10.2964 4.29491C10.3776 4.23912 10.4689 4.19987 10.5653 4.17939C10.6616 4.15892 10.7611 4.15762 10.8579 4.17558C10.9548 4.19353 11.0471 4.23039 11.1297 4.28404C11.2123 4.33769 11.2836 4.40708 11.3394 4.48826C11.3951 4.56944 11.4344 4.66081 11.4549 4.75716C11.4753 4.85351 11.4766 4.95295 11.4587 5.04979C11.4407 5.14664 11.4039 5.23901 11.3502 5.32161C11.2966 5.40422 11.2272 5.47545 11.146 5.53123L10.8552 5.73705C10.7276 5.83 10.5737 5.88001 10.4158 5.87988ZM13.284 4.11181C13.1162 4.11193 12.9533 4.05578 12.8212 3.95236C12.6891 3.84894 12.5954 3.70421 12.5553 3.54132C12.5151 3.37843 12.5308 3.20677 12.5997 3.0538C12.6686 2.90084 12.7868 2.77539 12.9354 2.69751L13.281 2.52099C13.3691 2.47666 13.4651 2.45015 13.5635 2.44298C13.6619 2.43581 13.7608 2.44813 13.8544 2.47921C13.948 2.5103 14.0346 2.55955 14.1092 2.62414C14.1837 2.68873 14.2448 2.7674 14.2889 2.85564C14.3331 2.94388 14.3593 3.03995 14.3663 3.13836C14.3732 3.23677 14.3607 3.33558 14.3294 3.42913C14.298 3.52269 14.2486 3.60914 14.1838 3.68356C14.1191 3.75797 14.0402 3.81888 13.9519 3.86279L13.6311 4.02612C13.5241 4.08255 13.4049 4.11197 13.284 4.11181ZM16.3763 2.77881C16.199 2.77876 16.0276 2.71596 15.8922 2.60152C15.7569 2.48709 15.6665 2.32843 15.637 2.15368C15.6075 1.97892 15.6409 1.79937 15.7311 1.64687C15.8214 1.49436 15.9628 1.37876 16.1302 1.32055L16.4986 1.19606C16.6876 1.13428 16.8934 1.15012 17.0707 1.24009C17.2481 1.33006 17.3824 1.48679 17.4442 1.67579C17.5059 1.8648 17.4901 2.0706 17.4001 2.24793C17.3102 2.42526 17.1534 2.55958 16.9644 2.62136L16.6224 2.73708C16.5433 2.76485 16.4601 2.77896 16.3763 2.77881ZM19.6326 1.90943C19.446 1.9093 19.2661 1.83961 19.1281 1.71397C18.9901 1.58832 18.9039 1.41575 18.8863 1.22995C18.8688 1.04415 18.9211 0.858477 19.0331 0.709189C19.1451 0.5599 19.3087 0.457721 19.492 0.42261L19.8735 0.35376C19.9707 0.336641 20.0703 0.338881 20.1667 0.360352C20.263 0.381822 20.3542 0.4221 20.4349 0.478876C20.5157 0.535652 20.5844 0.607809 20.6372 0.691209C20.69 0.774608 20.7258 0.86761 20.7426 0.96488C20.7593 1.06215 20.7568 1.16177 20.7349 1.25804C20.7131 1.3543 20.6725 1.44532 20.6155 1.52586C20.5584 1.6064 20.486 1.67488 20.4024 1.72738C20.3188 1.77988 20.2257 1.81536 20.1284 1.83178L19.7746 1.89628C19.7278 1.90498 19.6803 1.90938 19.6326 1.90943Z" fill="#37B678"/>
<path d="M42.2548 19.725C41.4093 16.1145 39.5121 12.8358 36.8032 10.3036C34.0943 7.7713 30.6953 6.09918 27.0361 5.49866C23.3769 4.89814 19.6218 5.39619 16.2456 6.92983C12.8694 8.46347 10.0239 10.9638 8.06875 14.1147C6.11361 17.2656 5.13672 20.9254 5.26162 24.6315C5.38651 28.3376 6.60758 31.9234 8.7704 34.9355C10.9332 37.9476 13.9407 40.2507 17.4124 41.5535C20.8842 42.8564 24.6643 43.1005 28.2748 42.255C33.1157 41.1202 37.3078 38.1093 39.9294 33.8844C42.551 29.6595 43.3874 24.5665 42.2548 19.725ZM39.7348 24.69C39.6049 28.3464 38.1924 31.8405 35.7448 34.56C35.4233 34.9418 35.0776 35.3025 34.7098 35.64C31.9888 38.1683 28.4601 39.651 24.7498 39.825C24.4948 39.84 24.2548 39.84 23.9998 39.84C23.7448 39.84 23.5048 39.84 23.2498 39.825C19.5949 39.6519 16.1149 38.2089 13.4098 35.745H13.3948C13.0262 35.4089 12.6757 35.0534 12.3448 34.68C9.84559 31.9377 8.3999 28.3979 8.26481 24.69C8.24981 24.495 8.24981 24.285 8.24981 24.09C8.24981 23.79 8.26481 23.49 8.26481 23.19C8.48659 19.5352 9.9651 16.0694 12.4498 13.38C12.7912 13.0161 13.1517 12.6706 13.5298 12.345C16.2136 9.93524 19.647 8.52585 23.2498 8.35501C23.5048 8.34001 23.7448 8.34001 23.9998 8.34001C24.2548 8.34001 24.4948 8.34001 24.7498 8.35501C28.4047 8.52821 31.8847 9.97112 34.5898 12.435C34.9633 12.771 35.3188 13.1265 35.6548 13.5C38.081 16.1696 39.5208 19.589 39.7348 23.19V23.28C39.7498 23.5501 39.7498 23.82 39.7498 24.09C39.7498 24.285 39.7498 24.495 39.7348 24.69Z" fill="#FDD402"/>
<path d="M7.2449 28.275C6.60776 25.5927 6.57193 22.8026 7.13999 20.1048C7.70805 17.407 8.86593 14.8683 10.5306 12.6706C12.1953 10.473 14.3256 8.67085 16.7687 7.3934C19.2119 6.11595 21.9074 5.39484 24.662 5.28175C22.1391 5.19058 19.6238 5.61027 17.2672 6.5156C14.9106 7.42093 12.7612 8.79324 10.9483 10.5501C9.13535 12.3069 7.69619 14.4121 6.71726 16.7391C5.73833 19.0661 5.23982 21.567 5.25167 24.0915C5.26353 26.616 5.7855 29.1121 6.78624 31.4298C7.78698 33.7475 9.24585 35.8391 11.0752 37.5788C12.9046 39.3186 15.0667 40.6706 17.4317 41.5538C19.7967 42.4369 22.3159 42.833 24.8378 42.7181C20.7266 42.5756 16.7765 41.0842 13.597 38.474C10.4175 35.8637 8.18534 32.2797 7.2449 28.275Z" fill="#FBBF13"/>
<path d="M35.745 34.56C35.4235 34.9418 35.0778 35.3025 34.71 35.64C31.9889 38.1683 28.4603 39.651 24.75 39.825C25.005 39.84 25.245 39.84 25.5 39.84C25.755 39.84 25.995 39.84 26.25 39.825C29.9603 39.651 33.4889 38.1683 36.21 35.64C36.5778 35.3025 36.9235 34.9418 37.245 34.56C39.6926 31.8405 41.1051 28.3465 41.235 24.69C41.25 24.495 41.25 24.285 41.25 24.09C41.25 23.82 41.25 23.55 41.235 23.28V23.19C41.021 19.589 39.5812 16.1696 37.155 13.5C36.819 13.1265 36.4635 12.771 36.09 12.435C33.3849 9.97114 29.9049 8.52822 26.25 8.35503C25.995 8.34003 25.755 8.34003 25.5 8.34003C25.245 8.34003 25.005 8.34003 24.75 8.35503C28.4049 8.52822 31.8849 9.97114 34.59 12.435C34.9635 12.771 35.319 13.1265 35.655 13.5C38.0812 16.1696 39.521 19.589 39.735 23.19V23.28C39.75 23.5501 39.75 23.82 39.75 24.09C39.75 24.285 39.75 24.495 39.735 24.69C39.6051 28.3465 38.1926 31.8405 35.745 34.56Z" fill="#FBBF13"/>
</g>
<defs>
<clipPath id="clip0_44_3285">
<rect width="48" height="48" fill="white"/>
</clipPath>
</defs>
</svg>
