<svg width="34" height="46" viewBox="0 0 34 46" fill="none" xmlns="http://www.w3.org/2000/svg">
<path d="M12.3671 10.0842L14.1338 8.04189L20.4938 0.706665H24.0272L14.8405 11.3067H11.3071L12.3671 10.0842Z" fill="#FFC400"/>
<path d="M7.77383 0.706665L14.1339 8.04189L12.3672 10.0842L4.24048 0.706665H7.77383Z" fill="#FFC400"/>
<path d="M12.3671 10.0842L11.3071 11.3067H9.89373L0.707031 0.706665H4.24038L12.3671 10.0842Z" fill="#774E9D"/>
<path d="M27.5604 0.706665L18.3737 11.3067H14.8403L24.027 0.706665H27.5604Z" fill="#9C59A9"/>
<path d="M16.9605 17.9706C20.2867 18.6941 23.2089 20.6655 25.1254 23.4788C27.0418 26.2921 27.8065 29.7332 27.2621 33.0934C26.7176 36.4536 24.9054 39.4772 22.1987 41.5414C19.492 43.6056 16.0968 44.5534 12.7123 44.1896C9.32772 43.8258 6.21153 42.178 4.00539 39.5856C1.79925 36.9933 0.671122 33.6536 0.853305 30.2545C1.03549 26.8553 2.51412 23.6554 4.98471 21.3137C7.4553 18.972 10.7298 17.6667 14.1338 17.6667C15.0841 17.6677 16.0316 17.7696 16.9605 17.9706ZM24.7338 31.0935C24.7338 28.997 24.1121 26.9476 22.9474 25.2044C21.7827 23.4612 20.1272 22.1026 18.1902 21.3003C16.2533 20.498 14.122 20.2881 12.0658 20.6971C10.0096 21.1061 8.12087 22.1157 6.63843 23.5981C5.15598 25.0805 4.14643 26.9693 3.73742 29.0255C3.32842 31.0817 3.53834 33.213 4.34063 35.1499C5.14292 37.0868 6.50155 38.7423 8.24472 39.9071C9.98789 41.0718 12.0373 41.6935 14.1338 41.6935C16.9448 41.6926 19.6404 40.5755 21.6281 38.5878C23.6158 36.6001 24.7329 33.9045 24.7338 31.0935Z" fill="#FFAB02"/>
<path d="M18.3738 11.3068V14.1334H16.9605H11.3071H9.8938V11.3068H11.3071H14.8405H18.3738Z" fill="#FF9102"/>
<path d="M16.9605 14.1334V17.9706C15.0978 17.5655 13.1698 17.5655 11.3071 17.9706V14.1334H16.9605Z" fill="#FE4F46"/>
<path d="M11.2992 36.1427L10.2046 36.7469L10.4435 35.2812C8.87744 33.5161 7.94902 31.2766 7.80687 28.9212L7.77366 28.8887L7.80475 28.8838C7.79274 28.6788 7.77366 28.4788 7.77366 28.2668C7.77352 25.6213 8.76754 23.0723 10.5586 21.1252C9.04301 21.6662 7.67056 22.5454 6.5455 23.696C5.42045 24.8467 4.57236 26.2385 4.06565 27.7659C3.55893 29.2934 3.4069 30.9162 3.62111 32.5111C3.83532 34.1061 4.41014 35.6312 5.30191 36.9708C6.19367 38.3104 7.37895 39.4292 8.76774 40.2422C10.1565 41.0552 11.7123 41.5411 13.317 41.663C14.9216 41.7849 16.5329 41.5395 18.0286 40.9456C19.5242 40.3516 20.8649 39.4247 21.9487 38.2351C20.1512 38.8882 18.2096 39.0384 16.333 38.6697C14.4564 38.301 12.716 37.4273 11.2992 36.1427Z" fill="#FFC400"/>
<path d="M14.1335 19.0801C11.7575 19.0801 9.43482 19.7847 7.45923 21.1047C5.48364 22.4247 3.94385 24.301 3.03459 26.4961C2.12532 28.6913 1.88742 31.1068 2.35096 33.4372C2.8145 35.7675 3.95866 37.9081 5.63876 39.5882C7.31886 41.2683 9.45944 42.4125 11.7898 42.876C14.1202 43.3395 16.5357 43.1016 18.7308 42.1924C20.926 41.2831 22.8022 39.7433 24.1223 37.7677C25.4423 35.7921 26.1469 33.4695 26.1469 31.0935C26.1469 27.9073 24.8812 24.8517 22.6282 22.5987C20.3753 20.3458 17.3196 19.0801 14.1335 19.0801ZM14.1335 41.6935C12.037 41.6935 9.9876 41.0718 8.24444 39.9071C6.50127 38.7423 5.14263 37.0868 4.34034 35.1499C3.53805 33.213 3.32813 31.0817 3.73714 29.0255C4.14614 26.9693 5.1557 25.0805 6.63814 23.5981C8.12058 22.1157 10.0093 21.1061 12.0655 20.6971C14.1217 20.2881 16.2531 20.498 18.19 21.3003C20.1269 22.1026 21.7824 23.4612 22.9471 25.2044C24.1119 26.9476 24.7335 28.997 24.7335 31.0935C24.7326 33.9045 23.6155 36.6001 21.6278 38.5878C19.6401 40.5755 16.9445 41.6926 14.1335 41.6935Z" fill="#FF9102"/>
<path d="M9.8938 11.3068V14.1334H18.3738V12.7201H13.4271C13.0523 12.7201 12.6928 12.5712 12.4278 12.3061C12.1627 12.0411 12.0138 11.6816 12.0138 11.3068H9.8938Z" fill="#FA7A31"/>
<path d="M12.3671 6.00671L10.9325 7.44125C10.7739 7.59784 10.58 7.71416 10.3672 7.78045L12.3671 10.0842L14.1337 8.04192L12.3671 6.00671Z" fill="#FFC400"/>
<path d="M8.89592 7.39882L2.71821 0.706665H0.707031L9.89373 11.3067H11.3071L12.3671 10.0842L10.3693 7.77901C10.1131 7.86357 9.83802 7.8727 9.57679 7.80529C9.31555 7.73788 9.07921 7.59679 8.89592 7.39882Z" fill="#593A75"/>
<path d="M11.3071 14.1334V17.9706C11.7739 17.8698 12.2457 17.7938 12.7205 17.7431V16.2534C12.7205 16.066 12.7949 15.8863 12.9274 15.7537C13.06 15.6212 13.2397 15.5468 13.4271 15.5468H16.9605V14.1334H11.3071Z" fill="#E84840"/>
<path d="M17.667 17.4251V14.8401H18.3737C18.5611 14.8401 18.7408 14.7656 18.8734 14.6331C19.0059 14.5006 19.0803 14.3208 19.0803 14.1334V11.5703L28.0946 1.16954C28.1834 1.06715 28.2408 0.941396 28.2601 0.807271C28.2794 0.673146 28.2597 0.536303 28.2034 0.413048C28.1471 0.289794 28.0566 0.185326 27.9425 0.112093C27.8285 0.0388595 27.6959 -5.02484e-05 27.5604 4.87011e-08H20.4937C20.3924 -3.75482e-05 20.2922 0.0217137 20.2 0.0637788C20.1079 0.105844 20.0258 0.167239 19.9594 0.243801L12.367 9.00438L5.78789 1.41334H7.45068L12.1394 6.82289L13.2072 5.89716L8.30787 0.243801C8.2415 0.167239 8.15945 0.105844 8.06727 0.0637788C7.97509 0.0217137 7.87495 -3.75482e-05 7.77363 4.87011e-08H0.706932C0.571427 -5.02484e-05 0.438765 0.0388595 0.324754 0.112093C0.210742 0.185326 0.12019 0.289794 0.0638878 0.413048C0.00758546 0.536303 -0.0120925 0.673146 0.00719794 0.807271C0.0264884 0.941396 0.0839343 1.06715 0.17269 1.16954L9.18696 11.5703V14.1334C9.18696 14.3208 9.26142 14.5006 9.39394 14.6331C9.52647 14.7656 9.70621 14.8401 9.89363 14.8401H10.6003V17.4251C7.26956 18.285 4.36681 20.3303 2.43615 23.1774C0.505481 26.0245 -0.320542 29.478 0.11291 32.8905C0.546361 36.3031 2.20953 39.4404 4.79066 41.7144C7.37179 43.9884 10.6937 45.243 14.1337 45.243C17.5736 45.243 20.8955 43.9884 23.4766 41.7144C26.0578 39.4404 27.7209 36.3031 28.1544 32.8905C28.5878 29.478 27.7618 26.0245 25.8312 23.1774C23.9005 20.3303 20.9977 18.285 17.667 17.4251ZM17.667 13.4267H10.6003V12.0134H17.667V13.4267ZM18.0507 10.6H16.3879L24.35 1.41334H26.0128L18.0507 10.6ZM20.8166 1.41334H22.4794L14.5174 10.6H12.8546L20.8166 1.41334ZM3.91733 1.41334L11.4321 10.0835L10.984 10.6H10.2166L2.25454 1.41334H3.91733ZM12.0136 14.8401H16.2537V17.1367C14.8501 16.9012 13.4172 16.9012 12.0136 17.1367V14.8401ZM14.1337 43.8135C11.6179 43.8135 9.15857 43.0675 7.06677 41.6698C4.97497 40.2721 3.34461 38.2855 2.38186 35.9612C1.41911 33.6369 1.16721 31.0793 1.65801 28.6119C2.14882 26.1444 3.36029 23.8779 5.13922 22.099C6.91815 20.3201 9.18464 19.1086 11.6521 18.6178C14.1195 18.127 16.6771 18.3789 19.0014 19.3417C21.3257 20.3044 23.3123 21.9348 24.71 24.0266C26.1077 26.1184 26.8537 28.5777 26.8537 31.0935C26.8498 34.4658 25.5084 37.6989 23.1237 40.0835C20.7391 42.4682 17.506 43.8096 14.1337 43.8135Z" fill="black"/>
<path d="M23.9402 29.7734L25.3408 29.5869C25.273 29.0776 25.1705 28.5735 25.0341 28.0781L23.6716 28.4555C23.7912 28.8881 23.8809 29.3285 23.9402 29.7734Z" fill="black"/>
<path d="M24.0269 31.0935C24.0245 33.5388 23.1156 35.8965 21.4759 37.7107C19.8362 39.5249 17.5822 40.6668 15.1495 40.9158C12.7168 41.1647 10.2783 40.503 8.30513 39.0584C6.33199 37.6139 4.96443 35.4892 4.46677 33.095C3.96912 30.7008 4.37672 28.2071 5.61078 26.0959C6.84484 23.9848 8.81773 22.4061 11.1481 21.665C13.4785 20.9239 16.0009 21.073 18.2277 22.0835C20.4545 23.0941 22.2276 24.8942 23.2043 27.1361L24.499 26.5708C23.3811 24.0047 21.3515 21.9441 18.8026 20.7876C16.2537 19.631 13.3665 19.4605 10.6992 20.3091C8.03194 21.1577 5.77398 22.965 4.3619 25.3818C2.94982 27.7985 2.4839 30.6529 3.05423 33.3932C3.62455 36.1336 5.19062 38.5651 7.44964 40.2178C9.70867 41.8704 12.5002 42.6269 15.2846 42.3408C18.069 42.0548 20.6484 40.7466 22.5242 38.6691C24.4 36.5916 25.439 33.8925 25.4402 31.0935H24.0269Z" fill="black"/>
<ellipse cx="14.5" cy="31" rx="9.5" ry="10" fill="#FFC400"/>
<path d="M12.144 28.112V26.528H15.192V35H13.416V28.112H12.144Z" fill="black"/>
</svg>
