<svg width="27" height="35" viewBox="0 0 27 35" fill="none" xmlns="http://www.w3.org/2000/svg">
<path d="M9.48697 7.73572L10.8422 6.16906L15.7211 0.542114H18.4315L11.3843 8.67354H8.67383L9.48697 7.73572Z" fill="#FFC400"/>
<path d="M5.96341 0.542114L10.8423 6.16906L9.48702 7.73572L3.25293 0.542114H5.96341Z" fill="#FFC400"/>
<path d="M9.48705 7.73572L8.67391 8.67354H7.58972L0.54248 0.542114H3.25296L9.48705 7.73572Z" fill="#774E9D"/>
<path d="M21.142 0.542114L14.0948 8.67354H11.3843L18.4315 0.542114H21.142Z" fill="#9C59A9"/>
<path d="M13.0105 13.7855C15.5622 14.3405 17.8038 15.8528 19.2739 18.0109C20.744 20.169 21.3307 22.8087 20.913 25.3864C20.4954 27.964 19.1052 30.2834 17.0289 31.8669C14.9525 33.4504 12.348 34.1775 9.75168 33.8984C7.15536 33.6193 4.76489 32.3553 3.07253 30.3666C1.38018 28.378 0.514771 25.8161 0.654526 23.2086C0.794281 20.601 1.92856 18.1464 3.82378 16.35C5.719 14.5536 8.23088 13.5524 10.8422 13.5524C11.5712 13.5531 12.298 13.6313 13.0105 13.7855ZM18.9736 23.8522C18.9736 22.2439 18.4967 20.6718 17.6032 19.3346C16.7097 17.9974 15.4397 16.9552 13.9539 16.3397C12.4681 15.7243 10.8331 15.5632 9.25579 15.877C7.67845 16.1907 6.22957 16.9652 5.09237 18.1024C3.95517 19.2396 3.18072 20.6885 2.86697 22.2658C2.55322 23.8432 2.71425 25.4781 3.3297 26.9639C3.94514 28.4498 4.98737 29.7197 6.32458 30.6132C7.66178 31.5067 9.23391 31.9836 10.8422 31.9836C12.9985 31.9829 15.0664 31.126 16.5911 29.6012C18.1159 28.0764 18.9729 26.0085 18.9736 23.8522Z" fill="#FFAB02"/>
<path d="M14.0947 8.67358V10.842H13.0106H8.67379H7.5896V8.67358H8.67379H11.3843H14.0947Z" fill="#FF9102"/>
<path d="M13.0106 10.8419V13.7855C11.5817 13.4747 10.1027 13.4747 8.67383 13.7855V10.8419H13.0106Z" fill="#FE4F46"/>
<path d="M8.66785 27.7255L7.82815 28.189L8.01138 27.0647C6.81007 25.7107 6.09787 23.9927 5.98882 22.1858L5.96334 22.1609L5.98719 22.1571C5.97798 21.9999 5.96334 21.8465 5.96334 21.6839C5.96323 19.6544 6.72577 17.699 8.09974 16.2054C6.93708 16.6204 5.88425 17.2948 5.02121 18.1775C4.15816 19.0602 3.50759 20.1279 3.11888 21.2996C2.73017 22.4713 2.61355 23.7162 2.77787 24.9397C2.9422 26.1632 3.38314 27.3332 4.06723 28.3608C4.75132 29.3884 5.66056 30.2466 6.72592 30.8703C7.79128 31.494 8.98474 31.8667 10.2157 31.9602C11.4466 32.0537 12.6827 31.8655 13.83 31.4099C14.9774 30.9542 16.0058 30.2432 16.8372 29.3307C15.4583 29.8316 13.9689 29.9469 12.5293 29.664C11.0898 29.3812 9.75469 28.7109 8.66785 27.7255Z" fill="#FFC400"/>
<path d="M10.8421 14.6366C9.01941 14.6366 7.23766 15.1771 5.72216 16.1897C4.20666 17.2023 3.02547 18.6416 2.32797 20.3255C1.63046 22.0095 1.44796 23.8624 1.80354 25.6501C2.15913 27.4377 3.03683 29.0798 4.32566 30.3686C5.61449 31.6575 7.25655 32.5352 9.04421 32.8908C10.8319 33.2463 12.6848 33.0638 14.3688 32.3663C16.0527 31.6688 17.492 30.4876 18.5046 28.9721C19.5172 27.4566 20.0577 25.6749 20.0577 23.8522C20.0577 21.4081 19.0868 19.0641 17.3585 17.3358C15.6302 15.6075 13.2862 14.6366 10.8421 14.6366ZM10.8421 31.9836C9.23384 31.9836 7.66171 31.5067 6.32451 30.6132C4.9873 29.7198 3.94508 28.4498 3.32963 26.964C2.71418 25.4782 2.55315 23.8432 2.8669 22.2659C3.18066 20.6885 3.9551 19.2396 5.0923 18.1024C6.2295 16.9652 7.67838 16.1908 9.25572 15.877C10.8331 15.5633 12.468 15.7243 13.9538 16.3398C15.4397 16.9552 16.7096 17.9974 17.6031 19.3346C18.4966 20.6718 18.9735 22.244 18.9735 23.8522C18.9728 26.0086 18.1159 28.0764 16.5911 29.6012C15.0663 31.126 12.9985 31.9829 10.8421 31.9836Z" fill="#FF9102"/>
<path d="M7.5896 8.67358V10.842H14.0947V9.75777H10.3001C10.0125 9.75777 9.73676 9.64355 9.53344 9.44022C9.33011 9.2369 9.21588 8.96113 9.21588 8.67358H7.5896Z" fill="#FA7A31"/>
<path d="M9.48701 4.60779L8.38656 5.70824C8.26485 5.82836 8.11615 5.91759 7.95288 5.96845L9.48701 7.73568L10.8422 6.16902L9.48701 4.60779Z" fill="#FFC400"/>
<path d="M6.82428 5.67576L2.08528 0.542114H0.54248L7.58972 8.67354H8.67391L9.48705 7.73572L7.95455 5.9674C7.75802 6.03227 7.54698 6.03927 7.34658 5.98756C7.14619 5.93585 6.96489 5.82762 6.82428 5.67576Z" fill="#593A75"/>
<path d="M8.67383 10.8419V13.7855C9.03188 13.7081 9.39378 13.6499 9.75802 13.6109V12.4682C9.75802 12.3244 9.81513 12.1865 9.91679 12.0849C10.0185 11.9832 10.1563 11.9261 10.3001 11.9261H13.0106V10.8419H8.67383Z" fill="#E84840"/>
<path d="M13.5526 13.367V11.384H14.0947C14.2384 11.384 14.3763 11.3269 14.478 11.2252C14.5797 11.1236 14.6368 10.9857 14.6368 10.8419V8.87572L21.5517 0.897168C21.6198 0.818622 21.6639 0.722157 21.6787 0.619268C21.6935 0.516379 21.6784 0.411405 21.6352 0.316855C21.592 0.222305 21.5225 0.142166 21.4351 0.0859876C21.3476 0.0298096 21.2459 -3.85462e-05 21.1419 3.73593e-08H15.721C15.6432 -2.88037e-05 15.5664 0.0166569 15.4957 0.0489256C15.425 0.0811942 15.362 0.128291 15.3111 0.187023L9.48687 6.90738L4.43996 1.08419H5.71551L9.31231 5.23393L10.1314 4.52378L6.37307 0.187023C6.32216 0.128291 6.25922 0.0811942 6.18851 0.0489256C6.1178 0.0166569 6.04097 -2.88037e-05 5.96325 3.73593e-08H0.542297C0.438349 -3.85462e-05 0.336582 0.0298096 0.249123 0.0859876C0.161663 0.142166 0.0921994 0.222305 0.0490091 0.316855C0.0058189 0.411405 -0.00927634 0.516379 0.00552163 0.619268C0.0203196 0.722157 0.0643871 0.818622 0.132473 0.897168L7.04744 8.87572V10.8419C7.04744 10.9857 7.10455 11.1236 7.20621 11.2252C7.30788 11.3269 7.44576 11.384 7.58953 11.384H8.13163V13.367C5.57658 14.0267 3.34984 15.5956 1.8688 17.7797C0.387761 19.9637 -0.245892 22.6129 0.0866144 25.2307C0.419121 27.8486 1.69496 30.2552 3.67498 31.9997C5.655 33.7441 8.20326 34.7065 10.8421 34.7065C13.481 34.7065 16.0292 33.7441 18.0092 31.9997C19.9893 30.2552 21.2651 27.8486 21.5976 25.2307C21.9301 22.6129 21.2964 19.9637 19.8154 17.7797C18.3344 15.5956 16.1076 14.0267 13.5526 13.367ZM13.5526 10.2998H8.13163V9.21562H13.5526V10.2998ZM13.8469 8.13143H12.5714L18.6792 1.08419H19.9547L13.8469 8.13143ZM15.9687 1.08419H17.2442L11.1365 8.13143H9.86091L15.9687 1.08419ZM3.00503 1.08419L8.76968 7.73516L8.42599 8.13143H7.83727L1.72948 1.08419H3.00503ZM9.21582 11.384H12.4684V13.1458C11.3917 12.9651 10.2925 12.9651 9.21582 13.1458V11.384ZM10.8421 33.6099C8.91221 33.6099 7.02566 33.0376 5.42101 31.9654C3.81636 30.8932 2.56569 29.3693 1.82715 27.5863C1.08862 25.8033 0.89538 23.8414 1.27188 21.9485C1.64839 20.0557 2.57772 18.3171 3.94236 16.9524C5.307 15.5878 7.04566 14.6585 8.93847 14.282C10.8313 13.9055 12.7932 14.0987 14.5762 14.8372C16.3592 15.5758 17.8832 16.8264 18.9553 18.4311C20.0275 20.0357 20.5998 21.9223 20.5998 23.8522C20.5968 26.4392 19.5678 28.9193 17.7385 30.7486C15.9092 32.5779 13.4291 33.6069 10.8421 33.6099Z" fill="black"/>
<path d="M18.3647 22.8395L19.4391 22.6964C19.3871 22.3057 19.3085 21.9191 19.2038 21.5391L18.1587 21.8285C18.2504 22.1604 18.3192 22.4982 18.3647 22.8395Z" fill="black"/>
<path d="M18.4314 23.8522C18.4295 25.7281 17.7323 27.5367 16.4745 28.9284C15.2166 30.3201 13.4875 31.1961 11.6214 31.3871C9.75527 31.578 7.8846 31.0704 6.37098 29.9623C4.85736 28.8542 3.80829 27.2243 3.42653 25.3876C3.04478 23.551 3.35745 21.6381 4.30411 20.0186C5.25078 18.3991 6.76421 17.188 8.55187 16.6195C10.3395 16.051 12.2745 16.1654 13.9827 16.9406C15.6909 17.7158 17.0511 19.0967 17.8004 20.8165L18.7935 20.3828C17.9359 18.4143 16.379 16.8337 14.4237 15.9464C12.4684 15.0592 10.2536 14.9285 8.20753 15.5794C6.16141 16.2304 4.42931 17.6168 3.34608 19.4707C2.26286 21.3246 1.90545 23.5143 2.34295 25.6164C2.78045 27.7185 3.9818 29.5838 5.71473 30.8516C7.44766 32.1194 9.58909 32.6997 11.725 32.4802C13.8609 32.2608 15.8397 31.2572 17.2786 29.6636C18.7176 28.0699 19.5146 25.9994 19.5155 23.8522H18.4314Z" fill="black"/>
<ellipse cx="11.123" cy="23.7805" rx="7.28757" ry="7.67113" fill="#FFC400"/>
<path d="M11.01 19.67C11.49 19.67 11.9 19.7533 12.24 19.92C12.5867 20.0867 12.8467 20.3167 13.02 20.61C13.2 20.9033 13.29 21.23 13.29 21.59C13.29 22.0433 13.1667 22.4167 12.92 22.71C12.6733 22.9967 12.3467 23.1733 11.94 23.24V23.29C12.9267 23.5833 13.42 24.1633 13.42 25.03C13.42 25.6367 13.2167 26.13 12.81 26.51C12.4033 26.8833 11.83 27.07 11.09 27.07C10.3033 27.07 9.67667 26.8767 9.21 26.49C8.74333 26.0967 8.48333 25.5067 8.43 24.72H9.81C9.84333 25.08 9.96 25.3667 10.16 25.58C10.3667 25.7867 10.6567 25.89 11.03 25.89C11.35 25.89 11.6 25.8033 11.78 25.63C11.96 25.45 12.05 25.2167 12.05 24.93C12.05 24.59 11.92 24.33 11.66 24.15C11.4 23.97 11.0167 23.88 10.51 23.88H10.22V22.73H10.51C11.4433 22.7433 11.91 22.42 11.91 21.76C11.91 21.4733 11.8267 21.25 11.66 21.09C11.4933 20.9233 11.2667 20.84 10.98 20.84C10.68 20.84 10.4333 20.9367 10.24 21.13C10.0467 21.3167 9.93667 21.58 9.91 21.92H8.53C8.57 21.2 8.80333 20.6467 9.23 20.26C9.65667 19.8667 10.25 19.67 11.01 19.67Z" fill="black"/>
</svg>
