<svg width="35" height="30" viewBox="0 0 40 34" fill="none" xmlns="http://www.w3.org/2000/svg">
<path d="M36.4948 3.11894C36.4948 25.9304 36.5468 24.1597 36.3819 24.7065C36.2199 25.2411 35.8903 25.7095 35.4417 26.0424C34.9931 26.3753 34.4493 26.5552 33.8907 26.5554H2.64213C1.9515 26.5554 1.28915 26.281 0.800794 25.7927C0.31244 25.3043 0.0380859 24.642 0.0380859 23.9513V3.11894C0.0380859 2.4283 0.31244 1.76595 0.800794 1.2776C1.28915 0.789247 1.9515 0.514893 2.64213 0.514893H33.8907C34.5814 0.514893 35.2437 0.789247 35.7321 1.2776C36.2204 1.76595 36.4948 2.4283 36.4948 3.11894Z" fill="#FE9443"/>
<path d="M36.4952 3.11893C36.4952 24.9148 36.5473 23.2916 36.3824 23.8385C35.8268 24.0034 38.2312 23.9513 5.24662 23.9513C4.55598 23.9513 3.89363 23.677 3.40528 23.1886C2.91692 22.7003 2.64257 22.0379 2.64257 21.3473C2.64257 -0.448614 2.59049 1.17458 2.75541 0.627726C3.31094 0.462803 0.906538 0.514884 33.8911 0.514884C34.5818 0.514884 35.2441 0.789238 35.7325 1.27759C36.2208 1.76595 36.4952 2.4283 36.4952 3.11893Z" fill="#FFBC5A"/>
<path d="M36.4948 5.72296H0.0380859V10.063H36.4948V5.72296Z" fill="#374F68"/>
<path d="M36.4952 5.72296V8.32701H5.24663C4.55599 8.32701 3.89364 8.05266 3.40529 7.5643C2.91693 7.07595 2.64258 6.4136 2.64258 5.72296H36.4952Z" fill="#425B72"/>
<path d="M20.8701 14.4031H3.50977V17.8752H20.8701V14.4031Z" fill="#DAD7E5"/>
<path d="M20.8705 14.4031V16.1392H7.85029C7.38987 16.1392 6.9483 15.9563 6.62273 15.6307C6.29716 15.3051 6.11426 14.8636 6.11426 14.4031H20.8705Z" fill="#EDEBF2"/>
<path d="M6.98266 23.9513H3.51059C3.28038 23.9513 3.0596 23.8599 2.89681 23.6971C2.73403 23.5343 2.64258 23.3135 2.64258 23.0833C2.64258 22.8531 2.73403 22.6323 2.89681 22.4695C3.0596 22.3067 3.28038 22.2153 3.51059 22.2153H6.98266C7.21287 22.2153 7.43365 22.3067 7.59644 22.4695C7.75922 22.6323 7.85067 22.8531 7.85067 23.0833C7.85067 23.3135 7.75922 23.5343 7.59644 23.6971C7.43365 23.8599 7.21287 23.9513 6.98266 23.9513Z" fill="#EDEBF2"/>
<path d="M13.926 23.9513H10.454C10.2237 23.9513 10.003 23.8599 9.84017 23.6971C9.67739 23.5343 9.58594 23.3135 9.58594 23.0833C9.58594 22.8531 9.67739 22.6323 9.84017 22.4695C10.003 22.3067 10.2237 22.2153 10.454 22.2153H13.926C14.1562 22.2153 14.377 22.3067 14.5398 22.4695C14.7026 22.6323 14.794 22.8531 14.794 23.0833C14.794 23.3135 14.7026 23.5343 14.5398 23.6971C14.377 23.8599 14.1562 23.9513 13.926 23.9513Z" fill="#EDEBF2"/>
<path d="M20.8704 23.9513H17.3983C17.1681 23.9513 16.9473 23.8599 16.7845 23.6971C16.6217 23.5343 16.5303 23.3135 16.5303 23.0833C16.5303 22.8531 16.6217 22.6323 16.7845 22.4695C16.9473 22.3067 17.1681 22.2153 17.3983 22.2153H20.8704C21.1006 22.2153 21.3214 22.3067 21.4841 22.4695C21.6469 22.6323 21.7384 22.8531 21.7384 23.0833C21.7384 23.3135 21.6469 23.5343 21.4841 23.6971C21.3214 23.8599 21.1006 23.9513 20.8704 23.9513Z" fill="#EDEBF2"/>
<path d="M39.9664 26.5554C39.9709 27.9726 39.5341 29.356 38.7164 30.5135C37.7664 31.8745 36.3603 32.8503 34.7529 33.2639C33.1455 33.6776 31.4431 33.5018 29.9542 32.7685C28.4652 32.0352 27.2881 30.7928 26.6362 29.2664C25.9843 27.74 25.9006 26.0306 26.4005 24.4478C26.9003 22.8651 27.9505 21.5137 29.3608 20.6386C30.771 19.7634 32.4482 19.4223 34.0883 19.6771C35.7284 19.9319 37.223 20.7657 38.3013 22.0275C39.3796 23.2893 39.9703 24.8956 39.9664 26.5554Z" fill="#9DCC6B"/>
<path d="M39.0464 30.0274C32.9703 33.4995 26.1216 26.6508 29.585 20.566C35.6264 17.0072 42.5705 23.9513 39.0464 30.0274Z" fill="#B5E08C"/>
<path d="M29.8022 27.1716C29.7212 27.0907 29.657 26.9946 29.6132 26.8889C29.5694 26.7831 29.5469 26.6698 29.5469 26.5554C29.5469 26.4409 29.5694 26.3276 29.6132 26.2218C29.657 26.1161 29.7212 26.02 29.8022 25.9391C29.8831 25.8581 29.9792 25.7939 30.0849 25.7501C30.1907 25.7063 30.304 25.6838 30.4184 25.6838C30.5329 25.6838 30.6462 25.7063 30.752 25.7501C30.8577 25.7939 30.9538 25.8581 31.0347 25.9391L32.1545 27.0675L35.0103 24.203C35.1737 24.0396 35.3954 23.9478 35.6265 23.9478C35.8577 23.9478 36.0794 24.0396 36.2428 24.203C36.4063 24.3665 36.4981 24.5882 36.4981 24.8193C36.4981 25.0505 36.4063 25.2722 36.2428 25.4356C31.5121 30.1576 32.6232 30.0274 29.8022 27.1716Z" fill="#EDEBF2"/>
</svg>
