<svg width="452" height="242" viewBox="0 0 452 242" fill="none" xmlns="http://www.w3.org/2000/svg">
<g clip-path="url(#clip0_391_2396)">
<rect width="452" height="242" rx="10" fill="#5A56C2"/>
<circle cx="409.571" cy="173.571" r="195.571" fill="#8567FF" fill-opacity="0.79"/>
<circle cx="423.612" cy="259" r="171.408" fill="#9592E4"/>
<path d="M354.368 213.008L355.168 214.464L353.072 215.216L355.168 215.952L354.32 217.456L352.608 216.016L352.976 218.24H351.312L351.664 216.016L349.936 217.472L349.056 215.952L351.152 215.2L349.088 214.464L349.904 213.008L351.664 214.416L351.296 212.192H352.976L352.608 214.416L354.368 213.008ZM362.493 213.008L363.293 214.464L361.197 215.216L363.293 215.952L362.445 217.456L360.733 216.016L361.101 218.24H359.437L359.789 216.016L358.061 217.472L357.181 215.952L359.277 215.2L357.213 214.464L358.029 213.008L359.789 214.416L359.421 212.192H361.101L360.733 214.416L362.493 213.008ZM370.618 213.008L371.418 214.464L369.322 215.216L371.418 215.952L370.57 217.456L368.858 216.016L369.226 218.24H367.562L367.914 216.016L366.186 217.472L365.306 215.952L367.402 215.2L365.338 214.464L366.154 213.008L367.914 214.416L367.546 212.192H369.226L368.858 214.416L370.618 213.008ZM378.743 213.008L379.543 214.464L377.447 215.216L379.543 215.952L378.695 217.456L376.983 216.016L377.351 218.24H375.687L376.039 216.016L374.311 217.472L373.431 215.952L375.527 215.2L373.463 214.464L374.279 213.008L376.039 214.416L375.671 212.192H377.351L376.983 214.416L378.743 213.008ZM404.29 213.008L405.09 214.464L402.994 215.216L405.09 215.952L404.242 217.456L402.53 216.016L402.898 218.24H401.234L401.586 216.016L399.858 217.472L398.978 215.952L401.074 215.2L399.01 214.464L399.826 213.008L401.586 214.416L401.218 212.192H402.898L402.53 214.416L404.29 213.008ZM412.415 213.008L413.215 214.464L411.119 215.216L413.215 215.952L412.367 217.456L410.655 216.016L411.023 218.24H409.359L409.711 216.016L407.983 217.472L407.103 215.952L409.199 215.2L407.135 214.464L407.951 213.008L409.711 214.416L409.343 212.192H411.023L410.655 214.416L412.415 213.008ZM420.54 213.008L421.34 214.464L419.244 215.216L421.34 215.952L420.492 217.456L418.78 216.016L419.148 218.24H417.484L417.836 216.016L416.108 217.472L415.228 215.952L417.324 215.2L415.26 214.464L416.076 213.008L417.836 214.416L417.468 212.192H419.148L418.78 214.416L420.54 213.008ZM428.665 213.008L429.465 214.464L427.369 215.216L429.465 215.952L428.617 217.456L426.905 216.016L427.273 218.24H425.609L425.961 216.016L424.233 217.472L423.353 215.952L425.449 215.2L423.385 214.464L424.201 213.008L425.961 214.416L425.593 212.192H427.273L426.905 214.416L428.665 213.008Z" fill="white"/>
<rect x="32" y="192" width="16.6866" height="6.41791" rx="2" fill="#D9D9D9" fill-opacity="0.4"/>
<rect x="32" y="209.97" width="16.6866" height="6.41791" rx="2" fill="#D9D9D9" fill-opacity="0.4"/>
<rect x="58.3135" y="192" width="16.6866" height="6.41791" rx="2" fill="#D9D9D9" fill-opacity="0.4"/>
<rect x="58.3135" y="209.97" width="16.6866" height="6.41791" rx="2" fill="#D9D9D9" fill-opacity="0.4"/>
<rect x="45.4775" y="200.985" width="16.6866" height="6.41791" rx="2" fill="#D9D9D9" fill-opacity="0.4"/>
<rect x="62.8057" y="200.985" width="12.194" height="6.41791" rx="2" fill="#D9D9D9" fill-opacity="0.4"/>
<rect x="32" y="200.985" width="12.194" height="6.41791" rx="2" fill="#D9D9D9" fill-opacity="0.4"/>
<rect x="49.9697" y="192" width="7.0597" height="6.41791" rx="2" fill="#D9D9D9" fill-opacity="0.4"/>
<rect x="49.9697" y="209.97" width="7.0597" height="6.41791" rx="2" fill="#D9D9D9" fill-opacity="0.4"/>
</g>
<defs>
<clipPath id="clip0_391_2396">
<rect width="452" height="242" rx="10" fill="white"/>
</clipPath>
</defs>
</svg>
