<svg width="448" height="503" viewBox="0 0 448 503" fill="none" xmlns="http://www.w3.org/2000/svg">
<path fill-rule="evenodd" clip-rule="evenodd" d="M382.196 502.674C338.372 498.761 238.463 491.718 192.291 499.283C152.119 498.761 109.077 500.587 70.4704 502.674C66.2966 500.848 54.0363 484.675 50.3843 473.197C47.7757 457.807 56.384 304.161 57.9492 279.38C57.4275 262.685 56.1232 245.99 53.7754 229.295C53.2537 184.166 54.0363 202.687 57.1666 157.559C54.558 129.647 54.8189 93.9093 54.8189 65.9974C58.4709 58.9543 63.1663 52.4328 69.1661 46.4331C105.947 44.3462 175.075 41.9985 207.16 39.3899C244.724 41.7376 285.157 42.2593 320.112 42.781C338.633 45.3896 360.284 46.4331 379.587 50.6068C384.805 55.5631 390.283 61.8237 393.935 67.3017C394.196 94.1701 392.891 128.082 390.543 155.472C391.848 165.124 394.196 175.036 394.717 182.601C394.456 197.731 393.413 210.252 391.326 223.034C390.543 260.598 392.109 298.161 394.978 335.725C390.283 406.678 394.717 411.374 403.586 470.067C399.674 486.762 385.848 501.892 382.196 502.674Z" fill="white"/>
<path fill-rule="evenodd" clip-rule="evenodd" d="M118.99 87.6485C132.293 71.997 146.119 58.9541 160.205 48.7806C160.727 47.7372 162.814 45.3895 165.683 42.2592C177.422 29.2163 203.508 2.34785 205.595 0.260986C171.683 2.86957 98.9035 5.47816 60.0356 7.56502C54.8184 12.7822 50.6447 18.2602 46.9927 24.5208C52.9924 30.2597 60.0356 37.3029 66.8179 44.8678C67.3396 45.6503 68.1222 46.1721 68.6439 46.9546C83.7737 63.9104 98.3818 81.9096 105.164 89.9963C111.164 97.0394 112.99 94.6917 118.99 87.6485Z" fill="white"/>
<path fill-rule="evenodd" clip-rule="evenodd" d="M165.683 51.1282C185.248 69.1275 260.114 104.865 264.81 104.082C265.853 103.822 266.636 103.3 267.679 102.256C268.462 94.4307 268.201 67.0406 267.94 41.9982C267.679 25.5641 267.679 10.4343 267.418 2.60858C246.81 2.08687 225.942 1.30429 205.856 0L167.77 41.7373L166.205 43.5633C164.118 46.9545 163.597 49.5631 165.683 51.1282Z" fill="white"/>
<path fill-rule="evenodd" clip-rule="evenodd" d="M270.287 42.259C271.07 65.2145 271.331 91.3003 271.331 107.213C284.635 131.212 295.591 156.515 304.982 182.862C307.59 190.426 309.155 191.209 316.981 192.253C322.981 193.035 332.633 193.557 342.284 194.079C350.11 194.6 358.197 195.383 364.457 195.905C368.37 196.165 371.761 194.6 374.37 191.731C380.37 184.427 386.108 178.166 391.847 172.688C392.108 172.427 392.369 171.906 392.63 171.645C395.76 167.471 399.934 161.993 403.586 155.732C403.586 154.167 403.586 152.602 403.586 151.037C402.803 143.211 400.456 132.516 399.151 122.342C399.934 112.691 400.717 101.996 401.238 91.0395C400.195 85.8223 399.412 80.866 398.63 75.6488C388.978 55.041 381.152 31.8246 374.892 9.12997C358.197 6.52139 340.458 5.47796 325.068 3.39109C307.068 3.13023 287.504 2.86937 267.418 2.34766C268.983 10.956 269.766 25.8249 270.287 42.259Z" fill="white"/>
<path fill-rule="evenodd" clip-rule="evenodd" d="M374.892 9.65186C383.24 33.1291 397.587 67.5624 400.717 75.1273C400.978 77.7359 401.5 80.3445 401.761 82.953C402.543 64.4321 403.065 45.9112 402.804 29.7379C398.891 23.9991 393.152 17.2167 387.674 12.2604C383.5 11.217 379.066 10.4344 374.892 9.65186Z" fill="white"/>
<path fill-rule="evenodd" clip-rule="evenodd" d="M304.46 196.166C294.808 164.602 283.591 139.821 271.592 115.3V115.561C247.071 98.6049 233.506 94.692 210.29 81.1274C192.291 70.6931 178.205 63.6499 164.118 53.9981C160.988 51.6504 153.945 56.3459 151.336 58.4327C137.511 70.1713 124.989 83.736 113.512 99.3875C93.9473 167.471 87.165 233.208 62.3834 297.118C62.1226 317.204 61.8617 337.29 61.6008 357.376C61.34 367.811 65.7746 374.332 69.1657 379.028C72.5569 395.462 87.165 456.502 92.643 488.849C112.729 488.849 132.293 489.371 151.858 490.153C174.292 481.806 197.769 470.067 212.638 458.068C219.942 456.242 238.463 453.633 247.071 450.503C252.549 448.677 253.593 447.112 255.158 441.634C264.288 410.331 276.287 380.071 290.113 350.333C291.156 299.205 295.852 245.99 304.46 196.166Z" fill="white"/>
<path fill-rule="evenodd" clip-rule="evenodd" d="M57.688 296.335C80.6435 243.12 85.5998 183.123 103.338 124.169C108.555 107.213 107.512 101.735 101.773 92.3442C93.9473 79.823 81.4261 63.1281 67.8615 47.9983C67.3398 47.4766 66.818 46.694 66.2963 46.1723C59.7749 38.8682 52.9925 31.8251 46.7319 25.5645C46.2102 26.347 45.6885 27.3905 45.1668 28.173C45.1668 57.65 44.6451 95.2136 47.5145 124.691C44.1234 172.167 43.6016 152.863 43.8625 200.34C46.4711 218.078 47.5145 235.555 48.2971 253.294C45.4277 298.161 44.3842 338.855 44.1234 382.419C45.1668 381.636 45.9494 380.593 46.9928 379.81C49.8622 376.941 52.21 374.854 53.7751 372.767C59.7749 365.724 59.2531 361.811 59.514 352.681C60.2966 333.899 59.7749 314.856 57.688 296.335Z" fill="white"/>
<path fill-rule="evenodd" clip-rule="evenodd" d="M92.3828 488.849C84.0353 458.328 74.9053 408.765 66.5578 380.853C65.7753 378.245 64.471 376.68 63.6884 375.375C60.819 370.68 57.6887 373.549 54.8192 375.897L53.7758 376.941L44.124 385.288C44.124 387.897 44.124 390.505 44.124 392.853C45.95 403.287 47.2543 413.722 47.2543 424.417C46.4718 439.807 47.2543 459.111 49.0803 470.328C49.6021 473.719 54.2975 481.806 58.4712 486.24C59.5147 487.544 60.819 488.327 61.6015 488.849C72.0359 488.849 82.2093 488.588 92.3828 488.849Z" fill="white"/>
<path fill-rule="evenodd" clip-rule="evenodd" d="M378.805 195.383C380.631 195.383 386.631 194.6 393.935 194.079C396.022 193.818 398.109 193.818 400.196 193.557C402.022 182.601 403.065 171.645 403.587 159.124C399.152 165.906 394.457 172.688 393.413 174.254C393.413 174.254 393.153 174.254 393.153 174.514C386.631 178.688 381.675 184.688 376.458 192.514C374.11 195.905 375.153 195.644 378.805 195.383Z" fill="white"/>
<path fill-rule="evenodd" clip-rule="evenodd" d="M335.502 433.807C321.677 411.895 307.851 386.592 297.156 360.245C293.504 351.376 291.939 353.202 289.07 359.723C276.027 388.679 264.81 418.416 255.941 449.719C254.636 454.937 254.115 472.936 253.332 487.544C293.504 489.631 338.111 489.37 379.066 488.848C376.457 479.979 351.936 446.589 335.502 433.807Z" fill="white"/>
<path fill-rule="evenodd" clip-rule="evenodd" d="M252.289 458.067C252.289 455.198 252.81 453.111 248.898 452.85C245.767 452.589 220.203 460.154 215.247 461.198C202.465 469.284 175.335 483.371 155.51 490.153C167.771 490.675 179.77 491.457 191.77 492.24C207.421 489.631 223.333 486.762 238.985 486.762C243.42 487.023 248.115 487.283 252.55 487.544C252.55 477.371 252.55 464.328 252.289 458.067Z" fill="white"/>
<path fill-rule="evenodd" clip-rule="evenodd" d="M309.157 25.0424C289.332 19.5644 142.73 17.4775 65.5156 20.6078C65.7765 30.5204 66.0373 40.433 66.2982 50.3456L93.9492 53.4759L66.559 58.6931C67.6025 106.691 67.8633 154.95 67.3416 203.469L81.9497 208.687L67.3416 212.86C66.2982 281.727 63.6896 350.854 58.9941 419.721C70.211 436.416 81.428 453.111 92.6449 470.067C97.3403 472.154 294.81 474.24 373.85 473.719C373.068 451.546 372.807 429.112 372.546 406.939L362.111 400.417L367.068 394.679L366.285 389.983L372.546 386.331C372.285 314.595 374.894 243.12 379.589 171.906L371.763 167.732L375.937 160.95L364.72 155.211L381.154 151.82C383.502 122.343 386.11 92.8655 389.241 63.6494C362.372 50.6065 335.765 37.8244 309.157 25.0424Z" fill="url(#paint0_linear_533_3786)"/>
<path opacity="0.4" fill-rule="evenodd" clip-rule="evenodd" d="M327.157 470.589C360.547 470.328 369.938 451.807 372.546 430.417C372.807 444.764 373.068 458.85 373.59 473.197C313.331 473.719 184.989 472.676 124.731 471.11C171.946 469.024 188.12 463.806 229.074 456.502C256.986 451.546 261.942 455.72 288.55 464.328C299.506 467.98 311.245 470.85 327.157 470.589Z" fill="url(#paint1_radial_533_3786)"/>
<path opacity="0.35" fill-rule="evenodd" clip-rule="evenodd" d="M303.419 23.9989C292.723 24.7815 279.159 28.1726 266.898 30.7812C250.986 33.9115 240.03 32.8681 228.552 30.5204C197.771 24.5206 172.989 21.6512 144.034 19.3035C209.51 19.0426 280.463 20.8686 303.419 23.9989Z" fill="url(#paint2_radial_533_3786)"/>
<path opacity="0.5" fill-rule="evenodd" clip-rule="evenodd" d="M368.893 124.951C379.849 124.69 390.805 124.429 401.761 124.168C403.587 117.647 404.891 96.2564 405.674 74.3443C404.631 78.7789 402.544 85.5612 400.196 92.6044C396.805 92.3435 393.414 91.8218 390.023 91.3001C393.414 80.0832 397.587 68.0837 402.544 58.6928C404.631 55.0408 404.37 51.1279 402.283 48.7802C389.24 34.6938 337.329 27.6506 223.856 27.6506C110.382 27.6506 58.4716 34.6938 45.4287 48.7802C43.3419 51.1279 43.081 54.7799 45.1679 58.6928C50.1242 67.8228 54.2979 80.0832 57.6891 91.3001C54.2979 92.0826 50.9068 92.3435 47.5156 92.6044C46.2113 88.6915 44.907 84.7786 43.8636 81.3874C45.1679 99.6475 46.733 114.777 48.559 118.429L51.1676 121.56C48.559 121.56 46.733 133.559 45.6896 142.167C45.4287 146.08 45.1679 149.211 44.907 150.515C56.6456 152.08 71.5146 147.385 78.036 135.907C79.862 133.037 79.3403 127.82 78.8186 125.994C76.9926 119.473 74.9057 112.69 72.2971 101.734C93.9484 95.2129 138.816 85.5612 223.334 85.5612C307.852 85.5612 352.981 95.2129 374.371 101.734C372.806 112.169 370.719 118.69 368.893 124.951Z" fill="#1D1D1B"/>
<path opacity="0.5" fill-rule="evenodd" clip-rule="evenodd" d="M400.196 130.95C398.37 128.863 379.849 125.472 368.632 125.211C368.632 125.472 368.632 125.733 368.371 125.733C367.85 127.559 367.328 132.776 369.154 135.646C376.197 147.645 391.588 152.08 403.587 149.993C403.587 148.689 401.5 135.124 400.196 130.95Z" fill="#1D1D1B"/>
<path fill-rule="evenodd" clip-rule="evenodd" d="M26.6464 137.994C38.6459 147.124 69.688 140.342 76.7312 129.907C78.0355 128.081 78.818 125.734 78.5572 122.603C78.818 121.821 63.6883 79.8225 62.6448 69.3882C61.6014 81.6485 26.9072 83.9962 18.2989 81.6485C15.1686 94.4306 15.6903 130.69 26.6464 137.994Z" fill="url(#paint3_linear_533_3786)"/>
<path fill-rule="evenodd" clip-rule="evenodd" d="M51.428 107.734C49.0803 97.0391 58.732 90.7786 69.6881 90.2568C73.0792 105.908 75.6878 113.734 78.2964 122.864C75.1661 111.647 54.0366 119.212 51.428 107.734Z" fill="url(#paint4_linear_533_3786)"/>
<path fill-rule="evenodd" clip-rule="evenodd" d="M27.6898 62.6063C31.0809 76.4318 42.2978 108.257 48.5584 119.995C42.5587 112.169 29.7766 115.039 24.8203 122.343C22.2118 126.517 21.69 133.821 26.3855 137.994C24.8203 136.951 20.1249 133.56 18.038 124.951C15.1686 112.952 7.08198 91.0399 1.08224 78.5187C-4.9175 65.7366 15.4294 54.2588 27.6898 62.6063Z" fill="url(#paint5_linear_533_3786)"/>
<path fill-rule="evenodd" clip-rule="evenodd" d="M13.6028 60.2583C10.4725 61.0409 7.6031 62.3452 5.25537 64.1712C8.90739 68.8666 26.3849 114.256 25.8632 121.299C27.95 118.951 30.8195 116.865 33.9498 116.082C28.9935 107.995 14.9071 65.7363 13.6028 60.2583Z" fill="url(#paint6_radial_533_3786)"/>
<path fill-rule="evenodd" clip-rule="evenodd" d="M29.5152 68.8671C29.2544 67.8237 28.9935 66.7803 28.7327 65.7368C21.1678 60.7805 10.9943 63.1283 5.51627 68.6063C2.64683 71.4757 1.08168 75.6495 2.12512 79.5623C2.64683 80.3449 2.90769 81.3883 3.42941 82.1709C2.64683 78.5189 4.21198 74.606 6.82056 71.9974C11.7769 66.5194 22.2112 64.1717 29.5152 68.8671ZM44.9059 112.17C40.993 108.778 34.7324 108.778 29.5152 110.865C21.1678 114.256 16.2115 122.865 20.6461 131.212C19.3418 123.908 24.5589 117.126 30.8195 114.517C36.2976 112.17 42.5582 112.17 46.471 115.822C45.9493 114.517 45.4276 113.474 44.9059 112.17Z" fill="url(#paint7_linear_533_3786)"/>
<path fill-rule="evenodd" clip-rule="evenodd" d="M421.325 137.994C409.326 147.124 378.283 140.342 371.24 129.907C369.936 128.081 369.153 125.734 369.414 122.603C369.153 121.821 384.283 79.8225 385.327 69.3882C386.37 81.6485 421.064 83.9962 429.672 81.6485C432.803 94.4306 432.02 130.69 421.325 137.994Z" fill="url(#paint8_linear_533_3786)"/>
<path fill-rule="evenodd" clip-rule="evenodd" d="M396.283 107.734C398.631 97.0391 388.979 90.7786 378.023 90.2568C374.632 105.908 372.023 113.734 369.415 122.864C372.806 111.647 393.674 119.212 396.283 107.734Z" fill="url(#paint9_linear_533_3786)"/>
<path fill-rule="evenodd" clip-rule="evenodd" d="M420.02 62.6063C416.629 76.4318 405.412 108.257 399.151 119.995C405.151 112.169 417.933 115.039 422.889 122.343C425.498 126.517 426.02 133.821 421.324 137.994C422.889 136.951 427.585 133.56 429.672 124.951C432.541 112.952 440.628 91.0399 446.628 78.5187C452.627 65.7366 432.541 54.2588 420.02 62.6063Z" fill="url(#paint10_linear_533_3786)"/>
<path fill-rule="evenodd" clip-rule="evenodd" d="M434.107 60.2583C437.237 61.0409 440.106 62.3452 442.454 64.1712C438.802 68.8666 421.325 114.256 421.846 121.299C419.759 118.951 416.89 116.865 413.76 116.082C418.716 107.995 433.063 65.7363 434.107 60.2583Z" fill="url(#paint11_radial_533_3786)"/>
<path fill-rule="evenodd" clip-rule="evenodd" d="M442.454 68.6063C436.976 63.1283 426.541 60.7805 419.237 65.7368C418.976 66.7803 418.716 67.8237 418.455 68.8671C425.759 64.1717 436.193 66.5194 441.41 71.9974C444.019 74.8669 445.584 78.5189 444.801 82.1709C445.323 81.3883 445.584 80.3449 446.106 79.5623C446.888 75.6495 445.584 71.7366 442.454 68.6063ZM418.455 110.865C413.238 108.778 406.977 108.778 403.064 112.17C402.542 113.474 402.021 114.778 401.499 115.822C405.412 111.909 411.672 112.17 417.151 114.517C423.672 117.126 428.889 123.908 427.324 131.212C431.498 122.865 426.802 114.256 418.455 110.865Z" fill="url(#paint12_linear_533_3786)"/>
<path fill-rule="evenodd" clip-rule="evenodd" d="M31.6029 35.2164C29.2552 37.825 29.2552 41.7379 31.3421 45.9116C41.2547 64.6934 49.0805 94.6921 51.4282 107.735C50.6456 103.04 54.2976 98.8658 62.1234 95.9964C84.5572 87.1272 121.077 82.6926 223.856 82.6926V12.5217C101.513 12.5217 45.4284 20.0866 31.6029 35.2164Z" fill="url(#paint13_radial_533_3786)"/>
<path fill-rule="evenodd" clip-rule="evenodd" d="M416.37 35.2164C418.718 37.825 418.717 41.7379 416.631 45.9116C406.718 64.6934 398.892 94.6921 396.545 107.735C397.327 103.04 393.675 98.8658 385.849 95.9964C363.416 87.1272 326.895 82.6926 224.117 82.6926V12.5217C346.199 12.5217 402.283 20.0866 416.37 35.2164Z" fill="url(#paint14_radial_533_3786)"/>
<path fill-rule="evenodd" clip-rule="evenodd" d="M223.855 74.3449C118.729 74.3449 79.8615 79.3012 58.4711 88.9529C53.254 91.3007 50.1237 93.9092 49.0803 97.0395C49.3411 98.6047 49.8628 100.17 50.1237 101.735C50.6454 98.083 54.2974 94.9527 60.2972 92.605C82.2093 83.2141 119.773 78.5186 223.855 78.5186H224.116L223.855 74.3449ZM34.9939 42.5202C50.1237 27.9121 103.86 20.6081 223.855 20.6081H224.116V16.4343H223.855C102.556 16.4343 47.776 23.7384 33.1679 38.6073C31.3419 40.4333 30.5593 42.781 31.081 45.6505C31.6027 46.433 31.8636 47.2156 32.3853 47.9982C32.3853 45.9113 33.4288 43.8244 34.9939 42.5202Z" fill="url(#paint15_linear_533_3786)"/>
<path fill-rule="evenodd" clip-rule="evenodd" d="M224.377 74.3455C329.503 74.3455 368.371 79.3018 389.761 88.9536C394.979 91.3013 397.848 93.649 398.631 96.7793C398.37 98.3445 397.848 99.9096 397.587 101.214C397.065 97.5619 393.935 94.6924 387.935 92.3447C366.023 82.9538 328.46 78.2584 224.377 78.2584H224.116L224.377 74.3455ZM412.978 42.5208C397.848 27.9127 344.372 20.8695 224.116 20.8695H223.855V16.6958H224.116C345.415 16.6958 400.196 23.9998 414.804 38.8688C416.63 40.6948 417.412 42.2599 416.891 44.8685C416.891 44.8685 415.847 46.6945 415.586 47.4771C415.586 45.3902 414.804 43.8251 412.978 42.5208Z" fill="url(#paint16_linear_533_3786)"/>
<path opacity="0.3" fill-rule="evenodd" clip-rule="evenodd" d="M416.369 35.216C402.282 20.0862 346.459 12.2605 223.855 12.2605C101.513 12.2605 45.4281 19.8254 31.3417 35.216C28.994 37.8246 28.994 41.7375 31.0809 45.9112C40.9935 64.693 48.8192 94.6917 51.1669 107.735C50.3844 103.039 54.0364 98.8654 61.8621 95.996C84.296 87.1268 120.816 82.6922 223.594 82.6922C326.633 82.6922 363.153 87.1268 385.326 95.996C392.891 99.1263 396.804 103.039 396.022 107.735C398.369 94.6917 406.195 64.693 416.108 45.9112C418.716 41.9983 418.716 37.8246 416.369 35.216Z" fill="url(#paint17_radial_533_3786)"/>
<path d="M107.732 153.392C105.679 153.392 103.831 152.963 102.188 152.104C100.564 151.227 99.2853 150.013 98.352 148.464C97.4187 146.915 96.952 145.16 96.952 143.2C96.952 141.24 97.4187 139.485 98.352 137.936C99.2853 136.387 100.564 135.183 102.188 134.324C103.831 133.447 105.679 133.008 107.732 133.008C109.524 133.008 111.139 133.325 112.576 133.96C114.013 134.595 115.208 135.509 116.16 136.704L112.632 139.896C111.363 138.365 109.823 137.6 108.012 137.6C106.948 137.6 105.996 137.833 105.156 138.3C104.335 138.767 103.691 139.429 103.224 140.288C102.776 141.128 102.552 142.099 102.552 143.2C102.552 144.301 102.776 145.281 103.224 146.14C103.691 146.98 104.335 147.633 105.156 148.1C105.996 148.567 106.948 148.8 108.012 148.8C109.823 148.8 111.363 148.035 112.632 146.504L116.16 149.696C115.208 150.891 114.013 151.805 112.576 152.44C111.139 153.075 109.524 153.392 107.732 153.392ZM126.531 153.252C124.907 153.252 123.442 152.916 122.135 152.244C120.828 151.572 119.802 150.639 119.055 149.444C118.327 148.249 117.963 146.896 117.963 145.384C117.963 143.891 118.327 142.547 119.055 141.352C119.802 140.157 120.819 139.233 122.107 138.58C123.414 137.908 124.888 137.572 126.531 137.572C128.174 137.572 129.648 137.908 130.955 138.58C132.262 139.233 133.279 140.157 134.007 141.352C134.735 142.528 135.099 143.872 135.099 145.384C135.099 146.896 134.735 148.249 134.007 149.444C133.279 150.639 132.262 151.572 130.955 152.244C129.648 152.916 128.174 153.252 126.531 153.252ZM126.531 149.024C127.464 149.024 128.23 148.707 128.827 148.072C129.424 147.419 129.723 146.523 129.723 145.384C129.723 144.264 129.424 143.387 128.827 142.752C128.23 142.117 127.464 141.8 126.531 141.8C125.598 141.8 124.832 142.117 124.235 142.752C123.638 143.387 123.339 144.264 123.339 145.384C123.339 146.523 123.638 147.419 124.235 148.072C124.832 148.707 125.598 149.024 126.531 149.024ZM148.447 137.572C150.333 137.572 151.845 138.132 152.983 139.252C154.141 140.372 154.719 142.061 154.719 144.32V153H149.399V145.188C149.399 143.116 148.569 142.08 146.907 142.08C145.993 142.08 145.255 142.379 144.695 142.976C144.154 143.573 143.883 144.469 143.883 145.664V153H138.563V137.824H143.631V139.476C144.229 138.86 144.938 138.393 145.759 138.076C146.581 137.74 147.477 137.572 148.447 137.572ZM175.602 137.824V150.228C175.602 153.047 174.837 155.156 173.306 156.556C171.776 157.975 169.573 158.684 166.698 158.684C165.205 158.684 163.805 158.516 162.498 158.18C161.192 157.844 160.081 157.349 159.166 156.696L161.098 152.972C161.714 153.476 162.489 153.868 163.422 154.148C164.374 154.447 165.308 154.596 166.222 154.596C167.622 154.596 168.649 154.288 169.302 153.672C169.956 153.056 170.282 152.141 170.282 150.928V150.424C169.256 151.619 167.753 152.216 165.774 152.216C164.43 152.216 163.189 151.917 162.05 151.32C160.912 150.704 160.006 149.845 159.334 148.744C158.662 147.624 158.326 146.336 158.326 144.88C158.326 143.443 158.662 142.173 159.334 141.072C160.006 139.952 160.912 139.093 162.05 138.496C163.189 137.88 164.43 137.572 165.774 137.572C167.94 137.572 169.526 138.272 170.534 139.672V137.824H175.602ZM167.034 147.988C167.986 147.988 168.77 147.699 169.386 147.12C170.021 146.541 170.338 145.795 170.338 144.88C170.338 143.965 170.03 143.228 169.414 142.668C168.798 142.089 168.005 141.8 167.034 141.8C166.064 141.8 165.261 142.089 164.626 142.668C164.01 143.228 163.702 143.965 163.702 144.88C163.702 145.795 164.02 146.541 164.654 147.12C165.289 147.699 166.082 147.988 167.034 147.988ZM185.089 139.644C185.63 138.953 186.33 138.44 187.189 138.104C188.066 137.749 189.065 137.572 190.185 137.572V142.36C189.699 142.304 189.298 142.276 188.981 142.276C187.842 142.276 186.946 142.584 186.293 143.2C185.658 143.816 185.341 144.759 185.341 146.028V153H180.021V137.824H185.089V139.644ZM199.739 137.572C202.259 137.572 204.181 138.151 205.507 139.308C206.832 140.447 207.495 142.201 207.495 144.572V153H202.539V151.04C201.773 152.515 200.28 153.252 198.059 153.252C196.883 153.252 195.865 153.047 195.007 152.636C194.148 152.225 193.495 151.675 193.047 150.984C192.617 150.275 192.403 149.472 192.403 148.576C192.403 147.139 192.953 146.028 194.055 145.244C195.156 144.441 196.855 144.04 199.151 144.04H202.175C202.081 142.435 201.008 141.632 198.954 141.632C198.227 141.632 197.489 141.753 196.743 141.996C195.996 142.22 195.361 142.537 194.839 142.948L193.047 139.336C193.887 138.776 194.904 138.347 196.099 138.048C197.312 137.731 198.525 137.572 199.739 137.572ZM199.543 149.892C200.159 149.892 200.7 149.743 201.167 149.444C201.633 149.145 201.969 148.707 202.175 148.128V146.812H199.879C198.329 146.812 197.555 147.325 197.555 148.352C197.555 148.819 197.732 149.192 198.087 149.472C198.441 149.752 198.927 149.892 199.543 149.892ZM222.325 152.384C221.877 152.664 221.326 152.879 220.673 153.028C220.038 153.177 219.357 153.252 218.629 153.252C216.65 153.252 215.129 152.767 214.065 151.796C213.001 150.825 212.469 149.379 212.469 147.456V142.36H210.257V138.384H212.469V134.436H217.789V138.384H221.261V142.36H217.789V147.4C217.789 147.941 217.929 148.371 218.209 148.688C218.507 148.987 218.899 149.136 219.385 149.136C220.001 149.136 220.542 148.977 221.009 148.66L222.325 152.384ZM241.336 137.824V153H236.268V151.376C235.708 151.992 235.036 152.459 234.252 152.776C233.468 153.093 232.637 153.252 231.76 153.252C229.8 153.252 228.232 152.673 227.056 151.516C225.899 150.359 225.32 148.623 225.32 146.308V137.824H230.64V145.44C230.64 146.579 230.855 147.409 231.284 147.932C231.713 148.455 232.339 148.716 233.16 148.716C234 148.716 234.681 148.427 235.204 147.848C235.745 147.251 236.016 146.345 236.016 145.132V137.824H241.336ZM245.763 132.224H251.083V153H245.763V132.224ZM262.008 137.572C264.528 137.572 266.451 138.151 267.776 139.308C269.101 140.447 269.764 142.201 269.764 144.572V153H264.808V151.04C264.043 152.515 262.549 153.252 260.328 153.252C259.152 153.252 258.135 153.047 257.276 152.636C256.417 152.225 255.764 151.675 255.316 150.984C254.887 150.275 254.672 149.472 254.672 148.576C254.672 147.139 255.223 146.028 256.324 145.244C257.425 144.441 259.124 144.04 261.42 144.04H264.444C264.351 142.435 263.277 141.632 261.224 141.632C260.496 141.632 259.759 141.753 259.012 141.996C258.265 142.22 257.631 142.537 257.108 142.948L255.316 139.336C256.156 138.776 257.173 138.347 258.368 138.048C259.581 137.731 260.795 137.572 262.008 137.572ZM261.812 149.892C262.428 149.892 262.969 149.743 263.436 149.444C263.903 149.145 264.239 148.707 264.444 148.128V146.812H262.148C260.599 146.812 259.824 147.325 259.824 148.352C259.824 148.819 260.001 149.192 260.356 149.472C260.711 149.752 261.196 149.892 261.812 149.892ZM284.594 152.384C284.146 152.664 283.595 152.879 282.942 153.028C282.307 153.177 281.626 153.252 280.898 153.252C278.919 153.252 277.398 152.767 276.334 151.796C275.27 150.825 274.738 149.379 274.738 147.456V142.36H272.526V138.384H274.738V134.436H280.058V138.384H283.53V142.36H280.058V147.4C280.058 147.941 280.198 148.371 280.478 148.688C280.777 148.987 281.169 149.136 281.654 149.136C282.27 149.136 282.811 148.977 283.278 148.66L284.594 152.384ZM287.646 137.824H292.966V153H287.646V137.824ZM290.306 136.144C289.335 136.144 288.551 135.873 287.954 135.332C287.356 134.791 287.058 134.119 287.058 133.316C287.058 132.513 287.356 131.841 287.954 131.3C288.551 130.759 289.335 130.488 290.306 130.488C291.276 130.488 292.06 130.749 292.658 131.272C293.255 131.776 293.554 132.429 293.554 133.232C293.554 134.072 293.255 134.772 292.658 135.332C292.06 135.873 291.276 136.144 290.306 136.144ZM305.039 153.252C303.415 153.252 301.95 152.916 300.643 152.244C299.336 151.572 298.31 150.639 297.563 149.444C296.835 148.249 296.471 146.896 296.471 145.384C296.471 143.891 296.835 142.547 297.563 141.352C298.31 140.157 299.327 139.233 300.615 138.58C301.922 137.908 303.396 137.572 305.039 137.572C306.682 137.572 308.156 137.908 309.463 138.58C310.77 139.233 311.787 140.157 312.515 141.352C313.243 142.528 313.607 143.872 313.607 145.384C313.607 146.896 313.243 148.249 312.515 149.444C311.787 150.639 310.77 151.572 309.463 152.244C308.156 152.916 306.682 153.252 305.039 153.252ZM305.039 149.024C305.972 149.024 306.738 148.707 307.335 148.072C307.932 147.419 308.231 146.523 308.231 145.384C308.231 144.264 307.932 143.387 307.335 142.752C306.738 142.117 305.972 141.8 305.039 141.8C304.106 141.8 303.34 142.117 302.743 142.752C302.146 143.387 301.847 144.264 301.847 145.384C301.847 146.523 302.146 147.419 302.743 148.072C303.34 148.707 304.106 149.024 305.039 149.024ZM326.955 137.572C328.841 137.572 330.353 138.132 331.491 139.252C332.649 140.372 333.227 142.061 333.227 144.32V153H327.907V145.188C327.907 143.116 327.077 142.08 325.415 142.08C324.501 142.08 323.763 142.379 323.203 142.976C322.662 143.573 322.391 144.469 322.391 145.664V153H317.071V137.824H322.139V139.476C322.737 138.86 323.446 138.393 324.267 138.076C325.089 137.74 325.985 137.572 326.955 137.572ZM343.083 153.252C341.814 153.252 340.563 153.112 339.331 152.832C338.099 152.533 337.11 152.151 336.363 151.684L337.959 148.044C338.65 148.473 339.471 148.819 340.423 149.08C341.375 149.323 342.318 149.444 343.251 149.444C344.11 149.444 344.717 149.36 345.071 149.192C345.445 149.005 345.631 148.744 345.631 148.408C345.631 148.072 345.407 147.839 344.959 147.708C344.53 147.559 343.839 147.419 342.887 147.288C341.674 147.139 340.638 146.943 339.779 146.7C338.939 146.457 338.211 146.009 337.595 145.356C336.979 144.703 336.671 143.788 336.671 142.612C336.671 141.641 336.961 140.783 337.539 140.036C338.118 139.271 338.958 138.673 340.059 138.244C341.179 137.796 342.514 137.572 344.063 137.572C345.165 137.572 346.257 137.684 347.339 137.908C348.422 138.132 349.327 138.449 350.055 138.86L348.459 142.472C347.115 141.725 345.659 141.352 344.091 141.352C343.251 141.352 342.635 141.455 342.243 141.66C341.851 141.847 341.655 142.099 341.655 142.416C341.655 142.771 341.87 143.023 342.299 143.172C342.729 143.303 343.438 143.443 344.427 143.592C345.678 143.779 346.714 143.993 347.535 144.236C348.357 144.479 349.066 144.927 349.663 145.58C350.279 146.215 350.587 147.111 350.587 148.268C350.587 149.22 350.298 150.079 349.719 150.844C349.141 151.591 348.282 152.179 347.143 152.608C346.023 153.037 344.67 153.252 343.083 153.252Z" fill="white"/>
<path opacity="0.75" fill-rule="evenodd" clip-rule="evenodd" d="M154.989 265.38C155.51 265.641 156.293 265.38 156.815 265.12C157.336 264.859 157.597 264.076 157.597 263.554C158.119 257.816 154.728 246.86 155.771 244.251C156.554 241.642 165.684 234.599 168.814 229.643C169.075 229.121 169.336 228.599 169.075 227.817C168.814 227.295 168.553 226.773 167.771 226.513C162.553 224.426 151.076 223.904 148.728 222.339C146.641 220.774 142.467 209.818 138.815 205.644C138.294 205.122 137.772 204.861 137.25 204.861C136.728 204.861 135.946 205.122 135.685 205.644C132.033 210.079 128.12 220.774 125.772 222.339C123.686 223.904 111.947 224.426 106.73 226.513C106.208 226.773 105.686 227.295 105.425 227.817C105.165 228.339 105.425 229.121 105.686 229.643C108.817 234.599 117.686 241.642 118.729 244.251C119.512 246.86 116.381 257.816 116.903 263.554C116.903 264.076 117.164 264.859 117.686 265.12C118.208 265.38 118.729 265.641 119.512 265.38C124.99 264.076 134.642 257.555 137.25 257.555C139.859 257.555 149.25 264.076 154.989 265.38Z" fill="#7B6A58"/>
<path fill-rule="evenodd" clip-rule="evenodd" d="M136.989 196.774C136.206 196.774 135.685 197.035 135.163 197.557C131.25 202.252 127.337 215.556 124.468 215.817C117.685 216.339 105.947 216.86 102.556 216.86C102.295 217.904 102.295 221.295 102.556 222.599C102.556 222.86 102.816 223.121 102.816 223.382C106.208 228.599 115.859 236.425 116.903 239.033C116.12 242.946 114.816 250.511 114.816 253.642C114.816 255.728 114.816 257.815 114.816 259.902C114.816 260.685 115.077 261.206 115.859 261.467C116.381 261.989 117.164 261.989 117.685 261.728C123.685 260.163 134.119 253.381 136.989 253.381C139.858 253.381 150.293 260.424 156.292 261.728C157.075 261.989 157.597 261.728 158.118 261.467C158.64 260.946 158.901 260.424 159.162 259.902C159.423 257.815 159.162 255.728 159.162 253.642C158.901 250.511 157.857 242.946 157.075 239.033C157.857 236.164 167.77 228.599 171.161 223.382C171.422 223.121 171.422 222.86 171.422 222.599C171.683 221.295 171.683 217.904 171.422 216.86C167.77 216.6 156.292 216.339 149.51 215.817C146.641 215.556 142.989 202.513 138.815 197.557C138.293 197.035 137.771 196.774 136.989 196.774Z" fill="url(#paint18_radial_533_3786)"/>
<path fill-rule="evenodd" clip-rule="evenodd" d="M156.292 256.772C157.075 257.033 157.597 256.772 158.118 256.511C158.64 255.99 158.901 255.468 159.162 254.946C159.684 248.686 156.292 236.686 157.075 234.078C157.858 231.208 167.77 223.643 171.161 218.426C171.422 217.904 171.683 217.122 171.422 216.6C171.161 215.818 170.64 215.557 170.118 215.296C164.379 212.948 151.858 212.426 149.51 210.861C147.162 209.035 142.989 197.557 138.815 192.601C138.293 192.079 137.771 191.819 136.989 191.819C136.206 191.819 135.685 192.079 135.163 192.601C131.25 197.297 126.815 209.035 124.468 210.861C122.12 212.687 109.599 212.948 103.86 215.296C103.338 215.557 102.816 216.078 102.556 216.6C102.295 217.383 102.295 217.904 102.816 218.426C106.208 223.643 115.859 231.469 116.903 234.078C117.685 236.947 114.294 248.947 114.816 254.946C114.816 255.729 115.077 256.251 115.859 256.511C116.381 257.033 117.164 257.033 117.685 256.772C123.685 255.207 134.119 248.425 136.989 248.425C140.119 248.425 150.293 255.207 156.292 256.772Z" fill="url(#paint19_radial_533_3786)"/>
<path fill-rule="evenodd" clip-rule="evenodd" d="M168.814 217.904C161.771 222.861 158.119 225.73 151.858 229.904C151.075 230.426 150.293 231.469 150.554 232.512C152.38 238.251 157.336 247.381 157.858 253.12C158.119 256.511 155.249 255.468 153.423 254.685C147.684 252.077 143.511 248.686 138.033 245.816C135.946 244.773 134.381 245.034 132.555 246.338C129.163 248.425 123.164 253.903 118.207 255.468C116.903 255.99 115.86 255.729 115.338 255.207C115.338 255.729 115.86 256.251 116.12 256.511C116.642 257.033 117.425 257.033 117.946 256.772C123.946 255.207 134.381 248.425 137.25 248.425C140.119 248.425 150.554 255.468 156.553 256.772C157.336 257.033 157.858 256.772 158.38 256.511C158.901 255.99 159.162 255.468 159.423 254.946C159.945 248.686 156.554 236.686 157.336 234.078C158.119 231.208 168.031 223.643 171.422 218.426C171.683 217.904 171.944 217.122 171.683 216.6C171.422 215.818 170.901 215.557 170.379 215.296C164.64 212.948 152.119 212.426 149.771 210.861C147.423 209.035 143.25 197.557 139.076 192.601C138.554 192.079 138.033 191.819 137.25 191.819C136.467 191.819 135.946 192.079 135.424 192.601C134.902 193.384 134.12 194.166 133.598 195.21C135.424 193.384 137.25 192.34 138.815 194.688C141.685 199.383 142.989 204.34 144.815 209.035C145.858 211.905 146.38 213.209 152.119 213.47C158.64 213.992 164.118 214.252 168.292 215.035C170.118 215.296 170.118 216.861 168.814 217.904Z" fill="url(#paint20_radial_533_3786)"/>
<path fill-rule="evenodd" clip-rule="evenodd" d="M117.425 215.818C116.121 215.557 116.382 214.252 117.686 213.992C119.512 213.47 121.599 213.47 123.425 212.948C125.251 212.426 126.555 211.905 127.599 209.557C129.685 205.383 131.772 199.905 133.859 196.253C134.642 194.949 135.424 195.21 135.424 196.514C134.642 201.21 133.598 205.905 132.294 210.6C131.511 212.948 130.729 215.557 127.599 215.818C125.251 216.078 120.034 216.339 117.425 215.818ZM112.73 214.252C111.165 214.252 108.295 214.774 106.469 215.296C104.382 216.078 104.904 216.339 106.73 216.6C108.556 216.6 110.643 216.6 112.469 216.6C115.077 216.339 114.817 213.992 112.73 214.252Z" fill="url(#paint21_radial_533_3786)"/>
<path fill-rule="evenodd" clip-rule="evenodd" d="M151.857 251.294C151.075 251.555 148.727 252.077 151.335 253.642C152.379 254.164 153.683 254.685 154.987 254.946C157.596 255.729 157.596 253.903 157.335 251.816C156.553 248.164 154.987 243.729 153.422 240.077C152.64 238.512 151.857 237.469 152.118 240.077C152.379 242.947 152.901 246.077 153.161 248.947C152.901 250.512 152.901 250.773 151.857 251.294Z" fill="url(#paint22_radial_533_3786)"/>
<path fill-rule="evenodd" clip-rule="evenodd" d="M116.903 238.773C117.163 236.426 117.424 234.6 117.163 233.817C116.381 230.948 106.468 223.383 103.077 218.166C102.816 217.905 102.816 217.383 102.816 216.861C102.555 217.905 102.555 221.296 102.816 222.6C102.816 222.861 103.077 223.122 103.077 223.383C106.207 228.6 115.337 235.643 116.903 238.773Z" fill="url(#paint23_radial_533_3786)"/>
<path fill-rule="evenodd" clip-rule="evenodd" d="M171.161 218.165C167.77 223.382 158.118 231.208 157.075 233.817C156.814 234.599 156.814 236.425 157.336 238.773C158.901 235.643 168.031 228.599 171.161 223.643C171.422 223.382 171.422 223.121 171.422 222.86C171.683 221.556 171.683 218.165 171.422 217.122C171.422 217.382 171.422 217.643 171.161 218.165Z" fill="url(#paint24_radial_533_3786)"/>
<path fill-rule="evenodd" clip-rule="evenodd" d="M156.292 256.772C150.293 255.207 139.858 248.425 136.989 248.425C138.032 248.946 137.771 253.12 136.989 253.903C139.858 253.903 150.293 260.946 156.292 262.25C157.075 262.511 157.597 262.25 158.118 261.989C158.64 261.467 158.901 260.946 159.162 260.424C159.423 258.337 159.162 256.25 159.162 254.163C159.162 254.424 159.162 254.685 159.162 254.946C159.162 255.729 158.901 256.25 158.118 256.511C157.597 256.772 157.075 257.033 156.292 256.772Z" fill="url(#paint25_radial_533_3786)"/>
<path opacity="0.5" fill-rule="evenodd" clip-rule="evenodd" d="M118.729 261.989C118.468 261.206 118.207 257.293 118.729 256.511C118.468 256.511 118.207 256.772 117.946 256.772C117.164 257.033 116.642 256.772 116.12 256.511C115.599 256.25 115.338 255.728 115.338 255.207V254.946C115.338 254.685 115.338 254.424 115.338 254.163C115.338 256.25 115.338 258.337 115.338 260.424C115.338 261.206 115.599 261.728 116.381 261.989C116.903 262.511 117.686 262.511 118.207 262.25C118.207 262.25 118.468 261.989 118.729 261.989Z" fill="url(#paint26_radial_533_3786)"/>
<path opacity="0.5" fill-rule="evenodd" clip-rule="evenodd" d="M155.51 261.989C155.771 261.206 156.031 257.293 155.51 256.511C155.771 256.511 156.031 256.772 156.292 256.772C157.075 257.033 157.597 256.772 158.118 256.511C158.64 256.25 158.901 255.728 158.901 255.207V254.946C158.901 254.685 158.901 254.424 158.901 254.163C158.901 256.25 158.901 258.337 158.901 260.424C158.901 261.206 158.64 261.728 157.857 261.989C157.336 262.511 156.553 262.511 156.031 262.25C156.031 262.25 155.771 261.989 155.51 261.989Z" fill="url(#paint27_radial_533_3786)"/>
<path opacity="0.5" fill-rule="evenodd" clip-rule="evenodd" d="M105.425 226.513C104.642 224.687 104.642 221.035 105.425 221.035C104.642 219.992 103.86 218.948 103.077 218.166C102.816 217.905 102.816 217.383 102.816 216.861C102.555 217.905 102.555 221.296 102.816 222.6C102.816 222.861 103.077 223.122 103.077 223.383C103.599 224.426 104.381 225.47 105.425 226.513Z" fill="url(#paint28_radial_533_3786)"/>
<path opacity="0.5" fill-rule="evenodd" clip-rule="evenodd" d="M168.813 226.513C169.596 224.687 169.596 221.035 168.813 221.035C169.596 219.992 170.379 218.948 171.161 218.166C171.422 217.905 171.422 217.383 171.422 216.861C171.683 217.905 171.683 221.296 171.422 222.6C171.422 222.861 171.161 223.122 171.161 223.383C170.379 224.426 169.857 225.47 168.813 226.513Z" fill="url(#paint29_radial_533_3786)"/>
<path opacity="0.75" fill-rule="evenodd" clip-rule="evenodd" d="M243.157 268.25C243.939 268.511 244.461 268.25 244.983 267.989C245.505 267.467 245.765 266.946 246.026 266.424C246.548 260.424 243.157 248.425 243.939 245.555C244.722 242.686 254.635 235.121 257.765 229.904C258.026 229.382 258.287 228.6 258.026 228.078C257.765 227.295 257.243 227.034 256.721 226.774C250.983 224.426 238.722 223.904 236.375 222.339C234.027 220.513 229.853 209.035 225.94 204.34C225.418 203.818 224.897 203.557 224.114 203.557C223.332 203.557 222.81 203.818 222.288 204.34C218.375 209.035 214.202 220.774 211.854 222.339C209.506 224.165 197.246 224.426 191.507 226.774C190.985 227.034 190.463 227.556 190.203 228.078C189.942 228.86 189.942 229.382 190.463 229.904C193.594 235.121 203.506 242.686 204.289 245.555C205.072 248.425 201.68 260.163 202.202 266.424C202.202 267.207 202.463 267.728 203.246 267.989C203.767 268.511 204.55 268.511 205.072 268.25C211.071 266.685 221.245 259.903 224.114 259.903C226.984 259.903 237.157 266.685 243.157 268.25Z" fill="#7B6A58"/>
<path fill-rule="evenodd" clip-rule="evenodd" d="M223.854 194.427C223.072 194.427 222.55 194.688 222.028 195.21C217.854 200.427 213.681 214.513 210.55 214.774C203.246 215.557 190.725 215.817 186.812 216.078C186.551 217.383 186.551 220.774 186.812 222.339C186.812 222.6 187.073 222.861 187.073 223.121C190.725 228.86 201.16 236.947 202.203 240.077C201.42 244.251 200.116 252.338 199.855 255.729C199.855 257.816 199.855 260.424 199.855 262.511C199.855 263.294 200.377 263.815 200.899 264.337C201.42 264.859 202.203 264.859 202.986 264.859C209.507 263.294 220.463 255.729 223.593 255.729C226.724 255.729 237.941 263.294 244.201 264.859C244.984 265.12 245.505 264.859 246.288 264.337C246.81 263.815 247.331 263.294 247.331 262.511C247.592 260.424 247.331 257.816 247.331 255.729C247.071 252.338 245.766 243.99 244.984 240.077C246.027 237.208 256.462 228.86 260.114 223.121C260.374 222.861 260.374 222.6 260.374 222.339C260.635 220.774 260.635 217.383 260.374 216.078C256.462 215.817 244.201 215.557 236.636 214.774C233.506 214.513 229.593 200.427 225.159 195.21C225.419 194.688 224.637 194.427 223.854 194.427Z" fill="url(#paint30_radial_533_3786)"/>
<path fill-rule="evenodd" clip-rule="evenodd" d="M244.723 258.859C245.506 259.12 246.028 258.859 246.81 258.337C247.332 257.815 247.854 257.294 247.854 256.511C248.375 249.99 244.723 236.947 245.506 234.077C246.549 231.208 256.984 222.86 260.636 217.121C261.157 216.6 261.157 215.817 260.896 215.035C260.636 214.252 260.114 213.73 259.592 213.469C253.332 210.861 240.028 210.6 237.419 208.774C234.811 206.948 230.376 194.427 225.941 189.21C225.42 188.688 224.898 188.427 224.115 188.427C223.333 188.427 222.811 188.688 222.289 189.21C218.116 194.427 213.42 206.948 210.812 208.774C208.203 210.6 194.899 211.122 188.639 213.469C187.856 213.73 187.334 214.252 187.334 215.035C187.074 215.817 187.074 216.339 187.595 217.121C191.247 222.86 201.682 230.947 202.725 234.077C203.769 236.947 200.116 249.99 200.377 256.511C200.377 257.294 200.899 257.815 201.421 258.337C201.943 258.859 202.725 258.859 203.508 258.859C210.029 257.294 220.985 249.729 224.115 249.729C227.246 249.729 238.202 257.294 244.723 258.859Z" fill="url(#paint31_radial_533_3786)"/>
<path fill-rule="evenodd" clip-rule="evenodd" d="M258.026 217.122C250.461 222.339 246.288 225.73 239.766 229.904C238.984 230.426 237.94 231.73 238.462 232.773C240.288 239.034 245.766 248.946 246.288 254.946C246.548 258.598 243.418 257.555 241.592 256.772C235.332 254.164 231.158 250.251 224.897 247.12C222.55 246.077 220.984 246.338 218.898 247.642C215.245 249.99 208.724 255.729 203.246 257.555C201.681 258.077 200.637 257.816 200.116 257.294C200.377 257.816 200.637 258.337 201.159 258.598C201.681 259.12 202.463 259.12 203.246 259.12C209.767 257.555 220.724 249.99 223.854 249.99C226.984 249.99 238.201 257.555 244.462 259.12C245.244 259.381 245.766 259.12 246.548 258.598C247.07 258.077 247.592 257.555 247.592 256.772C248.114 250.251 244.462 237.208 245.244 234.338C246.288 231.469 256.722 223.122 260.374 217.383C260.896 216.861 260.896 216.078 260.635 215.296C260.374 214.513 259.852 213.991 259.331 213.731C253.07 211.122 239.766 210.861 237.158 209.035C234.549 207.209 230.114 194.688 225.68 189.471C225.158 188.949 224.636 188.688 223.854 188.688C223.071 188.688 222.55 188.949 222.028 189.471C221.245 190.253 220.724 191.297 219.941 192.34C221.767 190.514 223.854 189.21 225.419 191.819C228.549 196.775 230.114 202.253 231.68 207.209C232.723 210.339 233.506 211.644 239.505 212.165C246.548 212.687 252.548 213.209 256.722 213.731C259.331 214.252 259.591 215.817 258.026 217.122Z" fill="url(#paint32_radial_533_3786)"/>
<path fill-rule="evenodd" clip-rule="evenodd" d="M202.724 214.774C201.42 214.513 201.681 212.948 202.985 212.687C205.072 212.165 207.159 212.165 209.246 211.644C211.333 211.122 212.637 210.339 213.941 207.992C216.028 203.557 218.376 197.557 220.724 193.644C221.506 192.079 222.55 192.34 222.289 193.905C221.506 199.122 220.463 203.818 218.898 209.035C218.115 211.644 217.332 214.252 213.941 214.774C211.072 215.296 205.333 215.296 202.724 214.774ZM197.768 213.209C196.203 213.209 193.073 213.73 190.986 214.513C188.899 215.296 189.16 215.817 191.247 215.817C193.333 215.817 195.42 215.817 197.507 215.817C200.377 215.296 199.855 212.948 197.768 213.209Z" fill="url(#paint33_radial_533_3786)"/>
<path fill-rule="evenodd" clip-rule="evenodd" d="M239.767 252.859C238.724 253.381 236.376 253.642 239.245 255.207C240.55 255.989 241.854 256.25 243.158 256.772C246.028 257.554 246.028 255.468 245.506 253.381C244.723 249.468 242.897 244.772 241.071 240.86C240.289 239.034 239.245 238.251 239.767 240.86C240.028 243.99 240.811 247.12 241.071 250.511C241.071 252.076 241.071 252.337 239.767 252.859Z" fill="url(#paint34_radial_533_3786)"/>
<path fill-rule="evenodd" clip-rule="evenodd" d="M202.203 239.556C202.464 237.208 202.725 235.121 202.464 234.077C201.421 231.208 190.986 222.861 187.334 217.122C187.074 216.6 187.074 216.339 187.074 215.817C186.813 217.122 186.813 220.513 187.074 222.078C187.074 222.339 187.334 222.6 187.334 222.861C190.726 228.599 200.377 236.164 202.203 239.556Z" fill="url(#paint35_radial_533_3786)"/>
<path fill-rule="evenodd" clip-rule="evenodd" d="M260.374 217.383C256.722 223.121 246.288 231.208 245.244 234.338C244.983 235.382 244.983 237.208 245.505 239.816C247.331 236.425 256.983 228.86 260.374 223.382C260.635 223.121 260.635 222.861 260.635 222.6C260.896 221.035 260.896 217.643 260.635 216.339C260.896 216.6 260.635 216.861 260.374 217.383Z" fill="url(#paint36_radial_533_3786)"/>
<path fill-rule="evenodd" clip-rule="evenodd" d="M244.723 258.859C238.202 257.294 227.246 249.729 224.115 249.729C225.159 250.251 225.159 254.946 224.115 255.468C227.246 255.468 238.462 263.033 244.723 264.598C245.506 264.859 246.027 264.598 246.81 264.076C247.332 263.554 247.853 263.033 247.853 262.25C248.114 260.163 247.853 257.816 247.853 255.729C247.853 255.99 247.853 256.25 247.853 256.511C247.853 257.294 247.332 257.816 246.81 258.337C246.027 258.859 245.245 259.12 244.723 258.859Z" fill="url(#paint37_radial_533_3786)"/>
<path opacity="0.5" fill-rule="evenodd" clip-rule="evenodd" d="M204.289 264.337C203.768 263.555 203.768 259.12 204.289 258.598C204.029 258.598 203.768 258.859 203.246 258.859C202.463 259.12 201.942 258.859 201.159 258.337C200.637 258.076 200.377 257.555 200.116 257.033C200.116 256.772 200.116 256.772 200.116 256.511C200.116 256.25 200.116 255.99 200.116 255.729C200.116 257.816 200.116 260.163 200.116 262.25C200.116 263.033 200.637 263.555 201.159 264.076C201.681 264.598 202.463 264.598 203.246 264.598C203.507 264.598 203.768 264.598 204.289 264.337Z" fill="url(#paint38_radial_533_3786)"/>
<path opacity="0.5" fill-rule="evenodd" clip-rule="evenodd" d="M243.679 264.337C244.201 263.555 244.201 259.12 243.679 258.598C243.94 258.598 244.201 258.859 244.723 258.859C245.505 259.12 246.027 258.859 246.81 258.337C247.331 258.076 247.592 257.555 247.853 257.033C247.853 256.772 247.853 256.772 247.853 256.511C247.853 256.25 247.853 255.99 247.853 255.729C247.853 257.816 247.853 260.163 247.853 262.25C247.853 263.033 247.331 263.555 246.81 264.076C246.288 264.598 245.505 264.598 244.723 264.598C244.201 264.598 243.94 264.598 243.679 264.337Z" fill="url(#paint39_radial_533_3786)"/>
<path opacity="0.5" fill-rule="evenodd" clip-rule="evenodd" d="M189.682 226.252C188.9 224.426 188.9 220.513 189.682 220.513C188.639 219.47 187.856 218.426 187.334 217.383C187.074 216.861 187.074 216.6 187.074 216.078C186.813 217.383 186.813 220.774 187.074 222.339C187.074 222.6 187.334 222.861 187.334 223.122C188.117 224.165 188.9 225.208 189.682 226.252Z" fill="url(#paint40_radial_533_3786)"/>
<path opacity="0.5" fill-rule="evenodd" clip-rule="evenodd" d="M258.026 226.252C258.809 224.426 258.809 220.513 258.026 220.513C259.07 219.47 259.852 218.426 260.374 217.383C260.635 216.861 260.635 216.6 260.635 216.078C260.896 217.383 260.896 220.774 260.635 222.339C260.635 222.6 260.374 222.861 260.374 223.122C259.852 224.165 259.07 225.208 258.026 226.252Z" fill="url(#paint41_radial_533_3786)"/>
<path opacity="0.75" fill-rule="evenodd" clip-rule="evenodd" d="M328.46 265.38C328.981 265.641 329.764 265.38 330.286 265.12C330.807 264.859 331.068 264.076 331.068 263.554C331.59 257.816 328.199 246.86 329.242 244.251C330.025 241.642 339.155 234.599 342.285 229.643C342.546 229.121 342.807 228.599 342.546 227.817C342.285 227.295 342.024 226.773 341.242 226.513C336.025 224.426 324.547 223.904 322.199 222.339C320.112 220.774 315.938 209.818 312.286 205.644C311.765 205.122 311.243 204.861 310.721 204.861C310.2 204.861 309.417 205.122 309.156 205.644C305.504 210.079 301.591 220.774 299.244 222.339C297.157 223.904 285.418 224.426 280.201 226.513C279.679 226.773 279.157 227.295 278.897 227.817C278.636 228.339 278.897 229.121 279.157 229.643C282.288 234.599 291.157 241.642 292.2 244.251C292.983 246.86 289.853 257.816 290.374 263.554C290.374 264.076 290.635 264.859 291.157 265.12C291.679 265.38 292.2 265.641 292.983 265.38C298.461 264.076 308.113 257.555 310.721 257.555C313.33 257.555 322.982 264.076 328.46 265.38Z" fill="#7B6A58"/>
<path fill-rule="evenodd" clip-rule="evenodd" d="M310.721 196.774C309.938 196.774 309.416 197.035 308.895 197.557C304.982 202.252 301.069 215.556 298.2 215.817C291.417 216.339 279.679 216.86 276.287 216.86C276.027 217.904 276.027 221.295 276.287 222.599C276.287 222.86 276.548 223.121 276.548 223.382C279.939 228.599 289.591 236.425 290.635 239.033C289.852 242.946 288.548 250.511 288.548 253.642C288.548 255.728 288.548 257.815 288.548 259.902C288.548 260.685 288.809 261.206 289.591 261.467C290.113 261.989 290.895 261.989 291.417 261.728C297.417 260.163 307.851 253.381 310.721 253.381C313.59 253.381 324.025 260.424 330.024 261.728C330.807 261.989 331.329 261.728 331.85 261.467C332.372 260.946 332.633 260.424 332.894 259.902C333.155 257.815 332.894 255.728 332.894 253.642C332.633 250.511 331.589 242.946 330.807 239.033C331.589 236.164 341.502 228.599 344.893 223.382C345.154 223.121 345.154 222.86 345.154 222.599C345.415 221.295 345.415 217.904 345.154 216.86C341.502 216.6 330.024 216.339 323.242 215.817C320.373 215.556 316.72 202.513 312.547 197.557C312.025 197.035 311.503 196.774 310.721 196.774Z" fill="url(#paint42_radial_533_3786)"/>
<path fill-rule="evenodd" clip-rule="evenodd" d="M330.024 256.772C330.806 257.033 331.328 256.772 331.85 256.511C332.372 255.99 332.632 255.468 332.893 254.946C333.415 248.686 330.024 236.686 330.806 234.078C331.589 231.208 341.502 223.643 344.893 218.426C345.154 217.904 345.415 217.122 345.154 216.6C344.893 215.818 344.371 215.557 343.849 215.296C338.11 212.948 325.589 212.426 323.242 210.861C320.894 209.035 316.72 197.557 312.546 192.601C312.025 192.079 311.503 191.819 310.72 191.819C309.938 191.819 309.416 192.079 308.894 192.601C304.982 197.297 300.547 209.035 298.199 210.861C295.851 212.687 283.33 212.948 277.591 215.296C277.07 215.557 276.548 216.078 276.287 216.6C276.026 217.383 276.026 217.904 276.548 218.426C279.939 223.643 289.591 231.469 290.634 234.078C291.417 236.947 288.026 248.947 288.547 254.946C288.547 255.729 288.808 256.251 289.591 256.511C290.113 257.033 290.895 257.033 291.417 256.772C297.417 255.207 307.851 248.425 310.72 248.425C313.59 248.425 324.024 255.207 330.024 256.772Z" fill="url(#paint43_radial_533_3786)"/>
<path fill-rule="evenodd" clip-rule="evenodd" d="M342.285 217.904C335.241 222.861 331.589 225.73 325.329 229.904C324.546 230.426 323.764 231.469 324.024 232.512C325.85 238.251 330.807 247.381 331.329 253.12C331.589 256.511 328.72 255.468 326.894 254.685C321.155 252.077 316.981 248.686 311.503 245.816C309.416 244.773 307.851 245.034 306.025 246.338C302.634 248.425 296.634 253.903 291.678 255.468C290.374 255.99 289.33 255.729 288.809 255.207C288.809 255.729 289.33 256.251 289.591 256.511C290.113 257.033 290.895 257.033 291.417 256.772C297.417 255.207 307.851 248.425 310.721 248.425C313.59 248.425 324.024 255.468 330.024 256.772C330.807 257.033 331.328 256.772 331.85 256.511C332.372 255.99 332.633 255.468 332.894 254.946C333.415 248.686 330.024 236.686 330.807 234.078C331.589 231.208 341.502 223.643 344.893 218.426C345.154 217.904 345.415 217.122 345.154 216.6C344.893 215.818 344.371 215.557 343.85 215.296C338.111 212.948 325.59 212.426 323.242 210.861C320.894 209.035 316.72 197.557 312.547 192.601C312.025 192.079 311.503 191.819 310.721 191.819C309.938 191.819 309.416 192.079 308.895 192.601C308.373 193.384 307.59 194.166 307.069 195.21C308.895 193.384 310.721 192.34 312.286 194.688C315.155 199.383 316.46 204.34 318.286 209.035C319.329 211.905 319.851 213.209 325.59 213.47C332.111 213.992 337.589 214.252 341.763 215.035C343.85 215.296 343.85 216.861 342.285 217.904Z" fill="url(#paint44_radial_533_3786)"/>
<path fill-rule="evenodd" clip-rule="evenodd" d="M291.157 215.818C289.853 215.557 290.114 214.252 291.418 213.992C293.244 213.47 295.331 213.47 297.157 212.948C298.983 212.426 300.287 211.905 301.331 209.557C303.417 205.383 305.504 199.905 307.591 196.253C308.374 194.949 309.156 195.21 309.156 196.514C308.374 201.21 307.33 205.905 306.026 210.6C305.243 212.948 304.461 215.557 301.331 215.818C298.722 216.078 293.505 216.339 291.157 215.818ZM286.462 214.252C284.896 214.252 282.027 214.774 280.201 215.296C278.114 216.078 278.636 216.339 280.462 216.6C282.288 216.6 284.375 216.6 286.201 216.6C288.809 216.339 288.548 213.992 286.462 214.252Z" fill="url(#paint45_radial_533_3786)"/>
<path fill-rule="evenodd" clip-rule="evenodd" d="M325.329 251.294C324.547 251.555 322.199 252.077 324.808 253.642C325.851 254.164 327.155 254.685 328.46 254.946C331.068 255.729 331.068 253.903 330.807 251.816C330.025 248.164 328.46 243.729 326.894 240.077C326.112 238.512 325.329 237.469 325.59 240.077C325.851 242.947 326.373 246.077 326.634 248.947C326.634 250.512 326.634 250.773 325.329 251.294Z" fill="url(#paint46_radial_533_3786)"/>
<path fill-rule="evenodd" clip-rule="evenodd" d="M290.635 238.773C290.896 236.426 291.157 234.6 290.896 233.817C290.113 230.948 280.201 223.383 276.81 218.166C276.549 217.905 276.549 217.383 276.549 216.861C276.288 217.905 276.288 221.296 276.549 222.6C276.549 222.861 276.81 223.122 276.81 223.383C279.94 228.6 288.809 235.643 290.635 238.773Z" fill="url(#paint47_radial_533_3786)"/>
<path fill-rule="evenodd" clip-rule="evenodd" d="M344.632 218.165C341.241 223.382 331.589 231.208 330.546 233.817C330.285 234.599 330.285 236.425 330.807 238.773C332.372 235.643 341.502 228.599 344.632 223.643C344.893 223.382 344.893 223.121 344.893 222.86C345.154 221.556 345.154 218.165 344.893 217.122C344.893 217.382 344.893 217.643 344.632 218.165Z" fill="url(#paint48_radial_533_3786)"/>
<path fill-rule="evenodd" clip-rule="evenodd" d="M330.024 256.772C324.024 255.207 313.59 248.425 310.72 248.425C311.764 248.946 311.503 253.12 310.72 253.903C313.59 253.903 324.024 260.946 330.024 262.25C330.806 262.511 331.328 262.25 331.85 261.989C332.371 261.467 332.632 260.946 332.893 260.424C333.154 258.337 332.893 256.25 332.893 254.163C332.893 254.424 332.893 254.685 332.893 254.946C332.893 255.729 332.632 256.25 331.85 256.511C331.328 256.772 330.545 257.033 330.024 256.772Z" fill="url(#paint49_radial_533_3786)"/>
<path opacity="0.5" fill-rule="evenodd" clip-rule="evenodd" d="M292.461 261.989C292.2 261.206 291.939 257.293 292.461 256.511C292.2 256.511 291.939 256.772 291.678 256.772C290.895 257.033 290.374 256.772 289.852 256.511C289.33 256.25 289.069 255.728 289.069 255.207V254.946C289.069 254.685 289.069 254.424 289.069 254.163C289.069 256.25 289.069 258.337 289.069 260.424C289.069 261.206 289.33 261.728 290.113 261.989C290.634 262.511 291.417 262.511 291.939 262.25C291.678 262.25 292.2 261.989 292.461 261.989Z" fill="url(#paint50_radial_533_3786)"/>
<path opacity="0.5" fill-rule="evenodd" clip-rule="evenodd" d="M328.98 261.989C329.241 261.206 329.502 257.293 328.98 256.511C329.241 256.511 329.502 256.772 329.763 256.772C330.546 257.033 331.067 256.772 331.589 256.511C332.111 256.25 332.372 255.728 332.372 255.207V254.946C332.372 254.685 332.372 254.424 332.372 254.163C332.372 256.25 332.372 258.337 332.372 260.424C332.372 261.206 332.111 261.728 331.328 261.989C330.806 262.511 330.024 262.511 329.502 262.25C329.763 262.25 329.241 261.989 328.98 261.989Z" fill="url(#paint51_radial_533_3786)"/>
<path opacity="0.5" fill-rule="evenodd" clip-rule="evenodd" d="M278.896 226.513C278.113 224.687 278.113 221.035 278.896 221.035C278.113 219.992 277.331 218.948 276.548 218.166C276.287 217.905 276.287 217.383 276.287 216.861C276.027 217.905 276.027 221.296 276.287 222.6C276.287 222.861 276.548 223.122 276.548 223.383C277.331 224.426 278.113 225.47 278.896 226.513Z" fill="url(#paint52_radial_533_3786)"/>
<path opacity="0.5" fill-rule="evenodd" clip-rule="evenodd" d="M342.545 226.513C343.328 224.687 343.328 221.035 342.545 221.035C343.328 219.992 344.111 218.948 344.893 218.166C345.154 217.905 345.154 217.383 345.154 216.861C345.415 217.905 345.415 221.296 345.154 222.6C345.154 222.861 344.893 223.122 344.893 223.383C344.111 224.426 343.328 225.47 342.545 226.513Z" fill="url(#paint53_radial_533_3786)"/>
<path d="M138.815 64.1707C138.554 64.1707 138.032 64.4315 137.25 64.4315C136.467 64.6924 135.685 64.6924 135.163 64.6924C133.598 64.6924 132.554 64.6924 131.772 64.1707C130.989 63.649 130.467 62.6055 130.467 61.0404L129.946 54.5189C129.163 53.4755 128.12 52.1712 127.076 50.606C126.033 49.3017 124.989 47.7366 123.946 46.1714C122.903 44.6063 122.12 43.302 121.077 41.7369C120.294 40.4326 119.511 38.8674 118.99 37.824C119.251 37.3023 120.033 36.5197 120.555 35.998C121.337 35.4763 122.12 35.2154 123.163 35.2154C124.468 35.2154 125.511 35.4763 126.294 35.7371C127.076 36.2588 127.859 37.0414 128.641 38.6066L133.076 46.4323H133.337C133.859 45.3889 134.12 44.3454 134.38 43.5629C134.641 42.7803 134.902 41.9977 135.163 40.9543C135.424 40.1717 135.685 39.1283 135.946 38.3457C136.206 37.5631 136.728 36.2588 136.989 35.2154C137.511 34.9545 138.293 34.6937 138.815 34.4328C139.598 34.172 140.119 34.172 140.902 34.172C141.945 34.172 142.989 34.4328 143.771 34.9545C144.554 35.4763 145.076 36.2588 145.076 37.5631C145.076 37.824 145.076 38.3457 144.815 38.8674C144.554 39.3891 144.293 40.1717 143.771 41.476C143.25 42.5194 142.467 44.0846 141.424 46.1714C140.38 48.2583 139.076 50.606 137.25 53.9972L138.815 64.1707ZM148.728 49.0409C148.728 46.4323 148.988 44.3454 149.771 42.2586C150.554 40.1717 151.597 38.6066 152.901 37.3023C154.206 35.998 155.771 34.9545 157.597 34.172C159.423 33.3894 161.51 33.1285 163.597 32.8677C165.683 32.8677 167.77 33.1285 169.596 33.6502C171.422 34.172 173.248 35.2154 174.553 36.5197C175.857 37.824 177.161 39.3891 177.944 41.2151C178.726 43.0411 179.248 45.3889 179.248 47.9975C179.248 50.606 178.987 52.6929 178.205 54.7798C177.422 56.8666 176.379 58.4318 175.074 59.7361C173.77 61.0404 172.205 62.0838 170.379 62.8664C168.553 63.649 166.466 63.9098 164.379 64.1707C162.292 64.1707 160.205 63.9098 158.118 63.3881C156.292 62.8664 154.466 61.8229 153.162 60.5187C151.858 59.2144 150.554 57.6492 149.771 55.5623C149.249 53.7363 148.728 51.3886 148.728 49.0409ZM157.597 48.78C157.597 51.6495 158.379 53.9972 159.684 55.3015C160.988 56.6058 162.553 57.3884 164.64 57.3884C166.727 57.3884 168.292 56.6058 169.335 55.0406C170.379 53.4755 171.161 51.3886 170.901 48.2583C170.901 45.3889 170.118 43.0411 169.075 41.7369C167.77 40.4326 166.205 39.65 164.118 39.65C162.031 39.65 160.466 40.4326 159.423 41.9977C158.118 43.5629 157.336 45.9106 157.597 48.78ZM211.073 51.9103C211.073 53.7363 210.812 55.3015 210.29 56.6058C209.768 58.1709 208.725 59.2144 207.682 60.2578C206.638 61.3012 205.073 62.0838 203.508 62.6055C201.943 63.1272 200.117 63.3881 198.03 63.3881C195.943 63.3881 194.117 63.1272 192.552 62.6055C190.987 62.0838 189.421 61.3012 188.378 60.2578C187.335 59.2144 186.291 57.9101 185.769 56.6058C185.248 55.0406 184.726 53.4755 184.726 51.9103L184.465 33.3894C184.726 33.3894 185.509 33.1285 186.291 33.1285C187.074 33.1285 187.856 32.8677 188.639 32.8677C189.421 32.8677 189.943 32.8677 190.726 33.1285C191.247 33.1285 191.769 33.3894 192.291 33.6502C192.813 33.9111 193.073 34.4328 193.073 34.9545C193.334 35.4763 193.334 36.2588 193.334 37.0414V51.9103C193.334 53.4755 193.856 54.7798 194.639 55.5623C195.421 56.3449 196.726 56.8666 198.03 56.8666C199.334 56.8666 200.638 56.3449 201.421 55.5623C202.204 54.7798 202.725 53.4755 202.725 51.9103L202.464 33.3894C202.725 33.3894 203.508 33.1285 204.29 33.1285C205.073 33.1285 205.856 32.8677 206.638 32.8677C207.421 32.8677 207.942 32.8677 208.725 33.1285C209.247 33.1285 209.768 33.3894 210.29 33.6502C210.812 33.9111 211.073 34.4328 211.073 34.9545C211.334 35.4763 211.334 36.2588 211.334 37.0414L211.073 51.9103ZM240.811 40.4326C241.071 40.1717 241.854 40.1717 242.376 39.9108C243.158 39.65 243.941 39.65 244.723 39.65C246.028 39.65 247.332 39.9108 248.115 40.1717C248.897 40.6934 249.68 41.2151 249.68 41.9977C249.941 43.302 250.462 44.6063 250.723 45.6497C250.984 46.6932 251.245 47.9975 251.506 49.0409C251.767 50.0843 252.027 51.1278 252.288 52.1712C252.549 53.2146 252.81 54.2581 253.071 55.5623H253.332C253.593 53.4755 253.853 51.6495 254.114 49.8235C254.375 47.9975 254.636 46.1715 254.897 44.6063C255.158 42.7803 255.419 41.2151 255.419 39.3891C255.679 37.5631 255.94 35.998 255.94 34.172C257.245 33.3894 258.549 33.1285 259.853 33.1285C261.158 33.1285 262.201 33.3894 262.984 33.9111C263.766 34.4328 264.288 35.2154 264.288 36.5197C264.288 37.3023 264.288 38.3457 264.027 39.65C263.766 40.9543 263.766 42.5194 263.505 44.0846C263.244 45.6497 262.984 47.4757 262.723 49.3017C262.462 51.1278 261.94 52.6929 261.679 54.5189C261.418 56.0841 260.897 57.6492 260.636 58.9535C260.375 60.2578 259.853 61.3012 259.592 62.0838C259.071 62.6055 258.288 62.8664 257.245 63.1272C256.201 63.3881 254.897 63.649 253.853 63.649C252.288 63.649 250.984 63.3881 249.941 63.1272C248.897 62.6055 248.375 62.0838 248.115 61.3012C247.593 59.9969 247.332 58.4318 246.81 56.6058C246.289 54.7798 245.767 52.9538 245.245 50.606C244.723 52.6929 244.202 54.7798 243.68 56.8666C243.158 58.9535 242.637 60.5187 242.376 62.0838C241.854 62.6055 241.071 62.8664 240.289 63.1272C239.245 63.3881 238.202 63.649 237.159 63.649C235.593 63.649 234.289 63.3881 233.246 63.1272C231.941 62.6055 231.42 62.0838 230.898 61.3012C230.637 60.7795 230.376 59.7361 229.855 58.6926C229.594 57.6492 229.072 56.3449 228.811 54.7798C228.55 53.2146 228.029 51.6495 227.768 50.0843C227.507 48.2583 226.985 46.6932 226.724 44.8672C226.463 43.0411 226.203 41.476 225.942 39.9108C225.681 38.3457 225.42 36.7806 225.42 35.4763C225.942 34.9545 226.463 34.6937 227.246 34.4328C228.029 34.172 228.811 33.9111 229.855 33.9111C231.159 33.9111 232.202 34.172 232.985 34.6937C233.767 35.2154 234.289 36.2588 234.55 37.3023C235.072 40.6934 235.593 43.302 235.854 45.6497C236.115 47.7366 236.376 49.5626 236.637 51.1278C236.898 52.4321 236.898 53.7363 237.159 54.5189C237.159 55.3015 237.419 55.8232 237.419 56.3449H237.68C237.941 55.0406 238.202 53.7363 238.463 52.6929C238.724 51.6495 238.985 50.606 239.245 49.3017C239.506 48.2583 239.767 46.954 240.028 45.6497C240.028 43.5629 240.55 42.2586 240.811 40.4326ZM277.592 63.1272C277.331 63.1272 276.548 63.3881 276.026 63.3881C275.244 63.3881 274.461 63.3881 273.679 63.3881C272.896 63.3881 272.374 63.3881 271.592 63.1272C271.07 63.1272 270.548 62.8664 270.288 62.6055C270.027 62.3447 269.505 61.8229 269.505 61.3012C269.244 60.7795 269.244 59.9969 269.244 59.2144L269.766 33.3894C270.027 33.3894 270.809 33.1285 271.592 33.1285C272.374 33.1285 273.157 32.8677 273.94 33.1285C274.722 33.1285 275.244 33.1285 276.026 33.3894C276.548 33.3894 277.07 33.6502 277.331 33.9111C277.592 34.172 278.113 34.6937 278.113 35.2154C278.374 35.7371 278.374 36.5197 278.374 37.3023L277.592 63.1272ZM310.721 63.3881C310.199 63.9098 309.677 64.1707 308.634 64.4315C307.851 64.6924 306.808 64.6924 305.503 64.6924C304.199 64.6924 303.156 64.4315 302.112 63.9098C301.069 63.3881 300.286 62.6055 299.504 61.3012L295.069 51.3886C294.547 50.3452 294.287 49.3018 293.765 48.5192C293.504 47.7366 292.982 46.4323 292.721 45.3889H292.461C292.461 47.2149 292.461 49.0409 292.461 50.8669C292.461 52.6929 292.46 54.5189 292.2 56.3449L291.939 63.9098C291.678 63.9098 291.156 64.1707 290.374 64.1707C289.591 64.1707 288.808 64.1707 288.287 64.1707C287.504 64.1707 286.982 64.1707 286.461 63.9098C285.939 63.9098 285.417 63.649 285.156 63.3881C284.896 63.1272 284.635 62.6055 284.374 62.0838C284.113 61.5621 284.113 61.0404 284.113 59.9969L285.156 35.7371C285.678 35.2154 286.461 34.6937 287.243 34.4328C288.287 34.172 289.33 33.9111 290.374 34.172C291.678 34.172 292.721 34.4328 293.765 34.9545C294.808 35.4763 295.591 36.2588 296.373 37.5631L300.808 47.4757C301.33 48.5192 301.591 49.5626 302.112 50.3452C302.373 51.1278 302.895 52.432 303.156 53.4755H303.417C303.417 51.6495 303.417 50.0843 303.417 48.2583C303.417 46.4323 303.417 44.8672 303.677 43.0411L303.938 35.2154C304.199 35.2154 304.721 34.9545 305.503 34.9545C306.286 34.9545 307.069 34.9545 307.59 34.9545C308.895 34.9545 310.199 35.2154 310.721 35.7371C311.503 36.2588 311.764 37.3023 311.764 38.8674L310.721 63.3881ZM327.155 37.0414C327.155 37.824 326.894 38.8674 326.894 40.1717C326.894 41.476 326.633 43.0412 326.372 44.6063C326.111 46.1715 325.85 47.9975 325.59 49.5626C325.329 51.1278 325.068 52.6929 324.807 53.7363C324.546 53.7363 324.546 53.9972 324.285 53.9972C324.024 53.9972 323.763 54.2581 323.503 54.2581C323.242 54.2581 322.981 54.2581 322.72 54.2581C322.459 54.2581 322.198 54.2581 321.938 54.2581C320.894 54.2581 320.111 53.9972 319.59 53.7363C319.068 53.4755 318.546 52.6929 318.546 51.9103C318.546 51.1278 318.285 50.0843 318.285 48.5192C318.285 46.954 318.285 45.3889 318.285 43.5629C318.285 41.7369 318.285 39.9108 318.546 38.3457C318.546 36.5197 318.807 35.2154 318.807 33.9111C319.59 33.6502 320.111 33.3894 321.155 33.1285C321.938 32.8677 322.72 32.8677 323.503 32.8677C324.807 32.8677 325.85 33.3894 326.633 33.9111C327.155 34.9545 327.416 35.7371 327.155 37.0414ZM316.72 61.0404C316.72 59.7361 317.242 58.6926 318.285 57.9101C319.068 57.1275 320.372 56.8666 321.677 56.8666C323.242 56.8666 324.285 57.3884 325.068 58.4318C325.85 59.4752 326.111 60.5187 326.111 61.8229C326.111 63.1272 325.59 64.1707 324.546 64.9532C323.764 65.7358 322.459 65.9967 321.155 65.9967C319.59 65.9967 318.546 65.475 317.764 64.4315C316.981 63.3881 316.72 62.3447 316.72 61.0404Z" fill="url(#paint54_linear_533_3786)"/>
<path fill-rule="evenodd" clip-rule="evenodd" d="M279.157 403.026H168.553C153.423 403.026 141.163 390.766 141.163 375.636C141.163 360.506 153.423 348.246 168.553 348.246C211.746 348.246 235.963 348.246 279.157 348.246C294.286 348.246 306.547 360.506 306.547 375.636C306.547 390.766 294.286 403.026 279.157 403.026Z" fill="#46429D"/>
<path fill-rule="evenodd" clip-rule="evenodd" d="M167.249 350.594H280.722C289.852 350.594 297.939 355.028 302.895 362.072C298.2 353.985 289.33 348.246 279.157 348.246H168.553C158.38 348.246 149.51 353.724 144.815 362.072C150.032 355.028 158.119 350.594 167.249 350.594Z" fill="#46429D"/>
<path fill-rule="evenodd" clip-rule="evenodd" d="M279.157 403.027H168.553C153.684 403.027 141.423 391.027 141.163 375.897V376.158C141.163 391.288 153.423 403.548 168.553 403.548H279.157C294.286 403.548 306.547 391.288 306.547 376.158V375.897C306.286 390.766 294.026 403.027 279.157 403.027Z" fill="#46429D"/>
<defs>
<linearGradient id="paint0_linear_533_3786" x1="223.884" y1="473.488" x2="223.884" y2="19.3137" gradientUnits="userSpaceOnUse">
<stop stop-color="#6561C0"/>
<stop offset="1" stop-color="#6561C0"/>
</linearGradient>
<radialGradient id="paint1_radial_533_3786" cx="0" cy="0" r="1" gradientUnits="userSpaceOnUse" gradientTransform="translate(275.624 351.825) scale(295.113 295.113)">
<stop stop-color="white"/>
<stop offset="1" stop-color="#A48A7B"/>
</radialGradient>
<radialGradient id="paint2_radial_533_3786" cx="0" cy="0" r="1" gradientUnits="userSpaceOnUse" gradientTransform="translate(233.171 -118.083) scale(258.019 258.019)">
<stop stop-color="#A48A7B"/>
<stop offset="1" stop-color="white"/>
</radialGradient>
<linearGradient id="paint3_linear_533_3786" x1="16.9526" y1="119.931" x2="73.4224" y2="97.1156" gradientUnits="userSpaceOnUse">
<stop stop-color="#064203"/>
<stop offset="0.0332686" stop-color="#0D4E07"/>
<stop offset="0.2162" stop-color="#318C1B"/>
<stop offset="0.3502" stop-color="#47B328"/>
<stop offset="0.42" stop-color="#50C22D"/>
<stop offset="0.4296" stop-color="#4FC02C"/>
<stop offset="0.5968" stop-color="#3A9B19"/>
<stop offset="0.7528" stop-color="#2B810B"/>
<stop offset="0.8919" stop-color="#227103"/>
<stop offset="1" stop-color="#1F6B00"/>
</linearGradient>
<linearGradient id="paint4_linear_533_3786" x1="51.0737" y1="106.637" x2="78.3679" y2="106.637" gradientUnits="userSpaceOnUse">
<stop stop-color="#006633"/>
<stop offset="1" stop-color="#009933"/>
</linearGradient>
<linearGradient id="paint5_linear_533_3786" x1="9.21893" y1="103.443" x2="39.3595" y2="91.266" gradientUnits="userSpaceOnUse">
<stop stop-color="#0D8C07"/>
<stop offset="0.1636" stop-color="#219C1B"/>
<stop offset="0.5034" stop-color="#5CDE33"/>
<stop offset="0.5087" stop-color="#5BDC32"/>
<stop offset="0.5856" stop-color="#49BF20"/>
<stop offset="0.6678" stop-color="#3BA912"/>
<stop offset="0.7573" stop-color="#319908"/>
<stop offset="0.8591" stop-color="#2B9002"/>
<stop offset="1" stop-color="#298D00"/>
</linearGradient>
<radialGradient id="paint6_radial_533_3786" cx="0" cy="0" r="1" gradientUnits="userSpaceOnUse" gradientTransform="translate(11.2152 52.5982) scale(80.4271 80.4271)">
<stop offset="0.00371747" stop-color="#3AAA35"/>
<stop offset="1" stop-color="#0D010D"/>
</radialGradient>
<linearGradient id="paint7_linear_533_3786" x1="8.24903" y1="100.952" x2="37.9767" y2="88.9417" gradientUnits="userSpaceOnUse">
<stop stop-color="#D7F0B9"/>
<stop offset="0.3941" stop-color="white"/>
<stop offset="1" stop-color="#E5FF9C"/>
</linearGradient>
<linearGradient id="paint8_linear_533_3786" x1="374.383" y1="97.1153" x2="430.854" y2="119.931" gradientUnits="userSpaceOnUse">
<stop stop-color="#1F6B00"/>
<stop offset="0.1081" stop-color="#227103"/>
<stop offset="0.2472" stop-color="#2B810B"/>
<stop offset="0.4032" stop-color="#3A9B19"/>
<stop offset="0.5704" stop-color="#4FC02C"/>
<stop offset="0.58" stop-color="#50C22D"/>
<stop offset="0.6498" stop-color="#47B328"/>
<stop offset="0.7838" stop-color="#318C1B"/>
<stop offset="0.9667" stop-color="#0D4E07"/>
<stop offset="1" stop-color="#064203"/>
</linearGradient>
<linearGradient id="paint9_linear_533_3786" x1="369.438" y1="106.637" x2="396.732" y2="106.637" gradientUnits="userSpaceOnUse">
<stop stop-color="#009933"/>
<stop offset="1" stop-color="#006633"/>
</linearGradient>
<linearGradient id="paint10_linear_533_3786" x1="408.445" y1="91.2655" x2="438.586" y2="103.443" gradientUnits="userSpaceOnUse">
<stop stop-color="#0D8C07"/>
<stop offset="0.1636" stop-color="#219C1B"/>
<stop offset="0.5034" stop-color="#5CDE33"/>
<stop offset="0.5087" stop-color="#5BDC32"/>
<stop offset="0.5856" stop-color="#49BF20"/>
<stop offset="0.6678" stop-color="#3BA912"/>
<stop offset="0.7573" stop-color="#319908"/>
<stop offset="0.8591" stop-color="#2B9002"/>
<stop offset="1" stop-color="#298D00"/>
</linearGradient>
<radialGradient id="paint11_radial_533_3786" cx="0" cy="0" r="1" gradientUnits="userSpaceOnUse" gradientTransform="translate(447.685 50.3791) scale(79.8644 79.8644)">
<stop offset="0.00371747" stop-color="#3AAA35"/>
<stop offset="1" stop-color="#0D010D"/>
</radialGradient>
<linearGradient id="paint12_linear_533_3786" x1="409.828" y1="88.942" x2="439.556" y2="100.953" gradientUnits="userSpaceOnUse">
<stop stop-color="#E5FF9C"/>
<stop offset="0.6059" stop-color="white"/>
<stop offset="1" stop-color="#D7F0B9"/>
</linearGradient>
<radialGradient id="paint13_radial_533_3786" cx="0" cy="0" r="1" gradientUnits="userSpaceOnUse" gradientTransform="translate(-49.0552 104.235) scale(278.697 278.697)">
<stop offset="0.3285" stop-color="#3AAA35"/>
<stop offset="0.3696" stop-color="#5CDE33"/>
<stop offset="0.3705" stop-color="#5BDC32"/>
<stop offset="0.3841" stop-color="#49BF20"/>
<stop offset="0.3986" stop-color="#3BA912"/>
<stop offset="0.4144" stop-color="#319908"/>
<stop offset="0.4324" stop-color="#2B9002"/>
<stop offset="0.4572" stop-color="#298D00"/>
<stop offset="0.6259" stop-color="#379F04"/>
<stop offset="0.8319" stop-color="#43AE07"/>
<stop offset="1" stop-color="#47B308"/>
</radialGradient>
<radialGradient id="paint14_radial_533_3786" cx="0" cy="0" r="1" gradientUnits="userSpaceOnUse" gradientTransform="translate(496.862 104.235) rotate(180) scale(278.696 278.696)">
<stop offset="0.3285" stop-color="#3AAA35"/>
<stop offset="0.3696" stop-color="#5CDE33"/>
<stop offset="0.3705" stop-color="#5BDC32"/>
<stop offset="0.3841" stop-color="#49BF20"/>
<stop offset="0.3986" stop-color="#3BA912"/>
<stop offset="0.4144" stop-color="#319908"/>
<stop offset="0.4324" stop-color="#2B9002"/>
<stop offset="0.4572" stop-color="#298D00"/>
<stop offset="0.6259" stop-color="#379F04"/>
<stop offset="0.8319" stop-color="#43AE07"/>
<stop offset="1" stop-color="#47B308"/>
</radialGradient>
<linearGradient id="paint15_linear_533_3786" x1="31.0698" y1="59.0894" x2="224.084" y2="59.0894" gradientUnits="userSpaceOnUse">
<stop stop-color="#D7F0B9"/>
<stop offset="0.0669145" stop-color="white"/>
<stop offset="0.1766" stop-color="#E5FF9C"/>
<stop offset="1" stop-color="#F8FFE6"/>
</linearGradient>
<linearGradient id="paint16_linear_533_3786" x1="224.084" y1="58.9504" x2="417.19" y2="58.9504" gradientUnits="userSpaceOnUse">
<stop stop-color="#F8FFE6"/>
<stop offset="0.8234" stop-color="#E5FF9C"/>
<stop offset="0.9331" stop-color="white"/>
<stop offset="1" stop-color="#D7F0B9"/>
</linearGradient>
<radialGradient id="paint17_radial_533_3786" cx="0" cy="0" r="1" gradientUnits="userSpaceOnUse" gradientTransform="translate(223.903 150.58) scale(242.311 242.311)">
<stop stop-color="#7AD119"/>
<stop offset="0.2796" stop-color="#528515"/>
<stop offset="0.5644" stop-color="#2D3E11"/>
<stop offset="0.7699" stop-color="#16120E"/>
<stop offset="0.8736" stop-color="#0D010D"/>
</radialGradient>
<radialGradient id="paint18_radial_533_3786" cx="0" cy="0" r="1" gradientUnits="userSpaceOnUse" gradientTransform="translate(115.621 262.872) scale(28.889 28.889)">
<stop stop-color="#FC8200"/>
<stop offset="1" stop-color="#E34F00"/>
</radialGradient>
<radialGradient id="paint19_radial_533_3786" cx="0" cy="0" r="1" gradientUnits="userSpaceOnUse" gradientTransform="translate(122.954 206.056) scale(63.8576 63.8576)">
<stop stop-color="#FCF800"/>
<stop offset="1" stop-color="#FC9700"/>
</radialGradient>
<radialGradient id="paint20_radial_533_3786" cx="0" cy="0" r="1" gradientUnits="userSpaceOnUse" gradientTransform="translate(124.507 203.226) scale(66.4842 66.4842)">
<stop offset="7e-08" stop-color="white"/>
<stop offset="0.0963096" stop-color="#FFFDF9"/>
<stop offset="0.2205" stop-color="#FFF7E9"/>
<stop offset="0.3601" stop-color="#FFECCF"/>
<stop offset="0.5108" stop-color="#FFDEAA"/>
<stop offset="0.6706" stop-color="#FFCC7A"/>
<stop offset="0.8354" stop-color="#FFB641"/>
<stop offset="1" stop-color="#FF9D00"/>
</radialGradient>
<radialGradient id="paint21_radial_533_3786" cx="0" cy="0" r="1" gradientUnits="userSpaceOnUse" gradientTransform="translate(124.535 200.658) scale(33.5727 33.5727)">
<stop stop-color="#FFFACF"/>
<stop offset="1"/>
</radialGradient>
<radialGradient id="paint22_radial_533_3786" cx="0" cy="0" r="1" gradientUnits="userSpaceOnUse" gradientTransform="translate(135.629 244.355) scale(40.2119 40.2118)">
<stop/>
<stop offset="0.1681" stop-color="#251B00"/>
<stop offset="0.5449" stop-color="#856100"/>
<stop offset="1" stop-color="#FFBB00"/>
</radialGradient>
<radialGradient id="paint23_radial_533_3786" cx="0" cy="0" r="1" gradientUnits="userSpaceOnUse" gradientTransform="translate(105.415 220.095) scale(19.9408 19.9408)">
<stop stop-color="#FCAC00"/>
<stop offset="1" stop-color="#E36600"/>
</radialGradient>
<radialGradient id="paint24_radial_533_3786" cx="0" cy="0" r="1" gradientUnits="userSpaceOnUse" gradientTransform="translate(204.139 238.3) scale(47.7723 47.7723)">
<stop stop-color="#FCAC00"/>
<stop offset="1" stop-color="#E36600"/>
</radialGradient>
<radialGradient id="paint25_radial_533_3786" cx="0" cy="0" r="1" gradientUnits="userSpaceOnUse" gradientTransform="translate(162.833 254.085) scale(25.3969 25.3969)">
<stop stop-color="#FCAC00"/>
<stop offset="1" stop-color="#FF6600"/>
</radialGradient>
<radialGradient id="paint26_radial_533_3786" cx="0" cy="0" r="1" gradientUnits="userSpaceOnUse" gradientTransform="translate(112.269 250.706) scale(14.2235 14.2236)">
<stop stop-color="#FFF261"/>
<stop offset="0.1102" stop-color="#FAEE5F"/>
<stop offset="0.2341" stop-color="#EDE15A"/>
<stop offset="0.3647" stop-color="#D6CB52"/>
<stop offset="0.4999" stop-color="#B7AD46"/>
<stop offset="0.6388" stop-color="#8E8736"/>
<stop offset="0.7807" stop-color="#5C5823"/>
<stop offset="0.9223" stop-color="#23210D"/>
<stop offset="1"/>
</radialGradient>
<radialGradient id="paint27_radial_533_3786" cx="0" cy="0" r="1" gradientUnits="userSpaceOnUse" gradientTransform="translate(163.751 251.71) scale(14.837 14.8371)">
<stop stop-color="#FFF261"/>
<stop offset="0.1102" stop-color="#FAEE5F"/>
<stop offset="0.2341" stop-color="#EDE15A"/>
<stop offset="0.3647" stop-color="#D6CB52"/>
<stop offset="0.4999" stop-color="#B7AD46"/>
<stop offset="0.6388" stop-color="#8E8736"/>
<stop offset="0.7807" stop-color="#5C5823"/>
<stop offset="0.9223" stop-color="#23210D"/>
<stop offset="1"/>
</radialGradient>
<radialGradient id="paint28_radial_533_3786" cx="0" cy="0" r="1" gradientUnits="userSpaceOnUse" gradientTransform="translate(103.103 216.031) scale(9.98748 9.98749)">
<stop stop-color="#FFF261"/>
<stop offset="0.1102" stop-color="#FAEE5F"/>
<stop offset="0.2341" stop-color="#EDE15A"/>
<stop offset="0.3647" stop-color="#D6CB52"/>
<stop offset="0.4999" stop-color="#B7AD46"/>
<stop offset="0.6388" stop-color="#8E8736"/>
<stop offset="0.7807" stop-color="#5C5823"/>
<stop offset="0.9223" stop-color="#23210D"/>
<stop offset="1"/>
</radialGradient>
<radialGradient id="paint29_radial_533_3786" cx="0" cy="0" r="1" gradientUnits="userSpaceOnUse" gradientTransform="translate(174.532 215.527) scale(13.105 13.105)">
<stop stop-color="#FFF261"/>
<stop offset="0.1102" stop-color="#FAEE5F"/>
<stop offset="0.2341" stop-color="#EDE15A"/>
<stop offset="0.3647" stop-color="#D6CB52"/>
<stop offset="0.4999" stop-color="#B7AD46"/>
<stop offset="0.6388" stop-color="#8E8736"/>
<stop offset="0.7807" stop-color="#5C5823"/>
<stop offset="0.9223" stop-color="#23210D"/>
<stop offset="1"/>
</radialGradient>
<radialGradient id="paint30_radial_533_3786" cx="0" cy="0" r="1" gradientUnits="userSpaceOnUse" gradientTransform="translate(200.796 265.468) scale(31.0669 31.0669)">
<stop stop-color="#FC8200"/>
<stop offset="1" stop-color="#E34F00"/>
</radialGradient>
<radialGradient id="paint31_radial_533_3786" cx="0" cy="0" r="1" gradientUnits="userSpaceOnUse" gradientTransform="translate(208.683 204.369) scale(68.6717 68.6717)">
<stop stop-color="#FCF800"/>
<stop offset="1" stop-color="#FC9700"/>
</radialGradient>
<radialGradient id="paint32_radial_533_3786" cx="0" cy="0" r="1" gradientUnits="userSpaceOnUse" gradientTransform="translate(210.351 201.325) scale(71.4963 71.4963)">
<stop offset="7e-08" stop-color="white"/>
<stop offset="0.0963096" stop-color="#FFFDF9"/>
<stop offset="0.2205" stop-color="#FFF7E9"/>
<stop offset="0.3601" stop-color="#FFECCF"/>
<stop offset="0.5108" stop-color="#FFDEAA"/>
<stop offset="0.6706" stop-color="#FFCC7A"/>
<stop offset="0.8354" stop-color="#FFB641"/>
<stop offset="1" stop-color="#FF9D00"/>
</radialGradient>
<radialGradient id="paint33_radial_533_3786" cx="0" cy="0" r="1" gradientUnits="userSpaceOnUse" gradientTransform="translate(210.381 198.564) scale(36.1038 36.1038)">
<stop stop-color="#FFFACF"/>
<stop offset="1"/>
</radialGradient>
<radialGradient id="paint34_radial_533_3786" cx="0" cy="0" r="1" gradientUnits="userSpaceOnUse" gradientTransform="translate(222.314 245.555) scale(43.243 43.243)">
<stop/>
<stop offset="0.1681" stop-color="#251B00"/>
<stop offset="0.5449" stop-color="#856100"/>
<stop offset="1" stop-color="#FFBB00"/>
</radialGradient>
<radialGradient id="paint35_radial_533_3786" cx="0" cy="0" r="1" gradientUnits="userSpaceOnUse" gradientTransform="translate(189.821 219.465) scale(21.4441 21.4441)">
<stop stop-color="#FCAC00"/>
<stop offset="1" stop-color="#E36600"/>
</radialGradient>
<radialGradient id="paint36_radial_533_3786" cx="0" cy="0" r="1" gradientUnits="userSpaceOnUse" gradientTransform="translate(295.988 239.044) scale(51.374 51.374)">
<stop stop-color="#FCAC00"/>
<stop offset="1" stop-color="#E36600"/>
</radialGradient>
<radialGradient id="paint37_radial_533_3786" cx="0" cy="0" r="1" gradientUnits="userSpaceOnUse" gradientTransform="translate(251.567 256.019) scale(27.3116 27.3116)">
<stop stop-color="#FCAC00"/>
<stop offset="1" stop-color="#FF6600"/>
</radialGradient>
<radialGradient id="paint38_radial_533_3786" cx="0" cy="0" r="1" gradientUnits="userSpaceOnUse" gradientTransform="translate(197.191 252.386) scale(15.2959 15.296)">
<stop stop-color="#FFF261"/>
<stop offset="0.1102" stop-color="#FAEE5F"/>
<stop offset="0.2341" stop-color="#EDE15A"/>
<stop offset="0.3647" stop-color="#D6CB52"/>
<stop offset="0.4999" stop-color="#B7AD46"/>
<stop offset="0.6388" stop-color="#8E8736"/>
<stop offset="0.7807" stop-color="#5C5823"/>
<stop offset="0.9223" stop-color="#23210D"/>
<stop offset="1"/>
</radialGradient>
<radialGradient id="paint39_radial_533_3786" cx="0" cy="0" r="1" gradientUnits="userSpaceOnUse" gradientTransform="translate(252.555 253.465) scale(15.9559 15.9559)">
<stop stop-color="#FFF261"/>
<stop offset="0.1102" stop-color="#FAEE5F"/>
<stop offset="0.2341" stop-color="#EDE15A"/>
<stop offset="0.3647" stop-color="#D6CB52"/>
<stop offset="0.4999" stop-color="#B7AD46"/>
<stop offset="0.6388" stop-color="#8E8736"/>
<stop offset="0.7807" stop-color="#5C5823"/>
<stop offset="0.9223" stop-color="#23210D"/>
<stop offset="1"/>
</radialGradient>
<radialGradient id="paint40_radial_533_3786" cx="0" cy="0" r="1" gradientUnits="userSpaceOnUse" gradientTransform="translate(187.335 215.095) scale(10.7406 10.7406)">
<stop stop-color="#FFF261"/>
<stop offset="0.1102" stop-color="#FAEE5F"/>
<stop offset="0.2341" stop-color="#EDE15A"/>
<stop offset="0.3647" stop-color="#D6CB52"/>
<stop offset="0.4999" stop-color="#B7AD46"/>
<stop offset="0.6388" stop-color="#8E8736"/>
<stop offset="0.7807" stop-color="#5C5823"/>
<stop offset="0.9223" stop-color="#23210D"/>
<stop offset="1"/>
</radialGradient>
<radialGradient id="paint41_radial_533_3786" cx="0" cy="0" r="1" gradientUnits="userSpaceOnUse" gradientTransform="translate(264.149 214.553) scale(14.0934 14.0934)">
<stop stop-color="#FFF261"/>
<stop offset="0.1102" stop-color="#FAEE5F"/>
<stop offset="0.2341" stop-color="#EDE15A"/>
<stop offset="0.3647" stop-color="#D6CB52"/>
<stop offset="0.4999" stop-color="#B7AD46"/>
<stop offset="0.6388" stop-color="#8E8736"/>
<stop offset="0.7807" stop-color="#5C5823"/>
<stop offset="0.9223" stop-color="#23210D"/>
<stop offset="1"/>
</radialGradient>
<radialGradient id="paint42_radial_533_3786" cx="0" cy="0" r="1" gradientUnits="userSpaceOnUse" gradientTransform="translate(289.212 262.872) scale(28.889 28.889)">
<stop stop-color="#FC8200"/>
<stop offset="1" stop-color="#E34F00"/>
</radialGradient>
<radialGradient id="paint43_radial_533_3786" cx="0" cy="0" r="1" gradientUnits="userSpaceOnUse" gradientTransform="translate(296.545 206.056) scale(63.8576 63.8576)">
<stop stop-color="#FCF800"/>
<stop offset="1" stop-color="#FC9700"/>
</radialGradient>
<radialGradient id="paint44_radial_533_3786" cx="0" cy="0" r="1" gradientUnits="userSpaceOnUse" gradientTransform="translate(298.098 203.226) scale(66.4842 66.4842)">
<stop offset="7e-08" stop-color="white"/>
<stop offset="0.0963096" stop-color="#FFFDF9"/>
<stop offset="0.2205" stop-color="#FFF7E9"/>
<stop offset="0.3601" stop-color="#FFECCF"/>
<stop offset="0.5108" stop-color="#FFDEAA"/>
<stop offset="0.6706" stop-color="#FFCC7A"/>
<stop offset="0.8354" stop-color="#FFB641"/>
<stop offset="1" stop-color="#FF9D00"/>
</radialGradient>
<radialGradient id="paint45_radial_533_3786" cx="0" cy="0" r="1" gradientUnits="userSpaceOnUse" gradientTransform="translate(298.126 200.658) scale(33.5727 33.5727)">
<stop stop-color="#FFFACF"/>
<stop offset="1"/>
</radialGradient>
<radialGradient id="paint46_radial_533_3786" cx="0" cy="0" r="1" gradientUnits="userSpaceOnUse" gradientTransform="translate(309.221 244.355) scale(40.2119 40.2118)">
<stop/>
<stop offset="0.1681" stop-color="#251B00"/>
<stop offset="0.5449" stop-color="#856100"/>
<stop offset="1" stop-color="#FFBB00"/>
</radialGradient>
<radialGradient id="paint47_radial_533_3786" cx="0" cy="0" r="1" gradientUnits="userSpaceOnUse" gradientTransform="translate(279.007 220.095) scale(19.9408 19.9408)">
<stop stop-color="#FCAC00"/>
<stop offset="1" stop-color="#E36600"/>
</radialGradient>
<radialGradient id="paint48_radial_533_3786" cx="0" cy="0" r="1" gradientUnits="userSpaceOnUse" gradientTransform="translate(377.73 238.3) scale(47.7723 47.7723)">
<stop stop-color="#FCAC00"/>
<stop offset="1" stop-color="#E36600"/>
</radialGradient>
<radialGradient id="paint49_radial_533_3786" cx="0" cy="0" r="1" gradientUnits="userSpaceOnUse" gradientTransform="translate(336.424 254.085) scale(25.3969 25.3969)">
<stop stop-color="#FCAC00"/>
<stop offset="1" stop-color="#FF6600"/>
</radialGradient>
<radialGradient id="paint50_radial_533_3786" cx="0" cy="0" r="1" gradientUnits="userSpaceOnUse" gradientTransform="translate(285.86 250.706) scale(14.2236 14.2236)">
<stop stop-color="#FFF261"/>
<stop offset="0.1102" stop-color="#FAEE5F"/>
<stop offset="0.2341" stop-color="#EDE15A"/>
<stop offset="0.3647" stop-color="#D6CB52"/>
<stop offset="0.4999" stop-color="#B7AD46"/>
<stop offset="0.6388" stop-color="#8E8736"/>
<stop offset="0.7807" stop-color="#5C5823"/>
<stop offset="0.9223" stop-color="#23210D"/>
<stop offset="1"/>
</radialGradient>
<radialGradient id="paint51_radial_533_3786" cx="0" cy="0" r="1" gradientUnits="userSpaceOnUse" gradientTransform="translate(337.342 251.71) scale(14.8371 14.8371)">
<stop stop-color="#FFF261"/>
<stop offset="0.1102" stop-color="#FAEE5F"/>
<stop offset="0.2341" stop-color="#EDE15A"/>
<stop offset="0.3647" stop-color="#D6CB52"/>
<stop offset="0.4999" stop-color="#B7AD46"/>
<stop offset="0.6388" stop-color="#8E8736"/>
<stop offset="0.7807" stop-color="#5C5823"/>
<stop offset="0.9223" stop-color="#23210D"/>
<stop offset="1"/>
</radialGradient>
<radialGradient id="paint52_radial_533_3786" cx="0" cy="0" r="1" gradientUnits="userSpaceOnUse" gradientTransform="translate(276.695 216.031) scale(9.98748 9.98749)">
<stop stop-color="#FFF261"/>
<stop offset="0.1102" stop-color="#FAEE5F"/>
<stop offset="0.2341" stop-color="#EDE15A"/>
<stop offset="0.3647" stop-color="#D6CB52"/>
<stop offset="0.4999" stop-color="#B7AD46"/>
<stop offset="0.6388" stop-color="#8E8736"/>
<stop offset="0.7807" stop-color="#5C5823"/>
<stop offset="0.9223" stop-color="#23210D"/>
<stop offset="1"/>
</radialGradient>
<radialGradient id="paint53_radial_533_3786" cx="0" cy="0" r="1" gradientUnits="userSpaceOnUse" gradientTransform="translate(348.124 215.527) scale(13.105 13.105)">
<stop stop-color="#FFF261"/>
<stop offset="0.1102" stop-color="#FAEE5F"/>
<stop offset="0.2341" stop-color="#EDE15A"/>
<stop offset="0.3647" stop-color="#D6CB52"/>
<stop offset="0.4999" stop-color="#B7AD46"/>
<stop offset="0.6388" stop-color="#8E8736"/>
<stop offset="0.7807" stop-color="#5C5823"/>
<stop offset="0.9223" stop-color="#23210D"/>
<stop offset="1"/>
</radialGradient>
<linearGradient id="paint54_linear_533_3786" x1="223.221" y1="65.9302" x2="223.221" y2="32.8025" gradientUnits="userSpaceOnUse">
<stop stop-color="#E5FF9C"/>
<stop offset="1" stop-color="#F8FFE6"/>
</linearGradient>
</defs>
</svg>
